<svg xmlns="http://www.w3.org/2000/svg" viewBox="0 0 84.21 87.14"><defs><style>.cls-1{fill:#6cc069;}.cls-2{fill:#9bd698;}.cls-3{fill:#260029;}.cls-4{fill:#133258;}</style></defs><g id="Layer_2" data-name="Layer 2"><g id="_"><path class="cls-1" d="M9,26.52c7-13.84,23-22.67,38.4-21S76.64,19.34,80,34.5A53,53,0,0,1,81,44.71a45.65,45.65,0,0,1-.9,11A34.23,34.23,0,0,1,67,75.23a44.82,44.82,0,0,1-22.22,8.28,40.32,40.32,0,0,1-6.5.18c-20.47-1.2-34-21.57-33.35-40.95A38.93,38.93,0,0,1,9,26.52Z"/><path class="cls-2" d="M30.3,11.72a12,12,0,0,0-5,.13,5.11,5.11,0,0,0-3.56,3.31c1.82.49,3.15,2,4.73,3a19.42,19.42,0,0,0,4.68,2l13.17,4.28A155.51,155.51,0,0,0,64.22,30c3,.54,6.12.89,8.89-.28.93-.4,1.92-1.25,1.67-2.23A2.47,2.47,0,0,0,74,26.44c-2.53-2.53-5.61-5.84-9.26-6.64-3.39-.74-7-.45-10.46-1.29C46.22,16.57,38.59,12.87,30.3,11.72Z"/><path class="cls-2" d="M27.41,26.93c2.73.94,5.62,1.4,8.31,2.45a40,40,0,0,1,8.7,5.29l10.93,8A17.34,17.34,0,0,0,61.6,46c4.05.9,8.8-1.06,12.18,1.35,2.39,1.71,3,4.94,3.48,7.84a2.43,2.43,0,0,1-.3,2.06,2.23,2.23,0,0,1-1.28.56c-7.51,1.42-14.93-2.37-22.52-3.22-6.55-.73-13.41.71-19.65-1.42-5.79-2-10.12-6.71-15-10.47A51.39,51.39,0,0,0,8.36,36.55c-.89-.41-1.9-.89-2.2-1.83a3.14,3.14,0,0,1,.1-1.79c1.07-4.05,4.16-10,8.25-11.8C18.42,19.38,23.52,25.58,27.41,26.93Z"/><path class="cls-2" d="M27.62,62.85c8.08,2.36,16.69,1.62,25.09,1.24,6.72-.3,13.94-.2,19.43,3.67a7.61,7.61,0,0,1-3.21,3.31c-2.14.86-4.48-.35-6.66-1.11C51.65,66.29,40,73.75,29,71.55,21.3,70,15.32,64.12,10.59,57.92,9.1,56,5.1,51,6.08,48.2c.86-2.45,3.07,1.31,4.12,2.58C14.88,56.4,20.51,60.76,27.62,62.85Z"/><path class="cls-3" d="M21.76,77.83C13.4,70.52,7.24,62,5.41,50.78A38.4,38.4,0,0,1,13.5,20.57c14.29-17.68,39.29-18,55.73-3.18.26.23.63-.19.41-.45-15.11-17-42.7-14.62-56.73,2.34-14.45,17.48-11.43,46.65,8.55,59A.26.26,0,0,0,21.76,77.83Z"/><path class="cls-3" d="M19.42,76.55C32.89,91.31,61,83.64,73,70.65c7.06-7.64,9.12-18.5,8.1-28.58-1-9.65-4-20.9-12.68-26.42a.36.36,0,0,0-.41.58c14.51,11.67,16.65,40,4,53.62C59.78,83.05,34.1,88.93,19.85,76.09,19.58,75.85,19.19,76.29,19.42,76.55Z"/><path class="cls-3" d="M18.71,74.22a37.16,37.16,0,0,0,13,7.36c.15,0,.24-.18.09-.24A46.81,46.81,0,0,1,18.85,74C18.72,73.91,18.59,74.11,18.71,74.22Z"/><path class="cls-3" d="M21.44,74.21a21.92,21.92,0,0,0,15,6.19c.15,0,.18-.23,0-.24A23.85,23.85,0,0,1,21.61,74C21.5,73.94,21.34,74.12,21.44,74.21Z"/><path class="cls-3" d="M10.16,35.34c5.95,3.34,10.29,4.35,17,2.85,4.63-1,8.92-2.13,13.58-.22,3.69,1.51,6.68,4.35,9.69,6.87.13.1.32-.1.2-.22-4.05-4-8.87-8-14.82-8.27-3.25-.14-6.37.87-9.51,1.58-6,1.37-10.69.13-16-2.79C10.17,35.06,10,35.26,10.16,35.34Z"/><path class="cls-3" d="M19.67,44.31C25.5,47.68,31,52.39,37.78,53.69c7.7,1.47,15.64-5.23,22.8-.65a.15.15,0,0,0,.17-.25c-4.58-3.51-9.67-1.41-14.7-.09-10.22,2.69-17.84-4-26.22-8.61C19.68,44,19.52,44.22,19.67,44.31Z"/><path class="cls-3" d="M27,46.75c4,2.11,8.12,4.19,12.66,4.68,2.62.28,7.12.24,8.9-2.18,4.29-5.82-8.07-9.78-11.73-9.87-.17,0-.19.25,0,.26,2.47.15,5.89.61,7.87,2.29l1.15.8c.2,2.47.41,5,.61,7.42-1,1.11-4.9.9-6,.83-4.71-.27-9.15-2.41-13.31-4.48C27,46.43,26.86,46.67,27,46.75Z"/><path class="cls-3" d="M22.81,41.56c4.72.75,9.24-1.34,14-1a.14.14,0,0,0,0-.27c-4.73-.78-9.23,1.75-14,1A.13.13,0,0,0,22.81,41.56Z"/><path class="cls-3" d="M11.32,39C16.2,41.34,21,43.75,26,45.88c.15.06.23-.17.09-.24-4.82-2.42-9.78-4.58-14.67-6.82C11.27,38.76,11.19,39,11.32,39Z"/><path class="cls-3" d="M25.68,44.44a34.57,34.57,0,0,0,13.08,4.73c2.09.22,7.32.18,8.24-2.55s-2.73-4.34-4.69-4.82a25.06,25.06,0,0,0-13.85,1,.19.19,0,0,0-.07.3A9.92,9.92,0,0,0,34.86,47c.13,0,.19-.2.06-.23-.93-.23-5.41-1.53-5.44-3s2.16-1.56,3.19-1.73c2-.34,9-1.37,10.63.47l-.43,6a11.22,11.22,0,0,1-3.47.21,23.11,23.11,0,0,1-4.81-.93,42.23,42.23,0,0,1-8.76-3.65C25.68,44.15,25.53,44.35,25.68,44.44Z"/><path class="cls-3" d="M36.65,47.42a8.5,8.5,0,0,0,5.3.14c.14,0,.06-.25-.07-.23a10.89,10.89,0,0,1-5.14-.14C36.59,47.14,36.5,47.37,36.65,47.42Z"/><path class="cls-3" d="M31.2,44.32c3.27,1.77,10,4.08,13.1.74.1-.11,0-.3-.16-.19-3.25,3-9.42,1-12.82-.79C31.19,44,31.07,44.25,31.2,44.32Z"/><path class="cls-3" d="M31.64,43.42c1.11-.27,12.21-1.91,11.39,1.19a.15.15,0,0,0,.28.11c1.72-3.83-10.27-2-11.72-1.57C31.42,43.19,31.46,43.46,31.64,43.42Z"/><path class="cls-3" d="M34,44.8a34.55,34.55,0,0,0,5.63.64c.87,0,1.7-.29,1.93-1.2a.18.18,0,0,0-.1-.22,12.34,12.34,0,0,0-7.53-.13c-.16,0-.07.31.1.28a20.4,20.4,0,0,1,3.66-.4,14.18,14.18,0,0,1,1.6.12c.54.08,2.58.14,1,1.11-.64.4-2.31,0-3-.13L34,44.5C33.82,44.48,33.8,44.77,34,44.8Z"/><path class="cls-3" d="M13.64,38.37a17.7,17.7,0,0,0,9.19,2.06c4.82-.27,9-2.6,13.91-1.8.16,0,.23-.25.06-.29-3-.72-5.58-.13-8.57.63-5.12,1.3-9.59,1.35-14.5-.84C13.58,38.06,13.5,38.3,13.64,38.37Z"/><path class="cls-3" d="M18.56,41.17a54,54,0,0,0,7.23,2.75.15.15,0,0,0,.11-.28,54.42,54.42,0,0,0-7.24-2.74A.14.14,0,0,0,18.56,41.17Z"/><path class="cls-3" d="M26.41,43.1l.93.11a.13.13,0,0,0,0-.26c-.31-.07-.62-.11-.93-.16A.16.16,0,0,0,26.41,43.1Z"/><path class="cls-3" d="M49.73,50.21c5.16-1.34,9.7.75,14.32,2.83.12.06.23-.14.11-.21-4.42-2.35-9.51-4.54-14.52-2.9C49.48,50,49.57,50.25,49.73,50.21Z"/><path class="cls-3" d="M51.32,46.13A96.81,96.81,0,0,0,71.81,55c.17,0,.27-.2.1-.26a139.08,139.08,0,0,1-20.44-8.85C51.32,45.85,51.17,46.05,51.32,46.13Z"/><path class="cls-3" d="M50,46.4a22.16,22.16,0,0,0,2.11,1.74c.11.08.27-.08.16-.18a22.33,22.33,0,0,0-2.12-1.77C50,46.08,49.88,46.29,50,46.4Z"/><path class="cls-3" d="M50,48.84a5.4,5.4,0,0,1,2.72-.72.14.14,0,0,0,0-.28,4,4,0,0,0-2.88.78C49.73,48.7,49.86,48.91,50,48.84Z"/><path class="cls-3" d="M46.76,51.76a28.2,28.2,0,0,0,3-1,.12.12,0,0,0-.07-.22,26.65,26.65,0,0,0-3,1C46.53,51.54,46.61,51.81,46.76,51.76Z"/><path class="cls-3" d="M47.42,40.82a32.19,32.19,0,0,0,13.86,8.61c.13,0,.21-.16.07-.2a34.15,34.15,0,0,1-13.76-8.56C47.49,40.57,47.31,40.71,47.42,40.82Z"/><path class="cls-3" d="M37.82,56.43c5,.91,8.78-1.52,13.49-2.63,7.2-1.71,14.26,1.79,21.15,3.56.15,0,.24-.19.09-.24-5.53-1.9-12.24-4.8-18.2-4.32-5.76.47-10.53,4.38-16.5,3.4C37.7,56.17,37.68,56.4,37.82,56.43Z"/><path class="cls-3" d="M66.74,54.21c3.13.82,6.28,1.6,9.44,2.29.13,0,.18-.19.06-.23-3.12-.85-6.28-1.63-9.44-2.34C66.65,53.89,66.58,54.16,66.74,54.21Z"/><path class="cls-3" d="M63.32,50.35A56.25,56.25,0,0,0,79.21,55.1c.15,0,.17-.21,0-.24a64.05,64.05,0,0,1-15.84-4.71C63.27,50.1,63.2,50.29,63.32,50.35Z"/><path class="cls-3" d="M65.24,49.53A79.43,79.43,0,0,0,76.65,53c.14,0,.19-.2,0-.24-3.82-1.1-7.62-2.15-11.36-3.5C65.17,49.19,65.07,49.46,65.24,49.53Z"/><path class="cls-3" d="M67.8,48.33c1,.39,1.93.8,2.92,1.14a.13.13,0,0,0,.09-.24c-1-.42-1.94-.78-2.91-1.16A.14.14,0,0,0,67.8,48.33Z"/><path class="cls-3" d="M71,47.64a17.06,17.06,0,0,0,3.26.38c.16,0,.24-.24.07-.29a16.68,16.68,0,0,0-3.3-.44A.18.18,0,0,0,71,47.64Z"/><path class="cls-3" d="M67.22,44.28A40,40,0,0,1,75,45.75c.16,0,.25-.18.09-.24A29.75,29.75,0,0,0,67.24,44,.16.16,0,0,0,67.22,44.28Z"/><path class="cls-3" d="M66.6,41.9a61.62,61.62,0,0,1,9.88,1.93c.16,0,.26-.19.09-.25a43.15,43.15,0,0,0-9.94-2A.15.15,0,0,0,66.6,41.9Z"/><path class="cls-3" d="M37.69,38.32c1,.25,2,.47,3,.63.14,0,.2-.22.06-.26-1-.26-2-.47-3-.64C37.6,38,37.54,38.28,37.69,38.32Z"/><path class="cls-3" d="M10.85,37.6a9.36,9.36,0,0,1-5-4.42.13.13,0,0,0-.23.11,7.6,7.6,0,0,0,5.17,4.57A.14.14,0,0,0,10.85,37.6Z"/><path class="cls-3" d="M9.08,35.15A4.73,4.73,0,0,1,7.41,34a7.69,7.69,0,0,1-1-1.65.14.14,0,0,0-.27.08A4.41,4.41,0,0,0,9,35.47.17.17,0,0,0,9.08,35.15Z"/><path class="cls-3" d="M8.64,33.52a35.21,35.21,0,0,0-2.51-2.67c-.13-.11-.32,0-.21.18a35,35,0,0,0,2.46,2.71C8.53,33.9,8.79,33.69,8.64,33.52Z"/><path class="cls-3" d="M5.33,35.88a2.57,2.57,0,0,0,2.16,2,.14.14,0,0,0,.06-.28,3.27,3.27,0,0,1-2-1.75C5.52,35.68,5.28,35.75,5.33,35.88Z"/><path class="cls-3" d="M8.62,39a28.58,28.58,0,0,0,9.07,5.54.13.13,0,0,0,.08-.24,42.78,42.78,0,0,1-9-5.53C8.63,38.69,8.48,38.92,8.62,39Z"/><path class="cls-3" d="M10.1,42.55A70.82,70.82,0,0,1,27.82,53.16c.16.13.33-.12.18-.26A58.83,58.83,0,0,0,10.19,42.29C10,42.22,9.93,42.49,10.1,42.55Z"/><path class="cls-3" d="M15.15,46.7C23.32,50,29.22,58,38.11,59.49c.16,0,.22-.23.07-.27-8.8-2.2-14.62-9.56-22.94-12.77A.13.13,0,0,0,15.15,46.7Z"/><path class="cls-3" d="M24,53.86c5.77,3.89,12,7.83,19.22,7.28.13,0,.12-.24,0-.23-7.26.15-13.17-3.44-19-7.3C24,53.5,23.79,53.75,24,53.86Z"/><path class="cls-3" d="M23.77,74.08A27,27,0,0,0,35.43,78.8c.19,0,.2-.24,0-.28a30.76,30.76,0,0,1-11.53-4.68A.14.14,0,0,0,23.77,74.08Z"/><path class="cls-3" d="M28.65,74.54c1.17.66,2.32,1.33,3.5,2,.14.08.28-.12.14-.2-1.14-.69-2.32-1.32-3.48-2C28.66,74.24,28.5,74.46,28.65,74.54Z"/><path class="cls-3" d="M39.25,81.9a15,15,0,0,0,9-.12c.13,0,.06-.27-.07-.23a16.56,16.56,0,0,1-8.78.09C39.18,81.6,39.09,81.85,39.25,81.9Z"/><path class="cls-3" d="M37.66,79.88a34,34,0,0,0,10.84.57c.15,0,.1-.25,0-.24a39.69,39.69,0,0,1-10.77-.6C37.51,79.57,37.49,79.84,37.66,79.88Z"/><path class="cls-3" d="M36.91,78.43c1.48.11,3,.24,4.45.33a.12.12,0,0,0,0-.23c-1.48-.15-3-.24-4.45-.35A.13.13,0,0,0,36.91,78.43Z"/><path class="cls-3" d="M18,71.74c-2.85-3-5.6-6-8.39-9a.14.14,0,0,0-.21.17,77.1,77.1,0,0,0,8.38,9C18,72.05,18.17,71.88,18,71.74Z"/><path class="cls-3" d="M19.84,71.74c.13,0,.15-.21,0-.21S19.71,71.74,19.84,71.74Z"/><path class="cls-3" d="M21.6,72.79a19.4,19.4,0,0,1-2.42-2c-.69-.69-1.26-1.48-1.9-2.2-.1-.11-.3,0-.22.14A12,12,0,0,0,21.43,73,.15.15,0,0,0,21.6,72.79Z"/><path class="cls-3" d="M22.33,71.35A4.88,4.88,0,0,1,20.89,70a.15.15,0,0,0-.25.17,3.22,3.22,0,0,0,1.5,1.46C22.33,71.73,22.53,71.46,22.33,71.35Z"/><path class="cls-3" d="M24.5,69.86a36.43,36.43,0,0,0,14.3,5.2c.19,0,.22-.28,0-.31a40.86,40.86,0,0,1-14.17-5.1C24.51,69.57,24.36,69.77,24.5,69.86Z"/><path class="cls-3" d="M29.42,70.29A28.12,28.12,0,0,0,39,73.52c.17,0,.2-.25,0-.28a30.37,30.37,0,0,1-9.44-3.19C29.43,70,29.26,70.2,29.42,70.29Z"/><path class="cls-3" d="M26.6,67.05l1.14.36a.13.13,0,0,0,.09-.24l-1.11-.42C26.52,66.67,26.41,67,26.6,67.05Z"/><path class="cls-3" d="M30.38,68.79A46.51,46.51,0,0,0,43.25,72a.12.12,0,1,0,0-.24A63.85,63.85,0,0,1,30.49,68.5.16.16,0,0,0,30.38,68.79Z"/><path class="cls-3" d="M31.33,67.19a31.07,31.07,0,0,0,12.45,2.66c.15,0,.18-.23,0-.24a36.26,36.26,0,0,1-12.37-2.7C31.26,66.83,31.15,67.11,31.33,67.19Z"/><path class="cls-3" d="M25.31,61.6a44.44,44.44,0,0,0,24.74,6.3c.17,0,.16-.3,0-.3a48.3,48.3,0,0,1-24.56-6.25C25.31,61.26,25.14,61.5,25.31,61.6Z"/><path class="cls-3" d="M32.59,63.06c2.95.81,5.93,1.55,8.91,2.25a11.23,11.23,0,0,0,6.16.19c.16,0,.12-.3,0-.26-4.81,1.1-10.27-1.38-15-2.43C32.51,62.78,32.45,63,32.59,63.06Z"/><path class="cls-3" d="M35.14,61.83c.85.21,1.7.45,2.56.6.14,0,.19-.2.06-.25-.82-.26-1.67-.45-2.51-.65C35.05,61.47,34.94,61.78,35.14,61.83Z"/><path class="cls-3" d="M40.42,63.39c3.11.3,6.23.67,9.36.83a.12.12,0,0,0,0-.24c-3.1-.42-6.24-.62-9.35-.89A.15.15,0,0,0,40.42,63.39Z"/><path class="cls-3" d="M46.17,62.63a2.69,2.69,0,0,0,1.75,0c.13,0,.06-.26-.07-.23a3,3,0,0,1-1.59,0A.14.14,0,0,0,46.17,62.63Z"/><path class="cls-3" d="M29.8,59.52a55.62,55.62,0,0,1-12.72-8.71c-.11-.09-.28.09-.18.2a39.66,39.66,0,0,0,12.79,8.81C29.88,59.91,30,59.61,29.8,59.52Z"/><path class="cls-3" d="M23,57.55c-2.17-1.55-4.31-3.12-6.5-4.63-.11-.09-.23.09-.12.17,2.14,1.57,4.32,3.1,6.49,4.64C23,57.82,23.14,57.63,23,57.55Z"/><path class="cls-3" d="M15.5,65.74a64.28,64.28,0,0,1-9.37-9.93c-.09-.11-.29,0-.21.14a34.32,34.32,0,0,0,9.41,10C15.49,66.09,15.64,65.85,15.5,65.74Z"/><path class="cls-3" d="M12.68,60.76A48.48,48.48,0,0,1,5.44,53c-.09-.12-.25,0-.17.15A37.84,37.84,0,0,0,12.53,61C12.66,61.1,12.82,60.88,12.68,60.76Z"/><path class="cls-3" d="M17,66.32a9.44,9.44,0,0,0,3.43,2.84c.14.07.26-.16.13-.25a14.54,14.54,0,0,1-3.29-2.82C17.12,65.92,16.87,66.14,17,66.32Z"/><path class="cls-3" d="M14.17,62.29a58.18,58.18,0,0,0,8.06,5.5c.13.07.28-.12.14-.21a90.11,90.11,0,0,1-8-5.51C14.18,62,14,62.18,14.17,62.29Z"/><path class="cls-3" d="M8.86,55A46.62,46.62,0,0,0,26.72,67.82c.18.07.27-.2.1-.27A51.19,51.19,0,0,1,9.05,54.84C8.94,54.72,8.76,54.87,8.86,55Z"/><path class="cls-3" d="M17.76,60.78A33.64,33.64,0,0,0,25,65.37c.14.06.26-.17.13-.25a56.37,56.37,0,0,1-7.14-4.6C17.78,60.39,17.6,60.65,17.76,60.78Z"/><path class="cls-3" d="M21.15,61.58c1.31.81,2.61,1.65,4,2.38.15.08.3-.12.16-.22-1.27-.87-2.61-1.65-3.92-2.44C21.15,61.18,21,61.46,21.15,61.58Z"/><path class="cls-3" d="M7.76,54.21A21.51,21.51,0,0,0,6,51.33a.16.16,0,0,0-.27.17,22.51,22.51,0,0,0,1.68,2.88C7.54,54.59,7.89,54.42,7.76,54.21Z"/><path class="cls-3" d="M51,81.19c1.83-.14,3.66-.31,5.49-.56.16,0,.11-.26-.05-.25-1.84.11-3.67.29-5.5.51C50.79,80.91,50.85,81.2,51,81.19Z"/><path class="cls-3" d="M44.14,77.51c.62.09,1.24.19,1.86.24.16,0,.18-.21,0-.24-.61-.13-1.24-.2-1.86-.28C44,77.21,44,77.49,44.14,77.51Z"/><path class="cls-3" d="M48.78,78.16a34.17,34.17,0,0,0,16-.4c.18-.05.14-.33,0-.29a41.4,41.4,0,0,1-15.88.41C48.63,77.85,48.61,78.13,48.78,78.16Z"/><path class="cls-3" d="M50.85,76.93a26.88,26.88,0,0,0,13.21-.64c.15-.05.07-.3-.08-.26a32.51,32.51,0,0,1-13.1.61C50.7,76.61,50.67,76.9,50.85,76.93Z"/><path class="cls-3" d="M47.83,74.81c1.7.27,3.41.41,5.12.6a.11.11,0,0,0,0-.22c-1.7-.23-3.4-.52-5.11-.67A.15.15,0,0,0,47.83,74.81Z"/><path class="cls-3" d="M56.73,75.49a41.46,41.46,0,0,0,11.05-.88c.16,0,.11-.26,0-.25-3.7.34-7.22,1-11,.84C56.57,75.19,56.54,75.48,56.73,75.49Z"/><path class="cls-3" d="M59.12,73.67a34.78,34.78,0,0,0,12.3-1.37c.16,0,.12-.29,0-.26a45.09,45.09,0,0,1-12.24,1.35C59,73.39,58.93,73.66,59.12,73.67Z"/><path class="cls-3" d="M51.6,69.82a78.21,78.21,0,0,0,18.22.36c.17,0,.12-.28,0-.27a102.85,102.85,0,0,1-18.15-.37C51.44,69.52,51.42,69.8,51.6,69.82Z"/><path class="cls-3" d="M54.86,71.9a42.14,42.14,0,0,0,11.92-.24c.15,0,.11-.25,0-.23a54.07,54.07,0,0,1-11.86.22A.13.13,0,0,0,54.86,71.9Z"/><path class="cls-3" d="M52.07,68.1a86.81,86.81,0,0,0,21.06.44c.17,0,.12-.26,0-.25a115.88,115.88,0,0,1-21-.45C51.92,67.81,51.9,68.08,52.07,68.1Z"/><path class="cls-3" d="M56.77,66.7a38.58,38.58,0,0,0,13,.21c.17,0,.13-.27,0-.26a45.17,45.17,0,0,1-13-.24C56.61,66.38,56.59,66.67,56.77,66.7Z"/><path class="cls-3" d="M61.13,66a33.24,33.24,0,0,0,10.05-.61.12.12,0,1,0,0-.24,44.48,44.48,0,0,1-10,.62C61,65.72,61,65.94,61.13,66Z"/><path class="cls-3" d="M12.7,35.51A15.32,15.32,0,0,0,22,37.28c1.08-.14,4.33-.43,4.76-1.86.65-2.11-2.82-4.56-4.22-5.29C18.4,28,13.43,28.38,9,26.93a.23.23,0,0,0-.16.43c4.65,1.54,10.16.95,14.36,3.7,1.24.81,4,2.92,2.46,4.8-.59.75-3.38,1-4.27,1a16.79,16.79,0,0,1-8.56-1.69C12.69,35.15,12.54,35.42,12.7,35.51Z"/><path class="cls-3" d="M11.92,33.16Q9,32.64,10.6,29.93a18.21,18.21,0,0,1,2.66-.1,21.57,21.57,0,0,1,3.31.32,15.69,15.69,0,0,1,7.69,3.71c.13.11.31-.09.2-.21a13.4,13.4,0,0,0-8.32-4c-2.25-.31-6.17-1-7.61,1.25a.21.21,0,0,0,0,.23,8.25,8.25,0,0,0,3.28,2.31C12,33.52,12.1,33.24,11.92,33.16Z"/><path class="cls-3" d="M14.1,34.45a16.53,16.53,0,0,0,7.07,1.48c1,0,3.21.14,3.27-1.3a.2.2,0,0,0-.39,0c-.27,1.38-4.46.88-5.39.77a17.2,17.2,0,0,1-4.46-1.19A.15.15,0,0,0,14.1,34.45Z"/><path class="cls-3" d="M11.07,31a19.45,19.45,0,0,1,11.11,2.76c.21.12.43-.17.22-.31A16.82,16.82,0,0,0,11,30.71C10.85,30.73,10.9,31,11.07,31Z"/><path class="cls-3" d="M12.94,32.74c2.83,1.75,6.57,2.72,9.82,1.59.18-.06.07-.32-.1-.3-3.46.33-6.45.24-9.56-1.53C12.94,32.41,12.77,32.64,12.94,32.74Z"/><path class="cls-3" d="M17,32.5c-.15,0-.44.07-.56,0l.07.25s1.23.25,1.35.27c.53.1,1.07.21,1.59.33a.16.16,0,0,0,.11-.29,10.06,10.06,0,0,0-3.06-.73.23.23,0,0,0-.23.14.5.5,0,0,0,0,.13.16.16,0,0,0,.09.2c.21.08.44-.07.65,0S17.14,32.53,17,32.5Z"/><path class="cls-3" d="M32.76,34.3c-1.3.73-8-5.47-9.88-6.26-3.86-1.66-8.16-.84-12-2.51-.24-.11-.36.26-.14.38,3.79,1.84,8.11.95,12,2.57,3.56,1.48,6.06,5.25,9.59,6.45a.19.19,0,0,0,.2,0l.4-.37C33,34.43,32.9,34.22,32.76,34.3Z"/><path class="cls-3" d="M32.8,33.06c-3.23-1.49-5.28-4.57-8.54-6-3.62-1.59-8-2.21-11.83-3-.19,0-.26.28-.08.33,4.24,1.13,9,1.43,12.87,3.6,2.7,1.54,4.58,4.07,7.48,5.31C32.88,33.42,33,33.14,32.8,33.06Z"/><path class="cls-3" d="M34.15,34.54c3.47,1.05,7.13,1.54,10.15,3.67.13.09.3-.09.19-.21-2.49-2.5-7-3-10.28-3.75C34,34.21,34,34.49,34.15,34.54Z"/><path class="cls-3" d="M29.94,29.86c5.62,4.51,13,4.92,18.48,9.85,4.51,4,8.49,7.54,14.7,8.45.23,0,.25-.3,0-.35a24.71,24.71,0,0,1-10.76-5c-2.37-2-4.38-4.31-7-6-4.78-3.16-10.75-3.57-15.35-7.1C30,29.54,29.81,29.76,29.94,29.86Z"/><path class="cls-3" d="M40.25,8a35.22,35.22,0,0,1,14.93,3c.15.07.29-.18.14-.26A27.75,27.75,0,0,0,40.24,7.62C40.05,7.63,40.07,8,40.25,8Z"/><path class="cls-3" d="M57.56,11.09c2.37,1.43,4.75,2.88,7.17,4.22.2.11.41-.18.21-.3-2.36-1.45-4.79-2.81-7.2-4.17C57.57,10.75,57.4,11,57.56,11.09Z"/><path class="cls-3" d="M46.64,9.92a68,68,0,0,1,15.5,5.38c.23.11.36-.26.14-.37a64.35,64.35,0,0,0-15.61-5.3C46.48,9.59,46.46,9.88,46.64,9.92Z"/><path class="cls-3" d="M75.23,51.07c2,.46,4,1,6,1.32.17,0,.23-.25.07-.29-2-.58-4-.9-6-1.3C75.14,50.76,75.08,51,75.23,51.07Z"/><path class="cls-3" d="M73.61,49.38c2.16.37,4.31.76,6.48,1.06.22,0,.24-.29,0-.33-2.15-.39-4.32-.7-6.48-1C73.45,49.06,73.43,49.35,73.61,49.38Z"/><path class="cls-3" d="M77.26,48.67a15.47,15.47,0,0,0,2.78.44c.16,0,.24-.23.07-.29a15.67,15.67,0,0,0-2.82-.47C77.09,48.33,77.07,48.63,77.26,48.67Z"/><path class="cls-3" d="M76.52,47.17a8.13,8.13,0,0,1,3,.67.15.15,0,0,0,.14-.26,4.66,4.66,0,0,0-3.11-.7C76.34,46.89,76.35,47.16,76.52,47.17Z"/><path class="cls-3" d="M49.27,56.21a26.66,26.66,0,0,1,10.25-.85c.18,0,.19-.22,0-.26A19.76,19.76,0,0,0,49.19,56C49,56,49.12,56.25,49.27,56.21Z"/><path class="cls-3" d="M61.56,56a22.48,22.48,0,0,0,2.33.3c.18,0,.19-.23,0-.27a20,20,0,0,0-2.32-.35A.16.16,0,0,0,61.56,56Z"/><path class="cls-3" d="M66.32,57.35q5.39,1.77,10.89,3.15c.27.06.42-.33.15-.4-3.66-1-7.31-2-10.94-3C66.24,57,66.13,57.29,66.32,57.35Z"/><path class="cls-3" d="M52.6,64a23.16,23.16,0,0,0,7.47,1.14c.17,0,.2-.25,0-.26a35,35,0,0,1-7.4-1.18C52.51,63.68,52.4,64,52.6,64Z"/><path class="cls-3" d="M52.2,61.79c8.08,1.57,16.23,2.9,24.32.74.25-.06.18-.45-.07-.39-8.15,2-16.1.77-24.22-.63C52.05,61.48,52,61.75,52.2,61.79Z"/><path class="cls-3" d="M43,58.47c1.45.3,2.91.65,4.38.83.14,0,.2-.21.06-.25-1.45-.39-3-.61-4.42-.87C42.83,58.15,42.81,58.43,43,58.47Z"/><path class="cls-3" d="M49.7,59.66c6.93,1,16.11,3.48,23,1.42.13,0,.23-.25.07-.34A34,34,0,0,0,50.17,57a.18.18,0,0,0,.06.35A34.86,34.86,0,0,1,61,57.09c1.38.19,10.43,1.54,10.06,4.07-.16,1.16-19.41-1.55-21.3-1.8A.15.15,0,0,0,49.7,59.66Z"/><path class="cls-3" d="M67.58,60.3c-2.13-.19-4.26-.43-6.38-.76-1.06-.17-2.12-.35-3.17-.56q-1-.21-2.07-.45c-1.34-.23-1.36-.3-.05-.22,4.07-.5,8.52.58,12.45,1.45.2,0,.27-.29.08-.34A41.08,41.08,0,0,0,53.8,58a.2.2,0,0,0,0,.38,81.24,81.24,0,0,0,13.78,2.21A.16.16,0,0,0,67.58,60.3Z"/><path class="cls-3" d="M50.9,58A16,16,0,0,0,45.54,57a.14.14,0,1,0,0,.27c1.74.34,3.57.7,5.33.91A.13.13,0,0,0,50.9,58Z"/><path class="cls-3" d="M29.11,52.2a16.18,16.18,0,0,0,9.09,3.22.14.14,0,0,0,0-.28,19.4,19.4,0,0,1-9-3.16A.13.13,0,0,0,29.11,52.2Z"/><path class="cls-3" d="M30,54.49c2.41.83,4.8,1.72,7.23,2.46.15,0,.23-.17.09-.22-2.39-.89-4.82-1.65-7.24-2.45A.11.11,0,0,0,30,54.49Z"/><path class="cls-3" d="M23,11.66a57.91,57.91,0,0,1,15.79,4.06c.18.07.26-.18.1-.27A42.36,42.36,0,0,0,23,11.27.2.2,0,0,0,23,11.66Z"/><path class="cls-3" d="M25.47,10.61a101.38,101.38,0,0,1,14.37,3.61.15.15,0,0,0,.1-.29A47.07,47.07,0,0,0,25.5,10.32.15.15,0,0,0,25.47,10.61Z"/><path class="cls-3" d="M33.49,10.65c1.18.49,2.38,1,3.6,1.39a.14.14,0,0,0,.1-.26c-1.16-.56-2.39-1-3.59-1.44A.16.16,0,0,0,33.49,10.65Z"/><path class="cls-3" d="M40.7,15.41c5.79.39,10.51,4.62,16.18,5.84,6.19,1.33,13-1.07,18.19,3.63.14.12.35,0,.23-.19-3.79-4.62-9.88-2.94-15.13-3.43-7-.65-12.57-5.82-19.44-6.14A.15.15,0,0,0,40.7,15.41Z"/><path class="cls-3" d="M45.19,17.78a42.13,42.13,0,0,0,12,5.16c6.1,1.51,13.91-.09,18.69,4.65.15.15.4-.05.26-.22-2.85-3.27-6.72-3.49-10.82-3.75a42.86,42.86,0,0,1-20-6C45.19,17.52,45.06,17.7,45.19,17.78Z"/><path class="cls-3" d="M56,18.85c5.91,2.3,12.62.5,18,4.43.18.14.37-.14.2-.29-5-4.35-12.28-2.21-18.09-4.39A.13.13,0,0,0,56,18.85Z"/><path class="cls-3" d="M45.83,20.49c4.79,1.82,8.87,4.07,14,4.87,6.42,1,12.49,1.49,17.81,5.59.13.1.31-.1.19-.21-3.39-3.13-7.74-4.26-12.2-4.95-3.8-.59-7.69-.8-11.37-2-2.89-.94-5.5-2.53-8.33-3.59C45.76,20.14,45.66,20.42,45.83,20.49Z"/><path class="cls-3" d="M65.69,27.94a52.77,52.77,0,0,1,9.57,2.63c.17.06.25-.18.1-.26a31.37,31.37,0,0,0-9.65-2.63C65.55,27.66,65.52,27.92,65.69,27.94Z"/><path class="cls-3" d="M56,27.05c6.31,1.69,12.47,4.78,19.14,4.46.16,0,.15-.29,0-.29-6.71-.08-12.64-2.83-19-4.43C56,26.75,55.86,27,56,27.05Z"/><path class="cls-3" d="M67.61,29.44c1.15.22,2.31.47,3.47.62.14,0,.2-.22.06-.25-1.16-.28-2.34-.45-3.5-.66C67.45,29.11,67.43,29.4,67.61,29.44Z"/><path class="cls-3" d="M61.37,30.2a20.25,20.25,0,0,0,6.48,2.35c3.41.57,6.94-.27,10.09,1.51.15.09.31-.13.16-.22a10.78,10.78,0,0,0-5.88-1.33A23,23,0,0,1,61.51,30C61.37,29.92,61.23,30.12,61.37,30.2Z"/><path class="cls-3" d="M71.2,34.66a13,13,0,0,1,6,1.15c.13,0,.25-.16.12-.23a10.17,10.17,0,0,0-6.12-1.22C71,34.37,71,34.68,71.2,34.66Z"/><path class="cls-3" d="M63.55,34.88c4.73,1.06,9.47,2.25,14.26,3,.15,0,.22-.23.06-.27-4.7-1.23-9.53-2.07-14.29-3C63.4,34.57,63.38,34.84,63.55,34.88Z"/><path class="cls-3" d="M71.43,37.8a21.65,21.65,0,0,1,4.57,1,.13.13,0,1,0,.09-.24,14.18,14.18,0,0,0-4.63-1C71.26,37.48,71.23,37.79,71.43,37.8Z"/><path class="cls-3" d="M62.87,39.74c5.31.56,10.52,1.51,15.77,2.45.14,0,.19-.21,0-.24A112.22,112.22,0,0,0,62.9,39.49.13.13,0,0,0,62.87,39.74Z"/><path class="cls-3" d="M12.44,22.71A56,56,0,0,1,27.72,27c.14.06.21-.15.08-.22A43.44,43.44,0,0,0,12.46,22.4C12.26,22.38,12.24,22.69,12.44,22.71Z"/><path class="cls-3" d="M13.19,20.64a79.2,79.2,0,0,1,12.94,3.87c.15.06.23-.17.08-.23a51.78,51.78,0,0,0-13-3.93C13,20.31,13,20.6,13.19,20.64Z"/><path class="cls-3" d="M15.71,19.17c1.24.31,2.47.64,3.71.9.13,0,.17-.19,0-.22-1.2-.37-2.43-.67-3.65-1C15.63,18.82,15.51,19.12,15.71,19.17Z"/><path class="cls-3" d="M19.89,20.13A76.76,76.76,0,0,1,31.66,23.7a.12.12,0,0,0,.09-.22,52.64,52.64,0,0,0-11.84-3.62C19.74,19.83,19.72,20.09,19.89,20.13Z"/><path class="cls-3" d="M18.91,18.38c3.55,1.06,7.1,2.2,10.7,3.11.15,0,.24-.18.09-.23-3.52-1.17-7.13-2.12-10.7-3.14C18.84,18.07,18.74,18.33,18.91,18.38Z"/><path class="cls-3" d="M23.42,18.28c1.13.4,2.25.82,3.41,1.14a.13.13,0,0,0,.08-.24c-1.1-.47-2.24-.83-3.37-1.22C23.33,17.89,23.21,18.21,23.42,18.28Z"/><path class="cls-3" d="M35.86,25.94a88.48,88.48,0,0,1,13.73,5c.12.05.23-.15.11-.22a57.61,57.61,0,0,0-13.75-5C35.79,25.65,35.69,25.89,35.86,25.94Z"/><path class="cls-3" d="M41.24,26.42c2,.69,4.06,1.38,6.12,2,.15.05.24-.18.09-.23-2-.73-4.06-1.4-6.11-2.07A.15.15,0,0,0,41.24,26.42Z"/><path class="cls-3" d="M4.88,48.45a26.67,26.67,0,0,0,5.79,5.23c.12.08.24-.1.13-.19a42.09,42.09,0,0,1-5.72-5.2A.13.13,0,0,0,4.88,48.45Z"/><path class="cls-3" d="M5.17,47c.2.27.41.52.62.78s.27,0,.18-.16-.38-.55-.58-.81S5.05,46.83,5.17,47Z"/><path class="cls-3" d="M7.5,49c1.08.72,2.14,1.46,3.24,2.14a.12.12,0,0,0,.14-.19c-1.06-.74-2.16-1.44-3.24-2.15C7.51,48.74,7.37,48.94,7.5,49Z"/><path class="cls-3" d="M6.12,45.42C7,46.28,7.93,47.14,8.85,48c.09.08.23-.08.14-.16-.88-.86-1.79-1.7-2.7-2.54C6.19,45.18,6,45.32,6.12,45.42Z"/><path class="cls-3" d="M6.27,43.67c.73.69,1.45,1.39,2.19,2.06.1.1.27,0,.17-.14-.72-.7-1.44-1.39-2.17-2.07C6.35,43.41,6.16,43.56,6.27,43.67Z"/><path class="cls-3" d="M6.12,42.14c.72.56,1.43,1.13,2.16,1.68.12.09.25-.1.13-.19C7.7,43.05,7,42.5,6.26,41.94,6.13,41.84,6,42,6.12,42.14Z"/><path class="cls-3" d="M6.53,40.55c.64.63,1.28,1.26,2,1.87.1.09.25-.08.16-.18C8,41.6,7.37,41,6.72,40.38,6.61,40.27,6.41,40.43,6.53,40.55Z"/><path class="cls-3" d="M6.9,39.89c.81.48,1.62,1,2.44,1.43.13.07.26-.11.13-.18-.8-.49-1.62-1-2.43-1.45C6.9,39.61,6.76,39.81,6.9,39.89Z"/><path class="cls-3" d="M76.78,45.31c.77.12,1.54.25,2.32.32a.12.12,0,0,0,0-.24c-.76-.15-1.54-.23-2.32-.33C76.64,45,76.62,45.29,76.78,45.31Z"/><path class="cls-3" d="M77.82,44a1.6,1.6,0,0,0,1.25.47c.13,0,.12-.24,0-.24a1.31,1.31,0,0,1-1-.41C77.9,43.7,77.69,43.88,77.82,44Z"/><path class="cls-3" d="M50.37,35.74a24.74,24.74,0,0,1,4.84,2.52.12.12,0,0,0,.14-.2,18.48,18.48,0,0,0-4.88-2.6A.15.15,0,0,0,50.37,35.74Z"/><path class="cls-3" d="M52.55,38.61c.75.41,1.49.84,2.26,1.21.13.06.24-.15.11-.22-.71-.44-1.46-.83-2.2-1.23C52.55,38.28,52.38,38.52,52.55,38.61Z"/><path class="cls-3" d="M58.05,41.54a6.47,6.47,0,0,0,2.52,1.1c.15,0,.21-.23.06-.27a7.44,7.44,0,0,1-2.4-1.09A.16.16,0,0,0,58.05,41.54Z"/><path class="cls-3" d="M54.26,33.24l1.13.38a.13.13,0,0,0,.09-.25l-1.11-.43C54.17,32.87,54.06,33.18,54.26,33.24Z"/><path class="cls-3" d="M35.8,19.8A18.3,18.3,0,0,1,39.64,21c.15.05.27-.16.13-.25a9.42,9.42,0,0,0-3.94-1.23C35.62,19.45,35.59,19.77,35.8,19.8Z"/><path class="cls-3" d="M36.89,18.49c.54.15,1.08.35,1.64.45.16,0,.2-.22.06-.28A14.56,14.56,0,0,0,37,18.18C36.8,18.12,36.68,18.43,36.89,18.49Z"/><path class="cls-3" d="M47,14.19c1.86.7,3.71,1.46,5.6,2.08a.13.13,0,0,0,.1-.24c-1.84-.77-3.75-1.39-5.61-2.07A.12.12,0,0,0,47,14.19Z"/><path class="cls-3" d="M50.91,15c.18,0,.21-.28,0-.28S50.73,15,50.91,15Z"/><path class="cls-3" d="M66.58,18.16a9.24,9.24,0,0,1,4.68,1.72c.13.09.25-.1.14-.2a8.14,8.14,0,0,0-4.8-1.83A.16.16,0,0,0,66.58,18.16Z"/><path class="cls-3" d="M67.16,17.19c.59.25,1.18.5,1.79.72a.13.13,0,0,0,.09-.24c-.58-.29-1.17-.54-1.77-.79C67.08,16.79,67,17.1,67.16,17.19Z"/><path class="cls-3" d="M10.88,63.93c1.88,1.49,3.79,3,5.8,4.34a.14.14,0,0,0,.16-.22c-1.82-1.57-3.83-3-5.79-4.37A.15.15,0,0,0,10.88,63.93Z"/><path class="cls-3" d="M11.63,61.64a12.46,12.46,0,0,0,3.46,2.84.14.14,0,0,0,.15-.23,22.63,22.63,0,0,1-3.37-2.81C11.73,61.3,11.5,61.49,11.63,61.64Z"/><path class="cls-3" d="M12.09,60.05a13,13,0,0,0,3.55,2.74c.12.06.23-.15.11-.22a16.71,16.71,0,0,1-3.44-2.71C12.18,59.72,12,59.91,12.09,60.05Z"/><path class="cls-3" d="M10.59,56.2c1.86,1.37,3.71,2.75,5.61,4.07.13.09.26-.1.14-.2-1.84-1.4-3.72-2.74-5.59-4.09C10.61,55.87,10.45,56.09,10.59,56.2Z"/><path class="cls-3" d="M12.12,55.51a8.83,8.83,0,0,1,2.93,2.29c.1.12.28,0,.19-.16a7.76,7.76,0,0,0-3-2.37C12.05,55.2,12,55.44,12.12,55.51Z"/><path class="cls-3" d="M11.48,53.06c1.28,1,2.56,2,3.9,2.83a.13.13,0,0,0,.15-.21c-1.24-1-2.58-1.93-3.89-2.86C11.49,52.71,11.33,52.94,11.48,53.06Z"/><path class="cls-3" d="M12.27,62a18.22,18.22,0,0,0-3.61-4.44c-.11-.09-.27.08-.17.18a34.94,34.94,0,0,1,3.56,4.4C12.13,62.27,12.34,62.13,12.27,62Z"/><path class="cls-3" d="M12.75,60.36c-.93-1.25-1.85-2.48-2.82-3.69-.1-.13-.29,0-.19.16.9,1.26,1.83,2.49,2.78,3.72C12.64,60.71,12.86,60.51,12.75,60.36Z"/><path class="cls-3" d="M12,57.59C10.68,56,9.35,54.32,8,52.74a.12.12,0,0,0-.19.15c1.29,1.67,2.65,3.28,4,4.9A.16.16,0,0,0,12,57.59Z"/><path class="cls-3" d="M12,55.55c-1-1.17-2-2.36-3.09-3.48a.12.12,0,0,0-.19.16c1,1.19,2.05,2.33,3.07,3.5C11.87,55.86,12.08,55.68,12,55.55Z"/><path class="cls-3" d="M14.21,68.44c1.6,1.69,3.2,3.39,4.83,5.06.1.1.28,0,.18-.15C17.63,71.64,16,70,14.4,68.27,14.29,68.15,14.09,68.32,14.21,68.44Z"/><path class="cls-3" d="M14.14,65.57c1.43,1.69,2.85,3.39,4.3,5.06a.12.12,0,0,0,.19-.16c-1.41-1.71-2.85-3.39-4.28-5.08C14.24,65.26,14,65.43,14.14,65.57Z"/><path class="cls-3" d="M14.24,63.41c1.17,1.2,2.32,2.41,3.52,3.58.12.11.31,0,.2-.16-1.14-1.23-2.32-2.42-3.49-3.61C14.34,63.08,14.11,63.27,14.24,63.41Z"/><path class="cls-3" d="M14.13,61a32.66,32.66,0,0,0,5.77,6.09c.12.09.25-.1.14-.2a39.46,39.46,0,0,1-5.71-6.06C14.23,60.69,14,60.86,14.13,61Z"/><path class="cls-3" d="M14.34,59.18c1.93,2,3.82,4.06,5.82,6,.11.11.3,0,.19-.17-1.87-2.06-3.86-4-5.8-6C14.43,58.87,14.21,59.05,14.34,59.18Z"/><path class="cls-3" d="M14.64,57.28a14.43,14.43,0,0,0,5.5,5.08c.13.07.24-.14.12-.22a17.45,17.45,0,0,1-5.4-5C14.76,57,14.55,57.13,14.64,57.28Z"/><path class="cls-3" d="M16.08,57.09c1.28,1,2.53,2,3.85,2.91a.13.13,0,0,0,.15-.21c-1.23-1-2.55-2-3.83-2.94C16.1,56.73,15.93,57,16.08,57.09Z"/><path class="cls-3" d="M9.79,53a8.73,8.73,0,0,0,2.45,2.82c.13.09.26-.1.14-.2A8.93,8.93,0,0,1,10,52.9C10,52.75,9.7,52.86,9.79,53Z"/><path class="cls-3" d="M9.59,51.12a61.6,61.6,0,0,0,6.09,5.44c.12.09.25-.1.14-.19a79.53,79.53,0,0,1-6-5.41C9.67,50.84,9.47,51,9.59,51.12Z"/><path class="cls-3" d="M10.43,50.06a26.85,26.85,0,0,0,4,3.7c.13.1.26-.1.14-.2a39.93,39.93,0,0,1-3.9-3.68C10.53,49.74,10.31,49.93,10.43,50.06Z"/><path class="cls-3" d="M11.3,49a6.4,6.4,0,0,0,2.38,2c.13.06.2-.14.08-.21a6.13,6.13,0,0,1-2.27-2C11.4,48.7,11.2,48.87,11.3,49Z"/><path class="cls-3" d="M6.8,52.4c.6.79,1.2,1.59,1.81,2.37.09.12.26,0,.17-.15C8.2,53.82,7.59,53,7,52.24,6.89,52.11,6.7,52.27,6.8,52.4Z"/><path class="cls-3" d="M6.38,49.81c1.16,1.34,2.32,2.69,3.5,4a.12.12,0,0,0,.18-.15c-1.14-1.36-2.31-2.7-3.47-4C6.48,49.5,6.27,49.68,6.38,49.81Z"/><path class="cls-3" d="M6.4,48.13c1.11,1.24,2.21,2.49,3.33,3.71.1.11.28,0,.18-.15C8.82,50.43,7.71,49.2,6.6,48,6.49,47.84,6.29,48,6.4,48.13Z"/><path class="cls-3" d="M6.48,46c1.59,1.58,3.17,3.16,4.78,4.71.11.11.29,0,.18-.15C9.87,49,8.27,47.39,6.68,45.82,6.56,45.71,6.36,45.87,6.48,46Z"/><path class="cls-3" d="M7.18,44.21c1.3,1.38,2.58,2.78,3.9,4.13.11.12.3,0,.19-.16C10,46.77,8.7,45.4,7.41,44,7.28,43.88,7.05,44.07,7.18,44.21Z"/><path class="cls-3" d="M15.74,70.21,19,72.28c.11.08.24-.1.12-.17L15.86,70C15.74,70,15.62,70.14,15.74,70.21Z"/><path class="cls-3" d="M13.92,67.84c2.57,1.42,5.13,2.84,7.73,4.2.11.06.22-.14.1-.21-2.54-1.43-5.11-2.81-7.69-4.19C13.93,67.57,13.79,67.77,13.92,67.84Z"/><path class="cls-3" d="M14,66.11c2.41,1.28,4.83,2.56,7.29,3.74.13.06.24-.15.12-.22-2.39-1.33-4.84-2.55-7.28-3.77C13.94,65.79,13.81,66,14,66.11Z"/><path class="cls-3" d="M13.94,64.54c2.73,1.28,5.46,2.58,8.22,3.78.15.07.23-.16.09-.23-2.71-1.33-5.47-2.55-8.22-3.8C13.88,64.22,13.79,64.46,13.94,64.54Z"/><path class="cls-3" d="M14.67,62.71c1.27.47,2.53.94,3.81,1.38a.12.12,0,0,0,.08-.23c-1.26-.49-2.53-.94-3.79-1.41C14.6,62.39,14.5,62.65,14.67,62.71Z"/><path class="cls-3" d="M19.22,74.28c1.7.79,3.4,1.59,5.12,2.36.13.06.21-.16.08-.22C22.72,75.6,21,74.83,19.3,74,19.16,74,19.07,74.21,19.22,74.28Z"/><path class="cls-3" d="M19.2,72.64c1.77.88,3.53,1.77,5.32,2.62.13.06.2-.15.08-.21-1.76-.9-3.55-1.75-5.33-2.61C19.15,72.37,19.07,72.58,19.2,72.64Z"/><path class="cls-3" d="M18.75,70.88C20.87,71.94,23,73,25.12,74c.14.07.21-.14.08-.21-2.1-1.1-4.23-2.15-6.35-3.21C18.69,70.54,18.59,70.8,18.75,70.88Z"/><path class="cls-3" d="M18.7,69.3c2.25.92,4.49,1.86,6.75,2.75.14,0,.21-.16.08-.22-2.23-1-4.49-1.85-6.74-2.77C18.64,69,18.55,69.24,18.7,69.3Z"/><path class="cls-3" d="M18.11,66.83C20.06,67.57,22,68.33,24,69a.12.12,0,0,0,.08-.22c-1.94-.77-3.89-1.49-5.84-2.23A.13.13,0,1,0,18.11,66.83Z"/><path class="cls-3" d="M24.07,78.51c3,.94,6,1.95,9.07,2.81.13,0,.21-.17.07-.21-3-1-6-1.92-9-2.86C24,78.19,23.9,78.45,24.07,78.51Z"/><path class="cls-3" d="M23.14,76.7c2.36.59,4.72,1.21,7.1,1.75.14,0,.23-.18.08-.22C28,77.59,25.6,77,23.24,76.44,23.07,76.4,23,76.66,23.14,76.7Z"/><path class="cls-3" d="M22.46,74.78c2.68.62,5.36,1.31,8.05,1.87a.13.13,0,0,0,.06-.24c-2.66-.68-5.35-1.25-8-1.88C22.39,74.5,22.3,74.74,22.46,74.78Z"/><path class="cls-3" d="M22.08,72.62c2.3.49,4.59,1,6.9,1.43.13,0,.19-.2.06-.23-2.3-.55-4.62-1-6.93-1.48C21.93,72.3,21.9,72.59,22.08,72.62Z"/><path class="cls-3" d="M22,70.14c.13,0,.15-.21,0-.21S21.82,70.14,22,70.14Z"/><path class="cls-3" d="M21.34,68.45a34,34,0,0,0,8.83,7c.12.07.25-.11.13-.18a39.69,39.69,0,0,1-8.78-7C21.41,68.19,21.24,68.33,21.34,68.45Z"/><path class="cls-3" d="M22.5,67.59c2,1.58,4,3.12,6,4.64.12.09.26-.1.14-.2-2-1.57-4-3.13-6-4.64C22.51,67.3,22.38,67.49,22.5,67.59Z"/><path class="cls-3" d="M23.6,66.35c2.14,1.57,4.28,3.15,6.44,4.7a.11.11,0,0,0,.12-.18c-2.13-1.59-4.28-3.14-6.43-4.71A.12.12,0,1,0,23.6,66.35Z"/><path class="cls-3" d="M26.17,66.49l3.71,2.57a.12.12,0,0,0,.13-.19q-1.85-1.29-3.7-2.57C26.19,66.21,26.05,66.4,26.17,66.49Z"/><path class="cls-3" d="M34.13,81.35c2,.26,4,.57,6,.75a.12.12,0,1,0,0-.23c-2-.34-4-.55-6.05-.81C34,81,34,81.32,34.13,81.35Z"/><path class="cls-3" d="M34.25,77.06a15.82,15.82,0,0,1,3.68.55c.15,0,.24-.18.09-.24a10.14,10.14,0,0,0-3.74-.62C34.08,76.76,34.05,77.06,34.25,77.06Z"/><path class="cls-3" d="M31.24,74.85c3,.51,6,1,9.05,1.4.15,0,.17-.21,0-.24-3-.55-6-1-9-1.42C31.1,74.56,31.08,74.82,31.24,74.85Z"/><path class="cls-3" d="M40.47,77.88a17.36,17.36,0,0,0,4.21.83.13.13,0,0,0,0-.25c-1.39-.25-2.76-.51-4.13-.84C40.4,77.58,40.31,77.82,40.47,77.88Z"/><path class="cls-3" d="M45.32,79.22c1.71.21,3.42.41,5.13.59a.11.11,0,0,0,0-.22c-1.71-.23-3.41-.44-5.12-.64A.14.14,0,0,0,45.32,79.22Z"/><path class="cls-3" d="M53.74,80.29c.8,0,1.6-.07,2.39-.16.14,0,.13-.26,0-.26-.81,0-1.62.08-2.43.13C53.5,80,53.56,80.3,53.74,80.29Z"/><path class="cls-3" d="M49.13,80.89c1.1,0,2.21,0,3.32,0,.14,0,.17-.24,0-.24-1.11,0-2.21,0-3.32,0C49,80.62,49,80.89,49.13,80.89Z"/><path class="cls-3" d="M41.14,75.21c2.61.54,5.21,1.09,7.83,1.57.15,0,.16-.2,0-.23-2.6-.56-5.22-1.06-7.83-1.56C41,75,41,75.18,41.14,75.21Z"/><path class="cls-3" d="M42.46,74.21c1.71.22,3.41.47,5.12.63a.12.12,0,1,0,0-.24c-1.7-.27-3.41-.45-5.12-.66A.14.14,0,0,0,42.46,74.21Z"/><path class="cls-3" d="M45.27,72.46a8.72,8.72,0,0,0,3.79.47c.16,0,.11-.25,0-.24a9.84,9.84,0,0,1-3.65-.5C45.2,72.13,45.09,72.4,45.27,72.46Z"/><path class="cls-3" d="M54.54,75.84c.81,0,1.63,0,2.43-.12a.13.13,0,0,0,0-.26c-.81,0-1.62,0-2.43.07C54.36,75.54,54.37,75.85,54.54,75.84Z"/><path class="cls-3" d="M49.49,73.12c2.1.22,4.2.46,6.3.61a.13.13,0,0,0,0-.25c-2.1-.26-4.2-.45-6.31-.65A.15.15,0,1,0,49.49,73.12Z"/><path class="cls-3" d="M48.53,71.23a12.23,12.23,0,0,0,3.74.63c.17,0,.19-.25,0-.25a12.78,12.78,0,0,1-3.67-.67A.15.15,0,0,0,48.53,71.23Z"/><path class="cls-3" d="M54.11,79.73A19.6,19.6,0,0,0,58.34,78a.12.12,0,0,0-.1-.21,22.67,22.67,0,0,1-4.18,1.64C53.9,79.51,53.94,79.77,54.11,79.73Z"/><path class="cls-3" d="M55.43,78.05c2.82-.86,5.65-1.7,8.46-2.6.12,0,0-.25-.07-.22C61,76.06,58.2,77,55.39,77.81,55.25,77.86,55.29,78.09,55.43,78.05Z"/><path class="cls-3" d="M58.06,76.55c2.45-1,4.91-1.88,7.34-2.87.13-.05,0-.25-.09-.2-2.47.92-4.91,1.89-7.36,2.85C57.81,76.38,57.91,76.6,58.06,76.55Z"/><path class="cls-3" d="M60.2,74.47a21.83,21.83,0,0,0,6.45-3.1c.1-.08,0-.27-.13-.2a26.38,26.38,0,0,1-6.36,3C60,74.26,60,74.52,60.2,74.47Z"/><path class="cls-3" d="M61.93,72.36A18.33,18.33,0,0,0,68.62,69c.12-.1,0-.27-.16-.18a21.91,21.91,0,0,1-6.58,3.27C61.72,72.15,61.76,72.41,61.93,72.36Z"/><path class="cls-3" d="M63.44,70a13.81,13.81,0,0,0,5.43-2.8.13.13,0,0,0-.17-.2,17,17,0,0,1-5.31,2.73C63.22,69.73,63.27,70,63.44,70Z"/><path class="cls-3" d="M48.45,81c2.94-.69,5.9-1.37,8.79-2.21.15,0,.12-.28,0-.25-3,.61-5.88,1.4-8.8,2.16C48.22,80.77,48.26,81.06,48.45,81Z"/><path class="cls-3" d="M48.24,79.08A85.63,85.63,0,0,0,59,76.79c.14-.05.1-.27,0-.23-3.57.86-7.13,1.67-10.76,2.26A.13.13,0,0,0,48.24,79.08Z"/><path class="cls-3" d="M50,76.93a49.25,49.25,0,0,0,9.76-2c.12,0,.06-.24-.06-.21a58,58,0,0,1-9.75,2C49.74,76.69,49.78,77,50,76.93Z"/><path class="cls-3" d="M54,75a44.67,44.67,0,0,0,9-2.88c.14-.06,0-.27-.1-.21a61.59,61.59,0,0,1-9,2.84C53.77,74.82,53.81,75.07,54,75Z"/><path class="cls-3" d="M57.72,72.26c1.93-.72,3.87-1.45,5.79-2.2.14,0,0-.26-.1-.21-1.94.71-3.87,1.45-5.8,2.18C57.45,72.09,57.56,72.32,57.72,72.26Z"/><path class="cls-3" d="M69.21,71.44c1.6-1.17,3.23-2.32,4.76-3.59.12-.1,0-.26-.15-.18-1.63,1.14-3.18,2.39-4.75,3.61C69,71.37,69.1,71.52,69.21,71.44Z"/><path class="cls-3" d="M66.2,74.62a20,20,0,0,0,2.64-2c.11-.11,0-.32-.16-.24a20.91,20.91,0,0,0-2.69,2C65.83,74.5,66,74.74,66.2,74.62Z"/><path class="cls-3" d="M67.35,71.18a41,41,0,0,0,7.23-5.83c.11-.11,0-.29-.16-.19A68.57,68.57,0,0,1,67.17,71C67,71.07,67.2,71.28,67.35,71.18Z"/><path class="cls-3" d="M59.36,70.57a30.11,30.11,0,0,0,7.48-3.9c.11-.08,0-.28-.13-.21a43.65,43.65,0,0,1-7.46,3.88C59.1,70.4,59.21,70.62,59.36,70.57Z"/><path class="cls-3" d="M61.82,68.34c1.1-.56,2.22-1.1,3.27-1.74.14-.09,0-.31-.11-.24-1.12.51-2.2,1.13-3.28,1.72C61.53,68.17,61.65,68.43,61.82,68.34Z"/><path class="cls-3" d="M71.38,65.53A9.49,9.49,0,0,0,75,63.07c.1-.1-.08-.26-.18-.16a12,12,0,0,1-3.55,2.38C71.12,65.36,71.23,65.59,71.38,65.53Z"/><path class="cls-3" d="M40.17,82.78a18.37,18.37,0,0,0,8.14-3.24c.11-.09,0-.3-.15-.22a23.25,23.25,0,0,1-8,3.2A.13.13,0,0,0,40.17,82.78Z"/><path class="cls-3" d="M45.32,83.31c.53-.4,1.06-.8,1.58-1.21.13-.1,0-.28-.15-.19-.54.39-1.07.79-1.6,1.19C45,83.21,45.19,83.41,45.32,83.31Z"/><path class="cls-3" d="M34.37,83.19c1.46-.23,2.94-.44,4.38-.76a.13.13,0,1,0,0-.25c-1.47.19-2.93.48-4.39.74A.14.14,0,0,0,34.37,83.19Z"/><path class="cls-3" d="M39.91,80.67a14.1,14.1,0,0,0,3.88-.39c.14,0,.1-.25,0-.22a17.49,17.49,0,0,1-3.82.37C39.77,80.42,39.75,80.67,39.91,80.67Z"/><path class="cls-3" d="M30.55,79.4a20,20,0,0,0,7,2.63c.14,0,.19-.21.06-.24a27,27,0,0,1-6.95-2.6C30.55,79.11,30.4,79.31,30.55,79.4Z"/><path class="cls-3" d="M33.5,78.86a31.55,31.55,0,0,0,10,3.25c.18,0,.19-.24,0-.27a39.9,39.9,0,0,1-10-3.21C33.44,78.56,33.36,78.79,33.5,78.86Z"/><path class="cls-3" d="M35.1,77.63a52.06,52.06,0,0,0,11.3,4c.13,0,.19-.2.06-.23a62.52,62.52,0,0,1-11.28-4C35.05,77.34,35,77.56,35.1,77.63Z"/><path class="cls-3" d="M38.39,76.28A47.8,47.8,0,0,0,50.49,81c.13,0,.21-.17.08-.2a53.22,53.22,0,0,1-12-4.69C38.39,76,38.27,76.21,38.39,76.28Z"/><path class="cls-3" d="M42,75.75a56.1,56.1,0,0,0,10.15,3.57c.14,0,.21-.17.08-.2a68.77,68.77,0,0,1-10.15-3.6C41.93,75.46,41.85,75.69,42,75.75Z"/><path class="cls-3" d="M43.88,74.28a34.45,34.45,0,0,0,9.27,3.11c.14,0,.16-.19,0-.23A42.92,42.92,0,0,1,44,74C43.82,74,43.73,74.21,43.88,74.28Z"/><path class="cls-3" d="M46.83,73.26a21.25,21.25,0,0,0,7.49,2.5.12.12,0,0,0,0-.24A24.84,24.84,0,0,1,47,73.05C46.84,73,46.69,73.18,46.83,73.26Z"/><path class="cls-3" d="M49.51,72.6a27.38,27.38,0,0,0,8.08,1.81c.15,0,.17-.22,0-.23a33.37,33.37,0,0,1-8-1.83A.13.13,0,0,0,49.51,72.6Z"/><path class="cls-3" d="M52.26,71.88c1.92.33,3.85.7,5.78,1,.17,0,.18-.22,0-.25-1.92-.39-3.86-.66-5.79-1C52.11,71.58,52.09,71.85,52.26,71.88Z"/><path class="cls-3" d="M29.47,75.22a18.13,18.13,0,0,0,5.33,2.71.13.13,0,0,0,.08-.24A27.23,27.23,0,0,1,29.61,75,.13.13,0,0,0,29.47,75.22Z"/><path class="cls-3" d="M31.55,74.05a36.9,36.9,0,0,0,7.94,4.11c.14,0,.22-.17.08-.23a45,45,0,0,1-7.87-4.11C31.56,73.73,31.4,74,31.55,74.05Z"/><path class="cls-3" d="M34,73a33,33,0,0,0,7.59,3.78.11.11,0,0,0,.07-.21,37.26,37.26,0,0,1-7.51-3.79C34,72.71,33.89,72.93,34,73Z"/><path class="cls-3" d="M36.07,72.33c3.2,1.33,6.4,2.69,9.63,4a.12.12,0,0,0,.08-.22c-3.19-1.37-6.42-2.64-9.63-4C36,72,35.92,72.27,36.07,72.33Z"/><path class="cls-3" d="M39.06,71.3a35.09,35.09,0,0,0,8.57,3.18c.12,0,.17-.18,0-.21a41.74,41.74,0,0,1-8.53-3.2C39,71,38.92,71.23,39.06,71.3Z"/><path class="cls-3" d="M41.61,69.84a43.68,43.68,0,0,0,7.66,2.89c.14,0,.22-.17.08-.21a52,52,0,0,1-7.65-2.93C41.54,69.52,41.45,69.76,41.61,69.84Z"/><path class="cls-3" d="M44.79,69.09a33,33,0,0,0,7,2.52c.13,0,.18-.19.05-.23a39.11,39.11,0,0,1-7-2.55C44.73,68.76,44.64,69,44.79,69.09Z"/><path class="cls-3" d="M47.5,68.3a44.64,44.64,0,0,0,8.41,2.8c.12,0,.17-.18.05-.21a50.58,50.58,0,0,1-8.37-2.83C47.44,68,47.35,68.23,47.5,68.3Z"/><path class="cls-3" d="M53.73,69.34a7,7,0,0,0,2.79.86c.14,0,.16-.21,0-.22a7,7,0,0,1-2.67-.84C53.74,69.06,53.59,69.26,53.73,69.34Z"/><path class="cls-3" d="M24.45,70.23a38.47,38.47,0,0,0,7.27,5.43c.14.08.27-.11.14-.19a46.23,46.23,0,0,1-7.19-5.42C24.54,69.93,24.32,70.11,24.45,70.23Z"/><path class="cls-3" d="M27.48,70.9a42.66,42.66,0,0,0,7.94,5.67c.14.08.29-.12.14-.2a63.35,63.35,0,0,1-7.94-5.68C27.5,70.58,27.35,70.79,27.48,70.9Z"/><path class="cls-3" d="M28.38,69.39a43.4,43.4,0,0,0,9.14,6c.12.06.22-.14.11-.2a53.61,53.61,0,0,1-9.09-6C28.41,69,28.25,69.27,28.38,69.39Z"/><path class="cls-3" d="M31.68,69.4a41.25,41.25,0,0,0,7.47,4.72c.12.06.23-.14.11-.2a50.56,50.56,0,0,1-7.43-4.74C31.7,69.07,31.55,69.29,31.68,69.4Z"/><path class="cls-3" d="M34.64,68.8a36.92,36.92,0,0,0,8.46,5.39c.14.06.22-.16.08-.23a44.15,44.15,0,0,1-8.39-5.37C34.66,68.48,34.51,68.69,34.64,68.8Z"/><path class="cls-3" d="M38.31,69.39c2.58,1.38,5.15,2.81,7.75,4.15.11,0,.21-.14.1-.2-2.54-1.43-5.13-2.78-7.7-4.15C38.32,69.11,38.18,69.31,38.31,69.39Z"/><path class="cls-3" d="M33.7,72.8c-2.1-2.44-4.2-4.87-6.36-7.25-.11-.11-.29,0-.19.16,2.08,2.45,4.22,4.86,6.35,7.26C33.61,73.09,33.81,72.92,33.7,72.8Z"/><path class="cls-3" d="M31.15,72.64c-2.43-2.74-4.83-5.51-7.32-8.2a.11.11,0,0,0-.17.15c2.38,2.78,4.85,5.49,7.3,8.22C31.06,72.93,31.26,72.77,31.15,72.64Z"/><path class="cls-3" d="M25.85,69.59c-1.69-2.06-3.35-4.13-5.07-6.15a.11.11,0,0,0-.17.14c1.65,2.09,3.36,4.12,5.05,6.17C25.76,69.87,26,69.71,25.85,69.59Z"/><path class="cls-3" d="M23,68c-1.36-1.6-2.71-3.22-4.09-4.81a.12.12,0,0,0-.18.16c1.34,1.62,2.71,3.21,4.07,4.82A.13.13,0,0,0,23,68Z"/><path class="cls-3" d="M29.24,66.66a7.08,7.08,0,0,0,3.65,1.48.12.12,0,0,0,0-.24,7.77,7.77,0,0,1-3.52-1.45C29.25,66.34,29.1,66.56,29.24,66.66Z"/><path class="cls-3" d="M27,64.22a34.7,34.7,0,0,0,7,2.66c.15,0,.23-.18.08-.22A49.18,49.18,0,0,1,27.1,64C27,63.9,26.86,64.14,27,64.22Z"/><path class="cls-3" d="M28.49,62.28A14.14,14.14,0,0,1,32.72,64c.13.07.26-.11.14-.19A12.32,12.32,0,0,0,28.52,62C28.35,62,28.32,62.24,28.49,62.28Z"/><path class="cls-3" d="M21.36,58.48c1.19.64,2.37,1.29,3.57,1.9.12.06.22-.14.11-.2-1.16-.66-2.34-1.29-3.52-1.92C21.37,58.18,21.21,58.4,21.36,58.48Z"/><path class="cls-3" d="M23.12,61.39c1,.35,2,.73,3,1a.12.12,0,0,0,.08-.23c-1-.4-2-.72-2.94-1.06A.14.14,0,1,0,23.12,61.39Z"/><path class="cls-3" d="M18.11,56.85c.17,0,.2-.27,0-.27S17.94,56.85,18.11,56.85Z"/><path class="cls-3" d="M68.51,67.37c1.11,0,2.24,0,3.35-.07.14,0,.13-.25,0-.25-1.1-.06-2.21,0-3.31,0C68.35,67.08,68.32,67.37,68.51,67.37Z"/><path class="cls-3" d="M66.88,65.23a7,7,0,0,0,3.85.1c.15,0,.11-.26,0-.22A7.44,7.44,0,0,1,67,65C66.81,64.94,66.72,65.19,66.88,65.23Z"/><path class="cls-3" d="M64,64.2c3.21.21,6.42.51,9.63.61a.12.12,0,0,0,0-.24c-3.2-.31-6.42-.43-9.62-.63C63.84,63.93,63.81,64.19,64,64.2Z"/><path class="cls-3" d="M67.53,62.72c2.14-.13,4.28-.24,6.42-.41.15,0,.1-.22,0-.21-2.15.09-4.29.23-6.44.36C67.32,62.47,67.36,62.73,67.53,62.72Z"/><path class="cls-3" d="M72.26,60.82a10.31,10.31,0,0,0,3.63-.18.12.12,0,0,0,0-.23,12.87,12.87,0,0,1-3.56.09A.16.16,0,0,0,72.26,60.82Z"/><path class="cls-3" d="M72.66,59.71c1,0,1.92,0,2.88-.11.14,0,.13-.24,0-.25-1,0-1.9,0-2.85,0C72.49,59.4,72.46,59.71,72.66,59.71Z"/><path class="cls-3" d="M72.24,57.56c1.08.15,2.17.32,3.25.43a.12.12,0,0,0,0-.24c-1.08-.19-2.17-.33-3.25-.49C72.08,57.23,72.05,57.53,72.24,57.56Z"/><path class="cls-3" d="M12.44,46.83A25.55,25.55,0,0,1,7.6,42.62c-.09-.1-.3,0-.21.14a13,13,0,0,0,4.93,4.3C12.45,47.13,12.57,46.91,12.44,46.83Z"/><path class="cls-3" d="M12.08,44.64a5,5,0,0,0-2.85-2.09c-.15,0-.24.17-.09.23a5.55,5.55,0,0,1,2.72,2C12,45,12.19,44.79,12.08,44.64Z"/><path class="cls-3" d="M9.05,49.43a10.27,10.27,0,0,1-2.27-4c0-.14-.26-.11-.23,0A9.28,9.28,0,0,0,8.84,49.6C9,49.73,9.18,49.56,9.05,49.43Z"/><path class="cls-3" d="M10.52,49.63c-1.07-2-2.09-4-3.22-5.89-.08-.14-.29,0-.22.1,1,2,2.11,3.95,3.18,5.91C10.35,49.9,10.6,49.79,10.52,49.63Z"/><path class="cls-3" d="M9.78,45.57c-.59-1.5-1.15-3-1.77-4.49-.06-.14-.27,0-.21.1.56,1.51,1.17,3,1.76,4.5C9.62,45.83,9.84,45.72,9.78,45.57Z"/><path class="cls-3" d="M9.81,42.24c-.59-1.35-1.17-2.71-1.8-4-.06-.14-.26,0-.21.09C8.37,39.66,9,41,9.59,42.34,9.65,42.49,9.88,42.38,9.81,42.24Z"/><path class="cls-3" d="M9.49,40.49c.16,0,.19-.25,0-.25S9.32,40.49,9.49,40.49Z"/><path class="cls-3" d="M10.27,38.23c.16,0,.19-.25,0-.25S10.11,38.23,10.27,38.23Z"/><path class="cls-3" d="M35.17,44a4.09,4.09,0,0,0,4.1,0,.14.14,0,1,0-.11-.25,5.35,5.35,0,0,1-3.86,0C35.15,43.65,35,43.88,35.17,44Z"/><path class="cls-3" d="M34.9,44.16a7.18,7.18,0,0,0,5.31.71.23.23,0,0,0-.08-.45,8.73,8.73,0,0,1-5.07-.56C34.88,43.79,34.73,44.06,34.9,44.16Z"/><path class="cls-3" d="M35.7,44.46c1.37,0,2.74,0,4.1-.08.24,0,.23-.43,0-.43-1.37,0-2.74.08-4.1.14C35.48,44.1,35.49,44.46,35.7,44.46Z"/><path class="cls-3" d="M37.36,43.88A2.25,2.25,0,0,0,39.7,44c.12-.09,0-.29-.13-.26a2.69,2.69,0,0,1-2-.15C37.37,43.49,37.17,43.76,37.36,43.88Z"/><path class="cls-3" d="M37.42,43.94c.88.16,1.79.34,2.66.55,0-.16,0-.31,0-.47a12.38,12.38,0,0,1-5.06-.54l-.12.53,2.44.17c.63,0,2.26-.17,2.62.55l.2-.38L39.27,44c-.26-.25-.69.1-.43.36a1.55,1.55,0,0,0,1.45.49.26.26,0,0,0,.19-.38,1.68,1.68,0,0,0-1.42-.71c-1.35-.18-2.71-.23-4.07-.33a.27.27,0,0,0-.12.53,11.78,11.78,0,0,0,5.34.51.24.24,0,0,0,0-.48c-.91-.09-1.84-.21-2.74-.35C37.28,43.65,37.26,43.91,37.42,43.94Z"/><path class="cls-3" d="M15.13,32.92a6.8,6.8,0,0,0,3.55,1c.18,0,.29-.29.08-.34a25.8,25.8,0,0,1-3.44-1.06C15.11,32.47,14.93,32.8,15.13,32.92Z"/><path class="cls-3" d="M56.32,59.25a13.26,13.26,0,0,0,7.35.54.23.23,0,0,0,0-.46c-1.21-.07-2.42.1-3.64,0s-2.41-.29-3.61-.46C56.19,58.86,56.12,59.18,56.32,59.25Z"/><path class="cls-3" d="M55.51,58.24c3,.8,6.54,1.59,9.63,1.28.23,0,.18-.33,0-.37-3.08-.68-6.41-.79-9.54-1.23C55.4,57.89,55.33,58.19,55.51,58.24Z"/><path class="cls-3" d="M57.59,59c1.59.2,3.2.28,4.79.5s3.14.66,4.73.83a.21.21,0,0,0,.09-.41,23.77,23.77,0,0,0-9.62-1.25C57.39,58.67,57.42,59,57.59,59Z"/><path class="cls-3" d="M63.89,59.73a23,23,0,0,0,2.33.25c.16,0,.25-.25.07-.29a20.76,20.76,0,0,0-2.36-.4C63.65,59.25,63.61,59.69,63.89,59.73Z"/><path class="cls-3" d="M52.91,42.15a24.11,24.11,0,0,0,12.85,5.78c.16,0,.23-.25.06-.29A40.42,40.42,0,0,1,53.09,41.9C52.92,41.78,52.77,42,52.91,42.15Z"/><path class="cls-3" d="M18.73,72.59c1.13.4,2.25.81,3.4,1.15a.13.13,0,0,0,.09-.25c-1.11-.44-2.25-.82-3.37-1.21A.17.17,0,0,0,18.73,72.59Z"/><path class="cls-3" d="M16.89,70.19a20.6,20.6,0,0,0,6.5,3c.16,0,.26-.2.09-.25a28.24,28.24,0,0,1-6.41-3C16.9,69.82,16.72,70.08,16.89,70.19Z"/><path class="cls-3" d="M15.22,68.65c2.3,1,4.59,2.13,7,3,.18.07.27-.19.1-.28-2.25-1.14-4.6-2.08-6.92-3.07C15.13,68.22,15,68.56,15.22,68.65Z"/><path class="cls-3" d="M13.65,66.79a71.67,71.67,0,0,0,6.68,2.9c.2.07.28-.21.11-.3-2.14-1.11-4.44-2-6.67-2.92A.17.17,0,0,0,13.65,66.79Z"/><path class="cls-3" d="M12.66,65.13c2.07.91,4.13,2,6.27,2.7.17,0,.32-.2.15-.29-2-1.06-4.2-1.86-6.29-2.76C12.57,64.69,12.44,65,12.66,65.13Z"/><path class="cls-3" d="M11.08,62.53a25.49,25.49,0,0,0,7.37,3.6.15.15,0,0,0,.1-.28,46,46,0,0,1-7.27-3.61C11.09,62.12,10.89,62.4,11.08,62.53Z"/><path class="cls-3" d="M11,61.34a15,15,0,0,0,6.32,2.82.15.15,0,0,0,.07-.29A24.19,24.19,0,0,1,11.22,61,.18.18,0,0,0,11,61.34Z"/><path class="cls-3" d="M9.94,58.81a25.62,25.62,0,0,0,8,4,.14.14,0,0,0,.1-.26,40.6,40.6,0,0,1-7.88-4.08C10,58.37,9.75,58.67,9.94,58.81Z"/><path class="cls-3" d="M9.68,57.44c2.3,1,4.58,2.12,6.92,3.07.16.07.24-.17.09-.25-2.26-1.11-4.6-2.09-6.9-3.12C9.61,57.06,9.5,57.35,9.68,57.44Z"/><path class="cls-3" d="M9,55.43c2.15,1,4.28,2,6.47,3,.14.06.21-.16.08-.22-2.12-1.07-4.3-2-6.45-3C9,55.07,8.84,55.35,9,55.43Z"/><path class="cls-3" d="M9.23,54c1.72.62,3.44,1.34,5.21,1.83a.14.14,0,0,0,.09-.26c-1.67-.74-3.46-1.27-5.19-1.89A.17.17,0,0,0,9.23,54Z"/><path class="cls-3" d="M8,50.72c1.46.84,2.91,1.72,4.39,2.51.13.07.27-.11.13-.19-1.43-.88-2.91-1.69-4.37-2.52C8,50.43,7.85,50.64,8,50.72Z"/><path class="cls-3" d="M7.6,49c.17,0,.2-.27,0-.27S7.43,49,7.6,49Z"/><path class="cls-3" d="M20.55,73c2.16.87,4.32,1.75,6.52,2.54.16.06.25-.19.09-.26-2.14-.92-4.32-1.74-6.5-2.58C20.47,72.58,20.37,72.87,20.55,73Z"/><path class="cls-3" d="M21.58,74.11a78.85,78.85,0,0,0,9.08,4.48.13.13,0,0,0,.09-.24c-3.06-1.39-6.07-2.84-9-4.49C21.58,73.77,21.41,74,21.58,74.11Z"/><path class="cls-3" d="M22.05,75.92c2.29,1.06,4.56,2.15,6.89,3.13.16.07.24-.17.09-.24-2.26-1.13-4.57-2.14-6.87-3.19C22,75.54,21.87,75.83,22.05,75.92Z"/><path class="cls-3" d="M19,73.68c2.78,1.07,5.56,2.14,8.36,3.14.17.06.27-.2.1-.26-2.76-1.12-5.55-2.16-8.34-3.21A.18.18,0,0,0,19,73.68Z"/><path class="cls-3" d="M20.27,71.38A50.77,50.77,0,0,0,31.74,76.1c.17,0,.28-.21.1-.27A80.65,80.65,0,0,1,20.47,71.1C20.28,71,20.07,71.28,20.27,71.38Z"/><path class="cls-3" d="M20.19,70.65a47.93,47.93,0,0,0,10.42,3.71c.16,0,.22-.22.07-.27A90.35,90.35,0,0,1,20.32,70.3C20.1,70.2,20,70.55,20.19,70.65Z"/><path class="cls-3" d="M18.81,68.44c3.36,1.34,6.69,2.79,10.11,4,.18.07.27-.2.1-.28-3.3-1.47-6.73-2.71-10.09-4C18.72,68,18.6,68.35,18.81,68.44Z"/><path class="cls-3" d="M17.91,66.56A44.41,44.41,0,0,0,28.3,70.44c.17,0,.23-.24.06-.29A70.31,70.31,0,0,1,18,66.21C17.83,66.1,17.7,66.45,17.91,66.56Z"/><path class="cls-3" d="M29.18,77.57c3.19.89,6.38,1.8,9.58,2.67.16,0,.24-.19.09-.24-3.18-.92-6.38-1.81-9.57-2.71C29.1,77.24,29,77.52,29.18,77.57Z"/><path class="cls-3" d="M30.66,77.35c3.3.65,6.61,1.32,9.92,1.94.15,0,.17-.21,0-.24-3.3-.68-6.61-1.32-9.91-2C30.51,77,30.48,77.32,30.66,77.35Z"/><path class="cls-3" d="M29.94,75.37a46.07,46.07,0,0,0,10.62,2.35c.18,0,.2-.25,0-.28A69.05,69.05,0,0,1,30.06,75C29.85,75,29.73,75.3,29.94,75.37Z"/><path class="cls-3" d="M28.56,78.5a51.45,51.45,0,0,0,9.29,1.68.15.15,0,0,0,0-.29,77.64,77.64,0,0,1-9.2-1.73C28.46,78.1,28.34,78.44,28.56,78.5Z"/><path class="cls-3" d="M38,78.85c3,.8,5.92,1.67,8.91,2.38.15,0,.25-.19.09-.24-2.94-.89-5.93-1.63-8.89-2.44C37.9,78.5,37.79,78.79,38,78.85Z"/><path class="cls-3" d="M37,77.07a46.22,46.22,0,0,0,11.55,2.52.15.15,0,0,0,0-.3,74.52,74.52,0,0,1-11.44-2.58C36.94,76.64,36.81,77,37,77.07Z"/><path class="cls-3" d="M39.45,76.86A31.45,31.45,0,0,0,50.84,78.8c.19,0,.24-.29,0-.31a41.68,41.68,0,0,1-11.29-2A.18.18,0,0,0,39.45,76.86Z"/><path class="cls-3" d="M41.68,76.43c3.73.4,7.47.88,11.21,1.16.18,0,.2-.25,0-.28-3.72-.51-7.47-.83-11.2-1.23A.18.18,0,0,0,41.68,76.43Z"/><path class="cls-3" d="M44.87,75.29a48.73,48.73,0,0,0,10.74,1.4.14.14,0,0,0,0-.28A77,77,0,0,1,45,74.94C44.76,74.89,44.68,75.24,44.87,75.29Z"/><path class="cls-3" d="M48.58,74.57a92.78,92.78,0,0,0,11.14,1.59.14.14,0,0,0,0-.28c-3.72-.53-7.43-1-11.13-1.67C48.38,74.17,48.35,74.53,48.58,74.57Z"/><path class="cls-3" d="M51.56,73.57a55.56,55.56,0,0,0,11.2,1.27.14.14,0,0,0,0-.28c-3.76-.38-7.48-.65-11.2-1.36C51.35,73.15,51.32,73.52,51.56,73.57Z"/><path class="cls-3" d="M55,72.66a54.57,54.57,0,0,0,10.13.64c.16,0,.14-.27,0-.27-3.38-.17-6.72-.27-10.08-.72A.18.18,0,0,0,55,72.66Z"/><path class="cls-3" d="M59,71.37c3.13.11,6.29.33,9.42.28.18,0,.22-.27,0-.28C65.3,71.1,62.14,71.1,59,71,58.76,71,58.72,71.36,59,71.37Z"/><path class="cls-3" d="M61.81,69.62c2.65.24,5.3.54,8,.69a.15.15,0,0,0,0-.3c-2.64-.33-5.3-.52-7.95-.76A.19.19,0,0,0,61.81,69.62Z"/><path class="cls-3" d="M65.21,68.63a10.05,10.05,0,0,0,4.81.21.16.16,0,0,0,0-.31,14.35,14.35,0,0,1-4.62-.28C65.1,68.19,65,68.56,65.21,68.63Z"/><path class="cls-3" d="M66.14,67.08a11.81,11.81,0,0,0,6,.09.15.15,0,0,0-.06-.3,16.15,16.15,0,0,1-5.8-.13C66,66.68,65.91,67,66.14,67.08Z"/><path class="cls-3" d="M68.28,65.4a10.88,10.88,0,0,0,5.8,0c.17,0,.14-.32,0-.29a14,14,0,0,1-5.62-.11C68.18,65,68.05,65.34,68.28,65.4Z"/><path class="cls-3" d="M70.9,63.89a7.61,7.61,0,0,0,4.41-.17c.17-.07.08-.32-.09-.3a11,11,0,0,1-4.28.08C70.69,63.44,70.66,63.84,70.9,63.89Z"/><path class="cls-3" d="M72.31,62a5.74,5.74,0,0,0,3.75.09c.16-.06.07-.28-.08-.27a8.13,8.13,0,0,1-3.54-.16C72.21,61.55,72.08,61.89,72.31,62Z"/><path class="cls-3" d="M74,60.22a3.51,3.51,0,0,0,3.81.05c.14-.09,0-.3-.16-.24a3.65,3.65,0,0,1-3.43-.11C74,59.8,73.77,60.1,74,60.22Z"/><path class="cls-3" d="M75.64,58.7l1.39.16a.14.14,0,0,0,0-.27l-1.39-.23C75.45,58.33,75.42,58.68,75.64,58.7Z"/><path class="cls-3" d="M49,75a16.87,16.87,0,0,0,9.07-1.18c.14-.06,0-.27-.11-.22A18.28,18.28,0,0,1,49,74.76.14.14,0,0,0,49,75Z"/><path class="cls-3" d="M49.13,74.12l7.27-1.45a.12.12,0,0,0,0-.23c-2.43.46-4.85.94-7.28,1.41A.14.14,0,0,0,49.13,74.12Z"/><path class="cls-3" d="M49.13,72.53c3.31-.58,6.64-1.12,9.94-1.76a.12.12,0,0,0,0-.23c-3.32.53-6.63,1.15-9.94,1.73A.13.13,0,0,0,49.13,72.53Z"/><path class="cls-3" d="M47.14,71.53c3.31-.54,6.64-1,10-1.63a.12.12,0,0,0,0-.23c-3.33.48-6.64,1-10,1.59C46.91,71.28,47,71.55,47.14,71.53Z"/><path class="cls-3" d="M46.46,69.54c2.74-.46,5.47-.91,8.2-1.39a.12.12,0,0,0,0-.23c-2.74.43-5.47.9-8.2,1.36A.13.13,0,0,0,46.46,69.54Z"/><path class="cls-3" d="M48.84,67.73l3.45-1c.14,0,.1-.27,0-.23l-3.45.93C48.64,67.52,48.68,67.77,48.84,67.73Z"/><path class="cls-3" d="M56.33,70.43a24.68,24.68,0,0,1,5.83-1.7.11.11,0,1,0,0-.22,22.06,22.06,0,0,0-5.91,1.67C56,70.25,56.16,70.51,56.33,70.43Z"/><path class="cls-3" d="M56.34,68.3c2.43-.44,4.88-.84,7.29-1.36.16,0,.12-.28,0-.25-2.44.37-4.87.86-7.3,1.31A.15.15,0,0,0,56.34,68.3Z"/><path class="cls-3" d="M57.86,65.91l4.31-.33c.15,0,.11-.24,0-.23-1.44.08-2.88.19-4.32.28C57.63,65.65,57.68,65.93,57.86,65.91Z"/><path class="cls-3" d="M35.44,75.43c3.57-.05,7.15-.18,10.71-.38.14,0,.14-.25,0-.25-3.57,0-7.15.15-10.71.33C35.26,75.14,35.27,75.44,35.44,75.43Z"/><path class="cls-3" d="M33,73.8c3.91,0,7.82-.1,11.72-.38.13,0,.13-.25,0-.24-3.9.14-7.78.32-11.68.36C32.9,73.54,32.87,73.81,33,73.8Z"/><path class="cls-3" d="M31.61,72.41c3.74-.2,7.48-.37,11.21-.62.13,0,.12-.24,0-.24-3.75.16-7.5.4-11.24.6C31.39,72.16,31.44,72.42,31.61,72.41Z"/><path class="cls-3" d="M30.88,70.91c3.05-.31,6.12-.56,9.16-1,.17,0,.12-.27,0-.25-3.07.22-6.12.59-9.18.9C30.63,70.62,30.68,70.93,30.88,70.91Z"/><path class="cls-3" d="M28.35,68.67c2.07-.19,4.15-.38,6.23-.59.14,0,.1-.23,0-.22l-6.24.56C28.14,68.44,28.18,68.69,28.35,68.67Z"/><path class="cls-3" d="M25,67l2.92-.55c.15,0,.11-.27,0-.24-1,.17-1.95.36-2.92.54A.13.13,0,0,0,25,67Z"/><path class="cls-3" d="M20.93,65.54a39.29,39.29,0,0,0,7.24.84c.16,0,.19-.25,0-.26A67.61,67.61,0,0,1,21,65.24C20.77,65.21,20.75,65.51,20.93,65.54Z"/><path class="cls-3" d="M17.68,63.41c2.65.22,5.3.46,8,.63a.12.12,0,0,0,0-.23c-2.65-.27-5.3-.46-8-.67C17.53,63.13,17.5,63.4,17.68,63.41Z"/><path class="cls-3" d="M14.94,60.93l6.71,1.15c.16,0,.18-.22,0-.25-2.23-.41-4.47-.79-6.7-1.19C14.79,60.61,14.76,60.89,14.94,60.93Z"/><path class="cls-3" d="M13.6,58.67c2.38.42,4.77.88,7.16,1.23a.12.12,0,0,0,0-.24c-2.38-.49-4.78-.86-7.17-1.27C13.44,58.36,13.41,58.64,13.6,58.67Z"/><path class="cls-3" d="M13.4,56.66c.16,0,.18-.24,0-.24S13.25,56.66,13.4,56.66Z"/><path class="cls-3" d="M12.54,54.39c1.92.34,3.84.69,5.77,1,.15,0,.17-.2,0-.23-1.92-.37-3.84-.72-5.77-1.07C12.38,54.08,12.36,54.36,12.54,54.39Z"/><path class="cls-3" d="M11.35,52.39a21.78,21.78,0,0,0,5.62.73c.16,0,.19-.25,0-.25a25.78,25.78,0,0,1-5.53-.78C11.27,52,11.16,52.34,11.35,52.39Z"/><path class="cls-3" d="M9.57,50.11c1.92.35,3.85.77,5.78,1,.15,0,.21-.22.06-.26-1.91-.44-3.87-.73-5.81-1.07C9.39,49.75,9.36,50.08,9.57,50.11Z"/><path class="cls-3" d="M8.92,48a29.38,29.38,0,0,0,5.37.63.13.13,0,0,0,0-.26c-1.79-.23-3.58-.37-5.36-.7C8.74,47.64,8.71,48,8.92,48Z"/><path class="cls-3" d="M8.25,46a30.1,30.1,0,0,0,5.83.66.14.14,0,0,0,0-.28c-2-.2-3.89-.35-5.83-.72C8.07,45.65,8,46,8.25,46Z"/><path class="cls-3" d="M10.1,44.64c.21,0,.25-.33,0-.33S9.88,44.64,10.1,44.64Z"/><path class="cls-3" d="M16.4,56.89a20,20,0,0,1,3.44,2.33c.12.1.3-.09.19-.21a11.83,11.83,0,0,0-3.5-2.45C16.32,56.46,16.2,56.79,16.4,56.89Z"/><path class="cls-3" d="M19.59,57.36c1.09.7,2.18,1.4,3.28,2.08a.14.14,0,0,0,.16-.22c-1.07-.74-2.15-1.45-3.23-2.16A.18.18,0,0,0,19.59,57.36Z"/><path class="cls-3" d="M29.28,59.63c1.5.54,3,1.14,4.53,1.55a.15.15,0,0,0,.1-.28c-1.46-.63-3-1.08-4.51-1.59C29.19,59.24,29.07,59.56,29.28,59.63Z"/><path class="cls-3" d="M26.7,61.18c1.65.56,3.3,1.18,5,1.65a.15.15,0,0,0,.1-.28c-1.61-.66-3.3-1.17-5-1.73A.19.19,0,0,0,26.7,61.18Z"/><path class="cls-3" d="M15.82,55.35a6.89,6.89,0,0,0,3.33,2.83c.14.07.27-.17.13-.25a7.44,7.44,0,0,1-3.13-2.74C16,55,15.71,55.14,15.82,55.35Z"/><path class="cls-3" d="M16.12,57.54c.2,0,.23-.3,0-.3S15.93,57.54,16.12,57.54Z"/><path class="cls-3" d="M74.86,62.56l.93.11a.12.12,0,0,0,0-.24l-.93-.14C74.71,62.26,74.69,62.54,74.86,62.56Z"/><path class="cls-3" d="M72.74,56.33a6.37,6.37,0,0,0,3.91.94.15.15,0,0,0,0-.3,11.1,11.1,0,0,1-3.75-.92C72.73,56,72.59,56.24,72.74,56.33Z"/><path class="cls-3" d="M74,55.08a8.53,8.53,0,0,0,3.62.22c.17,0,.17-.3,0-.31a24.75,24.75,0,0,1-3.54-.22C73.92,54.74,73.85,55,74,55.08Z"/><path class="cls-3" d="M74,52.9a12,12,0,0,0,4.24.58c.15,0,.14-.25,0-.26a19.29,19.29,0,0,1-4.14-.57C73.91,52.6,73.81,52.85,74,52.9Z"/><path class="cls-3" d="M73.85,51.18a8.76,8.76,0,0,0,3.29.93.13.13,0,0,0,0-.25,13.37,13.37,0,0,1-3.22-.94C73.78,50.84,73.69,51.1,73.85,51.18Z"/><path class="cls-3" d="M72.77,50.09l3.82.88c.13,0,.18-.2,0-.23-1.26-.31-2.52-.6-3.78-.89C72.7,49.81,72.61,50.05,72.77,50.09Z"/><path class="cls-3" d="M74.58,48.8c1.16.17,2.32.37,3.49.46a.13.13,0,0,0,0-.26c-1.15-.24-2.32-.35-3.48-.51C74.41,48.46,74.38,48.78,74.58,48.8Z"/><path class="cls-3" d="M74.69,47.71a7.92,7.92,0,0,0,3.62.21c.14,0,.15-.27,0-.27a12.76,12.76,0,0,1-3.49-.26C74.6,47.34,74.48,47.65,74.69,47.71Z"/><path class="cls-3" d="M74.72,46.51c1.23.1,2.46.25,3.69.29a.14.14,0,0,0,0-.27c-1.22-.16-2.45-.23-3.68-.34A.16.16,0,0,0,74.72,46.51Z"/><path class="cls-3" d="M74.21,45c1.21.2,2.43.48,3.65.58.16,0,.23-.24.07-.29-1.2-.3-2.46-.44-3.68-.64C74,44.65,74,45,74.21,45Z"/><path class="cls-3" d="M74.06,43.58c1.2.24,2.41.53,3.62.71a.13.13,0,0,0,.06-.25c-1.2-.32-2.43-.53-3.65-.78C73.89,43.21,73.86,43.54,74.06,43.58Z"/><path class="cls-3" d="M74,42.32c1.21.32,2.42.71,3.65.94.16,0,.22-.22.07-.28-1.17-.41-2.4-.67-3.6-1C73.92,41.93,73.8,42.26,74,42.32Z"/><path class="cls-3" d="M74.64,40.2a5.58,5.58,0,0,0,2.8.86c.15,0,.18-.24,0-.25A5.62,5.62,0,0,1,74.82,40C74.65,39.85,74.48,40.1,74.64,40.2Z"/><path class="cls-3" d="M74.51,38.8A10.74,10.74,0,0,0,77.92,40a.15.15,0,0,0,.07-.29,21.27,21.27,0,0,1-3.37-1.24C74.44,38.4,74.33,38.71,74.51,38.8Z"/><path class="cls-3" d="M73.83,37.16a25.86,25.86,0,0,0,3.63,1c.18,0,.22-.22.07-.29A27.3,27.3,0,0,0,74,36.81C73.73,36.75,73.6,37.1,73.83,37.16Z"/><path class="cls-3" d="M73.55,35.13a9.2,9.2,0,0,0,4,1.46.15.15,0,0,0,.07-.29,18.62,18.62,0,0,1-3.82-1.47C73.55,34.71,73.34,35,73.55,35.13Z"/><path class="cls-3" d="M73.6,33.86a9.72,9.72,0,0,0,3.45,1c.15,0,.23-.23.06-.28-1.14-.35-2.28-.54-3.39-1C73.51,33.45,73.39,33.77,73.6,33.86Z"/><path class="cls-3" d="M73.28,32.26a8.09,8.09,0,0,0,3.48.83.13.13,0,1,0,0-.26,13.26,13.26,0,0,1-3.4-.86C73.2,31.89,73.09,32.18,73.28,32.26Z"/><path class="cls-3" d="M73,30.61a6.44,6.44,0,0,0,3.16.78c.15,0,.13-.24,0-.25a8.65,8.65,0,0,1-3-.83C72.91,30.22,72.8,30.52,73,30.61Z"/><path class="cls-3" d="M72.67,29a6.28,6.28,0,0,0,2.78.72.12.12,0,0,0,0-.24,9,9,0,0,1-2.7-.76C72.6,28.6,72.5,28.88,72.67,29Z"/><path class="cls-3" d="M72.31,27.27a2.43,2.43,0,0,0,2.18.75.15.15,0,0,0,0-.29,2.77,2.77,0,0,1-1.91-.68C72.42,26.9,72.16,27.12,72.31,27.27Z"/><path class="cls-3" d="M70.83,25.67a6.09,6.09,0,0,0,2.65.61.14.14,0,0,0,0-.26,19.25,19.25,0,0,1-2.56-.66C70.75,25.28,70.63,25.58,70.83,25.67Z"/><path class="cls-3" d="M69.62,24.09a26,26,0,0,0,2.6.64.13.13,0,0,0,0-.25c-.82-.29-1.7-.45-2.55-.67C69.54,23.77,69.44,24,69.62,24.09Z"/><path class="cls-3" d="M68.72,22.91a3.8,3.8,0,0,0,2.4.15c.14,0,0-.23-.07-.23a5.43,5.43,0,0,1-2.23-.21A.15.15,0,0,0,68.72,22.91Z"/><path class="cls-3" d="M67.56,21c.8.25,1.6.56,2.42.73.15,0,.19-.2,0-.26a24,24,0,0,0-2.35-.79C67.47,20.6,67.36,20.91,67.56,21Z"/><path class="cls-3" d="M66.54,19.64a17.82,17.82,0,0,0,1.9.4.12.12,0,0,0,0-.24,17.84,17.84,0,0,0-1.92-.45C66.38,19.31,66.36,19.6,66.54,19.64Z"/><path class="cls-3" d="M65.11,18.15a8.2,8.2,0,0,0,2.62.61c.14,0,.21-.21.06-.25-.86-.24-1.72-.36-2.57-.66A.16.16,0,0,0,65.11,18.15Z"/><path class="cls-3" d="M64.91,17.06a9.24,9.24,0,0,0,3.28,1c.15,0,.22-.23.06-.28A23.61,23.61,0,0,1,65,16.72C64.82,16.62,64.7,17,64.91,17.06Z"/><path class="cls-3" d="M12.07,25.26a8.33,8.33,0,0,0,4.59.93c.17,0,.15-.28,0-.3A20.66,20.66,0,0,1,12.18,25,.16.16,0,0,0,12.07,25.26Z"/><path class="cls-3" d="M13.87,24.26c1.23.11,2.46.23,3.69.28a.13.13,0,0,0,0-.26c-1.22-.17-2.45-.28-3.67-.39A.19.19,0,0,0,13.87,24.26Z"/><path class="cls-3" d="M14.22,23c1.34.13,2.69.33,4,.35a.14.14,0,0,0,0-.27c-1.32-.23-2.69-.29-4-.41A.17.17,0,0,0,14.22,23Z"/><path class="cls-3" d="M15.16,21.38c1.11.08,2.22.22,3.34.23a.13.13,0,0,0,0-.26c-1.1-.16-2.22-.2-3.33-.28A.16.16,0,0,0,15.16,21.38Z"/><path class="cls-3" d="M16,20.11a30.41,30.41,0,0,0,3.15.38c.15,0,.22-.24.06-.28-1-.24-2.13-.3-3.18-.44C15.86,19.75,15.83,20.08,16,20.11Z"/><path class="cls-3" d="M16.59,18.75c1.22.11,2.46.3,3.68.31a.15.15,0,0,0,0-.29c-1.2-.22-2.46-.26-3.68-.38A.18.18,0,0,0,16.59,18.75Z"/><path class="cls-3" d="M18,17.7c1.11.09,2.22.21,3.34.22a.14.14,0,0,0,0-.28c-1.1-.16-2.22-.21-3.33-.29A.18.18,0,0,0,18,17.7Z"/><path class="cls-3" d="M19.52,16.47a9.84,9.84,0,0,0,3.32.72c.16,0,.26-.25.07-.3-1.08-.3-2.19-.4-3.26-.77C19.43,16.05,19.3,16.39,19.52,16.47Z"/><path class="cls-3" d="M21.05,16.07a17.43,17.43,0,0,0,2.89,0c.19,0,.15-.28,0-.32a16.71,16.71,0,0,0-2.83-.09C20.83,15.65,20.78,16.06,21.05,16.07Z"/><path class="cls-3" d="M22.45,14.56a5.48,5.48,0,0,0,3.23.47.16.16,0,0,0,0-.32c-.49-.05-1,0-1.48-.07a6.43,6.43,0,0,1-1.6-.43C22.36,14.12,22.23,14.47,22.45,14.56Z"/><path class="cls-3" d="M23.68,13.7a25.25,25.25,0,0,0,3.64.65.16.16,0,0,0,.07-.31,26.85,26.85,0,0,0-3.67-.76C23.46,13.23,23.42,13.65,23.68,13.7Z"/><path class="cls-3" d="M25.87,13.29a16.5,16.5,0,0,0,2.79.35c.17,0,.26-.25.07-.31a16.69,16.69,0,0,0-2.82-.42C25.66,12.87,25.63,13.25,25.87,13.29Z"/><path class="cls-3" d="M26.52,12.12a6.17,6.17,0,0,0,3.22.47.15.15,0,0,0,0-.29,14.75,14.75,0,0,1-3.08-.55A.2.2,0,0,0,26.52,12.12Z"/><path class="cls-3" d="M28.05,11.29a6.62,6.62,0,0,0,3.09.25.16.16,0,0,0,0-.32,18.1,18.1,0,0,1-2.93-.31C27.94,10.84,27.8,11.22,28.05,11.29Z"/><path class="cls-3" d="M29.64,10.44a16.38,16.38,0,0,0,2.79.35c.16,0,.25-.25.07-.3a16.68,16.68,0,0,0-2.83-.44C29.42,10,29.38,10.41,29.64,10.44Z"/><path class="cls-3" d="M31.33,9.78a12.6,12.6,0,0,0,2.44.29c.15,0,.23-.22.06-.27a13.54,13.54,0,0,0-2.47-.4C31.12,9.37,31.08,9.75,31.33,9.78Z"/><path class="cls-3" d="M33,9.15a18.62,18.62,0,0,0,3.13.46.16.16,0,0,0,.07-.31,18.64,18.64,0,0,0-3.16-.54C32.8,8.72,32.77,9.11,33,9.15Z"/><path class="cls-3" d="M35.55,8.79a22.24,22.24,0,0,0,3.13.44c.16,0,.24-.24.07-.29a24,24,0,0,0-3.16-.57C35.32,8.33,35.29,8.75,35.55,8.79Z"/><path class="cls-3" d="M38,8.76a24.43,24.43,0,0,0,3.3.55c.14,0,.21-.21.06-.26a23.55,23.55,0,0,0-3.32-.68C37.83,8.32,37.8,8.71,38,8.76Z"/><path class="cls-3" d="M41,8.59A14.2,14.2,0,0,0,43,9.11.15.15,0,0,0,43,8.83a15.24,15.24,0,0,0-1.85-.58C40.94,8.18,40.81,8.53,41,8.59Z"/><path class="cls-3" d="M42.67,8.68c.58.08,1.16.17,1.74.21a.15.15,0,0,0,0-.3c-.57-.12-1.16-.19-1.74-.27C42.47,8.28,42.43,8.65,42.67,8.68Z"/><path class="cls-3" d="M4.12,55.73a46.9,46.9,0,0,1,.62-25.6c.06-.2-.24-.32-.31-.12a39.81,39.81,0,0,0-.61,25.78C3.87,56,4.17,55.93,4.12,55.73Z"/><path class="cls-3" d="M6.8,26.71a18.73,18.73,0,0,0,1.55-2.42c.08-.17-.16-.26-.26-.14a18.56,18.56,0,0,0-1.55,2.37C6.43,26.7,6.69,26.88,6.8,26.71Z"/><path class="cls-3" d="M.3,41.33A53.12,53.12,0,0,1,3.15,29.67a.15.15,0,0,0-.28-.11A34.29,34.29,0,0,0,0,41.31.15.15,0,0,0,.3,41.33Z"/><path class="cls-3" d="M77.77,68.41c5.7-8.9,8-20,5.37-30.4a.17.17,0,0,0-.34.07c1.73,10.76.32,20.69-5.27,30.16C77.43,68.4,77.66,68.57,77.77,68.41Z"/><path class="cls-3" d="M82.35,33.44c-.55-1.5-1.07-3-1.75-4.49-.07-.16-.35-.08-.29.09.47,1.55,1.11,3.05,1.72,4.56C82.11,33.82,82.43,33.66,82.35,33.44Z"/><path class="cls-3" d="M10.19,70.53C17.78,80.81,31,90,44.32,86.3c.18,0,.14-.34-.06-.3C30.5,88.61,18.68,80.72,10.49,70.28,10.33,70.08,10,70.33,10.19,70.53Z"/><path class="cls-3" d="M7.93,66.9a5.28,5.28,0,0,0-1.71-2.58c-.14-.1-.29.09-.2.22.28.39.64.72.91,1.11A9.17,9.17,0,0,1,7.69,67C7.76,67.18,8,67.06,7.93,66.9Z"/><path class="cls-3" d="M16.9,79.91C9.13,74.06,4,66.54.32,57.63c-.07-.17-.37-.08-.31.1,2.82,9.14,9,16.87,16.72,22.43A.15.15,0,0,0,16.9,79.91Z"/><path class="cls-3" d="M57.62,84.65a35.53,35.53,0,0,0,9.8-6.34.15.15,0,0,0-.19-.22,105,105,0,0,1-9.72,6.32A.13.13,0,0,0,57.62,84.65Z"/><path class="cls-3" d="M68.38,80.16A32.13,32.13,0,0,0,81.21,67.28c.08-.15-.18-.28-.27-.14-3.42,5.19-7.29,9.56-12.68,12.78C68.11,80,68.22,80.25,68.38,80.16Z"/><path class="cls-3" d="M72.37,74.88c.59-.87,1.21-1.72,1.75-2.62a.13.13,0,0,0-.22-.15c-.64.83-1.2,1.72-1.79,2.59C72,74.86,72.26,75,72.37,74.88Z"/><path class="cls-3" d="M20.65,8.83A45.44,45.44,0,0,1,50.82,3.66c.17,0,.19-.23,0-.27A40.7,40.7,0,0,0,20.52,8.56C20.37,8.66,20.48,8.92,20.65,8.83Z"/><path class="cls-3" d="M28.32,2.52a26.37,26.37,0,0,1,7.25-1.34c.13,0,.13-.24,0-.24a21.32,21.32,0,0,0-7.37,1.31C28,2.31,28.14,2.58,28.32,2.52Z"/><path class="cls-3" d="M57.73,6.4a8.88,8.88,0,0,0,1.14.36.15.15,0,0,0,.1-.28,8.33,8.33,0,0,0-1.12-.42A.18.18,0,0,0,57.73,6.4Z"/><path class="cls-4" d="M42.31,1.32A1.6,1.6,0,0,0,41.73.15a.86.86,0,0,0-1,.05,1.65,1.65,0,0,0-.52,1.21,1.06,1.06,0,0,0,1.11,1.16A1.08,1.08,0,0,0,42.31,1.32Z"/></g></g></svg>