<svg xmlns="http://www.w3.org/2000/svg" viewBox="0 0 68.83 88.83"><defs><style>.cls-1{fill:#ecd6b7;}.cls-2{fill:#f46b51;}.cls-3{fill:#d8bc98;}.cls-4{fill:#5daec5;}.cls-5{fill:#ae8c63;}.cls-6{fill:#d65545;}.cls-7{fill:#260029;}</style></defs><g id="Layer_2" data-name="Layer 2"><g id="_"><path class="cls-1" d="M30,43.06C29.5,38.29,29.72,33,32.89,29.4c.51-.58,1.14-1.31.85-2a2.7,2.7,0,0,0-.69-.82c-1.33-1.36-2-3-.89-4.46s4.39-3,6.25-3.33C36.68,12.89,38.47,6,43.31,2.3A11.63,11.63,0,0,1,46.52.51c4.2-1.48,9.18.4,11.8,4a13.8,13.8,0,0,1,1.44,12.75,9.29,9.29,0,0,1-4,5.13,34.05,34.05,0,0,1,4.56,4.74,1.88,1.88,0,0,1,.48,1,1.75,1.75,0,0,1-.58,1.14,12.75,12.75,0,0,1-6.24,3.69c1.54.6,1.09,3.61.81,5.23-.92,5.18-1.54,9.77-5,13.77-3,3.51-7.45,5.48-10.58,8.86.2-.21-2.81-1.84-5-1.33-1.2-.75-1.5-3.13-1.88-4.42A64.4,64.4,0,0,1,30,43.06Z"/><path class="cls-2" d="M50.76,76.75a5,5,0,0,1,2.92.9c3.35,2,5.54,5.54,7.18,9.1.21.45.37,1.07,0,1.36a.92.92,0,0,1-.44.15c-2.14.34-4.19-.86-6-2a26.8,26.8,0,0,1-6-4.78c-.89-1-1.42-1.52-.85-2.72A4.7,4.7,0,0,1,50.76,76.75Z"/><path class="cls-2" d="M6.87,67.19c2-.82,4.2-1.64,6.11-.74a1.58,1.58,0,0,0,.06,2,2.58,2.58,0,0,0,1,.63,9.51,9.51,0,0,0,4.6.64,5.24,5.24,0,0,1-2.93,2.91c-1.3.57-2.07,1.31-3.47,1.51-2.73.39-8.41.81-10.63-1.43C-1.41,69.59,5,68,6.87,67.19Z"/><path class="cls-3" d="M28.49,48.78a4,4,0,0,1,2.18-1q1.48,5.34,2.64,10.79a1.39,1.39,0,0,1,0,.64,1.34,1.34,0,0,1-.66.67c-3.43,2-7.17,3.56-10.21,6.12-1.48,1.23-2.81,2.72-4.59,3.43s-5.33.23-4.87-2.39c.39-2.26,2.66-4.83,4-6.64A54.11,54.11,0,0,1,28.49,48.78Z"/><path class="cls-3" d="M50.49,50.73a2.78,2.78,0,0,1,.68,1.48c1.88,8.24,3.11,16.77,2,25.16a9.07,9.07,0,0,0-2.86-.47,3.12,3.12,0,0,0-2.5,1.28c-.25.38-.54.92-1,.81-.23-.06-.37-.29-.48-.5-1.83-3.33-3.56-6.72-5.2-10.14a24.33,24.33,0,0,1-1.94-5.07c-.49-2.2.42-2.53,2-4Z"/><path class="cls-3" d="M29.27,39.4l3.66-9.2c.28-.7.91-1.55.86-2.3s-1-.72-1.25-1.37c-.55-1.33-1.28-2.63-1.19-4.07A27.81,27.81,0,0,0,21.09,40.28,7.86,7.86,0,0,0,21,42.65a4.76,4.76,0,0,0,3.55,3.94c.41.1,1.09-.67,1.49-.83.86-.35,1.05-.73,2-.77.52,0,.88.13,1.27-.23.16-.16.47-.21.48-.44a15.56,15.56,0,0,0-.47-3.44,3.53,3.53,0,0,1,.84-3.22Z"/><path class="cls-3" d="M58.2,38.74c.94,1.64,1.62,3.84.45,5.33-.51.65-1.29,1-1.79,1.69s-.51,1.82.27,2.1a1.83,1.83,0,0,0,.9,0l1.91-.34a1.31,1.31,0,0,1,.76,0c.76.33.33,1.44.25,2.26-.17,1.57,1.62,2.82,3.19,2.61s2.57-1.4,3.44-2.73a6.37,6.37,0,0,0,.75-2.58,4.49,4.49,0,0,0,0-2c-1.78-6.09-3.61-12.27-7-17.67.3.49-2.43,2.73-2.79,3-1.26.91-2.62,1.13-3.94,1.79-1.55.77-.58,1.41.46,2.5A21.36,21.36,0,0,1,58.2,38.74Z"/><path class="cls-4" d="M44.8,21.28a8,8,0,0,0,8.62-9.56,1.43,1.43,0,0,0-.18-.5,1.27,1.27,0,0,0-.7-.42,17,17,0,0,0-3.27-.49A32.37,32.37,0,0,1,45,9.43a15.7,15.7,0,0,1-2.6-.82,7.86,7.86,0,0,1-3-2.45A17.33,17.33,0,0,0,37.6,15.7a4.43,4.43,0,0,0,1.95,3.62A13.13,13.13,0,0,0,44.8,21.28Z"/><path class="cls-2" d="M59,10.63a1.66,1.66,0,0,0-.83,0,2.08,2.08,0,0,0-.82.59,7.84,7.84,0,0,0-1.8,3.17,4.29,4.29,0,0,0,0,2.72,2.27,2.27,0,0,0,2.1,1.51,2.39,2.39,0,0,0,1.69-1,7.56,7.56,0,0,0,.94-1.75c.2-.48.41-1,.61-1.45C61.59,12.77,61,11,59,10.63Z"/><path class="cls-2" d="M66.77,42.12A6.61,6.61,0,0,1,66,51.5a4.16,4.16,0,0,1-2.45,1,2.39,2.39,0,0,1-2.23-1.27c-.38-.87-.07-1.88-.14-2.83a.74.74,0,0,0-.6-.8c-1-.29-2.11.27-3.17.19a1,1,0,0,1-.7-.27C56,46.21,59,43.09,60.29,43.09,62.66,43.84,64.85,44.4,66.77,42.12Z"/><path class="cls-2" d="M22.87,35.62c-.28-.17-.59.16-.74.45A16.33,16.33,0,0,0,20.9,41.8,4.71,4.71,0,0,0,21,43.88a4.55,4.55,0,0,0,.84,1.26c.61.74,1.4,1.55,2.36,1.44s1.49-1,2.33-1.26A18.46,18.46,0,0,1,29,45.17a.75.75,0,0,0,.47-.23.92.92,0,0,0,.15-.57,20.14,20.14,0,0,0,0-4c-.27-1.44-.42-1.12-1.79-1.31A6.2,6.2,0,0,1,22.87,35.62Z"/><path class="cls-5" d="M56.52,36.11c-.29-.4-.71-1.27-1.34-1s-.33,1.21-.33,1.71a25.52,25.52,0,0,1-1.62,9,25.8,25.8,0,0,1-2.29,4.62,1,1,0,0,0-.18.38,1.09,1.09,0,0,0,0,.4c.26,1,.51,2.07.76,3.11a.68.68,0,0,0,.19.41.78.78,0,0,0,.35.14l2.07.46a2.82,2.82,0,0,0,1.08.1,2.59,2.59,0,0,0,1.56-1.11,11.24,11.24,0,0,0,2.42-6,8,8,0,0,1-1.47.07c-.55,0-1.2-.22-1.35-.75a1.16,1.16,0,0,1,.07-.71c.63-1.7,2.81-2.6,3.05-4.39A4.23,4.23,0,0,0,59,40.19,29.46,29.46,0,0,0,56.52,36.11Zm8.7-18a3.55,3.55,0,0,0-1.83-1.79,8.09,8.09,0,0,0-2.53-.62s-1.14,2.19-1.27,2.41a17.9,17.9,0,0,1-1.77,2.31c-.43.47-1.79,1.3-2,1.87-.24.76,1.12,1.57,1.64,1.92a17,17,0,0,1,4.12,3.85A23.28,23.28,0,0,1,64,32.67,28.26,28.26,0,0,0,65,26.46l.44-5.85A5.4,5.4,0,0,0,65.22,18.11Z"/><path class="cls-6" d="M62.14,21.07l3.3.13c0,1.27,0,2.55,0,3.82a12.41,12.41,0,0,1-5.73-.35,3.9,3.9,0,0,1-1.11-.36,10.84,10.84,0,0,1-1-.79,13.35,13.35,0,0,0-2-1c-.05,0-.11-.07-.12-.13a.16.16,0,0,1,.09-.15c.76-.64,1.92-2,2.91-1.8A29.39,29.39,0,0,0,62.14,21.07Z"/><path class="cls-6" d="M55.58,47.58a1.37,1.37,0,0,1,.4.05,1.88,1.88,0,0,1,.54.29,3.19,3.19,0,0,0,2.69.31A7.14,7.14,0,0,1,58.6,50a.68.68,0,0,1-.21.29.93.93,0,0,1-.27.12,9,9,0,0,1-6.69-.73A6.78,6.78,0,0,1,52.78,47c.32-.13.83.18,1.14.27A7.77,7.77,0,0,0,55.58,47.58Z"/><path class="cls-2" d="M39.89,60.49a.56.56,0,0,1-.25.18c-.18.06-.37-.06-.54-.17a7.28,7.28,0,0,0-4.5-1.25.49.49,0,0,1-.6-.36,40.83,40.83,0,0,1-3.2-10.25,34.71,34.71,0,0,0,9.8,3.61,10.42,10.42,0,0,0,3,.27,12.8,12.8,0,0,0,2.84-.69c.57-.19,3.19-1.53,3.06-.29-.07.79-2.53,2.32-3.14,2.86C44.13,56.36,42,58.4,39.89,60.49Z"/><path class="cls-7" d="M64.87,39.61c.2-.13,0-.45-.23-.35-1.11.57-2.94,1.2-4.1.41a.2.2,0,0,0-.23.33C61.54,41,63.69,40.37,64.87,39.61Zm2.36,1.8a.33.33,0,0,0-.11-.1c.29-2.3-.53-5-1.59-7.34a.2.2,0,0,0-.06-.14c-.3-.67-.62-1.31-.94-1.92.82-4.39,2-9.9,1-14.12a.22.22,0,0,0-.19-.19c-1-1.51-2.69-1.8-4.32-2.3a12.59,12.59,0,0,0,.28-5.19C59.73-.64,45.46-3.66,39.72,5.42a11.66,11.66,0,0,0-1.4,13.28c-7.31,1.38-14.06,8.78-15.75,16,0,0,0,0-.05,0-2.13,2.88-3.92,12.68,1.93,11.91a3.32,3.32,0,0,0,2.64-1.06.33.33,0,0,0,.1-.17A3.21,3.21,0,0,0,29.14,45a.22.22,0,0,0,.12-.18,16.06,16.06,0,0,0,.87,2.85C23.06,50.8,16.32,59.05,12.92,66A16.31,16.31,0,0,0,5,67.27C3.1,68,.33,69.33.09,71.62c0,0,0,0,0,.08a.33.33,0,0,0,0,.51c5,3.82,16.17,3.61,19.21-2.69a.29.29,0,0,0,0-.29,38.48,38.48,0,0,0,5.76-3.92c2.66-2.08,5.56-3.61,8.36-5.45a.25.25,0,0,0,.1-.15,6.09,6.09,0,0,1,2.71.18,18,18,0,0,1,2.35,1,45.31,45.31,0,0,0,7.23,17.43s0,.06,0,.09c1,3.38,4.3,6,7.19,7.76,2,1.23,5,3.08,7.44,2.57a.39.39,0,0,0,.2-.11.29.29,0,0,0,.21-.12c1.13-1.55-.48-4-1.38-5.29a25.77,25.77,0,0,0-6.27-6.1c1.61-7.11,1-14.79-.88-21.91,1.33.63,3.34.87,4.45-.18a8.35,8.35,0,0,0,1.46-2.9c.51-1.25,1-2.5,1.38-3.79a.38.38,0,0,0,0-.1c.53-.09,1-.17,1.09-.06.21.4-.16,1.75,0,2.34a2.54,2.54,0,0,0,1.46,1.92c2,.84,4.3-.92,5.39-2.44C69.5,47.3,69.07,44,67.23,41.41ZM64,31l-.25-.45a24.45,24.45,0,0,0-4.2-5.63,22.59,22.59,0,0,0,5.2.67.24.24,0,0,0,.09,0C64.62,27.37,64.3,29.2,64,31Zm.89-5.93a.15.15,0,0,0-.09,0,24.92,24.92,0,0,1-6.13-.87,11.61,11.61,0,0,0-2.54-1.61.31.31,0,0,0-.28,0l-.09,0A12.56,12.56,0,0,0,58,20.71a23.9,23.9,0,0,0,7.23,1.08C65.15,22.87,65.05,24,64.91,25.05Zm-9.52-1.86c3.41,4.92-6.13,4.27-7.54,4A18.8,18.8,0,0,1,44,26.14c-.48-.19-1-.39-1.42-.61q-3.45-1-3-5.12c4.36,5.21,10.91,5.34,15.7,2.39A.4.4,0,0,0,55.39,23.19Zm7.84-6.54A8.6,8.6,0,0,1,65,17.92a21.76,21.76,0,0,1,.18,3.25,41.67,41.67,0,0,1-6.86-.88,11.25,11.25,0,0,0,1-1.21.43.43,0,0,0,.19-.29,12.29,12.29,0,0,0,1.42-3C61.67,16.06,62.46,16.33,63.23,16.65Zm-2.61-3.19a1.69,1.69,0,0,0-1.83-1.12,3,3,0,0,0-1.86,2.14c0,.21.23.41.36.19.34-.56.69-1.34,1.36-1.57s1.37.42,1.75,1a.18.18,0,0,0,.12.08,11.32,11.32,0,0,1-.54,2c-.3.2-.44.58-.84.71a1.27,1.27,0,0,1-1.4-.46c-.15-.21-.5,0-.37.24a1.75,1.75,0,0,0,1.82,1l.11,0L59,18.2h-.09c-2.86.84-3.62-1.91-3-4.1a5.62,5.62,0,0,1,1-2.14c1-1.22,2.77-1.51,3.54.18a.25.25,0,0,0,.27.15A11.12,11.12,0,0,1,60.62,13.46ZM39.79,6.29a.35.35,0,0,0,.12-.1C45.3-1.88,58.14-.94,60.37,9.32a13.41,13.41,0,0,1,.26,1.73,2.12,2.12,0,0,0-2.1-.83c-1.54.26-2.44,1.87-2.92,3.2-.58,1.56-.93,3.54.1,5a2.47,2.47,0,0,0,2.42,1,12,12,0,0,1-17.74.66c2.83,1.73,6.22,2.46,9.31.68,3.56-2.07,4.46-6.24,4.16-10.06a.37.37,0,0,0-.32-.29c-4.42-.36-10.57-.3-13.65-4a.16.16,0,0,0-.18,0Zm-.2.34a.1.1,0,0,0,0,.07,11.49,11.49,0,0,0,6.19,3.45,27.67,27.67,0,0,0,3.64.62c1.87.23,3.65-.3,3.81,2a8.22,8.22,0,0,1-4.61,7.78c-3.28,1.4-6.82.05-9.47-2a.2.2,0,0,0-.14,0A11.75,11.75,0,0,1,39.59,6.63Zm-.87,12.69.11.19a.25.25,0,0,0,.29.1.33.33,0,0,0,.08.24l.12.16c-5.1,2.91,5.4,7.4,7.44,7.85,2.68.6,12,.51,9.88-4.13a21,21,0,0,1,7.1,9.13s0,.08,0,.12a.25.25,0,0,0,.18.29c.17.43.35.85.51,1.29a12,12,0,0,1-5.33,2.64c-.27.07-.2.5.07.43A12.19,12.19,0,0,0,64.59,35a54.69,54.69,0,0,1,1.8,6.53c-1.61,2.44-3.94,2.11-6.34,1a.12.12,0,0,0-.1,0,14.14,14.14,0,0,0-3.2-6.89h.12a29.87,29.87,0,0,0,6.25-3.48c.22-.17,0-.47-.27-.32a43.53,43.53,0,0,1-6.16,3.42.17.17,0,0,0-.11.16A25.39,25.39,0,0,0,54,32.66c2.79-.37,5.68-1.79,7.07-4.29.15-.28-.22-.56-.41-.29a10.17,10.17,0,0,1-7.12,4.15c-.53-.47-1.05-.91-1.57-1.31a.34.34,0,0,0-.42,0,.32.32,0,0,1,0-.09c-.09-.25-.44-.09-.38.15-6.07.66-11.7,0-17-3.42a.21.21,0,0,0-.32.1,5.86,5.86,0,0,1-2.2-4.73.25.25,0,0,0-.06-.15A17.25,17.25,0,0,1,38.72,19.32ZM45.4,51.78a20.65,20.65,0,0,0,4.33-7.24,10,10,0,0,0,3.17-.89.27.27,0,0,0-.23-.49,10.22,10.22,0,0,1-2.76.86,26.23,26.23,0,0,0,1-3.67c0-.24-.33-.27-.38,0a20.6,20.6,0,0,1-1.2,3.78c-6.45.81-15.23-2.77-18.89-7.06A33.24,33.24,0,0,1,34,28.27.28.28,0,0,0,34,28s0,0,0-.07a22.76,22.76,0,0,0,17.23,3.48,17.91,17.91,0,0,1,.12,2.33c0,.27.42.19.41-.07,0-.68,0-1.32-.05-2,1,1,2,2,2.91,3a29.56,29.56,0,0,1-4.34,15.54.24.24,0,0,0-.26,0A16.17,16.17,0,0,1,45.4,51.78Zm4.39-.59-.35.23.34-.25Zm5.35-15.9a17.86,17.86,0,0,1,4.1,7.85C58.09,44,55.8,46,55.83,47.4A8.78,8.78,0,0,1,53,46.8,29.66,29.66,0,0,0,55.14,35.29ZM31.22,23a5.79,5.79,0,0,0,2.25,4.89,29.17,29.17,0,0,0-1.71,2.86A10.13,10.13,0,0,1,28,26.36a.11.11,0,0,0,0-.05A22.74,22.74,0,0,1,31.22,23Zm-3.66,3.75a5,5,0,0,0,1.08,1.95,9.11,9.11,0,0,0,2.84,2.58,24.1,24.1,0,0,0-1.11,2.5A10,10,0,0,1,27.6,32a10.82,10.82,0,0,1-1.79-2.63A25.6,25.6,0,0,1,27.56,26.77ZM29,44.54c-1,.12-2,.43-2.81-.34a3.81,3.81,0,0,1-.79-2.66c0-.34-.51-.4-.53,0a3.85,3.85,0,0,0,.94,3.28,2.38,2.38,0,0,0,.6.39,4,4,0,0,1-1.61.76c-2.6-.24-3.78-1.65-3.74-4.44a13.62,13.62,0,0,1,1.45-5.62l.05,0C23.77,38,26.38,40,29,39.74a17.83,17.83,0,0,0,.28,4.93A.24.24,0,0,0,29,44.54Zm.06-5.62A8.19,8.19,0,0,1,26,38.17a7.16,7.16,0,0,1-2.76-2.62A15.85,15.85,0,0,1,23.68,34c1.66,1.43,3.38,3.15,5.58,3.65C29.17,38.05,29.1,38.48,29.05,38.92ZM23.84,33.5a24,24,0,0,1,1.67-3.67c.91,2,2.51,4,4.65,4.52a22.93,22.93,0,0,0-.81,2.8C27.18,36.51,25.54,34.94,23.84,33.5Zm6.42,4.39c1.64,3,7.12,4.51,9.86,5.3a27.15,27.15,0,0,0,9,1.41A46.6,46.6,0,0,1,45,51.55a.24.24,0,0,0,0,.28,19.83,19.83,0,0,1-13.25-3.24.36.36,0,0,0-.28-.05A18.68,18.68,0,0,1,30.26,37.89ZM12.64,66.63l-.19.39a.42.42,0,0,0,0,.33.27.27,0,0,0-.06.2c.17,1.33,1.76,2.15,3.32,2.45-4.3,2.27-9.56,1.89-14,.38C4.21,67.57,8.91,66.53,12.64,66.63Zm-12,5.12a6.54,6.54,0,0,1,.62-.93c4.54,1.67,10.89,2.3,15-.68,0,0,0,0,0,0A4.65,4.65,0,0,0,18.09,70a.36.36,0,0,0,.14-.1C14.44,74.82,5.68,74.93.68,71.75Zm17.6-2a.64.64,0,0,0,0-.07S18.3,69.77,18.28,69.8Zm-.88-.49A11.84,11.84,0,0,1,15.13,69c-.66-.2-1.77-.59-2.11-1.31a.47.47,0,0,0,.39-.3c.34-.75.71-1.48,1.1-2.2A10.39,10.39,0,0,0,19,68.29C18.47,68.65,17.94,69,17.4,69.31ZM19.49,68a16.84,16.84,0,0,1-4.68-3.33c.43-.76.9-1.49,1.38-2.21a14.17,14.17,0,0,0,5.14,4.19C20.72,67.07,20.11,67.52,19.49,68Zm2.24-1.65s0,0,0-.07c-.93-.67-1.94-1.2-2.83-1.93a19.48,19.48,0,0,1-2.36-2.36c.73-1,1.51-2.07,2.34-3a18.34,18.34,0,0,0,4.93,5.72.18.18,0,0,0,.12,0Zm2.39-1.84a.17.17,0,0,0,0-.19,30.65,30.65,0,0,1-4.88-5.8c.79-.91,1.62-1.8,2.47-2.66,1.2,2.47,3.1,5.13,5.55,6.35,0,0,.05,0,.07,0C26.22,62.89,25.16,63.67,24.12,64.46ZM27.5,62a.24.24,0,0,0-.07-.28,16.49,16.49,0,0,1-3.27-3A35.28,35.28,0,0,1,22,55.44q1.63-1.61,3.39-3.1c1.54,2.73,2.91,5.56,4.64,8.18A29.22,29.22,0,0,0,27.5,62Zm4.9-2.62a.26.26,0,0,0-.16.18,17.26,17.26,0,0,0-1.67.69c-1.73-2.67-3.12-5.54-4.77-8.26,1.51-1.28,3.06-2.5,4.62-3.69,0,.12.11.25.17.37.51,3.48,1,7.37,2.8,10.37A4.82,4.82,0,0,0,32.4,59.41ZM34,59a85.91,85.91,0,0,1-2.55-9.69c4.74,3.11,12.6,5.55,17.83,2.27a45.06,45.06,0,0,0-9.64,9A7.1,7.1,0,0,0,34,59Zm5.49,2.63c3.42-3.67,7.31-6.69,11.05-10a.24.24,0,0,0,.06-.08,63.15,63.15,0,0,1,1.3,6.61,26,26,0,0,1-11.65,5.61C40,63,39.73,62.31,39.47,61.59Zm5.78,14.18a17.28,17.28,0,0,0,3.74-.9,11.93,11.93,0,0,0,3.7-1.58c0,1.16,0,2.35,0,3.56-2-1-4.23,0-5.68,1.54A29.62,29.62,0,0,1,45.25,75.77Zm15,12.11c-2.24.45-5.33-1.48-7.07-2.58a19.47,19.47,0,0,1-6.1-5.91.46.46,0,0,0,.22-.32l.47-.44c3.11,3.62,7.1,7.61,12.1,8.05a.23.23,0,0,0,.17-.08A8,8,0,0,1,60.27,87.88ZM53.06,77.71c2.72,2.19,5.9,5.1,6.9,8.52-5.1-1.17-8.23-4.34-11.78-7.94a4.94,4.94,0,0,1,1.44-.85,4.45,4.45,0,0,1,3.16.29A.34.34,0,0,0,53.06,77.71Zm-.39-9.24a10.89,10.89,0,0,1-5.08,2.31.22.22,0,0,0,.08.43,10.44,10.44,0,0,0,5-2.1c0,1.26,0,2.53,0,3.82a.26.26,0,0,0-.29-.08,33.35,33.35,0,0,1-7.31,2.48s-.05,0-.08,0c-.64-1.13-1.21-2.29-1.74-3.47a4.29,4.29,0,0,0,3-.23c.23-.13.13-.55-.15-.48a5.65,5.65,0,0,1-3.13,0c-.45-1.07-.88-2.16-1.28-3.26a14.74,14.74,0,0,0,10.87-2.56C52.62,66.4,52.65,67.43,52.67,68.47Zm-.15-3.86a16.32,16.32,0,0,1-11,2.81c-.37-1-.73-2.09-1.09-3.14A26.27,26.27,0,0,0,52,58.78Q52.36,61.71,52.52,64.61Zm4.83-12c-.41.91-.81,2-1.91,2.22a6.39,6.39,0,0,1-3.15-.38.3.3,0,0,0-.16,0C51.78,53.21,51.41,52,51,50.8c.18-.29.33-.59.5-.88a.18.18,0,0,0,.09.1,8.93,8.93,0,0,0,6.53.65C57.89,51.33,57.64,52,57.35,52.61Zm1-2.5s0,0-.06,0a9.78,9.78,0,0,1-6.53-.45s0,0-.08,0a24.33,24.33,0,0,0,1.19-2.4,6.19,6.19,0,0,0,3.11.63c.43.83,1.91.63,2.65.55l.25,0C58.68,49,58.51,49.54,58.32,50.11Zm7.41.85c-.85.66-2.24,1.38-3.34.88-1.5-.68-1.21-2.78-1-4.08,0-.21-.18-.35-.36-.33-.91.11-2.58.76-3.44.45-2.09-.78.83-3.4,1.95-4.35A.41.41,0,0,0,60,43.1c2.38,1.46,5.09,1.45,6.82-.82C68.59,45.15,68.61,48.73,65.73,51ZM57.42,15.55v-.14c0-.25-.44-.19-.41.08l0,.13C57.06,15.88,57.43,15.8,57.42,15.55ZM50.85,1.91a13.21,13.21,0,0,1,6.5,3.51c.31.28.8-.1.51-.43a10.78,10.78,0,0,0-7-3.49C50.62,1.47,50.6,1.86,50.85,1.91Zm-3.57.31A1.77,1.77,0,0,0,48,2a.27.27,0,0,0-.16-.5,1.78,1.78,0,0,0-.71.22A.26.26,0,0,0,47.28,2.22Zm-7,20.13c-.49-.28-.71.61-.12.58l.19,0a.25.25,0,0,0,.1-.45Z"/></g></g></svg>