<svg xmlns="http://www.w3.org/2000/svg" viewBox="0 0 99.67 52.7"><defs><style>.cls-1{fill:#a4aea3;}.cls-2{fill:#c2c9c0;}.cls-3{fill:#69b5d2;}.cls-4{fill:#f4555c;}.cls-5{fill:#f3b643;}.cls-6{fill:#260029;}</style></defs><g id="Layer_2" data-name="Layer 2"><g id="_"><path class="cls-1" d="M54.82,34.45a101.68,101.68,0,0,0,14.89-1.4A34.58,34.58,0,0,0,83.5,27.51c3.8-2.73,6.78-6.42,9.71-10.07a2.23,2.23,0,0,0,.71-1.8c-.09-.36-1-.31-1.26-.57-5.77-3.65-10-5.54-16-6.25-2.08-.24-4.17-.49-6.27-.61-6.19-.38-11.14.69-17.11,2.36-4.17,1.17-9.95,3-13.38,5.63a4.92,4.92,0,0,0-1.75,1.73,7.38,7.38,0,0,0-.73,2.52A18.2,18.2,0,0,0,38,27.9c.41,1.44,1,3.87,2.23,4.84,1.68,1.31,4.84,1.54,6.87,1.71A58.8,58.8,0,0,0,54.82,34.45Z"/><path class="cls-2" d="M59.47,15.57a8.41,8.41,0,0,1,6.09-1.09,5,5,0,0,1,2.36,1,4.33,4.33,0,0,1,1.41,2.61A6.48,6.48,0,0,1,61,25.43C56.4,24,55.35,18.34,59.47,15.57Z"/><path class="cls-3" d="M37.21,46.64c1-1.72,2.38-3.2,3.41-4.91a14.4,14.4,0,0,0,2-8l16,.52A23.7,23.7,0,0,1,49.44,45.8c-3.74,2.6-8.78,5.33-13.3,6.13C35.5,50.26,36.36,48.1,37.21,46.64Z"/><path class="cls-3" d="M30.78,6.54a9.09,9.09,0,0,1-1.63-1.09C27.7,4.11,27.37,1.87,25.9.56a42.79,42.79,0,0,1,15.26,1.2A22.67,22.67,0,0,1,51.33,7.83c.47.51,1.81,1.69,1.74,2.45-.09,1-1.49,1.14-2.25,1.39-2.34.78-4.66,1.64-6.94,2.58-1.1.45-2.74,1.66-3.89,1.19-1-.38-1.41-1.86-2-2.61A26.44,26.44,0,0,0,30.78,6.54Z"/><path class="cls-4" d="M78.68,18a13.74,13.74,0,0,0,4.06,8,1.69,1.69,0,0,0,.79.52A1.74,1.74,0,0,0,84.92,26a37,37,0,0,0,7.91-9.35,1.63,1.63,0,0,0,.32-1.33,1.68,1.68,0,0,0-1-.82L86.56,12c-1.27-.56-3.42-2.08-4.85-1.91C78.77,10.42,78.68,16,78.68,18Z"/><path class="cls-5" d="M16.54,22.78A3.57,3.57,0,0,0,18.74,24,38.66,38.66,0,0,0,.87,31.92,54.68,54.68,0,0,0,13,33.15L11.4,35c7.9.91,15.81-1.17,23.49-3.23-.44-2.76-.91-5.52-1.3-8.28-.24-1.63-.08-3.05-2-3.28-2.4-.3-5.27.31-7.63.71C23.16,21.09,16.82,23.07,16.54,22.78Z"/><path class="cls-6" d="M77.88,25.14a.61.61,0,0,0-1.21.21c0,.06,0,.12,0,.17s0,.31,0,.09c-.07,1.06,1.64.8,1.23-.21C78,25.58,77.89,25.22,77.88,25.14ZM76.36,20.7l-.07,0h-.22l-.08,0a.52.52,0,0,0-.13.06l0,0a.26.26,0,0,0-.09.09.42.42,0,0,0,0,.47l.11.29a.43.43,0,0,0,.82-.14v-.32a.42.42,0,0,0-.17-.43Zm-.14-8.2a1.4,1.4,0,0,0,.22-.32.75.75,0,0,0,.07-.12.51.51,0,0,0,.22-.34.6.6,0,0,0-1-.62,1.35,1.35,0,0,0,0,1.28A.36.36,0,0,0,76.22,12.5Zm-9.63,4.83a.29.29,0,0,1,0-.1.27.27,0,0,0-.18-.17.19.19,0,0,0-.06-.31A6.27,6.27,0,0,0,62,16.21l-1.17-.11a.41.41,0,0,0-.35.68,4.59,4.59,0,0,0-.66.42,3.7,3.7,0,0,0-.27,5.59,4.21,4.21,0,0,0,4.92.37h.08a.53.53,0,0,0,.4-.29,4.47,4.47,0,0,0,1.82-4.81A.54.54,0,0,0,66.59,17.33Zm-6.41,5.16A3,3,0,0,1,59.25,19a1,1,0,0,0,.11.25.68.68,0,0,0,0,.14c-.09.23-.18.45-.26.67a.65.65,0,0,0,.38.82l.19.08a.62.62,0,0,0,0,.38,1.87,1.87,0,0,0,.85.82,1.17,1.17,0,0,0,.31.17.64.64,0,0,0,0,.6A2.72,2.72,0,0,1,60.18,22.49Zm1-4.89a.57.57,0,0,0-.43-.34l.31-.16.46.24a.71.71,0,0,0-.13.22.62.62,0,0,0-.2.1A.13.13,0,0,0,61.18,17.6ZM62.1,20a.66.66,0,0,0,0,.14L61.57,20a1,1,0,0,0-.1-.17.43.43,0,0,0-.12-.11,2.08,2.08,0,0,0,1-.19l0,0,.07,0A.62.62,0,0,0,62.1,20Zm2.8,2.11s0,0,0-.05l.08,0Zm.8-.9a.48.48,0,0,0-.17-.18,1.88,1.88,0,0,0-.23-.16.61.61,0,0,0,0-.12h.15a.59.59,0,0,0,.38-.91.64.64,0,0,0,.36-.47v-.07a.57.57,0,0,0-.15-.43.46.46,0,0,0-.07-.34.85.85,0,0,0,.17-.06A3.85,3.85,0,0,1,65.7,21.21Zm3.81-3c-.73-6.78-14-5.32-12.87,2.76a6.09,6.09,0,0,0,6.57,5c4-.18,6.64-3.51,6.71-7.36A.38.38,0,0,0,69.51,18.23ZM64,25.17c-2.61.48-5.56-.74-6.41-3.4C55.1,14,68.92,11.56,69,19.45,68.47,22.2,67.06,24.61,64,25.17ZM75.87,17a.3.3,0,0,0,.35-.33c0-.16,0-.32,0-.48a.41.41,0,0,0-.06-.23.29.29,0,0,0-.1-.12.39.39,0,0,0-.31-.11c-.29,0-.5.21-.42.5l.14.47,0,.05A.35.35,0,0,0,75.87,17ZM47.8,41.17c1.26.28,2.53.62,3.81.78a.2.2,0,0,0,.08-.38c-1.25-.36-2.57-.56-3.85-.8C47.58,40.73,47.56,41.12,47.8,41.17Zm-3.38,2.29A11,11,0,0,0,42.74,43c-.3-.08-.48.37-.17.45a13.45,13.45,0,0,0,1.75.41A.21.21,0,0,0,44.42,43.46ZM45.79,8.3A39.52,39.52,0,0,0,41,10.19c-.29.12-.08.53.2.43a39.56,39.56,0,0,0,4.73-1.9C46.13,8.61,46,8.23,45.79,8.3Zm-8.94,2.11a.21.21,0,0,0,.23.35c.55-.26,1.09-.55,1.66-.78s1.17-.37,1.73-.62c.23-.1.09-.41-.13-.4A7.06,7.06,0,0,0,36.85,10.41Zm61.91,2.91a1.82,1.82,0,0,0-2.51.65,1.88,1.88,0,0,0-.24.75,13.51,13.51,0,0,0-2.26.54C79.34,3,56.24,6.63,40,15.7a4.34,4.34,0,0,0-.07-.52,8.48,8.48,0,0,0,.93-.52.26.26,0,0,0-.14-.45,1.51,1.51,0,0,0-1,.29,6.33,6.33,0,0,0-.61-1.14c1.47-.69,3-1.22,4.46-1.95a.23.23,0,0,0-.14-.43,13.58,13.58,0,0,0-4.59,2c-.19-.26-.4-.52-.62-.77A7.92,7.92,0,0,0,40.42,11a.23.23,0,0,0-.19-.4,8.2,8.2,0,0,0-2.43,1.15c-.71-.76-1.46-1.44-2-1.94A29.73,29.73,0,0,0,29.14,5,38.13,38.13,0,0,0,26.6.9C34.84.29,44.19,2.15,50.35,8a42.12,42.12,0,0,0-5.72,2.29c-.27.12-.08.5.19.4A38.59,38.59,0,0,0,50.63,8.3l0,0q.48.48.93,1c-3.49.79-6.85,2.69-10,4.34a.24.24,0,0,0,.2.43c3.27-1.71,6.81-2.74,10.11-4.34a.75.75,0,0,1,.25.22c.47.57,1.36-.17.88-.75C47.13,2,35.27-1.19,26.24.41a.39.39,0,0,0-.6.45,36.65,36.65,0,0,0,2.45,4.19.29.29,0,0,0,.13.28l.09.06.15.23a.36.36,0,0,0,.4.14,55.42,55.42,0,0,1,5.41,4,23.76,23.76,0,0,1,3.2,3.3,27.89,27.89,0,0,1,1.71,3.11q-1.32.75-2.58,1.56a.6.6,0,0,0-.21.14c-1.22.79-2.38,1.61-3.48,2.45a.41.41,0,0,0-.37.16c.08-.15,0-.35-.17-.35-5.49,0-10.91.53-16,2.62a.31.31,0,0,0,0,.56c.5.18,1,.38,1.48.57A41.7,41.7,0,0,0,.14,32c-.38.28.09.84.47.55s.59-.41.88-.63c-.08.12-.08.32.09.36a36.28,36.28,0,0,0,10.7.91,14.27,14.27,0,0,1-1.83,2.06c-.17.18,0,.52.25.39l.16-.08a.22.22,0,0,0,.14.06c7.68-.09,15.75-.31,23-2.93a.29.29,0,0,0-.17-.54c-7.42,2.06-14.67,2.24-22.26,2.9A4.61,4.61,0,0,0,13.11,33a.28.28,0,0,0,0-.09.27.27,0,0,0-.27-.34,51.6,51.6,0,0,1-11.17-.7s-.06,0-.1,0a47.17,47.17,0,0,1,17.29-7.7.26.26,0,0,0,.05-.5c-1.82-.76-2.08-.66.64-1.48a35.89,35.89,0,0,1,3.69-.86,57.42,57.42,0,0,1,9.08-.73.22.22,0,0,0,.16-.07.28.28,0,0,0,0,.12.55.55,0,0,0-.38.3l-.18.13a.24.24,0,0,0,0,.39,4.85,4.85,0,0,0-.08,1.82,10.31,10.31,0,0,0,0,2.54c-4,.55-8.45.93-12,2.4A.38.38,0,0,0,20,29c3.82.23,8.15-1,12.08-1.87a11.72,11.72,0,0,0,1.8,4.21.45.45,0,0,0,.19.57,39.3,39.3,0,0,0,8.06,2.67,17.88,17.88,0,0,1-2.21,7.19,43,43,0,0,1-3.35,4.77.38.38,0,0,0-.36.28l-.06.26-.07.09a.3.3,0,0,0,0,.31,43.18,43.18,0,0,0-1,4.84.39.39,0,0,0,.71.23c9.08-1.4,19.31-8.19,22.77-16.9a65.77,65.77,0,0,0,10.15-1.47c9.66-2.21,21.42-8,25.46-17.73a.28.28,0,0,0,0-.27,18.18,18.18,0,0,1,2-.46,2,2,0,0,0,.72.79,1.83,1.83,0,0,0,2.51-.66A1.81,1.81,0,0,0,98.76,13.32Zm-65.21,15a.16.16,0,0,1,0,.09Zm.87,2.91a.41.41,0,0,1,.16,0Zm1.23-9.73-.2-.14.21,0A.38.38,0,0,0,35.65,21.47Zm2,10.37a.81.81,0,0,0,.12-.14l.21.1.16.08.15.08Zm.78-1-.15-.26.1.06a.44.44,0,0,0,.11.2l0,.05Zm1.75,1.45a.59.59,0,0,0,0-.13l.23.18Zm16.69,4.23a56.56,56.56,0,0,1-7.59-.12.23.23,0,0,0,0,.45,29.43,29.43,0,0,0,7.32.31c-.19.37-.4.73-.61,1.08-1.06,0-2.12-.06-3.18-.14a.24.24,0,0,0,0,.47,17.22,17.22,0,0,0,2.87.27c-.27.43-.55.84-.85,1.24a41.21,41.21,0,0,1-9.58-1.61c-.28-.08-.45.35-.16.44a34.85,34.85,0,0,0,9.39,1.63C50,46.34,42.86,50.15,36,51.94a42.28,42.28,0,0,0,1.09-4.81A30.11,30.11,0,0,0,40,43.74a3.45,3.45,0,0,0,1.07.57c.24,0,.49-.21.3-.42a3.38,3.38,0,0,0-1-.67c.16-.23.32-.47.47-.71a.82.82,0,0,0,.58.22c.2,0,.38-.3.15-.42a1.16,1.16,0,0,1-.38-.35l.44-.76a10,10,0,0,0,4.47,1.5c.24,0,.35-.34.1-.42-.75-.25-1.53-.35-2.28-.6a15.74,15.74,0,0,1-2.07-.89c.2-.39.39-.78.55-1.17,0,0,0,.07.08.08a13.64,13.64,0,0,0,2.54.88.21.21,0,0,0,.14-.38,14.07,14.07,0,0,0-2.53-.89.2.2,0,0,0-.11,0c.1-.26.19-.51.27-.77a2.85,2.85,0,0,0,1.58.35c.24,0,.22-.35,0-.43-.47-.2-1-.36-1.44-.53a8.26,8.26,0,0,0,.17-.95,33.79,33.79,0,0,0,8.34,1.6.23.23,0,0,0,0-.46c-2.79-.52-5.55-1.06-8.33-1.66a6.71,6.71,0,0,0,0-.78A22.74,22.74,0,0,0,48,36.8a.22.22,0,0,0,.1-.42c-1.62-.54-3.39-.78-5-1.16,0-.17-.06-.34-.1-.5a58.92,58.92,0,0,0,14.31,1C57.16,36,57,36.27,56.88,36.55ZM81.29,28A46.22,46.22,0,0,1,66,33.4c-8.22,1.45-15.8.69-23.58-.68a2.6,2.6,0,0,0-.46-1,.54.54,0,0,0-.09-.25,21.74,21.74,0,0,1-2.62-5.61c4.37-.73,8.74-1.42,13.1-2.23.45-.08.32-.72-.13-.69a114.15,114.15,0,0,0-13.23,1.77c-.15-.8-.27-1.6-.36-2.42a12.34,12.34,0,0,1,.73-5,.39.39,0,0,0,0-.3A66,66,0,0,1,59.75,9.77a51.83,51.83,0,0,1,16.3-.38,33.92,33.92,0,0,1,4.55,1c-3.47,4-2.57,14.1,2.5,16.47C82.52,27.24,81.92,27.63,81.29,28ZM85,25.35a.44.44,0,0,0-.09-.28,15.34,15.34,0,0,1-2.94-14c.06-.21-.26-.33-.32-.12A15.83,15.83,0,0,0,84.3,25.61a.38.38,0,0,0,.23.14l-.45.36c-4.3-3.65-5.87-10.52-2.75-15.51.71.22,1.41.47,2.1.73l0,0c-1.4,4.35.06,9.5,2.57,13.18C85.66,24.82,85.34,25.08,85,25.35ZM86.52,24a17.25,17.25,0,0,1-2.7-12.56q.6.23,1.2.48c-1.22,3.62.06,8.29,2.47,11.15C87.17,23.43,86.85,23.74,86.52,24ZM88,22.65c-2.2-3.48-2.65-6.45-2.49-10.51l1.19.53c-.81,3.09-.35,6.92,1.92,9.32Zm1-1.12c-1.72-2.72-2.7-5.35-2-8.68l.94.46a10.54,10.54,0,0,0,1.63,7.54C89.41,21.08,89.21,21.31,89,21.53Zm1.09-1.21a13.54,13.54,0,0,1-1.63-6.78l1.37.7a5.9,5.9,0,0,0,1,5.15Zm1.24-1.45a8.22,8.22,0,0,1-.89-2,9.4,9.4,0,0,1-.17-2.42l1.06.56A3.71,3.71,0,0,0,92,18.1Zm1-1.24a4.9,4.9,0,0,1-.43-1.12,5.85,5.85,0,0,1-.07-1.18c.26.13.51.28.77.42A1.67,1.67,0,0,0,93,16.87Zm1-1.24c0-.1-.09-.2-.12-.3l0,0a.36.36,0,0,0,.19.13Z"/></g></g></svg>