<svg xmlns="http://www.w3.org/2000/svg" viewBox="0 0 75.1 78.51"><defs><style>.cls-1{fill:#d59b44;opacity:0.55;}.cls-2{fill:#f3b643;}.cls-3{fill:#260029;}</style></defs><g id="Layer_2" data-name="Layer 2"><g id="_"><path class="cls-1" d="M8.27,16.26c.77-1.81,1-3.94,2.25-5.43,1.69-1.95,4.84-2.26,6.3-4.39A6,6,0,0,1,17.88,5a4,4,0,0,1,2.38-.53,15,15,0,0,0,7.17-2.12,7,7,0,0,1,2.7-1.25C32.29.81,34.07,3,36.24,3c2.66.08,5.1-3,7.51-1.88,1.17.55,1.75,1.94,2.87,2.58,2.25,1.29,5.69-.85,7.48,1,.69.71.84,1.8,1.45,2.58,1.86,2.34,6.49.59,8.06,3.13.67,1.09.41,2.52.91,3.71.9,2.14,3.75,2.58,5.43,4.19a4.87,4.87,0,0,1,1.41,4.28,15.52,15.52,0,0,0-.17,3.54c.09,2.5,3.61,4.37,3.87,6.87s-2.12,4.3-2.25,6.75-.6,5,.26,7.32c1.39,3.74-1.18,4.13-2.63,5.43-3.24,2.89-1.77,6.66-4.38,10.13s-7.71,4-9.62,8c-.6,1.22-1.94,4-3.25,4.37a7.15,7.15,0,0,1-4.38-.75c-2.4-1.19-5.44-.72-6.5,1.74-.15.33-1.06.7-1.37.89A1.37,1.37,0,0,1,40,77c-3.58-.75-5.62-3.68-9.17-2.81a18.86,18.86,0,0,0-4,1.17,3.09,3.09,0,0,1-3.26-.3c-1.84-1.24-1.72-2.35-3.62-3.5-.61-.36-2.06-1.81-2.75-1.87a7.22,7.22,0,0,1-6.76-6.61c-.11-1.31.28-2.69-.21-3.92A6.15,6.15,0,0,0,8.45,57c-2.62-2.36-5.19-5.34-5.12-8.85a9.39,9.39,0,0,0,0-2.9A7.83,7.83,0,0,0,1.76,43C0,40.65-.72,37.16,1,34.75a31.24,31.24,0,0,0,2.21-2.69c1-1.89.39-4.19.07-6.32a6.12,6.12,0,0,1,1-4.94C5.69,19.19,7.37,18.37,8.27,16.26Z"/><path class="cls-2" d="M62.64,47.27a10.52,10.52,0,0,1,4.45-1.37l-4.92-3a16.06,16.06,0,0,1,5.52-1.49,12.35,12.35,0,0,0-5.14-2.75,8.3,8.3,0,0,1,4.67-2,10,10,0,0,0-5-2.42,13,13,0,0,1,3.36-3.54,15.14,15.14,0,0,0-4.84-2.11L61.93,26a.62.62,0,0,0,.09-.42c-.05-.25-.37-.34-.63-.38L59,24.82l2.1-2.42a21.25,21.25,0,0,1-3.89-1.1,10.69,10.69,0,0,1,1.24-4.08,12,12,0,0,0-4.17.26,4.45,4.45,0,0,1,.54-3.13l-3.33,1.21a5.73,5.73,0,0,1-1.3-2.94,4.92,4.92,0,0,1-3.59,1.79,9.39,9.39,0,0,0-2.62-4.27,14.12,14.12,0,0,0-5,2.11L36.49,9a7.92,7.92,0,0,1-1.58,3.06c0-.31,0-.61,0-.92A2.34,2.34,0,0,1,32,9.6l-3.45,4.13-4.75-2.28c0,1.21-.07,2.42-.1,3.63a6.74,6.74,0,0,0-4.94-1.22c-.13,1.4-.27,2.8-.4,4.19l-4.14.2a3,3,0,0,1-3.1,5.16c.9,1.1,1.79,2.78.8,3.8a3.7,3.7,0,0,1-1.23.68A7.73,7.73,0,0,0,8.2,29.58a1.05,1.05,0,0,0-.37.68c0,.57.75.75,1.25,1a1.77,1.77,0,0,1-.18,3,2.34,2.34,0,0,1,1.37,1,17.24,17.24,0,0,0-3.29,4l3.19.44L8.34,42.4a1.56,1.56,0,0,1,2.11,1.1,3.77,3.77,0,0,1-.55,2.65,7.6,7.6,0,0,0-1.07,2.53,5.61,5.61,0,0,1,4,.43,5.15,5.15,0,0,0-1.07,2.14l2.3.58-1.08,2.34a3.54,3.54,0,0,0,2,.54,28.75,28.75,0,0,1,.27,4.73c1.39-.18,3-.37,4.18.64.64.56.73,1.84,1.43,2.25,1,.59,2.18-.47,3.27.43.24.19,1.58,2.68,1.27,2.77l2.93-.87,1.16,1.75,2.08-2a11.71,11.71,0,0,1,2.38,4l1.61-2.31,2.31,2a13.64,13.64,0,0,0,2-4.47,7.38,7.38,0,0,1,2.45,3A11.9,11.9,0,0,1,44,63.08a58,58,0,0,1,5.48,4.79,11.61,11.61,0,0,1,.3-6.4,30.3,30.3,0,0,1,4.51,4.26,10.25,10.25,0,0,0-2-6.45l3.53,1a6.62,6.62,0,0,0-1.58-3.8,11,11,0,0,0,5.08,1.2,22,22,0,0,0-2.49-4.34A7.68,7.68,0,0,1,61,54c-.5-1.12-1-2.23-1.51-3.34L62.7,50a6.43,6.43,0,0,1-.85-1.59C61.81,47.59,61.9,47.77,62.64,47.27Z"/><path class="cls-3" d="M21.87,19.68c.15.16.44,0,.33-.21a15.27,15.27,0,0,0-1.12-1.75c-.21-.28-.61.07-.41.35A13.46,13.46,0,0,0,21.87,19.68Zm1.14,0a.2.2,0,0,0,.33-.21,13.94,13.94,0,0,0-.81-1.41c-.16-.26-.58-.07-.43.2A13.16,13.16,0,0,0,23,19.67ZM25,18.07c.2.17.42-.1.35-.29a4.12,4.12,0,0,0-.56-.92c-.18-.25-.62,0-.46.29A4.1,4.1,0,0,0,25,18.07Zm1.19-1.63a5.92,5.92,0,0,0-.27-.91c-.1-.29-.53-.08-.44.21a5.21,5.21,0,0,0,.31.83A.21.21,0,0,0,26.15,16.44ZM20.82,22c.23.11.36-.2.25-.36a8.93,8.93,0,0,0-1.95-1.78c-.24-.18-.59.18-.37.4A8.59,8.59,0,0,0,20.82,22Zm-1.39.28a.25.25,0,0,0,.28-.4A4.85,4.85,0,0,0,18.57,21c-.31-.22-.63.25-.34.48A4.65,4.65,0,0,0,19.43,22.29Zm.07,1.9c.2,0,.32-.27.14-.37a9.79,9.79,0,0,0-2-.78.26.26,0,0,0-.19.49A9.85,9.85,0,0,0,19.5,24.19Zm-1.71,2.09c.21,0,.39-.31.16-.43a9.24,9.24,0,0,0-2.27-.65c-.34-.09-.54.42-.19.52A9.78,9.78,0,0,0,17.79,26.28Zm-4.38,2.49a2.76,2.76,0,0,1,1.58.15.2.2,0,0,0,.18-.35,2.1,2.1,0,0,0-1.85-.29C13,28.36,13.09,28.85,13.41,28.77Zm-.57,1.41a8.58,8.58,0,0,1,1.89.24.23.23,0,0,0,.15-.42,2.83,2.83,0,0,0-2.13-.36C12.39,29.68,12.5,30.21,12.84,30.18ZM12,33.24a6.2,6.2,0,0,0,1.73-.37.23.23,0,0,0-.08-.44,5.88,5.88,0,0,0-1.75.25A.28.28,0,0,0,12,33.24Zm.33,3.12a4.24,4.24,0,0,0-1.18-.08c-.43,0-.5.66-.06.67a4.31,4.31,0,0,0,1.19-.08C12.51,36.81,12.61,36.44,12.33,36.36Zm2.58,3a.24.24,0,0,0-.14-.42,3.42,3.42,0,0,0-1.24.3l-1.42.5c-.31.12-.15.65.17.56s.9-.28,1.35-.42A3.79,3.79,0,0,0,14.91,39.31Zm-.18.79a8.54,8.54,0,0,0-1.71.42c-.28.08-.22.52.08.46a9.75,9.75,0,0,0,1.76-.48C15.09,40.4,15,40.08,14.73,40.1Zm-.33,2.79a17.48,17.48,0,0,0-1.7.79.25.25,0,0,0,.21.45c.56-.28,1.13-.55,1.66-.88A.2.2,0,0,0,14.4,42.89Zm3.37,5.36c.16-.19-.09-.47-.3-.36A9.42,9.42,0,0,0,16,49a.28.28,0,0,0,.36.43A9.51,9.51,0,0,0,17.77,48.25Zm.63,1.51a2.84,2.84,0,0,0-1.86.92c-.25.25.1.67.37.42a5.31,5.31,0,0,1,1.57-.89C18.68,50.12,18.64,49.76,18.4,49.76Zm-1.1,1.78c-.21.31.27.64.47.33A5.76,5.76,0,0,1,19.1,50.5a.22.22,0,0,0-.24-.37A3.55,3.55,0,0,0,17.3,51.54Zm2.73.82c.1-.19-.17-.44-.36-.33a6.44,6.44,0,0,0-1.2,1.19c-.41.45-.81.91-1.21,1.36-.23.26.21.67.45.41L19,53.62A6.24,6.24,0,0,0,20,52.36Zm-1.2,2.76a4.32,4.32,0,0,0-.91.85c-.24.26.1.68.36.42a4.07,4.07,0,0,0,.84-.92C19.22,55.29,19.06,55,18.83,55.12Zm2.47-1.07a13.18,13.18,0,0,0-1.48,1.68c-.23.27.22.59.45.32a14,14,0,0,0,1.36-1.71C21.75,54.13,21.5,53.87,21.3,54.05Zm3.1,3.28c.1-.2-.2-.38-.35-.25-1,.87-1.79,1.93-2.76,2.82a.29.29,0,0,0,.38.44A11,11,0,0,0,24.4,57.33Zm-.52,1.45a7,7,0,0,0-1.48,1.39c-.25.26.1.7.37.44a7.38,7.38,0,0,0,1.41-1.49C24.28,58.94,24.11,58.65,23.88,58.78Zm1.38.53a8.43,8.43,0,0,0-1.45,1.15c-.27.23.08.63.35.42a9.08,9.08,0,0,0,1.4-1.22A.24.24,0,0,0,25.26,59.31Zm2.61-1.55a7.2,7.2,0,0,0-.78,2.33.27.27,0,0,0,.48.17A7.31,7.31,0,0,0,28.45,58,.31.31,0,0,0,27.87,57.76Zm1.16.85a15.31,15.31,0,0,0-.55,2.59.22.22,0,0,0,.43.09,15,15,0,0,0,.64-2.56C29.62,58.43,29.1,58.31,29,58.61Zm.54,1.75a5.62,5.62,0,0,0-.22,1.47c0,.25.36.22.45,0a6.08,6.08,0,0,0,.34-1.46C30.22,60.05,29.64,60,29.57,60.36Zm2-2a13.72,13.72,0,0,1-.47,2.77.22.22,0,0,0,.39.2,4.12,4.12,0,0,0,.58-3C32,58.11,31.56,58.11,31.56,58.4Zm2.13.86c-.35-.27-.7.27-.38.55s.16.39.19.61a.26.26,0,0,0,.46.11A.88.88,0,0,0,33.69,59.26Zm.1,2.29A7.79,7.79,0,0,0,34,63.82c.09.22.37.11.41-.07a8.05,8.05,0,0,0-.14-2.29C34.26,61.13,33.77,61.23,33.79,61.55Zm.83-2A14.2,14.2,0,0,0,35,62.43c.07.2.39.12.41-.07a13.69,13.69,0,0,0-.33-2.85C35.07,59.19,34.58,59.28,34.62,59.59Zm1.17.55a13.45,13.45,0,0,0,.31,1.4.19.19,0,0,0,.38-.07c0-.47-.16-.94-.25-1.4C36.17,59.79,35.73,59.86,35.79,60.14Zm1.36-.27a17.63,17.63,0,0,0,1.08,3.44.24.24,0,0,0,.45-.14,17.83,17.83,0,0,0-1-3.46C37.56,59.43,37.07,59.59,37.15,59.87Zm.79-.18A10.6,10.6,0,0,0,39,61.89a.21.21,0,0,0,.37-.17,10.55,10.55,0,0,0-1-2.25A.26.26,0,0,0,37.94,59.69Zm3.86-2.27c-.19-.28-.58.06-.4.34a5.31,5.31,0,0,0,.6.81.22.22,0,0,0,.36-.23A5.8,5.8,0,0,0,41.8,57.42ZM42.56,60a4.41,4.41,0,0,1,.53,1.58.21.21,0,0,0,.42,0,2.42,2.42,0,0,0-.65-1.82C42.7,59.51,42.42,59.76,42.56,60Zm.25-1.09a9,9,0,0,1,1.43,2.72c.09.23.43.1.4-.13a5.63,5.63,0,0,0-1.47-2.9A.24.24,0,0,0,42.81,58.87Zm1.22-2c-.18-.26-.55.06-.38.32a12.59,12.59,0,0,0,1.15,1.66.21.21,0,0,0,.35-.23A11.82,11.82,0,0,0,44,56.87Zm1.87,3.32a12.06,12.06,0,0,0,.89,1.71c.14.21.4,0,.33-.21A13.17,13.17,0,0,0,46.3,60,.22.22,0,0,0,45.9,60.19ZM46.73,58c-.23-.16-.49.2-.25.36a4.47,4.47,0,0,1,1.72,2.35c.08.21.39.09.36-.11A3.89,3.89,0,0,0,46.73,58Zm2,.61a.19.19,0,1,0-.32.21l.57.83c.11.16.39,0,.29-.19ZM29.17,18.1a.18.18,0,0,0,.33.13,4.42,4.42,0,0,0-.11-3.2c-.09-.23-.43-.07-.34.16A4.75,4.75,0,0,1,29.17,18.1Zm1.23-4.22c.26,0,.3-.4,0-.4S30.13,13.88,30.4,13.88Zm-.24,1.8a13.66,13.66,0,0,0,.32,1.67.19.19,0,0,0,.38-.06c-.05-.57-.17-1.13-.27-1.68A.22.22,0,0,0,30.16,15.68Zm2.13.76A10.16,10.16,0,0,1,32.06,14a.24.24,0,0,0-.48,0,5.24,5.24,0,0,0,.32,2.63A.21.21,0,0,0,32.29,16.44Zm1.1.89c.06-1.11,0-2.24,0-3.35,0-.25-.38-.29-.38,0,0,1.13,0,2.27,0,3.41C33,17.55,33.38,17.53,33.39,17.33Zm4-3.35a3.43,3.43,0,0,0,0-.56c0-.34-.53-.39-.53-.05a4.34,4.34,0,0,0,0,.63A.22.22,0,0,0,37.35,14Zm-.48,1.35A8.76,8.76,0,0,0,36.61,17c0,.22.31.32.39.09a9.21,9.21,0,0,0,.35-1.72C37.4,15.07,36.92,15,36.87,15.33Zm1.53,1.21a12.86,12.86,0,0,0,.6-2.29.25.25,0,0,0-.48-.11,13.2,13.2,0,0,0-.53,2.3A.21.21,0,0,0,38.4,16.54Zm1.47,0a4.5,4.5,0,0,0,.27-2.64.23.23,0,0,0-.46.08,6.87,6.87,0,0,1-.2,2.47C39.43,16.71,39.78,16.75,39.87,16.56ZM41.8,16a4.82,4.82,0,0,0,.31-1.17.23.23,0,0,0-.44-.1,4.71,4.71,0,0,0-.27,1.18A.21.21,0,0,0,41.8,16ZM41,17.21a12.92,12.92,0,0,0-.5,2,.21.21,0,0,0,.41.09,11.8,11.8,0,0,0,.57-1.95C41.59,17.08,41.12,16.89,41,17.21Zm1.56,1.67a2.91,2.91,0,0,0,1.15-1.5c.06-.19-.22-.36-.33-.17a3.55,3.55,0,0,1-1.13,1.3C42,18.69,42.34,19.06,42.59,18.88Zm2.53.86a1.64,1.64,0,0,0,.29-.35c.15-.2-.12-.41-.31-.28a1.42,1.42,0,0,0-.3.25C44.56,19.58,44.9,20,45.12,19.74Zm1.49-1.28a1.08,1.08,0,0,1,.42-.74c.18-.14,0-.46-.22-.34a1.34,1.34,0,0,0-.67,1C46.09,18.71,46.57,18.76,46.61,18.46Zm13,2.1a20.15,20.15,0,0,0,2.83-2.19c.16-.17,0-.5-.24-.37a19.94,19.94,0,0,0-2.9,2.2C59.11,20.4,59.41,20.74,59.65,20.56Zm0-1.63a2.36,2.36,0,0,0,.59-.35.23.23,0,0,0-.19-.4,2.53,2.53,0,0,0-.64.26A.27.27,0,0,0,59.61,18.93Zm1.16-1.44a9.35,9.35,0,0,0,1.1-.87c.16-.16,0-.48-.23-.36a11.2,11.2,0,0,0-1.2.84C60.18,17.3,60.51,17.68,60.77,17.49ZM59.7,14.07a3.18,3.18,0,0,0-1.5,1.78c-.1.24.29.38.38.14a3.36,3.36,0,0,1,1.32-1.61C60.07,14.25,59.89,14,59.7,14.07ZM56,16.34c.38-.4.75-.79,1.11-1.2.14-.15-.11-.38-.26-.24-.38.37-.74.75-1.11,1.13C55.55,16.21,55.81,16.52,56,16.34Zm1-2.53a1.12,1.12,0,0,0-1,1.25c0,.23.36.27.36,0a1,1,0,0,1,.77-.91C57.31,14.12,57.17,13.78,57,13.81Zm-2.32-.49A5.77,5.77,0,0,0,56.06,11c0-.22-.23-.42-.38-.2s-.43.77-.66,1.14-.5.73-.75,1.09S54.44,13.53,54.64,13.32Zm0-3.1c-.77,1-1.37,2.15-2.14,3.18l-.11.08c-.25.23.1.63.33.39a1.87,1.87,0,0,0,.28-.35.17.17,0,0,0,0-.18,12.67,12.67,0,0,0,2-2.94A.19.19,0,0,0,54.6,10.22Zm-1.87.34a19.38,19.38,0,0,0-1.51,2.16.22.22,0,0,0,.36.25,22.32,22.32,0,0,0,1.49-2.24C53.17,10.52,52.86,10.41,52.73,10.56Zm-.89-.45c.08-.19-.21-.36-.32-.17-.22.37-.4.77-.59,1.15s.26.37.37.14S51.68,10.49,51.84,10.11Zm-3,3.09a10.11,10.11,0,0,1,1.35-2.76c.12-.18-.13-.45-.3-.27A6.34,6.34,0,0,0,48.37,13C48.3,13.32,48.73,13.49,48.81,13.2Zm-1.47-1a4.3,4.3,0,0,0-.34.59c-.13.27.31.43.44.16a2.24,2.24,0,0,0,.25-.57A.2.2,0,0,0,47.34,12.18ZM49,8.25a22,22,0,0,0-1.16,2.84.25.25,0,0,0,.46.17,21.75,21.75,0,0,0,1.06-2.82C49.41,8.23,49.12,8,49,8.25Zm-2.8.05a11.08,11.08,0,0,1-.88,1.88.23.23,0,0,0,.38.27,3.71,3.71,0,0,0,.91-2.06A.21.21,0,0,0,46.2,8.3Zm-1.4,1c.08.26.48.08.39-.18a1,1,0,0,1,.18-.93c.12-.16-.12-.39-.27-.24A1.22,1.22,0,0,0,44.8,9.28ZM37,6.67c0,.18-.08.22-.1.36a3.69,3.69,0,0,0,0,.47,3.39,3.39,0,0,0,.07.9c0,.18.33.25.39,0a3.32,3.32,0,0,0,.08-.89c0-.15,0-.32,0-.47a2.66,2.66,0,0,1-.1-.38C37.29,6.49,37,6.45,37,6.67Zm1.52-.58c0-.27-.45-.24-.46,0a2.14,2.14,0,0,0,0,.62.21.21,0,0,0,.42,0A2.59,2.59,0,0,0,38.48,6.09Zm-.42,2.26a16.45,16.45,0,0,0,0,1.72c0,.2.32.18.34,0,0-.55,0-1.12,0-1.68C38.44,8.14,38.06,8.1,38.06,8.35Zm1.69-2.24c-.12,1.48-.3,3-.33,4.47a.19.19,0,0,0,.37,0c.2-1.48.25-3,.36-4.47A.2.2,0,0,0,39.75,6.11Zm1.79,1.16a6,6,0,0,0,0-1.12c0-.33-.51-.39-.52-.05a6.62,6.62,0,0,0,0,1.18A.22.22,0,0,0,41.54,7.27ZM41,10.62A4.64,4.64,0,0,1,41.27,9c.12-.28-.32-.43-.44-.17a2.62,2.62,0,0,0-.26,1.8C40.63,10.84,41,10.86,41,10.62Zm1.05-1a2.13,2.13,0,0,0,.36-1.88c0-.24-.44-.24-.44,0,0,.59-.24,1.11-.3,1.67A.23.23,0,0,0,42,9.65ZM43.1,8c-.08.19-.17.38-.26.57s.24.37.35.18l.3-.54A.22.22,0,1,0,43.1,8Zm-19,1.48a6.18,6.18,0,0,0,.54,1.74.2.2,0,0,0,.38-.12,6.3,6.3,0,0,0-.55-1.74A.2.2,0,0,0,24.12,9.5Zm.51-2.23a4.76,4.76,0,0,0,.33.89.22.22,0,0,0,.16.11l.08.18c.1.18.45.11.38-.12s-.2-.52-.3-.78-.1-.29-.16-.44l-.05-.05-.33-.75a.22.22,0,0,0-.39.19l.29.71S24.62,7.25,24.63,7.27Zm.83,2.31a5.41,5.41,0,0,1,.59,1.89c0,.21.37.2.37,0a3.84,3.84,0,0,0-.58-2.06C25.71,9.16,25.33,9.34,25.46,9.58Zm2.37,2.66c-.25-1.51-.7-3-1.09-4.48-.06-.24-.44-.18-.38.07.35,1.5.65,3,1.14,4.52C27.56,12.54,27.86,12.43,27.83,12.24ZM28.43,8a9.32,9.32,0,0,0-.27-.9c-.09-.27-.49-.08-.4.19s.19.55.31.83A.19.19,0,0,0,28.43,8Zm.95.32c0,.76,0,1.53,0,2.28a.19.19,0,0,0,.37,0c.06-.74,0-1.5,0-2.24C29.77,8.13,29.38,8.09,29.38,8.35ZM30.9,9.78a24.19,24.19,0,0,0,0-3.07c0-.28-.42-.33-.43,0a25.15,25.15,0,0,0,0,3.13C30.51,10,30.88,10,30.9,9.78Zm1.38-4a1.36,1.36,0,0,1-.19-1c.06-.3-.44-.41-.51-.12A1.33,1.33,0,0,0,31.93,6C32.08,6.14,32.41,6,32.28,5.76ZM32,7.27a16.49,16.49,0,0,0,.47,2.81c0,.19.38.22.38,0a17.43,17.43,0,0,0-.42-2.87A.22.22,0,0,0,32,7.27Zm1.69,2.48A8,8,0,0,1,33.46,7c0-.29-.4-.32-.45,0a5.83,5.83,0,0,0,.21,2.93C33.31,10.12,33.69,10,33.64,9.75ZM33.82,5a5.27,5.27,0,0,0,0,.89.21.21,0,0,0,.42,0,4.72,4.72,0,0,0,0-.84C34.28,4.73,33.82,4.68,33.82,5Zm1,5.35a14,14,0,0,0,0-2.51c0-.3-.45-.34-.46,0a13.88,13.88,0,0,0,0,2.58A.22.22,0,0,0,34.83,10.34Zm.4-2.28c0,.39,0,.78,0,1.18,0,.21.36.19.37,0l0-1.11C35.68,7.81,35.22,7.78,35.23,8.06ZM23.09,11.12a4,4,0,0,0-1.52-2.35c-.2-.16-.42.16-.23.32a5.17,5.17,0,0,1,1.41,2.13A.18.18,0,0,0,23.09,11.12Zm-2.3-.63c.19.14.4-.12.27-.3A9,9,0,0,0,20,9.05c-.22-.22-.59.08-.37.31A10.6,10.6,0,0,0,20.79,10.49Zm.73.51c-.25-.11-.39.28-.15.4a2.1,2.1,0,0,1,1,1.47c.07.21.4.25.42,0A2.07,2.07,0,0,0,21.52,11Zm-2.44-.31c-.24-.17-.5.2-.26.38A8.16,8.16,0,0,1,20.48,13c.14.19.39,0,.33-.22A4.5,4.5,0,0,0,19.08,10.69ZM16.32,11a21.77,21.77,0,0,0,2.29,1.9c.18.11.41-.12.26-.29a20.57,20.57,0,0,0-2.28-2C16.35,10.47,16.1,10.85,16.32,11ZM18,14.44a5.06,5.06,0,0,0-2.06-1.8c-.24-.13-.39.28-.15.41a6.33,6.33,0,0,1,1.91,1.58C17.83,14.78,18.11,14.61,18,14.44Zm-2.81-.63a6.61,6.61,0,0,0-.83-.65.24.24,0,0,0-.27.39,5.78,5.78,0,0,0,.84.55C15.11,14.2,15.37,14,15.19,13.81Zm2.22,2.85c.15.1.41-.07.29-.25A11,11,0,0,0,16,14.66c-.19-.18-.51.08-.32.28A10.64,10.64,0,0,0,17.41,16.66Zm-1.58.54c.2.09.36-.18.23-.34A5.17,5.17,0,0,0,15,16c-.39-.31-.8-.6-1.2-.89-.25-.18-.51.2-.28.39l1.17.94A5.71,5.71,0,0,0,15.83,17.2Zm-1.74.27c.18.1.45-.12.27-.3a8.36,8.36,0,0,0-1.14-.9.23.23,0,0,0-.26.37A7.63,7.63,0,0,0,14.09,17.47Zm-1.95,1.44a1.24,1.24,0,0,0-1.35-.73.25.25,0,0,0,0,.49,1.35,1.35,0,0,1,1,.47.21.21,0,0,0,.27,0,.19.19,0,0,0,.07.26,14.67,14.67,0,0,0,1.72.88c.24.09.44-.26.21-.4a13.27,13.27,0,0,0-1.73-.86.17.17,0,0,0-.21.06A.2.2,0,0,0,12.14,18.91ZM9.37,20.77a1.38,1.38,0,0,1,.68.56.23.23,0,0,0,.43-.13,1,1,0,0,0-1-.91A.25.25,0,0,0,9.37,20.77Zm1.39.85c-.28.09-.08.49.19.4a1.06,1.06,0,0,1,.91.19.21.21,0,0,0,.28-.3A1.21,1.21,0,0,0,10.76,21.62Zm-4.21-.14a.24.24,0,0,0,.22-.43,6.28,6.28,0,0,0-1.72-.9c-.3-.12-.56.34-.27.51A6.48,6.48,0,0,0,6.55,21.48ZM4.6,23.12c1.77.45,3.55,1.22,5.35,1.5.21,0,.34-.3.14-.4a19.51,19.51,0,0,0-5.38-1.58C4.44,22.58,4.33,23.05,4.6,23.12ZM3.71,24.5c.19.11.48-.07.35-.3a1.3,1.3,0,0,0-.33-.41c-.24-.21-.6.19-.38.42A1.12,1.12,0,0,0,3.71,24.5ZM5.8,25c1.85.38,3.71.91,5.59,1.13.23,0,.33-.34.09-.41C9.65,25.2,7.71,25,5.83,24.61,5.59,24.56,5.56,25,5.8,25ZM3.2,27.59a4.62,4.62,0,0,0,1.47.24.24.24,0,0,0,.11-.46,4.55,4.55,0,0,0-1.46-.32A.28.28,0,0,0,3.2,27.59ZM4.94,29a14.83,14.83,0,0,0,2.58,0,.21.21,0,0,0,0-.42,15,15,0,0,0-2.51,0C4.67,28.53,4.61,29,4.94,29ZM2.48,30.39c.19,0,.27-.36,0-.41a6.66,6.66,0,0,0-1.73-.05c-.31,0-.37.49,0,.5A6.66,6.66,0,0,0,2.48,30.39Zm6.14,1a26.64,26.64,0,0,0-4.19,0c-.28,0-.33.43,0,.44a27.53,27.53,0,0,0,4.26,0C8.89,31.75,8.85,31.4,8.62,31.36ZM4.15,32.48a9.18,9.18,0,0,0-2,0c-.32,0-.38.5,0,.51a9.08,9.08,0,0,0,2,0A.22.22,0,0,0,4.15,32.48Zm2,0c-.32,0-.37.49-.05.49a13,13,0,0,0,2.86,0,.22.22,0,0,0,0-.44A13,13,0,0,0,6.11,32.45ZM1.66,36.62a8.75,8.75,0,0,0,2.27-.42.22.22,0,0,0-.07-.42,8.94,8.94,0,0,0-2.3.28A.28.28,0,0,0,1.66,36.62Zm2.26,2.31a3.38,3.38,0,0,0-2.44.2c-.35.14-.1.65.24.52a6.23,6.23,0,0,1,2.1-.28C4.06,39.36,4.18,39,3.92,38.93Zm2.87-.16a.2.2,0,0,0-.16-.36,4.17,4.17,0,0,1-1.92.19c-.3-.06-.33.4,0,.46A2.66,2.66,0,0,0,6.79,38.77ZM3.55,42.05a7.64,7.64,0,0,0-1.48.52c-.34.15-.09.66.25.52a7.71,7.71,0,0,0,1.36-.65C3.86,42.33,3.8,42,3.55,42.05Zm4.9-1.24c.19-.12.12-.45-.13-.4a19.81,19.81,0,0,0-3.47,1.28c-.29.12-.08.55.21.44A18.33,18.33,0,0,0,8.45,40.81Zm-3.74,4a7.36,7.36,0,0,0-1.46.27.25.25,0,0,0,.09.49,6.64,6.64,0,0,0,1.45-.34A.22.22,0,0,0,4.71,44.82Zm-.82,3.51A7.74,7.74,0,0,0,5,48c.23-.09.11-.42-.12-.39a6.29,6.29,0,0,0-1.13.23C3.46,47.89,3.54,48.42,3.89,48.33Zm4.53-1.56a.21.21,0,0,0-.17-.37,12.32,12.32,0,0,0-2,.89.25.25,0,0,0,.22.45A12.65,12.65,0,0,0,8.42,46.77ZM4.36,51.21a6.06,6.06,0,0,0-1.48.52c-.36.16-.1.66.25.54a5.93,5.93,0,0,0,1.42-.66C4.75,51.48,4.57,51.17,4.36,51.21Zm6.94-2.5a35.56,35.56,0,0,0-4.75,2.54c-.27.15-.06.58.21.43a34.24,34.24,0,0,0,4.75-2.63C11.71,48.9,11.5,48.64,11.3,48.71ZM7.63,52.57a5.57,5.57,0,0,0-1.14.52.3.3,0,0,0,.26.54,6.13,6.13,0,0,0,1.12-.69C8.08,52.77,7.85,52.5,7.63,52.57Zm3.69-2.43a5.41,5.41,0,0,0-1.11.78L9,51.84c-.24.19.07.55.31.36.41-.29.81-.59,1.21-.89a5.73,5.73,0,0,0,1-.86C11.71,50.28,11.5,50.07,11.32,50.14Zm-1.91,6.4a2.72,2.72,0,0,0-.93.24c-.34.14-.16.73.19.62A3,3,0,0,0,9.61,57C9.83,56.81,9.62,56.52,9.41,56.54Zm.21,1.82A27.15,27.15,0,0,0,13,55.24c.15-.19-.12-.38-.29-.26a25.66,25.66,0,0,0-3.39,3C9.12,58.22,9.4,58.55,9.62,58.36Zm.23,1.58a9,9,0,0,0-.92,1.12.26.26,0,0,0,.43.3,7.5,7.5,0,0,0,.78-1.15C10.24,60,10,59.77,9.85,59.94ZM11,61.69a49.08,49.08,0,0,0,3.6-4,.2.2,0,0,0-.3-.27,49.17,49.17,0,0,0-3.66,4C10.44,61.56,10.8,61.89,11,61.69ZM9,65a7.29,7.29,0,0,0-.92,1.14c-.22.29.24.61.46.32a6.89,6.89,0,0,0,.82-1.2C9.48,65,9.18,64.83,9,65Zm3.69-3.32c.12-.18-.12-.41-.28-.26-.64.59-1.2,1.29-1.78,1.94-.19.21.18.46.36.25C11.58,63,12.2,62.33,12.71,61.65Zm.52,1.64c.15-.16-.12-.39-.28-.25-.69.6-1.32,1.28-2,1.94-.19.19.08.52.28.32C11.92,64.64,12.61,64,13.23,63.29Zm.8-1.08,1.08-1.16A6.14,6.14,0,0,0,16.06,60a.21.21,0,0,0-.31-.28,5.86,5.86,0,0,0-1,1l-1.06,1.17C13.5,62.09,13.84,62.4,14,62.21Zm-1.91,3.92c-.29.27-.56.55-.84.83s.07.44.23.28.57-.56.84-.85S12.29,66,12.12,66.13Zm1.64.86A12.39,12.39,0,0,1,12,69.09a.28.28,0,0,0,.36.43,4.37,4.37,0,0,0,1.75-2.33A.22.22,0,0,0,13.76,67Zm1.73-1.16c1.09-1.88,2.46-3.5,3.69-5.28.14-.2-.14-.47-.33-.29a23,23,0,0,0-3.76,5.29C14.94,65.82,15.33,66.1,15.49,65.83Zm.77,3.6a11.54,11.54,0,0,0-1.17,1.15c-.19.21.17.54.37.34a10.54,10.54,0,0,0,1.09-1.23C16.69,69.51,16.44,69.29,16.26,69.43ZM22,63c-1.85,2.62-3.38,5.53-5.05,8.27-.12.21.19.43.32.22C19,68.73,20.86,66,22.36,63.17,22.46,63,22.13,62.81,22,63Zm-2.38,6.85a2.52,2.52,0,0,1-.82,1c-.21.16.05.47.26.31A2.32,2.32,0,0,0,20,70,.18.18,0,0,0,19.63,69.84Zm2.25-4c-.39.64-.76,1.29-1.13,2-.13.21.19.44.32.22.38-.67.76-1.33,1.12-2C22.28,65.87,22,65.71,21.88,65.88Zm-1.17,4.44a11.05,11.05,0,0,0-1.15,1.93c-.16.29.24.59.42.3a10.88,10.88,0,0,0,1.12-2A.22.22,0,0,0,20.71,70.32Zm1.15.86A15.07,15.07,0,0,0,21,72.55c-.15.27.23.55.39.28.3-.48.59-1,.84-1.46C22.32,71.15,22,71,21.86,71.18Zm4.27-5.41c.09-.24-.26-.35-.37-.14-1.24,2.45-2.29,5-3.41,7.54-.12.27.32.43.44.16C23.92,70.82,25.13,68.33,26.13,65.77Zm-1.34,5.56a.21.21,0,0,0-.38-.14,4,4,0,0,0-.36.86.25.25,0,0,0,.47.18A3.59,3.59,0,0,0,24.79,71.33Zm2.61-4a45.89,45.89,0,0,0-1.78,6.18c0,.23.3.28.38.08a47.24,47.24,0,0,0,1.75-6.13C27.81,67.2,27.47,67.06,27.4,67.3ZM29.6,69a33.88,33.88,0,0,1-.73,4.49c0,.2.29.27.35.08A19.28,19.28,0,0,0,30,69.07C30,68.82,29.62,68.78,29.6,69Zm1.49-2.23c-.27,2.06-.57,4.11-.8,6.16a.18.18,0,0,0,.35,0c.31-2,.54-4.1.8-6.15A.18.18,0,0,0,31.09,66.8Zm1.17,2.81a35.27,35.27,0,0,0-.66,7.87c0,.22.36.2.37,0a70.81,70.81,0,0,1,.71-7.81C32.72,69.39,32.31,69.35,32.26,69.61Zm2.85-1.09a6,6,0,0,0,0-1.12c0-.31-.49-.37-.5-.05a6.62,6.62,0,0,0,0,1.18A.22.22,0,0,0,35.11,68.52Zm-.48,1.7c.11,1.58.16,3.17.4,4.74,0,.2.37.2.37,0,0-1.6-.19-3.2-.32-4.8C35.06,69.84,34.61,69.92,34.63,70.22Zm3.13,2.6a.16.16,0,0,0,.06-.15c-.06-.38-.16-.75-.25-1.12s-.5-.19-.43.07a10.39,10.39,0,0,0,.33,1.16s0,0,.05.06a.18.18,0,0,0-.08.17,15.24,15.24,0,0,0,.28,2.24c.06.21.41.23.41,0a14.8,14.8,0,0,0-.3-2.29A.15.15,0,0,0,37.76,72.82Zm3.52.39a41.48,41.48,0,0,0-1.08-5c-.06-.25-.45-.19-.4.07a41.89,41.89,0,0,0,1.09,5.09C41,73.57,41.31,73.43,41.28,73.21Zm3-1a11.69,11.69,0,0,0-1.16-4.57c-.1-.23-.45-.06-.35.17a18.71,18.71,0,0,1,1.08,4.41C43.91,72.41,44.31,72.41,44.3,72.16Zm.2-6.93a4.91,4.91,0,0,0,.33.59c.14.2.41,0,.34-.22a5.79,5.79,0,0,0-.25-.57C44.79,64.76,44.36,65,44.5,65.23ZM47.59,73a29.69,29.69,0,0,0-2-5.36c-.1-.22-.44-.06-.34.17.75,1.74,1.26,3.54,2,5.3A.19.19,0,0,0,47.59,73Zm-1.1-6.07c.46,1.12.9,2.25,1.39,3.36a.18.18,0,0,0,.32-.15c-.43-1.14-.91-2.25-1.37-3.37C46.74,66.5,46.4,66.67,46.49,66.89Zm6.44,1.77a18.27,18.27,0,0,1-2.47-4.17c-.1-.22-.43-.06-.34.17a13,13,0,0,0,2.55,4.22A.17.17,0,0,0,52.93,68.66Zm-.83-4.49c-.18-.17-.48.07-.29.26a8.63,8.63,0,0,1,1.67,2.46c.1.21.39.06.32-.15A6.26,6.26,0,0,0,52.1,64.17ZM55.53,69a9.57,9.57,0,0,0-.83-1.74.23.23,0,0,0-.42.2,9,9,0,0,0,.89,1.71C55.29,69.33,55.59,69.21,55.53,69Zm1.86-1.5c.12.16.42,0,.31-.2-.59-1-1.28-1.93-1.93-2.88-.14-.22-.46,0-.31.26C56.09,65.63,56.7,66.61,57.39,67.51Zm-3.32-6.46c.74.93,1.44,1.92,2.24,2.79a.18.18,0,0,0,.28-.23c-.67-1-1.48-1.89-2.22-2.82C54.21,60.59,53.91,60.85,54.07,61.05Zm4.77,5.41c-.34-.61-.74-1.17-1.12-1.74-.17-.24-.5,0-.35.29.37.56.73,1.13,1.14,1.66C58.65,66.84,59,66.65,58.84,66.46ZM57.75,63c-.2-.19-.52.08-.33.28,1.08,1.16,2.18,2.37,3.37,3.42.19.16.44-.13.29-.31C60.06,65.2,58.88,64.09,57.75,63Zm-.86-2.24a15.44,15.44,0,0,0,3.85,4.32c.16.11.37-.11.23-.26a36.2,36.2,0,0,1-3.78-4.32C57.05,60.29,56.75,60.55,56.89,60.76ZM56,58c-.21-.19-.55.08-.34.29a9.79,9.79,0,0,0,1.18,1.14c.18.13.38-.12.25-.29A10.66,10.66,0,0,0,56,58Zm2.26,2.21a.19.19,0,0,0-.28.25c1.16,1.33,2.3,2.73,3.58,4,.17.16.44,0,.29-.24C60.79,62.78,59.52,61.51,58.3,60.21Zm2.16,0c-.2-.17-.43.17-.24.34.66.55,1.3,1.12,2,1.64.16.12.39-.12.24-.26C61.8,61.34,61.13,60.79,60.46,60.22Zm4,.31c-.19-.19-.51.08-.32.27.38.38.75.79,1.17,1.14.17.14.38-.12.25-.28C65.18,61.26,64.79,60.9,64.42,60.53Zm-5.9-6.21c-.19-.18-.5.15-.31.34a6.57,6.57,0,0,0,.92.83.21.21,0,0,0,.28-.3A6.65,6.65,0,0,0,58.52,54.32Zm2,2.29c.73.57,1.45,1.17,2.23,1.68.19.13.37-.14.2-.29-.7-.61-1.47-1.15-2.21-1.71C60.55,56.14,60.33,56.46,60.53,56.61ZM65,59.7a18.35,18.35,0,0,0-1.39-1.4c-.18-.18-.49.07-.31.26.48.48.93,1,1.45,1.42C64.88,60.12,65.09,59.87,65,59.7Zm-.83-2.6c-.18-.15-.38.15-.2.29.72.58,1.44,1.18,2.18,1.74.18.14.37-.14.2-.28C65.6,58.25,64.86,57.68,64.13,57.1Zm-2-36.53a5.27,5.27,0,0,1,2.4-1.1c.2,0,.21-.38,0-.38a3.89,3.89,0,0,0-2.72,1.09A.26.26,0,0,0,62.17,20.57Zm3.45,1A17.77,17.77,0,0,0,63,22.66c-.31.14-.08.61.23.48a17.75,17.75,0,0,0,2.53-1.2C65.94,21.83,65.8,21.55,65.62,21.59Zm-1.27,4.3c1.46-.66,3-1.14,4.47-1.66.2-.07.09-.38-.11-.35a19.66,19.66,0,0,0-4.58,1.56C63.84,25.57,64.05,26,64.35,25.89Zm-1.19,1.38c2.25-.57,4.56-1,6.75-1.76.22-.08.1-.42-.12-.38-2.26.41-4.48,1.14-6.7,1.73C62.84,26.93,62.91,27.33,63.16,27.27Zm2.18.45c-.33,0-.24.53.08.51a7.4,7.4,0,0,0,3.46-.94c.19-.13,0-.43-.18-.39C67.56,27.12,66.5,27.58,65.34,27.72Zm-.47,1.93a60.59,60.59,0,0,0,7-1.27.23.23,0,0,0-.08-.45,60.85,60.85,0,0,0-7,1.28A.22.22,0,0,0,64.87,29.65Zm2.85.76a4.77,4.77,0,0,1,1.83-.28c.23,0,.35-.34.1-.43a2.82,2.82,0,0,0-2.16.23C67.18,30.07,67.41,30.54,67.72,30.41Zm2.81.6a.22.22,0,0,0-.13-.41c-.85.13-1.66.42-2.51.55s-1.7.15-2.55.21c-.26,0-.23.43,0,.45A10.28,10.28,0,0,0,70.53,31Zm-6,1.7c-.34,0-.39.53,0,.53a5.8,5.8,0,0,0,1.18-.05.22.22,0,0,0,0-.43A7,7,0,0,0,64.56,32.71Zm2.81.2c1.11-.11,2.26-.14,3.35-.36.19,0,.2-.37,0-.37-1.13,0-2.28.21-3.4.33C67,32.54,67.11,32.94,67.37,32.91Zm2.84,2.74c.19-.06.13-.37-.06-.38a11.6,11.6,0,0,1-2.76-.2c-.28-.08-.44.34-.15.42A4.87,4.87,0,0,0,70.21,35.65ZM71.66,37a2.89,2.89,0,0,0-2.12-.25c-.25.06-.18.46.08.4a3.37,3.37,0,0,1,1.88.16C71.68,37.34,71.84,37.07,71.66,37Zm-7.17,1.35c-.28,0-.25.47,0,.5a4.46,4.46,0,0,0,1.46,0,.21.21,0,0,0,0-.42A4.53,4.53,0,0,0,64.49,38.32Zm6.82.39a6.37,6.37,0,0,0-3.72,0c-.27.07-.2.5.08.44a9.63,9.63,0,0,1,3.55,0A.2.2,0,0,0,71.31,38.71Zm-2.82,2.34a.26.26,0,0,0,0,.52,8.65,8.65,0,0,0,2.57.3.21.21,0,0,0,0-.41,4.06,4.06,0,0,0-1.2-.24Zm-.37,1.54c1.12.27,2.24.55,3.38.74.26,0,.36-.39.1-.45-1.12-.28-2.26-.48-3.39-.68C68,42.16,67.9,42.54,68.12,42.59Zm1.53,2.13c-.88-.23-1.78-.33-2.67-.57s-1.72-.61-2.59-.87c-.23-.06-.43.25-.2.38a10.46,10.46,0,0,0,5.37,1.45C69.77,45.1,69.89,44.79,69.65,44.72Zm2,2.34a5.48,5.48,0,0,0-3.18-1,.2.2,0,0,0,0,.4,10.1,10.1,0,0,1,3,1C71.68,47.5,71.82,47.19,71.65,47.06Zm-.32,1.77a6.09,6.09,0,0,0-1.18-.64l-1.33-.62c-.28-.13-.42.3-.16.44a11.06,11.06,0,0,0,2.53,1.2C71.42,49.27,71.47,49,71.33,48.83ZM60.44,52.14a.2.2,0,0,0-.22,0c-.15-.33-.26-.67-.41-1a2.33,2.33,0,0,0,1.27-.09c.66-.2,1.43-.56,2,0a.32.32,0,0,0,.49-.21,3.37,3.37,0,0,0,.59.25.22.22,0,0,0,.2-.38,5.58,5.58,0,0,0-1-.59,3.19,3.19,0,0,0-.86-1.23,11.87,11.87,0,0,0,1.89.85c.2.06.37-.21.18-.34a17.26,17.26,0,0,0-2.53-1.21.16.16,0,0,0-.25.15l-.34-.25a2.53,2.53,0,0,0,1-.13A10.22,10.22,0,0,0,64,47.21a3.46,3.46,0,0,1,1.52-.39c-.15.16-.07.48.19.41a2.06,2.06,0,0,1,1.29.18.22.22,0,0,0,.24-.34.83.83,0,0,0-.15-.11.29.29,0,0,0,.09-.2s0,0,0-.07a.13.13,0,0,0,0-.06,2.11,2.11,0,0,0-.55-1.08,2.74,2.74,0,0,1,.89.47.23.23,0,0,0,.35-.22c-.14-.75-1.11-.95-1.72-.71-.18-.12-.37-.25-.56-.36a5.26,5.26,0,0,1-2.34-2,13.25,13.25,0,0,0,2.14.49.21.21,0,0,0,.09-.4,11.52,11.52,0,0,0-1.14-.35l.1-.14a4.43,4.43,0,0,1,2.78.18.22.22,0,0,0,.2-.38,2.59,2.59,0,0,0-.66-.34,3.29,3.29,0,0,1,.91.19.29.29,0,0,0,.32-.46,2.26,2.26,0,0,0-.23-.29.21.21,0,0,0-.1-.37,2.64,2.64,0,0,0-.28,0,7.93,7.93,0,0,0-2.49-1.1l-.21-.09c1.89.31,3.83.48,5.73.61a.25.25,0,0,0,.05-.49,57.74,57.74,0,0,0-6.15-.64.23.23,0,0,0-.24.2c-.25-.16-.49-.35-.73-.54.52-.27,1-.77,1.48-1a4,4,0,0,1,.68-.27.2.2,0,0,0,.17.12,32.78,32.78,0,0,0,4.19.29.22.22,0,0,0,0-.43,23,23,0,0,0-3.42-.3,3.23,3.23,0,0,0,.59-.29,2,2,0,0,0,.6,0c.2-.05.28-.38,0-.44a1.6,1.6,0,0,0-.23,0,.34.34,0,0,0-.31-.3,3.82,3.82,0,0,1-1.59-.57,6.45,6.45,0,0,0,1-.08.21.21,0,0,0,0-.42,7.28,7.28,0,0,0-1.47-.07.22.22,0,0,0-.19.16,5.42,5.42,0,0,0-1.6-.72l.24-.22a.2.2,0,0,0,.18.22c2.25-.08,4.53-.14,6.76-.38.23,0,.22-.4,0-.4-2.24,0-4.51.19-6.74.36a1.27,1.27,0,0,0,.1-.12c.45-.55,1.13-2.74,1.79-2.73a.41.41,0,0,0,.37-.36,2.06,2.06,0,0,0,1-.39c.16-.12,0-.42-.16-.36a3.71,3.71,0,0,1-1.58.17l-1.12-.51a7.07,7.07,0,0,1-1.17-.75,6.23,6.23,0,0,0,1.76-.44.23.23,0,0,0-.08-.43,7.78,7.78,0,0,0-2.31.43,2.94,2.94,0,0,0-.85-.38,6.29,6.29,0,0,0,.94-1.57,9.21,9.21,0,0,0,1.16-.37c.23-.09.1-.44-.13-.4a5.66,5.66,0,0,0-.8.16,6.68,6.68,0,0,0,.2-.8.3.3,0,0,0-.31-.34,16.28,16.28,0,0,0,4.44-2c.19-.14,0-.41-.21-.33-1.52.61-2.93,1.4-4.49,1.94-.2.07-.14.29,0,.37a12.76,12.76,0,0,1-2.68-.33,4.3,4.3,0,0,0,.56-.42.27.27,0,0,0,.36.23,11.26,11.26,0,0,0,1.39-.57.2.2,0,0,0-.12-.37c-.44.1-.87.25-1.3.39a4.46,4.46,0,0,0,1-1.36,32.82,32.82,0,0,1,4.36-2.07.24.24,0,0,0,.3.06,28.07,28.07,0,0,0,2.83-1.72c.19-.14,0-.43-.21-.34a27.27,27.27,0,0,0-2.81,1.66s0,0,0,.05a.19.19,0,0,0-.21-.11,12.85,12.85,0,0,0-4.36,2,.15.15,0,0,0-.09,0s-.06,0-.1,0a4,4,0,0,1-1.33-.15.18.18,0,0,0,.16,0,5.46,5.46,0,0,0,1.44-.88c.13-.13,0-.43-.18-.37a5.28,5.28,0,0,0-1.5.88.22.22,0,0,0,.07.38c-.39-.11-.78-.25-1.23-.4a3.93,3.93,0,0,0-.64-.15,1.48,1.48,0,0,0,.27-.53,14.94,14.94,0,0,0,0-1.64,5.7,5.7,0,0,1,.7-1.85,1,1,0,0,0,0-.12c.08-.21-.13-.35-.31-.29-.86.29-2.86,0-4.23.3.18-.91.25-2.27.9-2.27.38,0,.6-.61.16-.72a2.52,2.52,0,0,0-2.07.5,8.62,8.62,0,0,1-2.24,1.07c.31-1.16-.85-2.29-.74-3.49a.33.33,0,0,0-.63-.15,4.57,4.57,0,0,1-1,1.66,3.43,3.43,0,0,1-1.47.62,5.41,5.41,0,0,0-.53.19,3.27,3.27,0,0,0-.12-1.12c-.43-1.54-2.87-2.26-2.76-3.86a.33.33,0,0,0-.63-.15c-.71,1.72-2.86,1.66-4.4,2.43.18-1.44-2-1.26-2-2.61,0-.37-.57-.59-.71-.16-.28.94-.61,2.17-1.79,2.28A2.83,2.83,0,0,1,32,9.56c0-.35-.5-.26-.57,0-.39,1.73-1.5,2-2.5,2.71a18.62,18.62,0,0,0-.25-2.58c0-.29-.47-.21-.44.08a19.38,19.38,0,0,0,.33,2.51.17.17,0,0,0,.16.13,3.28,3.28,0,0,0-.75.74.21.21,0,0,0,0,.06,2.87,2.87,0,0,0-1-.78c-.88-.47-1.94-.52-2.67-1.21a1.05,1.05,0,0,0-.6-.57.26.26,0,0,0-.35.28,4.73,4.73,0,0,1,.29,1.45c0,.53-.19,1-.28,1.56q-.06.3-.09.6a3.61,3.61,0,0,0-.94-.69c-1.25-.6-2.72-.26-4-.67a.25.25,0,0,0-.25.07l-.11,0c-.23-.05-.31.28-.15.4,1.45,1.09.15,2.92,0,4.46-.37-.1-.75-.16-1.05-.21a6.8,6.8,0,0,0-2.91.05l-.15,0a.25.25,0,0,0-.21.4.86.86,0,0,1,.07.1,19,19,0,0,0-3.48-2.22c-.26-.12-.42.26-.22.43a19.05,19.05,0,0,0,3.7,2.23.14.14,0,0,0,.21-.11,6.75,6.75,0,0,1,1.32,3.56c-1.27,0-3.08.87-4,.18a.25.25,0,0,0-.41-.22l-.06.07a1.53,1.53,0,0,0-.24.31,8.8,8.8,0,0,1-1.66-.73c-.26-.2-.51.19-.28.39a2.69,2.69,0,0,0,1.76.78C10,24.13,11.37,25.22,12,26.32a2,2,0,0,0-1.42.38.27.27,0,0,0-.23-.26c-1.59-.18-3.18-.32-4.77-.47a.2.2,0,0,0,0,.39c1.55.22,3.09.43,4.64.62l-.22.18c-.24.23-.45.46-.65.69,0,0,0,0-.06-.05a18.13,18.13,0,0,0-3.13-.29.22.22,0,0,0,0,.44A20.3,20.3,0,0,0,9,28.2a3,3,0,0,1-2.07,1.2c-.19-.1-.47.11-.34.32s.08.11.11.16c-.66,0-1.33.06-2,.07-.29,0-.34.45,0,.46.87,0,1.78.09,2.67.07,1.07.73,2.57,1,2.53,2.54a4,4,0,0,1-.64.36,2.68,2.68,0,0,1-1.16.12l-.09,0a30.87,30.87,0,0,0-4.18.56c-.33.05-.24.56.1.52,1.21-.15,2.55-.2,3.78-.46a.18.18,0,0,0,.11.1,8.49,8.49,0,0,1,1.42.38,2.38,2.38,0,0,1,.41.23,2.16,2.16,0,0,0-.52.35A.19.19,0,0,0,8.91,35a20,20,0,0,0-3.43.51c-.26,0-.19.45.08.42a25.44,25.44,0,0,0,3.25-.47,3.41,3.41,0,0,0-.37.48,7,7,0,0,0-.38.72,9.22,9.22,0,0,0-3.74.6c-.24.08-.07.44.18.36a14.39,14.39,0,0,1,3.38-.56c-.5,1.09-1,2.17-2.39,2.32a.24.24,0,0,0-.19.34c-1,.25-1.94.57-2.89.82-.31.09-.23.58.08.5,1.18-.29,2.42-.52,3.58-.9,1,.22,2.28-.17,3.32-.11A12.56,12.56,0,0,1,8.07,42H8a40.67,40.67,0,0,0-4,1.4c-.26.1-.07.48.18.39.89-.31,1.82-.59,2.72-.92a.27.27,0,0,0,.13.07l2.34.27c-1,.31-2,.73-3.08,1-.28.07-.21.51.08.44A11,11,0,0,0,9.8,43.5a.23.23,0,0,0,.1-.23,3.39,3.39,0,0,1,.55.13,2.12,2.12,0,0,0-.62.86c-1.49.44-3,1.08-4.41,1.64-.29.11-.08.53.2.43,1.31-.45,2.67-.86,4-1.39-.36,1.25-.52,2.75-1.72,3.19a.18.18,0,0,0-.11.12c-1.19.42-2.35,1-3.51,1.45-.32.14-.09.61.23.49,1.19-.47,2.44-.88,3.62-1.42a.16.16,0,0,0,.14,0c.31,0,.61-.08.92-.14C8.07,49.19,7,49.83,6,50.37c-.22.11-.06.47.17.36a39,39,0,0,0,4.53-2.26s0,0,0,0l.27,0a4.31,4.31,0,0,1,1,.08,11.78,11.78,0,0,1-.26,1.65c-.1.38-.27.74-.36,1.12l-.07,0a.22.22,0,0,0,0,.42c-1.47.88-2.86,2-4.26,2.92-.23.16.06.5.29.34,1.58-1.06,3.32-2,4.79-3.25H13c-1.43,1-2.83,2.14-4.21,3.25-.24.19.06.54.3.35,1.49-1.13,3-2.28,4.41-3.48-.11.32-.27.64-.4,1s-.19.47-.28.71c0,0-.06,0-.09,0a17.5,17.5,0,0,0-2.05,1.38c-.28.2.07.6.35.41.55-.39,1.1-.77,1.61-1.2,0,0,0,.09,0,.14s.07.35.25.3a4.74,4.74,0,0,1,1.54-.14,4.78,4.78,0,0,0,.11,1,.18.18,0,0,0-.16,0,28.67,28.67,0,0,0-3.43,3,.26.26,0,0,0,.34.39,30.93,30.93,0,0,0,3.32-3.05c.26,1.25.61,2.57-.36,3.28,0,0,0,0-.06.07a1.43,1.43,0,0,1-.33.15c-.25.08-.11.53.15.45a2.05,2.05,0,0,0,.38-.16.26.26,0,0,0,.17,0c.79-.48,1.95,0,2.93.2-.59.62-1.05,1.36-1.6,2a30.59,30.59,0,0,1-2.1,2.31c-.23.22.08.59.32.38A15,15,0,0,0,17.83,60a.24.24,0,0,0,0-.12,1.31,1.31,0,0,0,.27,0,2.41,2.41,0,0,0,1.09-.21,16.33,16.33,0,0,1,.44,2.19c-.68.8-1.21,1.75-1.84,2.58S16.42,66.15,15.68,67c-.19.21.17.54.36.33a26.44,26.44,0,0,0,3.43-4.18.31.31,0,0,0,.38.13,3.8,3.8,0,0,1,.92-.36c-.56.73-1,1.55-1.53,2.31S18,66.94,17.41,67.84c-.16.24.21.51.38.26.65-.93,1.24-1.91,1.89-2.84a24,24,0,0,0,1.68-2.48c.4,0,.81,0,1.28,0a3.55,3.55,0,0,0,1.09-.17c-.51.66-.92,1.43-1.37,2.14-.18.3.27.62.46.32.42-.64.89-1.28,1.26-2l.07.09c.12.15.25.29.38.43-1.14,1.75-2,3.76-3,5.61-.12.23.2.46.32.23,1-1.8,2.13-3.59,3-5.46a1.89,1.89,0,0,1,.24.74c-.89,1.46-1.62,3-2.41,4.55-.1.21.25.39.36.19.6-1.12,1.24-2.23,1.83-3.36a.25.25,0,0,0,.44.07,2.08,2.08,0,0,0,.22-.38,2.05,2.05,0,0,1,1.3-.5c-.43,1-.75,2.1-1.13,3.13a.21.21,0,0,0,.4.14c.42-1.1.94-2.23,1.29-3.37a2.14,2.14,0,0,0,.54-.18,11.44,11.44,0,0,0-.21,1.24.2.2,0,0,0,.39.09,6.2,6.2,0,0,0,.27-1,4.63,4.63,0,0,0,.37.78c-.36,2-.81,4-1.09,5.95a.19.19,0,0,0,.36.08,24.83,24.83,0,0,0,1.14-5.44.34.34,0,0,0,.38-.09,4.61,4.61,0,0,1,.37-.4,11.24,11.24,0,0,0,0,1.16.2.2,0,0,0,.39,0,13.09,13.09,0,0,0,0-1.4.22.22,0,0,0-.06-.14c.33-.3.69-.61,1-.94.4.65.77,1.29,1.12,2-.15,0-.32,0-.33.2a4.22,4.22,0,0,0,0,1.18c.05.19.36.26.41,0a3.44,3.44,0,0,0,.06-1.06c.22.41.44.84.66,1.27,0,2.32,0,4.65,0,7,0,.26.4.31.41,0,0-2.22,0-4.44,0-6.66a.25.25,0,0,0,.22-.17,11.47,11.47,0,0,1,1.44-2.5,2.07,2.07,0,0,0,.49.49,53.23,53.23,0,0,0,1.23,9.16.18.18,0,0,0,.35-.06c-.41-2.94-.88-5.86-1.15-8.81a8.78,8.78,0,0,1,.79.49.24.24,0,0,0-.17.19,5.35,5.35,0,0,0,.29,2.91.19.19,0,0,0,.36-.11,8.24,8.24,0,0,1-.16-2.71,1.52,1.52,0,0,1,.37.59.35.35,0,0,0,.41.24c.46,2.22.91,4.44,1.31,6.68a.22.22,0,0,0,.43-.08,61.32,61.32,0,0,0-1.52-7.56,5.17,5.17,0,0,1,.79-1.83,8.47,8.47,0,0,0,.5,1.44.2.2,0,0,0,.37-.12,9.87,9.87,0,0,0-.52-1.76s0,0-.06-.06L39.6,65a11.66,11.66,0,0,0,.91,1c.58,1.8,1.15,3.6,1.75,5.39.06.17.37.07.32-.11-.51-1.61-1-3.21-1.56-4.81.3.27.6.52.89.76a.31.31,0,0,0,.46-.14c0-.07.07-.15.11-.22a.21.21,0,0,0,.41,0,3.38,3.38,0,0,0,0-.84c.13-.26.24-.53.36-.79.82,2.41,1.54,4.86,2.34,7.29.06.19.38.09.33-.11-.65-2.6-1.56-5.17-2.46-7.7.13-.35.26-.7.36-1.06a2.61,2.61,0,0,1,.9.83c.44.51,1,.91,1.44,1.41A8.59,8.59,0,0,0,48,67.34c.44,1,.88,1.94,1.34,2.89a.17.17,0,0,0,.31-.14c-.34-.82-.71-1.62-1.07-2.43a7.17,7.17,0,0,0,.8.35.29.29,0,0,0,.3-.07c.36.67.69,1.35,1,2a.17.17,0,0,0,.31-.14,18.33,18.33,0,0,0-2-4,1.42,1.42,0,0,1,.08-.65c1.06,1.71,2.11,3.45,3.26,5.1.11.17.41,0,.3-.2-1-1.84-2.23-3.61-3.38-5.4a7,7,0,0,0,.34-.84,6,6,0,0,0,.22-1.78l.12.06a.19.19,0,0,0-.09.25A39,39,0,0,0,53,67.72c.11.15.39,0,.28-.19-1.06-1.71-2.12-3.42-3-5.22a6.36,6.36,0,0,1,1.36.66c1.07.87,1.36,2.23,2.63,2.93a.31.31,0,0,0,.37,0c.47.62.94,1.25,1.42,1.87.14.17.38,0,.26-.22-.64-.9-1.29-1.78-2-2.67-.05-.36.1-.79.07-1.16a2.73,2.73,0,0,0,0-.4c.16.17.4,0,.33-.23a2.93,2.93,0,0,0-.6-1,4.1,4.1,0,0,1-.1-.48,5.47,5.47,0,0,0-.63-1.85l1.32.4a.21.21,0,0,0-.06.39A3.6,3.6,0,0,1,56,62.15a.2.2,0,0,0,.37-.12A2.71,2.71,0,0,0,55,60.3l.75.22a.3.3,0,0,0,.4-.25C56.28,59,55,58.12,54.55,57c0,0,0,0,0-.06.79.63,1.94.58,2.91.8a.22.22,0,0,0,.05.23c.56.46,1.11,1,1.68,1.39.17.12.41-.13.25-.28l-.47-.42a.31.31,0,0,0,.37-.18,1.67,1.67,0,0,0,.06-.29c.94,1,1.88,1.9,2.84,2.81.16.15.42-.06.26-.22-1-1.05-2-2.07-3.07-3.1A2.71,2.71,0,0,0,59,56.42c1.44,1.19,2.9,2.38,4.39,3.52.19.14.38-.15.21-.3-1.91-1.68-3.91-3.28-5.88-4.89a5.42,5.42,0,0,1-.58-.89,8.38,8.38,0,0,1,2.56.23.17.17,0,0,0,0,.27l1.14,1.11c.16.15.43-.06.27-.23l-1-1.05a7.38,7.38,0,0,1,1.11.45s0,0,.07,0a19.64,19.64,0,0,0,4.72,2.72c.22.08.33-.24.12-.34a24.47,24.47,0,0,1-4.52-2.68.25.25,0,0,0,0-.12.24.24,0,0,0,0-.32c-.31-.4-.63-.77-.92-1.17a59,59,0,0,0,6,3.77c.21.1.35-.21.18-.34A67.56,67.56,0,0,0,60.44,52.14Zm3.31-9.78-.13,0,.16-.05A.13.13,0,0,0,63.75,42.36Zm-6.93,11a.33.33,0,0,0-.49.32c.19,1.34,1.81,2.23,2.31,3.43a.17.17,0,0,0-.1.28l.22.22a.5.5,0,0,1,0,.13c-1.16-.87-3-.34-4.2-1.18-.17-.12-.41.12-.25.28l.09.06a.26.26,0,0,0-.3.18c-.21,1.15,1.1,1.76,1.39,2.75l-2.58-.66a4.07,4.07,0,0,0-.41-.43c-.23-.2-.52.1-.44.35a.19.19,0,0,0,.07.32l.17,0a7,7,0,0,1,1,1.91l-.08-.07c-.25-.18-.51.2-.27.39a4.55,4.55,0,0,1,.59.57,10.28,10.28,0,0,1,.23,1.33,2.93,2.93,0,0,1,0,.51.19.19,0,0,0-.29.19c-.31-.41-.59-.85-1-1.28a3.7,3.7,0,0,0-.8-.73c-.53-.33-1.61-.45-2-1.06a3.11,3.11,0,0,0,0-.32.32.32,0,0,0-.64.11,6.83,6.83,0,0,1,.11,1.1c-.15,0-.31.09-.26.25s.12.4.2.6-.05.33-.09.49a6.26,6.26,0,0,1-.21.61c-.17-.1-.42,0-.3.23l.12.19a4.09,4.09,0,0,0-.32,1,2.37,2.37,0,0,0,.45,1.56,15.41,15.41,0,0,1-3.15-2.58c-.64-.59-.9-1.21-1.68-1.38-.06-.28-.5-.39-.59-.06A17.66,17.66,0,0,1,42,66.48c-.75-.66-1.42-1.42-2.16-2.08a3.5,3.5,0,0,0,.07-1c0-.41-.66-.3-.64.11a3,3,0,0,1,0,.52.2.2,0,0,0-.13.27l0,.06c-.29,1-1.09,1.92-1.34,3-.47-.44-1.11-.72-1.6-1.13,0-.1-.07-.13-.15-.14a1.82,1.82,0,0,1-.37-.45A3,3,0,0,0,36.08,63a.24.24,0,0,0-.46.08,5.45,5.45,0,0,1-1.11,3.24,10.37,10.37,0,0,0-.84,1.42,9.92,9.92,0,0,0-2-3.22,2.6,2.6,0,0,0,.81-2.29.25.25,0,0,0-.49,0,4.49,4.49,0,0,1-1.4,2.48c-.43.4-.86.8-1.26,1.23a8,8,0,0,1-.73-1.66A3.94,3.94,0,0,0,29,63.4c.11-.37-.45-.59-.58-.21a2.08,2.08,0,0,1-.92,1.3.2.2,0,0,0-.35,0l-.06.14c-.36.1-.73.11-1.08.23a1.34,1.34,0,0,0-.3.12,2.18,2.18,0,0,0-.11-.87c-.22-.61-1-1.11-1.22-1.72a.21.21,0,0,0,0-.19,1.48,1.48,0,0,0,.31-.25c.15-.15.06-.48-.19-.42l-.43.14a.25.25,0,0,0-.21.08,4.35,4.35,0,0,1-.8.24,8.69,8.69,0,0,1-1.35,0,3.48,3.48,0,0,0-1.58.38,8.05,8.05,0,0,0-.52-3,4.27,4.27,0,0,0,.82-.78c.2-.25-.17-.57-.41-.37a2.92,2.92,0,0,1-2,1,11.18,11.18,0,0,1-1.5-.25,8,8,0,0,0-1.19-.11,2.45,2.45,0,0,0,.26-1.5c-.16-1.39-.92-2.84,0-4.1.13-.17-.07-.37-.25-.3a1.38,1.38,0,0,0-.85.89A3.68,3.68,0,0,0,13.1,54c.23-.75.76-1.41,1-2.18a4.82,4.82,0,0,0,1.31.06.25.25,0,0,0,.1-.45,5.52,5.52,0,0,0-3.35-.31,7.17,7.17,0,0,0,.44-2.48c.38.11.76.24,1.17.37.23.07.47-.21.29-.41a2.4,2.4,0,0,0-.9-.61,9.31,9.31,0,0,0,1.5-1.44c.14-.19-.09-.5-.31-.37a10.74,10.74,0,0,0-1.69,1.48.22.22,0,0,0-.08.15A7,7,0,0,0,9.1,48a.16.16,0,0,0,0-.08,3.48,3.48,0,0,0,.72-1.12c.19-.5.29-1,.45-1.54a3.66,3.66,0,0,1,.87-1.44,1.55,1.55,0,0,1,.12.22c.14.33.63.15.59-.19-.1-.72-.7-1-1.36-1.22a10.43,10.43,0,0,0-2-.24l.24-.21c.3-.32.92-1.86,1.41-2a1.83,1.83,0,0,1,.93.66c.26.35.78,0,.62-.4-.82-1.86-3-.94-4.73-.78a3.28,3.28,0,0,0,1-1c.85-1.32,1-3,2.72-3.4a.23.23,0,0,0,0-.43l-.08,0a2.46,2.46,0,0,0-1.15-.71L9.19,34a1.87,1.87,0,0,0,1.11-.63c.63-.68.17-1.68-.41-2.24a5,5,0,0,0-1.38-.87A.21.21,0,0,0,8.34,30l-.26,0a2.85,2.85,0,0,0,.78-.43c1.14-.85,1.7-2.34,3.31-2.35l.07,0a1.43,1.43,0,0,1-.14.69c-.15.27.27.43.44.23a1.86,1.86,0,0,0,.1-2.23c-.55-1-1.38-1.54-1.56-2.51a2.51,2.51,0,0,0,1.42.28,12.4,12.4,0,0,0,1.5-.28,3.63,3.63,0,0,1,1.95.23.33.33,0,0,0,.41-.45,1.16,1.16,0,0,0-.66-.72,4.74,4.74,0,0,0-.42-2.46,5.74,5.74,0,0,0-.66-1.38,12.71,12.71,0,0,1,1.84.11c.84.12,1.59.57,2.4.68a.25.25,0,0,0,.25-.35,1.25,1.25,0,0,0-.65-.65c.24-1.2,1.11-3.14.62-4.27.57.14,1.17.16,1.76.25a3,3,0,0,1,1.75.73,9.6,9.6,0,0,1,1,1.39.25.25,0,0,0,.41-.05.27.27,0,0,0,.28-.43c-.57-.88.2-2.62.23-3.89a4.91,4.91,0,0,0,.95.46,8.76,8.76,0,0,1,1.38.58,2.73,2.73,0,0,1,.84,1,2.06,2.06,0,0,0,.09.62.23.23,0,0,0,.45-.08c-.14-1.61,1.9-2,2.74-2.79a3.6,3.6,0,0,0,.86-1.36c.57.87,1.76,1.09,2.7,1.69a.35.35,0,0,0,.42,0A6.44,6.44,0,0,0,36.47,10c.6.64,1.68.86,1.79,1.89a.16.16,0,0,0,.07.13,2.66,2.66,0,0,0-.31.26.26.26,0,0,0,.34.4c1.45-1.12,3.82-.91,5-2.32a2.94,2.94,0,0,0,.71,1c.6.6,1.29,1,1.65,1.77a3.25,3.25,0,0,1-.21,2.62.25.25,0,0,0,.4.28,1.94,1.94,0,0,0,.61-.79c.56-.55,1.59-.51,2.26-.89a3,3,0,0,0,1.11-1.26c.3.86.81,1.73.49,2.49l-.15,0A.23.23,0,0,0,50,16a1.42,1.42,0,0,0,.25.12.31.31,0,0,0,.48.12A2.42,2.42,0,0,0,51.82,16c.42-.17.83-.36,1.24-.55s.77-.45,1.18-.62a3.5,3.5,0,0,0-.24.56,5.77,5.77,0,0,0-.38,1.88,1.25,1.25,0,0,0-.65.91.25.25,0,0,0,.46.17c.78-1,2.49-.72,3.61-.71a8.43,8.43,0,0,0,.85,0,3.49,3.49,0,0,0-.49,1.67c0,.5.16,1.06-.19,1.47s-.73.39-1,.82a.25.25,0,0,0,.25.39,2,2,0,0,0,.67-.24c1.11,0,2.26.94,3.35.89a6.66,6.66,0,0,1-.87.89c-.53.43-1.16.67-1.71,1.07A.2.2,0,0,0,58,25a2.48,2.48,0,0,0,.61,0,.15.15,0,0,0,.1-.07,27.88,27.88,0,0,0,3.29.55,5.68,5.68,0,0,1-1.74,2.88.34.34,0,0,0,.36.56c.36-.18,3,1.25,4.27,1.92a5.08,5.08,0,0,0-.48.7c-.74,1.19-1,2.36-2.55,2.8a.28.28,0,0,0,.1.55,1.87,1.87,0,0,0,.25,0s0,0,.08,0c1.45-.08,2.53,1.19,3.85,1.74-.49.19-1,.32-1.48.52-.79.36-1.31.94-2.1,1.21a.84.84,0,0,0-.93-.07c-.25.11-.14.43.09.48a1.62,1.62,0,0,1,.28.11.18.18,0,0,0,.09.08.75.75,0,0,0,.16,0c.39.26.69.64,1.09.9a5.66,5.66,0,0,0,1.12.51,9.55,9.55,0,0,1,2.36.86,9.54,9.54,0,0,0-5,1.14.21.21,0,0,0,.13.39,4.76,4.76,0,0,0,.52-.1,2.44,2.44,0,0,0,1.22,1.8A11.14,11.14,0,0,1,66.3,46.2a3,3,0,0,0-1.71,0c-1.3.38-2.29,1.63-3.72,1.08a.25.25,0,0,0-.47.1c-.13.6.35,1,.8,1.31a6,6,0,0,1,1.29,1.06.23.23,0,0,0,0,.35c-.91,0-1.86.72-2.8.49a.25.25,0,0,0-.24.08.27.27,0,0,0-.25.22,3.22,3.22,0,0,0,.66,1.87,6.38,6.38,0,0,0,.61.86A6.06,6.06,0,0,0,56.82,53.38ZM61.28,52c-.28-.07-.44.33-.16.42A6.92,6.92,0,0,1,62.5,53c.4.23.73.55,1.11.82a.19.19,0,0,0,.25-.28A4.92,4.92,0,0,0,61.28,52Zm5.88,3.07c-.83-.38-1.67-.76-2.52-1.1-.27-.11-.41.3-.16.42.83.41,1.67.78,2.51,1.16C67.29,55.69,67.47,55.2,67.16,55.07ZM67,53.81a.22.22,0,0,0,.15-.41c-.9-.43-1.86-.71-2.75-1.15S62.86,51.4,62.06,51c-.25-.12-.47.29-.23.44a21.5,21.5,0,0,0,2.42,1.16A22.56,22.56,0,0,0,67,53.81Zm1.3-1.45c-.49-.29-1.06-.43-1.57-.67a15.78,15.78,0,0,1-1.79-1,.24.24,0,0,0-.28.4,7.69,7.69,0,0,0,3.49,1.69C68.37,52.78,68.51,52.48,68.31,52.36ZM70.47,51a29.64,29.64,0,0,1-5-2.24c-.19-.11-.4.17-.2.29a19.22,19.22,0,0,0,5.06,2.28C70.56,51.37,70.68,51.07,70.47,51Zm-1.11-1.42c-.21-.11-.33.24-.12.35.84.44,1.68.94,2.56,1.31.18.08.32-.2.16-.31C71.13,50.41,70.23,50,69.36,49.57ZM69,52.39a.21.21,0,0,0,0,.41,4.14,4.14,0,0,1,1.91.7.18.18,0,0,0,.21-.3A3.37,3.37,0,0,0,69,52.39Zm-.48,1.72c-.23-.15-.47.19-.25.34.57.37,1.12.75,1.71,1.08a.19.19,0,0,0,.21-.31C69.68,54.82,69.11,54.47,68.55,54.11Zm-.2,2.21c-.21-.19-.56.1-.35.3.58.56,1.16,1.13,1.78,1.64A.19.19,0,0,0,70,58C69.5,57.4,68.92,56.87,68.35,56.32Zm-.91-8.12a10.4,10.4,0,0,0-1.15-.59c-.21-.09-.4.24-.19.36a11.51,11.51,0,0,0,1.17.57A.19.19,0,0,0,67.44,48.2ZM10.75,11.58c.16.09.42-.07.3-.26a1.84,1.84,0,0,0-.62-.65.23.23,0,0,0-.31.34A2,2,0,0,0,10.75,11.58Zm2.46,2c-.27-.39-.56-.75-.84-1.12-.14-.18-.4,0-.27.22.28.38.55.76.84,1.12C13.09,14,13.33,13.75,13.21,13.57Zm.61-1.14c.21.18.46-.18.25-.36-.94-.84-1.87-1.68-2.82-2.5-.17-.15-.44.15-.27.3C11.92,10.73,12.87,11.58,13.82,12.43ZM12.15,8.58a2.35,2.35,0,0,1,1.33,1,.17.17,0,0,0,.31-.14,2,2,0,0,0-1.53-1.29C12,8.07,11.9,8.49,12.15,8.58Zm3.26,3a.21.21,0,0,0,.36-.16,2.62,2.62,0,0,0-1.5-1.59c-.21-.1-.39.25-.19.36A4.21,4.21,0,0,1,15.41,11.58ZM16,10.19c.15.15.47,0,.34-.21a13.8,13.8,0,0,0-1.38-1.77c-.19-.23-.53.07-.35.3A15.12,15.12,0,0,0,16,10.19ZM11.72,15c.2.21.54-.08.34-.28-.73-.77-1.45-1.54-2.19-2.28-.18-.18-.49.06-.31.26C10.26,13.48,11,14.24,11.72,15Zm-1-.12a.22.22,0,0,0-.26.36,7.66,7.66,0,0,0,1.14.82c.17.1.43-.11.26-.29A9,9,0,0,0,10.7,14.88ZM8.8,16.32A.18.18,0,0,0,9,16.05,22.78,22.78,0,0,0,6.8,14c-.2-.18-.43.16-.23.34A24.42,24.42,0,0,0,8.8,16.32Zm-2.4.35h.27c.21,0,.2-.36,0-.37H6.38A.2.2,0,1,0,6.4,16.67ZM9.86,18.8c-.45-.39-1-.72-1.44-1.07-.2-.14-.41.17-.22.31.47.34.92.71,1.41,1a.21.21,0,0,0,0,.35l1.63.9a8,8,0,0,0,1.52.75A.21.21,0,0,0,13,20.7a9.63,9.63,0,0,0-1.63-.92l-1.44-.73A.19.19,0,0,0,9.86,18.8ZM9,19.66c-.64-.39-1.3-.74-2-1.1-.21-.12-.43.19-.22.31.67.37,1.34.75,2,1.1C9,20.05,9.16,19.76,9,19.66Zm-2.12.87.84.26c.22.07.35-.26.13-.33L7,20.17C6.77,20.1,6.64,20.45,6.87,20.53ZM16,7.39c.16.15.45,0,.34-.22A8.83,8.83,0,0,0,15.48,6c-.19-.24-.55.07-.37.31A9.35,9.35,0,0,0,16,7.39ZM17.92,10c.18.1.44-.12.27-.29A3.7,3.7,0,0,1,17.05,8c-.06-.27-.48-.2-.42.07A3,3,0,0,0,17.92,10ZM19,9.39c.12.16.39,0,.3-.2C18.7,8.07,17.89,7,17.2,6c-.15-.21-.45,0-.31.26A35.49,35.49,0,0,0,19,9.39ZM19.05,6c.16.15.47,0,.35-.23a7.53,7.53,0,0,0-.84-1.19c-.2-.25-.55.07-.37.32A7.07,7.07,0,0,0,19.05,6Zm1.74,3.31c.16.19.41,0,.34-.22a13.57,13.57,0,0,0-1.07-2c-.14-.25-.55-.06-.41.2A13.59,13.59,0,0,0,20.79,9.31Zm1-1.07c.13.17.4,0,.31-.2-.28-.61-.64-1.18-1-1.76-.14-.24-.54-.06-.4.19C21.11,7.07,21.43,7.68,21.83,8.24Zm1.42.49c.11.17.44.11.37-.12a15.38,15.38,0,0,0-.84-2c-.11-.25-.5-.07-.39.19A17,17,0,0,0,23.25,8.73Zm.63-3.07c.15.16.44,0,.33-.21a6.5,6.5,0,0,0-.57-.9c-.17-.25-.53.06-.36.3A6.06,6.06,0,0,0,23.88,5.66Zm1.86,1c0,.2.31.3.38.08a1.54,1.54,0,0,0-.62-1.64c-.22-.16-.46.19-.24.35A1.33,1.33,0,0,1,25.74,6.67ZM29,6.37a7.92,7.92,0,0,0-.53-1.48c-.12-.31-.58-.08-.46.22a7.68,7.68,0,0,0,.6,1.38C28.67,6.68,29,6.62,29,6.37Zm1.1-.84a11.12,11.12,0,0,0-.26-1.4.22.22,0,0,0-.43.08,11.91,11.91,0,0,0,.31,1.44C29.75,5.88,30.07,5.74,30.05,5.53Zm2.71-1a9.61,9.61,0,0,0-.42-2,.23.23,0,0,0-.45.08,9.38,9.38,0,0,0,.48,2C32.45,4.73,32.76,4.69,32.76,4.49Zm1.56-.38a27,27,0,0,0-1-3.38c-.08-.23-.47-.1-.41.13a26.09,26.09,0,0,0,1,3.37C34,4.44,34.36,4.33,34.32,4.11ZM35.7,1.32A7.24,7.24,0,0,0,35.45.2c-.1-.31-.6-.24-.52.09a6.51,6.51,0,0,0,.36,1.16C35.39,1.69,35.73,1.56,35.7,1.32Zm-.49,1.21a22.67,22.67,0,0,0,.57,3.69c.06.2.38.12.39-.07a22,22,0,0,0-.47-3.7C35.66,2.13,35.17,2.22,35.21,2.53ZM37.6,5.81c-.26-1.4-.52-2.79-.66-4.21,0-.33-.51-.23-.5.09a16.15,16.15,0,0,0,.76,4.25C37.28,6.17,37.64,6,37.6,5.81Zm.86-.93a1.38,1.38,0,0,0,.27-1.37c-.08-.22-.4-.13-.43.08a2.26,2.26,0,0,1-.28,1A.27.27,0,0,0,38.46,4.88ZM38.73,2a14,14,0,0,0,0-1.45c0-.21-.35-.19-.37,0,0,.46,0,.93,0,1.39C38.32,2.17,38.73,2.22,38.73,2Zm1.16,2.73a2,2,0,0,1,.19-1.3c.08-.18-.18-.37-.31-.22a1.56,1.56,0,0,0-.31,1.66C39.54,5.07,40,4.93,39.89,4.68Zm.23-2.45a9.58,9.58,0,0,0,.26-1.4A.19.19,0,0,0,40,.74a8.93,8.93,0,0,0-.32,1.45C39.63,2.46,40.06,2.49,40.12,2.23Zm1.42,2.58a8.21,8.21,0,0,0,.24-3.75c0-.21-.38-.21-.38,0a21,21,0,0,1-.26,3.63C41.09,5,41.48,5,41.54,4.81Zm1.21,1a.24.24,0,0,0,.47.11,4.63,4.63,0,0,0,.27-1.52.15.15,0,0,0-.11-.14.13.13,0,0,0,0,0,.14.14,0,0,0,0-.06,5.27,5.27,0,0,0,.34-2.54.2.2,0,0,0-.39,0c-.06.42-.06.84-.11,1.26s-.15.83-.22,1.25a.15.15,0,0,0,.09.16.23.23,0,0,0-.07.07A4.49,4.49,0,0,0,42.75,5.82Zm1.61.39c.29-1.13.6-2.27.78-3.42a.19.19,0,0,0-.36-.09c-.36,1.1-.6,2.23-.86,3.35C43.86,6.34,44.29,6.51,44.36,6.21Zm1.42.15A.42.42,0,0,1,46,6a.22.22,0,0,0-.19-.38.62.62,0,0,0-.49.8A.26.26,0,0,0,45.78,6.36Zm.51-1.61a3,3,0,0,1,.49-1.6.19.19,0,0,0-.31-.21,2.61,2.61,0,0,0-.58,1.77C45.89,5,46.29,5,46.29,4.75Zm.86,2.58c.41-1.21.78-2.41,1.08-3.65.05-.21-.25-.34-.33-.12-.45,1.19-.83,2.39-1.18,3.61C46.64,7.45,47.05,7.61,47.15,7.33Zm.91.29a.14.14,0,0,0-.16.08,30.35,30.35,0,0,0-1.44,3.67.23.23,0,0,0,.43.17,30.89,30.89,0,0,0,1.36-3.65.2.2,0,0,0,0-.11.24.24,0,0,0,.31-.16A4.89,4.89,0,0,1,49.34,6a.22.22,0,0,0-.32-.3A2.72,2.72,0,0,0,48,7.5S48.05,7.58,48.06,7.62ZM49.9,4.24c.18-.56.36-1.12.51-1.7a.18.18,0,0,0-.33-.12c-.21.55-.4,1.11-.59,1.67C49.4,4.35,49.81,4.5,49.9,4.24Zm0,3.43c.37-.67.76-1.34,1.07-2a.18.18,0,0,0-.31-.16c-.42.62-.77,1.29-1.13,1.94C49.42,7.66,49.79,7.92,49.93,7.67ZM51.3,4.8c.29-.65.61-1.29.87-1.95.12-.31-.35-.47-.48-.18-.29.65-.52,1.32-.78,2A.21.21,0,0,0,51.3,4.8Zm.22,3.33A30.49,30.49,0,0,0,53,4.8c.07-.21-.23-.4-.35-.19A33.84,33.84,0,0,0,51.1,8C51,8.24,51.4,8.39,51.52,8.13Zm1.19.39a3.33,3.33,0,0,0-.64.85.24.24,0,0,0,.4.28,3.52,3.52,0,0,0,.57-.9A.21.21,0,0,0,52.71,8.52Zm.83-.58A12.85,12.85,0,0,0,54.6,6.16c.09-.21-.2-.32-.33-.17a12.52,12.52,0,0,0-1.08,1.7C53.05,7.92,53.39,8.17,53.54,7.94Zm.16,2.2a8.2,8.2,0,0,0,2.09-3.66c.05-.22-.25-.35-.34-.13a10.3,10.3,0,0,1-2,3.45C53.22,10,53.5,10.36,53.7,10.14Zm1.86-.2a14.84,14.84,0,0,0,1.1-1.41,16.7,16.7,0,0,1,1.09-1.42c.2-.25-.22-.55-.41-.29s-.33.5-.5.74-.49.51-.72.77a16.11,16.11,0,0,0-1,1.3C54.9,9.92,55.34,10.21,55.56,9.94Zm.77,1.9q1.61-1.9,3.07-3.91c.13-.18-.14-.36-.28-.2q-1.66,1.86-3.19,3.84C55.74,11.82,56.13,12.08,56.33,11.84Zm1.08.28a3.49,3.49,0,0,0-.62.86.24.24,0,0,0,.4.28,3.68,3.68,0,0,0,.55-.91A.21.21,0,0,0,57.41,12.12Zm1.42-.84c.46-.57,1-1.11,1.36-1.71.11-.16-.12-.4-.27-.24-.5.54-1,1.14-1.41,1.72C58.35,11.25,58.67,11.47,58.83,11.28Zm-.49,3.11a27.14,27.14,0,0,1,2.38-3.18c.13-.16-.12-.39-.28-.25A14.61,14.61,0,0,0,58,14.16C57.88,14.39,58.21,14.62,58.34,14.39ZM60.5,13.3a19.61,19.61,0,0,0,2.22-2.05c.17-.19-.12-.39-.3-.27a20.7,20.7,0,0,0-2.22,2C60,13.15,60.27,13.5,60.5,13.3Zm.27,1.62c-.4.25-.77.52-1.15.8-.23.18.06.53.3.35s.74-.56,1.09-.86A.19.19,0,0,0,60.77,14.92Zm1.15-.9c-.24.14-.06.53.18.39A4.07,4.07,0,0,0,63.61,13c.09-.17-.11-.42-.27-.25A6.69,6.69,0,0,1,61.92,14Zm.21,2c.84-.64,1.73-1.25,2.51-2,.14-.13,0-.4-.19-.29-.9.58-1.72,1.3-2.57,2C61.68,15.9,61.93,16.19,62.13,16Zm1.16,1.17a15,15,0,0,0,1.94-1.41c.17-.16,0-.47-.22-.35a14.9,14.9,0,0,0-2,1.41C62.75,17,63.05,17.38,63.29,17.21Zm1.07.88a5.58,5.58,0,0,0,1.16-.61c.16-.13,0-.44-.18-.38a5.11,5.11,0,0,0-1.18.56A.24.24,0,0,0,64.36,18.09Zm2-.37a1.49,1.49,0,0,1,1.48-.47c.21,0,.26-.28.08-.36a1.66,1.66,0,0,0-1.92.58C65.86,17.68,66.21,17.93,66.39,17.72Zm1.86,3a1.2,1.2,0,0,0-1.37.28.27.27,0,0,0,.34.41,1.67,1.67,0,0,1,.93-.23A.24.24,0,0,0,68.25,20.74Zm.69.12a2.24,2.24,0,0,0,1.89-.29c.19-.15,0-.39-.21-.33a2.77,2.77,0,0,1-1.58.19C68.8,20.37,68.7,20.8,68.94,20.86Zm-.45,2.56c1.21-.31,2.41-.65,3.6-1,.2-.05.16-.37-.06-.32-1.21.27-2.41.55-3.62.87C68.13,23,68.2,23.49,68.49,23.42Zm1.12,1.39A31.48,31.48,0,0,0,73,24.44c.19,0,.2-.37,0-.36a32.46,32.46,0,0,0-3.41.3C69.25,24.41,69.33,24.84,69.61,24.81ZM71.88,27c.23-.1.1-.41-.12-.39a7.3,7.3,0,0,0-1.13.23c-.32.09-.24.6.09.52A7.44,7.44,0,0,0,71.88,27Zm.74-.05c-.27.09-.21.51.07.45a2,2,0,0,1,1.31.2.21.21,0,0,0,.23-.33A1.56,1.56,0,0,0,72.62,26.9ZM74,29.8c.18,0,.29-.25.13-.34a4.44,4.44,0,0,0-2.67-.34c-.3,0-.21.5.08.46A7.54,7.54,0,0,1,74,29.8Zm-2.24,2.25a17.65,17.65,0,0,0,3.08.29c.21,0,.34-.34.09-.4a18.11,18.11,0,0,0-3.12-.39A.25.25,0,0,0,71.79,32.05Zm-.46,2.2c.28-.1.55-.21.82-.33a.19.19,0,0,0-.12-.35,9.21,9.21,0,0,0-.9.25C70.84,33.91,71,34.35,71.33,34.25Zm3-.63a8.19,8.19,0,0,0-1.4,0c-.29,0-.34.45,0,.45a7.81,7.81,0,0,0,1.45,0A.2.2,0,0,0,74.35,33.62Zm0,1.5a11.57,11.57,0,0,0-3.09.53c-.26.07-.19.47.07.4,1-.24,2-.34,3-.55C74.55,35.46,74.55,35.13,74.33,35.12ZM72.05,37a.24.24,0,0,0,.09.47,3.68,3.68,0,0,1,1.86.16c.2,0,.36-.21.17-.33A2.71,2.71,0,0,0,72.05,37Zm-.18,2a.21.21,0,0,0-.14.39c1,.38,2,.75,3.11,1a.18.18,0,0,0,.12-.33C74,39.63,72.92,39.29,71.87,39Zm1.71,2.84a3.42,3.42,0,0,0-2-.64c-.26,0-.3.38,0,.4a5.33,5.33,0,0,1,1.91.56C73.61,42.2,73.75,41.91,73.58,41.79Zm-1.85,2.57c.19.08.35-.21.17-.32l-.19-.1a.19.19,0,0,0-.16-.23,36.84,36.84,0,0,1-4.68-.65c-.28-.08-.44.33-.16.42a12.92,12.92,0,0,0,4.49.63C71.38,44.2,71.55,44.29,71.73,44.36Zm1.29.11c-.24-.08-.38.29-.14.37.56.19,1.11.4,1.68.55a.18.18,0,0,0,.13-.34C74.15,44.83,73.58,44.66,73,44.47Zm.76,1.4a5.88,5.88,0,0,1-3-.75c.1-.08.09-.27-.07-.27a.16.16,0,0,0-.14.2.16.16,0,0,0-.1.29,5.1,5.1,0,0,0,3.34.95C74,46.28,74,45.87,73.78,45.87Zm-1.6,1.41c-.24-.13-.39.28-.14.4a10.51,10.51,0,0,0,1.12.54.2.2,0,0,0,.18-.35A11.47,11.47,0,0,0,72.18,47.28Zm-28.72,26c0-.23-.34-.26-.35,0a6.49,6.49,0,0,0,.57,3.16.17.17,0,0,0,.3-.14A6.53,6.53,0,0,1,43.46,73.27Zm.68.52a4.32,4.32,0,0,0,0,.62c0,.25.39.21.42,0a3.41,3.41,0,0,0,0-.55C44.67,73.5,44.13,73.46,44.14,73.79Zm.63,1.79a8.29,8.29,0,0,0,.31.83.18.18,0,0,0,.34-.11,9.37,9.37,0,0,0-.28-.9C45.06,75.15,44.69,75.33,44.77,75.58Zm.54-2c.27.86.49,1.75.84,2.57A.19.19,0,0,0,46.5,76c-.2-.87-.54-1.73-.82-2.58C45.61,73.25,45.25,73.36,45.31,73.57Zm2.08,1a.19.19,0,0,0-.34.16,5.86,5.86,0,0,0,.3.55.17.17,0,0,0,.31-.15A3.61,3.61,0,0,0,47.39,74.56Zm1.39-3.07c-.15-.23-.55-.07-.4.19a4,4,0,0,0,.56.9.2.2,0,0,0,.33-.21A4.21,4.21,0,0,0,48.78,71.49ZM49.29,73A14.79,14.79,0,0,0,50.15,75c.1.17.42.11.36-.11a14.78,14.78,0,0,0-.83-2C49.57,72.6,49.18,72.79,49.29,73Zm1.21-1.58c-.12-.21-.48,0-.35.16.46.77.89,1.56,1.4,2.3.11.16.38,0,.29-.19C51.43,73,51,72.21,50.5,71.46Zm1.67-.27c-.13-.22-.49,0-.37.17.47.85.92,1.72,1.45,2.54.11.17.37,0,.29-.18C53.13,72.85,52.63,72,52.17,71.19Zm2-.29c-.09-.28-.5-.08-.41.19a3.43,3.43,0,0,0,1.76,2.06c.18.09.32-.2.16-.3A3.75,3.75,0,0,1,54.17,70.9Zm1.33-1.29a.33.33,0,0,0-.07-.17,2.32,2.32,0,0,0-.59-.34c-.26-.12-.49.3-.24.45a3.14,3.14,0,0,0,.57.24,17,17,0,0,1,1.73,1.87.18.18,0,0,0,.3-.2A5.89,5.89,0,0,0,55.5,69.61Zm1.62-1c-.21-.16-.51.16-.32.34a9.39,9.39,0,0,0,1.71,1.45.2.2,0,0,0,.27-.29A9.46,9.46,0,0,0,57.12,68.59Zm2-.83c-.23-.15-.48.2-.25.35a8.51,8.51,0,0,0,.9.57c.2.11.33-.21.17-.34A8,8,0,0,0,59.07,67.76ZM41.9,74.14a15.2,15.2,0,0,0,.89,3.4c.09.17.4.15.4-.07a15.68,15.68,0,0,0-.7-3.44C42.4,73.66,41.82,73.76,41.9,74.14Zm-.4,1.55a4.67,4.67,0,0,0-.55-1.2c-.18-.27-.54,0-.45.28a4.46,4.46,0,0,0,.64,1.15C41.29,76.13,41.56,75.9,41.5,75.69Zm-.63,1a9,9,0,0,0,.5,1.75.21.21,0,0,0,.4-.13,10,10,0,0,0-.51-1.75C41.18,76.29,40.81,76.41,40.87,76.64ZM39.68,76a11.71,11.71,0,0,0,0,1.45.21.21,0,0,0,.41,0,10.91,10.91,0,0,0,0-1.4C40.17,75.76,39.68,75.71,39.68,76ZM29.62,74.42a6.61,6.61,0,0,1,0,3c-.06.28.38.36.47.11A4.35,4.35,0,0,0,30,74.32C29.87,74.14,29.57,74.23,29.62,74.42Zm-1.35,1.89a10.83,10.83,0,0,0-.05,1.39c0,.3.46.36.47,0a10.18,10.18,0,0,0,0-1.46C28.63,76.07,28.29,76.1,28.27,76.31Zm.35-2.26c-.12.27-.2.55-.3.83s.31.4.4.14.19-.55.26-.84A.19.19,0,0,0,28.62,74.05Zm-1.68.59c-.13.74-.21,1.49-.31,2.23a.2.2,0,1,0,.39,0c.09-.74.2-1.49.26-2.24A.17.17,0,0,0,26.94,74.64Zm-1.94,0c-.22.73-.39,1.48-.59,2.23-.06.21.27.34.33.12.2-.76.42-1.51.59-2.28C25.37,74.49,25.06,74.42,25,74.61Zm-1.19-.26a3.25,3.25,0,0,1-.57,1.57c-.15.23.2.47.35.25a3,3,0,0,0,.58-1.78A.18.18,0,0,0,23.81,74.35Zm-.93.94c-.26,0-.3.4,0,.4S23.14,75.29,22.88,75.29ZM49.1,56.48a.24.24,0,0,0-.09-.2.51.51,0,0,0-.53-.05c-.22.07-.18.42,0,.49a.57.57,0,0,0,.31,0A4.93,4.93,0,0,1,50.41,58c.13.14.4,0,.3-.19A3.37,3.37,0,0,0,49.1,56.48Zm.68-1.3c-.24-.12-.38.27-.15.39.93.46,1.84,1,2.8,1.39.22.09.4-.25.19-.37C51.72,56.06,50.72,55.64,49.78,55.18Zm1.78-1.06a.22.22,0,0,0,.29-.32,2.7,2.7,0,0,0-.54-.58c-.22-.21-.58.08-.37.32A3.78,3.78,0,0,0,51.56,54.12Zm2.42.77c-.41-.15-.72-.13-1-.54-.14-.21-.52,0-.39.26.28.45.86.91,1.41.66A.21.21,0,0,0,54,54.89Zm-.86-2.19a.21.21,0,0,0-.15.4c.75.27,1.49.58,2.25.8a.19.19,0,0,0,.14-.36C54.64,53.21,53.87,53,53.12,52.7Zm3-.62a2.28,2.28,0,0,1-1.56-.55c-.21-.19-.46.17-.25.36a2.1,2.1,0,0,0,1.83.57C56.38,52.42,56.39,52.09,56.16,52.08ZM53.9,49.39c.22,0,.3-.27.14-.39a6.06,6.06,0,0,0-1.42-.64.24.24,0,0,0-.17.45A5.86,5.86,0,0,0,53.9,49.39Zm1.5.13c-.28-.12-.43.31-.16.43A20,20,0,0,0,57.76,51c.21.07.39-.22.19-.34A21.8,21.8,0,0,0,55.4,49.52Zm0-1.36a.23.23,0,0,0-.16.43,15,15,0,0,0,3.15,1.06.19.19,0,0,0,.13-.34A14.57,14.57,0,0,0,55.38,48.16ZM57,47.58c-.3,0-.22.48.08.45a7.14,7.14,0,0,1,1.89.28c.23,0,.32-.28.15-.4A3.06,3.06,0,0,0,57,47.58Zm4.3-1.91a16.45,16.45,0,0,0-5.42-.31c-.24,0-.23.44,0,.43a42.59,42.59,0,0,1,5.3.31C61.4,46.12,61.5,45.74,61.25,45.67Zm-4.31-1.75c-.27,0-.25.47,0,.49a4.23,4.23,0,0,0,1.18,0c.19-.05.27-.37,0-.42A4.67,4.67,0,0,0,56.94,43.92Zm2.31.3c-.29,0-.35.44,0,.45a7.91,7.91,0,0,0,1.46,0,.22.22,0,0,0,0-.44A7.17,7.17,0,0,0,59.25,44.22ZM60.64,42a20.5,20.5,0,0,0-2.58.26c-.28,0-.2.46.08.43a18.91,18.91,0,0,0,2.51-.3C60.85,42.32,60.87,42,60.64,42Zm-1.31-.4a4.17,4.17,0,0,1,1.61-.28.21.21,0,0,0,0-.4,2.68,2.68,0,0,0-1.84.26A.23.23,0,0,0,59.33,41.58ZM46.59,19.85a.3.3,0,0,0,.1.59,1,1,0,0,0,1-1.21.25.25,0,0,0-.48,0C47.06,19.49,46.94,19.76,46.59,19.85Zm1.62-2.05a4.76,4.76,0,0,0,1.13-1.28c.09-.19-.15-.39-.33-.3a5,5,0,0,0-1.22,1.2C47.57,17.66,48,18,48.21,17.8Zm0,2.16a20.37,20.37,0,0,0,2.16-2.58c.12-.19-.12-.44-.3-.27a20.45,20.45,0,0,0-2.22,2.6C47.67,19.94,48,20.18,48.22,20Zm-.08,2.52a2.84,2.84,0,0,0,.59-.61c.11-.17-.07-.46-.28-.33a3.34,3.34,0,0,0-.61.58C47.64,22.34,47.92,22.69,48.14,22.48Zm1.72-1.92a10.93,10.93,0,0,0,2-2.35c.11-.22-.2-.36-.36-.25a11.49,11.49,0,0,0-2,2.28C49.33,20.45,49.66,20.77,49.86,20.56Zm0,.73c-.24.22.08.6.32.38l1.33-1.18a7.57,7.57,0,0,0,1.2-1.13c.12-.18-.08-.45-.28-.33a8,8,0,0,0-1.26,1.06Zm1.53,1.93a4.61,4.61,0,0,0-1.2.54.28.28,0,0,0,.25.51,4.41,4.41,0,0,0,1.13-.66A.22.22,0,0,0,51.34,23.22ZM53,22.53a7.8,7.8,0,0,0,2-1.47c.1-.15,0-.42-.23-.36a7.9,7.9,0,0,0-2.1,1.41C52.31,22.33,52.66,22.72,53,22.53ZM52.31,25a33.91,33.91,0,0,0,3.94-1.89.23.23,0,0,0-.19-.41,35.73,35.73,0,0,0-4,1.84A.26.26,0,0,0,52.31,25Zm.32,1.76a5,5,0,0,0,1.44-.62.26.26,0,0,0-.21-.44,5.1,5.1,0,0,0-1.48.55C52.05,26.42,52.29,26.91,52.63,26.78Zm3.07-1.12a4.85,4.85,0,0,1,1.6-.28.23.23,0,0,0,0-.44,2.73,2.73,0,0,0-1.86.25A.26.26,0,0,0,55.7,25.66Zm-2.31,2.81a17.28,17.28,0,0,0,5.1-1.42c.24-.12.13-.54-.15-.46a51.36,51.36,0,0,1-5,1.37A.26.26,0,0,0,53.39,28.47ZM55.05,30a10.6,10.6,0,0,0-1.95-.05c-.36,0-.42.55-.06.56a10.58,10.58,0,0,0,2-.05A.23.23,0,0,0,55.05,30Zm3.09-.4a.2.2,0,0,0-.07-.39c-.47.05-.93.17-1.4.26-.28.06-.2.5.08.44A12.73,12.73,0,0,0,58.14,29.55Zm1.06,0c.27,0,.31-.41,0-.41S58.94,29.55,59.2,29.55Zm-4.43,1.77a.24.24,0,0,0,0,.47,10.89,10.89,0,0,0,4-.24.18.18,0,0,0-.06-.35A18,18,0,0,1,54.77,31.32Zm.48,1.83a.21.21,0,0,0,.19-.37,3.6,3.6,0,0,0-.54-.31.24.24,0,1,0-.22.42A4.17,4.17,0,0,0,55.25,33.15Zm2-.11a.23.23,0,0,0,.08.45,4.16,4.16,0,0,1,1.85.21c.2.06.38-.22.18-.33A3.1,3.1,0,0,0,57.23,33Zm-2,1.88a.27.27,0,0,0,.09.53,15.27,15.27,0,0,1,3.88.18c.25,0,.29-.31.09-.41A6.94,6.94,0,0,0,55.26,34.92Zm1.25,2.32a4.24,4.24,0,0,0-1.18-.06c-.34,0-.4.54,0,.54a4.31,4.31,0,0,0,1.19,0C56.66,37.62,56.74,37.31,56.51,37.24Zm1.56.79a8.06,8.06,0,0,0,1.69.21c.23,0,.35-.33.1-.42a9.28,9.28,0,0,0-1.74-.28C57.8,37.5,57.76,38,58.07,38Zm.33,1.45a16.12,16.12,0,0,0-2.51-.08c-.36,0-.42.57,0,.57a17.08,17.08,0,0,0,2.58-.07A.21.21,0,0,0,58.4,39.48Zm-2.14,2.84a2.58,2.58,0,0,0-1.77-.6c-.28,0-.32.43,0,.43a2.86,2.86,0,0,1,1.6.48A.19.19,0,0,0,56.26,42.32Zm-1.6,2.82c.18.13.38-.11.25-.28a7.3,7.3,0,0,0-.82-.85c-.21-.2-.55.09-.35.29A7.27,7.27,0,0,0,54.66,45.14Zm6-8.26a6.08,6.08,0,0,0,1.17-.36.25.25,0,0,0-.15-.46,5.34,5.34,0,0,0-1.12.25C60.21,36.4,60.3,37,60.67,36.88ZM50.43,51.62c.17.1.45-.07.32-.28a6.25,6.25,0,0,0-1.1-1.2c-.26-.25-.68.1-.43.36A6.76,6.76,0,0,0,50.43,51.62Zm-2.59,1.66.63.57c.16.14.4-.13.26-.29L48.19,53C48,52.76,47.63,53.08,47.84,53.28Zm-8.46,3.24a9,9,0,0,0,.56,2.57.21.21,0,0,0,.4-.07,8.81,8.81,0,0,0-.45-2.59A.26.26,0,0,0,39.38,56.52Zm-2.79,1.37c-.32,0-.37.51-.05.51S36.92,57.89,36.59,57.89Zm-9.12-2.15A13.39,13.39,0,0,0,25.73,58a.28.28,0,0,0,.46.31A13.41,13.41,0,0,0,27.83,56C27.93,55.78,27.64,55.59,27.47,55.74ZM27,54.89a.22.22,0,0,0-.34-.24,13.12,13.12,0,0,0-1.77,2.52.24.24,0,0,0,.4.28c.31-.44.63-.87.93-1.31A6.52,6.52,0,0,0,27,54.89ZM21.69,58.3a4.89,4.89,0,0,0,.83-1.19.23.23,0,0,0-.36-.25A5,5,0,0,0,21.24,58,.27.27,0,0,0,21.69,58.3Zm1.65-2.53a14.77,14.77,0,0,0,1.37-1.7c.11-.19-.12-.43-.3-.27a17,17,0,0,0-1.47,1.69C22.74,55.73,23.14,56,23.34,55.77Zm.76-2.84a22.79,22.79,0,0,0-2,2.26c-.22.25.2.54.42.29a20.65,20.65,0,0,0,1.92-2.26A.22.22,0,0,0,24.1,52.93Zm-2.19.1a15,15,0,0,0,1.95-1.78.23.23,0,0,0-.2-.36c.15-.25.31-.5.47-.75s-.17-.43-.32-.22-.39.55-.58.82a.21.21,0,0,0,.12.32,15.58,15.58,0,0,0-1.81,1.53A.29.29,0,0,0,21.91,53ZM20.18,51.4a8.71,8.71,0,0,0,2-1.18c.16-.16.05-.5-.2-.44a8.77,8.77,0,0,0-2.05,1.09C19.62,51.06,19.84,51.58,20.18,51.4Zm-.66-2.28A2.72,2.72,0,0,1,21.29,48c.25-.08.12-.42-.08-.45A2.28,2.28,0,0,0,19,48.77C18.83,49.1,19.32,49.45,19.52,49.12Zm-2.95-3.88c-.3.11-.14.63.17.54a4,4,0,0,0,.89-.35.23.23,0,0,0-.14-.44A4.18,4.18,0,0,0,16.57,45.24Zm2.08,0A1.35,1.35,0,0,0,20,44.51c.08-.18-.17-.34-.31-.22a1.31,1.31,0,0,1-1,.47C18.38,44.75,18.34,45.23,18.65,45.24Zm-2.71,1.81a1.34,1.34,0,0,0-1.36.27c-.26.2.08.6.34.39a1.28,1.28,0,0,1,.93-.24A.22.22,0,0,0,15.94,47.05Zm2.2-4.45a9.7,9.7,0,0,0-2.05.42c-.33.08-.24.61.1.53a9.86,9.86,0,0,0,2-.54C18.39,42.92,18.36,42.59,18.14,42.6ZM16,41a4.53,4.53,0,0,1,1.83-.28c.22,0,.34-.33.09-.41a2.85,2.85,0,0,0-2.14.22A.26.26,0,0,0,16,41Zm-2.49-4.44c-.36.22-.11.81.29.61a4.47,4.47,0,0,1,1.29-.34.25.25,0,0,0,0-.47A1.76,1.76,0,0,0,13.49,36.59Zm5.2-.75a14.2,14.2,0,0,0-2.59.46c-.35.08-.26.62.09.55a15,15,0,0,0,2.57-.62C18.94,36.16,18.89,35.83,18.69,35.84ZM15.92,38a19.74,19.74,0,0,0,2.26-.71.21.21,0,0,0-.13-.4,16.84,16.84,0,0,0-2.21.62C15.53,37.6,15.61,38.1,15.92,38Zm2.21-4.88a9.1,9.1,0,0,0-3.21.73c-.3.12-.09.57.21.45a19.76,19.76,0,0,1,3-.8C18.35,33.46,18.36,33.11,18.13,33.12Zm-3.06-1.07a15.15,15.15,0,0,0,2.23-.31c.21-.06.24-.42,0-.42a15,15,0,0,0-2.3.25C14.67,31.61,14.76,32.09,15.07,32.05ZM17,29.26a7.48,7.48,0,0,0,1.4.25.21.21,0,0,0,.09-.4A8,8,0,0,0,17,28.76C16.71,28.69,16.66,29.2,17,29.26Zm2.73-.83a.21.21,0,0,0,.2-.37,12.23,12.23,0,0,0-1.71-.92c-.31-.15-.48.35-.19.5A11.36,11.36,0,0,0,19.71,28.43Zm1.37-4.63a.48.48,0,0,0,.1.92c.18,0,.27-.24.12-.34s-.05-.09,0-.11C21.61,24.14,21.38,23.68,21.08,23.8Zm1.07,1.52c-.16-.15-.43.07-.27.23A9.7,9.7,0,0,0,23,26.72c.18.13.38-.12.26-.29A10.78,10.78,0,0,0,22.15,25.32Zm.27-2A18.49,18.49,0,0,0,24.17,25c.19.14.4-.11.27-.29A17.64,17.64,0,0,0,22.79,23C22.57,22.8,22.2,23.1,22.42,23.32Zm2.9-.23c.22.11.33-.22.18-.36a3,3,0,0,1-1-1.53c-.07-.28-.5-.2-.43.07A2.7,2.7,0,0,0,25.32,23.09ZM26,19.65a4.32,4.32,0,0,0,.36.58c.12.16.43,0,.37-.17a4.91,4.91,0,0,0-.26-.63C26.34,19.12,25.85,19.35,26,19.65Zm2.37,4c.2.1.34-.18.23-.33A3.37,3.37,0,0,1,27.86,22a.24.24,0,0,0-.47.08A2.21,2.21,0,0,0,28.38,23.67ZM30.29,22a8.22,8.22,0,0,1-1.05-2.22c-.07-.3-.55-.22-.48.09A4.75,4.75,0,0,0,30,22.23C30.1,22.38,30.42,22.22,30.29,22Zm2.31-2.38a1.46,1.46,0,0,0,0-.69c0-.31-.5-.27-.54,0a1.3,1.3,0,0,0,.06.68C32.22,19.85,32.54,19.81,32.6,19.63ZM33,21.17c-.08-.3-.56-.22-.48.09a6.75,6.75,0,0,0,.32,1.17c.11.23.42.09.41-.13A7.36,7.36,0,0,0,33,21.17Zm2.46.63c0-1-.17-2.09-.26-3.13,0-.24-.39-.17-.37.07.08,1,.11,2.06.26,3.08C35.07,22,35.41,22,35.41,21.8Zm1.76-2.55a2.56,2.56,0,0,0,0,.62.21.21,0,0,0,.42,0,2.54,2.54,0,0,0,0-.55C37.64,19,37.17,18.94,37.17,19.25Zm0,2.52c0,.48,0,1,0,1.45,0,.21.36.19.37,0,0-.46,0-.92,0-1.39C37.62,21.54,37.2,21.5,37.2,21.77Zm3.06-1.68a2.67,2.67,0,0,1-.49,1.59.19.19,0,0,0,.31.22,2.91,2.91,0,0,0,.62-1.77C40.7,19.85,40.26,19.81,40.26,20.09Zm2.28,3.14a18.21,18.21,0,0,0,.68-1.92c.1-.3-.37-.48-.47-.17a20,20,0,0,0-.6,2C42.1,23.38,42.45,23.43,42.54,23.23Zm3.84-1.1c-.28,0-.32.43,0,.43S46.65,22.13,46.38,22.13ZM47.62,25a14.77,14.77,0,0,0,1.2-1.42c.21-.27-.23-.58-.45-.31a14.88,14.88,0,0,0-1.08,1.43C47.17,24.94,47.43,25.22,47.62,25Zm-3-2a4.57,4.57,0,0,0,.83-1.21.24.24,0,0,0-.38-.26,4.58,4.58,0,0,0-.9,1.15A.28.28,0,0,0,44.61,23.06Zm5.13,3.57a8,8,0,0,0-2,.43c-.35.1-.26.64.1.56a8.16,8.16,0,0,0,2-.55C50,27,50,26.64,49.74,26.63Zm-.2,2.94A4,4,0,0,0,50.71,29a.23.23,0,0,0-.19-.4,4,4,0,0,0-1.23.46A.29.29,0,0,0,49.54,29.57Zm2-.87a5.84,5.84,0,0,0,1.43-.62c.17-.12,0-.38-.17-.35a5.66,5.66,0,0,0-1.47.54C51,28.39,51.2,28.79,51.49,28.7Zm-2.22-2.76A8.79,8.79,0,0,0,50.69,25a.22.22,0,0,0-.23-.36,8.31,8.31,0,0,0-1.42.8C48.76,25.64,49,26.11,49.27,25.94Zm4.1,6.24a13.43,13.43,0,0,0-2.29.32.25.25,0,0,0,.08.49,13.73,13.73,0,0,0,2.22-.38C53.59,32.54,53.63,32.18,53.37,32.18Zm-1.22,2.87c-.24-.24-.64.09-.4.33a3.54,3.54,0,0,0,2.14,1.18.21.21,0,0,0,.09-.41A6.2,6.2,0,0,1,52.15,35.05Zm-.78,3.77a2.59,2.59,0,0,0,.62,0,.22.22,0,0,0,0-.43,3.38,3.38,0,0,0-.55,0C51.09,38.31,51,38.83,51.37,38.82Zm1.68,1.1a2.78,2.78,0,0,1,1.29.51.22.22,0,0,0,.29-.32,2,2,0,0,0-1.54-.67C52.79,39.43,52.74,39.9,53.05,39.92Zm1.09,3a.21.21,0,0,0,.19-.37,16.87,16.87,0,0,0-2.25-1.23c-.26-.13-.49.32-.23.46A16.28,16.28,0,0,0,54.14,42.92ZM52.6,47.05A.21.21,0,0,0,53,47a3,3,0,0,0-1.8-2.49c-.3-.15-.47.33-.18.48a2.87,2.87,0,0,1,1,.94A7.34,7.34,0,0,1,52.6,47.05Zm-1.28,2.33a11.64,11.64,0,0,0-.51-1.14.26.26,0,0,0-.46.22A11.36,11.36,0,0,0,51,49.6C51.11,49.82,51.39,49.58,51.32,49.38Zm-5.1,5.92a15.74,15.74,0,0,0-1.42-1.73.22.22,0,0,0-.33.28,14.74,14.74,0,0,0,1.47,1.68C46.08,55.65,46.32,55.45,46.22,55.3Zm1.14-1.18c.19.15.42-.12.28-.3a11.1,11.1,0,0,0-.82-.86c-.22-.22-.59.09-.37.31A10.41,10.41,0,0,0,47.36,54.12Zm-5.51.28c-.13-.3-.54-.08-.45.21.16.48.33,1,.5,1.43s.7.1.55-.26S42.06,54.85,41.85,54.4Zm-5.6,3.21a2.6,2.6,0,0,0-.33-1.79.2.2,0,0,0-.36.17,2.82,2.82,0,0,1,.18,1.57C35.68,57.89,36.2,57.94,36.25,57.61Zm-2.46-.55a7.25,7.25,0,0,0-.06-2c-.06-.2-.39-.29-.46,0a6.76,6.76,0,0,0-.08,2C33.2,57.39,33.79,57.45,33.79,57.06Zm-3.87-2a15.1,15.1,0,0,0-.05,2.23c0,.34.53.39.53,0a16.06,16.06,0,0,0,0-2.3A.22.22,0,0,0,29.92,55.05Zm-2.31-.37c-.14.33.38.52.51.19A11,11,0,0,0,29,52.59c.05-.23-.28-.33-.4-.15A11.15,11.15,0,0,0,27.61,54.68Zm-1.52-4a2.94,2.94,0,0,0-.69,2.09c0,.32.5.38.5,0A5.33,5.33,0,0,1,26.42,51C26.49,50.77,26.24,50.57,26.09,50.72ZM23.4,48.86c.29,0,.33-.44,0-.44S23.11,48.86,23.4,48.86Z"/></g></g></svg>