<svg xmlns="http://www.w3.org/2000/svg" viewBox="0 0 37.58 66.58"><defs><style>.cls-1{fill:#c3b8aa;}.cls-2{fill:#cea03e;}.cls-3{fill:#5daec5;}.cls-4{fill:#260029;}</style></defs><g id="Layer_2" data-name="Layer 2"><g id="_"><path class="cls-1" d="M21.51,46.78A59.8,59.8,0,0,0,35.45,65.87c.76-15.26-4.45-30.2-10.89-44.06a4,4,0,0,0-1-1.51,3.14,3.14,0,0,0-1.62-.55,8.33,8.33,0,0,0-6.39,2.12c-2.6,2.34-1.81,3.95-.85,7A130.13,130.13,0,0,0,21.51,46.78Z"/><path class="cls-2" d="M19.45.87c3.44,4.23,6.88,9.48,10,13.93a5,5,0,0,1,.84,2.34A14.55,14.55,0,0,1,30,23a46.77,46.77,0,0,0-1.22,7.17A39.53,39.53,0,0,1,23.39,17q-.72-4.12-1.72-8.21C21.16,6.67,20.8,2.53,19.45.87Z"/><path class="cls-2" d="M.87,8.8A87.44,87.44,0,0,0,4.16,23.5a14.24,14.24,0,0,0,1.23,3.24,12.24,12.24,0,0,0,2.76,3,58.54,58.54,0,0,0,8.34,6c-.46-.27-.81-3.59-1-4.23-.38-1.34-.85-2.64-1.33-3.94-.62-1.65-1-3.31-2.34-4.52C8,19.47,4.4,13.66.87,8.8Z"/><path class="cls-2" d="M34.6,51.7a5.38,5.38,0,0,0,2.65-.92c-.47.32-.46,4.36-.54,5a49.09,49.09,0,0,1-.8,5.12C34.61,58.83,35,54.22,34.6,51.7Z"/><path class="cls-2" d="M26.94,56.53a1.35,1.35,0,0,1,.46.46,42.68,42.68,0,0,0,5.7,6.59c-1.52-1.44-4.12-2-5.79-3.48-.56-.48-2.1-1.63-2.18-2.42A1.21,1.21,0,0,1,26.94,56.53Z"/><path class="cls-3" d="M30.13,49c0-.38-.45-.61-.83-.63a1.6,1.6,0,0,0-1.62,1.74,1.51,1.51,0,0,0,2.06,1.1A1.43,1.43,0,0,0,30,48.92Z"/><path class="cls-3" d="M27.79,43.31c0-.38-.45-.61-.83-.63a1.61,1.61,0,0,0-1.62,1.74,1.52,1.52,0,0,0,2.06,1.11,1.44,1.44,0,0,0,.28-2.28Z"/><path class="cls-3" d="M25.29,37c0-.38-.45-.61-.83-.63a1.61,1.61,0,0,0-1.62,1.74,1.51,1.51,0,0,0,2.06,1.1,1.43,1.43,0,0,0,.28-2.27Z"/><path class="cls-4" d="M36.05,66.28c1-15.9-5.22-31.92-12-46a.36.36,0,0,0-.65.31C30.34,35,35.65,50.1,35.62,66.24,35.62,66.51,36,66.56,36.05,66.28Z"/><path class="cls-4" d="M36,66C23.35,55.75,18.87,39.68,13.54,25c-.19-.51-.93-.14-.76.36C17.7,40,22.74,56.85,35.66,66.52,36,66.76,36.32,66.26,36,66Z"/><path class="cls-4" d="M23.47,19.88c-4.35-1.94-9.56,1.27-11,5.47a.36.36,0,0,0,.67.25,9.53,9.53,0,0,1,4.23-4.73c2-1,3.89-.73,6-.56A.22.22,0,0,0,23.47,19.88Z"/><path class="cls-4" d="M36.08,60.54c.75-3.12,1.05-6.3,1.5-9.48a.34.34,0,0,0-.49-.33,18.12,18.12,0,0,1-2,.49c-.44.11-.33.79.12.7a5.92,5.92,0,0,0,2.17-.58L36.9,51c0,3.18-.81,6.32-1.19,9.46C35.68,60.67,36,60.76,36.08,60.54Z"/><path class="cls-4" d="M33.5,59.64a7.17,7.17,0,0,0-.76-2.5c-.48-1.22-1-2.44-1.48-3.64-.19-.43-.84-.12-.67.31.44,1.09.9,2.16,1.34,3.25a14.11,14.11,0,0,1,1,2.6C33,60,33.5,60,33.5,59.64Z"/><path class="cls-4" d="M31.79,62.69a36.33,36.33,0,0,1-3.74-2.25,32.31,32.31,0,0,1-3.3-3.32.28.28,0,0,0-.46.3,8.53,8.53,0,0,0,3,3.31,16.74,16.74,0,0,0,4.25,2.42C31.82,63.24,32.05,62.84,31.79,62.69Z"/><path class="cls-4" d="M26.6,56.16a16.85,16.85,0,0,0-2.14.58.24.24,0,0,0,0,.44c.66.31,1.69-.2,2.28-.51C27,56.53,26.91,56.07,26.6,56.16Z"/><path class="cls-4" d="M28.65,30.74a79.44,79.44,0,0,0,2.11-13.88.33.33,0,0,0-.65-.06C29.76,21.47,29,26,28.23,30.64,28.19,30.88,28.59,31,28.65,30.74Z"/><path class="cls-4" d="M30.68,16.39A53.23,53.23,0,0,0,19.23.15c-.3-.28-.8.11-.5.43a72.23,72.23,0,0,1,11.51,16A.24.24,0,0,0,30.68,16.39Z"/><path class="cls-4" d="M24.24,20.44A79.82,79.82,0,0,0,19.66.22c-.16-.46-.84-.13-.68.33A103.84,103.84,0,0,1,22.27,13a57.79,57.79,0,0,0,1.6,7.61C24,20.78,24.25,20.64,24.24,20.44Z"/><path class="cls-4" d="M16.93,35.45C12.44,33.44,9,30,5.38,26.73c-.27-.23-.67.2-.42.47a52.18,52.18,0,0,0,6.28,5.5c1.32,1,3.78,3.4,5.65,3.14A.21.21,0,0,0,16.93,35.45Z"/><path class="cls-4" d="M13.06,24.62c-4.23-5.08-8-10.45-11.78-15.87C1,8.36.46,8.84.72,9.22A158.78,158.78,0,0,0,12.63,25,.28.28,0,0,0,13.06,24.62Z"/><path class="cls-4" d="M5.41,27.29C3.65,21.08,2.21,14.81.69,8.54c-.11-.43-.78-.31-.68.12C1.49,15,3,21.28,5,27.43,5,27.69,5.48,27.55,5.41,27.29Z"/><path class="cls-4" d="M22.42,32.17C18.65,23,14.33,13.5,9.71,4.69c-.13-.25-.6-.14-.51.16C12,14.28,17.3,23.76,22,32.37A.24.24,0,0,0,22.42,32.17Z"/><path class="cls-4" d="M31,50.6a2.43,2.43,0,0,0-1.25-2.36,1.53,1.53,0,0,0-1.86.63,2.23,2.23,0,0,0-.29,1.26,3.44,3.44,0,0,0,.15.85,1.2,1.2,0,0,0,.69.65,1.22,1.22,0,0,0,1.38,0,3.11,3.11,0,0,0,.88-1.32.23.23,0,0,0-.35-.25,3.5,3.5,0,0,0-.7.91c-.29.39-.57.38-1,.17a1.18,1.18,0,0,1-.59-1.23,1.57,1.57,0,0,1,.28-.9,1.07,1.07,0,0,1,1.32-.33,2.19,2.19,0,0,1,.95,1.95A.19.19,0,0,0,31,50.6Z"/><path class="cls-4" d="M27.52,46.08A2.18,2.18,0,0,0,28.24,44,3.32,3.32,0,0,0,26,42.12a.31.31,0,0,0-.4.18,4.2,4.2,0,0,0-.52,1.64,5.89,5.89,0,0,0,.25,1.38c.23,1.06,2,.69,2.57.13a.25.25,0,0,0-.21-.43,2.35,2.35,0,0,0-.73.21,1.69,1.69,0,0,1-1.17-.07l.2.24a11.74,11.74,0,0,1-.28-1.31,3.33,3.33,0,0,1,.47-1.58l-.4.19a2.91,2.91,0,0,1,1.84,1.36,1.91,1.91,0,0,1-.45,1.73C27.07,46,27.35,46.26,27.52,46.08Z"/><path class="cls-4" d="M25.29,39.13a1.59,1.59,0,0,0,.39-2,2.35,2.35,0,0,0-1.68-1c-.49-.07-1.19,0-1.39.55A2.83,2.83,0,0,0,22.68,38,3.08,3.08,0,0,0,23,39.12c.57.88,1.83.56,2.59.15.32-.17.18-.74-.2-.63-.59.17-1.55.73-1.93,0a4.07,4.07,0,0,1-.27-1.29c0-.25-.11-.4.13-.51a1.8,1.8,0,0,1,1.5.31c.66.47.47,1.09.1,1.7C24.81,39,25.09,39.33,25.29,39.13Z"/><path class="cls-4" d="M35.44,62.25a3.57,3.57,0,0,0-2.64.89.26.26,0,0,0,.34.4,3.8,3.8,0,0,1,2.26-.81A.24.24,0,0,0,35.44,62.25Z"/><path class="cls-4" d="M35.45,65.22c.12-.68.43-1.32.57-2l-.62-.06c-.09.67-.13,1.35-.19,2l.68-.12a9,9,0,0,0-1.59-2.24l-.5.55.65.39a.39.39,0,0,0,.53-.09l.39-.66c.16-.26,0-.69-.38-.6s-1.23.32-1.37.85a.42.42,0,0,0,.14.46.66.66,0,0,0,.67.15c.24-.07.42-.32.67-.34L34.65,63a3.85,3.85,0,0,0-.2,2.59l.45-.49c-.57-.09-1-.93-1.31-1.34s-1,.13-.65.56a6.09,6.09,0,0,0,1.33,1.53.45.45,0,0,0,.66-.55c-.17-.37-.38-.71-.56-1.06s-.27-.67-.41-1a.34.34,0,0,0-.63,0c-.35.82.48,1.7.8,2.41l.65-.55a5.59,5.59,0,0,1-1.19-1.37l-.65.56c.53.64,1,1.48,1.89,1.61a.42.42,0,0,0,.45-.49,3.09,3.09,0,0,1,.13-2.16.41.41,0,0,0-.45-.54,1.12,1.12,0,0,0-.43.16l-.19.13a.27.27,0,0,1-.1.06c-.06,0-.07,0,0,0,.05.15.09.3.14.46,0-.18.58-.32.76-.37l-.38-.6c-.13.22-.26.44-.38.66l.53-.09-.66-.39c-.35-.2-.8.21-.5.55a9.23,9.23,0,0,1,1.51,2.07.36.36,0,0,0,.68-.12c0-.68.09-1.36.1-2,0-.4-.62-.46-.62-.06,0,.7-.34,1.33-.39,2A.22.22,0,0,0,35.45,65.22Z"/><path class="cls-4" d="M35.6,62.34A.94.94,0,0,0,35,61.9a1.45,1.45,0,0,0-.76.18,3,3,0,0,0-1.47,1.52c-.07.17.14.41.32.29.5-.32,1.51-1.82,2.23-1.21C35.49,62.85,35.76,62.54,35.6,62.34Z"/><path class="cls-4" d="M34.53,62.93a2.23,2.23,0,0,0-.42.39c-.07.11-.25,0,0,.13s.14,0,.06-.14a.23.23,0,0,0-.4,0c-.15.25-.17.66.2.73s.64-.48.85-.7A.25.25,0,0,0,34.53,62.93Z"/></g></g></svg>