<svg xmlns="http://www.w3.org/2000/svg" viewBox="0 0 20.48 20.77"><defs><style>.cls-1{fill:#c28037;}.cls-2{fill:#260029;}</style></defs><g id="Layer_2" data-name="Layer 2"><g id="_"><path class="cls-1" d="M1.13,6.51A8.76,8.76,0,0,1,8.61,1a12.11,12.11,0,0,1,3.17.37A11.44,11.44,0,0,1,15.54,2.8,11.54,11.54,0,0,1,19,6.7a8.64,8.64,0,0,1,1.49,4.6c-.07,2.15-1.48,4-3,5.5a10.54,10.54,0,0,1-4.21,2.7,10.44,10.44,0,0,1-3.78.28A9.73,9.73,0,0,1,1.13,6.51Z"/><path class="cls-2" d="M17.22,2.91C13.76-.48,5.31-1.61,3.12,3.39-.35,5.66-.81,11.59,1.17,15.3a10,10,0,0,0,15.15,3.3A10.22,10.22,0,0,0,17.22,2.91Zm-1.5,14.2a8.79,8.79,0,0,1-12.43-.8C.6,13.27,0,7.72,2.7,4.88c0,.19-.08.36-.1.56a.45.45,0,0,0,.82.3,10,10,0,0,1,2-2.42A8,8,0,0,1,6.91,3.1c.36,0,.33-.6,0-.63H6.68C14-1.57,24.11,10.06,15.72,17.11ZM6,12.37A2.55,2.55,0,0,1,3.91,9.5c.06-.38-.53-.43-.59-.06A3,3,0,0,0,6,12.94.29.29,0,0,0,6,12.37Zm-.13-2A3.28,3.28,0,0,1,5.48,8.7a.31.31,0,0,0-.61-.06c-.14,1.23.48,3.11,1.84,3.46.26.07.56-.24.33-.48A6.6,6.6,0,0,1,5.89,10.41ZM11.05,6.7c-.37-.32-.8.3-.43.61,1.21,1.06,1.3,2.31,1.4,3.8,0,.31.49.31.59.05C13.21,9.6,12.21,7.71,11.05,6.7Zm2.64.16a.35.35,0,0,0-.65.21c.16.61.36,1.2.54,1.8a8.58,8.58,0,0,0,.59,1.63.33.33,0,0,0,.61-.2,8.23,8.23,0,0,0-.47-1.66C14.11,8,13.92,7.45,13.69,6.86ZM11.63,15.7a20,20,0,0,0-3.17-.84c-.42-.11-.67.53-.24.65a19.78,19.78,0,0,0,3.27.81A.32.32,0,0,0,11.63,15.7Zm-1.57-2.52c-.42-.21-.66.47-.25.68a8.73,8.73,0,0,0,1.61.75.31.31,0,0,0,.28-.54A9,9,0,0,0,10.06,13.18ZM7.22,6.25a4.39,4.39,0,0,0,0,.89.33.33,0,0,0,.64,0,4.14,4.14,0,0,0,0-.79C8,5.85,7.22,5.78,7.22,6.25Zm9,5.46a9.35,9.35,0,0,0-.91,2.43.36.36,0,0,0,.67.25,9.44,9.44,0,0,0,.85-2.46A.34.34,0,0,0,16.18,11.71ZM9.83,3.51c.6.18,1.21.35,1.82.51a5.39,5.39,0,0,0,1.53.3c.28,0,.34-.44.13-.57a5,5,0,0,0-1.51-.5c-.57-.16-1.14-.3-1.71-.44S9.37,3.36,9.83,3.51Z"/></g></g></svg>