<svg xmlns="http://www.w3.org/2000/svg" viewBox="0 0 53.34 50.7"><defs><style>.cls-1{fill:#2b609b;}</style></defs><g id="Layer_2" data-name="Layer 2"><g id="_"><path class="cls-1" d="M.79,15.64c-.95,0-1.1,1.47-.14,1.47S1.74,15.64.79,15.64ZM33.73,46.87C47.39,44.65,53,30.13,48.34,17.94,43.89,6.26,27.84-2.15,16.28,5.12a1.09,1.09,0,0,0-.46.58,22.25,22.25,0,0,0-11.25,23C6.84,41.69,21.53,48.85,33.73,46.87Zm2.43-17.3-.11.19.11-.22Zm.76-3.25s0-.07,0-.11l.06.06Zm.48,16.94a2.82,2.82,0,0,0,.18-.29.88.88,0,0,0,.2.09Zm1.46-.75a.77.77,0,0,0,0-.3l.21.12h.07C39.08,42.4,39,42.45,38.86,42.51ZM46,34.23a16.57,16.57,0,0,1-6.1,7.67.53.53,0,0,0,0-.37c-1-2.15-2.32-4.09-.9-6.48s4.38-2.77,6.69-1.77A.7.7,0,0,0,46,34.23ZM33,6.67a20.63,20.63,0,0,1,12.11,10.4l.14.3a.85.85,0,0,0-.35.42,1,1,0,0,0-.47,0c-4.16.76-10.41,1.28-13-3C30.06,12.36,30.23,8.09,33,6.67Zm-6.3-1-.16.17-.48-.17Zm-3.43,12.4,0,.06-.06.11ZM22,31.08h.12l.15.21a3.07,3.07,0,0,0-.31-.17ZM8.5,23.88l-.06-.19c-.56-2.28.18-4.8.62-7A.49.49,0,0,0,9,16.31c.22-.7.45-1.41.74-2.11,2.07-5,8.51-2.95,9.34,1.75a7.18,7.18,0,0,1,.11,1.47c-.26,1.13-.54,2.25-.82,3.38a7.81,7.81,0,0,1-5.55,4.5A4.4,4.4,0,0,1,8.5,23.88ZM23.2,44.06l.18,0a.25.25,0,0,0,0,.08Zm-2.66-2c-2.25-.53-3.86-2.1-5.4-3.73a10,10,0,0,1-.94-2c-.56-1.68.6-3.06,2-3.93a6.68,6.68,0,0,1,1.87-.7,16.32,16.32,0,0,1,7.11,4.25C28.37,39.58,24.27,43,20.54,42.11Zm5.15-16.77.06-.1A10.2,10.2,0,0,1,26.85,23a.85.85,0,0,0,.71-.15c4.26-3,10,2.32,6.57,6.67S24.84,29.88,25.69,25.34Zm27.38-.18a.39.39,0,0,0-.77,0c-.28,2.28-.43,4.61-.89,6.86a51.93,51.93,0,0,1-2.47,7.31.53.53,0,0,0,.93.49A20.9,20.9,0,0,0,53.07,25.16ZM3.9,18.64a23.9,23.9,0,0,1,4-8.52c1.8-2.4,4.23-3.94,6.15-6.14a.51.51,0,0,0-.5-.79C7.67,5.06,4,12.83,3,18.43,2.92,18.94,3.77,19.14,3.9,18.64ZM18.77,1.45a3.09,3.09,0,0,1,.95-.24A2,2,0,0,0,20.61,1,.49.49,0,0,0,20.68.2C20-.27,19,.2,18.34.55A.5.5,0,0,0,18.77,1.45ZM41.05,46.52c-2.9,1-5.43,2.39-8.56,2.74A35.58,35.58,0,0,1,23,48.61c-.64-.1-.7.85-.09,1,6,1.33,13.71,2.28,18.66-2.26A.49.49,0,0,0,41.05,46.52Zm4-2.57a2.83,2.83,0,0,0-1.19.72c-.58.44.15,1.29.73.86a2.66,2.66,0,0,0,1-1C45.76,44.24,45.4,43.9,45.07,44ZM34.3,2.16a32.05,32.05,0,0,1,6.83,3.89c2.13,1.61,3.73,3.65,5.67,5.44.31.29.92,0,.68-.44C45,6.37,39.46,3,34.64,1.25A.49.49,0,0,0,34.3,2.16ZM3,31.6c-.2-.63-1.23-.29-1.1.35.81,3.84,3.6,7.15,6.82,9.29.42.28.95-.27.6-.66C6.83,37.75,4.23,35.31,3,31.6ZM13,43.41c-.5-.24-.95.6-.46.87a4.9,4.9,0,0,0,1.19.54.43.43,0,0,0,.39-.75A4.65,4.65,0,0,0,13,43.41Z"/></g></g></svg>