<svg xmlns="http://www.w3.org/2000/svg" viewBox="0 0 43.74 40.77"><defs><style>.cls-1{fill:#067e82;}.cls-2{fill:#260029;}</style></defs><g id="Layer_2" data-name="Layer 2"><g id="_"><path class="cls-1" d="M7.81,32.55a11.31,11.31,0,0,1-2.93-5.5,30,30,0,0,1-.72-9.25A16.59,16.59,0,0,1,7.38,9.18C10.71,4.91,16.27,3,21.63,2.28a13.86,13.86,0,0,1,5.3.78c2.1.55,4.35,2.34,6,3.75,2.06,1.77,3.65,2.53,5.15,4.8a14.36,14.36,0,0,1,2.56,7.61A14.48,14.48,0,0,1,40.15,23,20.14,20.14,0,0,1,25.7,37.25C19.87,38.67,12.1,37.09,7.81,32.55Z"/><path class="cls-2" d="M16.31,3.32C1.67,5.55-1.39,29.34,11,36.52c13.75,8,34.69-5.61,29.37-21.88C37.49,5.84,22.87-2.31,14.82,3.77a.43.43,0,0,0,.46.71C25.28-.95,41,9.64,39.63,21.09c-1,8.37-8.49,15.5-16.75,16.56-9.35,1.19-17.1-4.4-18.33-13.71C3.41,15.31,7.21,5.87,16.43,4A.36.36,0,0,0,16.31,3.32Z"/><path class="cls-2" d="M9,14.94a6.67,6.67,0,0,0-1,5.45c.26,1.23,1,3,2.46,3,1.73,0,3.19-2.31,3.53-3.76.6-2.54-1.07-5.06-3.24-6.24a.51.51,0,0,0-.59,0c-.7.47-.6.81-.92,1.5-.22.47.44.7.73.38s.4-.84.82-1.13l-.6,0a5.4,5.4,0,0,1,3.07,5c-.11,1.17-1.57,4-3.16,3.4-1.07-.37-1.41-2.1-1.52-3.06a6.87,6.87,0,0,1,.85-4.33A.27.27,0,0,0,9,14.94Z"/><path class="cls-2" d="M10.3,15.22C8.38,16.32,9.07,20.3,9.56,22a.47.47,0,0,0,.76.28,5.91,5.91,0,0,0,1.46-7.36.54.54,0,0,0-.84-.18,5.81,5.81,0,0,0-1,7.42.57.57,0,0,0,1,.08,5.93,5.93,0,0,0,0-7.48.6.6,0,0,0-.84-.07c-1.67,1.76-2.75,5-.23,6.67s3.18-1.67,2.79-3.45-2.25-2.7-3.6-1.1C7.43,18.64,8.58,20.93,10.5,22a.64.64,0,0,0,.89-.16c1.28-2.24,1.38-4.33-.44-6.29a.67.67,0,0,0-.93-.08c-.92,1-1.92,2.21-1.66,3.63s1.78,2.21,3.12,2.59a.69.69,0,0,0,.9-.76A8.55,8.55,0,0,0,11,16.77a.69.69,0,0,0-1.2.38,11.52,11.52,0,0,0,.49,3.74.69.69,0,0,0,1.26-.05,6.92,6.92,0,0,0,0-3.75c-.18-.7-1.37-.77-1.37.06v3c0,.74,1.06,1.09,1.34.31a33.22,33.22,0,0,0,1.31-4c.17-.81-1-1-1.35-.31a12.58,12.58,0,0,0-.89,5.26.71.71,0,0,0,1.36.31,8.12,8.12,0,0,0,1.31-4,.7.7,0,0,0-1.4-.13,7.23,7.23,0,0,1-.57,2.56,6.52,6.52,0,0,1-1.73,1.62A.72.72,0,0,0,10.14,23c2-.5,2.58-1.79,3.72-3.34a.56.56,0,0,0-.81-.74c-1.12.95-1.62,2.31-3.15,2.69l.58,1.23a7.59,7.59,0,0,0,2.07-2.08,9.06,9.06,0,0,0,.71-3.05l-1.4-.13a7.5,7.5,0,0,1-1.23,3.63l1.36.31a11.39,11.39,0,0,1,.8-4.9l-1.35-.31a31.1,31.1,0,0,1-1.22,3.64l1.34.3c0-1,0-2,0-3l-1.36,0a5.48,5.48,0,0,1,0,3l1.27-.06a9.63,9.63,0,0,1-.37-3l-1.2.38A7.23,7.23,0,0,1,11,21.14l.91-.75c-.84-.24-2-.56-2.26-1.55s.62-1.8,1.18-2.39l-.93-.08c1.4,1.5,1.38,3,.4,4.71l.9-.16c-1.1-.59-2.16-1.63-1.51-3,.38-.78,1.16-1.18,1.57-.23.33.78.49,3.52-.93,2.45-1.62-1.21-.61-3.48.46-4.63L10,15.48a4.76,4.76,0,0,1,0,6.06l1,.09c-1.14-2.05-1.15-4.48.69-6.12l-.84-.18a4.84,4.84,0,0,1-1.08,6.18l.76.28A10.34,10.34,0,0,1,10,18.34c0-.73,0-2.05.64-2.56C10.94,15.54,10.64,15,10.3,15.22Z"/><path class="cls-2" d="M16.63,9.26c-.82.32-1.84,1.08-1.88,2a2.11,2.11,0,0,0,.64,1.47c.32.36.73.84,1.25.88.87.06,1.69-.78,2.24-1.34a15.07,15.07,0,0,0,1.35-1.53.59.59,0,0,0-.14-.81c-1-.61-2.57-1.46-3.78-.9s-1,2.42-.48,3.42c.65,1.27,1.69-.63,2-1.14a3.56,3.56,0,0,0,.52-1.24.64.64,0,0,0-1.07-.56l.75,0c-1-.74-2.14.81-2.24,1.72a.63.63,0,0,0,1,.53c.73-.66,1.7-.9,2.23-1.81a.63.63,0,0,0-.92-.83c-.6.48-1.64,1.11-1.92,1.85a.68.68,0,0,0,1,.84c.34-.16.62-.46,1-.6,0,0,.28-.06,0,0,.08,0,.24,0,.34,0a.35.35,0,0,0,.38-.41.83.83,0,0,0-.75-.83c-.6-.06-1.24.53-1.7.84l.47-.15.25.09.26.41c.06.33-.12.38.18.08s.38-.35.58-.52l.77-.65L18,9.24c-.45.78-1.36,1-2,1.58l1,.53a.94.94,0,0,1,.19-.42c0-.08.13-.15.17-.23.11-.24.22,0-.07-.18a.63.63,0,0,0,.76,0l-.4.11-.5-.35c-.13-.22.08-.49-.09-.21a3.88,3.88,0,0,0-.15.36c-.12.25-.24.49-.37.73s-.42.49-.43.65c0-.33.82.5.87.25s-.22-.66-.27-.87c-.11-.55-.17-1.06.5-1.05a5,5,0,0,1,2.22.81c-.05-.27-.1-.54-.14-.81a9,9,0,0,1-2.2,2.31,1,1,0,0,1-.31.15c-.16,0,0,0-.07,0a2,2,0,0,1-1-1.14c-.1-.68.9-1.14,1.29-1.55A.37.37,0,0,0,16.63,9.26Z"/><path class="cls-2" d="M10.89,9.38c-.45,0-.89,0-1.33,0-.24,0-.22.41,0,.43.42,0,.84,0,1.27,0C11.12,9.8,11.17,9.39,10.89,9.38Z"/><path class="cls-2" d="M10.33,9.81c.37-.46.66-1,1-1.45A4.14,4.14,0,0,1,13.2,7.09l-.7-.63A8.06,8.06,0,0,1,9.38,10l.7.64a4.8,4.8,0,0,1,1.59-2.13,7.62,7.62,0,0,0,1.57-1.26.31.31,0,0,0-.31-.48,5.89,5.89,0,0,0-3.81,3.51c-.17.39.31.88.7.64a9,9,0,0,0,2.32-1.84,11.25,11.25,0,0,0,1.32-2.25c.21-.43-.33-.79-.7-.64a5.27,5.27,0,0,0-2.1,1.44,10,10,0,0,0-1,1.85C9.46,9.87,10.08,10.13,10.33,9.81Z"/><path class="cls-2" d="M26.41,9.05a9.42,9.42,0,0,1,4.73,2.42,6.39,6.39,0,0,1,2,3.36c0,.42.09.29-.14.32a2.94,2.94,0,0,1-1.34-.56,19.1,19.1,0,0,1-6.07-5.52c-.24-.32-.26-.32.1-.25a21.4,21.4,0,0,0,2.55.69.34.34,0,0,0,.22-.62c-.63-.57-3.62-1.91-3.95-.31C24.22,9.79,26,11.3,26.72,12s7,6.41,7.4,3.2c.15-1.27-.9-2.79-1.63-3.68a8.56,8.56,0,0,0-5.93-3.1C26.21,8.4,26.05,9,26.41,9.05Z"/><path class="cls-2" d="M26,10.66c.23-.37.13-1.08.31-1.33s1.29,1.8,1.48,2.17l.9-.43c-.5-.88-1.17-1.66-1.68-2.54l-.76.64a25.29,25.29,0,0,1,4.54,4.59l.72-.8c-1.15-.81-2.22-1.74-3.38-2.55-.5-.35-1.2.36-.74.81a19,19,0,0,0,4.33,3.5.58.58,0,0,0,.77-.84c-1-1.44-2-2.82-2.95-4.25l-.91.77c1.18,1.23,2.2,2.59,3.38,3.82l.92-.78c-.84-.85-1.69-1.7-2.54-2.54-.54-.55-1.46.2-.92.78.89,1,1.65,2,2.54,3l.81-.89a45.61,45.61,0,0,0-7.34-5.14c-.13.37-.27.75-.41,1.13a9.89,9.89,0,0,1,5.59,4.77.61.61,0,0,0,.8.28,7.44,7.44,0,0,1,2.38-.41c.63-.05.57-1.07,0-1.11a6.19,6.19,0,0,0-2.85.44l.8.28a11,11,0,0,0-6.26-5.38c-.75-.27-1.08.78-.41,1.13a44,44,0,0,1,7.05,5c.54.43,1.28-.39.81-.89-.89-.95-1.64-2-2.54-3l-.92.78L32,14.22c.54.54,1.47-.22.92-.78-1.18-1.23-2.21-2.58-3.39-3.81a.6.6,0,0,0-.91.77c1,1.43,2,2.81,3,4.22l.77-.84a17.94,17.94,0,0,1-4.14-3.27l-.74.81c1.16.8,2.23,1.73,3.39,2.53a.54.54,0,0,0,.72-.8,26.05,26.05,0,0,0-4.77-4.73c-.4-.3-1,.2-.76.65.51.89,1.19,1.65,1.71,2.53.31.55,1.2.16.9-.43C28.1,10,27.45,8.24,26,8.3a.46.46,0,0,0-.34.29c-.28.56-.07,1.16-.35,1.72C25.14,10.69,25.76,11,26,10.66Z"/><path class="cls-2" d="M23.35,24.16c-.3.2-.7.2-1,.41a2.35,2.35,0,0,0-.84,1.4.4.4,0,0,0,.23.49,4.15,4.15,0,0,0,3.05.64A3.62,3.62,0,0,0,26.6,25a.51.51,0,0,0-.09-.53c-.13-.12-.67-.44-.7-.6a.57.57,0,0,0-.8-.41,3.07,3.07,0,0,0-1.89,2,.48.48,0,0,0,.65.6,1.54,1.54,0,0,0,.63-.68,2.08,2.08,0,0,1,1.1-.94l-.8-.41c.13.64.62.82,1.1,1.19-.07-.21-.13-.42-.2-.62-.2.61-.48,1.51-1.18,1.73s-1.76-.32-2.42-.64c.08.17.15.33.23.49A1.54,1.54,0,0,1,23.1,25a1.79,1.79,0,0,0,.68-.36A.33.33,0,0,0,23.35,24.16Z"/><path class="cls-2" d="M21,16.9A14.3,14.3,0,0,0,16.91,19c-.28.19-.16.57,0,.74,2.51,2.28,9.56,1.79,10.17-2.18.25-1.67-.71-5.29-3-4.69-2,.52-3.44,3.71-4,5.47a.5.5,0,0,0,.94.35c.75-1.44,1.37-3.24,2.64-4.32,2-1.7,3,2.84,1.89,4.19-1.54,1.94-6.3,2-8.12.42,0,.24,0,.49,0,.74a32.82,32.82,0,0,1,3.64-2.19C21.47,17.35,21.33,16.8,21,16.9Z"/><path class="cls-2" d="M20.89,17.36a4.73,4.73,0,0,1-2.06.67l.27.87c1.11-.49,2.31-.72,3.41-1.22L22,16.82a9.74,9.74,0,0,1-2,1.61.53.53,0,0,0,.45,1,15.69,15.69,0,0,0,4.38-2.16l-.84-.77c-.59.76-.69,1.79-1.28,2.54a.59.59,0,0,0,.58.9c1.3-.37,1.55-.89,2.39-1.82l-.85-.78a1.22,1.22,0,0,0,0,1.56.59.59,0,0,0,1-.32c0-1.77-.14-2.94-1.41-4.25a.6.6,0,0,0-1,.33c-.07.33-.29,1.55-.51,1.64l.73.87A6.17,6.17,0,0,0,25,14.31c.11-.76-1.07-.86-1.18-.11a5.11,5.11,0,0,1-1.16,2.25l1,.55a11.79,11.79,0,0,0,.89-2.69l-1.18,0c.05,1.14.38,2.25.42,3.39,0,.63.94.59,1.15.1.34-.83.5-1.71.84-2.54L24.66,15c-.36,2-1.3,3.42-3.43,2.46l.18,1L24,16,23,15.31c-.21.68-1.05,1-1.27,1.7a.61.61,0,0,0,.82.75A2.31,2.31,0,0,0,24.16,16a.6.6,0,0,0-.7-.65,14.15,14.15,0,0,0-4.1,2.25.61.61,0,0,0,.18,1c1.37.37,2.27.77,3.7.45L23,17.89c-1.38.41-2.83.52-4.23.84l.37,1.15a7.94,7.94,0,0,1,3.07-.37c0-.4.07-.81.11-1.21a12.13,12.13,0,0,0-3.55.43.61.61,0,0,0,.05,1.21c3.29.34,6.39-.82,7-4.36l-1.08.34a4.73,4.73,0,0,1,.27,2.13c0,.77,1.23.92,1.23.12a.65.65,0,0,0-.72-.72,15.28,15.28,0,0,0-5.24,1.74.63.63,0,0,0,.38,1.18c1-.06,2-.36,3-.43.74,0,.6-1.12-.05-1.23a9.48,9.48,0,0,1-1.86-.31l-.25,1.13c-.2,0,.48.31.6.34A3.89,3.89,0,0,0,23,20a3.36,3.36,0,0,0,1.73-.39,4.38,4.38,0,0,0,2-3.21c.15-.78-1.05-.86-1.22-.11a2.84,2.84,0,0,1-2.1,2.45c-.79.1-1.38-.56-2.1-.46A.63.63,0,0,0,21,19.42,8.19,8.19,0,0,0,23.5,20c0-.41,0-.82-.05-1.24-1,.06-2,.37-3,.43.13.39.25.78.38,1.18a13.77,13.77,0,0,1,4.92-1.65L25.06,18a10.39,10.39,0,0,0,1.23.17,5.66,5.66,0,0,0-.57-3.05c-.33-.47-1-.13-1.08.34-.5,2.86-3.13,3.53-5.68,3.26,0,.4,0,.81.05,1.21a10.62,10.62,0,0,1,3.23-.42c.77,0,.89-1.21.11-1.21a9.63,9.63,0,0,0-3.7.48A.61.61,0,0,0,19,19.93c1.4-.33,2.85-.43,4.23-.85.73-.22.57-1.37-.21-1.19a5.7,5.7,0,0,1-3.07-.4l.18,1a12.41,12.41,0,0,1,3.53-2L23,15.89c-.08.43-.55.65-.92.78l.82.75c.2-.67,1.05-1,1.27-1.69.16-.53-.5-1.12-1-.67L20.64,17.6a.61.61,0,0,0,.18,1c2.9,1.31,4.52-.76,5-3.47.13-.68-.91-.86-1.15-.26-.35.83-.51,1.71-.85,2.54l1.14.1c0-1.14-.37-2.24-.42-3.38,0-.69-1.1-.59-1.17,0a10.24,10.24,0,0,1-.82,2.39c-.26.67.63,1,1,.55A6.17,6.17,0,0,0,25,14.31c.11-.76-1.07-.86-1.18-.11a5.11,5.11,0,0,1-1.16,2.25c-.42.49.24,1.07.73.87.86-.33,1-1.81,1.18-2.59l-1,.32a4.05,4.05,0,0,1,1.13,3.38l1-.33,0-.13a.58.58,0,0,0-.95-.67c-.63.7-.74,1.17-1.74,1.46l.57.9c.59-.76.68-1.79,1.27-2.54.42-.54-.34-1.13-.84-.77A14.9,14.9,0,0,1,20,18.43l.45,1a11,11,0,0,0,2.23-1.78.52.52,0,0,0-.56-.86c-1.09.5-2.27.8-3.36,1.32a.46.46,0,0,0,.28.86,6.08,6.08,0,0,0,2.17-1C21.49,17.72,21.25,17.18,20.89,17.36Z"/><path class="cls-2" d="M12.26,33.55a8.38,8.38,0,0,0,8,2,.54.54,0,0,0,.31-.86c-1.52-2.27-4.62-2.33-7-3.14a.55.55,0,0,0-.39,1c2.16.87,5.11.7,6.57,2.79l.31-.86A7.84,7.84,0,0,1,12.78,33C12.44,32.71,12,33.23,12.26,33.55Z"/><path class="cls-2" d="M13.14,33.25a10.06,10.06,0,0,0,4.44,1.46.57.57,0,0,0,.25-1.1,31.55,31.55,0,0,0-3.38-.86.58.58,0,0,0-.4,1.09c2.34,1.14,5,1.9,7.31.28.51-.36,0-1.08-.56-.87-2.34.93-4.13.56-6.35-.5l-.4,1.09c1.11.32,2.31.41,3.39.84.08-.37.17-.74.25-1.1a12,12,0,0,1-4.13-1.13C13.09,32.25,12.69,33,13.14,33.25Z"/><path class="cls-2" d="M13.89,25.85c.37,1,1.26,2.65,2.62,2.43s1.64-2.27,1.67-3.4a.56.56,0,0,0-.49-.6,4,4,0,0,1-.49,0,.91.91,0,0,1-.23,0c-.16-.08-.18-.05,0,.08a.58.58,0,0,0-1-.23,2.21,2.21,0,0,0-.42,1.72c.11.47.44.84.59,1.29s.57.16.62-.11c.18-.84-.35-1.43.14-2.25l-1-.22c.16.83,1.08.88,1.78.87l-.5-.6c0,.55.07,2.4-.76,2.52s-1.45-1.3-1.71-1.8A.41.41,0,0,0,13.89,25.85Z"/><path class="cls-2" d="M15.86,25.8c.18-.57.25-1.66-.68-1.47a1.91,1.91,0,0,0-.67.42c-.17.13-.37.22-.47.46a2.32,2.32,0,0,0,.13,1.4c.07.2.22.42.46.42.58,0,3.58,0,2.57-1.27l.12.39c0-.56,0-1.13,0-1.69a.57.57,0,0,0-.92-.48l.54.23a.59.59,0,0,1,0-.13c0-.07,0,0,0,0,0-.34-.28-.72-.67-.62-.55.14-1.5.21-1.78.78a.58.58,0,0,0,.34.74A.49.49,0,0,0,15,25a.58.58,0,0,0,.39-1c-.74-.59-1.19.38-1.22,1s0,1.59.83,1.76c-.1-.34-.21-.68-.32-1-.33.33-.56.94,0,1.18a1.2,1.2,0,0,0,1-.25c.54-.31,1.71-.9,1.76-1.63.11-1.31-2.34-.56-2.74.09-.54.89.56,1.72.87,2.47a.34.34,0,0,0,.62,0A2,2,0,0,0,16,26c-.06-.12-.23-.33-.21-.46,0,.28.26,0,.45,0l.41-.08c0-.75-.1-1-.27-.76a.41.41,0,0,1-.1.1c-.18.11-.34.28-.51.4s-.35.24-.54.35-.19.09-.27.15-.22-.15.2.06l.37.44c.12.39-.1.4-.07.36a.59.59,0,0,0-.32-1c.71.15.2.28.26.06a2.6,2.6,0,0,0-.05-.39c0-.1,0-.22,0-.32s0-.11,0-.16c.12-.21-.09-.15-.62.17l.38-1.05.08,0c.11.24.23.49.34.74l-.28.3a4.24,4.24,0,0,1,1.18-.35l-.67-.62c0,.77.57,1.56,1.35.9l-.92-.47c0,.17-.05,2.09.16,2.08l.11-.6-.08,0a1,1,0,0,0-.22.05,5.53,5.53,0,0,1-.7.07q-.39,0-.78,0l.42.29a3.81,3.81,0,0,0-.14-.56.79.79,0,0,1,0-.22c-.27.2-.32.27-.16.21a1,1,0,0,0,.45-.35c.16-.26.16,0,0-.14s-.07-.06-.1.09a2.91,2.91,0,0,0,0,.31A.36.36,0,0,0,15.86,25.8Z"/><path class="cls-2" d="M13.59,32.61c0,.09,0,.09,0,0a.29.29,0,0,0-.08-.14.76.76,0,0,0-.23-.17s-.15-.13-.2-.14,0-.28,0,.18l-.15.3c-.08.08-.31,0-.17.08a2,2,0,0,0,.26.05.87.87,0,0,0,.55-.05.31.31,0,0,0,.1-.48c-.26-.4-1.41-.72-1.48,0-.05.55.84,1,1.27.84h-.26l.13.05A.32.32,0,0,0,13.59,32.61Z"/><path class="cls-2" d="M7,26.18a7.16,7.16,0,0,0,1.73,3.67.58.58,0,0,0,1-.31,4,4,0,0,0-.18-2.45,11.23,11.23,0,0,0-1.22-1.78c-.43-.61-1.28.13-.87.74s.72.89,1,1.39a3,3,0,0,1,.15,2l1-.31a8.91,8.91,0,0,1-1.68-3.23A.48.48,0,0,0,7,26.18Z"/><path class="cls-2" d="M16.76,33.59c2,0,3.54-.25,5.24,1l.21-.91A9.81,9.81,0,0,1,20,34a3.52,3.52,0,0,0-1.65.24c-.2.11-.29.45-.05.58,1.11.6,2.95.15,4.09-.2a.51.51,0,0,0,.2-.91A6.23,6.23,0,0,0,16.66,33C16.39,33.13,16.47,33.6,16.76,33.59Z"/><path class="cls-2" d="M20.13,34.18c0-.08.27,0,.33-.06A.65.65,0,0,0,20.8,34a.31.31,0,0,0,0-.48.9.9,0,0,0-1.4.64A.38.38,0,0,0,20.13,34.18Z"/><path class="cls-2" d="M13.94,31.66a1,1,0,0,0,.16.41c.12.15.28.22.32.42s.53.24.51-.09-.35-.53-.37-.85S13.88,31.25,13.94,31.66Z"/><path class="cls-2" d="M27.78,31.33c.53-2.15,1.81-3.77,4.2-3.44l-.44-.7a7.53,7.53,0,0,1-5.95,4.73c.19.24.39.48.59.71a8.48,8.48,0,0,1,5.23-4.35l-.74-.67a8.23,8.23,0,0,1-3.54,3.9l.71.84a22.12,22.12,0,0,1,4.14-5l-.86-.78c-1.09,1.44-2.3,2.79-3.4,4.22l1.06.56c.39-.94,1.37-1.25,1.95-2.05.27-.37-.18-1-.6-.71A4.88,4.88,0,0,0,27.65,31a.61.61,0,0,0,1.06.56c1.09-1.45,2.29-2.8,3.37-4.25.4-.52-.38-1.26-.86-.78a23.41,23.41,0,0,0-4.32,5.2c-.23.43.17,1.18.72.84A8.77,8.77,0,0,0,31.69,28,.55.55,0,0,0,31,27.3a9.48,9.48,0,0,0-5.77,5,.54.54,0,0,0,.59.72,8.59,8.59,0,0,0,6.74-5.43.52.52,0,0,0-.43-.69c-2.82-.36-4.77,1.58-5.14,4.28C26.88,31.61,27.66,31.81,27.78,31.33Z"/><path class="cls-2" d="M34.79,20.28c-.24-.15-.48-.3-.76-.17a.73.73,0,0,0-.35.76,3.36,3.36,0,0,0,.4,1.23.54.54,0,0,0,1,0,5.94,5.94,0,0,0,.36-1.7,2.09,2.09,0,0,0-.14-.61,3.1,3.1,0,0,0-.13-.4c-.11-.24,0-.05,0,0,0-.72-1.12-.83-1.12-.11,0,.9,0,1.8,0,2.7,0,.74,1.15.86,1.15.11v-.13L34,21.81a.85.85,0,0,0,.28.77.64.64,0,0,0,.88-.17,3.42,3.42,0,0,0,.49-1.2,3.9,3.9,0,0,0,.22-1.51.72.72,0,0,0-1.25-.4l.76.9c.36-.38.34-1.07-.31-1.12a1.87,1.87,0,0,0-1,.39c-.62.38-1.74,1.42-.66,2,.13-.36.26-.72.4-1.09a.81.81,0,0,0-.35.06.61.61,0,0,0-.09,1c.26.23.93.22,1.26.27l.78.13.33.06c.12,0,0,0-.2-.16,0-.2-.07-.4-.11-.6s.21-.22.31-.34.29,0,.18,0l.5.34a4.12,4.12,0,0,0-.48-1.07.61.61,0,0,0-1.08.34,2.11,2.11,0,0,0,.09.55c0,.12.06.16.07.21s0,.09,0,.11c.11.18-.34.11.12-.2a.43.43,0,0,0,.12.72.63.63,0,0,0,.8-.54,1.47,1.47,0,0,0,0-.51c0-.09,0-.53-.05-.22l-.35.49L35,20.9c-.14-.19,0,0,0,.13l.27.68a.6.6,0,0,0,.5.34c.31,0,.64-.06.76-.41a.59.59,0,0,0-.1-.6,2.58,2.58,0,0,0-1.37-.4L34,20.47c-.25,0-.05,0,.08.06l-.09,1-.28.05c.53,0,1-.75.4-1.09-.18-.1.32.45,0,.42,0,0,.12-.13,0-.08.14-.09.26-.23.4-.32a2.71,2.71,0,0,1,.37-.21s.12-.05.16-.08.06,0,0,0c.16,0,0-.06-.36-.1l-.25-.38.16-.48c-.5.55.2,1.45.76.9.12-.1,0,0,0,0-.39.06-.61,0-.68-.28,0-.06,0-.06,0,0s0-.06,0,0a1,1,0,0,0,0,.17,4.27,4.27,0,0,1-.15.71,5.43,5.43,0,0,1-.24.75.84.84,0,0,1-.06.14c0,.09,0-.05,0,0,0-.11.49.09.49.09.32.26.47.29.43.12s0-.05,0,0c0-.73-1.17-.86-1.16-.11v.13c0,.74,1.16.85,1.15.11,0-.9,0-1.8,0-2.7,0-.72-1.13-.83-1.12-.11a7.45,7.45,0,0,0,.31,1.12,4.53,4.53,0,0,1-.26,1.32l1,0c-.07-.16-.15-.31-.21-.48a2.47,2.47,0,0,1-.1-.29s0-.16,0-.18c.15.12-.38.25-.27.27C34.83,21.07,35.19,20.54,34.79,20.28Z"/><path class="cls-2" d="M27.49,40.74a21.19,21.19,0,0,0,7.73-5.59c.2-.26-.17-.56-.41-.37a74.06,74.06,0,0,1-7.56,5.46A.28.28,0,0,0,27.49,40.74Z"/><path class="cls-2" d="M1.39,13.92c2-5.28,5.16-10.31,10.79-12.1a.27.27,0,0,0-.09-.53C6.65,1.88,1.94,8.91.85,13.8.78,14.12,1.29,14.21,1.39,13.92Z"/><path class="cls-2" d="M17.19.52a20.43,20.43,0,0,0,3,0c.25,0,.22-.4,0-.43a19.49,19.49,0,0,0-3,0C16.93.05,16.88.52,17.19.52Z"/><path class="cls-2" d="M26,.52a57.71,57.71,0,0,1,6.08,2.4,29.93,29.93,0,0,1,6.12,4.37c.26.21.55-.17.38-.41C35.8,3,30.6,1.17,26.19,0,25.88,0,25.7.41,26,.52Z"/><path class="cls-2" d="M0,18.88a8.54,8.54,0,0,0,1.32,4.79.26.26,0,0,0,.47-.22A15.61,15.61,0,0,1,.56,18.86C.54,18.54,0,18.56,0,18.88Z"/><path class="cls-2" d="M34.72,39.41c3.87-3,7.89-7,9-12,.07-.32-.43-.41-.54-.13A27.27,27.27,0,0,1,34.41,39C34.16,39.23,34.48,39.6,34.72,39.41Z"/><path class="cls-2" d="M38.55,31.81A16.38,16.38,0,0,0,42,27c.1-.24-.28-.44-.41-.21a23.25,23.25,0,0,1-3.37,4.57C38,31.64,38.3,32.07,38.55,31.81Z"/><path class="cls-2" d="M22.23,25.55c.23,1.42,2.23,1.19,2.58,0a.56.56,0,0,0-.19-.64A1.35,1.35,0,0,0,23,25c-.58.43.18,1.34.72.86l.1-.09a.53.53,0,0,0,.06-.75.5.5,0,0,0-.62-.14c.16.32.31.65.46,1a.18.18,0,0,1,.23,0l-.2-.64c-.13.54-.58.44-.89.11A.39.39,0,0,0,22.23,25.55Z"/><path class="cls-2" d="M22.14,26a5.43,5.43,0,0,1,2.23-1.48c.49-.21,1.77-.56,1.27.27a2.72,2.72,0,0,1-1.6.7l.43.3a2.38,2.38,0,0,0,.77-.28l-.46-.74A3.67,3.67,0,0,1,24,25.86l.9.63c.16-.46.4-.88.58-1.33s-.56-.92-.94-.49a4.21,4.21,0,0,0-.71,1.42c-.17.52.47,1.05.91.64a4.81,4.81,0,0,0,1.12-1.62.55.55,0,0,0-.46-.74c-.82,0-2.28.84-1.83,1.82a.51.51,0,0,0,.42.3,3.79,3.79,0,0,0,2.51-1.08,1.28,1.28,0,0,0-.24-2.08c-.93-.51-2.12.1-3,.55a2.8,2.8,0,0,0-1.63,1.89C21.55,26.08,22,26.16,22.14,26Z"/><path class="cls-2" d="M18,19.68c1.17.11,2.92-.57,3.34-1.76a.34.34,0,0,0-.46-.43c-.47.24-.86.62-1.33.86a6.15,6.15,0,0,1-1.58.48A.43.43,0,0,0,18,19.68Z"/><path class="cls-2" d="M24.88,15c0-.2.15-.24.31-.3l-.71-.5c0,.1,0,.43-.12.49.07,0,0-.14-.11-.21a.9.9,0,0,0-.66-.25,1.22,1.22,0,0,0-.68.29c-.21.17-.32.45-.57.54l.57.89a5.12,5.12,0,0,0,1.4-1.21.51.51,0,0,0-.62-.74,5.35,5.35,0,0,0-1.47,1.13.54.54,0,0,0,.58.89c.38-.14.49-.46.79-.69-.09-.11-.09-.1,0,0a.81.81,0,0,0,.18.19,1,1,0,0,0,.45.19c.85.09,1.2-.76,1.24-1.45a.5.5,0,0,0-.71-.5,1.1,1.1,0,0,0-.6,1.22A.37.37,0,0,0,24.88,15Z"/><path class="cls-2" d="M16.85,11.28a.65.65,0,0,0,.67,1c.57-.07,1.47-.79,1.5-1.37a.44.44,0,0,0-.5-.46,1,1,0,0,0-.63.39l-.25.24c-.17.16-.27.14-.2.35l0,.29,0-.09C17.61,11.24,17.08,10.93,16.85,11.28Z"/><path class="cls-2" d="M16.63,12A1.18,1.18,0,0,1,16.82,10,2.52,2.52,0,0,1,18,9.63c.75,0,.93.28,1.4.74.28.28.94.21.92-.28-.08-2.18-3.26-1.89-4.47-.92s-1.36,3.25.48,3.58A.4.4,0,0,0,16.63,12Z"/><path class="cls-2" d="M9.88,21.72c-1.07-1-.82-3.9-.63-5.21.06-.28.13-.57.19-.86l1.09-.51c.18.07.47.6.59.76a9.87,9.87,0,0,1,1.2,2.3c.15.41.71.22.78-.14.34-1.9-2.28-6.34-4.34-3.93-1,1.18-.94,3.14-.87,4.59s.16,2.83,1.42,3.63C9.7,22.6,10.26,22.07,9.88,21.72Z"/><path class="cls-2" d="M12,17.07a12.62,12.62,0,0,1,.13,1.74.33.33,0,0,0,.6.13,2.69,2.69,0,0,0,.13-2C12.76,16.37,11.89,16.51,12,17.07Z"/><path class="cls-2" d="M8,26.59c0-.22,0-.46,0-.68v-.27c0-.19,0-.23,0-.12l-.34.22c-.15,0,.19.31.24.35a.68.68,0,0,0,.41.19.37.37,0,0,0,.35-.16c.34-.64-.43-1.54-1.13-1.42-1,.17-.47,1.58-.15,2.09A.33.33,0,0,0,8,26.59Z"/><path class="cls-2" d="M22.56,33.8c-.74-1.56-2.44-1.6-3.95-1.93s-3.8-1.76-5.52-1.2a1.81,1.81,0,0,0-1.32,2.12c.37,1.38,2.31,1.58,3.45,1.76a.43.43,0,0,0,.36-.7c-.39-.48-.85-.43-1.23-.8q-.36,0-.12-.6c-.23-.6-.08-.76.45-.46a6.5,6.5,0,0,1,1.71.52c1.87.61,4.12.46,5.7,1.69C22.34,34.4,22.69,34.08,22.56,33.8Z"/><path class="cls-2" d="M13.14,32.84a4.8,4.8,0,0,0,2,1.16.34.34,0,0,0,.29-.54,12.59,12.59,0,0,0-1.79-1.36C13.19,31.75,12.69,32.48,13.14,32.84Z"/><path class="cls-2" d="M26.68,32.13a9.64,9.64,0,0,0,1.22-.77,2.49,2.49,0,0,0,.92-.93.37.37,0,0,0-.41-.49,2.4,2.4,0,0,0-1.1.58,10.3,10.3,0,0,0-1.08.9C25.9,31.74,26.23,32.37,26.68,32.13Z"/><path class="cls-2" d="M25.85,32.44a41.25,41.25,0,0,1,2.72-3.19A16.22,16.22,0,0,1,30,28.15c.45-.32,1.09-1,1.25-.33a.46.46,0,0,0,.51.36h.16a.65.65,0,0,0,.47-.39,1.24,1.24,0,0,0-.63-1.62c-.8-.33-1.63.38-2.24.81-1.59,1.13-4,3.18-4.21,5.25C25.22,32.57,25.65,32.66,25.85,32.44Z"/><path class="cls-2" d="M35.23,19.19a.67.67,0,0,0-.86-.58c-.56.13-1,.84-1.24,1.33a2.29,2.29,0,0,0,1.29,3.16,2,2,0,0,0,2.44-1.83,2.61,2.61,0,0,0-.61-1.82,3.21,3.21,0,0,0-1.54-1.2.51.51,0,0,0-.52.33l-.06.13a.7.7,0,0,0,.12.68c.43.58,1.84,1.37,1.07,2.25-.42.47-1,.06-1.19-.45-.07-.21.26-1.8.52-1.63A.38.38,0,0,0,35.23,19.19Z"/><path class="cls-2" d="M31.55,14.34a1.12,1.12,0,0,0,1.26,1.33,1.1,1.1,0,0,0,.64-1.7.58.58,0,0,0-1,.47c.07.29-.1.2-.1,0A.4.4,0,0,0,31.55,14.34Z"/><path class="cls-2" d="M33.09,15.75c.84.08,1.34-.63,1.42-1.44A3.64,3.64,0,0,0,33,11.41a42.36,42.36,0,0,0-4-3.09,3.38,3.38,0,0,0-3.27-.56.72.72,0,0,0-.43.61c0,2.59,2.46,4.63,4.71,5.52a.44.44,0,0,0,.54-.6c-.88-1.87-3.76-2.42-3.75-4.78l-.43.61c1.32-.47,3,1.31,3.93,2,.71.52,4.33,2.82,2.55,4C32.62,15.29,32.81,15.72,33.09,15.75Z"/><path class="cls-2" d="M15.85,26.76c.41.78,1.58.37,1.78-.37.13-.48-.53-.93-.84-.44-.17.29-.38.28-.69.32A.35.35,0,0,0,15.85,26.76Z"/><path class="cls-2" d="M14.63,26c.09-.39-.05-.8.14-1.18.27-.53,1-.56,1.52-.55.17,0,.49,0,.63.11s0,.62,0,.85A1.45,1.45,0,0,0,17,26.46a.37.37,0,0,0,.43.09c.81-.25,1-1.8.78-2.48A1.8,1.8,0,0,0,16.16,23a2.56,2.56,0,0,0-2.32,1.17c-.3.59-.36,1.68.4,1.95A.31.31,0,0,0,14.63,26Z"/><path class="cls-2" d="M14,25.43a2.17,2.17,0,0,0,1,1.11c.22.11.54-.14.46-.38A2.2,2.2,0,0,0,14.59,25,.39.39,0,0,0,14,25.43Z"/></g></g></svg>