<svg xmlns="http://www.w3.org/2000/svg" viewBox="0 0 59.01 66.11"><defs><style>.cls-1{fill:#9f5b42;}.cls-2{fill:#7e3f2e;}.cls-3{fill:#2b609b;}.cls-4{fill:#377dbb;}.cls-5{fill:#a86d44;}.cls-6{fill:#c69857;}.cls-7{fill:#260029;}</style></defs><g id="Layer_2" data-name="Layer 2"><g id="_"><path class="cls-1" d="M7.89,18.35c.28-3.29,3.76-5.35,7-6,5.65-1.15,11.51.2,17,1.89a46.36,46.36,0,0,1,12.56,6.38c4.12,2.76,8.83,6.67,10.22,10.92.71,2.17.92,4.8-.62,6.48a7.25,7.25,0,0,1-4,1.84c-13.64,2.83-25.58-3.36-35.5-12.12C12,25.39,7.55,22.42,7.89,18.35Z"/><path class="cls-2" d="M54.7,31.53c-1.39-4.25-6.1-8.16-10.22-10.92a46.36,46.36,0,0,0-12.56-6.38c-5.52-1.69-11.38-3-17-1.89C12.11,12.91,9.16,14.5,8.2,17a11,11,0,0,1,5.19-2.51c5.65-1.16,11.51.2,17,1.89A46.08,46.08,0,0,1,43,22.78c4.12,2.76,8.83,6.66,10.22,10.92a8.21,8.21,0,0,1,.28,4.84,4.3,4.3,0,0,0,.6-.53C55.62,36.33,55.41,33.7,54.7,31.53Z"/><path class="cls-3" d="M32.86,6.62A12.81,12.81,0,0,1,48.2,22.77c-.63.14-1.19-.36-1.65-.8a34.27,34.27,0,0,0-20-9.4c-1.27-.14-2.59.11-1.82-1.41C25.75,9.06,30.74,7.14,32.86,6.62Z"/><path class="cls-4" d="M36.74,12a2.91,2.91,0,1,1,5.82-.12,2.91,2.91,0,0,1-5.82.12Z"/><path class="cls-5" d="M23.09,26.56a5.58,5.58,0,0,1,3.63-1.74,10.36,10.36,0,0,1,9.73,4.35,6.09,6.09,0,0,1,1.19,3.41,3.43,3.43,0,0,1-1.73,3c-1.24.62-2.72.22-4-.27C29.19,34.31,19.66,30.73,23.09,26.56Z"/><path class="cls-6" d="M17.59,33.94c2.7-1.95,5.57-3.91,8.87-4.4C29,29.16,32,30,33,32.36a8,8,0,0,1,.39,3.35L32.8,60.94a7.56,7.56,0,0,1-.22,2c-.67,2.25-3.32,3.38-5.65,3.19s-4.45-1.37-6.57-2.36C16.28,61.82,11.93,60.5,8,58.24A19.76,19.76,0,0,1,2.1,53.15,11.65,11.65,0,0,1,.2,49.72c-.55-1.81,0-1.94,1.46-3.16Q9.36,39.93,17.59,33.94Z"/><path class="cls-7" d="M8.32,16.41c5.37-8.18,22.28-2.83,29.37.36,6.31,2.84,23,14.38,15,21.93a.31.31,0,0,0,.39.47c9.62-6.81-8.28-19.51-13.66-22.25C32.35,13.35,13.18,7,8,16.17,7.84,16.4,8.16,16.64,8.32,16.41Z"/><path class="cls-7" d="M8,16.22c-1.62,7,5.94,13,11.34,16a.22.22,0,0,0,.25-.37c-4.85-4-12.34-8.07-11.22-15.49C8.36,16.1,8,16,8,16.22Z"/><path class="cls-7" d="M34.21,40.07c6,1.44,13.36,2.75,18.88-.67.27-.17.08-.61-.23-.47-6.3,2.92-12,1.4-18.54.66C34,39.56,33.93,40,34.21,40.07Z"/><path class="cls-7" d="M23.36,27.06c2.43-2.35,5.73-2.53,8.75-1.19a8,8,0,0,1,5,8.07c0,.27.4.4.49.11,2.22-7.28-10-13.14-14.57-7.25C22.94,27,23.2,27.22,23.36,27.06Z"/><path class="cls-7" d="M22.92,26.54a3.49,3.49,0,0,0,.12,4c.19.27.59-.07.39-.34a3,3,0,0,1-.11-3.38C23.48,26.55,23.08,26.27,22.92,26.54Z"/><path class="cls-7" d="M25.11,28.94C17,33.91,8.57,39.75,1.88,46.59c-.16.16.06.44.24.28C9.43,40.31,17.4,35,25.32,29.25,25.49,29.13,25.3,28.82,25.11,28.94Z"/><path class="cls-7" d="M25,29.42c3-.05,6.64.61,8.22,3.48.18.34.73.08.54-.25C32,29.56,28.2,28.8,24.93,29,24.7,29,24.72,29.43,25,29.42Z"/><path class="cls-7" d="M33.33,33c.77,10.12,0,20.2-.64,30.3a.2.2,0,0,0,.4,0,147.23,147.23,0,0,0,.63-30.41C33.69,32.66,33.31,32.73,33.33,33Z"/><path class="cls-7" d="M25.09,31.38a6.3,6.3,0,0,1-1.85,1.75.17.17,0,0,0,.15.31,5.71,5.71,0,0,0,2-1.88C25.48,31.39,25.22,31.21,25.09,31.38Z"/><path class="cls-7" d="M20.6,36.17C14.74,41.16,8.52,46,3.2,51.54c-.17.17.06.47.25.29,5.62-5.35,11.6-10.22,17.39-15.38C21,36.29,20.78,36,20.6,36.17Z"/><path class="cls-7" d="M28.08,32.65c-2.26,3.17-4.82,6.13-7,9.35a.18.18,0,0,0,.29.2,76.49,76.49,0,0,0,7-9.31C28.55,32.67,28.23,32.44,28.08,32.65Z"/><path class="cls-7" d="M19.18,44.68c-.53.72-1,1.51-1.46,2.26a.16.16,0,0,0,.27.18c.56-.7,1-1.51,1.49-2.23C19.62,44.7,19.32,44.49,19.18,44.68Z"/><path class="cls-7" d="M16.24,49.18c-2.36,2.65-4.48,5.5-6.68,8.28-.14.17.13.42.28.26,2.44-2.61,4.41-5.6,6.69-8.34C16.67,49.2,16.39,49,16.24,49.18Z"/><path class="cls-7" d="M30,33.92c-.3.87-.73,1.68-1.1,2.51-.08.17.2.32.29.15a15.63,15.63,0,0,0,1.16-2.53A.19.19,0,0,0,30,33.92Z"/><path class="cls-7" d="M27.3,40.23c-3,6.51-5.42,13.29-8.24,19.89-.08.2.23.31.33.12,3.14-6.45,5.28-13.35,8.23-19.89C27.71,40.15,27.39,40,27.3,40.23Z"/><path class="cls-7" d="M31.18,35.09a74.68,74.68,0,0,1-2.95,14.4c-.06.22.27.34.34.12a53.24,53.24,0,0,0,3-14.48A.18.18,0,0,0,31.18,35.09Z"/><path class="cls-7" d="M27.1,54.15c-1.08,3.57-2.45,7.16-3,10.86,0,.2.29.27.35.08,1-3.6,2-7.21,3-10.81C27.51,54.05,27.17,53.92,27.1,54.15Z"/><path class="cls-7" d="M23.91,11.83c4.89-3.95,11.14-7.33,17.3-4a13.12,13.12,0,0,1,6.52,15.3c-.17.55.65.86.84.31,2.12-6.09-1-12.72-6.36-16C36,3.59,28.28,6.55,23.63,11.5,23.44,11.7,23.69,12,23.91,11.83Z"/><path class="cls-7" d="M37.11,33.27a3.53,3.53,0,0,1-2.62,1.79.41.41,0,0,0,.14.8,3.75,3.75,0,0,0,3.08-2.36A.32.32,0,0,0,37.11,33.27Z"/><path class="cls-7" d="M17,19.59c-.53-1.28-2.32-1.18-3.41-.88a.38.38,0,0,0-.32.34,3.39,3.39,0,0,0,2.12,3c.94.43,2.55.45,3.17-.55.5-.81-.28-1.58-.94-2a3.24,3.24,0,0,0-2.86-.4.46.46,0,0,0-.21.59,1.89,1.89,0,0,0,3,.92.44.44,0,0,0-.13-.75,2.48,2.48,0,0,0-2.28.24.35.35,0,0,0,.28.6,4.37,4.37,0,0,1,1.69,0c0-.25-.08-.5-.13-.75-.74.49-1.37.14-1.65-.63l-.21.59a2.2,2.2,0,0,1,1.7.18c.27.12,1.1.51,1,.9s-.71.4-.89.43a2.14,2.14,0,0,1-1.25-.2A2.58,2.58,0,0,1,14,19.13l-.32.35a3,3,0,0,1,2.9.43A.26.26,0,0,0,17,19.59Z"/><path class="cls-7" d="M19.45,26.34a2.14,2.14,0,0,0-2,.19.35.35,0,0,0-.08.41,2.59,2.59,0,0,0,3.23,1.2.4.4,0,0,0,.32-.46,1.24,1.24,0,0,0-.85-1,2.15,2.15,0,0,0-1.33.06.34.34,0,0,0-.05.58,1.09,1.09,0,0,0,.79.15c.38,0,.53.05.68.44l.19-.54A1.83,1.83,0,0,1,18,26.65l-.09.4c.49-.36.95-.06,1.48-.14A.3.3,0,0,0,19.45,26.34Z"/><path class="cls-7" d="M25.17,16.81A2.2,2.2,0,0,0,22,15.68c-1.37,1-.11,2.44.92,3s2.48,1.17,3.4.28a1.81,1.81,0,0,0-.11-2.42,3.59,3.59,0,0,0-4-.7.44.44,0,0,0-.24.47,3,3,0,0,0,1.66,2.25,2,2,0,0,0,1.85-.39,1.17,1.17,0,0,0,.44-1.41c-.42-.73-1.56-.51-2.21-.35a.44.44,0,0,0-.32.62,2.64,2.64,0,0,0,.86,1.14,3.07,3.07,0,0,0,1.4.33.45.45,0,0,0,.44-.64,1.69,1.69,0,0,0-2.94-.62c-.27.3.15.64.44.53.79-.28,1.36-.48,1.7.48l.44-.64c-.84-.07-1.15-.19-1.54-1l-.33.63c.25-.06,1.14-.27,1.29-.1,0,0,0,0,0,.08a1.07,1.07,0,0,1-.3.3c-1,.7-1.73-.55-2-1.4l-.25.47a2.69,2.69,0,0,1,3,.47c.35.41.57,1.19-.1,1.4a2.38,2.38,0,0,1-1.54-.24c-.53-.22-1.63-.72-1.71-1.42,0-.45.43-.68.81-.71a1.76,1.76,0,0,1,1.6.93C24.81,17.41,25.35,17.17,25.17,16.81Z"/><path class="cls-7" d="M37,21.15a4.16,4.16,0,0,0-2.88-.94.38.38,0,0,0-.41.44c.12,1.49,1.65,2.57,2.9,3.12.88.39,2.68.87,3-.46.4-1.53-1.68-2.58-2.8-3a2.66,2.66,0,0,0-2.1-.15,1.23,1.23,0,0,0-.56,1.49c.49,1.34,2.92,1.95,4.18,2a.45.45,0,0,0,.45-.64A2.52,2.52,0,0,0,36,21.52a.45.45,0,0,0-.26.74,2.18,2.18,0,0,0,2.11,1.2.46.46,0,0,0,.46-.65,2.08,2.08,0,0,0-3-1.11.39.39,0,0,0,.23.74c.89-.05,1.56-.25,1.94.76l.46-.65a1.5,1.5,0,0,1-1.51-.88l-.27.75a1.57,1.57,0,0,1,1.85,1l.45-.65a5.21,5.21,0,0,1-3.24-1.16c-.64-.75.53-.69,1-.54a5.83,5.83,0,0,1,2,1.09c.3.24.86.84.39,1.17s-1.15-.05-1.49-.18c-1.09-.41-2.57-1.31-2.69-2.59l-.31.43a4.74,4.74,0,0,1,2.55.63A.26.26,0,0,0,37,21.15Z"/><path class="cls-7" d="M46.91,29.22a3.34,3.34,0,0,0-3.07-1c-.16,0-.34.18-.33.36C43.56,30.36,46,33.93,48,32c.76-.76.16-1.78-.52-2.34a3.51,3.51,0,0,0-3.1-.85.49.49,0,0,0-.38.54,2.68,2.68,0,0,0,1.32,2.21,1.62,1.62,0,0,0,1.66-.35,1.14,1.14,0,0,0,.29-1.49c-.47-.66-1.52-.51-2.2-.4a.48.48,0,0,0-.34.67A2.61,2.61,0,0,0,47,31.88c.31.07.56-.28.51-.56a1.77,1.77,0,0,0-2.7-1.38c-.29.16-.29.73.12.72.84,0,1.47-.2,1.65.83l.51-.56a1.7,1.7,0,0,1-1.52-1.37c-.11.22-.23.44-.34.67.28-.05,1.06-.24,1.28,0,0,0-.1.17-.26.29-.85.63-1.24-.83-1.34-1.39l-.26.5a2.58,2.58,0,0,1,2.08.55c.36.25,1,.83.52,1.24-1.32,1.06-2.88-1.9-2.92-2.88L44,29a3,3,0,0,1,2.52.64C46.77,29.87,47.17,29.46,46.91,29.22Z"/><path class="cls-7" d="M44.48,36.05a3.77,3.77,0,0,0-3.42-1.27.42.42,0,0,0-.36.38,2.71,2.71,0,0,0,.52,2.37,1.94,1.94,0,0,0,1.8.39c.85-.19,2.77-1.23,1.94-2.36-.55-.75-1.91-.6-2.7-.54-.26,0-.39.3-.37.52a2.48,2.48,0,0,0,1.67,2.26.47.47,0,0,0,.62-.51c-.24-1.34-1.42-1.65-2.58-1.16-.23.1-.24.52,0,.58a6.1,6.1,0,0,0,1,.1c.43,0,.53.22.6.64l.61-.51a1.58,1.58,0,0,1-1.09-1.55l-.37.53a4.83,4.83,0,0,1,1.47,0,1.34,1.34,0,0,1,.3.12c.05,0,.06.07,0,0s0,0,0,.1a2,2,0,0,1-.12.17,2.2,2.2,0,0,1-.6.45,1.79,1.79,0,0,1-1.44.23c-.66-.27-.56-1.22-.49-1.78-.12.12-.24.25-.35.38a3.6,3.6,0,0,1,2.86.87C44.33,36.73,44.71,36.3,44.48,36.05Z"/><path class="cls-7" d="M37.61,37.16a3.27,3.27,0,0,0-1.91-.07.37.37,0,0,0-.26.51,2.3,2.3,0,0,0,1.13,1.17,2.78,2.78,0,0,0,1.69,0,.4.4,0,0,0,.28-.56v.22a.41.41,0,0,0,0-.57,1.82,1.82,0,0,0-2.19-.5.37.37,0,0,0,0,.67,1.27,1.27,0,0,0,.67,0,.94.94,0,0,1,.88.34l0-.56a.62.62,0,0,0-.18.73c.06-.17.12-.35.19-.53a1.45,1.45,0,0,1-1.93-.75c-.08.17-.17.34-.26.51a3.57,3.57,0,0,1,1.56-.06C37.77,37.83,38,37.31,37.61,37.16Z"/><path class="cls-7" d="M41.27,9.92a1.7,1.7,0,0,0-2.33-1.14,3.78,3.78,0,0,0-2.53,2.49c-.4,1.53.74,2.72,2,3.39a2.94,2.94,0,0,0,4-.8c1-1.41.82-3.7-.83-4.54-.21-.11-.37.19-.24.34a3.48,3.48,0,0,1,1,2.16,2.81,2.81,0,0,1-.85,2.12c-1.34,1.26-3.68.35-4.46-1.15C36,10.68,39.73,7.64,40.89,10A.2.2,0,0,0,41.27,9.92Z"/><path class="cls-7" d="M41,9.3a1.51,1.51,0,0,1,.63.43c.12.12.39,0,.33-.16a1,1,0,0,0-.8-.69A.22.22,0,0,0,41,9.3Z"/><path class="cls-7" d="M39.56,10.25a1.93,1.93,0,0,0-1,2.82,1.65,1.65,0,0,0,3-.61c.25-.9-.1-2.29-1.23-2.31a1.77,1.77,0,0,0-1.59,1.22c-.37,1.24,1.18,1.23,2,1,.54-.15.41-1-.16-.88a1.83,1.83,0,0,0-.68.23s-.08.1-.13.14-.07.05,0,0a.46.46,0,0,0,.15.86c.75.08,1.4-.71.71-1.3a1,1,0,0,0-1-.21.57.57,0,0,0-.15.95.38.38,0,0,0,.65-.21c0-.26-.25.11-.25.12l.15.05c.09-.19.13-.28-.05-.3l.15.85a1.19,1.19,0,0,0,.33-.26s0-.1.06-.12c-.31.26.1.09.19.07l-.16-.88a2.13,2.13,0,0,1-1,.13c.09,0,0,.09.07-.09s.52-.64.84-.52.37.6.37.87c0,.5-.31,1.16-.9,1.13a1,1,0,0,1-1-1.14,2.17,2.17,0,0,1,.86-1.24C39.89,10.5,39.78,10.2,39.56,10.25Z"/><path class="cls-7" d="M33.15,7.75H33l.31.11c-.47-.43-1.77.24-2.22.5-.63.36-1.66,1.35-.91,2.1a.29.29,0,0,0,.48-.09,2.72,2.72,0,0,1,.41-.9A2.78,2.78,0,0,1,32,8.91c.3-.14.62-.24.93-.37a1,1,0,0,0,.32-.16s.13-.25.13-.25-.16.24,0,.14A.3.3,0,0,0,33.15,7.75Z"/><path class="cls-7" d="M45.37,14.93a12.22,12.22,0,0,1,.49,2,3.67,3.67,0,0,0,.41,1.58.32.32,0,0,0,.54-.1,3.59,3.59,0,0,0-.16-1.86,6.35,6.35,0,0,0-.72-1.84A.31.31,0,0,0,45.37,14.93Z"/><path class="cls-7" d="M19.64,10.11c-4.28,0-14.71-.46-14.3,6.15,0,.21.33.18.36,0,.88-6.24,9.22-5.61,14-5.81C19.84,10.44,19.83,10.11,19.64,10.11Z"/><path class="cls-7" d="M54.09,27.94a15,15,0,0,1,3.74,5.31c1.18,3,.34,5.32-2.31,7.09-.21.13,0,.42.22.34C62,38.27,58,30.52,54.43,27.58,54.21,27.4,53.88,27.75,54.09,27.94Z"/><path class="cls-7" d="M41.26,1.27c1.72,1.78,1.78,3.82.92,6-.19.49.58.93.84.44A6,6,0,0,0,41.55,1C41.36.79,41.09,1.09,41.26,1.27Z"/><path class="cls-7" d="M41.44.07a1,1,0,0,0-1.2.61,2.14,2.14,0,0,0,.47,1.74.25.25,0,0,0,.3.06c.47-.15,1.14-.34,1.35-.85S42.2.56,41.93.15L42,.46a2.39,2.39,0,0,1-.61-.17,5.88,5.88,0,0,1-.26,1.16c-.07.26.17.55.44.41s.56-.2.69-.44a.66.66,0,0,0,0-.77c-.19-.19-.6-.17-.84-.19a2.28,2.28,0,0,0-.45,0c-.13,0,0,0,.07,0s-.1-.07-.19-.08a.38.38,0,0,0-.4.44c.06.29.42.55.62.75s.5.59.83.43a.38.38,0,0,0,.21-.4c-.23.09-.44.19-.66.29a.38.38,0,0,0,.45.11c.3-.12.25-.54.24-.79s0-.69-.18-.87a.39.39,0,0,0-.45-.1.47.47,0,0,0-.22.24l.29-.24c-.4.06-.89.21-.94.68a.88.88,0,0,0,.08.45c0,.11.18.27.17.34s.25.34.39.21a.72.72,0,0,0,.17-.75c0-.17-.13-.13.11-.15A.52.52,0,0,0,42,.72l-.2.21-.37,0c-.23-.2-.09-.19-.09,0s0,.19,0,.28a1.93,1.93,0,0,1,0,.24s0,.22,0,.12l.19-.21.44.1c-.29-.38-.75,0-.64.39.07-.15.13-.32.19-.49h.28c.11.05,0-.05-.07-.08L41.47,1,41.22.73c-.09-.11-.14-.26-.1,0l-.39.43c-.31,0-.06,0,.07,0a2.07,2.07,0,0,0,.35,0l.76,0L41.63,1l.1.17V.93a.49.49,0,0,1-.06.17c-.15.13.29-.11,0,0a1.83,1.83,0,0,0-.42.21l.45.41A5.66,5.66,0,0,0,42,.35c0-.3-.39-.5-.58-.21s.3.74.36,1.11-.67.66-1,.78l.3.06c-.4-.6-.77-1.6.31-1.63A.2.2,0,0,0,41.44.07Z"/></g></g></svg>