<svg xmlns="http://www.w3.org/2000/svg" viewBox="0 0 45.3 32.73"><g xmlns="http://www.w3.org/2000/svg" transform="matrix(-1 0 0 -1 45.3 32.73)"><defs><style>.cls-1{fill:#df71a0;}</style></defs><g id="Layer_2" data-name="Layer 2"><g id="_"><path class="cls-1" d="M8.23,27.58l4.24.54-2.24-3.3a1.23,1.23,0,0,1-.25-.53,1.28,1.28,0,0,1,.1-.55,21.29,21.29,0,0,1,1.62-3.41,9.39,9.39,0,0,0-3.16,1.91,1.76,1.76,0,0,1-.7.45A1.42,1.42,0,0,1,7,22.54c-1.63-.72-3.14-2.12-4.92-1.92a15.19,15.19,0,0,0,1.59,2.94l-3,1.63,3.29.75a1.55,1.55,0,0,1,1,.5,1.57,1.57,0,0,1,.21.8c0,.72-.08,4,.68,3.86C6.74,31,7.51,27.52,8.23,27.58Z" /><path class="cls-1" d="M8.16,27C7,28.72,5.94,30.47,4.83,32.22l.59.21c.07-1.9.53-4.26-.17-6.09-.14-.35-.62-.14-.59.18.15,2,.11,3.88.11,5.85,0,.3.41.52.59.22,1.08-1.77,2.16-3.53,3.21-5.31C8.73,27,8.34,26.72,8.16,27Z" /><path class="cls-1" d="M5,26.23A28.93,28.93,0,0,1,.41,25c0,.2,0,.4,0,.6a8.36,8.36,0,0,0,2-.87,8.75,8.75,0,0,0,1.74-1.05.24.24,0,0,0-.2-.42A4.21,4.21,0,0,0,2.37,24,8.3,8.3,0,0,1,.25,25a.32.32,0,0,0,0,.6,17.17,17.17,0,0,0,4.74,1.13A.24.24,0,0,0,5,26.23Z" /><path class="cls-1" d="M4.08,23.7a24.87,24.87,0,0,1-1.85-3.4l-.42.46a14.68,14.68,0,0,1,4.8,2.38c.41.27.84-.36.44-.62A15.18,15.18,0,0,0,2,20.11c-.26-.05-.43.27-.33.48a18.7,18.7,0,0,0,2,3.38C3.83,24.19,4.23,23.94,4.08,23.7Z" /><path class="cls-1" d="M7.71,23c1.49-.81,3-1.68,4.41-2.54L11.64,20a21.53,21.53,0,0,1-2.08,4.19c-.27.37.31.77.57.41a22.08,22.08,0,0,0,2.17-4.35c.11-.27-.22-.61-.48-.45a38.09,38.09,0,0,0-4.41,2.72A.28.28,0,0,0,7.71,23Z" /><path class="cls-1" d="M8.84,28a22.28,22.28,0,0,1,3.94,1,.34.34,0,0,0,.38-.54c-.6-.71-1.17-1.45-1.75-2.18A5.52,5.52,0,0,0,9.8,24.51c-.16-.08-.4.1-.34.28a6.82,6.82,0,0,0,1.39,1.92c.58.72,1.17,1.44,1.78,2.14l.38-.54a15.2,15.2,0,0,0-4.12-.86A.26.26,0,0,0,8.84,28Z" /><path class="cls-1" d="M36.11,6A245,245,0,0,1,11,25c-.27.18,0,.64.3.47A188.64,188.64,0,0,0,36.36,6.29C36.55,6.13,36.3,5.83,36.11,6Z" /><path class="cls-1" d="M44.91,2.55C38.09,8.27,31,13.64,24.14,19.31c-.22.18.05.48.28.33A252.69,252.69,0,0,0,45.22,2.92C45.45,2.72,45.15,2.35,44.91,2.55Z" /><path class="cls-1" d="M37.3.06C33.53,3.82,29.68,7.52,26,11.38c-.16.17.07.45.24.29C30.1,8,33.8,4.13,37.56.36,37.74.18,37.48-.13,37.3.06Z" /><path class="cls-1" d="M21,16.34c-3.32,2.31-6.55,4.79-9.76,7.24-.18.15.05.41.24.28,3.27-2.37,6.57-4.75,9.74-7.27C21.33,16.46,21.12,16.22,21,16.34Z" /><path class="cls-1" d="M21.82,21.06c-2.17,1.34-4.37,2.64-6.51,4-.18.12,0,.44.16.32,2.19-1.3,4.34-2.67,6.5-4C22.17,21.27,22,20.94,21.82,21.06Z" /></g></g></g></svg>