<svg xmlns="http://www.w3.org/2000/svg" viewBox="0 0 44.51 43.6"><defs><style>.cls-1{fill:#bd9276;}.cls-2{fill:#866852;}.cls-3{fill:#d3a68d;}.cls-4{fill:#260029;}</style></defs><g id="Layer_2" data-name="Layer 2"><g id="_"><path class="cls-1" d="M43.29,18.3c-.92-5-4.06-9.22-7.21-13.19a11.44,11.44,0,0,0-4.3-3.83,11.16,11.16,0,0,0-4-.58c-2.37,0-4.75,0-7.12.06a30,30,0,0,0-7.61,1A11.73,11.73,0,0,0,6.81,6a34.05,34.05,0,0,0-2.12,4.12c-.89,1.76-2.05,3.39-2.83,5.2a17.78,17.78,0,0,0-.32,11.81A43.77,43.77,0,0,0,6.81,38,6.89,6.89,0,0,0,8.4,39.51c.72.64,2.09.19,3,.5,6.39,2.21,12.45,3,19,1.53,5.51-1.23,9.26-6.76,11.33-11.66A20.42,20.42,0,0,0,43.29,18.3Z"/><path class="cls-2" d="M32.61,22.43a6.74,6.74,0,0,1,1.73-2.94,3,3,0,0,1,5.2,1.4A6.58,6.58,0,0,1,39.6,24a9.48,9.48,0,0,1-2.31,4.89C32.67,33.74,31.47,25.91,32.61,22.43Z"/><path class="cls-2" d="M8.45,30.07a6.68,6.68,0,0,1-1.53-2.35A9.1,9.1,0,0,1,6.7,26a14.55,14.55,0,0,0-1-4.26,1.76,1.76,0,0,1,1.54-1.13,5.06,5.06,0,0,1,2,.31,7.17,7.17,0,0,1,1.27.47,4.57,4.57,0,0,1,2,2.44A11.41,11.41,0,0,1,13.18,27a9.43,9.43,0,0,1-.09,3C12.27,33.58,10.18,32,8.45,30.07Z"/><path class="cls-2" d="M19,9.09a9.13,9.13,0,0,1,5-.25c.37,1.3-.79,2.64-2.1,3C19.91,12.33,15.21,10.4,19,9.09Z"/><path class="cls-3" d="M29.17,26.17a10.47,10.47,0,0,1,1.69-6.58c1.2-1.89,3.27-3.55,5.48-3.2a1.76,1.76,0,0,1,1,.44.86.86,0,0,1,.16,1,1.47,1.47,0,0,1-.62.44,9.1,9.1,0,0,0-5.2,8.14c0,.89.82,2.78.56,3.52C31.24,32.84,29.27,27.19,29.17,26.17Z"/><path class="cls-3" d="M4.46,21.78a3.9,3.9,0,0,1,1.31-3.49,5.81,5.81,0,0,1,3.55-.77,3.38,3.38,0,0,1,1.41.2,3.27,3.27,0,0,1,1,.77,16,16,0,0,1,4.23,10.29,4.59,4.59,0,0,1-.69,3,.62.62,0,0,1-.47.29c-.27,0-.38-.38-.41-.66a22.58,22.58,0,0,0-1.52-6.78A7,7,0,0,0,7.66,20.4a1.38,1.38,0,0,0-1.09.24,1.56,1.56,0,0,0-.3,1.24,30.35,30.35,0,0,1,.12,4C5.17,25.65,4.58,23,4.46,21.78Z"/><path class="cls-3" d="M20,8.59a6.63,6.63,0,0,1,4.6,1.07,6.09,6.09,0,0,1-3.11,2.41,2.5,2.5,0,0,0,2.23.06,5.39,5.39,0,0,0,1.82-1.4,2.26,2.26,0,0,0,.76-1.64,1.58,1.58,0,0,0-.94-1.2,4.1,4.1,0,0,0-1.55-.33,20.43,20.43,0,0,0-4.49.2c-2.06.32-4.34,1.19-5,3.15a.54.54,0,0,0,0,.54.63.63,0,0,0,.35.16l4.05.83C15.81,11.07,17.59,8.94,20,8.59Z"/><path class="cls-4" d="M1.79,28C1.32,21.48.07,16.1,5.28,11a.34.34,0,0,0-.36-.56C-1.3,13.36-.38,22.76,1,28.17A.38.38,0,0,0,1.79,28Z"/><path class="cls-4" d="M4.9,10.9A12.68,12.68,0,0,1,11.83,3c3.43-1.65,6.43-1.35,10.06-1.45.33,0,.62-.48.25-.68-6-3.32-17.55,3-17.84,9.85A.31.31,0,0,0,4.9,10.9Z"/><path class="cls-4" d="M21.35,1.08c2,.61,4.11.25,6.2.23A9.11,9.11,0,0,1,31,1.77c1.62.66,2.31,2.08,3.36,3.34a.39.39,0,0,0,.68-.32C33.86-1.46,25.86.57,21.5.42,21.14.41,21,1,21.35,1.08Z"/><path class="cls-4" d="M34.88,4.53c2.23,3.69,5.3,6.86,7,10.86,2.7,6.21.8,11.29-1.74,17.12-.21.48.51.83.81.42,7.26-10.1,2.25-20.81-5.62-28.71C35.15,4,34.7,4.23,34.88,4.53Z"/><path class="cls-4" d="M39.86,32c-1.29,1.5-2.06,3.36-3.21,5A6.26,6.26,0,0,1,34.48,39c-1.19.58-2.19.11-3.39,0a.48.48,0,0,0-.32.86c1.79,1.45,4.3.51,5.72-1,1.74-1.83,2.77-4.3,4-6.49A.37.37,0,0,0,39.86,32Z"/><path class="cls-4" d="M31.08,40.46c-2.8.08-5.54,1.07-8.32,1.45-4.2.58-7,.06-10.14-2.78-.37-.34-.84.19-.68.57,2.75,6.6,14.46,3.18,19.28,1.54A.41.41,0,0,0,31.08,40.46Z"/><path class="cls-4" d="M11.13,39.57C7.75,38.45,6.33,36.38,5,33.19c-.86-2.07-1.53-4.9-3.31-6.4-.4-.34-.9.2-.73.62.59,1.42,1.45,2.74,2,4.18A38.21,38.21,0,0,0,5,36c1.28,2.28,3.24,4.21,6,4.33C11.4,40.39,11.6,39.72,11.13,39.57Z"/><path class="cls-4" d="M35.28,30.67c4.55-1.55,8-13.21.69-12.61a.48.48,0,0,0,0,1c6.09.17,2.33,9.28-1,11.09A.32.32,0,0,0,35.28,30.67Z"/><path class="cls-4" d="M32.57,22.43C30.77,25.59,31,29,33.93,31.27a.49.49,0,0,0,.53,0A3.1,3.1,0,0,0,36,29.6c.11-.28-.22-.64-.51-.47s-.95,1-1.34.95c-.77-.07-1.55-2-1.68-2.65a8.22,8.22,0,0,1,.78-4.67C33.34,22.39,32.78,22.07,32.57,22.43Z"/><path class="cls-4" d="M5.68,21.86A7.85,7.85,0,0,1,6,24.43a17,17,0,0,0,.38,3.1A10.29,10.29,0,0,0,8.9,31.59c.75.78,1.9,1.74,3.06,1.32,1.53-.55,1.87-3.08,1.66-4.41a.36.36,0,0,0-.69-.06c-.31,1-.25,3.94-1.91,3.51-1.18-.31-2.17-1.86-2.78-2.82a8.3,8.3,0,0,1-1.26-4c-.11-1.07,0-2.75-.76-3.61C6,21.25,5.5,21.53,5.68,21.86Z"/><path class="cls-4" d="M5.76,22a3.58,3.58,0,0,1,4.69,0c1.19,1,1.64,2.39,2.54,3.58.23.3.67,0,.63-.3a6.85,6.85,0,0,0-3.37-4.62,4.2,4.2,0,0,0-5,.75C4.9,21.75,5.37,22.3,5.76,22Z"/><path class="cls-4" d="M17.57,11.46c2.27,2.77,5.69,1.14,7.45-1.33a.46.46,0,0,0-.1-.62,5.71,5.71,0,0,0-6.87.1c-.32.28,0,.7.38.58,2.2-.71,3.86-1.4,6,.05l-.11-.62c-1.42,2-4.19,3.58-6.22,1.4A.34.34,0,0,0,17.57,11.46Z"/><path class="cls-4" d="M7.58,10.88C9,7.79,10.68,5.47,14.23,5.12c.29,0,.27-.51,0-.53-3.72-.15-5.79,3.08-7.1,6.11C7,11,7.45,11.18,7.58,10.88Z"/><path class="cls-4" d="M32.19,18.27a10.35,10.35,0,0,0-2.83,11.35c.14.36.76.17.66-.21-1.11-3.9-.46-7.78,2.61-10.61C33,18.5,32.52,18,32.19,18.27Z"/><path class="cls-4" d="M14.28,22.35a12.07,12.07,0,0,1,.9,9.72c-.14.41.46.77.69.36C17.63,29.28,16.73,25,15,22,14.74,21.58,14.05,21.89,14.28,22.35Z"/><path class="cls-4" d="M21.44,33.4c3.25,0,3.9-3.73,1.63-5.63-.4-.34-.85.33-.46.67,1.74,1.52,1.41,4.23-1.19,4.4C21.11,32.86,21.13,33.4,21.44,33.4Z"/><path class="cls-4" d="M28.2,3.78a12.46,12.46,0,0,1,5.72,3.35c1.55,1.68,2.16,3.66,3.21,5.62a.33.33,0,0,0,.61-.2c-.53-4.45-5.06-8.74-9.4-9.36A.31.31,0,0,0,28.2,3.78Z"/><path class="cls-4" d="M38.82,15.3a1.12,1.12,0,0,0,.85,1.31.36.36,0,0,0,.38-.42c0-.26-.17-.33-.3-.54a.76.76,0,0,1-.08-.38C39.64,14.79,38.85,14.83,38.82,15.3Z"/><path class="cls-4" d="M22.44,39.35c3.07-.8,6.82-1.54,9.28-3.69a.34.34,0,0,0-.37-.57,80.23,80.23,0,0,1-9,3.65C22,38.86,22.05,39.45,22.44,39.35Z"/></g></g></svg>