<svg xmlns="http://www.w3.org/2000/svg" viewBox="0 0 73.89 64.1"><defs><style>.cls-1{fill:#e69c43;}.cls-2{fill:#ffb84a;}.cls-3{fill:#ff8345;}.cls-4{fill:#260029;}</style></defs><g id="Layer_2" data-name="Layer 2"><g id="_"><path class="cls-1" d="M4.79,55.3a67.49,67.49,0,0,1,4.6-8.65,68.39,68.39,0,0,1,7.66-9.09A15.14,15.14,0,0,0,11.77,40,47.82,47.82,0,0,1,30.05,19.62,7.59,7.59,0,0,0,26,20,77.4,77.4,0,0,1,48.44,5.68a24.68,24.68,0,0,1,7.94-2.16A10.52,10.52,0,0,1,64.06,5.9a12.65,12.65,0,0,1,3.17,5.23,12.31,12.31,0,0,1,.93,5c-.22,3.5-2.72,6.41-5.24,8.85-7.44,7.17-16.33,12.9-22.7,21,.21-1.33.43-2.67.65-4-1.66,3.09-5.18,4.65-8.55,5.59s-7,1.54-9.83,3.55l3.18-5.78c-2.24.26-4.11,1.79-5.87,3.22C14.55,52.9,8.77,58,2.66,61,2,59.76,4.2,56.54,4.79,55.3Z"/><path class="cls-2" d="M64.06,5.9a10.52,10.52,0,0,0-7.68-2.38,24.68,24.68,0,0,0-7.94,2.16c-2.1.87-4.17,1.85-6.19,2.91a44.29,44.29,0,0,0-7,8.63,3.81,3.81,0,0,1,3-.83C35.15,22.94,27.5,26.1,23.39,32.08a11.52,11.52,0,0,1,6.47-2.75c-1.8,4.4-6,7.25-9.94,9.92-1.93,1.31-9.59,6-8.4,9C15,46.65,17.66,44,21.44,42.87c3.06-.95,6.28-1.3,9.32-2.29s6-2.84,7.34-5.76Q35.55,40.13,33,45.43c3.35-4.85,9.76-7,12.82-12q-.75,2.6-1.51,5.19a12.93,12.93,0,0,1,6.79-6A34.74,34.74,0,0,1,56.18,31c2.31-1.93,4.58-3.89,6.74-6,2.52-2.44,5-5.35,5.24-8.85a12.31,12.31,0,0,0-.93-5A12.65,12.65,0,0,0,64.06,5.9Z"/><path class="cls-3" d="M53.38,6.67a4.61,4.61,0,0,1,4.55,2.58,4.26,4.26,0,0,1,3.48-.57,2.87,2.87,0,0,1,2.05,2.7c0,.44-.16.87-.18,1.31a5.91,5.91,0,0,0,.23,1.61,24.26,24.26,0,0,1,.26,5.84A6.22,6.22,0,0,1,63,23.47C62,25,59.8,25.31,57.92,25.24a2.75,2.75,0,0,0-1,.07,4.31,4.31,0,0,0-.92.55,3.93,3.93,0,0,1-5.65-2.08,2.57,2.57,0,0,1-2.88-.14,7.81,7.81,0,0,1-2-2.32c-1.14-1.77-2.33-3.88-1.61-5.86A10.79,10.79,0,0,0,44.45,14c.1-.47,0-1,.17-1.44a2.81,2.81,0,0,1,.93-1.37c1.19-1.09,2.75-1.17,4-2S51.5,6.87,53.38,6.67Z"/><path class="cls-4" d="M45.46,15c-.49-1.45-.51-3.22.9-4.16s2.94-.24,4.21.57c.38.24.94-.28.57-.63a4.17,4.17,0,0,0-5.23-.55,3.77,3.77,0,0,0-.9,5A.25.25,0,0,0,45.46,15Z"/><path class="cls-4" d="M51.33,11.8c0-.5.14-1.09.68-1.27s1.19.15,1.79-.06c.19-.06.19-.31.1-.45a2.11,2.11,0,0,0-2.49-.31,2.05,2.05,0,0,0-.95,2.13C50.5,12.33,51.31,12.29,51.33,11.8Z"/><path class="cls-4" d="M50.18,9.92c.37-.84.44-1.6,1.22-2.22a4.33,4.33,0,0,1,2.7-.84,4.41,4.41,0,0,1,2.65.83c.83.62,1,1.53,1.61,2.26a.33.33,0,0,0,.57-.17c.43-2.54-3.21-4-5.17-3.81-1.77.14-4.84,1.72-4,4A.21.21,0,0,0,50.18,9.92Z"/><path class="cls-4" d="M57.56,10a6.42,6.42,0,0,1,.85.37c.18.12.28.28.48.36a.24.24,0,0,0,.32-.2c.06-.64-1-.94-1.45-1.07A.29.29,0,0,0,57.56,10Z"/><path class="cls-4" d="M58.46,8.94a3.66,3.66,0,0,1,3.85.27c1.39,1.11.91,2.7,0,4-.32.45.35.91.7.49,1.21-1.5,1.5-3.65-.07-5a3.89,3.89,0,0,0-4.81-.18C57.92,8.68,58.19,9.07,58.46,8.94Z"/><path class="cls-4" d="M61.55,13.07c1.54.61,2.65,1.57,2.3,3.37a4.07,4.07,0,0,1-3,3c-.47.16-.21.91.26.82a4.65,4.65,0,0,0,3.69-4.07,3.43,3.43,0,0,0-3.11-3.78A.34.34,0,0,0,61.55,13.07Z"/><path class="cls-4" d="M62.94,18.55A3.22,3.22,0,0,1,64,21a4.19,4.19,0,0,1-1.47,2.52,5.25,5.25,0,0,1-6.1.84c-.52-.28-1.07.43-.54.77a6.09,6.09,0,0,0,7.59-1.24c1.49-1.58,2.27-4.65-.18-5.81C63,18,62.78,18.34,62.94,18.55Z"/><path class="cls-4" d="M44.54,14a2.87,2.87,0,0,0-2,3.08c.07,1.29,1.11,3.22,2.62,3.11a.31.31,0,0,0,.18-.51c-.34-.38-.82-.53-1.19-.9a2.8,2.8,0,0,1-.74-1.52,2.62,2.62,0,0,1,1.28-2.72C45,14.4,44.87,13.9,44.54,14Z"/><path class="cls-4" d="M45.5,17.9a4.15,4.15,0,0,0,3.41,6.84c1.09-.1,2.57-.8,2.83-1.95.06-.26-.26-.39-.45-.32-.86.33-1.34,1.15-2.32,1.31a3.1,3.1,0,0,1-2.39-.72,3.24,3.24,0,0,1-.53-4.66C46.29,18.07,45.81,17.6,45.5,17.9Z"/><path class="cls-4" d="M50.48,23.69a2.83,2.83,0,0,0,2,3.29,4.83,4.83,0,0,0,4.75-1.27c.44-.44-.14-1.16-.64-.75a4.36,4.36,0,0,1-3.41,1.21C51.72,26,51.29,25,51,23.74,51,23.49,50.54,23.4,50.48,23.69Z"/><path class="cls-4" d="M47.41,16.24a2.44,2.44,0,0,0,1,2.89,2.73,2.73,0,0,0,3.17-.36c.19-.21-.06-.53-.3-.48-.83.14-1.53.62-2.39.25A1.89,1.89,0,0,1,48,16.36C48,16.05,47.49,15.92,47.41,16.24Z"/><path class="cls-4" d="M50.82,21.09a1.81,1.81,0,0,0,1,1.63,2.26,2.26,0,0,0,2,.12c.17-.09.2-.39,0-.45-.48-.14-1-.07-1.48-.25a1.61,1.61,0,0,1-1-1.14A.26.26,0,0,0,50.82,21.09Z"/><path class="cls-4" d="M55.59,13.74c.86.3,1.63.62,1.94,1.57s-.24,1.58-.49,2.46a.28.28,0,0,0,.38.34c1.09-.49,1.24-2.1.88-3.1a2.64,2.64,0,0,0-2.66-1.82A.29.29,0,0,0,55.59,13.74Z"/><path class="cls-4" d="M53.84,20.42c.62.28,1.92.29,2.07-.58a.26.26,0,0,0-.3-.28c-.3,0-.49.24-.78.31a2.08,2.08,0,0,1-.86,0C53.64,19.82,53.57,20.3,53.84,20.42Z"/><path class="cls-4" d="M57.29,23.25a2,2,0,0,0,1.76,0,2.41,2.41,0,0,0,1.24-1.42.24.24,0,0,0-.38-.26c-.4.28-.68.71-1.1,1a1.86,1.86,0,0,1-1.33.21A.29.29,0,0,0,57.29,23.25Z"/><path class="cls-4" d="M50.75,15.76c.22-1.08,1.08-1.61,1.72-2.42.14-.19-.09-.41-.28-.33a3.12,3.12,0,0,0-2.07,2.69A.32.32,0,0,0,50.75,15.76Z"/><path class="cls-4" d="M35.19,17.07c4-4.22,7.89-9.36,13.26-11.92C54,2.47,61.22,3,65.43,7.9,75.74,19.8,57.82,29.63,48.9,33.75c-.3.14-.08.56.22.46C59,30.71,76.26,20,66.41,7.71A14.47,14.47,0,0,0,52.13,3c-7.61,1.58-12.36,8.36-17.22,13.8C34.76,17,35,17.23,35.19,17.07Z"/><path class="cls-4" d="M35,17.73a25,25,0,0,1,3.54-1.3c.2-.05.23-.39,0-.39a8.86,8.86,0,0,0-3.76,1.21A.27.27,0,0,0,35,17.73Z"/><path class="cls-4" d="M38.46,16.77a24.1,24.1,0,0,0-4.06,4.38,26,26,0,0,1-5,4.45c-2.68,1.94-5.55,4-6.61,7.28a.24.24,0,0,0,.45.16c1.86-3.65,4.78-5.58,8-8,3-2.28,4.67-5.63,7.52-8A.17.17,0,0,0,38.46,16.77Z"/><path class="cls-4" d="M23.18,33.1c.94-1.12,5.5-4.11,7.36-3.51.34.11.54-.4.2-.52a1.36,1.36,0,0,1-.28-.11.31.31,0,0,0-.34.11C24.92,37.6,12.84,39.66,10,50c-.07.27.32.43.42.15,2.25-5.65,6.28-8.81,11.14-12.09A45.18,45.18,0,0,0,27,34a38,38,0,0,0,3.57-4.38.28.28,0,0,0,.2-.52c-2.11-.82-6.73,2.14-7.95,3.76C22.61,33.07,23,33.32,23.18,33.1Z"/><path class="cls-4" d="M10.75,50c4.84-6,11.12-6.58,18.1-8,4.61-1,7-3.73,10.19-6.91a.28.28,0,0,0-.36-.43c-3.23,2.37-5,5.35-9.19,6.45-2.82.74-5.76.69-8.57,1.53a18.42,18.42,0,0,0-10.46,7.17A.18.18,0,0,0,10.75,50Z"/><path class="cls-4" d="M37.86,34.86c-.32,4.45-5.4,7.07-5.21,11.5,0,.19.32.21.37,0,1.15-4.2,5.24-7,5.51-11.48A.34.34,0,0,0,37.86,34.86Z"/><path class="cls-4" d="M33.15,46.13c1.29-3.29,4.5-4.6,7.2-6.52a36.73,36.73,0,0,0,6.57-6.32c.14-.17-.08-.36-.25-.3-1.55.57-2.55,2-3.66,3.18a26,26,0,0,1-4.33,3.65c-2.44,1.64-5.09,3.16-6,6.15A.22.22,0,0,0,33.15,46.13Z"/><path class="cls-4" d="M46,33.55c-.45,1.9-1.48,3.47-2.14,5.28a.2.2,0,0,0,.35.18,12.65,12.65,0,0,0,2.29-5.35C46.57,33.38,46.1,33.26,46,33.55Z"/><path class="cls-4" d="M44.42,39.39A25.53,25.53,0,0,1,46.9,36.1,35.09,35.09,0,0,1,50,33.5c.2-.16,0-.45-.23-.36a11.71,11.71,0,0,0-5.71,6.07A.2.2,0,0,0,44.42,39.39Z"/><path class="cls-4" d="M42.11,8.2C37.22,12.71,29,14.39,25.88,20.64c-.11.22.25.4.38.2,3.9-6.13,11.89-6.8,16.17-12.35A.22.22,0,0,0,42.11,8.2Z"/><path class="cls-4" d="M26.17,20.89c1.15-.58,3.64-.95,4.15-1.55a6.25,6.25,0,0,1-1.45.84,44.18,44.18,0,0,0-6.95,5.4c-4.31,4-8.69,9-10.38,14.74a.22.22,0,0,0,.42.15,41.05,41.05,0,0,1,9.42-13.58,49.21,49.21,0,0,1,5.54-4.75c.93-.68,2.55-2.3,3.77-2.44a.22.22,0,0,0,0-.42c-1.32-.59-3.62.64-4.73,1.26C25.79,20.66,25.94,21,26.17,20.89Z"/><path class="cls-4" d="M11.91,40.58c.73-.54,1.47-1.06,2.23-1.56a17.1,17.1,0,0,0,2.36-1.59.21.21,0,0,0-.23-.34,12.26,12.26,0,0,0-2.37,1.39,24.38,24.38,0,0,0-2.31,1.73A.24.24,0,0,0,11.91,40.58Z"/><path class="cls-4" d="M17.29,36.88C8.18,43.18,6,55.08,0,63.83c-.13.18.15.37.29.2,6.73-8.58,8.44-19.73,17.2-26.88C17.7,37,17.48,36.75,17.29,36.88Z"/><path class="cls-4" d="M.74,63.87c3.27-4.25,8.15-5.9,12.33-9s7.56-8,13.11-9.09a.27.27,0,0,0-.1-.54c-5.22.68-8.5,5.23-12.38,8.31-4.49,3.56-9.86,5.29-13.32,10C.21,63.85.57,64.09.74,63.87Z"/><path class="cls-4" d="M25.52,45.54a15.85,15.85,0,0,0-3.13,6.34.21.21,0,0,0,.37.13c.54-.9.87-1.94,1.33-2.89A33.94,33.94,0,0,1,26,45.87.28.28,0,0,0,25.52,45.54Z"/><path class="cls-4" d="M22.47,52c2.9-3.15,7.55-2.21,11.19-3.87,3.23-1.48,5.85-4.15,8.18-6.77.18-.2-.13-.45-.32-.3-4.15,3.17-6.63,6.52-12.11,7.54-2.79.52-5.44.72-7.3,3.07C21.93,51.87,22.28,52.19,22.47,52Z"/><path class="cls-4" d="M40.73,42.28c.06,1.16-.34,2.44-.38,3.62,0,.24.35.43.48.18C44.61,39,52.46,35.72,57.42,29.73c.17-.2-.13-.42-.31-.29a99.93,99.93,0,0,0-12.44,10.8c-.7.72-1.38,1.45-2,2.23-.38.46-1.47,2.62-1.78,2.77a7.93,7.93,0,0,0,.33-3.11C41.1,41.84,40.72,42,40.73,42.28Z"/><path class="cls-4" d="M42.21,9.11c.43-.4.9-.72,1.31-1.15.16-.17-.05-.44-.24-.28-.46.36-1,.66-1.39,1.06C41.67,9,42,9.32,42.21,9.11Z"/><path class="cls-4" d="M43.56,6.07a24.45,24.45,0,0,1,8.81-4.41.19.19,0,0,0-.06-.38c-3.4.21-6.38,2.52-9,4.5C43.13,5.93,43.37,6.2,43.56,6.07Z"/><path class="cls-4" d="M55.39,1.48a4.66,4.66,0,0,1,2.43-.06A.22.22,0,0,0,58,1a3.11,3.11,0,0,0-2.79,0A.26.26,0,0,0,55.39,1.48Z"/><path class="cls-4" d="M65.78,4.52A31.07,31.07,0,0,1,70,9.71c1.37,2.39,1.3,4.67.78,7.28,0,.25.33.31.42.1,2.27-5.21-1.66-9.39-5.1-12.8C65.89,4.12,65.62,4.35,65.78,4.52Z"/><path class="cls-4" d="M53,35.83c5.1-4.42,12.65-7.69,16.06-13.71a.24.24,0,0,0-.39-.27,35.67,35.67,0,0,1-8.45,7.62c-2.64,1.81-5.5,3.57-7.54,6.08C52.52,35.74,52.81,36,53,35.83Z"/><path class="cls-4" d="M70.56,23.3a8.76,8.76,0,0,0,.84-1.38c.23-.44.51-.86.72-1.31.09-.19-.18-.37-.33-.23A13.61,13.61,0,0,0,70.15,23C70,23.28,70.36,23.54,70.56,23.3Z"/><path class="cls-4" d="M30.26,14.06c3.06-2.71,7.43-3.54,10.25-6.54a.19.19,0,0,0-.26-.29C37,9.71,33,10.93,30,13.71,29.75,13.91,30,14.26,30.26,14.06Z"/><path class="cls-4" d="M61.28.46c1.42.73,3,1.18,4.38,1.88a8.06,8.06,0,0,1,3.93,3.84A.2.2,0,0,0,70,6.06c-.53-3.63-5.68-4.95-8.52-6C61.16-.09,61,.32,61.28.46Z"/><path class="cls-4" d="M67.15,1a5.72,5.72,0,0,1,1.43.79c.39.3.67.71,1,1,.16.13.36-.07.29-.24a4.31,4.31,0,0,0-2.62-2A.22.22,0,0,0,67.15,1Z"/><path class="cls-4" d="M71.19,6.12a12.25,12.25,0,0,1,2,8.56.19.19,0,0,0,.37.08c1-3.14-.26-6.25-2-8.86C71.4,5.71,71.06,5.92,71.19,6.12Z"/><path class="cls-4" d="M15.11,56.6a22.86,22.86,0,0,1,2.39-2.53c.85-.72,1.8-1.28,2.66-2,.19-.15,0-.43-.22-.34a12.69,12.69,0,0,0-5.21,4.59A.23.23,0,0,0,15.11,56.6Z"/></g></g></svg>