<svg xmlns="http://www.w3.org/2000/svg" viewBox="0 0 54.22 43.29"><g xmlns="http://www.w3.org/2000/svg" transform="matrix(-1 0 0 -1 54.22 43.29)"><defs><style>.cls-1{fill:#e49e2e;}.cls-2{fill:#ffbe39;}.cls-3{fill:#ffcebc;}.cls-4{fill:#d5a498;}.cls-5{fill:#260029;}</style></defs><g id="Layer_2" data-name="Layer 2"><g id="_"><path class="cls-1" d="M30.66,20.79a3.16,3.16,0,0,0-.11-1.47,4.6,4.6,0,0,0-.91-1.52C27.26,15.72,24.85,14,22.47,12c3.84-1.32,7.37-.93,10.34-2,1.3-3.29,1.81-6.08,3.65-9.09C38.75,2.61,39.17,5.31,41,7.13c.49.49.59,2.13,1.17,2.5.41.26,1.48,0,2,.06l7.59.63c.66,0,1.53.36,1.43,1a1.2,1.2,0,0,1-.48.68c-2,1.79-4.64,4.33-6.67,6.12.78,3.61,2.15,6.46,2.92,10.07a45,45,0,0,1-9.47-5c-.62-.43-7.11,4.95-8.61,5.79C29.31,28.63,30.52,22.59,30.66,20.79Z" /><path class="cls-2" d="M47.82,27.75c.36.15.71.31,1.07.45-.65-3-2-7.7-2.83-10.57-.12.11-.42,1.18-.09,3.17A40.38,40.38,0,0,0,47.82,27.75Zm5.65-17.2c-2.52-.21-6.84-.65-9.37-.86-.48,0-1.55.2-2-.06-.58-.37-.68-2-1.17-2.5-1.8-1.82-2.22-4.52-4.51-6.25-1.84,3-2.35,5.8-3.65,9.09-3,1-6.66.26-10.5,1.58.68.6,8.07,1.17,10.41.33C34,11,35.56,2.38,36.39,2.47s4.5,9,5.08,9.41a7.92,7.92,0,0,0,2.3.14C46.3,12.23,54.13,10.61,53.47,10.55Z" /><path class="cls-3" d="M.89,32.87c-1-1.41.19-3.35,1.46-4.54,7-6.52,16.59-9.18,25.81-11.6a11,11,0,0,0,2.87,2c-.24,1.16-.47,2.32-.71,3.48a2.1,2.1,0,0,1-.27.81c-.2.3-1.44.26-1.74.45-5.75,3.51-9.18,9.47-11,15.94a3.14,3.14,0,0,1-1.19,2.05,2.43,2.43,0,0,1-1,.24,8.48,8.48,0,0,1-5-1.1,2.9,2.9,0,0,1-3.24,2.17,7.21,7.21,0,0,1-3.77-2,5.33,5.33,0,0,1-1.75-2.17c-.54-1.49.47-2,.87-3.22.26-.79.61-.25.17-1.22C2.19,33.68,1.23,33.33.89,32.87Z" /><path class="cls-4" d="M30.88,19c-1-.69-7.56,4.61-8.45,5.33a43,43,0,0,0-7.18,7.41c-1.83,2.4-4.49,5.75-5.05,8.79a.41.41,0,0,0,0,.11,8.51,8.51,0,0,0,4.94,1.07,2.43,2.43,0,0,0,1-.24,3.14,3.14,0,0,0,1.19-2.05c1.84-6.47,5.27-12.43,11-15.94.3-.19,1.54-.15,1.74-.45a2.1,2.1,0,0,0,.27-.81c.22-1.05.43-2.1.64-3.15ZM30,18.16a11.22,11.22,0,0,1-1.86-1.43c-9.22,2.42-18.85,5.08-25.81,11.6C1.08,29.52-.14,31.46.89,32.87c.34.46,1.3.81,1.52,1.31.44,1,.09.43-.17,1.22C8.35,26.77,18.63,22,28.79,18.85A2.72,2.72,0,0,0,30,18.16Z" /><path class="cls-5" d="M42.55,9.44C40.78,6.25,39.14,2.85,36.73.09c-.22-.25-.61.08-.39.33,2.42,2.8,3.74,6.25,5.85,9.25C42.33,9.87,42.66,9.65,42.55,9.44Z" /><path class="cls-5" d="M36.52.1C35.29,1,34.76,2.83,34.3,4.19a43.44,43.44,0,0,1-2,5.64c-.14.28.34.53.5.26,1.8-3.07,1.79-6.85,4-9.73C37,.18,36.69,0,36.52.1Z" /><path class="cls-5" d="M49.24,28.3a46,46,0,0,0-2.91-10.65.2.2,0,0,0-.37.12c.67,3.54,1.92,7.12,2.88,10.6C48.91,28.62,49.29,28.56,49.24,28.3Z" /><path class="cls-5" d="M49.13,28.2c-3.24-1.84-6.79-3.25-9.88-5.35a.3.3,0,0,0-.34.5,36.57,36.57,0,0,0,4.63,2.56A33.85,33.85,0,0,0,49,28.48C49.15,28.53,49.3,28.3,49.13,28.2Z" /><path class="cls-5" d="M38.93,22.92a105.75,105.75,0,0,1-9.11,6c-.3.17-.08.65.22.48a76.79,76.79,0,0,0,9.19-6.17C39.48,23.1,39.17,22.75,38.93,22.92Z" /><path class="cls-5" d="M30.09,29.33c0-3.47.63-6.87.62-10.33,0-.33-.5-.38-.5-.05,0,3.41-1.24,7-.42,10.39C29.83,29.5,30.1,29.51,30.09,29.33Z" /><path class="cls-5" d="M30.69,18.75a33.58,33.58,0,0,0-3.77-3.37c-1.57-1.35-3.1-2.73-4.61-4.14-.26-.23-.68.11-.43.36,1.29,1.28,2.65,2.48,4,3.66A35.28,35.28,0,0,0,30.47,19,.17.17,0,0,0,30.69,18.75Z" /><path class="cls-5" d="M32.81,9.76c-3.57-.27-7.33.9-10.89,1.2-.29,0-.27.51,0,.51,3.56,0,7.37-.83,10.88-1.4A.16.16,0,0,0,32.81,9.76Z" /><path class="cls-5" d="M53.85,10.24c-3.8-.8-7.84-.78-11.71-1a.23.23,0,0,0,0,.45c3.9.4,7.82.48,11.72.95C54.06,10.64,54.08,10.29,53.85,10.24Z" /><path class="cls-5" d="M53.94,10.18c-2.84,2.22-5,5.14-7.95,7.28-.2.15,0,.52.25.38,3-1.86,5.47-4.88,7.92-7.4A.17.17,0,1,0,53.94,10.18Z" /><path class="cls-5" d="M52.31,10.51c.32.22,0,.46,0,.76a.19.19,0,0,0,.18.17c.35,0,.53-.32.56-.65a.73.73,0,0,0-.54-.76A.27.27,0,0,0,52.31,10.51Z" /><path class="cls-5" d="M52.61,10.47a1.91,1.91,0,0,1,.09.79c0,.16.21.18.32.11a.71.71,0,0,0-.13-1.21C52.71,10.07,52.53,10.3,52.61,10.47Z" /><path class="cls-5" d="M53.09,10.79c-.18-.08-.15,0-.17.19a.18.18,0,0,0,.25.18c.49-.15.55-.85,0-.82C52.87,10.35,52.9,10.71,53.09,10.79Z" /><path class="cls-5" d="M53.15,10.72c.05-.09.05-.09,0,0a.83.83,0,0,0,0,.15c0,.16.15.24.27.19a.39.39,0,0,0,.26-.54.24.24,0,0,0-.2-.13c-.09,0-.17,0-.27,0S53,10.72,53.15,10.72Z" /><path class="cls-5" d="M53.07,10.7c-.07.1-.12.22-.19.33s.13.31.23.16.13-.22.2-.32S53.17,10.54,53.07,10.7Z" /><path class="cls-5" d="M52.67,10.73a8.17,8.17,0,0,0-.57,1,.18.18,0,0,0,.24.22,1.55,1.55,0,0,0,.71-1.12C53.08,10.58,52.76,10.55,52.67,10.73Z" /><path class="cls-5" d="M53.3,10.91a.75.75,0,0,0-.87-.8.19.19,0,0,0-.1.3c.2.22.43.28.57.57A.21.21,0,0,0,53.3,10.91Z" /><path class="cls-5" d="M53.27,10.58A1,1,0,0,0,52,10c-.15.05-.11.27,0,.32.31.13.62.17.84.46S53.38,10.81,53.27,10.58Z" /><path class="cls-5" d="M53,10.67A1.64,1.64,0,0,0,51.87,10c-.17,0-.18.24-.07.32a7.58,7.58,0,0,0,.94.61C52.92,11.08,53.17,10.84,53,10.67Z" /><path class="cls-5" d="M38.54,2.62C38.13,2,37.74,1.21,36.9,1A1.37,1.37,0,0,0,35.24,2.2a.24.24,0,0,0,.33.24c.5-.21.71-.88,1.34-.64a3.79,3.79,0,0,1,1.27,1.05C38.33,3,38.67,2.84,38.54,2.62Z" /><path class="cls-5" d="M37.54,1.28C37.23.65,36,.54,36,1.42c0,.13.11.27.25.23s.26-.14.41-.19.39.07.59.15A.25.25,0,0,0,37.54,1.28Z" /><path class="cls-5" d="M37,.81c-.25-.32-.59-.19-.79.11l.57.3L36.92,1c.3-.31-.13-.84-.45-.52-.17.17-.55.4-.37.7a.33.33,0,0,0,.42.15l.11-.06A1.86,1.86,0,0,0,36.92,1l-.5-.46a.87.87,0,0,0-.24.5c-.06.39.47.44.63.14C37,1.29,37.16,1,37,.81Z" /><path class="cls-5" d="M32,27.85a8.26,8.26,0,0,0-1.22.11c-.56,0-.43-.36-.74-.68a.21.21,0,0,0-.28,0c-.56.49,0,1.29.57,1.42a2.1,2.1,0,0,0,1.78-.49A.2.2,0,0,0,32,27.85Z" /><path class="cls-5" d="M47.46,26.22a8.8,8.8,0,0,0-3.72-1.81c-.2,0-.25.26-.07.34,1.23.53,2.41,1.11,3.59,1.76C47.45,26.61,47.65,26.35,47.46,26.22Z" /><path class="cls-5" d="M42.75,23.55a1.71,1.71,0,0,1-.67-.14c-.17-.07-.34.16-.21.29a1,1,0,0,0,.89.28C43,24,43,23.54,42.75,23.55Z" /><path class="cls-5" d="M33.12,20a5.22,5.22,0,0,0-2.47-3.13c-.14-.09-.26.1-.14.21a6.67,6.67,0,0,1,2.33,3C32.89,20.25,33.16,20.22,33.12,20Z" /><path class="cls-5" d="M27.56,23.93c-5.8,2.57-9.88,10.26-9.93,16.47,0,.26.41.4.48.11,1.51-6.29,3.31-13,9.66-16.14A.24.24,0,0,0,27.56,23.93Z" /><path class="cls-5" d="M17.62,40.48c-2.28,1.33-5.22.68-7.6,0a.3.3,0,0,0-.21.56c2.23,1.1,5.9,1.27,8-.09C18.16,40.79,17.94,40.3,17.62,40.48Z" /><path class="cls-5" d="M24.35,22.34C17.27,27.6,11.46,34,8.8,42.52c-.12.41.49.65.63.23,3-8.67,8.44-14.19,15.18-20.1A.2.2,0,0,0,24.35,22.34Z" /><path class="cls-5" d="M17.64,41.4a10.43,10.43,0,0,0,.67-1.53c.05-.18-.2-.35-.31-.16a9.65,9.65,0,0,0-.68,1.58C17.24,41.49,17.54,41.59,17.64,41.4Z" /><path class="cls-5" d="M9.09,42.47a6.59,6.59,0,0,1-7.73-4.92.2.2,0,0,0-.39,0c-.38,3.37,5.3,7.08,8.22,5.23C9.35,42.7,9.3,42.42,9.09,42.47Z" /><path class="cls-5" d="M25.28,19.44C15.56,22.63,4.66,28,.93,38.23a.32.32,0,0,0,.61.22C6,28.15,15.66,23.83,25.42,19.74,25.62,19.66,25.47,19.38,25.28,19.44Z" /><path class="cls-5" d="M3.07,34.45C1.72,33.12.53,31.82.87,29.8a.22.22,0,0,0-.39-.14c-1.18,2,.8,4,2.18,5.24C2.92,35.13,3.31,34.7,3.07,34.45Z" /><path class="cls-5" d="M25.58,17c-9.47,2.17-19,5.72-25.49,13.23-.32.37.29.79.6.43,6.65-7.67,15.73-10.27,25-13.24C26,17.29,25.82,16.89,25.58,17Z" /></g></g></g></svg>