<svg xmlns="http://www.w3.org/2000/svg" viewBox="0 0 37.4 48.51"><defs><style>.cls-1{fill:#e69c43;}.cls-2{fill:#f9812e;}.cls-3{fill:#9f8f98;}.cls-4{fill:#dea4b7;}.cls-5{fill:#776f74;}.cls-6{fill:#260029;}</style></defs><g id="Layer_2" data-name="Layer 2"><g id="_"><path class="cls-1" d="M19.66,35.4a12.87,12.87,0,0,1,1.94-1.82l7.6-6.2a20.49,20.49,0,0,1,5.88,9.47A33.43,33.43,0,0,1,36.33,48a.48.48,0,0,1-.16.43.51.51,0,0,1-.37,0,28.38,28.38,0,0,1-9-3.3c-2.5-1.47-4.82-2.26-7-4.2C17.89,39.33,18.16,37.25,19.66,35.4Z"/><path class="cls-2" d="M31.07,42.94a1,1,0,0,0,.58,0,1,1,0,0,0,.48-.79,11.38,11.38,0,0,0-2-8.78,1.1,1.1,0,0,0-.35-.36,1.38,1.38,0,0,0-.83-.11,17.37,17.37,0,0,0-4.12.73C23.93,34,22,34.88,21.74,36s1.43,2.42,2.16,3.09A16.31,16.31,0,0,0,31.07,42.94Z"/><path class="cls-3" d="M20.55,18.44a22.07,22.07,0,0,1,10.24,7.89A2.13,2.13,0,0,1,31.34,28a2,2,0,0,1-.48.86,22.89,22.89,0,0,1-12.77,8c-.49.11-2.42-5-2.61-5.5A21.94,21.94,0,0,1,14,25.24c-.09-1.87,1.81-1.7,3.24-2.69A9.48,9.48,0,0,0,20.55,18.44Z"/><path class="cls-4" d="M12.07,35.88a9.64,9.64,0,0,0,2,3.85,1.31,1.31,0,0,0,.78.51,1.35,1.35,0,0,0,.59-.11,7.54,7.54,0,0,0,3.14-2.2,1.34,1.34,0,0,0,.37-.75,1.37,1.37,0,0,0-.28-.71,33.38,33.38,0,0,1-4.56-12.64A14.67,14.67,0,0,0,12.07,35.88Z"/><path class="cls-4" d="M24,36.84a2.41,2.41,0,0,0,1.58.81,7.83,7.83,0,0,0,2.13-.29c1.26-.81,1.67-1.17,2.12-3.26,0-.17.19-.3.2-.47a1.05,1.05,0,0,0-.21-.58,39.23,39.23,0,0,0-3-4c-1.42-1.72-3.13-2.68-4.94-4-.78-.57-2.34-2.07-3.33-2.17-1.5-.15-.73,0-.58,1.59A19.72,19.72,0,0,0,24,36.84Z"/><path class="cls-4" d="M31.51,27.08c.23.4.52.84,1,.9a1.45,1.45,0,0,0,.82-.24,9.71,9.71,0,0,0,3.54-3.46.6.6,0,0,0,.12-.36.58.58,0,0,0-.22-.32A29,29,0,0,0,28.9,19a12.71,12.71,0,0,0-7.88-.6c2,1,4.56,2.1,5.87,3.24A23.32,23.32,0,0,1,31.51,27.08Z"/><path class="cls-5" d="M13.73,23.06a2.34,2.34,0,0,0,.94.59,2.13,2.13,0,0,0,1-.07,10.26,10.26,0,0,0,4.19-2.23,2.9,2.9,0,0,0,1-1.46,2.62,2.62,0,0,0-.62-2c-.43-.58-1-1.09-1.35-1.71a20.92,20.92,0,0,1-2.11-4.1c.31.22-4.87,5.07-5.34,5.47-1.25,1.06-1.55,1-.68,2.43A15.86,15.86,0,0,0,13.73,23.06Z"/><path class="cls-3" d="M1,1.08A.77.77,0,0,1,1.24.52.76.76,0,0,1,1.66.43C6.85.31,11.73,2.92,15.86,6.06a13,13,0,0,1,2,2.68A4.07,4.07,0,0,1,17.33,11a15,15,0,0,1-4.65,5.71C11,18,8.3,19.13,6.13,18.84c-1.85-.25-2.72-2.62-3.43-4.18A22.67,22.67,0,0,1,1,1.08Z"/><path class="cls-6" d="M17.85,8.62C14.88,3.19,7.79.16,1.82.09c-.38,0-.44.58-.06.59,6,.21,12.41,2.95,15.74,8.1C17.63,9,18,8.84,17.85,8.62Z"/><path class="cls-6" d="M1.1.12C-1,5.44-.23,14.32,4.46,18.14c.23.18.49-.15.33-.36C.72,12.49.18,6.6,1.48.21,1.52,0,1.18-.08,1.1.12Z"/><path class="cls-6" d="M17.65,7.93c-.48,5.84-7.21,12.4-13.17,10-.31-.12-.47.29-.25.48,5,4.4,14.64-5.31,13.81-10.51A.2.2,0,0,0,17.65,7.93Z"/><path class="cls-6" d="M9.16,18.6c1.67,1.87,3.26,4,5.1,5.67a.23.23,0,0,0,.36-.3,36.65,36.65,0,0,0-5.23-5.62C9.24,18.22,9,18.46,9.16,18.6Z"/><path class="cls-6" d="M16.57,12c.49,2.41,2.43,4.53,3.7,6.57.18.28.64.08.48-.23-1.19-2.22-2.77-4.14-3.84-6.45A.18.18,0,0,0,16.57,12Z"/><path class="cls-6" d="M20.54,18.34A8,8,0,0,1,18,21.94a7.42,7.42,0,0,1-3.9,1.5.23.23,0,0,0,0,.43c3,.73,6.23-2.75,6.89-5.37C21,18.22,20.64,18.06,20.54,18.34Z"/><path class="cls-6" d="M20.93,18.58a14.91,14.91,0,0,1,6.37,4.58c1.41,1.6,2.6,3.52,4.21,4.92.18.15.35-.11.25-.27a38.21,38.21,0,0,0-5.35-6.36A11,11,0,0,0,21,18.22C20.8,18.17,20.73,18.51,20.93,18.58Z"/><path class="cls-6" d="M21.73,18.27A19.78,19.78,0,0,1,33.6,21.79c1.15.72,2.93,1.41,2.63,2.86-.47,2.29-3.38,3.5-5.31,3.11-.28-.06-.34.35-.11.46,3.37,1.51,5.1-1.71,6.54-4.27a.33.33,0,0,0-.07-.44c-4.7-3.21-9.67-6.47-15.61-5.6C21.43,18,21.5,18.28,21.73,18.27Z"/><path class="cls-6" d="M30.91,27.36a20.86,20.86,0,0,0-1.1,2.16,5.85,5.85,0,0,1-1.28,1.35.33.33,0,0,0,.42.5,7.18,7.18,0,0,0,2.35-3.81A.22.22,0,0,0,30.91,27.36Z"/><path class="cls-6" d="M18.3,22.66c2,1.87,4.4,3.26,6.49,5a15.79,15.79,0,0,1,5.35,7.56c.07.2.36.11.38-.07.41-2.62-2.25-5.25-4-6.83a52,52,0,0,0-8-5.92C18.38,22.28,18.14,22.5,18.3,22.66Z"/><path class="cls-6" d="M17.82,23.05c-.18,5.18,2.73,12.39,7.23,15.22.32.21.67-.29.34-.49-4.83-3-6.38-9.52-7.2-14.75C18.15,22.83,17.82,22.83,17.82,23.05Z"/><path class="cls-6" d="M30.05,34.55a5.62,5.62,0,0,1-2.52,2.75,6,6,0,0,1-3.28.32.25.25,0,0,0-.11.48c2.63,1.24,5.49-1,6.36-3.38C30.61,34.42,30.19,34.28,30.05,34.55Z"/><path class="cls-6" d="M14,24.37C14,28.28,15.56,34,18.59,36.61c.21.19.47-.14.32-.35-2.78-3.67-3.52-7.53-4.52-11.91C14.35,24.17,14.05,24.16,14,24.37Z"/><path class="cls-6" d="M22,35.26a.7.7,0,0,1,.58.39l.22-.31a2.58,2.58,0,0,1-.48,0c.06.17.11.35.17.52a1.72,1.72,0,0,0,.29-.31c.25-.28-.2-.64-.47-.42-1.08.86-2.38.74-3.65,1-.31.07-.33.57,0,.58a6.13,6.13,0,0,0,4-1.12l-.47-.43a2.08,2.08,0,0,0-.24.34c-.12.26.2.46.41.37a2.88,2.88,0,0,1,.4-.09.23.23,0,0,0,.16-.31A1,1,0,0,0,22,35C21.87,35,21.9,35.23,22,35.26Z"/><path class="cls-6" d="M13.94,23.28a13.89,13.89,0,0,0-.07,16.46c.26.36.78-.09.52-.44-3.62-4.9-3-10.7-.06-15.75C14.48,23.29,14.11,23,13.94,23.28Z"/><path class="cls-6" d="M18.54,36.88a3.08,3.08,0,0,1-1.41,2.51c-.9.49-1.81.19-2.75.39a.21.21,0,0,0-.08.37,3.37,3.37,0,0,0,3.35-.3,3.22,3.22,0,0,0,1.36-3C19,36.58,18.58,36.63,18.54,36.88Z"/><path class="cls-6" d="M30.8,28.59c4.25,6.1,5,12,5.36,19.19,0,.22.37.2.38,0,.31-7-1.11-13.73-5.46-19.4C30.93,28.17,30.67,28.41,30.8,28.59Z"/><path class="cls-6" d="M18.1,39.27A27.91,27.91,0,0,0,35.65,48.5c.27,0,.29-.35,0-.41C29,46.6,23.14,44.22,18.39,39A.19.19,0,0,0,18.1,39.27Z"/><path class="cls-6" d="M30.27,33.47c1.45,3.06,2.29,6.41,1.33,9.74a.21.21,0,0,0,.39.14c1.46-3.11.08-7.19-1.44-10C30.46,33.16,30.18,33.29,30.27,33.47Z"/><path class="cls-6" d="M21.28,36.48c1.93,3.65,6.44,6.32,10.47,6.8.31,0,.35-.44.05-.48a15.53,15.53,0,0,1-10.27-6.48C21.43,36.19,21.2,36.33,21.28,36.48Z"/><path class="cls-6" d="M31.66,35.37a2.2,2.2,0,0,0-2.1-.06c-.13.06-.06.29.08.25a2.47,2.47,0,0,1,1.85,0A.15.15,0,0,0,31.66,35.37Z"/><path class="cls-6" d="M31.38,36.12c-.49,0-1,.07-1.45.13-.17,0-.12.26,0,.25.49,0,1-.07,1.45-.13C31.59,36.35,31.54,36.11,31.38,36.12Z"/><path class="cls-6" d="M31.71,37.06c-1.29.09-2.58.39-3.85.6-.17,0-.12.26,0,.25,1.3-.06,2.57-.41,3.85-.59A.13.13,0,0,0,31.71,37.06Z"/><path class="cls-6" d="M31.82,38.27c-2.38.49-4.88.37-7.24.9-.14,0-.15.26,0,.26a27.29,27.29,0,0,0,4-.35,12.39,12.39,0,0,0,3.27-.57A.13.13,0,0,0,31.82,38.27Z"/><path class="cls-6" d="M32.17,39.45c-1.92.36-3.85.55-5.79.75-.21,0-.15.33.05.31a38.94,38.94,0,0,0,5.79-.79C32.38,39.68,32.34,39.42,32.17,39.45Z"/><path class="cls-6" d="M32.76,40.62a44.14,44.14,0,0,1-4.57.67c-.16,0-.11.25,0,.24a22.78,22.78,0,0,0,4.58-.65A.13.13,0,0,0,32.76,40.62Z"/><path class="cls-6" d="M31.88,41.68c-.56,0-1.13.09-1.69.16-.16,0-.11.25,0,.24.57,0,1.13-.09,1.7-.14C32.1,41.92,32.05,41.66,31.88,41.68Z"/><path class="cls-6" d="M24.06,37.44c.07.14-.49.1-.52.11a3.77,3.77,0,0,0-.57.05.14.14,0,0,0,0,.28c.33,0,1.75.17,1.33-.55C24.22,37.18,24,37.28,24.06,37.44Z"/><path class="cls-6" d="M23.87,36.75a4.3,4.3,0,0,1-1.43-.09c-.18,0-.21.23-.07.3a3,3,0,0,0,1.56.13C24.15,37.07,24.09,36.74,23.87,36.75Z"/><path class="cls-6" d="M3.3,1.59a35.92,35.92,0,0,1,7.79,3c.17.09.35-.14.18-.26C8.94,2.69,6.1,2,3.4,1.34,3.23,1.3,3.14,1.54,3.3,1.59Z"/><path class="cls-6" d="M2.08,2.77a11.2,11.2,0,0,1-.34,1.5c0,.15.21.23.29.1a2.57,2.57,0,0,0,.39-1.61A.17.17,0,0,0,2.08,2.77Z"/><path class="cls-6" d="M1.78,7.48c.3,1.42.31,2.92.65,4.33,0,.16.3.17.31,0a13.83,13.83,0,0,0-.63-4.38C2.05,7.22,1.73,7.26,1.78,7.48Z"/><path class="cls-6" d="M13.69,14.08a12.23,12.23,0,0,1-7,3c-.18,0-.14.27,0,.3,2.62.52,5.25-1.6,7.14-3.13A.13.13,0,0,0,13.69,14.08Z"/><path class="cls-6" d="M9.14,15.19a3.56,3.56,0,0,1-1.79.88c-.16.05-.19.3,0,.32a2.62,2.62,0,0,0,2-1C9.52,15.28,9.27,15.05,9.14,15.19Z"/><path class="cls-6" d="M25.37,27.7a5.55,5.55,0,0,1-4.7,3.44c-.28,0-.2.47.08.44,2-.25,4.37-1.66,4.89-3.78A.14.14,0,0,0,25.37,27.7Z"/><path class="cls-6" d="M27.5,29.16c-.88.61-1.55,1.52-2.38,2.2A8,8,0,0,1,21.57,33c-.22,0-.24.43,0,.42,2.37,0,4.89-2.17,6.12-4.09A.14.14,0,0,0,27.5,29.16Z"/><path class="cls-6" d="M11.86,29.78c.64,1.8,3.31,2.73,5.05,2.57.19,0,.15-.28,0-.31a12,12,0,0,1-2.65-.66,6.11,6.11,0,0,1-2.1-1.78A.17.17,0,0,0,11.86,29.78Z"/><path class="cls-6" d="M11.85,32.28a7,7,0,0,0,5.46,1.79c.27,0,.2-.43-.07-.41A6.57,6.57,0,0,1,12.15,32C12,31.85,11.66,32.1,11.85,32.28Z"/><path class="cls-6" d="M32,20.34a3.88,3.88,0,0,1-.2,2.6A6.14,6.14,0,0,1,30,25a.17.17,0,0,0,.18.29c1.85-.63,2.72-3.35,2.06-5C32.22,20.1,32,20.18,32,20.34Z"/><path class="cls-6" d="M30.77,20.17c-.37,1.92-.78,3.37-2.46,4.52-.12.08,0,.29.12.26,1.83-.42,2.72-3.15,2.63-4.79C31.05,20,30.8,20,30.77,20.17Z"/><path class="cls-6" d="M25.42,28.5A1.52,1.52,0,0,0,26.66,30a.15.15,0,0,0,.1-.27c-.46-.37-.91-.64-1-1.27A.15.15,0,0,0,25.42,28.5Z"/><path class="cls-6" d="M25,29.38a17,17,0,0,0,1.16,1.36c.1.09.28,0,.25-.16a3.23,3.23,0,0,0-1.14-1.5C25.09,28.94,24.83,29.21,25,29.38Z"/><path class="cls-6" d="M24.51,29.87a8.3,8.3,0,0,0,.93,1.4.17.17,0,0,0,.28-.18,7.57,7.57,0,0,0-.84-1.46C24.74,29.43,24.39,29.65,24.51,29.87Z"/><path class="cls-6" d="M23.57,29.94c.29.58.62,1.4,1.24,1.68.12.06.28-.1.21-.22-.19-.31-.45-.57-.64-.88s-.31-.53-.49-.78S23.48,29.76,23.57,29.94Z"/><path class="cls-6" d="M23.16,30.51c.33.35.52.79.84,1.14a.18.18,0,0,0,.31-.19,3,3,0,0,0-.9-1.22C23.25,30.1,23,30.36,23.16,30.51Z"/><path class="cls-6" d="M22.41,30.54c.27.52.27,1.23.68,1.67.1.11.33,0,.29-.13a6.69,6.69,0,0,0-.64-1.7C22.62,30.18,22.3,30.32,22.41,30.54Z"/><path class="cls-6" d="M21.48,31.11a6.06,6.06,0,0,0,1,1.68.16.16,0,0,0,.25-.16,5.75,5.75,0,0,0-.89-1.72C21.68,30.73,21.38,30.92,21.48,31.11Z"/><path class="cls-6" d="M20.8,31.36a1.88,1.88,0,0,0,.92,1.5.16.16,0,0,0,.21-.24,3.61,3.61,0,0,1-.83-1.31A.15.15,0,0,0,20.8,31.36Z"/><path class="cls-6" d="M20.28,31.17c0,.31.07.85.5.82a.15.15,0,0,0,0-.28c-.17-.07-.18-.44-.19-.6S20.26,31,20.28,31.17Z"/><path class="cls-6" d="M15.16,31.39a3.6,3.6,0,0,0,.47,2c.1.15.33,0,.3-.14-.11-.64-.32-1.25-.4-1.91C15.49,31.08,15.14,31.16,15.16,31.39Z"/><path class="cls-6" d="M14.47,31.7a2.19,2.19,0,0,0,.43,1.49c.09.1.3,0,.26-.12a11.47,11.47,0,0,1-.35-1.43C14.77,31.41,14.46,31.48,14.47,31.7Z"/><path class="cls-6" d="M14,31.45c0,.58-.06,1.14-.1,1.72a.2.2,0,0,0,.35.13,2.64,2.64,0,0,0,.11-1.86C14.28,31.24,14,31.23,14,31.45Z"/><path class="cls-6" d="M12.89,31.05a3.43,3.43,0,0,1-.08,1c0,.12.09.29.23.2.43-.27.37-.72.3-1.18C13.31,30.79,12.89,30.79,12.89,31.05Z"/><path class="cls-6" d="M13.13,30.92c-.3-.07-.61-.08-.72.27a1,1,0,0,0,.16.76.17.17,0,0,0,.29-.05c.09-.29-.19-.74.24-.67C13.31,31.26,13.33,31,13.13,30.92Z"/><path class="cls-6" d="M11.89,30.07a.92.92,0,0,0-.15.94.16.16,0,0,0,.3,0c.08-.25,0-.45.2-.69A.21.21,0,0,0,11.89,30.07Z"/><path class="cls-6" d="M32.27,20.88a2.74,2.74,0,0,0-1.58-.34.15.15,0,0,0,0,.3,6.41,6.41,0,0,1,1.45.36A.17.17,0,0,0,32.27,20.88Z"/><path class="cls-6" d="M31.81,21.61c-.34,0-.74-.25-1.07-.1a.16.16,0,0,0,0,.3,2.59,2.59,0,0,0,1,.2C32,22,32.07,21.62,31.81,21.61Z"/><path class="cls-6" d="M32,22.62a1.59,1.59,0,0,0-1.44-.35.15.15,0,0,0,0,.28,3.34,3.34,0,0,1,1.19.39C32,23.09,32.19,22.77,32,22.62Z"/><path class="cls-6" d="M31.67,23.7a1.15,1.15,0,0,0-1.51-.43.17.17,0,0,0,0,.3c.42.16.81-.05,1.15.35C31.48,24.09,31.8,23.91,31.67,23.7Z"/><path class="cls-6" d="M31.19,24.19c-.3-.28-.74-.61-1-.15a.17.17,0,0,0,.21.26.73.73,0,0,1,.57.18C31.11,24.6,31.36,24.35,31.19,24.19Z"/><path class="cls-6" d="M30.92,24.23a1.22,1.22,0,0,1-.73.44,2.43,2.43,0,0,1-.8-.12.16.16,0,0,0-.14.27,1.14,1.14,0,0,0,1.07.29,1.89,1.89,0,0,0,.86-.7C31.31,24.25,31.05,24.07,30.92,24.23Z"/><path class="cls-6" d="M29.63,25a1,1,0,0,0-.24,0,.14.14,0,0,0,0,.28,2.62,2.62,0,0,0,.28,0C29.89,25.32,29.84,25,29.63,25Z"/><path class="cls-6" d="M32,29a3.44,3.44,0,0,0-1.53-.11c-.16,0-.11.24,0,.23a3.36,3.36,0,0,1,1.41.1C32.07,29.27,32.16,29.05,32,29Z"/><path class="cls-6" d="M32.26,29.69c-.65,0-1.29.11-1.94.18-.16,0-.12.26.05.25L32.3,30C32.47,29.93,32.43,29.67,32.26,29.69Z"/><path class="cls-6" d="M32.91,31.09c-1.31,0-2.61,0-3.92-.12a.13.13,0,1,0,0,.25,13.42,13.42,0,0,0,4,.14C33.06,31.33,33.06,31.09,32.91,31.09Z"/><path class="cls-6" d="M33,32.05a19.53,19.53,0,0,1-2.65,0c-.18,0-.19.24,0,.27a8,8,0,0,0,2.72,0C33.2,32.31,33.14,32,33,32.05Z"/><path class="cls-6" d="M33.11,33.25a13.4,13.4,0,0,0-2.46.22c-.17,0-.18.3,0,.31a14.61,14.61,0,0,0,2.46-.22C33.29,33.53,33.28,33.24,33.11,33.25Z"/><path class="cls-6" d="M32.48,34.79c-.49,0-1,.07-1.45.14-.17,0-.12.26,0,.25.49,0,1-.08,1.45-.12C32.7,35,32.65,34.77,32.48,34.79Z"/><path class="cls-6" d="M22.6,36.17a13.1,13.1,0,0,0-3.4.58c-.13,0-.06.26.08.23a27.16,27.16,0,0,1,3.37-.53C22.83,36.43,22.78,36.16,22.6,36.17Z"/><path class="cls-6" d="M22.75,37.37a13.81,13.81,0,0,0-3.69.11c-.15,0-.14.26,0,.26,1.22,0,2.43-.17,3.65-.08A.15.15,0,0,0,22.75,37.37Z"/><path class="cls-6" d="M22.74,38.12c-1.65.56-3.34.37-5,.67-.17,0-.17.32,0,.32a12.43,12.43,0,0,0,5.14-.74C23,38.29,22.91,38.06,22.74,38.12Z"/><path class="cls-6" d="M23.4,39.8c.2,0,.23-.29,0-.3a11.8,11.8,0,0,0-1.46.08,8.52,8.52,0,0,0-2,.24c-.15.06-.08.27.05.29A7.58,7.58,0,0,0,22,40a10.32,10.32,0,0,0,1.48-.18l-.05-.29C23.24,39.54,23.23,39.79,23.4,39.8Z"/><path class="cls-6" d="M24.42,40.63c-.85.3-1.8.19-2.64.47-.17.06-.09.31.06.33a5.24,5.24,0,0,0,2.72-.51C24.76,40.83,24.62,40.56,24.42,40.63Z"/><path class="cls-6" d="M24.64,42a5.21,5.21,0,0,0-1.25.14.16.16,0,0,0,0,.31,4.86,4.86,0,0,0,1.26-.08C24.86,42.38,24.85,42,24.64,42Z"/><path class="cls-6" d="M10.64,18.66a9.13,9.13,0,0,0,1.53,1.82c.67.68,1.31,1.43,2,2.06.12.1.26-.08.18-.2-1-1.4-2.44-2.5-3.52-3.83A.14.14,0,0,0,10.64,18.66Z"/><path class="cls-6" d="M12,18.63c.15,0,.15.24.17.35s.26.14.26,0-.06-.58-.4-.61A.14.14,0,0,0,12,18.63Z"/><path class="cls-6" d="M13.15,19.66a4.78,4.78,0,0,0,1.69,1.85c.13.08.3-.08.19-.21a7.93,7.93,0,0,1-1.59-1.78A.16.16,0,0,0,13.15,19.66Z"/><path class="cls-6" d="M17.67,20.3A10.53,10.53,0,0,1,16,21.39c-.16.11,0,.39.19.3a5.19,5.19,0,0,0,1.65-1.2C18,20.36,17.78,20.18,17.67,20.3Z"/><path class="cls-6" d="M16,20.17c-.22.06-.29.22-.49.31a.13.13,0,0,0,.07.25c.23,0,.26-.21.47-.27S16.2,20.12,16,20.17Z"/><path class="cls-6" d="M17.39,14.91c.63.8,1.1,1.7,1.69,2.53.09.13.32,0,.24-.16a16.76,16.76,0,0,0-1.72-2.55C17.49,14.59,17.28,14.77,17.39,14.91Z"/></g></g></svg>