<svg xmlns="http://www.w3.org/2000/svg" viewBox="0 0 40.72 37.96"><defs><style>.cls-1{fill:#90c2c3;}.cls-2{fill:#260029;}</style></defs><g id="Layer_2" data-name="Layer 2"><g id="_"><path class="cls-1" d="M9.19,20a5.3,5.3,0,0,0,1.05-1.49c.56-1.4-.17-2.95-.88-4.28L2,.45l15.6,7.48a3.28,3.28,0,0,0,1.73.46,3.22,3.22,0,0,0,1.5-.77L29.89.77,28.72,8.06a34.67,34.67,0,0,0-.63,6.34A2.53,2.53,0,0,0,28.51,16a2.83,2.83,0,0,0,1.29.74,32.54,32.54,0,0,1,10,5.7,34.76,34.76,0,0,1-11.06,2.06c-.58,0-1.26.06-1.59.54a1.82,1.82,0,0,0-.24.86l-.78,7.45c-.13,1.23-.35,2.63-1.4,3.3l-6.53-6.92a5,5,0,0,0-1.78-1.38,4.88,4.88,0,0,0-2.12-.1l-6.5.66c-1,.1-5.76,1.2-6.38.57C.62,28.68,8.13,21.16,9.19,20Z"/><path class="cls-2" d="M28.11,15.41c3.67,2.88,8.44,4.09,11.91,7.28.36.33,1-.16.59-.5-3.43-3.16-8.1-5-12.13-7.31A.32.32,0,0,0,28.11,15.41Z"/><path class="cls-2" d="M40.21,22.07c-4.18,2.1-9.26.69-13.42,2.66-.5.24-.14.94.37.76,2.61-.9,5.45-.92,8.18-1.29,1.6-.21,4.11-.34,5.23-1.71C40.75,22.27,40.46,21.94,40.21,22.07Z"/><path class="cls-2" d="M2.07.58A63.17,63.17,0,0,1,11.5,5.35c2.12,1.17,5,3.36,7.43,3.6a.29.29,0,0,0,.19-.52c-2.52-1.88-5.9-3.13-8.68-4.64C7.84,2.38,5.17.74,2.29,0,1.91-.08,1.7.45,2.07.58Z"/><path class="cls-2" d="M2,.34c.78,3.13,2.48,6.12,3.91,9s2.8,5.86,4.49,8.6c.3.49,1.12.11.82-.39C7.79,12.07,5.2,6,2.39.2,2.28,0,1.88.07,2,.34Z"/><path class="cls-2" d="M10.53,17.49a99,99,0,0,0-10.45,12,.4.4,0,0,0,.65.46C3.78,25.61,7.65,22,11.05,18,11.3,17.66,10.81,17.2,10.53,17.49Z"/><path class="cls-2" d="M.21,29.89c2.05.77,4.73.08,6.8-.27,3-.5,6.07-1.37,9.13-1.25.48,0,.56-.74.07-.76-5.28-.21-10.67,1.57-16,1.84C0,29.46,0,29.82.21,29.89Z"/><path class="cls-2" d="M16.08,28c.81,1.8,2.62,3.33,4,4.75,1.56,1.65,3.12,3.31,4.69,5,.36.38,1-.13.63-.54-1.48-1.73-3.1-3.33-4.67-5-1.38-1.45-2.65-3.29-4.25-4.5A.25.25,0,0,0,16.08,28Z"/><path class="cls-2" d="M26.79,24.8a38.78,38.78,0,0,0-1,6.08,58,58,0,0,0-.89,6.67.38.38,0,0,0,.76.07c.43-2.19.63-4.45.95-6.66a28.17,28.17,0,0,0,.65-6.12A.24.24,0,0,0,26.79,24.8Z"/><path class="cls-2" d="M29.55,1C29.48,5.81,28,10.56,28,15.36c0,.42.64.5.66.06C29,10.72,30.81,5.65,30.09,1,30.05.66,29.55.66,29.55,1Z"/><path class="cls-2" d="M29.8.6c-2.12,1.53-4.31,2.91-6.53,4.31a16.23,16.23,0,0,0-4.48,3.58c-.24.3.22.74.5.45C22.45,5.69,27.06,4.27,30.14,1A.26.26,0,0,0,29.8.6Z"/><path class="cls-2" d="M8.09,15.94c.41.68.66,1.27.17,2-.37.53-.92.89-1.27,1.43-.09.14,0,.34.21.26A3.82,3.82,0,0,0,9,17.69a1.78,1.78,0,0,0-.67-1.93C8.2,15.66,8,15.82,8.09,15.94Z"/><path class="cls-2" d="M13.23,29.38A2.49,2.49,0,0,1,15.4,30c.58.48.9,1.19,1.46,1.67.11.09.27,0,.25-.16a3.8,3.8,0,0,0-1.72-2.18A2.6,2.6,0,0,0,13.12,29C12.92,29.1,13,29.42,13.23,29.38Z"/><path class="cls-2" d="M27.75,33a2.39,2.39,0,0,0-.26,1.2c0,.13.2.13.24,0,.14-.36.15-.75.3-1.11C28.11,32.94,27.84,32.85,27.75,33Z"/><path class="cls-2" d="M29.27,13.06c-.26.4.1,1.1.31,1.44A2.15,2.15,0,0,0,31,15.68a.14.14,0,0,0,.12-.23A7.27,7.27,0,0,1,30,14.23a3.54,3.54,0,0,1-.3-.62,3,3,0,0,0-.16-.53A.17.17,0,0,0,29.27,13.06Z"/><path class="cls-2" d="M30.43,13.76a1.36,1.36,0,0,0,.67,1,.12.12,0,0,0,.16-.17,2.8,2.8,0,0,1-.5-.85A.17.17,0,0,0,30.43,13.76Z"/><path class="cls-2" d="M20.75,4.91a3.12,3.12,0,0,1-3.46.68,11.32,11.32,0,0,0-2-.77c-.17,0-.22.19-.11.28C17,6.45,19.46,7,21.06,5.19,21.21,5,20.92,4.75,20.75,4.91Z"/><path class="cls-2" d="M18,32.58a1.17,1.17,0,0,0,.34.39.13.13,0,0,0,.19-.16,1.18,1.18,0,0,0-.28-.45C18.08,32.19,17.85,32.4,18,32.58Z"/><path class="cls-2" d="M3.88.63a1.42,1.42,0,0,0-.36,0A1.43,1.43,0,0,0,3,.8a.85.85,0,0,0-.41.88.13.13,0,0,0,.23.05c.19-.22.2-.52.5-.64A2.26,2.26,0,0,1,3.85.92C4,.91,4.07.63,3.88.63Z"/><path class="cls-2" d="M3.18.64A1.07,1.07,0,0,0,2.41.7a.11.11,0,0,0,0,.22c.23,0,.46,0,.7,0A.15.15,0,0,0,3.18.64Z"/><path class="cls-2" d="M2.91.76A.5.5,0,0,0,2.32.63c-.14,0-.2.26,0,.31a3.66,3.66,0,0,1,.55.21L2.92.8c-.2,0-.31,0-.42.16a.19.19,0,0,0,.09.28c.07,0,.07.38.08.45s.18.16.24.05c.16-.29.2-.73-.19-.85l.09.28h.07a.19.19,0,0,0,0-.37A3.13,3.13,0,0,1,2.4.64l0,.3a.33.33,0,0,1,.32,0C2.82,1.08,3,.9,2.91.76Z"/><path class="cls-2" d="M2.77,1c0,.35,0,.71.08,1.06a.13.13,0,0,0,.25,0A1.56,1.56,0,0,0,3,.93C3,.8,2.76.87,2.77,1Z"/><path class="cls-2" d="M3.9.81c-.36-.24-1,.3-1.15.57,0,.07,0,.19.1.16s.86-.62,1-.57A.09.09,0,0,0,3.9.81Z"/><path class="cls-2" d="M30,2.34a.71.71,0,0,0-1.29-.12c0,.09.06.17.14.16.34,0,.61-.35.86.1C29.81,2.67,30.06,2.54,30,2.34Z"/><path class="cls-2" d="M29.91,2a.73.73,0,0,0-1.11-.17.12.12,0,0,0,.09.21,1.07,1.07,0,0,1,.82.12C29.81,2.24,30,2.11,29.91,2Z"/><path class="cls-2" d="M29.75,1.69c0-.49-.52-.29-.7,0a.11.11,0,0,0,.1.17s.33-.06.32-.13A.14.14,0,0,0,29.75,1.69Z"/><path class="cls-2" d="M29.7,1.69a2.45,2.45,0,0,0,0-.27.14.14,0,0,0-.09-.15c-.18-.09-.33.05-.44.18s0,.2.14.17.15-.06.19,0A.09.09,0,0,0,29.7,1.69Z"/><path class="cls-2" d="M29.34,1.57c-.12.06-.25.11-.37.18s0,.2.07.15l.38-.18C29.52,1.67,29.44,1.51,29.34,1.57Z"/><path class="cls-2" d="M29.31,1.87a2,2,0,0,0-1.19.6c-.08.08,0,.18.13.15.39-.16.73-.4,1.13-.53C29.51,2.05,29.43,1.86,29.31,1.87Z"/><path class="cls-2" d="M29.21,1.86c.31.12.39.34.55.6a.1.1,0,0,0,.2,0,.74.74,0,0,0-.7-.8A.12.12,0,0,0,29.21,1.86Z"/><path class="cls-2" d="M29.4,1.89a1.21,1.21,0,0,1,.41.9c0,.1.18.12.21,0a1,1,0,0,0-.47-1.14A.13.13,0,0,0,29.4,1.89Z"/><path class="cls-2" d="M29.22,2a10,10,0,0,1,.57,1c0,.08.2.07.2,0a1.87,1.87,0,0,0-.57-1.1C29.34,1.81,29.15,1.92,29.22,2Z"/><path class="cls-2" d="M37.73,20.55a3.7,3.7,0,0,1,1.09,1.3c.3.74-.41,1-.83,1.45a.14.14,0,0,0,.11.24A1.43,1.43,0,0,0,39.34,22c-.13-.78-.86-1.27-1.46-1.69C37.74,20.24,37.6,20.45,37.73,20.55Z"/><path class="cls-2" d="M39,21.64a.67.67,0,0,1,.15.56,1.09,1.09,0,0,1-.29.45.12.12,0,0,0,.12.19.76.76,0,0,0,.23-1.39C39.13,21.37,39,21.51,39,21.64Z"/><path class="cls-2" d="M39.41,22.16l-.11.09c-.21.08-.09.39.12.36a.92.92,0,0,0,.47-.21l-.26-.31a2.92,2.92,0,0,0-.32.28c-.09.09.06-.05-.05,0a.17.17,0,0,0,0,.23c.2.28.51-.13.65-.24s0-.47-.26-.31l-.28.14.12.37c.27-.13.43-.35.2-.61A.16.16,0,0,0,39.41,22.16Z"/><path class="cls-2" d="M25.11,35.68c-.29.44-.7.18-1.13.23a.13.13,0,0,0-.08.2c.35.32,1.84.31,1.41-.41A.12.12,0,0,0,25.11,35.68Z"/><path class="cls-2" d="M24.85,36.25c-.08,0-.18-.06-.26-.07a.18.18,0,0,0-.2.21c0,.24.27.33.45.42l.14-.38-.35,0c0,.14,0,.28,0,.43a1,1,0,0,0,.59-.06l-.24-.38a.74.74,0,0,0-.21.31l.43.1c0-.08.08-.18.06-.26a.23.23,0,0,0-.26-.18.17.17,0,0,0-.25,0l-.11.08.29.35.12-.09a.23.23,0,0,0-.13-.39,1.64,1.64,0,0,0-.73,0,.14.14,0,0,0-.06.25,1.77,1.77,0,0,0,.75.22l-.13-.4-.11.08c-.23.18.06.52.29.35l.12-.09-.28,0a.48.48,0,0,0,.31.08l-.27-.18c0-.05.05-.24,0-.07s0,.14-.05.2c-.05.27.34.33.44.1l.08-.11a.23.23,0,0,0-.24-.38.55.55,0,0,1-.36,0c-.27,0-.31.39,0,.43l.35,0a.21.21,0,0,0,.09-.41c.13,0-.28-.12-.28-.11l-.2.21c.16,0,.25.06.39,0A.15.15,0,0,0,24.85,36.25Z"/><path class="cls-2" d="M24.16,36.3c.3.08.58.23.88.31a.19.19,0,0,0,.26-.16s0-.08,0-.12a.2.2,0,0,0-.23-.21l-.36.06a.2.2,0,0,0-.12.33c.11.15.27.3.19.53l.4,0a1.5,1.5,0,0,0-.75-.7.13.13,0,0,0-.17.14c.06.33.37.47.53.75a.21.21,0,0,0,.39,0,.9.9,0,0,0-.28-.94l-.12.33.36-.07-.24-.21s0,.07,0,.11l.21-.17c-.3,0-.59-.15-.9-.19C24.08,36,24,36.26,24.16,36.3Z"/><path class="cls-2" d="M23.62,35.85a7.81,7.81,0,0,0,1,.62c.11.06.19-.1.13-.18a2,2,0,0,0-1-.65A.12.12,0,0,0,23.62,35.85Z"/><path class="cls-2" d="M25.1,35.42a2.59,2.59,0,0,1-1,.88c-.1.07-.07.24.07.22a1.45,1.45,0,0,0,1.21-.94C25.46,35.4,25.2,35.25,25.1,35.42Z"/><path class="cls-2" d="M1.76,27.62a2.43,2.43,0,0,0-.57,1.65A.86.86,0,0,0,2.41,30a.11.11,0,0,0,0-.21c-.47-.23-.85-.25-.74-.88.07-.4.24-.78.31-1.18C2,27.57,1.83,27.53,1.76,27.62Z"/><path class="cls-2" d="M1,29.17c-.08.18-.21.24-.35.36a.13.13,0,0,0,.07.22.53.53,0,0,0,.57-.52A.15.15,0,0,0,1,29.17Z"/><path class="cls-2" d="M1.09,29.16c0,.06-.25.06-.33.07a.17.17,0,0,0-.14.15l0,.12a.19.19,0,0,0,.16.19c.15,0,.3.07.46.09,0-.13,0-.27,0-.41a3.94,3.94,0,0,1-.47.1.16.16,0,0,0,0,.3.66.66,0,0,0,.61,0c.21-.07.12-.36-.07-.39s-.3,0-.46,0l.16.19v-.12l-.14.16a.59.59,0,0,0,.43-.3C1.31,29.17,1.16,29.06,1.09,29.16Z"/></g></g></svg>