<svg xmlns="http://www.w3.org/2000/svg" viewBox="0 0 49.15 19.83"><defs><style>.cls-1{fill:#f3b643;}.cls-2{fill:#260029;}</style></defs><g id="Layer_2" data-name="Layer 2"><g id="_"><path class="cls-1" d="M9.26,14.49C13,12.46,16.39,9,20.55,8.24c-2.87-2-7.27-1.64-10.43-.59C15.05,5,22.8,3.61,27.93,4.86,26.41,2.8,23.5,2,21,2.25c4.16-1.63,8.8-1.39,13.25-1q3.52.3,7,.7a10,10,0,0,1,5.3,2.54,4.83,4.83,0,0,1,1.82,3.82,4.48,4.48,0,0,1-.28,2A4.57,4.57,0,0,1,47,11.78a14.24,14.24,0,0,1-5.9,3.49c-3.42,1-7.29.8-10.29,2.74a6.76,6.76,0,0,1,2.62-3.94c-5.25.54-9.65,4.67-14.91,5a15.77,15.77,0,0,0,3.41-3.78c.18-.28.34-.71.08-.93a.73.73,0,0,0-.6-.06c-3.48.68-6.52,3-10,3.43-2.21.29-6.92,0-9.55-2C3.55,15.61,8.07,15.14,9.26,14.49Z"/><path class="cls-2" d="M42.55,2A85.8,85.8,0,0,0,31.21.18,18.27,18.27,0,0,0,20.62,1.9a.23.23,0,0,0-.13.27c-.3.08-.2.55.13.52a10,10,0,0,1,5.77,1.44c-2.64-.58-5.83.13-8.33.62-2.77.54-6.55,1.13-8.75,3.09-.26.23.07.59.35.41l.14-.09a.21.21,0,0,0,.18,0c3.68-.77,6.77-1.12,10.41.11.27.1.51-.3.24-.47-2.88-1.72-6.3-1.22-9.45-.47C15.61,5.1,22.73,3.81,27.07,4.88a.3.3,0,0,0,.35-.18l.33.18c.22.13.51-.13.31-.34A9,9,0,0,0,21.75,2.1c6.39-2,12.2-.71,18.76.33,5.55.88,10.8,6.34,4.65,10.2-4.25,2.68-9.6,2.93-13.92,5.27a7.47,7.47,0,0,1,2.61-3.32.26.26,0,0,0,.08-.34.22.22,0,0,0-.16-.39c-5.3.47-9.19,4.9-14.38,5.41,1.52-1.11,2.43-3.32,3.47-4.79l.72-.08c.3,0,.28-.52,0-.54s-.37,0-.56,0a.3.3,0,0,0-.38,0c-2.65.14-4.84,1.49-7.27,2.69-5.29,2.6-9.23.64-14.16-1a11.4,11.4,0,0,0,9.18-1.42C13.51,12.24,16,9,19.9,8.64c.24,0,.23-.43,0-.42-2.57.07-4.56,1.5-6.54,3-3.84,2.91-7.19,4.89-12.19,3.92a.22.22,0,0,0-.13.41l-.69-.21a.25.25,0,0,0-.18.47c3.49,1.33,7,3.42,10.87,3s7.11-3.27,11-4.15c-.5.7-.94,1.44-1.41,2.16a10.17,10.17,0,0,1-2.53,2.58.26.26,0,0,0,0,.33l0,0a.24.24,0,0,0,.13.07c5.6.35,9.61-4.15,14.76-5.35-1.16.94-2.45,2.28-2.41,3.79-.32.23-.12.69.2.54,4.79-2.23,17-2.8,18.32-9.36C49.77,5.88,45.46,2.79,42.55,2Z"/></g></g></svg>