<?xml version="1.0" standalone="no"?>
<!DOCTYPE svg PUBLIC "-//W3C//DTD SVG 20010904//EN"
 "http://www.w3.org/TR/2001/REC-SVG-20010904/DTD/svg10.dtd">
<svg version="1.0" xmlns="http://www.w3.org/2000/svg"
 width="1920.000000pt" height="1920.000000pt" viewBox="0 0 1920.000000 1920.000000"
 preserveAspectRatio="xMidYMid meet">

<g transform="translate(0.000000,1920.000000) scale(0.100000,-0.100000)"
fill="#000000" stroke="none">
<path d="M9150 16890 c-52 -5 -153 -14 -225 -20 -381 -34 -827 -117 -1260
-236 -432 -119 -1033 -351 -1035 -400 0 -6 -25 -16 -56 -23 -30 -7 -54 -15
-52 -17 3 -2 60 1 129 6 160 12 169 12 148 0 -9 -5 -95 -16 -191 -23 l-174
-13 -164 -85 c-194 -101 -330 -179 -330 -190 0 -12 75 -68 114 -84 53 -22 116
-18 214 14 101 34 67 37 372 -34 217 -50 351 -77 356 -72 3 3 -12 8 -33 12
-21 3 -87 18 -146 32 -96 22 -107 27 -102 44 4 13 2 19 -9 19 -9 0 -16 5 -16
10 0 6 58 11 150 12 83 1 159 2 170 2 11 1 20 -3 21 -9 1 -18 20 -34 33 -29 7
3 36 -4 65 -16 33 -13 95 -24 174 -30 161 -13 241 -32 427 -97 85 -30 200 -65
255 -78 55 -12 99 -27 98 -33 -1 -5 34 -26 77 -45 44 -20 80 -39 80 -41 0 -3
-7 -3 -15 0 -8 4 -15 2 -15 -3 0 -19 396 -129 490 -137 l65 -5 -70 14 c-94 20
-103 26 -29 19 40 -4 64 -2 68 5 10 16 42 14 79 -5 28 -14 25 -9 -24 42 -31
33 -63 70 -72 83 -16 24 -16 25 30 58 26 18 55 33 65 33 10 0 42 -13 71 -30
87 -49 162 -61 385 -59 225 1 277 -8 401 -71 146 -73 318 -177 395 -239 90
-71 106 -80 199 -111 58 -19 66 -24 52 -34 -28 -20 1 -33 121 -54 60 -11 97
-20 83 -21 -33 -1 -234 33 -313 54 -32 9 -122 42 -200 74 -194 81 -292 101
-587 121 -98 6 -192 19 -258 35 -103 25 -137 28 -84 7 55 -22 179 -51 263 -62
79 -10 103 -17 155 -42 16 -9 18 -8 8 3 -25 26 -13 31 60 24 196 -18 272 -37
532 -138 101 -39 98 -33 69 -134 -18 -65 -39 -85 -112 -109 -62 -20 -251 -27
-286 -10 -13 6 -6 -8 21 -45 21 -30 42 -59 46 -65 4 -6 -17 -27 -48 -48 -29
-21 -74 -59 -98 -85 -42 -45 -44 -50 -51 -127 -4 -43 -11 -96 -16 -117 -8 -38
-8 -38 10 -20 10 11 21 33 24 49 7 33 46 66 46 39 0 -12 4 -11 20 5 25 25 62
27 53 4 -5 -13 -2 -15 15 -10 11 4 23 2 27 -4 5 -8 12 -7 23 2 10 7 6 0 -8
-16 -14 -15 -34 -32 -45 -37 -29 -13 -56 -31 -84 -57 l-26 -24 25 7 c14 4 31
12 38 18 7 5 15 7 18 5 6 -6 -44 -38 -111 -73 -25 -12 -45 -18 -45 -13 0 5
-10 8 -22 6 -15 -2 -29 -16 -41 -39 -25 -53 -115 -91 -294 -126 -79 -15 -143
-31 -143 -35 0 -11 212 -10 417 2 190 11 389 36 588 74 155 30 207 32 226 9 8
-9 26 -24 41 -33 15 -9 54 -51 87 -92 66 -84 123 -128 209 -163 135 -54 246
-56 485 -9 71 14 131 23 134 21 4 -5 -102 -30 -182 -43 -22 -4 -47 -10 -55
-14 -22 -12 14 -18 169 -28 188 -12 361 20 345 63 -4 8 -1 15 4 15 6 0 23 11
38 25 32 30 49 20 34 -20 -10 -26 -9 -27 16 -21 15 4 23 3 20 -3 -3 -5 1 -12
10 -15 9 -3 12 -2 9 5 -4 6 2 8 19 3 22 -5 28 0 56 50 37 66 50 75 19 14 -84
-165 -243 -412 -365 -563 -80 -101 -102 -143 -135 -258 -44 -154 -77 -212
-164 -295 -55 -53 -75 -79 -75 -98 0 -14 -11 -44 -24 -67 -13 -23 -31 -78 -40
-122 -10 -49 -32 -112 -58 -162 -23 -46 -43 -82 -44 -80 -1 1 -8 40 -14 87 -6
46 -15 91 -19 98 -5 9 -20 -8 -46 -53 -22 -36 -76 -111 -121 -166 -69 -84 -85
-109 -93 -152 -6 -29 -14 -72 -19 -97 l-9 -45 -34 73 c-18 39 -36 72 -40 72
-3 0 -22 -65 -42 -145 -41 -169 -96 -290 -182 -404 -65 -86 -78 -110 -94 -175
-16 -64 -48 -126 -65 -126 -8 0 -32 21 -55 48 l-41 47 -20 -23 c-10 -13 -47
-72 -81 -132 -37 -66 -89 -139 -130 -183 -66 -71 -68 -77 -89 -167 -30 -124
-93 -249 -170 -333 -61 -66 -191 -162 -235 -173 -17 -4 -24 -15 -29 -43 -7
-44 -86 -162 -142 -210 -20 -18 -52 -40 -70 -47 -45 -19 -188 -18 -276 2 -59
14 -72 14 -79 3 -5 -8 -23 -59 -40 -114 -46 -150 -100 -255 -156 -304 -58 -52
-202 -125 -279 -142 -51 -11 -61 -18 -88 -58 -55 -81 -114 -137 -178 -170
l-63 -32 -22 28 c-12 15 -43 70 -69 122 l-47 95 -36 -45 c-19 -24 -78 -87
-131 -141 -87 -87 -102 -98 -156 -113 -125 -35 -136 -44 -244 -215 -75 -118
-94 -145 -164 -239 -40 -53 -40 -53 -86 -49 -70 7 -151 49 -213 112 -104 103
-246 335 -322 525 -84 211 -124 270 -239 355 -88 65 -282 270 -354 374 -55 79
-184 330 -261 507 -116 267 -133 294 -249 406 -90 88 -124 113 -212 159 -69
36 -119 70 -147 100 -230 248 -218 244 -289 90 -19 -41 -47 -101 -61 -132 -15
-32 -36 -67 -48 -78 l-22 -21 -41 53 c-23 30 -53 64 -67 78 l-25 23 -25 -23
c-14 -13 -46 -79 -76 -154 -79 -200 -123 -289 -163 -334 -34 -37 -39 -52 -61
-161 -40 -198 -124 -440 -171 -492 -36 -40 -121 -15 -213 64 -30 26 -60 47
-67 47 -7 0 -25 -15 -41 -34 -15 -18 -45 -45 -67 -60 -43 -29 -57 -28 -145 10
-29 13 -60 24 -67 24 -7 0 -18 -19 -24 -42 -41 -161 -103 -335 -153 -430 -23
-44 -52 -76 -121 -134 -107 -88 -329 -243 -497 -346 -103 -64 -118 -76 -119
-100 0 -14 3 -33 6 -41 9 -25 91 25 396 244 57 40 98 63 117 63 35 1 39 9 -69
-129 -112 -144 -127 -166 -135 -198 -7 -26 -6 -27 20 -17 36 14 42 13 19 -5
-10 -8 -26 -15 -34 -15 -9 0 -38 -23 -65 -51 -28 -28 -85 -78 -129 -111 l-79
-61 7 -61 c17 -170 126 -664 201 -921 75 -255 189 -574 264 -737 11 -24 57
-126 101 -228 144 -326 331 -661 589 -1053 72 -110 87 -132 206 -292 339 -455
817 -959 1193 -1258 l73 -58 211 1 c117 0 210 -1 208 -4 -3 -2 -94 -6 -202 -8
-109 -1 -198 -4 -198 -4 0 -1 55 -44 123 -96 187 -145 322 -240 552 -388 l210
-135 124 1 124 0 -29 -24 c-25 -22 -34 -24 -83 -18 -54 6 -55 6 -32 -10 25
-18 28 -18 276 10 72 8 215 17 319 20 187 6 188 6 183 -14 -5 -20 -2 -21 41
-16 43 5 44 5 12 -4 -67 -18 -256 -39 -455 -50 -110 -7 -211 -15 -223 -19 -20
-5 22 -29 225 -128 353 -172 587 -268 918 -376 793 -258 1583 -373 2425 -353
251 6 311 9 590 36 347 33 863 130 1144 215 61 18 156 45 211 59 112 28 290
87 410 136 44 18 118 46 165 62 184 65 630 282 975 476 457 256 980 657 1396
1072 287 286 382 391 610 671 338 414 651 911 866 1374 23 50 64 138 91 196
120 253 288 713 342 929 10 41 39 154 64 250 25 96 49 202 55 235 5 33 19 109
30 169 12 59 23 131 26 158 3 27 10 60 15 72 4 12 11 47 15 77 3 30 10 81 15
114 5 33 19 169 30 301 24 277 24 489 0 504 -9 6 -17 5 -22 -3 -6 -9 -8 -9 -8
0 0 6 4 15 10 18 20 12 10 35 -15 35 -14 0 -55 7 -92 16 -61 16 -67 20 -98 68
-37 58 -95 182 -95 202 0 10 15 7 58 -12 170 -75 253 -131 278 -188 12 -29 13
-25 14 59 l0 91 -107 44 c-104 44 -240 120 -256 143 -4 7 -15 37 -24 67 -12
43 -27 65 -67 102 -38 35 -64 72 -101 147 -27 56 -55 101 -62 101 -7 0 -19
-15 -26 -32 -20 -48 -41 -61 -81 -54 -52 10 -102 67 -154 176 l-46 99 -58 21
c-51 19 -146 82 -163 110 -9 15 -57 12 -98 -5 -20 -8 -39 -15 -41 -15 -3 0
-13 27 -22 60 -9 33 -21 63 -25 66 -5 2 -20 -18 -34 -47 -15 -28 -46 -75 -71
-106 -47 -58 -100 -156 -154 -291 -23 -57 -36 -78 -42 -68 -11 20 -35 187 -53
381 -28 289 -94 651 -122 662 -16 6 -74 -9 -204 -56 -77 -28 -91 -30 -135 -21
-119 25 -118 25 -155 -12 -19 -18 -61 -84 -93 -146 -33 -62 -62 -112 -65 -112
-3 0 -19 27 -34 59 -16 32 -42 71 -58 87 l-29 28 -80 -41 -80 -41 0 96 0 95
-70 108 c-77 118 -102 168 -121 242 -6 27 -17 50 -23 52 -6 2 -30 9 -52 15
-37 9 -44 16 -68 68 -15 31 -55 98 -90 147 -34 50 -78 117 -96 150 l-33 60 33
-32 c18 -18 37 -34 44 -35 6 0 25 -2 41 -3 17 -2 57 -10 90 -18 33 -8 125 -26
205 -39 130 -21 174 -23 433 -21 159 0 286 -1 283 -4 -3 -3 -84 -8 -180 -12
-158 -6 -198 -12 -185 -25 5 -5 121 -27 152 -29 9 -1 17 -5 17 -10 0 -6 144
-7 363 -4 329 5 369 7 437 27 66 19 101 21 290 21 320 1 541 -21 696 -67 155
-46 227 -89 239 -145 4 -17 9 -28 12 -26 8 8 -43 183 -101 348 -286 817 -738
1594 -1341 2309 -191 225 -660 695 -870 869 -599 498 -1177 851 -1867 1140
-533 223 -1132 388 -1703 471 -381 55 -489 62 -960 65 -247 2 -493 -1 -545 -5z
m290 -310 c0 -5 -4 -10 -10 -10 -5 0 -10 5 -10 10 0 6 5 10 10 10 6 0 10 -4
10 -10z m-1285 -21 c11 -17 2 -18 -30 -4 l-30 13 27 1 c15 1 30 -4 33 -10z
m3453 -275 c24 -17 30 -62 10 -82 -37 -37 -113 12 -89 57 10 18 37 40 51 41 3
0 16 -7 28 -16z m-2889 -58 c9 -10 8 -15 -3 -19 -14 -5 -36 10 -36 25 0 13 27
9 39 -6z m1299 -82 c45 -31 15 -114 -42 -114 -27 0 -56 33 -56 63 0 21 43 67
62 67 8 0 24 -7 36 -16z m1902 -24 c0 -5 -5 -10 -11 -10 -5 0 -7 5 -4 10 3 6
8 10 11 10 2 0 4 -4 4 -10z m-4407 -131 c108 -22 166 -41 308 -105 52 -23 122
-47 155 -53 51 -9 419 -31 529 -31 21 0 36 -2 34 -4 -2 -3 -101 -19 -219 -36
-175 -26 -234 -31 -320 -27 -118 6 -161 18 -362 100 -129 53 -210 80 -420 142
-48 14 -90 30 -94 36 -10 18 272 1 389 -22z m5075 -87 c7 -44 -41 -70 -68 -37
-10 12 -10 21 -1 41 15 34 64 31 69 -4z m-3639 -5 c23 -1 41 -5 41 -8 0 -10
-63 -20 -69 -12 -3 5 -12 8 -18 9 -37 3 -43 5 -43 14 0 6 11 8 25 4 13 -3 42
-7 64 -7z m1221 3 c0 -5 -4 -10 -9 -10 -6 0 -13 5 -16 10 -3 6 1 10 9 10 9 0
16 -4 16 -10z m-22 -228 c2 -7 -3 -12 -12 -12 -9 0 -16 7 -16 16 0 17 22 14
28 -4z m82 -12 c0 -5 -2 -10 -4 -10 -3 0 -8 5 -11 10 -3 6 -1 10 4 10 6 0 11
-4 11 -10z m90 -10 c0 -5 -6 -10 -14 -10 -8 0 -18 5 -21 10 -3 6 3 10 14 10
12 0 21 -4 21 -10z m1454 -171 c-3 -5 -10 -7 -15 -3 -5 3 -7 10 -3 15 3 5 10
7 15 3 5 -3 7 -10 3 -15z m-1654 -77 c0 -5 -10 -13 -21 -19 -21 -9 -21 -10 15
-45 20 -19 36 -38 36 -41 0 -8 -120 66 -120 74 0 7 61 38 78 38 6 1 12 -3 12
-7z m1428 -68 c25 -17 31 -71 10 -92 -29 -29 -108 -1 -108 39 0 22 42 69 62
69 8 0 24 -7 36 -16z m937 -324 c17 -16 25 -18 30 -10 14 22 160 6 255 -27
157 -56 212 -91 266 -172 23 -36 32 -42 53 -38 14 3 62 12 105 21 79 16 79 16
104 -6 19 -18 53 -62 98 -127 2 -1 20 11 41 28 70 56 140 54 167 -4 15 -31 15
-38 2 -70 -20 -48 -73 -112 -114 -137 -40 -25 -36 -36 6 -14 38 20 99 89 122
139 10 22 19 34 22 27 2 -7 48 -14 129 -20 103 -6 138 -13 194 -36 38 -16 68
-33 68 -39 -2 -25 -55 -49 -115 -53 -45 -3 -72 -11 -93 -27 -46 -34 -108 -63
-159 -75 -36 -8 -85 -6 -219 10 -95 12 -181 23 -193 26 -16 4 -30 -6 -60 -43
-21 -26 -39 -54 -39 -63 0 -42 -214 -99 -390 -105 -55 -2 -113 -8 -128 -14
-37 -15 -47 -14 -47 3 0 10 -21 2 -67 -25 -38 -21 -102 -47 -143 -58 -67 -18
-70 -20 -35 -20 45 -1 172 32 287 75 42 16 80 26 83 22 13 -13 -5 -78 -27 -98
-49 -45 -235 -90 -372 -90 -52 0 -92 8 -152 29 -80 28 -81 28 -160 14 -71 -14
-86 -14 -156 1 l-77 17 -41 -27 c-22 -15 -63 -33 -91 -40 -62 -16 -95 -5 -158
52 l-42 37 -52 -16 c-79 -24 -171 -44 -291 -62 -96 -14 -111 -14 -125 -1 -12
11 -38 14 -91 14 -53 -1 -84 3 -107 15 -36 19 -39 27 -22 60 10 19 8 18 -13
-4 -52 -55 -291 -67 -363 -18 -19 13 -35 30 -35 37 0 21 -74 14 -355 -34 -268
-45 -510 -74 -615 -73 l-55 0 78 28 c42 16 103 45 135 65 31 20 95 56 142 82
47 25 126 79 175 120 115 96 148 113 248 126 97 13 142 7 191 -27 35 -23 39
-24 66 -10 41 21 152 19 230 -5 77 -24 84 -24 47 -4 -43 23 -25 28 45 14 63
-13 214 -16 248 -5 10 3 33 28 50 55 17 27 50 65 72 85 42 39 150 95 181 95
10 0 39 9 64 21 38 17 56 19 111 13 74 -7 107 -20 137 -54 11 -12 28 -25 39
-29 17 -7 17 -8 1 -25 -10 -9 -14 -20 -10 -24 4 -4 10 -1 12 6 3 6 13 12 23
12 10 0 21 4 25 10 3 6 15 5 31 -2 20 -10 29 -8 52 9 15 11 38 23 50 28 13 4
21 9 19 11 -3 3 -21 -2 -41 -10 -34 -14 -36 -14 -36 5 0 10 -6 18 -12 17 -8
-2 -14 11 -16 36 -3 28 2 44 18 61 29 31 106 63 171 73 52 7 54 8 87 67 44 80
66 101 121 121 25 10 75 30 111 45 41 17 83 27 113 27 27 0 52 3 55 7 14 15
114 -4 137 -25z m-1248 -86 c8 -21 -13 -42 -28 -27 -13 13 -5 43 11 43 6 0 13
-7 17 -16z m2397 -254 l7 -25 -15 25 c-17 28 -21 50 -7 35 5 -6 12 -21 15 -35z
m-3501 -227 c-7 -2 -21 -2 -30 0 -10 3 -4 5 12 5 17 0 24 -2 18 -5z m-86 -14
c-54 -13 -105 -41 -162 -90 -83 -71 -92 -76 -40 -21 72 77 153 122 215 121 18
-1 15 -3 -13 -10z m4288 -139 c3 -5 -1 -10 -9 -10 -9 0 -16 5 -16 10 0 6 4 10
9 10 6 0 13 -4 16 -10z m-1026 -219 c9 -6 10 -11 2 -15 -6 -4 -11 -27 -11 -52
l0 -44 -45 0 c-34 0 -47 4 -52 17 -4 9 -1 19 5 21 15 5 16 34 1 49 -6 6 -8 16
-5 22 8 13 85 14 105 2z m1716 -51 c3 -5 -1 -10 -9 -10 -8 0 -18 5 -21 10 -3
6 1 10 9 10 8 0 18 -4 21 -10z m-845 -74 c0 -3 -4 -8 -10 -11 -5 -3 -10 -1
-10 4 0 6 5 11 10 11 6 0 10 -2 10 -4z m-1463 -52 c-9 -9 -28 6 -21 18 4 6 10
6 17 -1 6 -6 8 -13 4 -17z m878 -4 c3 -5 -3 -10 -14 -10 -12 0 -21 5 -21 10 0
6 6 10 14 10 8 0 18 -4 21 -10z m-1728 -22 c-3 -13 -11 -54 -17 -93 -15 -94
-141 -606 -178 -725 -52 -161 -92 -306 -117 -422 -24 -104 -28 -115 -87 -194
-34 -45 -64 -82 -65 -80 -5 4 44 245 75 371 32 131 48 213 38 204 -14 -13 -99
-364 -117 -483 -24 -161 -50 -241 -149 -466 -102 -231 -124 -295 -145 -420
-24 -145 -35 -170 -110 -258 -74 -86 -98 -125 -143 -235 -35 -83 -41 -112 -16
-81 15 18 15 18 5 -2 -23 -47 -101 -267 -97 -271 6 -6 16 14 66 132 88 209
214 434 258 462 15 10 71 62 125 116 53 54 97 94 97 90 0 -4 -5 -26 -11 -48
-8 -34 -20 -220 -14 -213 2 2 17 55 33 118 29 108 57 190 66 190 2 0 -9 -44
-26 -97 -40 -135 -77 -293 -68 -293 11 0 25 39 55 154 43 163 105 324 105 275
0 -9 -3 -19 -7 -23 -17 -17 -19 -114 -3 -130 7 -7 10 -5 10 3 0 7 4 10 9 7 8
-5 38 47 54 94 5 13 6 13 6 -1 1 -8 -12 -63 -29 -121 -16 -59 -39 -148 -50
-199 -22 -104 -48 -148 -101 -179 -39 -21 -49 -37 -49 -75 0 -47 -41 -132
-115 -234 -66 -92 -75 -110 -75 -148 0 -48 -36 -116 -57 -108 -7 2 -20 -9 -28
-25 -20 -38 -40 -51 -30 -19 l8 24 -23 -20 -23 -20 7 28 c7 30 0 67 -12 67 -4
0 -9 -23 -10 -51 -1 -27 -8 -62 -16 -77 -14 -28 -97 -109 -179 -175 -26 -21
-73 -75 -104 -119 -53 -76 -111 -130 -154 -143 -10 -4 -19 -13 -19 -21 0 -8
-4 -14 -8 -14 -5 0 -9 -6 -10 -12 -5 -37 -10 -57 -26 -93 -21 -47 -136 -367
-136 -377 0 -4 7 -5 15 -2 8 4 13 9 10 14 -2 4 6 5 18 3 24 -4 77 38 77 62 0
8 4 15 8 15 5 0 14 18 21 41 7 23 15 39 18 36 2 -3 -8 -44 -23 -90 l-27 -85
-49 -6 c-78 -11 -341 -96 -365 -118 -12 -12 -46 -61 -75 -110 -29 -50 -69
-103 -89 -119 -47 -37 -157 -89 -189 -89 -25 0 -67 20 -42 20 27 0 52 40 52
83 0 87 -43 106 -155 67 -71 -24 -85 -20 -18 5 145 54 255 137 453 341 83 86
126 140 155 193 52 96 101 145 208 204 101 57 175 131 235 234 54 91 66 127
18 48 -97 -156 -165 -220 -276 -258 -25 -9 -63 -23 -85 -32 l-40 -16 30 22
c54 40 192 184 224 235 31 48 78 180 68 190 -2 3 -15 -14 -27 -38 -39 -74
-148 -206 -218 -261 -37 -30 -107 -78 -157 -107 -221 -131 -399 -269 -462
-359 -12 -18 -5 -15 33 13 52 39 230 159 316 213 50 32 145 69 154 61 5 -6
-113 -228 -131 -247 -11 -11 -17 -11 -36 3 -13 9 -32 16 -43 16 -20 0 -20 0 0
15 16 12 16 14 3 15 -19 0 -83 -45 -118 -84 -31 -33 -25 -33 19 -1 24 17 46
25 74 24 87 -1 86 -5 -46 -136 -78 -77 -142 -130 -175 -147 -166 -83 -436
-152 -458 -116 -12 19 -22 9 -79 -79 -64 -98 -94 -123 -226 -192 -101 -52 -94
-48 -88 -54 15 -16 296 92 551 212 153 72 236 95 261 74 10 -9 16 -29 16 -55
-1 -38 -4 -43 -53 -76 -34 -23 -61 -52 -77 -82 -53 -97 -118 -137 -244 -149
-45 -4 -81 -8 -82 -8 0 -1 -24 -30 -53 -65 -32 -38 -82 -83 -127 -112 -70 -45
-75 -51 -72 -81 2 -22 -7 -47 -29 -81 -39 -59 -170 -186 -244 -236 -50 -33
-55 -35 -66 -19 -7 9 -13 23 -13 30 0 7 -7 13 -15 13 -8 0 -15 -7 -15 -15 0
-8 -13 -24 -30 -37 -36 -26 -38 -38 -7 -38 28 -1 -4 -16 -168 -77 -159 -60
-271 -89 -413 -109 -123 -16 -195 -35 -107 -27 201 17 446 61 571 102 135 44
329 129 393 172 76 51 145 135 296 360 l125 187 46 4 c25 2 47 1 50 -1 2 -2
-14 -24 -36 -48 -48 -51 -113 -152 -160 -246 -103 -209 -391 -392 -740 -470
-62 -14 -63 -15 -24 -16 26 -1 44 -6 47 -15 5 -11 -7 -16 -51 -21 -118 -14
-128 -23 -22 -20 88 4 96 3 50 -5 -30 -5 -158 -14 -285 -20 -126 -6 -282 -15
-345 -20 -63 -5 -126 -9 -140 -9 -22 0 -20 2 10 13 58 22 138 65 227 122 46
30 100 61 120 69 19 8 80 44 134 80 71 47 127 75 201 100 57 19 104 30 106 25
2 -4 -9 -32 -23 -60 -15 -29 -24 -54 -21 -57 3 -3 23 32 46 77 62 127 119 190
174 190 38 0 106 42 165 103 75 75 80 96 9 32 -72 -65 -113 -91 -180 -114 -31
-11 -92 -44 -136 -75 -43 -31 -126 -78 -183 -106 -57 -27 -144 -77 -192 -111
-49 -34 -90 -59 -93 -56 -4 4 193 139 241 166 14 7 15 10 5 11 -15 0 -42 -13
-95 -44 l-30 -18 32 28 c141 129 164 143 276 175 42 12 76 24 74 26 -7 7 -189
-46 -214 -62 -13 -9 -71 -54 -128 -100 -100 -80 -104 -83 -90 -49 8 19 41 75
74 125 57 84 91 169 116 284 16 72 136 147 262 161 l56 7 -6 -51 c-6 -50 -35
-119 -66 -157 -16 -20 -16 -20 7 -1 33 29 79 129 104 231 l23 90 102 50 c56
28 109 57 119 65 12 10 33 14 70 12 29 -2 69 1 88 8 45 14 107 83 146 160 30
60 32 61 63 54 77 -19 234 15 381 84 88 41 136 92 136 144 0 16 5 39 11 51 15
32 -36 -26 -89 -100 -23 -33 -59 -69 -80 -80 -74 -42 -332 -99 -332 -74 0 6 7
11 16 11 39 0 190 86 252 144 55 52 72 77 122 181 32 66 70 131 84 144 17 16
52 30 113 42 154 33 264 116 504 379 151 165 252 294 276 349 23 55 10 45 -37
-27 -24 -37 -91 -112 -148 -167 -58 -55 -166 -161 -241 -235 -115 -115 -149
-143 -219 -179 -46 -23 -85 -41 -88 -39 -2 3 23 36 56 74 33 38 108 136 167
218 59 82 135 187 170 233 35 46 77 112 94 145 65 129 162 378 189 483 50 196
149 707 160 825 14 144 21 166 74 238 23 31 61 88 83 125 l41 67 4 -77 c3 -47
-1 -96 -8 -121 -12 -42 -12 -43 5 -28 10 9 21 16 26 16 12 0 -4 -146 -25 -230
-11 -41 -42 -146 -70 -234 -41 -128 -53 -185 -65 -295 -27 -244 -59 -374 -145
-576 -27 -65 -48 -120 -46 -122 4 -4 69 113 120 214 33 66 99 293 126 429 11
58 20 142 20 187 1 89 13 158 54 312 15 55 33 151 41 213 14 115 36 172 83
215 19 18 20 17 26 -26 10 -68 -17 -309 -64 -567 -10 -58 -26 -149 -34 -202
-9 -54 -31 -146 -50 -205 -89 -282 -164 -602 -125 -539 7 11 13 38 14 60 1 23
17 95 37 161 20 66 53 179 73 250 85 292 140 475 159 530 l8 20 -17 -20 c-15
-19 -16 -16 -10 50 4 39 18 134 31 212 14 79 38 243 54 366 16 123 33 234 38
248 6 13 38 56 72 94 106 119 130 168 170 346 28 123 32 132 109 213 122 129
266 367 347 574 26 67 52 122 57 122 5 0 7 -10 4 -22z m-266 -17 l24 -19 -24
-26 c-53 -56 -136 -11 -84 46 21 23 55 23 84 -1z m547 -81 c267 -87 327 -123
418 -243 26 -34 51 -68 57 -75 6 -8 -32 14 -84 47 -97 64 -202 109 -301 132
-32 8 -58 17 -58 22 0 4 -4 6 -8 3 -4 -2 -43 12 -86 33 -69 33 -83 45 -117 97
-42 63 -50 87 -20 60 10 -9 100 -43 199 -76z m-258 51 c0 -5 3 -18 6 -28 6
-16 5 -16 -9 2 -19 23 -21 35 -7 35 6 0 10 -4 10 -9z m2527 -28 c-9 -9 -19
-14 -23 -11 -10 10 6 28 24 28 15 0 15 -1 -1 -17z m163 -53 c31 -31 24 -62
-20 -85 -23 -12 -30 -12 -49 1 -12 8 -21 26 -21 40 0 27 32 64 55 64 8 0 24
-9 35 -20z m-2715 -60 l-16 -35 6 35 c4 19 9 44 13 55 6 20 6 20 10 0 1 -12
-4 -36 -13 -55z m119 -230 c15 -85 45 -226 68 -313 l41 -158 -50 -52 c-65 -67
-78 -94 -97 -203 -24 -135 -40 -180 -106 -289 -33 -55 -65 -118 -71 -140 -22
-79 -26 -84 -34 -33 -8 51 -50 108 -79 108 -9 0 -14 5 -11 10 3 6 0 10 -8 10
-17 0 -23 20 -32 105 -11 93 11 201 85 430 39 119 90 310 120 440 28 127 53
238 56 248 8 24 24 21 24 -5 0 -34 20 -7 23 30 1 18 6 32 11 32 5 0 3 6 -3 13
-6 8 -7 17 -3 21 12 12 38 -88 66 -254z m202 170 c60 -12 138 -33 174 -48 72
-28 212 -108 258 -147 17 -14 36 -24 43 -23 7 2 13 -2 14 -9 0 -7 19 -30 42
-52 23 -22 68 -76 101 -118 103 -135 168 -193 216 -193 35 0 49 -22 35 -54 -7
-14 -16 -26 -22 -26 -5 0 -6 -7 -3 -16 5 -14 4 -15 -9 -4 -41 34 -15 -10 90
-156 64 -87 124 -171 135 -186 26 -34 13 -43 -20 -14 -31 27 -80 91 -80 105 0
6 -8 15 -19 20 -10 6 -21 23 -24 38 -3 16 -19 37 -36 48 -16 10 -29 22 -28 25
3 9 -37 70 -46 70 -4 0 -5 -6 -1 -12 9 -14 -26 10 -38 26 -4 6 -18 5 -35 -2
-25 -11 -26 -11 -10 2 10 8 14 17 8 20 -5 3 -15 -7 -23 -24 -7 -16 -15 -30
-19 -30 -11 0 -49 41 -49 54 0 8 -6 16 -14 19 -17 7 149 -342 195 -410 95
-141 203 -263 231 -263 16 0 69 -26 193 -94 11 -6 23 -15 28 -21 4 -6 11 -4
17 5 7 11 12 12 20 4 8 -8 8 -24 1 -55 -5 -24 -17 -102 -26 -174 -15 -111 -51
-303 -60 -313 -6 -6 -214 96 -259 127 -46 32 -46 32 -31 61 8 16 15 34 15 40
0 15 -20 13 -20 -2 0 -7 -7 -21 -15 -31 -13 -18 -16 -18 -58 12 -56 38 -95 86
-147 183 -73 136 -111 269 -235 828 -77 345 -71 328 -136 372 -70 48 -222 128
-242 128 -8 0 -29 -23 -45 -51 l-30 -52 -22 49 c-12 27 -33 89 -47 139 -14 49
-44 123 -66 164 -26 47 -35 72 -26 69 9 -3 65 -16 125 -28z m-379 -162 c-3 -8
-6 -5 -6 6 -1 11 2 17 5 13 3 -3 4 -12 1 -19z m-27 -118 c-13 -50 -25 -89 -27
-86 -3 3 5 45 18 95 12 50 25 89 27 87 2 -3 -6 -45 -18 -96z m2720 65 c0 -8
-7 -15 -15 -15 -8 0 -15 7 -15 15 0 8 7 15 15 15 8 0 15 -7 15 -15z m-110
-115 c0 -5 -4 -10 -10 -10 -5 0 -10 5 -10 10 0 6 5 10 10 10 6 0 10 -4 10 -10z
m-2651 -94 c-9 -8 -10 -7 -5 7 3 10 7 24 7 30 1 7 3 4 6 -7 3 -10 -1 -23 -8
-30z m733 -47 l66 -31 21 -77 c11 -42 36 -159 56 -261 19 -102 47 -236 60
-299 14 -63 23 -116 22 -118 -13 -12 -42 41 -81 147 -45 123 -45 124 -46 75 0
-69 -27 -111 -81 -125 -23 -6 -50 -9 -60 -7 -22 6 -24 21 27 -288 19 -115 54
-286 79 -380 115 -433 126 -484 132 -565 l6 -85 -22 27 c-50 62 -153 351 -211
593 -34 139 -80 443 -80 530 0 33 -5 67 -10 75 -17 26 -12 -83 15 -305 57
-470 62 -495 189 -876 46 -140 87 -267 91 -284 l7 -30 -24 23 c-14 12 -27 20
-30 16 -3 -3 -16 25 -29 63 -17 48 -24 61 -27 45 -2 -12 24 -104 58 -202 34
-99 59 -184 55 -189 -3 -5 -1 -12 5 -16 5 -3 10 -14 10 -23 0 -21 -57 58 -96
133 -28 53 -52 75 -39 36 3 -11 10 -45 15 -78 5 -32 24 -100 42 -151 28 -81
43 -107 121 -205 109 -137 125 -159 61 -87 -27 30 -66 73 -87 95 -35 37 -37
38 -27 12 5 -16 10 -63 10 -106 0 -57 5 -87 20 -116 l20 -39 -46 44 c-65 64
-317 378 -374 467 -27 41 -58 107 -70 147 -31 101 -42 122 -35 66 3 -25 24
-108 47 -185 40 -138 41 -143 48 -350 3 -115 6 -211 4 -213 -5 -8 -47 121 -79
246 -19 75 -51 190 -70 256 -19 65 -43 156 -52 202 -9 46 -20 84 -24 84 -10 0
-10 1 31 -215 39 -212 82 -486 76 -492 -5 -5 -26 64 -26 87 0 8 -5 22 -11 30
-7 11 -9 -3 -5 -50 13 -147 -40 87 -101 440 -15 91 -29 157 -31 148 -2 -9 6
-113 17 -230 11 -117 23 -241 26 -274 l6 -61 -26 4 c-14 3 -85 2 -159 -2
l-133 -7 -13 -41 c-28 -96 -94 -211 -162 -282 -75 -80 -82 -93 -109 -218 -38
-175 -65 -217 -164 -262 -84 -39 -88 -47 -78 -173 4 -51 1 -92 -7 -118 -15
-48 -55 -108 -84 -127 l-21 -14 2 101 c1 80 -1 92 -7 56 -5 -25 -9 -60 -9 -79
-2 -64 -38 -116 -182 -258 -77 -76 -143 -140 -146 -143 -3 -3 6 13 20 35 15
22 27 46 27 53 0 7 16 58 35 114 39 112 43 153 6 61 -69 -172 -172 -321 -248
-362 -21 -11 -21 -8 8 56 17 38 57 135 90 216 69 171 115 267 208 427 37 63
88 151 113 195 54 95 170 363 163 375 -3 5 15 81 41 170 25 89 44 163 42 165
-2 3 -28 -71 -57 -163 -56 -176 -152 -435 -159 -428 -5 5 48 270 84 426 14 58
67 236 119 395 120 370 121 374 106 437 -17 77 -14 102 22 154 19 27 50 73 70
101 39 58 57 113 82 248 9 50 31 160 51 245 19 85 37 165 39 177 3 14 22 31
48 44 23 12 64 37 91 56 36 26 47 30 41 17 -4 -11 -11 -98 -14 -194 -8 -202
-9 -205 -108 -318 -59 -68 -93 -126 -93 -159 0 -8 23 -67 52 -131 72 -162 72
-186 -11 -360 -64 -135 -95 -235 -105 -337 -5 -55 -4 -52 15 30 14 60 46 143
96 250 110 235 116 251 110 315 -3 30 -21 96 -41 147 -20 51 -36 100 -36 109
0 10 28 45 63 78 85 82 89 98 96 382 l6 231 32 37 c18 20 35 46 38 59 13 52
31 217 25 217 -7 0 -31 -76 -49 -161 -6 -25 -19 -65 -31 -90 l-20 -44 3 175
c4 204 7 212 95 317 69 82 78 108 91 247 l10 96 67 73 c80 87 123 150 195 284
l53 101 41 -24 c22 -13 70 -38 107 -55z m603 49 c32 -14 43 -53 24 -87 -12
-22 -22 -26 -59 -26 -39 0 -46 4 -58 27 -11 23 -10 33 2 63 16 38 43 45 91 23z
m1131 -165 c-11 -11 -19 6 -11 24 8 17 8 17 12 0 3 -10 2 -21 -1 -24z m1012
-539 c41 -28 22 -94 -28 -94 -59 0 -82 71 -30 97 32 16 31 16 58 -3z m-878
-54 c0 -5 -4 -10 -10 -10 -5 0 -10 5 -10 10 0 6 5 10 10 10 6 0 10 -4 10 -10z
m-2830 -4 c0 -2 -8 -10 -17 -17 -16 -13 -17 -12 -4 4 13 16 21 21 21 13z
m1823 -67 c37 -19 88 -72 76 -80 -7 -4 -3 -14 12 -28 34 -31 14 -25 -44 14
-58 38 -109 89 -100 99 10 9 32 7 56 -5z m-1897 -138 c-9 -36 -20 -96 -26
-134 -19 -126 -79 -243 -177 -348 -25 -27 -41 -49 -36 -49 11 0 93 85 131 135
17 22 20 23 12 6 -7 -13 -21 -55 -31 -93 -29 -104 -18 -110 82 -41 45 30 83
53 85 50 3 -3 -23 -23 -58 -44 -78 -50 -99 -69 -222 -211 -54 -62 -100 -111
-102 -109 -2 2 1 19 6 38 6 19 17 77 25 129 21 129 29 151 91 255 60 101 148
297 197 441 24 71 33 88 35 68 2 -14 -4 -56 -12 -93z m3288 -31 c36 -11 68
-25 71 -30 9 -14 6 -13 -71 16 -105 39 -105 46 0 14z m-1955 -65 c0 -5 -4 -3
-9 5 -5 8 -9 22 -9 30 0 16 17 -16 18 -35z m786 5 c10 -11 16 -20 13 -20 -3 0
-13 9 -23 20 -10 11 -16 20 -13 20 3 0 13 -9 23 -20z m1025 -10 c14 -10 22
-22 18 -25 -8 -8 -68 23 -68 35 0 16 23 11 50 -10z m-540 -36 c41 -15 98 -32
125 -39 81 -21 13 -17 -88 5 -116 26 -157 39 -157 51 0 16 43 10 120 -17z
m-2473 -6 c-3 -8 -6 -5 -6 6 -1 11 2 17 5 13 3 -3 4 -12 1 -19z m3376 -14 c73
-9 140 -20 149 -25 9 -5 28 -9 42 -9 14 0 26 -2 26 -4 0 -2 3 -12 7 -22 6 -16
-2 -17 -113 -11 -65 4 -157 11 -203 16 -47 6 -149 11 -228 12 -145 2 -193 12
-105 23 70 8 72 9 72 17 0 5 6 6 14 3 8 -3 17 -1 21 5 9 16 166 13 318 -5z
m1085 9 c-21 -2 -55 -2 -75 0 -21 2 -4 4 37 4 41 0 58 -2 38 -4z m135 -10
c-13 -2 -33 -2 -45 0 -13 2 -3 4 22 4 25 0 35 -2 23 -4z m100 -10 c-13 -2 -35
-2 -50 0 -16 2 -5 4 22 4 28 0 40 -2 28 -4z m75 -10 c-10 -2 -26 -2 -35 0 -10
3 -2 5 17 5 19 0 27 -2 18 -5z m-2667 -204 c66 -92 74 -111 113 -265 48 -190
115 -380 184 -527 72 -151 122 -232 225 -367 125 -164 120 -166 -12 -5 -38 46
-66 73 -70 66 -8 -13 -49 28 -108 109 -52 70 -75 116 -117 235 -59 164 -103
218 -210 259 l-46 18 0 52 c0 64 -16 89 -80 121 l-48 24 13 53 c10 42 34 317
35 414 0 11 17 -13 38 -52 21 -38 58 -99 83 -135z m602 184 c-7 -2 -21 -2 -30
0 -10 3 -4 5 12 5 17 0 24 -2 18 -5z m537 -73 c0 -5 -9 -10 -20 -10 -11 0 -20
5 -20 10 0 6 9 10 20 10 11 0 20 -4 20 -10z m-4255 -216 l35 -31 -61 -243
c-33 -133 -66 -248 -73 -256 -8 -7 -19 -36 -26 -63 -10 -41 -16 -50 -31 -48
-16 1 -30 -15 -60 -73 -63 -116 -86 -154 -125 -207 -26 -34 -29 -41 -11 -25
14 13 33 22 44 20 14 -3 4 -18 -52 -73 -38 -38 -55 -58 -36 -46 41 29 93 80
150 146 26 31 36 38 24 19 -36 -61 -88 -120 -153 -174 -95 -78 -169 -180 -200
-276 -7 -19 -14 -33 -16 -31 -3 2 2 66 11 142 12 105 22 150 41 188 14 27 23
55 20 62 -7 19 -53 27 -96 15 -66 -18 -83 -49 -120 -221 -50 -235 -114 -423
-181 -533 -18 -28 -25 -45 -16 -37 26 21 114 208 155 331 22 63 44 126 50 140
7 14 23 70 37 125 30 116 41 136 90 159 53 25 70 16 46 -26 -26 -44 -45 -125
-70 -288 -25 -160 -68 -302 -105 -339 -22 -22 -26 -23 -26 -8 0 10 5 15 10 12
6 -3 10 -1 10 4 0 15 -15 14 -28 -2 -7 -8 -7 -18 -2 -27 10 -16 -7 -43 -21
-34 -5 3 -9 -1 -10 -8 0 -7 -2 -21 -4 -31 -3 -17 -2 -17 14 -3 10 9 24 16 32
16 8 0 33 21 57 47 l44 48 -52 -77 c-50 -75 -79 -104 -189 -197 -43 -35 -62
-62 -101 -145 -27 -55 -59 -112 -70 -126 -20 -23 -21 -24 -10 -2 9 18 8 30 -4
54 -9 17 -16 37 -16 45 0 34 98 351 147 477 36 92 67 193 89 295 80 364 79
362 141 426 39 40 69 86 100 152 l45 95 22 -21 c51 -48 156 -5 190 78 9 23 16
47 16 54 0 45 35 122 81 174 27 32 67 94 89 138 39 79 90 246 90 296 0 45 13
41 32 -8 9 -27 33 -62 53 -79z m914 -40 c-13 -14 -33 -30 -44 -35 -11 -6 -2 6
20 25 47 42 58 47 24 10z m2406 -194 c26 -80 46 -122 126 -265 19 -35 26 -54
16 -46 -25 20 -21 -3 6 -36 21 -24 62 -122 54 -129 -5 -5 -178 341 -180 361
-1 11 -6 25 -9 30 -10 17 -54 136 -62 170 -6 26 -6 28 7 15 8 -8 27 -53 42
-100z m-976 -204 c23 -60 41 -111 41 -115 -1 -3 -10 5 -22 19 -12 14 -19 18
-16 10 6 -18 30 -99 58 -195 27 -98 17 -93 -15 7 -48 151 -108 404 -91 388 2
-3 23 -54 45 -114z m-1977 -180 c-37 -63 -69 -113 -70 -111 -8 7 121 225 133
225 2 0 -27 -51 -63 -114z m4088 104 c0 -5 -2 -10 -4 -10 -3 0 -8 5 -11 10 -3
6 -1 10 4 10 6 0 11 -4 11 -10z m-95 -37 c-16 -16 -16 -18 1 -32 18 -15 19
-29 16 -207 -5 -244 12 -350 83 -516 5 -13 3 -18 -8 -18 -9 0 -19 9 -22 20 -9
27 -34 25 -44 -2 -5 -13 -10 -21 -12 -19 -2 2 -15 1 -27 -3 -19 -7 -23 -13
-18 -34 4 -16 -4 -7 -19 22 -15 27 -54 86 -88 130 -73 95 -97 131 -97 147 0 7
-12 37 -26 67 -40 84 -41 113 -7 135 l28 17 -26 -6 c-23 -5 -28 -1 -43 35 -9
23 -22 41 -30 41 -8 0 -39 -10 -70 -21 -31 -12 -60 -19 -64 -15 -3 4 2 22 12
39 11 18 38 66 62 107 70 125 65 121 159 104 83 -15 140 -12 203 11 50 18 56
18 37 -2z m154 -303 c26 -135 47 -272 65 -430 2 -25 1 -38 -3 -30 -5 8 -14 60
-21 115 -7 55 -27 185 -46 288 -30 164 -41 254 -28 222 2 -5 17 -80 33 -165z
m-9983 20 c78 -37 109 -57 140 -94 76 -89 103 -144 115 -236 6 -47 24 -123 39
-170 15 -47 31 -101 35 -120 l6 -35 -28 45 c-19 31 -28 40 -31 28 -5 -24 88
-266 158 -412 67 -138 75 -163 30 -93 -17 27 -53 77 -81 114 -27 36 -48 67
-45 70 2 3 -4 13 -13 22 -27 27 -105 275 -97 307 11 42 0 58 -99 143 -58 50
-110 105 -136 145 -23 36 -46 63 -51 60 -4 -3 -8 -28 -8 -55 0 -49 17 -97 47
-131 13 -15 13 -16 -4 -12 -17 5 -20 -5 -31 -88 -7 -51 -12 -110 -12 -130 0
-30 -3 -36 -16 -31 -14 5 -16 -4 -12 -83 3 -49 8 -98 11 -109 4 -11 0 -4 -9
15 -9 19 -19 69 -24 113 -13 130 -28 119 -71 -49 -17 -65 -32 -120 -34 -122
-2 -2 -13 -1 -24 3 -31 10 -28 56 24 323 69 361 77 461 47 577 -5 22 -13 59
-16 83 l-6 42 47 -36 c27 -21 93 -58 149 -84z m9503 -85 c34 -111 65 -173 132
-261 29 -38 44 -62 33 -53 -10 9 -29 19 -42 22 -23 5 -23 5 -7 -19 8 -13 13
-24 9 -24 -4 0 0 -8 7 -17 13 -17 13 -17 -5 -3 -11 8 -45 48 -77 88 -50 62
-92 137 -150 267 -7 17 -15 33 -17 37 -4 8 70 58 82 54 5 -1 21 -42 35 -91z
m468 -97 c-3 -8 -6 -5 -6 6 -1 11 2 17 5 13 3 -3 4 -12 1 -19z m476 -150 c2
-87 1 -156 -3 -153 -4 3 -24 -23 -45 -57 -20 -34 -48 -76 -62 -93 -14 -16 -39
-52 -57 -79 -59 -94 -122 -83 -113 19 3 37 25 91 82 205 74 149 99 190 116
190 4 0 10 -8 12 -17 4 -14 5 -13 6 3 2 39 42 157 51 148 4 -5 10 -80 13 -166z
m-5313 107 c0 -6 -87 -65 -96 -65 -4 0 13 16 37 35 41 32 59 42 59 30z m5494
-40 c36 -47 103 -84 164 -92 l49 -5 18 -56 c27 -88 62 -240 89 -389 30 -162
50 -236 71 -253 13 -11 13 -8 0 17 -8 16 -26 99 -40 184 -14 84 -32 179 -40
209 -20 75 -19 80 11 42 49 -62 127 -81 177 -42 l25 20 21 -68 c30 -96 52
-129 101 -143 31 -9 42 -18 46 -38 38 -177 79 -280 167 -421 26 -41 43 -76 38
-78 -24 -8 -186 94 -246 154 -45 45 -134 177 -157 234 -12 28 -16 34 -12 15 3
-16 9 -58 13 -93 6 -51 5 -62 -7 -57 -7 3 8 -21 34 -53 l48 -57 -44 41 c-25
22 -69 60 -99 83 -30 23 -69 63 -86 89 -44 65 -320 616 -339 677 -14 44 -36
89 -36 75 0 -3 9 -33 19 -66 11 -34 25 -89 31 -123 23 -128 205 -508 271 -567
19 -17 19 -13 -6 31 -16 28 -32 55 -36 60 -4 6 -13 24 -18 40 -10 28 -10 29 5
10 8 -11 41 -61 73 -111 39 -61 73 -101 102 -122 24 -16 52 -39 62 -49 17 -20
17 -20 -10 -19 -27 1 -28 -1 -27 -41 0 -24 -3 -43 -8 -43 -5 0 -1 -12 9 -27
l17 -28 -33 30 c-39 37 -88 43 -93 12 -3 -20 -4 -20 -20 -4 -9 10 -15 24 -12
32 4 8 1 15 -5 15 -6 0 -11 -6 -12 -12 0 -10 -2 -10 -6 0 -2 6 -11 12 -19 12
-9 0 -12 5 -8 12 5 7 3 8 -5 3 -12 -7 -55 28 -46 37 2 2 -5 9 -15 16 -16 10
-20 10 -20 0 -1 -36 -47 84 -55 142 -10 65 -37 174 -66 265 -17 55 -42 136
-54 180 -21 73 -69 185 -79 185 -3 0 -2 -17 1 -37 5 -31 4 -35 -10 -30 -13 5
-17 1 -17 -18 0 -14 -4 -25 -8 -25 -11 0 -32 130 -32 201 0 54 2 60 15 49 12
-10 24 -10 55 -1 21 6 42 16 45 21 10 17 22 11 49 -25z m-2814 -133 c-1 -17
-70 124 -70 143 0 11 16 -15 35 -58 19 -43 35 -81 35 -85z m-3210 7 c-23 -158
-40 -222 -95 -365 -25 -63 -70 -204 -100 -312 -31 -108 -65 -216 -75 -239 -35
-79 -157 -190 -288 -262 -55 -30 -75 -49 -123 -116 -62 -88 -113 -130 -171
-140 l-37 -7 5 34 c5 25 1 39 -16 58 -18 22 -20 22 -11 3 11 -22 12 -21 -69
-72 -31 -19 -103 -52 -106 -48 -2 2 19 30 46 61 88 100 94 119 96 291 2 103 0
136 -6 105 -13 -71 -56 -174 -98 -237 -47 -71 -54 -83 -49 -83 8 0 83 103 102
139 9 19 23 53 31 75 13 39 14 38 9 -48 -7 -114 -24 -152 -114 -252 -40 -43
-84 -98 -99 -122 -15 -23 -36 -57 -47 -75 -24 -38 -74 -55 -160 -56 -55 0 -58
1 -41 14 24 18 16 19 -18 4 -20 -9 -42 -6 -115 15 -117 33 -167 59 -186 96
-26 50 -19 65 51 120 41 32 80 75 104 113 62 98 70 107 91 107 29 0 151 54
242 109 117 69 160 119 192 227 50 168 77 244 86 244 5 0 41 -9 79 -19 38 -11
103 -25 144 -31 66 -10 80 -9 111 6 40 19 107 90 165 178 43 63 44 60 20 -44
-39 -165 -68 -225 -144 -300 -53 -51 -84 -108 -72 -129 3 -5 -2 -12 -11 -15
-13 -5 -14 -9 -5 -15 9 -5 9 -16 2 -41 -6 -19 -10 -44 -9 -55 0 -11 7 2 14 28
25 89 63 153 124 206 32 28 67 68 76 88 10 20 26 93 37 162 10 69 27 158 37
196 l17 70 74 40 c131 70 241 207 305 378 10 26 19 46 20 45 2 -2 -5 -60 -15
-129z m5387 84 c-3 -10 -5 -2 -5 17 0 19 2 27 5 18 2 -10 2 -26 0 -35z m-9582
-242 c61 -180 138 -345 224 -481 33 -53 64 -111 67 -130 6 -33 6 -34 -9 -15
-9 11 -17 26 -17 32 0 13 -41 72 -100 144 -16 20 -39 55 -51 78 -12 23 -27 40
-33 38 -13 -4 -25 21 -77 173 -42 119 -109 368 -109 398 1 33 53 -84 105 -237z
m7332 182 c-3 -10 -5 -2 -5 17 0 19 2 27 5 18 2 -10 2 -26 0 -35z m1484 -10
c13 -16 12 -17 -3 -4 -17 13 -22 21 -14 21 2 0 10 -8 17 -17z m30 -40 c13 -16
12 -17 -3 -4 -17 13 -22 21 -14 21 2 0 10 -8 17 -17z m-238 -103 c41 -112 48
-152 18 -107 -10 16 -21 27 -23 25 -13 -8 -76 87 -92 139 -6 18 -4 22 7 17 8
-3 17 2 20 10 14 36 35 12 70 -84z m-949 -38 c4 -37 1 -32 -14 28 -10 41 -19
82 -19 90 1 26 28 -68 33 -118z m1647 111 c13 -16 12 -17 -3 -4 -17 13 -22 21
-14 21 2 0 10 -8 17 -17z m-4667 -54 c-26 -33 -53 -63 -58 -67 -11 -6 42 65
78 106 38 43 27 21 -20 -39z m4275 -4 c47 -65 31 -56 -20 13 -23 31 -36 52
-28 45 8 -7 30 -33 48 -58z m-1582 -37 c-2 -18 -4 -4 -4 32 0 36 2 50 4 33 2
-18 2 -48 0 -65z m2207 26 c3 -8 2 -12 -4 -9 -6 3 -10 10 -10 16 0 14 7 11 14
-7z m35 -108 c-1 -16 -3 -14 -9 9 -20 72 -21 80 -6 46 9 -18 16 -43 15 -55z
m-1873 21 c2 -34 0 -37 -6 -17 -11 33 -12 60 -2 60 4 0 8 -19 8 -43z m1718 7
c3 -8 2 -12 -4 -9 -6 3 -10 10 -10 16 0 14 7 11 14 -7z m-1736 -89 c0 -16 -2
-15 -8 5 -4 14 -8 36 -8 50 0 22 1 22 8 -5 4 -16 8 -39 8 -50z m381 -70 c55
-89 151 -274 151 -292 0 -19 -51 46 -70 88 -11 27 -25 47 -29 44 -10 -6 -41
38 -41 59 0 8 -8 21 -18 28 -22 16 -52 87 -62 146 -8 52 -8 52 69 -73z m-352
83 c-3 -8 -6 -5 -6 6 -1 11 2 17 5 13 3 -3 4 -12 1 -19z m190 -25 c-3 -10 -5
-4 -5 12 0 17 2 24 5 18 2 -7 2 -21 0 -30z m-8445 -80 c2 -39 0 -69 -4 -67 -4
3 -7 44 -7 92 2 96 6 86 11 -25z m8405 85 c-3 -8 -6 -5 -6 6 -1 11 2 17 5 13
3 -3 4 -12 1 -19z m-8281 -122 c29 -54 43 -149 25 -160 -8 -5 -11 10 -11 50 0
44 -6 68 -29 108 -16 28 -32 69 -35 91 l-6 40 15 -40 c9 -22 27 -62 41 -89z
m6697 37 c4 -21 3 -32 -4 -30 -6 1 -20 -14 -31 -33 l-20 -35 7 35 c8 40 34
105 39 99 2 -2 6 -19 9 -36z m-1038 -308 c-53 -619 -52 -614 -167 -851 -25
-50 -64 -149 -89 -220 -24 -71 -67 -176 -96 -234 -49 -100 -50 -103 -19 -67
18 20 37 37 42 37 4 0 26 17 47 38 22 20 35 29 30 19 -11 -22 -219 -213 -255
-234 -14 -9 -41 -43 -60 -77 -36 -65 -95 -115 -144 -122 -72 -9 -67 -7 -164
-68 -8 -5 28 36 81 92 122 128 203 222 193 222 -5 0 -31 -22 -59 -49 -27 -27
-119 -101 -204 -165 -161 -122 -194 -138 -310 -150 l-55 -5 45 45 c24 25 94
83 154 129 162 122 350 338 449 513 56 100 89 184 101 262 9 60 -6 43 -35 -40
-42 -121 -133 -274 -220 -370 -30 -33 -21 -16 36 70 109 163 191 335 204 430
14 99 23 120 72 165 51 49 81 97 117 187 34 88 105 337 121 428 15 90 20 104
32 92 9 -9 2 -126 -22 -382 -17 -175 -60 -308 -134 -409 -60 -82 -69 -108 -77
-231 -4 -63 -11 -126 -15 -139 -5 -15 -3 -22 3 -18 12 7 35 87 57 195 9 42 40
126 75 200 85 183 112 279 132 477 10 99 67 337 118 490 l26 80 3 -75 c2 -41
-4 -160 -13 -265z m2763 248 c4 -24 -24 -39 -32 -17 -7 19 4 46 18 41 6 -2 12
-13 14 -24z m-504 -203 l6 -55 -24 67 c-21 58 -32 145 -26 198 3 21 37 -144
44 -210z m505 51 c0 -23 -1 -24 -8 -6 -5 11 -12 36 -15 55 l-7 35 15 -29 c9
-15 16 -40 15 -55z m-1829 -326 c-6 -71 -23 -212 -38 -312 -25 -163 -30 -184
-52 -202 -14 -11 -33 -20 -43 -21 -33 0 -55 -19 -87 -75 -28 -49 -34 -54 -61
-51 -19 2 -33 -2 -39 -13 -9 -15 -11 -14 -24 2 -14 18 -15 17 -19 -10 -2 -15
-5 6 -6 48 0 49 -6 82 -16 95 -14 18 -14 18 -15 -6 0 -16 -3 -21 -10 -14 -7 7
-1 34 17 83 l26 72 -21 52 c-12 29 -22 55 -22 59 0 3 19 17 43 31 100 59 145
133 202 326 39 134 46 151 69 170 12 10 16 4 25 -39 13 -62 13 -63 2 -55 -15
9 -29 -25 -35 -85 -2 -30 -8 -66 -12 -80 -15 -55 18 -1 52 86 24 61 38 115 44
174 4 47 12 99 17 115 13 48 16 -201 3 -350z m167 175 c-3 -30 -15 -80 -28
-110 -26 -64 -46 -90 -34 -45 5 17 9 39 10 50 1 11 9 34 18 52 11 21 17 58 18
105 1 66 2 70 11 38 6 -19 8 -60 5 -90z m-6647 100 c8 -5 12 -11 9 -14 -3 -3
-14 1 -25 9 -21 16 -8 20 16 5z m7777 -75 c18 -35 9 -26 -32 30 -24 33 -25 36
-6 20 13 -11 30 -33 38 -50z m-8095 -170 c97 -193 181 -397 222 -541 35 -119
65 -264 54 -258 -21 13 -80 152 -117 276 -53 176 -93 270 -185 431 -87 153
-111 220 -101 274 6 36 7 37 22 18 8 -11 55 -101 105 -200z m5595 173 c-3 -7
-5 -2 -5 12 0 14 2 19 5 13 2 -7 2 -19 0 -25z m1295 -35 c8 -17 7 -25 -6 -38
-15 -15 -16 -12 -15 47 1 35 4 52 6 38 2 -14 9 -35 15 -47z m-1862 43 c0 -5
-124 -99 -180 -136 -72 -48 2 17 90 79 91 64 90 63 90 57z m3350 -51 c19 -19
32 -35 29 -35 -3 0 -20 16 -39 35 -19 19 -32 35 -29 35 3 0 20 -16 39 -35z
m-2793 -27 c-3 -7 -5 -2 -5 12 0 14 2 19 5 13 2 -7 2 -19 0 -25z m2552 -2 c-3
-3 -11 5 -18 17 -13 21 -12 21 5 5 10 -10 16 -20 13 -22z m676 -22 c9 -15 12
-23 6 -20 -11 7 -35 46 -28 46 3 0 12 -12 22 -26z m2253 -81 c23 -35 42 -68
42 -75 0 -14 -33 33 -75 107 -36 63 -21 49 33 -32z m-5491 45 c-3 -8 -6 -5 -6
6 -1 11 2 17 5 13 3 -3 4 -12 1 -19z m5883 -23 c19 -19 32 -35 29 -35 -3 0
-20 16 -39 35 -19 19 -32 35 -29 35 3 0 20 -16 39 -35z m-4576 18 c-5 -5 -12
-12 -16 -18 -4 -6 -8 -2 -8 8 0 9 7 17 17 17 9 0 12 -3 7 -7z m741 -88 c-7
-49 -13 -78 -14 -62 -1 20 -6 27 -21 27 -36 0 -48 -71 -16 -92 5 -3 11 -17 13
-29 2 -13 8 -26 14 -30 19 -11 6 -482 -15 -546 -25 -77 -103 -191 -137 -198
-67 -15 -99 -63 -144 -217 -27 -96 -40 -113 -64 -84 -10 12 -16 12 -39 0 -15
-8 -34 -14 -42 -14 -8 0 -25 -12 -37 -27 -18 -21 -16 -15 7 26 102 179 144
288 186 484 18 88 41 182 49 208 14 41 15 55 4 86 -15 46 -5 240 15 287 11 27
245 282 251 274 1 -2 -4 -43 -10 -93z m-2058 53 c-3 -8 -6 -5 -6 6 -1 11 2 17
5 13 3 -3 4 -12 1 -19z m-4372 -184 c196 -160 237 -208 250 -294 7 -47 48
-211 61 -245 5 -12 -21 4 -66 42 -81 67 -105 75 -49 17 19 -20 28 -35 22 -33
-7 2 -60 51 -118 109 l-106 105 7 51 c6 53 -6 78 -28 56 -8 -8 -20 -5 -40 9
-17 13 -39 19 -53 17 -22 -5 -24 -1 -31 51 -3 31 -14 109 -23 174 l-17 117 66
-63 c36 -35 92 -86 125 -113z m10136 119 c13 -16 12 -17 -3 -4 -10 7 -18 15
-18 17 0 8 8 3 21 -13z m509 -28 c7 -8 18 -15 25 -15 8 0 10 -9 7 -26 l-5 -25
-24 23 c-35 32 -48 58 -30 58 8 0 20 -7 27 -15z m-7060 -58 c0 -8 -16 -31 -35
-53 l-35 -39 33 52 c35 57 37 59 37 40z m6758 -73 c30 -18 49 -35 43 -39 -11
-6 -175 98 -188 119 -6 10 28 -9 145 -80z m-11563 -39 c68 -143 89 -205 109
-323 9 -51 27 -114 40 -140 13 -26 81 -114 151 -196 128 -149 134 -160 60
-101 -22 18 -67 49 -100 70 -83 51 -130 99 -175 175 -46 79 -59 121 -110 370
-37 183 -48 260 -34 260 3 0 30 -52 59 -115z m11916 78 c13 -16 12 -17 -3 -4
-17 13 -22 21 -14 21 2 0 10 -8 17 -17z m-2973 -20 c-31 -69 -81 -133 -173
-224 -118 -116 -140 -127 -173 -84 -28 35 -33 21 -13 -38 17 -50 17 -55 -1
-136 -16 -75 -117 -406 -153 -501 l-13 -35 -7 48 c-4 26 -4 81 0 123 l7 75
-29 -7 c-15 -3 -44 -14 -63 -23 l-35 -16 -6 -110 c-3 -60 -14 -140 -24 -176
-18 -66 -19 -67 -37 -45 l-18 21 -36 -38 c-21 -23 -34 -31 -31 -20 3 10 15 86
27 168 11 83 30 202 40 265 21 124 26 210 11 210 -11 0 -14 -13 -40 -170 -11
-63 -31 -162 -45 -219 -14 -57 -28 -130 -32 -162 -4 -39 -11 -59 -20 -59 -7 0
-26 -27 -43 -60 -45 -89 -126 -216 -183 -287 -58 -73 -75 -84 -26 -18 63 86
62 85 46 85 -9 0 -30 -16 -49 -35 -19 -19 -38 -35 -42 -35 -14 0 -121 -83
-186 -144 -51 -48 -59 -53 -36 -23 15 21 69 70 119 109 154 121 177 154 201
293 13 77 13 88 0 102 -21 21 -20 29 29 181 25 75 66 211 91 302 51 179 101
323 134 388 22 43 28 46 116 56 70 9 144 57 236 154 l78 84 118 -6 c98 -6 154
-3 256 13 5 0 7 -2 5 -6z m-4453 -29 c-31 -24 -78 -47 -70 -35 6 10 74 50 85
50 3 0 -4 -7 -15 -15z m1028 -14 c-3 -11 -32 -50 -65 -87 -86 -97 -88 -102
-104 -213 -16 -113 -42 -183 -111 -297 -46 -75 -175 -223 -196 -223 -5 0 -34
23 -64 51 -37 35 -60 49 -75 47 -17 -2 -43 -37 -103 -137 -88 -147 -180 -253
-275 -313 -45 -30 -71 -38 -147 -48 -51 -7 -120 -10 -154 -7 -57 6 -119 32
-119 49 0 4 15 29 33 55 19 27 58 89 87 138 89 151 139 224 163 240 13 8 68
30 123 49 128 44 246 99 308 143 27 19 94 59 150 90 55 30 108 62 116 70 23
23 -214 -99 -312 -161 -47 -30 -99 -58 -115 -62 -15 -3 -76 -19 -135 -36 -59
-16 -113 -28 -120 -26 -7 3 10 17 37 33 123 69 150 91 187 156 l38 64 92 -8
c83 -8 99 -7 149 12 89 34 129 76 187 195 28 57 57 108 64 113 7 4 92 36 188
69 96 34 176 62 177 63 0 0 -1 -8 -4 -19z m5975 -24 c23 -16 40 -31 38 -34 -5
-5 -106 66 -106 75 0 3 6 1 13 -4 6 -5 31 -22 55 -37z m-13314 -41 c-35 -43
-44 -51 -44 -40 0 6 71 85 77 85 2 0 -12 -20 -33 -45z m4687 -139 c-22 -155
-79 -275 -194 -402 -34 -39 -73 -94 -85 -122 -13 -29 -24 -52 -26 -52 -2 0 4
28 15 63 10 34 19 71 18 82 0 31 -66 -167 -94 -285 -15 -62 -39 -129 -58 -162
l-33 -58 -58 59 -58 58 66 74 c36 41 72 87 80 104 9 18 18 90 24 181 6 87 17
166 25 186 11 26 39 52 106 98 105 72 220 175 252 226 12 19 23 33 26 31 2 -3
0 -39 -6 -81z m-8 -228 c-5 -69 -9 -97 -12 -73 -3 30 -7 13 -16 -66 -13 -109
-34 -169 -60 -169 -9 0 -15 -10 -15 -24 0 -13 -5 -26 -10 -28 -6 -2 -14 -29
-17 -60 l-6 -57 -18 36 c-16 31 -17 39 -5 68 8 18 22 38 33 44 17 10 16 10 -5
11 -33 0 -56 -59 -81 -208 -12 -68 -23 -127 -26 -132 -2 -4 -13 -10 -24 -13
-17 -4 -21 2 -27 51 -11 90 1 240 25 303 22 58 42 87 131 193 52 62 130 201
130 232 0 9 3 15 6 11 3 -3 2 -56 -3 -119z m6523 95 c-2 -10 -7 -45 -11 -78
-11 -101 -63 -376 -85 -448 -17 -56 -33 -81 -87 -140 l-66 -72 78 79 c43 43
75 71 72 62 -4 -10 -7 -22 -7 -26 0 -5 -16 -26 -35 -47 -19 -21 -35 -41 -35
-45 0 -8 16 -12 33 -9 12 2 8 -23 -17 -110 -50 -170 -112 -306 -186 -405 -39
-51 -78 -98 -88 -103 -18 -9 -18 -8 -1 42 21 65 33 150 19 142 -6 -3 -10 -12
-10 -20 0 -8 -11 -50 -25 -94 -30 -94 -89 -168 -167 -207 -45 -23 -196 -84
-207 -84 -3 0 7 12 21 28 36 39 76 101 153 237 38 66 75 130 83 143 8 12 12
22 8 22 -3 0 -54 -73 -112 -162 -119 -181 -204 -273 -304 -332 -34 -20 -64
-35 -67 -33 -2 3 29 40 69 84 154 168 278 379 337 571 17 53 40 130 53 171
l23 73 105 42 c58 22 119 52 135 64 78 62 164 231 251 494 33 98 63 178 67
178 5 0 6 -8 3 -17z m-5067 -17 c-8 -8 -99 -45 -99 -40 0 9 66 44 84 44 11 0
17 -2 15 -4z m-5302 -66 c73 -67 171 -136 255 -180 l67 -36 -68 -79 c-37 -44
-79 -90 -92 -102 l-24 -22 3 92 c4 106 11 96 -108 170 -41 26 -85 54 -96 63
-21 14 -26 11 -114 -63 -51 -43 -105 -87 -119 -98 l-26 -20 23 35 c35 54 83
149 102 204 17 46 21 50 64 61 26 7 49 15 53 18 13 13 26 6 80 -43z m7353 1
c-11 -22 -24 -42 -30 -46 -16 -10 -12 -72 5 -79 18 -7 35 29 35 75 0 20 4 28
11 23 6 -3 15 -1 19 6 15 24 23 -119 10 -177 -10 -44 -21 -65 -60 -103 -27
-26 -56 -60 -65 -74 -26 -40 -28 -25 -5 33 21 55 26 91 11 91 -21 0 -39 -32
-45 -83 -6 -49 -11 -56 -55 -89 -42 -32 -49 -42 -55 -83 -3 -27 -6 -63 -6 -82
0 -30 -14 -50 -101 -146 -56 -62 -115 -133 -133 -159 -21 -32 -47 -55 -81 -73
-52 -26 -95 -35 -65 -14 13 9 13 10 -1 6 -9 -3 -22 0 -28 6 -8 8 -11 7 -11 -5
0 -9 5 -19 10 -21 6 -3 5 -4 -2 -3 -9 2 -15 28 -18 77 -8 122 -28 129 -55 20
-9 -39 -24 -76 -33 -83 -9 -7 -13 -8 -9 -2 8 15 -132 25 -150 12 -6 -5 -28
-43 -49 -83 -21 -41 -56 -92 -78 -114 -53 -51 -155 -113 -176 -106 -10 3 -43
-1 -76 -9 -32 -8 -80 -16 -106 -19 l-46 -4 57 38 c31 21 98 74 149 118 61 52
107 84 132 91 36 10 43 17 73 83 19 40 45 110 57 155 21 76 27 87 69 120 25
21 84 74 131 118 96 92 119 106 216 130 147 36 193 73 469 382 55 61 101 112
103 112 1 0 -7 -18 -18 -39z m-6649 -81 c123 -148 120 -138 118 -315 -2 -121
1 -158 15 -190 25 -59 90 -140 192 -240 95 -93 114 -122 157 -240 36 -99 103
-251 138 -312 48 -85 109 -137 230 -199 65 -33 159 -94 232 -150 67 -52 149
-112 181 -134 83 -56 82 -59 -1 -14 -39 22 -69 43 -65 48 3 5 -2 7 -11 3 -10
-3 -17 -2 -17 4 0 6 -6 7 -12 3 -7 -4 -10 -4 -6 1 9 9 -9 35 -24 35 -6 0 -4
-8 3 -17 8 -10 -9 -4 -41 15 -103 60 -285 149 -380 187 -136 53 -166 72 -217
140 -73 95 -86 133 -78 220 6 56 3 92 -10 147 -28 114 -40 133 -147 246 -124
131 -157 194 -188 362 -11 63 -28 138 -37 165 -24 77 -78 169 -134 226 l-50
52 27 28 c15 16 31 29 34 29 4 0 45 -45 91 -100z m2771 68 c-19 -25 -42 -121
-53 -232 -6 -61 -17 -125 -24 -142 -14 -33 -141 -184 -155 -184 -5 0 -25 27
-45 61 l-36 61 57 77 c31 42 99 142 152 223 54 82 101 148 106 148 5 0 4 -6
-2 -12z m-716 -286 c20 -26 55 -66 77 -88 l39 -42 -38 12 c-21 6 -55 27 -76
47 -30 28 -38 43 -38 70 0 23 -12 53 -36 89 -43 66 -94 169 -94 190 0 8 29
-40 64 -108 36 -68 81 -144 102 -170z m-187 123 c0 -5 -8 6 -19 25 -11 19 -19
40 -19 45 0 6 8 -6 19 -25 11 -19 19 -39 19 -45z m5696 -67 c-9 -40 -34 -116
-56 -168 -40 -94 -76 -142 -134 -182 -24 -17 -22 -13 12 23 54 57 103 154 150
302 41 128 54 139 28 25z m-5681 36 c3 -8 2 -12 -4 -9 -6 3 -10 10 -10 16 0
14 7 11 14 -7z m5860 -195 c-10 -11 -28 -25 -39 -31 -11 -5 -4 4 15 21 41 36
51 40 24 10z m-5434 -88 c14 -10 53 -53 86 -97 34 -43 112 -133 174 -199 114
-122 183 -211 212 -276 13 -30 0 -19 -76 60 -143 149 -217 231 -271 296 -27
33 -77 89 -112 125 -34 36 -66 78 -72 93 -10 27 -10 28 11 22 13 -4 34 -15 48
-24z m8220 -65 c0 -2 -8 -10 -17 -17 -16 -13 -17 -12 -4 4 13 16 21 21 21 13z
m-3990 -80 c-13 -36 -28 -66 -36 -66 -7 0 -38 -28 -69 -62 l-57 -63 38 55 c21
30 55 73 75 96 20 23 43 57 50 77 23 64 22 31 -1 -37z m2992 12 c-7 -7 -12 -8
-12 -2 0 14 12 26 19 19 2 -3 -1 -11 -7 -17z m32 -50 c-4 -35 -14 -69 -22 -77
-13 -13 -14 -11 -8 20 11 55 28 119 33 119 2 0 1 -28 -3 -62z m-4284 19 c0 -2
-10 -12 -22 -23 l-23 -19 19 23 c18 21 26 27 26 19z m-1868 -100 c-29 -103
-242 -268 -416 -323 l-56 -18 -26 25 c-54 50 -51 56 28 79 139 41 248 105 398
234 36 30 69 51 73 47 5 -5 4 -25 -1 -44z m6693 -34 c-18 -30 -73 -98 -58 -73
16 29 66 100 70 100 2 0 -3 -12 -12 -27z m-3745 -67 c0 -2 -8 -10 -17 -17 -16
-13 -17 -12 -4 4 13 16 21 21 21 13z m3213 -11 c-3 -9 -8 -14 -10 -11 -3 3 -2
9 2 15 9 16 15 13 8 -4z m-32 -68 c-11 -18 -30 -42 -42 -53 -12 -10 -4 6 17
37 42 61 60 72 25 16z m1585 -104 c-9 -16 -25 -39 -37 -53 l-21 -25 16 28 c28
47 48 77 52 77 3 0 -2 -12 -10 -27z m-8200 -161 c5 1 36 -16 70 -39 33 -22 76
-48 96 -56 51 -22 162 -44 253 -53 44 -3 89 -10 101 -14 14 -6 33 -38 58 -99
21 -50 49 -107 63 -128 67 -100 177 -219 258 -281 20 -15 10 -12 -30 9 -33 18
-71 43 -84 56 -28 27 -46 30 -37 7 5 -14 4 -15 -9 -4 -8 7 -15 18 -15 25 0 18
-59 67 -71 59 -14 -9 -51 27 -44 43 2 8 1 11 -4 8 -15 -8 -25 15 -12 28 12 12
15 67 4 67 -5 -1 -19 -7 -33 -15 -45 -26 -102 -19 -156 19 -27 19 -81 50 -121
69 -40 20 -88 48 -108 63 -37 28 -172 182 -215 244 l-24 35 26 -23 c14 -13 29
-22 34 -20z m2142 -2 l245 0 -18 -20 c-36 -39 -137 -79 -269 -105 -125 -25
-230 -34 -602 -55 -311 -17 -413 -41 -414 -96 0 -15 69 -60 125 -82 41 -16 44
-19 32 -36 -13 -18 -16 -17 -68 17 -30 20 -72 40 -94 46 -39 10 -256 32 -344
35 -38 2 -47 6 -68 36 -13 19 -38 72 -55 117 l-31 81 -86 6 c-123 8 -234 25
-245 36 -6 6 -8 11 -5 11 33 11 465 16 993 13 363 -2 770 -4 904 -4z m-428
-257 c145 -14 287 -17 820 -17 449 0 551 -2 335 -5 -275 -5 -320 -9 -400 -28
-49 -12 -108 -26 -130 -30 l-40 -7 40 -3 c22 -1 103 -7 180 -14 77 -6 246 -14
375 -18 l235 -8 -192 -1 c-105 -1 -330 7 -500 17 -169 11 -425 25 -568 31
-143 6 -316 15 -385 20 -127 9 -270 35 -270 50 0 13 109 27 220 29 58 0 184
-7 280 -16z m4510 -17 c0 -2 -8 -10 -17 -17 -16 -13 -17 -12 -4 4 13 16 21 21
21 13z m-250 -21 c0 -3 -11 -23 -24 -44 -18 -27 -22 -41 -14 -49 8 -8 5 -11
-11 -9 -11 1 -21 4 -21 8 0 10 -102 -23 -174 -55 -33 -14 -61 -25 -63 -23 -5
6 229 159 257 168 31 9 50 11 50 4z m210 -9 c0 -2 -8 -10 -17 -17 -16 -13 -17
-12 -4 4 13 16 21 21 21 13z m-2102 -23 c-26 -2 -71 -2 -100 0 -29 2 -8 3 47
3 55 0 79 -1 53 -3z m149 -9 c-3 -3 -12 -4 -19 -1 -8 3 -5 6 6 6 11 1 17 -2
13 -5z m1913 2 c0 -3 -15 -14 -32 -26 l-33 -22 30 26 c31 27 35 29 35 22z
m-4819 -46 c96 -17 494 -39 914 -50 1136 -28 1155 -29 1780 -60 209 -11 664
-25 1133 -36 252 -5 300 -9 285 -19 -92 -65 -540 -86 -1358 -66 -651 17 -944
1 -1198 -63 -84 -22 -117 -24 -382 -27 -159 -2 -341 -4 -402 -3 -62 1 -113 -2
-113 -6 0 -4 -37 -19 -83 -33 -138 -44 -154 -72 -68 -116 37 -19 300 -86 307
-78 2 2 -39 16 -92 32 -90 27 -154 65 -154 93 0 10 67 41 130 60 19 6 159 16
310 22 151 5 314 13 362 16 l86 7 -1 -34 c-2 -31 2 -36 43 -56 65 -32 192 -51
427 -63 436 -22 794 -41 938 -50 161 -10 617 -22 1725 -45 828 -18 853 -18
845 -5 -4 6 -55 10 -118 10 -62 0 -155 5 -207 10 -52 4 -304 13 -560 20 -457
10 -707 22 -1325 60 -170 11 -400 24 -510 30 -351 18 -526 33 -516 43 17 17
233 26 636 26 506 1 775 -12 853 -39 139 -50 251 -60 820 -71 295 -5 538 -12
542 -14 4 -2 114 -9 246 -14 609 -25 582 -24 534 -34 -25 -5 -53 -10 -62 -10
-10 -1 -18 -3 -18 -5 0 -12 51 -54 76 -61 24 -8 20 -9 -32 -10 -61 -1 -103
-19 -90 -39 8 -14 78 -25 153 -24 45 1 63 -3 67 -13 3 -8 13 -15 22 -15 9 0
-11 -18 -44 -40 -53 -36 -66 -40 -121 -40 -54 0 -61 -2 -61 -20 0 -16 -7 -20
-32 -20 -18 0 -44 -3 -58 -7 -24 -7 -23 -8 10 -13 24 -4 2 -8 -70 -13 -58 -4
-217 -14 -355 -23 -346 -22 -544 -29 -556 -17 -6 6 15 14 58 21 37 6 127 21
198 33 72 12 132 24 135 26 3 3 -42 3 -100 1 l-105 -5 63 14 c35 8 62 16 60
18 -2 2 -39 0 -83 -5 -100 -11 -411 -30 -485 -30 -82 0 -92 6 -133 72 -43 68
-40 68 -147 22 l-65 -28 -645 -1 c-635 -1 -700 -5 -700 -34 0 -21 38 -34 167
-57 76 -13 142 -22 148 -21 5 2 -23 10 -63 17 -40 6 -72 13 -70 15 2 2 250 5
551 8 l548 4 -52 -29 c-29 -17 -76 -38 -105 -48 -29 -10 -83 -42 -121 -71 -84
-64 -145 -93 -243 -115 -151 -34 -154 -35 -198 -80 l-42 -45 -30 63 c-17 35
-30 68 -30 75 0 18 -32 32 -55 23 -26 -10 -60 -48 -117 -131 -92 -131 -156
-169 -373 -224 -71 -18 -168 -44 -215 -58 -47 -13 -105 -28 -129 -32 l-43 -7
23 31 c12 17 20 34 16 37 -3 4 -37 -1 -74 -10 -112 -29 -267 -34 -928 -34
-750 0 -1060 -11 -1455 -51 -359 -37 -394 -43 -445 -80 -71 -51 -72 -77 -6
-111 117 -59 264 -76 1021 -115 299 -15 1004 -19 900 -5 -30 5 -100 9 -155 10
-130 2 -98 15 65 26 l125 9 -210 6 c-115 3 -372 7 -570 8 -340 1 -696 18 -885
41 -106 13 -181 34 -211 59 -24 20 -24 20 -4 35 28 21 92 35 182 41 43 3 100
8 127 10 42 4 47 3 31 -9 -57 -41 84 -75 410 -97 113 -8 615 -13 1495 -14
1183 -2 1811 -10 2503 -31 217 -7 294 -18 110 -16 -71 0 -91 -2 -74 -9 13 -5
40 -7 60 -4 l36 6 -25 -18 c-85 -62 -88 -82 -18 -113 95 -41 506 -90 763 -90
85 0 155 -2 155 -5 0 -15 -138 -180 -181 -217 l-51 -44 -1 -95 c-2 -113 -18
-148 -114 -261 -34 -40 -90 -109 -125 -153 -47 -58 -77 -86 -117 -107 l-54
-29 -141 7 c-134 6 -143 6 -186 -16 -59 -30 -165 -134 -231 -225 -60 -84 -60
-84 -250 -111 -233 -32 -463 -86 -552 -130 -29 -13 -43 -18 -32 -9 11 9 37 24
58 32 21 9 36 17 34 19 -7 8 -256 -46 -308 -66 -68 -25 -127 -67 -145 -101
-19 -38 -18 -119 3 -149 9 -14 30 -40 47 -59 l31 -34 -32 22 c-48 33 -95 106
-101 158 -4 38 -1 48 24 74 16 17 48 42 72 56 48 29 54 37 15 22 -28 -11 -661
-173 -918 -235 -185 -45 -413 -80 -681 -104 -396 -36 -706 -74 -750 -90 -13
-5 -55 -36 -95 -69 -47 -40 -94 -69 -141 -87 -137 -52 -203 -64 -418 -74 -310
-15 -504 -35 -930 -95 -155 -23 -162 -24 -155 -36 8 -12 0 -10 -185 38 -74 20
-138 39 -143 43 -14 12 107 -9 198 -34 98 -28 130 -32 140 -15 4 6 -3 21 -14
33 l-22 23 23 7 c13 3 113 15 223 27 238 24 845 103 964 125 135 25 217 78
197 129 -16 44 -171 82 -381 94 l-150 8 140 2 c151 1 467 15 740 31 193 12
1120 125 1397 170 242 40 786 138 1083 196 44 9 136 37 205 64 135 52 152 56
310 69 151 14 205 32 262 91 33 34 52 65 62 101 40 132 1 132 -96 0 -18 -24
-50 -58 -71 -75 -37 -29 -43 -31 -105 -27 -228 14 -282 7 -777 -103 -263 -59
-328 -71 -305 -57 8 4 121 34 250 66 362 88 549 153 676 236 35 22 73 56 84
74 26 42 27 114 2 146 l-19 22 -6 -40 c-11 -66 -63 -132 -135 -171 -166 -90
-503 -178 -1369 -357 -385 -80 -555 -107 -656 -106 -146 1 -134 15 40 45 651
113 910 175 1200 286 101 39 191 96 229 146 25 32 29 46 29 100 0 60 -2 65
-39 102 -77 80 -179 116 -506 182 -190 38 -363 60 -605 80 -664 52 -947 88
-470 59 125 -7 233 -7 408 2 l237 13 0 27 c0 14 -7 32 -15 39 -8 7 -79 19
-157 26 -186 18 -659 34 -723 24 -27 -4 -41 -8 -30 -9 11 0 125 -8 253 -16
256 -16 289 -20 375 -41 41 -10 63 -12 76 -4 11 5 31 10 44 10 24 0 25 -2 14
-30 l-11 -30 -221 5 c-121 3 -425 7 -675 10 -501 6 -1064 20 -1235 32 l-110 7
65 13 c36 7 89 17 119 23 29 5 59 14 67 21 9 7 103 15 266 20 491 17 738 43
818 84 28 15 50 42 50 64 0 13 -78 59 -122 72 -111 33 -384 49 -1133 69 -198
5 -457 16 -575 24 -247 18 -594 40 -955 61 -277 16 -445 33 -461 46 -5 4 -50
22 -100 40 -154 54 -194 84 -194 147 0 70 63 122 147 122 21 0 47 7 57 15 39
29 36 14 -4 -23 -22 -22 -40 -48 -40 -60 0 -12 16 -40 36 -61 57 -63 210 -117
389 -135 l50 -6 -45 15 c-25 7 -76 21 -113 31 -79 19 -159 73 -182 121 -14 29
-14 35 0 62 33 64 86 108 160 130 114 35 230 58 405 80 305 39 466 44 1450 46
930 2 1201 9 1660 41 292 20 390 30 564 59 129 21 163 31 264 77 148 67 182
95 182 151 0 35 -6 46 -44 83 -46 43 -115 72 -226 93 -111 21 -529 74 -675 85
l-150 12 50 18 c46 18 100 20 725 27 1431 15 1860 23 1852 31 -8 8 -233 33
-392 42 -295 18 -651 26 -1142 27 -645 0 -1047 -13 -1278 -42 -176 -23 -226
-21 -348 10 -111 29 -173 66 -285 169 -56 51 -120 104 -143 118 -68 40 -151
64 -224 64 -67 0 -160 24 -229 59 l-33 18 48 31 c27 17 69 49 92 72 24 22 52
40 63 40 25 0 24 -17 -2 -25 -11 -4 -48 -28 -83 -53 -35 -26 -71 -52 -82 -59
-18 -11 -17 -12 6 -12 36 -1 224 92 244 120 21 31 21 34 -11 64 -15 14 -25 25
-22 25 3 0 30 -4 60 -10z m-349 -35 c51 -14 78 -28 78 -40 0 -21 -94 -55 -152
-55 -46 0 -58 4 -80 28 -27 29 -58 73 -58 82 0 7 180 -6 212 -15z m6860 -32
c-11 -16 -35 -41 -53 -58 -20 -18 -13 -7 17 27 53 62 67 74 36 31z m-1902 12
c0 -2 -10 -9 -22 -15 -22 -11 -22 -10 -4 4 21 17 26 19 26 11z m-50 -30 c0 -7
-131 -78 -135 -73 -2 2 26 21 63 41 72 39 72 39 72 32z m-527 -172 c-7 -2 -19
-2 -25 0 -7 3 -2 5 12 5 14 0 19 -2 13 -5z m-4532 -20 c13 -16 12 -17 -3 -4
-10 7 -18 15 -18 17 0 8 8 3 21 -13z m3509 -23 c-14 -4 -74 -8 -134 -9 -110
-1 -129 -8 -59 -21 24 -5 -25 -8 -127 -9 -91 -1 -232 -6 -315 -11 -329 -21
-486 -23 -616 -10 -71 7 -131 16 -134 20 -7 11 130 32 265 40 174 10 1151 10
1120 0z m-3005 -74 c-32 -7 -61 -19 -63 -25 -4 -13 -42 14 -42 31 0 4 37 8 83
7 l82 -1 -60 -12z m-155 -26 c21 -11 42 -25 46 -32 4 -6 -8 -2 -27 10 -19 11
-46 26 -60 31 -13 5 -18 10 -11 10 7 1 30 -8 52 -19z m305 10 c3 -6 -1 -7 -9
-4 -18 7 -21 14 -7 14 6 0 13 -4 16 -10z m-378 -26 c-3 -3 -12 -4 -19 -1 -8 3
-5 6 6 6 11 1 17 -2 13 -5z m434 -21 c13 -16 12 -17 -3 -4 -10 7 -18 15 -18
17 0 8 8 3 21 -13z m-2168 -163 c54 -23 96 -44 94 -46 -2 -2 -39 11 -83 30
-43 18 -127 54 -186 79 -59 25 -117 55 -130 67 -15 13 18 2 92 -33 63 -30 159
-73 213 -97z m2177 93 c-4 -42 -5 -44 -8 -15 -3 30 2 62 10 62 2 0 1 -21 -2
-47z m-2421 -29 c47 -24 83 -43 79 -44 -11 0 -191 80 -202 91 -18 17 40 -6
123 -47z m-518 -21 c13 -16 12 -17 -3 -4 -10 7 -18 15 -18 17 0 8 8 3 21 -13z
m6938 -238 c0 -5 -17 -19 -39 -29 -61 -29 -131 -107 -198 -220 -34 -57 -81
-125 -104 -151 l-43 -47 -2 29 c-5 73 -16 144 -25 149 -5 3 -4 12 3 20 6 8 10
17 7 19 -2 3 -28 -18 -57 -46 -36 -35 -57 -48 -70 -44 -10 3 -29 -3 -43 -14
-42 -34 -139 -71 -209 -81 -77 -11 -94 -17 -132 -43 -33 -22 -43 -18 -28 12
17 31 58 48 177 77 128 30 188 57 289 130 72 53 77 55 105 44 34 -14 28 -17
130 71 36 31 101 84 145 117 75 57 80 59 87 39 3 -12 6 -26 7 -32z m-2659 0
c392 -60 449 -74 522 -126 35 -25 61 -79 53 -112 -4 -12 -28 -37 -55 -54 -60
-40 -65 -41 -44 -7 10 15 17 44 16 71 0 57 -38 100 -123 138 -80 36 -428 94
-619 104 l-145 8 115 1 c81 2 164 -5 280 -23z m-110 -55 c313 -23 562 -103
548 -177 -10 -52 -216 -129 -382 -144 -55 -5 -159 -15 -231 -23 -126 -15 -319
-25 -842 -46 -137 -6 -342 -15 -458 -20 -262 -12 -1412 -25 -1403 -16 3 4 149
11 325 16 175 5 329 12 343 16 14 3 43 8 65 11 74 8 71 16 -10 28 -70 11 -25
12 348 14 740 2 1427 44 1662 101 104 25 184 34 231 25 28 -5 34 -9 23 -16 -9
-6 -2 -7 21 -3 46 9 60 21 60 53 0 30 -27 59 -76 84 -43 22 -214 64 -374 93
-150 26 -155 26 150 4z m-1619 -7 c13 -16 12 -17 -3 -4 -10 7 -18 15 -18 17 0
8 8 3 21 -13z m4704 -29 c-59 -16 -83 -18 -69 -5 12 12 41 19 84 19 33 0 32
-1 -15 -14z m-195 -9 c0 -8 -2 -15 -4 -15 -2 0 -6 7 -10 15 -3 8 -1 15 4 15 6
0 10 -7 10 -15z m145 -94 c22 -6 105 -18 185 -26 99 -10 168 -22 217 -40 40
-14 80 -25 89 -25 13 0 13 -2 2 -13 -10 -10 -62 -13 -218 -13 -208 1 -248 -5
-230 -34 8 -13 105 -23 278 -29 19 -1 21 -4 10 -20 -6 -10 -28 -26 -48 -35
-21 -9 -65 -34 -99 -56 -34 -22 -65 -40 -70 -40 -17 0 -106 98 -146 160 -48
74 -98 170 -92 176 2 2 16 -5 30 -16 18 -14 28 -17 33 -9 3 6 3 14 -2 18 -5 3
-11 15 -13 26 -3 19 -2 19 15 3 11 -9 37 -21 59 -27z m580 -1 c8 -12 -91 -12
-120 0 -14 6 0 9 47 9 37 1 70 -3 73 -9z m-3460 -41 c3 -4 -19 -10 -49 -13
-56 -7 -96 -2 -96 13 0 10 135 9 145 0z m115 -19 c0 -12 -57 -12 -85 0 -15 6
-6 9 33 9 28 1 52 -3 52 -9z m2009 -108 c-58 -62 -84 -78 -62 -37 9 15 113
105 122 105 2 0 -25 -31 -60 -68z m-44 28 c-3 -5 -16 -15 -28 -21 -22 -12 -22
-12 -3 10 19 21 43 30 31 11z m-1703 -30 c-12 -10 -45 -23 -73 -29 -72 -16
-105 -12 -39 4 30 8 71 21 90 29 46 20 50 19 22 -4z m1113 -179 c-5 -13 -7
-14 -16 -1 -7 12 -8 9 -7 -9 3 -19 -8 -31 -61 -63 -97 -60 -196 -96 -326 -118
-118 -20 -183 -19 -217 5 -15 10 -13 14 24 32 38 20 43 20 91 6 78 -23 184 -5
302 53 78 39 135 105 176 206 l34 83 3 -89 c2 -49 0 -96 -3 -105z m-1525 139
c-19 -5 -69 -11 -110 -14 l-75 -5 85 13 c100 16 154 18 100 6z m1969 -36 c-13
-14 -37 -35 -54 -46 -20 -14 -15 -6 17 26 49 49 78 64 37 20z m1501 22 c0 -3
-4 -8 -10 -11 -5 -3 -10 -1 -10 4 0 6 5 11 10 11 6 0 10 -2 10 -4z m-1570 -29
c0 -17 -38 -53 -46 -44 -8 8 23 57 36 57 6 0 10 -6 10 -13z m1680 -18 c0 -18
-2 -19 -15 -9 -15 12 -12 30 6 30 5 0 9 -10 9 -21z m124 -10 c20 -12 36 -23
36 -26 0 -10 -43 10 -61 28 -24 24 -19 24 25 -2z m-7301 -6 c-7 -2 -19 -2 -25
0 -7 3 -2 5 12 5 14 0 19 -2 13 -5z m250 0 c-13 -2 -35 -2 -50 0 -16 2 -5 4
22 4 28 0 40 -2 28 -4z m-385 -10 c-21 -2 -55 -2 -75 0 -21 2 -4 4 37 4 41 0
58 -2 38 -4z m465 0 c-7 -2 -21 -2 -30 0 -10 3 -4 5 12 5 17 0 24 -2 18 -5z
m6785 -15 c6 -13 24 -39 39 -58 l27 -35 -27 24 c-30 27 -71 91 -58 91 4 0 13
-10 19 -22z m-138 -127 c-49 -70 -177 -211 -192 -211 -6 0 17 29 50 64 33 36
86 96 117 135 32 39 59 71 62 71 2 0 -14 -26 -37 -59z m-8510 9 c-11 -61 -26
-73 -80 -66 -48 7 -140 47 -159 70 -10 12 6 15 96 21 59 3 113 8 118 10 28 10
32 4 25 -35z m4826 -160 c5 -5 34 -13 64 -18 l55 -9 -85 -6 c-484 -39 -1349
-58 -1394 -31 -47 28 280 53 814 63 212 4 419 8 461 9 41 1 79 -2 85 -8z
m1061 4 c-3 -3 -12 -4 -19 -1 -8 3 -5 6 6 6 11 1 17 -2 13 -5z m-109 -11 c-10
-2 -28 -2 -40 0 -13 2 -5 4 17 4 22 1 32 -1 23 -4z m2292 -187 c0 -2 -9 -6
-20 -9 -11 -3 -18 -1 -14 4 5 9 34 13 34 5z m-7350 -179 c-3 -1 -30 24 -60 58
l-54 60 59 -57 c32 -32 57 -59 55 -61z m915 -27 c290 -10 543 -20 900 -37 137
-7 145 -8 90 -16 -88 -12 -707 -10 -950 2 -258 14 -450 38 -467 59 -11 13 -5
14 52 8 36 -3 205 -11 375 -16z m-1628 -306 c18 -8 63 -14 100 -14 138 0 226
-17 342 -65 160 -65 207 -74 465 -85 255 -11 515 -34 561 -49 17 -6 156 -24
310 -40 154 -17 294 -32 310 -34 59 -8 -92 -6 -215 2 -69 5 -184 6 -256 2
-124 -6 -300 7 -279 20 6 4 29 10 52 14 23 3 47 13 54 22 11 13 8 14 -22 9
-96 -15 -169 -16 -447 -6 -373 13 -434 23 -567 89 -97 49 -104 51 -243 65
-119 13 -151 20 -192 42 -28 15 -50 31 -50 35 0 5 16 -1 35 -13 40 -23 59 -19
22 5 -42 27 -138 115 -176 159 -20 24 9 1 64 -51 55 -52 114 -100 132 -107z
m4210 165 c24 -6 43 -15 43 -19 0 -14 -81 -31 -217 -45 -177 -19 -209 -17
-105 5 82 17 139 50 125 73 -7 12 84 3 154 -14z m-1660 -296 c-84 -109 -93
-116 -140 -109 -68 10 -266 26 -511 41 -125 8 -231 16 -233 19 -3 3 66 2 153
-1 132 -5 167 -3 207 11 43 14 128 28 422 66 49 6 96 15 105 20 39 23 37 5 -3
-47z m102 -4 c9 -41 8 -54 -4 -72 -13 -19 -14 -17 -9 34 l5 54 -21 -50 c-22
-53 -34 -71 -63 -94 -12 -10 -2 19 29 82 27 53 49 97 50 97 1 0 7 -23 13 -51z
m-346 34 c-7 -2 -19 -2 -25 0 -7 3 -2 5 12 5 14 0 19 -2 13 -5z m567 -100 c0
-3 -27 18 -60 47 -33 29 -60 54 -60 57 0 3 27 -18 60 -47 33 -29 60 -54 60
-57z m590 77 c422 -12 725 -25 1150 -51 306 -18 434 -29 726 -59 104 -11 393
-66 403 -76 3 -4 -7 -4 -24 -1 -87 16 -105 17 -105 7 0 -5 3 -10 8 -10 4 0 40
-6 80 -14 59 -11 72 -11 68 -1 -6 16 313 -64 370 -93 22 -11 57 -39 77 -61 58
-64 48 -119 -34 -199 -34 -34 -148 -106 -155 -99 -2 2 16 18 41 36 66 47 167
204 150 232 -4 5 -18 -13 -32 -41 -44 -88 -175 -184 -326 -238 -124 -45 -139
-47 -62 -8 127 63 206 167 192 253 -10 57 -25 61 -19 5 3 -33 -1 -59 -12 -81
-23 -44 -127 -118 -193 -137 -62 -18 -87 -12 -155 34 -48 32 -100 52 -132 51
-12 0 0 -7 26 -15 34 -10 58 -27 87 -62 23 -26 41 -52 41 -58 0 -10 -123 -2
-157 11 -6 2 -1 -17 10 -41 23 -46 28 -48 82 -30 11 4 7 0 -9 -10 -78 -44
-446 -118 -966 -193 -190 -27 -426 -62 -525 -76 -99 -14 -319 -51 -490 -81
-170 -30 -354 -57 -407 -61 l-98 -6 16 31 c8 18 19 34 24 37 5 3 67 13 137 21
175 20 220 36 83 28 -58 -3 -168 -7 -245 -10 -77 -2 -176 -9 -220 -14 -89 -11
-260 -13 -317 -4 -41 7 -42 24 -2 24 14 0 22 4 19 10 -4 6 29 10 92 10 92 0
633 57 768 81 33 5 132 30 220 54 88 24 223 60 300 80 123 31 366 113 341 114
-4 1 -34 -5 -65 -13 -31 -8 -83 -14 -116 -14 -33 -1 -101 -10 -151 -21 -86
-19 -208 -34 -391 -48 -132 -10 -96 3 45 16 70 7 181 21 247 31 66 10 175 26
243 35 270 35 422 94 422 165 0 66 -29 79 -310 134 -96 19 -191 42 -211 50
-20 8 -52 35 -72 60 -20 24 -61 58 -89 75 -40 23 -47 31 -30 31 12 0 22 -4 22
-9 0 -4 12 -7 28 -4 24 3 25 2 7 -7 -17 -9 -15 -10 10 -6 17 3 86 -6 155 -19
69 -13 193 -33 277 -44 309 -43 493 -125 493 -221 0 -39 15 -38 29 0 12 36 1
73 -32 108 -55 59 -161 99 -432 161 -359 83 -619 119 -1025 141 -323 18 -460
42 -460 81 0 51 5 52 129 45 64 -4 267 -11 451 -16z m-3091 -155 c0 -20 0 -20
-14 -1 -8 11 -15 31 -15 45 -1 26 -1 26 -15 -4 -17 -37 -19 -20 -3 26 l12 34
18 -40 c9 -22 17 -49 17 -60z m2298 28 c-3 -10 -5 -2 -5 17 0 19 2 27 5 18 2
-10 2 -26 0 -35z m10 -45 c-3 -8 -6 -5 -6 6 -1 11 2 17 5 13 3 -3 4 -12 1 -19z
m851 -20 c-24 -6 -80 -6 -160 0 l-123 9 160 0 c123 1 151 -1 123 -9z m-158
-88 c98 -11 240 -20 323 -20 l147 0 58 -62 c31 -33 77 -74 101 -90 25 -15 41
-28 35 -28 -22 0 -113 62 -152 104 l-44 46 -173 0 c-143 0 -198 5 -312 25
-134 25 -204 43 -173 44 8 1 94 -8 190 -19z m-1185 -50 c-3 -5 -39 -9 -78 -9
-58 1 -65 3 -37 9 54 11 122 11 115 0z m-428 -207 c-8 -7 -157 66 -157 77 0 6
36 -8 80 -31 45 -23 79 -44 77 -46z m1691 -280 c-15 -2 -42 -2 -60 0 -18 2 -6
4 27 4 33 0 48 -2 33 -4z m3363 -24 c-73 -32 -315 -77 -761 -139 -156 -22
-548 -83 -665 -104 -44 -8 -141 -26 -215 -39 -126 -24 -168 -30 -390 -56 -376
-45 -511 -58 -715 -66 -263 -11 -520 -26 -680 -41 -170 -15 -374 -18 -340 -5
18 7 18 9 -8 22 -27 14 -24 16 95 38 68 13 196 38 284 57 204 43 315 60 529
79 160 15 374 39 440 50 l30 5 -30 -14 c-28 -14 -19 -15 125 -15 302 1 374 -1
364 -10 -5 -6 -27 -12 -49 -14 -22 -2 10 -2 70 0 307 11 696 60 1185 149 135
24 252 46 260 49 8 3 105 16 215 30 110 14 214 29 230 34 55 17 71 10 26 -10z
m-5741 -84 c-169 -16 -464 -33 -680 -39 l-165 -5 110 13 c61 7 225 19 365 26
140 6 257 14 259 16 2 2 59 3 125 3 l121 -1 -135 -13z m1453 -112 c-18 -2 -48
-2 -65 0 -18 2 -4 4 32 4 36 0 50 -2 33 -4z m-1253 -368 c269 -10 369 -31 370
-78 0 -16 -73 -38 -173 -52 -127 -18 -128 -18 -121 0 10 24 -48 72 -107 89
-30 9 -119 25 -199 35 l-145 20 110 -4 c61 -3 180 -7 265 -10z m3784 -354 c-9
-45 25 -99 106 -165 l35 -28 -51 27 c-105 55 -133 102 -102 170 15 33 19 32
12 -4z m-2589 -87 c39 -9 131 -24 205 -35 l135 -19 -100 6 c-99 5 -244 26
-317 45 -40 10 -54 33 -15 24 12 -3 54 -12 92 -21z m878 -121 c-7 -2 -21 -2
-30 0 -10 3 -4 5 12 5 17 0 24 -2 18 -5z m276 -19 c14 -14 -22 -14 -126 0
l-118 15 120 -5 c66 -3 122 -8 124 -10z m803 -54 c363 -31 461 -45 608 -90 52
-16 123 -36 158 -45 121 -31 135 -46 79 -89 -38 -29 -122 -51 -257 -66 -52 -6
-114 -13 -137 -16 -34 -4 -43 -2 -43 9 0 8 -7 18 -16 21 -15 6 -14 9 5 30 33
35 24 66 -25 93 -43 24 -276 67 -644 118 -281 39 -306 45 -170 40 65 -3 122 0
130 5 21 13 47 13 312 -10z m1609 -171 c10 -10 25 -19 33 -19 7 0 19 -7 26
-15 22 -26 -3 -16 -65 26 -33 22 -49 38 -37 34 13 -4 33 -16 43 -26z"/>
<path d="M12524 14787 c10 -7 31 -22 46 -34 15 -13 36 -23 46 -23 13 1 10 5
-11 14 -16 7 -39 23 -49 35 -11 11 -26 21 -35 20 -13 0 -13 -2 3 -12z"/>
<path d="M12270 14746 c-100 -43 -244 -114 -280 -138 -25 -17 -42 -22 -60 -17
-14 4 -47 7 -75 7 l-50 -1 55 -7 c30 -5 78 -15 105 -24 65 -20 60 -21 84 19
25 43 139 118 236 157 38 15 63 27 55 27 -8 0 -40 -10 -70 -23z"/>
<path d="M13815 14479 c-33 -16 -90 -35 -125 -44 l-65 -14 65 2 c55 3 77 10
140 45 85 48 75 55 -15 11z"/>
<path d="M10710 14316 c0 -2 8 -10 18 -17 15 -13 16 -12 3 4 -13 16 -21 21
-21 13z"/>
<path d="M10670 11783 c0 -16 -10 -66 -20 -113 -11 -47 -36 -157 -55 -245 -19
-88 -50 -227 -70 -310 -37 -156 -65 -339 -65 -434 0 -87 9 -55 26 90 8 74 37
226 64 339 27 113 54 239 60 280 7 41 23 125 35 185 26 121 41 235 31 235 -3
0 -6 -12 -6 -27z"/>
<path d="M11015 11133 c-19 -27 -71 -127 -116 -223 -83 -181 -145 -294 -186
-344 -24 -28 -113 -198 -113 -213 0 -5 22 33 48 82 27 50 70 121 96 159 53 77
103 173 182 349 29 65 71 144 93 177 47 72 45 79 -4 13z"/>
<path d="M10269 9850 c-9 -5 -33 -31 -54 -57 -31 -40 -32 -42 -5 -13 18 19 45
45 59 57 27 23 27 29 0 13z"/>
<path d="M8709 8683 c-13 -16 -12 -17 4 -4 9 7 17 15 17 17 0 8 -8 3 -21 -13z"/>
<path d="M8625 8579 c-22 -22 -73 -63 -113 -90 -41 -27 -70 -49 -64 -49 18 0
175 116 200 148 34 44 24 40 -23 -9z"/>
<path d="M8535 8470 c-3 -6 1 -7 9 -4 18 7 21 14 7 14 -6 0 -13 -4 -16 -10z"/>
<path d="M8252 8432 c-11 -25 -11 -25 4 -10 9 9 15 21 13 27 -2 6 -10 -2 -17
-17z"/>
<path d="M8612 8408 c-11 -24 -32 -54 -47 -68 -15 -14 -51 -59 -81 -101 -31
-42 -75 -91 -99 -109 -54 -40 -52 -51 2 -17 48 31 82 68 126 137 19 30 47 66
62 80 26 23 70 108 62 117 -3 2 -14 -16 -25 -39z"/>
<path d="M8577 8413 c-9 -2 -15 -9 -12 -14 9 -14 22 -11 29 6 3 8 4 14 3 14
-1 -1 -10 -3 -20 -6z"/>
<path d="M8228 7963 c6 -2 18 -2 25 0 6 3 1 5 -13 5 -14 0 -19 -2 -12 -5z"/>
<path d="M12426 13612 c-11 -11 37 -52 61 -52 23 0 32 23 13 35 -19 12 -68 23
-74 17z"/>
<path d="M12528 13528 c12 -12 24 -19 28 -15 10 10 -16 37 -34 37 -13 0 -12
-4 6 -22z"/>
<path d="M12215 13484 c156 -34 292 -122 386 -247 34 -45 67 -86 72 -92 19
-19 -27 55 -74 119 -83 113 -265 219 -395 231 l-59 5 70 -16z"/>
<path d="M12689 13112 c6 -12 16 -24 22 -28 8 -4 8 -1 0 14 -6 12 -16 24 -22
28 -8 4 -8 1 0 -14z"/>
<path d="M12630 13069 c0 -8 12 -32 26 -53 41 -60 78 -149 129 -311 53 -171
98 -259 163 -323 68 -65 216 -162 229 -148 3 2 -17 16 -44 29 -73 37 -170 114
-213 169 -55 68 -82 131 -134 311 -25 87 -59 183 -75 215 -35 68 -81 132 -81
111z"/>
<path d="M12660 12975 c0 -11 5 -27 10 -35 8 -12 10 -12 10 5 0 11 -5 27 -10
35 -8 12 -10 12 -10 -5z"/>
<path d="M13000 12905 c0 -8 4 -15 10 -15 5 0 7 7 4 15 -4 8 -8 15 -10 15 -2
0 -4 -7 -4 -15z"/>
<path d="M12070 12226 c-5 -15 -10 -38 -10 -51 0 -36 -35 -123 -79 -196 -32
-54 -39 -76 -44 -141 -4 -42 -18 -130 -32 -195 -23 -104 -46 -339 -44 -443 l1
-35 8 30 c4 17 13 95 19 175 9 111 22 188 57 329 39 161 53 198 107 303 51 99
62 127 62 168 0 33 -6 55 -17 66 -16 16 -18 16 -28 -10z m9 -124 c-12 -37 -57
-122 -65 -122 -2 0 7 22 20 49 14 27 31 70 38 97 7 27 14 41 16 31 2 -9 -2
-34 -9 -55z"/>
<path d="M12344 10858 c12 -85 95 -298 116 -298 6 0 9 4 6 8 -3 5 -9 36 -15
69 -11 71 -88 273 -103 273 -7 0 -8 -18 -4 -52z"/>
<path d="M11347 10052 c-9 -37 -33 -127 -52 -201 -20 -74 -34 -142 -32 -150 1
-9 27 80 56 197 30 117 52 215 49 217 -2 3 -12 -26 -21 -63z"/>
<path d="M10361 11159 c-6 -18 -9 -34 -7 -36 2 -2 9 10 15 28 6 18 9 34 7 36
-2 2 -9 -10 -15 -28z"/>
<path d="M10332 11085 c-17 -37 -14 -45 4 -12 9 16 14 31 11 33 -2 2 -9 -7
-15 -21z"/>
<path d="M14645 10560 c3 -5 11 -10 16 -10 6 0 7 5 4 10 -3 6 -11 10 -16 10
-6 0 -7 -4 -4 -10z"/>
<path d="M9352 9805 c0 -16 2 -22 5 -12 2 9 2 23 0 30 -3 6 -5 -1 -5 -18z"/>
<path d="M9342 9750 c0 -14 2 -19 5 -12 2 6 2 18 0 25 -3 6 -5 1 -5 -13z"/>
<path d="M8723 9615 c0 -22 2 -30 4 -17 2 12 2 30 0 40 -3 9 -5 -1 -4 -23z"/>
<path d="M8707 9515 c-4 -28 -15 -62 -24 -75 -16 -24 -16 -24 0 -11 21 17 40
78 35 111 -2 17 -6 8 -11 -25z"/>
<path d="M9189 9423 c-13 -16 -12 -17 4 -4 9 7 17 15 17 17 0 8 -8 3 -21 -13z"/>
<path d="M8869 9147 c-10 -8 -14 -19 -10 -30 7 -18 8 -18 30 0 19 15 21 21 9
30 -10 8 -17 8 -29 0z"/>
<path d="M10266 8929 c-3 -19 -10 -59 -15 -89 -9 -53 -7 -70 5 -58 11 12 33
163 24 172 -5 5 -11 -6 -14 -25z"/>
<path d="M13720 9403 c-9 -2 -21 -12 -28 -23 -11 -18 -10 -20 17 -20 34 0 58
22 39 37 -7 5 -20 8 -28 6z"/>
<path d="M13949 8293 c-13 -16 -12 -17 4 -4 9 7 17 15 17 17 0 8 -8 3 -21 -13z"/>
<path d="M13680 7940 c-6 -11 -8 -20 -6 -20 3 0 10 9 16 20 6 11 8 20 6 20 -3
0 -10 -9 -16 -20z"/>
<path d="M9375 7261 c-88 -5 -194 -14 -235 -22 l-75 -14 60 -3 c161 -9 1471 4
1488 14 14 8 -36 12 -205 17 -402 12 -870 15 -1033 8z"/>
<path d="M13108 6768 c-9 -7 -23 -25 -33 -41 l-17 -27 74 -35 c113 -52 144
-56 388 -60 209 -4 221 -3 170 10 -30 8 -138 26 -240 40 -177 24 -350 66 -350
84 0 5 10 16 23 24 12 9 17 16 11 16 -5 1 -17 -5 -26 -11z"/>
<path d="M12495 6410 l-30 -8 30 -1 c17 0 37 4 45 9 13 9 13 10 0 9 -8 -1 -28
-5 -45 -9z"/>
<path d="M10490 6020 c-311 -4 -635 -12 -720 -19 -85 -7 -234 -16 -330 -20
l-175 -8 240 -1 c132 0 359 3 505 7 146 4 270 4 276 0 6 -5 16 -3 23 4 9 9 91
13 314 14 327 2 465 8 512 22 26 8 22 9 -25 8 -30 0 -309 -4 -620 -7z"/>
<path d="M7390 5930 c-238 -18 -577 -76 -694 -120 -80 -31 -108 -59 -100 -102
17 -93 67 -126 243 -163 121 -26 197 -30 91 -5 -119 27 -252 114 -237 154 14
36 128 86 267 117 47 10 182 35 300 54 118 20 233 41 255 47 22 6 67 14 100
18 57 7 55 7 -30 7 -49 0 -137 -3 -195 -7z"/>
<path d="M8590 5873 c-94 -3 -388 -21 -542 -34 -194 -15 -317 -65 -334 -135
-6 -22 -2 -31 16 -46 29 -23 37 -16 16 14 -22 31 -21 35 13 53 98 50 556 120
861 130 107 4 233 11 280 15 73 6 62 7 -75 7 -88 -1 -194 -2 -235 -4z"/>
<path d="M8090 5750 c-48 -12 -90 -61 -90 -106 0 -29 9 -44 50 -85 62 -62 112
-84 215 -98 115 -15 200 -22 194 -17 -2 2 -49 23 -104 46 -189 80 -265 129
-265 171 0 10 21 36 46 58 47 41 47 41 18 40 -16 -1 -45 -5 -64 -9z"/>
<path d="M7300 5623 c1 -18 29 -44 63 -58 66 -27 210 -45 397 -50 142 -3 165
-2 99 5 -126 12 -355 56 -446 85 -80 25 -113 31 -113 18z"/>
<path d="M7960 5504 c36 -7 139 -10 128 -2 -7 4 -42 7 -78 7 -36 -1 -58 -3
-50 -5z"/>
<path d="M12950 5480 c8 -5 20 -10 25 -10 6 0 3 5 -5 10 -8 5 -19 10 -25 10
-5 0 -3 -5 5 -10z"/>
<path d="M13194 5186 c-14 -38 24 -116 56 -116 26 0 27 43 1 90 -20 38 -48 51
-57 26z"/>
<path d="M13608 5015 c4 -81 -6 -125 -45 -182 -16 -24 -19 -32 -8 -23 37 30
65 111 65 185 0 39 -4 75 -8 82 -4 6 -6 -21 -4 -62z"/>
<path d="M12338 5001 c26 -25 41 -31 77 -31 25 0 45 4 45 8 0 23 -42 44 -96
48 l-59 6 33 -31z"/>
<path d="M13522 5010 c0 -14 2 -19 5 -12 2 6 2 18 0 25 -3 6 -5 1 -5 -13z"/>
<path d="M11802 4988 c8 -13 28 -24 43 -26 28 -4 28 -3 13 20 -8 13 -28 24
-43 26 -28 4 -28 3 -13 -20z"/>
<path d="M10553 4943 c15 -2 37 -2 50 0 12 2 0 4 -28 4 -27 0 -38 -2 -22 -4z"/>
<path d="M10683 4933 c9 -2 25 -2 35 0 9 3 1 5 -18 5 -19 0 -27 -2 -17 -5z"/>
<path d="M10808 4923 c17 -2 47 -2 65 0 17 2 3 4 -33 4 -36 0 -50 -2 -32 -4z"/>
<path d="M10943 4913 c9 -2 25 -2 35 0 9 3 1 5 -18 5 -19 0 -27 -2 -17 -5z"/>
<path d="M11028 4903 c7 -3 16 -2 19 1 4 3 -2 6 -13 5 -11 0 -14 -3 -6 -6z"/>
<path d="M13298 4783 c6 -2 18 -2 25 0 6 3 1 5 -13 5 -14 0 -19 -2 -12 -5z"/>
<path d="M12140 4768 c137 -59 258 -127 301 -169 54 -52 69 -82 69 -135 0 -21
4 -33 10 -29 13 8 13 70 -1 119 -14 51 -79 120 -143 150 -28 14 -91 37 -140
51 -91 26 -142 33 -96 13z"/>
<path d="M13248 4773 c6 -2 18 -2 25 0 6 3 1 5 -13 5 -14 0 -19 -2 -12 -5z"/>
<path d="M13183 4763 c9 -2 23 -2 30 0 6 3 -1 5 -18 5 -16 0 -22 -2 -12 -5z"/>
<path d="M13118 4753 c6 -2 18 -2 25 0 6 3 1 5 -13 5 -14 0 -19 -2 -12 -5z"/>
<path d="M12438 4693 c6 -2 18 -2 25 0 6 3 1 5 -13 5 -14 0 -19 -2 -12 -5z"/>
<path d="M8928 6175 c-2 -2 -23 -6 -47 -9 -81 -10 -55 -16 67 -16 81 0 123 4
128 12 5 8 2 9 -9 5 -10 -3 -17 -3 -17 1 0 7 -115 13 -122 7z"/>
<path d="M8736 6150 c7 -7 19 -7 35 -1 23 9 22 10 -10 10 -24 1 -32 -2 -25 -9z"/>
<path d="M13510 6194 c8 -8 23 -19 34 -25 18 -8 19 -8 4 3 -15 11 -15 13 0 25
15 11 13 12 -17 13 -29 0 -32 -2 -21 -16z"/>
<path d="M5485 5040 c3 -5 8 -10 11 -10 2 0 4 5 4 10 0 6 -5 10 -11 10 -5 0
-7 -4 -4 -10z"/>
<path d="M9875 4423 c0 -35 -7 -58 -25 -83 -16 -23 -18 -30 -6 -21 20 16 56
83 56 104 0 7 -6 21 -12 30 -11 15 -13 10 -13 -30z"/>
<path d="M10182 4410 c-45 -54 -139 -117 -246 -163 -79 -34 -176 -90 -176
-102 0 -3 33 12 73 33 40 20 108 52 151 71 103 45 190 110 216 161 11 22 19
40 18 40 -2 0 -18 -18 -36 -40z"/>
<path d="M9375 4138 c-143 -35 -160 -41 -147 -45 30 -11 242 39 242 57 0 12 6
12 -95 -12z"/>
<path d="M7375 15580 c-4 -6 11 -10 37 -10 31 0 39 3 28 10 -20 13 -57 13 -65
0z"/>
<path d="M7560 15524 c36 -7 74 -13 85 -12 11 0 -9 6 -45 14 -36 7 -74 13 -85
12 -11 0 9 -6 45 -14z"/>
<path d="M7688 15503 c7 -3 16 -2 19 1 4 3 -2 6 -13 5 -11 0 -14 -3 -6 -6z"/>
<path d="M6815 15480 c-405 -57 -792 -253 -1071 -541 -474 -493 -632 -1197
-414 -1851 147 -443 466 -805 900 -1023 363 -182 790 -231 1216 -141 526 112
1005 494 1231 983 47 101 108 288 133 408 27 128 38 405 21 566 -47 454 -251
855 -581 1146 -181 160 -448 314 -661 381 -189 60 -275 74 -504 77 -115 2
-237 0 -270 -5z m817 -176 c413 -149 786 -485 963 -866 55 -121 115 -306 137
-428 32 -175 32 -512 0 -668 -46 -228 -128 -425 -257 -617 -262 -392 -652
-648 -1120 -737 -104 -20 -150 -23 -340 -22 -132 1 -232 6 -250 12 -23 8 4 10
115 5 121 -5 148 -3 161 9 17 17 80 28 165 29 59 1 186 36 234 64 l25 15 -30
-6 c-16 -4 -50 -13 -73 -20 -42 -12 -161 -11 -270 2 -84 10 -143 93 -106 149
28 44 244 186 231 153 -3 -9 -8 -37 -11 -64 -5 -37 -4 -43 4 -26 13 31 26 28
34 -8 13 -66 153 -77 285 -23 8 3 11 1 8 -4 -13 -21 -84 -46 -162 -59 -74 -11
-76 -12 -29 -13 82 -2 141 22 231 94 97 76 131 123 142 194 9 56 31 93 31 53
0 -13 7 -37 16 -53 12 -23 21 -30 36 -26 19 5 19 5 3 -13 -10 -11 -23 -17 -29
-13 -6 3 -8 3 -4 -2 6 -7 -18 -41 -109 -153 l-26 -33 64 24 c35 13 73 27 84
31 11 4 -7 -8 -40 -28 -88 -51 -94 -56 -55 -44 44 14 222 89 234 100 5 4 16 3
25 -2 19 -9 78 10 161 54 74 39 221 190 237 245 7 22 10 47 7 56 -5 13 -14 10
-48 -18 -22 -18 -72 -55 -111 -82 -38 -26 -99 -74 -135 -106 -56 -49 -113 -79
-153 -79 -9 0 47 73 95 126 l28 30 -52 18 c-29 10 -85 30 -124 44 l-70 26 30
21 c17 11 57 36 89 54 31 18 57 34 57 37 0 7 -102 -47 -129 -67 -13 -11 -34
-19 -47 -19 -12 0 -24 -5 -26 -12 -3 -8 -21 -8 -70 1 -67 13 -155 4 -201 -21
-10 -5 -23 -7 -30 -5 -7 2 11 11 40 21 48 16 51 19 43 41 -5 12 -6 32 -3 44 4
16 1 21 -13 21 -17 1 -17 2 -2 10 13 8 14 16 6 43 -18 54 -24 62 -51 65 -23 3
-55 28 -46 36 2 2 36 18 74 37 54 26 65 34 47 37 -12 2 -42 -8 -67 -22 -65
-38 -68 -31 -5 11 61 41 74 54 58 64 -6 4 5 18 26 34 39 30 39 45 0 45 -14 0
-22 4 -19 10 8 13 -1 13 -28 -1 -17 -7 -15 -5 5 11 70 55 68 51 57 103 -8 37
-15 47 -31 47 -17 0 -18 2 -8 15 18 22 0 18 -73 -15 -64 -29 -110 -41 -77 -20
12 8 12 10 -3 16 -9 3 -17 12 -17 19 0 7 -13 19 -30 27 -16 7 -30 17 -30 22 0
9 -22 5 -77 -12 -18 -6 -33 -9 -33 -8 0 2 28 17 63 34 34 18 80 48 102 67 l40
36 -48 -30 c-44 -26 -54 -29 -127 -26 -56 3 -85 8 -96 19 -8 9 -30 16 -48 16
-25 0 -40 8 -60 32 -17 21 -22 34 -15 39 8 4 7 8 -2 11 -11 4 -11 10 -2 29 9
21 8 27 -5 35 -20 13 -44 96 -32 108 15 15 12 26 -5 20 -8 -4 -23 0 -32 7 -15
13 -15 12 -4 -8 17 -32 -1 -28 -32 7 -25 27 -26 34 -18 72 8 34 7 44 -6 53
-14 11 -13 14 7 28 13 9 20 22 17 30 -4 12 3 15 30 14 38 -1 63 21 63 55 0 11
19 46 42 78 37 53 40 62 30 85 -18 40 -15 53 23 89 37 33 41 68 7 60 -9 -2
-24 0 -32 5 -12 8 -12 13 -2 23 6 6 12 32 12 56 0 36 -3 43 -16 38 -9 -3 -26
-6 -39 -6 -19 0 -31 -13 -56 -60 -30 -57 -145 -193 -133 -158 4 11 0 20 -10
24 -20 8 -21 28 -1 44 17 14 3 40 -21 40 -27 0 -7 132 32 210 19 38 34 74 34
78 0 5 18 0 41 -11 30 -15 43 -17 52 -8 17 17 26 13 20 -9 -6 -23 24 -100 39
-100 5 0 7 -10 3 -22 -5 -21 -5 -21 8 -6 7 9 25 20 40 23 15 4 30 11 33 16 3
5 -7 4 -21 -1 -34 -13 -60 1 -79 43 -22 50 -15 79 29 107 l38 25 -29 6 c-56
10 -14 64 82 105 35 15 64 31 64 36 0 5 -4 7 -9 4 -17 -11 -19 19 -2 38 15 18
15 18 -14 4 -43 -22 -83 -33 -70 -20 21 23 179 93 238 107 88 20 328 45 357
38 39 -10 70 -34 101 -77 16 -21 29 -34 29 -28 0 6 -15 30 -33 54 -43 56 -116
87 -207 88 -36 0 -110 11 -164 23 l-99 23 29 23 c39 31 11 16 -58 -31 -71 -48
-105 -61 -111 -45 -3 8 -12 5 -28 -10 -37 -33 -75 -45 -92 -28 -8 8 -18 11
-21 7 -4 -3 -4 1 -1 10 5 11 -2 21 -20 31 -27 14 -27 14 76 59 279 122 339
142 431 146 63 3 88 8 90 17 2 11 28 4 102 -25 55 -22 101 -38 103 -37 4 4
-203 97 -216 97 -16 0 -14 11 6 25 20 15 10 32 -30 49 -55 24 -12 17 65 -10z
m-546 -479 c-11 -8 -22 -12 -25 -9 -6 6 19 24 34 24 6 -1 1 -7 -9 -15z m-116
-659 c0 -2 -8 -10 -17 -17 -16 -13 -17 -12 -4 4 13 16 21 21 21 13z m-23 -52
c-3 -3 -12 -4 -19 -1 -8 3 -5 6 6 6 11 1 17 -2 13 -5z m-1307 -1415 c36 -52
112 -143 170 -203 91 -96 96 -103 37 -51 -38 33 -92 89 -121 125 -52 64 -156
210 -170 240 -11 23 10 -6 84 -111z m2038 -176 c34 -25 39 -61 13 -111 -54
-105 -241 -197 -348 -171 -24 6 -46 16 -50 22 -4 6 2 8 18 4 91 -25 145 -13
231 50 45 33 88 96 74 110 -3 3 -36 -15 -73 -39 -76 -49 -115 -68 -142 -68
-40 0 -74 77 -52 118 17 32 72 70 132 93 69 25 157 22 197 -8z m-1124 -189
c23 -9 20 -24 -4 -24 -11 0 -20 7 -20 15 0 17 2 18 24 9z m-56 -271 c79 -26
139 -49 134 -51 -5 -1 -62 13 -126 33 -108 33 -303 121 -351 159 -11 9 30 -8
90 -38 61 -30 174 -76 253 -103z m495 -60 c-7 -2 -19 -2 -25 0 -7 3 -2 5 12 5
14 0 19 -2 13 -5z"/>
<path d="M7407 15151 c-37 -10 -72 -22 -78 -28 -5 -5 23 -2 63 8 40 10 87 19
103 19 23 0 27 3 15 10 -19 12 -22 12 -103 -9z"/>
<path d="M7540 15140 c8 -5 20 -10 25 -10 6 0 3 5 -5 10 -8 5 -19 10 -25 10
-5 0 -3 -5 5 -10z"/>
<path d="M7572 15100 c5 -16 48 -46 48 -34 0 5 -12 18 -27 28 -16 12 -24 14
-21 6z"/>
<path d="M7941 15077 c19 -12 54 -37 76 -55 39 -31 153 -77 153 -62 0 12 -122
95 -136 92 -7 -1 -36 9 -63 23 -62 31 -79 32 -30 2z"/>
<path d="M7631 14843 c-10 -26 -10 -27 4 -9 8 11 15 23 15 28 0 15 -7 8 -19
-19z"/>
<path d="M7816 14788 c4 -35 1 -43 -43 -90 l-48 -52 42 33 c51 41 67 75 53
116 -9 29 -10 28 -4 -7z"/>
<path d="M6924 13755 c-25 -18 -15 -25 14 -9 13 6 20 14 14 18 -5 3 -18 -1
-28 -9z"/>
<path d="M7058 13463 c7 -3 16 -2 19 1 4 3 -2 6 -13 5 -11 0 -14 -3 -6 -6z"/>
<path d="M8260 13115 c-11 -13 -10 -14 4 -9 9 3 16 10 16 15 0 13 -6 11 -20
-6z"/>
<path d="M8280 13075 c-8 -9 -8 -15 -2 -15 12 0 26 19 19 26 -2 2 -10 -2 -17
-11z"/>
<path d="M7640 12690 c-8 -5 -10 -10 -5 -10 6 0 17 5 25 10 8 5 11 10 5 10 -5
0 -17 -5 -25 -10z"/>
<path d="M8095 12679 c-16 -10 -25 -19 -19 -19 7 0 22 9 35 20 30 24 23 24
-16 -1z"/>
<path d="M7268 12193 c7 -3 16 -2 19 1 4 3 -2 6 -13 5 -11 0 -14 -3 -6 -6z"/>
<path d="M8820 15320 c-45 -6 -44 -6 20 -11 36 -4 66 -6 67 -5 1 1 -8 6 -20
11 -12 6 -42 8 -67 5z"/>
<path d="M8448 15243 c6 -2 18 -2 25 0 6 3 1 5 -13 5 -14 0 -19 -2 -12 -5z"/>
<path d="M9531 13898 c55 -109 151 -229 222 -280 15 -11 -7 16 -50 59 -51 51
-97 110 -132 171 -57 97 -76 121 -40 50z"/>
<path d="M11610 13678 c-28 -8 -31 -11 -18 -19 20 -11 90 2 96 19 4 14 -28 15
-78 0z"/>
<path d="M10805 13050 c3 -5 8 -10 11 -10 2 0 4 5 4 10 0 6 -5 10 -11 10 -5 0
-7 -4 -4 -10z"/>
<path d="M13686 11981 c5 -6 63 -23 129 -40 133 -34 281 -50 310 -33 15 8 8 9
-26 5 -53 -6 -264 28 -348 57 -67 22 -79 24 -65 11z"/>
<path d="M3787 11967 c-15 -5 -27 -12 -27 -17 0 -11 82 -37 143 -46 26 -3 46
-8 44 -11 -10 -9 -163 -42 -177 -38 -8 3 -28 1 -45 -4 -23 -7 -10 -9 60 -10
102 -1 154 10 179 38 17 19 17 20 -13 35 -16 9 -40 16 -53 16 -30 0 -68 11
-68 19 0 3 71 5 158 3 226 -4 242 -3 297 13 l50 15 -60 -7 c-33 -4 -78 -6
-100 -5 -143 7 -366 7 -388 -1z"/>
<path d="M15271 11836 c-11 -14 -6 -21 27 -41 11 -6 12 -3 4 11 -5 11 -7 25
-5 32 6 16 -12 15 -26 -2z"/>
<path d="M14690 11820 c0 -6 -10 -15 -22 -20 l-23 -9 23 0 c12 -1 22 -6 22
-12 0 -5 4 -8 9 -4 5 3 13 0 16 -5 5 -7 11 -5 19 6 12 16 13 16 19 0 6 -15 23
-16 149 -12 125 3 219 13 308 32 22 5 23 7 9 18 -22 16 -529 22 -529 6z"/>
<path d="M15371 11797 c-13 -21 -12 -21 5 -5 10 10 16 20 13 22 -3 3 -11 -5
-18 -17z"/>
<path d="M3358 11753 c6 -2 18 -2 25 0 6 3 1 5 -13 5 -14 0 -19 -2 -12 -5z"/>
<path d="M3164 11729 c-8 -14 130 -19 289 -10 93 5 170 11 172 13 2 2 -100 3
-227 3 -126 0 -232 -3 -234 -6z"/>
<path d="M15480 11654 c173 -59 231 -71 442 -89 205 -18 310 -36 433 -76 109
-34 155 -70 224 -173 27 -39 56 -78 65 -85 14 -12 16 -10 16 13 0 14 -4 26 -9
26 -5 0 -7 10 -4 23 3 15 2 18 -4 9 -7 -9 -19 1 -44 35 -61 85 -98 120 -158
147 -89 40 -294 83 -481 101 -225 21 -282 31 -438 76 -183 53 -207 49 -42 -7z"/>
<path d="M16546 11650 c4 -19 11 -44 15 -55 6 -14 7 -9 3 15 -4 19 -11 44 -15
55 -6 14 -7 9 -3 -15z"/>
<path d="M6975 11400 c-11 -17 5 -32 21 -19 7 6 11 15 8 20 -7 12 -21 11 -29
-1z"/>
<path d="M15395 10900 c-3 -5 1 -10 10 -10 9 0 13 5 10 10 -3 6 -8 10 -10 10
-2 0 -7 -4 -10 -10z"/>
<path d="M8174 10399 c-65 -42 -161 -114 -204 -155 l-35 -34 -75 30 c-41 16
-84 29 -95 29 -16 0 78 -40 155 -65 9 -3 29 7 45 21 17 15 41 34 55 43 14 9
52 38 85 63 62 48 115 79 136 79 6 0 34 -21 62 -46 49 -44 54 -46 97 -41 113
13 300 -69 308 -136 4 -29 22 -28 22 1 0 19 -106 122 -126 122 -7 0 -48 11
-92 25 -62 20 -85 23 -112 15 -36 -10 -37 -10 -103 47 -20 18 -45 33 -55 33
-10 0 -40 -14 -68 -31z"/>
<path d="M7708 10273 c6 -2 18 -2 25 0 6 3 1 5 -13 5 -14 0 -19 -2 -12 -5z"/>
<path d="M2786 10138 c-28 -39 13 -81 60 -60 45 21 23 82 -30 82 -8 0 -22 -10
-30 -22z"/>
<path d="M7220 9920 l-55 -7 57 -1 c31 -1 60 3 63 8 3 6 3 9 -2 8 -4 -1 -33
-4 -63 -8z"/>
<path d="M2904 9835 c-16 -13 -17 -16 -4 -25 21 -14 30 -12 37 6 9 24 -10 36
-33 19z"/>
</g>
</svg>
