<svg xmlns="http://www.w3.org/2000/svg" viewBox="0 0 28.84 27.69"><defs><style>.cls-1{fill:#2b609b;}.cls-2{fill:#260029;}</style></defs><g id="Layer_2" data-name="Layer 2"><g id="_"><path class="cls-1" d="M7.74,10.6c.41-1.89.07-5.42.33-7.33.13-1,0-1.89,1-2.14s1.19-.33,1.88.14c1.75,1.19,2.75,2.81,4.5,4,.45.3,1.29,1.79,1.83,1.83a14.59,14.59,0,0,0,2.83-1.17c2.13-.83,3.61-1.81,5.73-2.64a15.08,15.08,0,0,1-1.86,6.13,5.16,5.16,0,0,0-.89,2.19c-.06.94-.49.7,0,1.49,1.19,1.84,3.65,4.5,4.84,6.33.17.27,0,.84,0,1.15a1,1,0,0,1-.41.59c-1.16.93-2.85.67-4.26.23s-2.91-1-4.34-.64c-1.71.47-2.73,2.17-3.5,3.76a6.67,6.67,0,0,1-2.13,2.41,2.28,2.28,0,0,1-3-.5c-.44-1.92-.68-3.07-1.12-5a3.79,3.79,0,0,0-.68-1.7,3.86,3.86,0,0,0-1.78-1c-1-.33-5.15-.87-5.75-1.68-.76-1,.56-1.24,1.5-2A44.1,44.1,0,0,0,7.74,10.6Z"/><path class="cls-2" d="M28.8,20.13c-1.74-2.53-3.54-5.51-5.88-7.53a36.78,36.78,0,0,0,3.44-9.17A.22.22,0,0,0,26,3.2a22.11,22.11,0,0,0-4.31,1.46A38.29,38.29,0,0,0,17.2,6.53a67.19,67.19,0,0,0-5.46-5.21A1.55,1.55,0,0,0,11.33,1L10.2.06A.22.22,0,0,0,10,0a.17.17,0,0,0-.19,0,9.92,9.92,0,0,0-1,1,3.69,3.69,0,0,0-.82,1.18.19.19,0,0,0,.06.2,26.39,26.39,0,0,0-.67,8.45c-.58.41-1.14.84-1.69,1.23-1.41,1-2.82,2-4.16,3.12a.35.35,0,0,0-.1.19.34.34,0,0,0-.09.12A2.44,2.44,0,0,0,0,16.69c-.07.16.05.27.19.29.77.9,2.55.9,3.63,1.24a41.1,41.1,0,0,0,4.51,1.22,24.18,24.18,0,0,0,2,7.61.22.22,0,0,0,.08.22,2.83,2.83,0,0,0,1.14.33,3.81,3.81,0,0,0,1.3.06.18.18,0,0,0,.14-.15,35.14,35.14,0,0,0,4.85-6.25c2.77.26,5.58.62,8.36.71a.2.2,0,0,0,.21-.19,3.6,3.6,0,0,0,.88-.27,4.64,4.64,0,0,0,1.41-.9.23.23,0,0,0,.06-.23A.18.18,0,0,0,28.8,20.13ZM8.37,2.37s0-.05,0-.08c.24-.26.43-.56.65-.83s.48-.53.73-.78a5.18,5.18,0,0,0-.17.56.75.75,0,0,0-.1.54C9,4.31,9.47,7.1,9.2,9.61a.37.37,0,0,0,0,.11,11.06,11.06,0,0,0-1.43.86A31.4,31.4,0,0,1,8.37,2.37ZM.57,16.73A2.43,2.43,0,0,1,1,16.25a5.46,5.46,0,0,1,.47-.31C4.2,16.62,7.15,18,10,18.23c-.58.25-1.15.51-1.72.78-1.32-.41-2.64-.85-4-1.27A29.29,29.29,0,0,1,.57,16.73ZM11.8,27.13c-.35-.06-.7-.19-1.05-.23-1.17-2.39-1.36-5-2-7.49,0,0,0-.05-.05-.08l1.55-.76c.5,1.69.72,3.43,1.08,5.15a7.88,7.88,0,0,0,1.27,3.51A6.59,6.59,0,0,1,11.8,27.13Zm1.44-1.26c-.44.08-.56-.43-.87-.65-.65-2.34-.71-4.82-1.61-7.1a.17.17,0,0,0,0-.13s0,0,0-.06a.28.28,0,0,0-.44-.12c-1.46-.5-3-.86-4.46-1.33a26.6,26.6,0,0,0-3.59-1c1.19-.91,2.38-1.81,3.6-2.69A24.6,24.6,0,0,0,9.68,9.89a.18.18,0,0,0,.06-.13.17.17,0,0,0,0-.1c.28-2.56.25-5.17.36-7.76.12-.17.19-.33.47-.29s.53.19.8.22C13.3,3.47,15.06,5.24,16.88,7a.31.31,0,0,0,.46.25C20,5.77,23,5,25.75,3.72a69.83,69.83,0,0,0-3.28,8.8.23.23,0,0,0,0,.34,70.78,70.78,0,0,1,4.63,5.88,1.31,1.31,0,0,0,.15.5,1.6,1.6,0,0,0,0,.38,2.38,2.38,0,0,0-.41.23c-2.68-.13-5.36-.37-8-.45a.25.25,0,0,0-.25,0h-.08a.25.25,0,0,0-.24.33c-1.48,1.76-2.61,3.77-4,5.57A2.51,2.51,0,0,1,13.24,25.87ZM27.16,21a12.92,12.92,0,0,0-1.29.4.31.31,0,0,0-.09.11c-2.5-.37-5.05-.55-7.57-.78l.52-.81a60.15,60.15,0,0,0,9.48.44A4.92,4.92,0,0,1,27.16,21Z"/></g></g></svg>