<svg xmlns="http://www.w3.org/2000/svg" viewBox="0 0 65.7 58.25"><defs><style>.cls-1{fill:#deb26d;}.cls-2{fill:#d0a165;}.cls-3{fill:#b58855;}.cls-4{fill:#260029;}</style></defs><g id="Layer_2" data-name="Layer 2"><g id="_"><path class="cls-1" d="M12.73.6C10.2,1,6.17,5.65,4.85,8.09a38.7,38.7,0,0,0-3,5.52,13.45,13.45,0,0,0-.64,4.85c0,3.89-1.73,8-.89,11.77A39.43,39.43,0,0,0,4,40.3c1.48,2.74,3.46,6.55,6.68,7.58a8.73,8.73,0,0,1,4,2.32c1.81,1.71,2.64,3.64,5.5,3.79,4.21.23,9.31-2.43,12.4-5C34.87,47,37.42,42.64,37,39.6c-.3-2.18-.88-4.81-2.38-6.5a21.79,21.79,0,0,0-4.4-3.66c-3.43-2.24-6.6-4.58-8.92-8-1.1-1.6-1.21-3.26-3.19-4.13-.81-.36-1.72-.43-2.18-1.38s0-1.7-.08-2.61c-.29-2.18-2.15-3.81-2.57-6-.33-1.74.93-5.21-.71-6.4Z"/><path class="cls-2" d="M15.74,51.92c2.74,2.65,6.5,3.23,10.18,4.14a44,44,0,0,0,11.94,1.19c1.82-.08,3.54-.77,5.32-.89s3-1.51,4.6-2.21a23.42,23.42,0,0,0,5-2.51c1.38-1.08,2.69-2.3,4-3.41a22.1,22.1,0,0,0,6.29-8.67c.6-1.38,4.18-9,1.3-9.5-1.21-.2-2.89,2.58-4.2,3a13.54,13.54,0,0,0-2.34.74,5.35,5.35,0,0,1-2.31.79c-1.07.09-1.56-.4-2.49-.59a9.79,9.79,0,0,0-2.72.33A14.39,14.39,0,0,1,44.38,34c-.83-.29-1.4-1.07-2.06-1.38a4,4,0,0,0-2.55-.06,10.15,10.15,0,0,1-5.59-.79c-.59-.25-1.81-1.34-2.37-.67-.3.34.24,2.48.32,3a14.52,14.52,0,0,1-.36,6.74c-1.14,3.62-4.81,5.62-8,7.37-2.35,1.29-4.93,2.91-7.61,3.23A1.06,1.06,0,0,0,16,52.65Z"/><path class="cls-2" d="M19.63,29.54c-1.79-1.05-2.15,2.84-1.91,3.66a4.07,4.07,0,0,0,3.44,3.18c4.41.23,2.15-6.71-1-7-.47-.05-.73,0-1,.37Z"/><path class="cls-2" d="M9.42,15.76c-1.83.39-1.76,2-1.27,3.36.16.49,1.36,3.61,1.69,3.61,1.05,0,.51-3.45.53-4,0-.69.3-1.58,0-2.21s-1-1.11-1.45-.49Z"/><path class="cls-2" d="M5.27,29.54c-1.59-1.76-1.74,2.07-1.59,2.78.22,1,.86,3.24,2.06,3.61,1.82.55,1.78-2.25,1.55-3.37C7,31,5.8,30.38,5.07,29.06Z"/><path class="cls-2" d="M11.28,46.44c-.22-.86-2.6-5.65-3.55-3.52-.62,1.4,2.17,3.91,3.43,3.5Z"/><path class="cls-3" d="M48,43.58c-.76-1.83.47-1.91,2-2.59s2.75-1.65,3.71.11c1.77,3.24-5.68,4.84-6.19,2.55Z"/><path class="cls-3" d="M35.52,51.27c-.13-1.58-3.78-1.51-5-1.75-1.71-.33-3.79-.36-4.53,1.5-1.42,3.56,6.51,4.08,8.71,3.32s1.37-1.75.69-3.31Z"/><path class="cls-3" d="M31.78,32.38c.47,0,.07,1.64.6,2.2a2.94,2.94,0,0,0,2.67.49c1.9-1.15-2.47-2.53-3.16-2.57Z"/><path class="cls-3" d="M41.8,35.7c-.85.9,2.06,2.4,3.09,1.69,1.84-1.27-1.77-2-2.69-2Z"/><path class="cls-3" d="M43.85,52.09c.6-1.24,4.44-2.26,3.14-.07-1,1.65-5.24,1.71-2.51-.22Z"/><path class="cls-3" d="M36.31,47c.89-1.34,4.14-3.51,5.38-1.14,1.14,2.16-4.35,1.39-5.34.68Z"/><path class="cls-4" d="M6.18,6.73A15,15,0,0,1,9.51,2.59c.65-.59,2.75-2.59,3.19-1,.54,2-.68,4.54.62,6.34a.27.27,0,0,0,.47-.15c0-1.58-.06-3.18-.06-4.76,0-.93.07-2.41-.93-2.9-1.21-.6-2.74.76-3.55,1.48C7.82,2.9,6.08,4.6,5.68,6.54,5.62,6.81,6.06,7,6.18,6.73Z"/><path class="cls-4" d="M17,17.9,17,18h.2c-.26-.21-.28-.6-.48-.86a.18.18,0,0,0-.31.1,1.47,1.47,0,0,0,.44,1.09.26.26,0,0,0,.29,0l.13-.11C17.37,18,17.18,17.8,17,17.9Z"/><path class="cls-4" d="M13.49,7.74a9,9,0,0,1-.11-1.38.17.17,0,0,0-.34,0,3.09,3.09,0,0,0,0,1.45C13.08,8.14,13.58,8.05,13.49,7.74Z"/><path class="cls-4" d="M63.81,29.24a20.89,20.89,0,0,0-2.54,2,8.87,8.87,0,0,1-1.5.92c-.6.27-1.25.35-1.82.67a.34.34,0,0,0,.11.65c2.12.39,5-2.24,6.08-3.84A.26.26,0,0,0,63.81,29.24Z"/><path class="cls-4" d="M19.44,54.33a4,4,0,0,0,1.17.33,6.38,6.38,0,0,0,1.13.2c.23,0,.4-.31.17-.44a2.81,2.81,0,0,0-1-.23,7.4,7.4,0,0,1-1.32-.29C19.31,53.8,19.19,54.2,19.44,54.33Z"/><path class="cls-4" d="M3.68,18.93a4.08,4.08,0,0,1,.25-1.62c.13-.29-.34-.46-.46-.17a4,4,0,0,0-.23,1.75C3.25,19.16,3.68,19.22,3.68,18.93Z"/><path class="cls-4" d="M9,4.47a3.51,3.51,0,0,1,1.28-1.54c.73-.45,1.2-.16,1.94,0a.2.2,0,0,0,.21-.31,1.78,1.78,0,0,0-2.15-.32,3.41,3.41,0,0,0-1.61,2A.18.18,0,0,0,9,4.47Z"/><path class="cls-4" d="M10.53,3.73a9.18,9.18,0,0,1,1.39,0A.19.19,0,0,0,12,3.34a1.75,1.75,0,0,0-1.59,0A.21.21,0,0,0,10.53,3.73Z"/><path class="cls-4" d="M7.48,45.33A35.25,35.25,0,0,1,.55,24c0-.31-.47-.36-.49,0A29.84,29.84,0,0,0,7.17,45.6C7.34,45.8,7.64,45.54,7.48,45.33Z"/><path class="cls-4" d="M.32,24.05C1.61,23.31,2,20,1,18.91A.22.22,0,0,0,.62,19c-.1.82.24,1.63.14,2.48s-.64,1.55-.7,2.35A.19.19,0,0,0,.32,24.05Z"/><path class="cls-4" d="M.92,19.17c.76-2.45,1.35-4.91,2.35-7.28a66.93,66.93,0,0,1,4.17-7.5.23.23,0,0,0-.38-.27,29,29,0,0,0-6.53,15C.51,19.3.85,19.39.92,19.17Z"/><path class="cls-4" d="M7,45.24c.84,1.24,2.14,3.2,3.55,3.84.91.42,1.92.36,2.84.85a5.69,5.69,0,0,1,3,3.77.33.33,0,0,0,.65-.12,6.37,6.37,0,0,0-3.27-4.24c-1.18-.67-2.73-.7-3.81-1.53s-1.73-2-2.64-2.83A.2.2,0,0,0,7,45.24Z"/><path class="cls-4" d="M16.6,53.91c7.74,4,16.82,5.8,25.25,3,.24-.08.11-.47-.13-.42-9,1.92-16.56.44-24.93-3.09C16.45,53.25,16.28,53.75,16.6,53.91Z"/><path class="cls-4" d="M45.88,55.56C52.18,53.75,59,47.65,62.16,42c.89-1.59,6.21-13.49,1.84-12.88a.3.3,0,0,0,0,.59c1.46,0-.85,7.7-1.12,8.48a20.82,20.82,0,0,1-5,7.79A42.17,42.17,0,0,1,45.74,55.1C45.5,55.22,45.61,55.63,45.88,55.56Z"/><path class="cls-4" d="M57.87,33a5.27,5.27,0,0,1-2,1.12,5.13,5.13,0,0,1-2.41-.48c-.25-.07-.5.22-.31.43a3.31,3.31,0,0,0,2.58.75,3.9,3.9,0,0,0,2.47-1.41A.27.27,0,0,0,57.87,33Z"/><path class="cls-4" d="M53.47,33.74c-3.09-.1-8.86,1.27-11.14-1.34a.33.33,0,0,0-.51.42c1.2,1.59,2.35,1.65,4.28,1.68a40.42,40.42,0,0,0,7.38-.29C53.74,34.17,53.74,33.75,53.47,33.74Z"/><path class="cls-4" d="M42.19,32.31a8.36,8.36,0,0,0-1.94-.49c-.34-.07-.48.53-.13.61a7.78,7.78,0,0,0,2,.3A.22.22,0,0,0,42.19,32.31Z"/><path class="cls-4" d="M38.54,32.91a2.51,2.51,0,0,0,1.68-.47c.17-.15,0-.51-.2-.43-.51.16-1,.32-1.55.5A.21.21,0,0,0,38.54,32.91Z"/><path class="cls-4" d="M38.77,32.47c-8.41-3-13.87-7.33-19.34-14.29a.28.28,0,0,0-.46.3c3.62,7.14,11.89,13,19.7,14.45C38.93,33,39,32.56,38.77,32.47Z"/><path class="cls-4" d="M19.36,18.14c-.43-.51-1.23-1.17-1.95-1-.2.05-.31.34-.11.46a6.61,6.61,0,0,0,.85.3,3.81,3.81,0,0,1,.9.57C19.25,18.66,19.52,18.34,19.36,18.14Z"/><path class="cls-4" d="M17.56,17.16c-.26-.37-.52-.76-.75-1.16a4,4,0,0,0-.6-1c-.15-.15-.48-.11-.48.15a2.3,2.3,0,0,0,.55,1.27,4.69,4.69,0,0,0,1,1.1C17.47,17.67,17.69,17.36,17.56,17.16Z"/><path class="cls-4" d="M16.19,15.46a2.37,2.37,0,0,0,.43-1.8c-.07-.25-.49-.36-.57-.05-.12.54-.11,1.1-.27,1.63C15.7,15.48,16,15.7,16.19,15.46Z"/><path class="cls-4" d="M16.61,13.72c-.52-1.28-1.19-2.48-1.81-3.71a22.72,22.72,0,0,1-1.22-3.44.25.25,0,0,0-.46,0,4.91,4.91,0,0,0,.74,3.31A38.49,38.49,0,0,0,16.16,14C16.33,14.28,16.72,14,16.61,13.72Z"/><path class="cls-4" d="M41.39,57c1-.19,2.08.21,3.06-.09.8-.24,1.25-1.06,1.85-1.6a.2.2,0,0,0-.11-.34c-.92,0-1.15,1-1.94,1.33-1,.34-2-.23-3,.33A.2.2,0,0,0,41.39,57Z"/><path class="cls-4" d="M4,32.2a8.7,8.7,0,0,0,.84,3.58c.37.7,1.05,1.7,1.94,1.75,2.32.13,1.2-4,.8-5-.07-.17-.39-.13-.38.07a10.88,10.88,0,0,0,.33,2,3,3,0,0,1,.09,1.56c-.28.82-1.14.73-1.66.14a8.09,8.09,0,0,1-1.49-4.22C4.39,31.8,4,31.9,4,32.2Z"/><path class="cls-4" d="M6.55,31A2.19,2.19,0,0,0,4.72,29.4a.25.25,0,0,0-.23.1,4.62,4.62,0,0,0-.59,1.2.2.2,0,0,0,.33.16,4.2,4.2,0,0,0,.67-1.07l-.23.11A1.57,1.57,0,0,1,6.18,31C6.25,31.25,6.62,31.19,6.55,31Z"/><path class="cls-4" d="M6.23,38.22a1.42,1.42,0,0,0,2.14.4c1-.66,1-2.35.55-3.31a.18.18,0,0,0-.33.06c-.06.88.37,1.81-.2,2.62-.4.55-1.48.81-1.84.08A.18.18,0,0,0,6.23,38.22Z"/><path class="cls-4" d="M8.79,33.82A20.87,20.87,0,0,0,7.49,30a.17.17,0,0,0-.32.11,20,20,0,0,0,1.26,3.81C8.5,34.13,8.85,34,8.79,33.82Z"/><path class="cls-4" d="M9.15,20.81a9.17,9.17,0,0,1-.77-2.32c-.15-1-.19-.9.86-1.34.62-.62,1-.61,1.12,0a1.68,1.68,0,0,1,.22,1.14c0,.6-.16,1.2-.14,1.8,0,.37.73,3-.46,2.63-.3-.08-.47.36-.17.46,1.23.43,1.56-.92,1.36-1.86a23.16,23.16,0,0,1-.09-3.43,2.6,2.6,0,0,0-.52-1.48,1.43,1.43,0,0,0-2.31,0c-1,1.26-.07,3.36.54,4.58A.2.2,0,0,0,9.15,20.81Z"/><path class="cls-4" d="M11.77,21.56A5.44,5.44,0,0,0,12,18.68c-.05-.18-.34-.2-.35,0a17.6,17.6,0,0,1-.21,2.8C11.39,21.68,11.72,21.75,11.77,21.56Z"/><path class="cls-4" d="M17.33,32.88c.59,1.8,1.65,3.77,3.63,4.28a2.9,2.9,0,0,0,3.36-1.38c.8-1.64-.52-3.56-1.65-4.67-.86-.84-2.58-2.31-3.79-1.35a.25.25,0,0,0,.27.41c1.23-.63,2.81,1,3.5,1.81.89,1.08,2,2.95.66,4.16-2.51,2.23-4.81-1.55-5.59-3.45C17.62,32.43,17.25,32.62,17.33,32.88Z"/><path class="cls-4" d="M17.64,29.88l-.07-.08V30c.06-.08.08-.19.14-.27a1.07,1.07,0,0,1,.65-.35,8.36,8.36,0,0,1,1,0,.22.22,0,0,0,.09-.39c-.64-.55-2.24-.09-2.3.83a.27.27,0,0,0,.11.23.65.65,0,0,1,.15.1C17.57,30.25,17.75,30,17.64,29.88Z"/><path class="cls-4" d="M18.11,31.84a1.44,1.44,0,0,1,.45-1c.14-.16-.08-.33-.24-.28a1.12,1.12,0,0,0-.63,1.32C17.73,32.08,18.11,32.08,18.11,31.84Z"/><path class="cls-4" d="M24,38c2.12-1.62,2.12-5.47-.67-6.47a.2.2,0,0,0-.18.35A4,4,0,0,1,25,34.27a3.68,3.68,0,0,1-1.25,3.4A.18.18,0,0,0,24,38Z"/><path class="cls-4" d="M30.52,33.36a4.57,4.57,0,0,0,4.95,2.26,1.11,1.11,0,0,0,.85-1.4,2.14,2.14,0,0,0-1.77-1.36c-.19,0-.29.25-.13.35l.46.23a2.37,2.37,0,0,1,.78.52l-.11,1.13c-.35.34-1.59.11-2,0a5.73,5.73,0,0,1-2.73-1.91A.17.17,0,0,0,30.52,33.36Z"/><path class="cls-4" d="M30.79,33.3l-.21-.87-.13.26a3.09,3.09,0,0,1,.86-.14c.22,0,.2-.31,0-.39a1.36,1.36,0,0,0-1.11.1.25.25,0,0,0-.12.32l.32.83C30.51,33.6,30.83,33.5,30.79,33.3Z"/><path class="cls-4" d="M26.27,53.65c2.5,1.81,7.2,3.3,10,1.18A2.11,2.11,0,0,0,37,52.05c-.85-1.59-3-1.72-4.58-1.81-.19,0-.28.29-.08.35.91.24,2.86.38,3.4.95.77,2.1.34,3.25-1.31,3.44a11.14,11.14,0,0,1-1.29.19,10.55,10.55,0,0,1-6.62-1.86A.21.21,0,0,0,26.27,53.65Z"/><path class="cls-4" d="M26.17,52.48A2.34,2.34,0,0,1,28,50.2a5.69,5.69,0,0,1,3.13.32.23.23,0,0,0,.16-.43c-2-1-5.69-.55-5.47,2.41C25.79,52.72,26.17,52.71,26.17,52.48Z"/><path class="cls-4" d="M16.61,45.06a1.83,1.83,0,0,0,3,.25c.66-.86.22-2.77-1-2.81-.17,0-.3.24-.13.34a1.89,1.89,0,0,1,.89.81A1.38,1.38,0,0,1,19.24,45a1.48,1.48,0,0,1-2.37-.13C16.77,44.73,16.52,44.9,16.61,45.06Z"/><path class="cls-4" d="M48.43,44.67c2.1.63,6,.2,5.82-2.85a2.38,2.38,0,0,0-1.71-2.11c-1.12-.26-2.62.72-3.49,1.32-.2.14,0,.4.22.34.83-.27,1.56-.86,2.4-1.08a1.72,1.72,0,0,1,2,2.3c-.73,2.15-3.34,2-5.13,1.75C48.31,44.32,48.24,44.62,48.43,44.67Z"/><path class="cls-4" d="M47.88,43.66a1.29,1.29,0,0,1,0-1.26c.22-.44.58-.53.94-.78.16-.11,0-.33-.11-.36-.57-.11-1.1.5-1.3,1a1.72,1.72,0,0,0,.14,1.67C47.66,44.09,48,43.87,47.88,43.66Z"/><path class="cls-4" d="M37.28,46.75a2.47,2.47,0,0,1,2.38-1.64c1.12.09,1.58.89,2.11,1.74.1.15.41.16.4-.07a2.64,2.64,0,0,0-2.59-2.25,2.75,2.75,0,0,0-2.73,2.12C36.79,46.92,37.18,47,37.28,46.75Z"/><path class="cls-4" d="M43,36.61c.57.65,1.9,1.18,2.64.47s-.54-1.36-1.15-1.29c-.27,0-.21.39,0,.43a2.1,2.1,0,0,1,.62.16c.2.1.28.29.07.47a1,1,0,0,1-.41.1,1.85,1.85,0,0,1-1.51-.56C43.1,36.23,42.84,36.44,43,36.61Z"/><path class="cls-4" d="M26.32,54.73c2.78,2.09,7.32,2.84,10.38.9.16-.1.11-.42-.11-.36-3.69,1-6.62,1.19-10.05-.86A.19.19,0,0,0,26.32,54.73Z"/><path class="cls-4" d="M38.43,53.74a2.37,2.37,0,0,0-.86-2.88.19.19,0,0,0-.25.28,2.9,2.9,0,0,1,.7,2.45C38,53.86,38.34,54,38.43,53.74Z"/><path class="cls-4" d="M33.94,49.4c-1.31-.19-2.61-.55-3.92-.72a.17.17,0,0,0-.08.32,15.31,15.31,0,0,0,4,.75A.18.18,0,0,0,33.94,49.4Z"/><path class="cls-4" d="M22.62,30a3.36,3.36,0,0,0-.93-.83.2.2,0,0,0-.27.3,3.87,3.87,0,0,0,.87.89A.25.25,0,0,0,22.62,30Z"/><path class="cls-4" d="M27.26,28.51a52,52,0,0,1-3.94-3.62c-1.13-1.18-2.05-2.54-3.17-3.72-.15-.16-.45,0-.34.21A24.43,24.43,0,0,0,27,28.83C27.24,29,27.44,28.67,27.26,28.51Z"/><path class="cls-4" d="M19.5,21.64a4.83,4.83,0,0,0-.67-1.11c-.12-.12-.39,0-.33.16a4.32,4.32,0,0,0,.64,1.12C19.27,22,19.62,21.88,19.5,21.64Z"/><path class="cls-4" d="M19.28,19.79a6.65,6.65,0,0,0-1.2-1.11.19.19,0,0,0-.25.28A6.92,6.92,0,0,0,19,20.07C19.15,20.25,19.48,20,19.28,19.79Z"/><path class="cls-4" d="M31.12,35.33c1.43,1.5,4.36,2.09,6.14.89.14-.09,0-.33-.14-.3a7.9,7.9,0,0,1-2.85.39A6.25,6.25,0,0,1,31.39,35C31.21,34.91,31,35.16,31.12,35.33Z"/><path class="cls-4" d="M32.53,31.94a2.63,2.63,0,0,0,1.72.62.19.19,0,0,0,0-.35,5.9,5.9,0,0,1-1.52-.61A.21.21,0,0,0,32.53,31.94Z"/><path class="cls-4" d="M43.25,37.47c-.51-.47-1-.93-1.49-1.43l0,.21A1.1,1.1,0,0,1,43,35.49c.21,0,.23-.36,0-.42a1.36,1.36,0,0,0-1.58.9c-.11.37.19.54.44.79a12.57,12.57,0,0,0,1.17,1C43.23,37.93,43.43,37.63,43.25,37.47Z"/><path class="cls-4" d="M42.93,36a2.06,2.06,0,0,0,.89,0c.14-.05.21-.29,0-.34a2.08,2.08,0,0,0-.93,0A.18.18,0,0,0,42.93,36Z"/><path class="cls-4" d="M47.69,41.21A4.5,4.5,0,0,0,50,40a3,3,0,0,1,4.14.17c.2.17.44-.13.29-.32a3.09,3.09,0,0,0-2.89-1.13c-1.55.22-2.4,1.72-3.87,2.12A.19.19,0,0,0,47.69,41.21Z"/><path class="cls-4" d="M46.22,43A3.7,3.7,0,0,0,52,45.3a.19.19,0,0,0-.2-.31c-2.29,1.08-4.38.34-5.27-2.06C46.49,42.74,46.19,42.85,46.22,43Z"/><path class="cls-4" d="M58.11,40.07a1.09,1.09,0,0,0,1.12-1.6c-.36-.57-1.71-.77-1.84.1a.21.21,0,0,0,.3.2c.34-.16.61-.44,1-.19.59.37,0,1.17-.56,1.1A.2.2,0,0,0,58.11,40.07Z"/><path class="cls-4" d="M44.68,53.75c1-.23,3.92-1,3.16-2.65s-3.3.4-3.94,1.08c-.25.26.09.69.37.44a7.27,7.27,0,0,1,1.24-1c.36-.21,1.55-.93,1.87-.34.61,1.1-2.15,1.86-2.78,2C44.34,53.39,44.41,53.81,44.68,53.75Z"/><path class="cls-4" d="M10.29,46.58A6.26,6.26,0,0,1,8.82,45a4.67,4.67,0,0,1-.41-.84c-.23-.65.39-.32.68-.12a6.15,6.15,0,0,1,2.32,3.35c.1.31.59.25.52-.09a6,6,0,0,0-1.47-2.83c-.47-.51-1.4-1.5-2.18-1.39S7.77,44.11,8,44.6A5.23,5.23,0,0,0,10,47,.24.24,0,0,0,10.29,46.58Z"/><path class="cls-4" d="M56.83,46.34C58.54,45,60.66,43,61.18,40.79a.22.22,0,0,0-.39-.2c-.67.87-1.1,1.92-1.77,2.8a17.09,17.09,0,0,1-2.43,2.67A.18.18,0,0,0,56.83,46.34Z"/><path class="cls-4" d="M61.84,39.51a1.54,1.54,0,0,0,.2-.65.22.22,0,0,0-.37-.19,1.88,1.88,0,0,0-.4.63C61.1,39.65,61.68,39.86,61.84,39.51Z"/><path class="cls-4" d="M62.59,37.53q.24-.75.45-1.5a4.74,4.74,0,0,0,.3-1.38c0-.18-.26-.33-.38-.14a5.13,5.13,0,0,0-.48,1.43c-.14.49-.25,1-.37,1.48C62.05,37.69,62.51,37.79,62.59,37.53Z"/><path class="cls-4" d="M62.61,32.31c.31-.14.44.27.54.46a.23.23,0,0,0,.4,0,.63.63,0,0,0-.2-.85.75.75,0,0,0-.93-.05A.23.23,0,0,0,62.61,32.31Z"/><path class="cls-4" d="M54.11,36c1.37.27,3.48-.06,4.14-1.5a.22.22,0,0,0-.3-.27,13.37,13.37,0,0,1-1.6,1,4.17,4.17,0,0,1-2.21.32C53.88,35.54,53.86,35.92,54.11,36Z"/><path class="cls-4" d="M58.71,34.26a1.12,1.12,0,0,0,.3-.35.25.25,0,0,0-.37-.34,1.44,1.44,0,0,0-.32.33C58.12,34.14,58.48,34.46,58.71,34.26Z"/><path class="cls-4" d="M51.23,35.29A1.18,1.18,0,0,1,52.37,35c.38.1.57.37.87.59a.21.21,0,0,0,.33-.21c-.07-.52-.65-.81-1.12-.88A1.7,1.7,0,0,0,51,35C50.85,35.18,51.06,35.45,51.23,35.29Z"/><path class="cls-4" d="M15,14.47A3.81,3.81,0,0,0,13.94,11c-.15-.12-.36.07-.28.24a10.18,10.18,0,0,1,.72,1.44,4.86,4.86,0,0,1,.19,1.74A.24.24,0,0,0,15,14.47Z"/><path class="cls-4" d="M2.36,20.26c-.71-2.15.38-3.74.72-5.77,0-.22-.28-.32-.4-.15A6.69,6.69,0,0,0,2,20.44C2.09,20.7,2.45,20.52,2.36,20.26Z"/><path class="cls-4" d="M1.26,26.59A3,3,0,0,1,1.7,24c.12-.2-.12-.46-.31-.29a2.9,2.9,0,0,0-.53,3C.94,26.94,1.33,26.82,1.26,26.59Z"/></g></g></svg>