<svg xmlns="http://www.w3.org/2000/svg" viewBox="0 0 77.29 37.47"><defs><style>.cls-1{fill:#f2c45d;}.cls-2{fill:#ed6c45;}.cls-3{fill:#df71a0;}.cls-4{fill:#ffd67c;}.cls-5{fill:#260029;}</style></defs><g id="Layer_2" data-name="Layer 2"><g id="_"><path class="cls-1" d="M23.36,17.38c-3.69-5.6,4.2-11.56,9-12.13,2.9-.35,5.87-.1,8.72-.63A35.78,35.78,0,0,0,50,2c-3.27,3.18-8.09,5-9.23,7.49,5.94-2.35,10.61.93,16.41,2.28,2.92.69,6.22,1.73,9.33,1.28,2.93-.42,4.33-.4,6.77-1.19-5.48,8-11.13,8-19.51,10.88,2.17,1.92,5.25,4.27,8,3.25-2.72,3.39-10.06,4-14.26,3.56-3.65-.42-8.74-3-12-2.23,1.69,1.9,3.6,4.63,5.9,5.54-5.1,1.56-10.67-3.13-15.66-4-3.19-.57-5.85,0-6.22-4-.36-3.86,1.53-6.33,4.53-8.32Z"/><path class="cls-2" d="M23.2,16.11c1.47-3.37,8.27-5.06,11.78-4.34-.87,1.28-2.54,2.94-3.5,4.17,5.75-5.14,15.2,1.65,21.67-.83-3.64,2.25-11.2,3.72-15.24,3.74,1.44.83,3.36,2,4.07,3.59A33.59,33.59,0,0,1,30.78,24C29.2,20.9,24.11,19.44,23,16.35Z"/><path class="cls-3" d="M5.46,9.76c1.47-.76,4.73.94,10.24,3.06,1.61-2.25,6.15-5.47,9.45-7.06.57,1.14-2.07,9.37-2,11.75,2.15,3.6,5.79,3.42,7.85,7-2.36,1.79-6.66,1.24-9.61,1.58a72.22,72.22,0,0,1-2.23,10.07c-1-1.61-4.61-8.29-6.19-8.75-4-1.15-8.63,1.37-10.29,1.9C-.66,27.68,8.21,21.64,9,19.42,7.31,16.19,4.91,12.3,5.46,9.76Z"/><path class="cls-4" d="M66.55,13c-3.11.45-6.41-.59-9.33-1.28C51.42,10.37,45.9,8.11,40,10.46,41.11,8,46.77,5.13,50,2a35.78,35.78,0,0,1-8.91,2.67c-2.85.53-5.82.28-8.72.63a9.64,9.64,0,0,0-7.76,5l-.82,2.12c4.11-4.1,9.46-5.08,15.23-4.85a25,25,0,0,0-4.45,4.76c4.15-1.57,10-1,14.16,0,4.66,1.14,7.84,5,12.88,4.62a85.47,85.47,0,0,0-9.15,4.95,8.72,8.72,0,0,0,2.17.76c7.26-2.29,13.8-3.81,18.65-10.86C70.88,12.6,69.48,12.58,66.55,13Z"/><path class="cls-5" d="M76.87,8.6l.1-.17c.2-.4-.49-.76-.71-.36s-.48.86-.74,1.28c-6.92,4.41-13.24,2.1-20.8,0C50,8,45.08,7,40.5,9.46a.41.41,0,0,0,.35.73c10.82-4.73,22.7,6.84,33,1.58-4.95,6.3-12.2,8.93-20.33,10.64a.43.43,0,0,0-.17.77c1.95,1.32,3.86,1.64,6,2.55,1.83.78,2.88.59-.91,2.54a12.12,12.12,0,0,1-6,1.3C47,29.4,42.1,27.16,36.65,27.32a.39.39,0,0,0-.33.63c.61.72,4.84,4.83,4.75,5-.75,1.47-7.64-1.42-8.63-1.82-3.69-1.49-7-2.95-10.92-2.61.08-.54.16-1.07.21-1.62a62.83,62.83,0,0,0,7.72-1.18,1.45,1.45,0,0,0,.94-.22c.39-.09.79-.17,1.17-.28a.54.54,0,0,0,.42-.47c3.81.32,6.77-1.19,10.77-1.73a.42.42,0,0,0,.16-.75c-.22-.15-3.29-2.83-3.76-3.24a18.61,18.61,0,0,0,3,.2c3.95-.3,7.59-1.83,11.17-3.4.5-.22.2-.87-.27-.85-5.42.31-10.65-1.75-16-1.49a10.82,10.82,0,0,0-3.39.53c1-1.16,2.43-2.8,1.95-2.29a.48.48,0,0,0-.39-.84c-3.54.17-8.48.84-11,3.72.26-1.22.5-2.45.81-3.63l.06-.26c3.76-6,8.66-6.2,15.63-6.48a21.54,21.54,0,0,0,8.21-1.63A15.69,15.69,0,0,1,46,5.27c-1.81,1.27-3.77,2.34-5.64,3.52-.31.19-.08.71.25.52,3.7-2.09,8.33-4,10.43-7.92.33-.23.66-.47,1-.74s0-.83-.39-.6L51.19.3a.4.4,0,0,0-.52.08c-.09.13-.18.25-.28.37-8.29,4.33-19,.31-24.81,7.57a11.8,11.8,0,0,0,.18-3.09.5.5,0,0,0-.14-.29.56.56,0,0,0-.85-.25C22.8,6,21,7.5,18.94,8.8c-1.17.76-3.19,1.73-4.11,3-1.9-.74-3.81-1.46-5.73-2.13-1.24-.44-3-1.2-4.44-1a.54.54,0,0,0-.86.51c.08.38.18.75.29,1.13,0,0,0,0,0,.06l.05.17a2.24,2.24,0,0,0,0,.52,4.54,4.54,0,0,0,.55,1.23.42.42,0,0,0,.13.16C5.78,14.58,7,16.63,8,18.69c-1.41,1.69-2.71,3.51-4.09,5.24A38,38,0,0,0,.86,28l-.06.11c-.17.32-.35.65-.5,1a.37.37,0,0,0,0,.73c3.82.29,8.37-1,12.09-2A22.57,22.57,0,0,0,15,32.1a45.73,45.73,0,0,0,3.84,5.24c.29.31.86,0,.75-.37a15,15,0,0,0,1.1-4c.24-1.21.51-2.42.74-3.63C28.73,28.88,35,34.66,42.55,34c.48,0,.49-.64.2-.89-.63-.56-4.38-3.37-4.66-4.51s1.89-.52,3.14-.29c2.85.51,5.61,1.45,8.47,1.95a13.68,13.68,0,0,0,13-4.14.54.54,0,0,0-.3-.94c-.47-.05-7.84-.87-7.36-2.25.12-.35,3.34-.75,4-.92a37.79,37.79,0,0,0,7.78-2.92,22.33,22.33,0,0,0,9-8.57,15,15,0,0,0,1.34-1.12A.47.47,0,0,0,76.87,8.6ZM32.06,12.16c3.58-.59,1.14,1.14-.83,3.29a.45.45,0,0,0,.59.69c4.75-3.51,11.43-1,16.73-.38.3,0,1.78.05,2.66.11a3.55,3.55,0,0,0-.82.26,22.62,22.62,0,0,1-12.59,2,.43.43,0,0,0-.29.78c.31.21,4,2.85,3.84,3.28a6.78,6.78,0,0,1-1.78.65,21,21,0,0,1-8.12,1.06,2.33,2.33,0,0,0-.17-.26,1.11,1.11,0,0,0-.67-.76,25.23,25.23,0,0,0-2.22-1.83c-1.61-1.26-3.29-2.41-4.78-3.82a.47.47,0,0,0-.09-.06c.06-.2.11-.42.16-.62C25.43,13.75,29,12.67,32.06,12.16ZM20.51,26.42c-.06.77-.17,1.53-.3,2.29a.34.34,0,0,0-.12.61,63.69,63.69,0,0,0-1.22,6.51c-.78-1.22-1.62-2.4-2.41-3.6-1.07-1.65-2-3.67-3.42-5a.46.46,0,0,0-.53-.35c-2,.25-4,.86-5.95,1.27-1.37.28-2.75.46-4.13.66a.49.49,0,0,0-.35-.26l-.08,0a1.77,1.77,0,0,0,0-.32c1-1.32,1.88-2.67,2.88-4,1.29-1.65,2.76-3.23,3.93-5a.39.39,0,0,0,.23-.34.44.44,0,0,0-.17-.66c-.73-2.45-2.25-4.57-3.26-6.92a.13.13,0,0,1,0-.06,4.93,4.93,0,0,1,0-.69s0,0,0-.07-.08,0,0,0,0-.11,0,0a2.44,2.44,0,0,0,.76,0,.7.7,0,0,0,.36-.19A21.59,21.59,0,0,1,9.25,11a43.49,43.49,0,0,0,5.44,2,.62.62,0,0,0,.75-.39c.65-.39,1.24-1,1.83-1.39,1.13-.79,2.3-1.5,3.45-2.24a29.6,29.6,0,0,0,3.86-2.52,34.81,34.81,0,0,1-1.33,6.25c-.39,1.51-1,3.2-.57,4.75a.41.41,0,0,0,.12.47,47.89,47.89,0,0,0,4.13,3.38c.92.69,1.78,1.57,2.67,2.36a.66.66,0,0,0,.12.38,3,3,0,0,0-.64.59c-2.53.52-5.09.85-7.65,1.26A.62.62,0,0,0,20.51,26.42ZM62.94,2.94A1.08,1.08,0,0,0,63.5,3a1.12,1.12,0,0,0,.87-1c0-.16,0-.33,0-.49A1.11,1.11,0,0,0,63.27.34a1.12,1.12,0,0,0-1.06,1.29l.06.5A1,1,0,0,0,62.94,2.94Z"/></g></g></svg>