<svg xmlns="http://www.w3.org/2000/svg" viewBox="0 0 51.5 42.52"><defs><style>.cls-1{fill:#b95f81;}.cls-2{fill:#5fb3b6;}.cls-3{fill:#260029;}</style></defs><g id="Layer_2" data-name="Layer 2"><g id="_"><path class="cls-1" d="M1.09,34.34a4.78,4.78,0,0,0-.64,3.15,3.38,3.38,0,0,0,2.66,2.23,9.93,9.93,0,0,0,3.64-.14l14.58-2.37a26.94,26.94,0,0,0,4.26-.92A21.53,21.53,0,0,0,30.25,34,96.51,96.51,0,0,0,40.78,26c3.62-3,7.32-6.1,9.63-10.2a4.82,4.82,0,0,0,.8-3.16c-.33-1.73-2.21-2.69-3.94-3-3.24-.61-6.58.11-9.77,1-10.73,2.89-23,6.77-30.68,15.24A36.35,36.35,0,0,0,1.09,34.34Z"/><path class="cls-2" d="M13.27,20.89a9.63,9.63,0,0,1,2.34-6.8,13.63,13.63,0,0,1,4.65-2.82,8.87,8.87,0,0,1,3.25-.9,8.89,8.89,0,0,1,3.23.74,14.78,14.78,0,0,1,4.77,2.4,5.06,5.06,0,0,1,1.9,4.75,6.33,6.33,0,0,1-1,2.07,19.15,19.15,0,0,1-11.83,7.73c-1.68.35-4.48,1-5.82-.4S13.3,22.67,13.27,20.89Z"/><path class="cls-3" d="M51.38,14.17c.28-3.95-4.22-4.83-7.65-4.78a38.08,38.08,0,0,0-8.42,1.19c-1.49.36-3.84.7-5.2,1.69a11.69,11.69,0,0,0-6.56-2.4,20.9,20.9,0,0,0-.75-6.64A.5.5,0,0,0,22.63,3a1.11,1.11,0,0,0,.57-.83,1.5,1.5,0,0,0-.15-.7A1.45,1.45,0,0,0,22.9.81a.35.35,0,0,0-.23-.34,1.47,1.47,0,0,0-1-.47,2,2,0,0,0-2,1.26A1.25,1.25,0,0,0,20,2.52a2.21,2.21,0,0,0,.66.48.49.49,0,0,0,.56.4c.17,0,.36-.06.55-.11a.48.48,0,0,0,0,.12,26.63,26.63,0,0,1,.74,6.46,11,11,0,0,0-2.25.36,8.9,8.9,0,0,0-6,4.84,39.5,39.5,0,0,0-3.79-1.53.39.39,0,0,0-.15,0,.46.46,0,0,0,.13-.18c.29-.74-1-1.78-1.43-2.24a.59.59,0,0,0-.51-.17c-1.07-.82-2.66.07-3.17,1.2a2,2,0,0,0,.1,1.93,2,2,0,0,0,.93.72.49.49,0,0,0,.32.4l.57.19h.12c.57.18.95.25,1.36-.36l0-.06a1.38,1.38,0,0,0,1-.56.94.94,0,0,0,.15-.28.45.45,0,0,0,.27.27c1.27.46,2.5,1,3.72,1.57a13.78,13.78,0,0,0-.82,4.38.44.44,0,0,0-.16.06C8.56,23.52-6.2,35.81,2.92,40.85a.62.62,0,0,0,.59,0,.39.39,0,0,0,.17.11c19.2,6.47,41.8-8.08,47.8-26.4A.35.35,0,0,0,51.38,14.17ZM20.76,1.77c-.1-.13-.07-.15-.05-.19a.51.51,0,0,1,.17-.24A3,3,0,0,0,20.76,1.77Zm1.51.05a.27.27,0,0,0-.11-.05.36.36,0,0,0-.4.13,1.33,1.33,0,0,1,0-.19c0-.06.05-.11.07-.16a.51.51,0,0,0,.25-.16s0,0,0,.06S22.24,1.69,22.27,1.82Zm-14.38,10a1.6,1.6,0,0,0-.29-.19,1.46,1.46,0,0,1,.36,0ZM10,13.68V13.6h.08A.27.27,0,0,0,10,13.68Zm5,2.79c1.53.74,3,1.52,4.57,2.26.33.17.6-.36.29-.57a41.76,41.76,0,0,0-4.48-2.58,7.81,7.81,0,0,1,5.36-4.23,9.76,9.76,0,0,1,2.16-.3.59.59,0,0,0,.23,0c4.45,0,8.14,3.06,10.3,7-2,4.47-6.12,8.27-10.76,9.15a.48.48,0,0,0-.52-.2c-.43.11-.85.25-1.26.39a10.47,10.47,0,0,1-5.51-1.43.63.63,0,0,0-.39-.08A16.14,16.14,0,0,1,15,16.47ZM7.91,39.28l0-.06.58,0Zm1.95,1H10a.83.83,0,0,0,.3.14Zm10.49-2.22-.3.06a.82.82,0,0,0-.22,0c.3-.07.6-.13.9-.21ZM50.27,12.83a9.61,9.61,0,0,1-.23,1,.25.25,0,0,0-.27.1C44.22,21.11,37.66,26,30.05,30.79a.3.3,0,0,0,.26.55,33.92,33.92,0,0,0,7.09-3.95l-.63.52c-1.54,1.09-3.05,2.24-4.51,3.44Q28,33.67,23.57,35.6c-.93.27-1.86.51-2.8.74a33.5,33.5,0,0,0,4.7-2.27c.34-.2.1-.73-.26-.56-6.79,3.34-13.91,4.23-21.27,5.1a2.59,2.59,0,0,0-1.11,0l-.05,0a2.14,2.14,0,0,0-.56-.11.47.47,0,0,0-.17,0c-4.16-4.8,7.72-13.5,11-17.25a20.44,20.44,0,0,0,.54,4.05.65.65,0,0,0-.52.65c-1.83,1.66-4.44,5.27-1,6,2.5.56,5.45-.66,7.75-1.5a31.91,31.91,0,0,0,9.08-4.76l0-.05a12.57,12.57,0,0,0,5.49-8.18.39.39,0,0,0-.59-.38,11.62,11.62,0,0,0-2.75-4.09c4.91-1,17.08-5.62,19.2-.46A.34.34,0,0,0,50.27,12.83ZM27.42,21.66a4,4,0,0,0,4.07-2.37c.54-1.7-.34-3.86-2.08-3.94A.34.34,0,0,0,29.3,15c-1.11-.77-3.11.17-3.85,1.1a3.69,3.69,0,0,0-.55,3.4A3.12,3.12,0,0,0,27.42,21.66ZM29.26,16l-.06,0L29,16A.83.83,0,0,1,29.26,16Zm-.89-.27a.43.43,0,0,0,0,.07.75.75,0,0,0-.15,0l0-.06Zm-2.69,2.33c0,.14,0,.28,0,.42A3,3,0,0,1,25.68,18.06Z"/></g></g></svg>