<svg xmlns="http://www.w3.org/2000/svg" viewBox="0 0 77.27 48.24"><defs><style>.cls-1{fill:#6791b1;}.cls-2{fill:#50778d;}.cls-3{fill:#260029;}</style></defs><g id="Layer_2" data-name="Layer 2"><g id="_"><path class="cls-1" d="M.84,27.12a6.76,6.76,0,0,1,6.78-5.38A14.42,14.42,0,0,1,20.78,11.55a12,12,0,0,1,3.85-6.37C27.5,2.38,30.45.61,34.45.37s9,1.48,10.3,5.27a31.42,31.42,0,0,1,7.81-1,10.54,10.54,0,0,1,7.16,2.87,12.9,12.9,0,0,1,3,6.88,6.65,6.65,0,0,0,.55,2c.64,1.2,2,1.81,3,2.73,1.83,1.67,2.5,4.28,4.18,6.1s4,2.65,5.35,4.63a5.56,5.56,0,0,1-1.15,7.17c-2,1.55-4.68,1.55-7.08,2.23s-4.8,2.25-7.3,3.15a15.78,15.78,0,0,1-12.06-.66,15.84,15.84,0,0,1-24.31-.71c-3.64,1.14-7.55,1.89-11.26,1A10.67,10.67,0,0,1,5,35.41C4.38,34,3.09,33.47,2.13,32.2A6.67,6.67,0,0,1,.84,27.12Z"/><path class="cls-2" d="M54.73,18.24c2.23-2.11,5.63-2,8.73-2.16a8.49,8.49,0,0,1-.41-1.67,12.82,12.82,0,0,0-3-6.88,10.51,10.51,0,0,0-7.15-2.87,30.32,30.32,0,0,0-7.45.9,16.49,16.49,0,0,1,1.12,8.67A27.72,27.72,0,0,1,54.73,18.24Z"/><path class="cls-2" d="M75.75,29.89c-1.3-2-3.74-2.89-5.35-4.63L70.17,25A5.7,5.7,0,0,0,70,27.62a16.89,16.89,0,0,1-3.88,11.92l0,.25a13.23,13.23,0,0,1,1.42-.5c2.4-.68,5.12-.68,7.08-2.23A5.56,5.56,0,0,0,75.75,29.89Z"/><path class="cls-2" d="M7.64,21.68a3.69,3.69,0,0,1,.72,1.39C9.76,22.4,11,21,12.42,20.19a20.49,20.49,0,0,1,4.76-1.93,3.12,3.12,0,0,0,.9-.32,3.26,3.26,0,0,0,.66-.57l2.61-2.76-.51-3.35c0,.1-.05.19-.06.29A14.42,14.42,0,0,0,7.64,21.68Z"/><path class="cls-3" d="M8.23,20.86C0,19.35-3.43,32.13,4.47,35.16c.35.13.53-.32.28-.54-2.61-2.34-5-4.75-3.53-8.52a7.52,7.52,0,0,1,7-4.72A.26.26,0,0,0,8.23,20.86Z"/><path class="cls-3" d="M8.74,23.24C7.32,16,14.53,11.56,20.92,11.91c.32,0,.46-.47.13-.56-6.71-2-15,4.9-12.91,12C8.25,23.72,8.82,23.64,8.74,23.24Z"/><path class="cls-3" d="M21.62,14.36C20.77,6.84,26.25,1.55,33.54.78,42.3-.15,46.35,6,45.48,14.07c0,.52.79.74.91.21C51.18-6.63,16.58-2.85,21,14.47A.31.31,0,0,0,21.62,14.36Z"/><path class="cls-3" d="M18.36,18.47C20.1,15,23,14.15,26.51,13.32c.35-.08.37-.64,0-.66a8.89,8.89,0,0,0-8.65,5.61C17.69,18.62,18.2,18.79,18.36,18.47Z"/><path class="cls-3" d="M42.84,14.79a12.64,12.64,0,0,1,8.65,2c2.43,1.66,3.57,3.9,5.1,6.3.2.31.75.21.67-.22-1.2-6.1-8.79-10.07-14.54-8.78A.34.34,0,0,0,42.84,14.79Z"/><path class="cls-3" d="M53.48,18c8.79-4.06,18,3.17,15.44,12.68-.17.63.78,1,1,.35,2.71-10-7.17-18.78-16.66-13.61A.32.32,0,0,0,53.48,18Z"/><path class="cls-3" d="M45.46,6.15c8.12-3.38,18.13.95,17,10.79a.54.54,0,0,0,1.07.1C64.77,6.62,53.82,1.2,45.19,5.59A.31.31,0,0,0,45.46,6.15Z"/><path class="cls-3" d="M4.32,33.19C4.92,44,21.15,47.33,26.46,38.1c.18-.3-.2-.73-.48-.44C19.38,44.54,6.75,44,5.09,33.05,5,32.54,4.29,32.7,4.32,33.19Z"/><path class="cls-3" d="M23.42,40.63c6.13,11.25,22.26,9.53,27.12-1.89.21-.5-.58-.93-.85-.44C44,48.61,30.92,50.76,23.93,40.3,23.74,40,23.26,40.32,23.42,40.63Z"/><path class="cls-3" d="M47.76,42.16A15.88,15.88,0,0,0,69.35,35.9c.29-.54-.48-1.12-.8-.56-4.37,7.49-12.71,9.44-20.5,6.27C47.73,41.48,47.45,42,47.76,42.16Z"/><path class="cls-3" d="M66.3,40.06c4.33.94,9.44-.84,10.73-5.5S74.14,26,69.86,25.09c-.48-.1-.56.6-.17.78,3.56,1.71,8,4.29,6.15,9-1.46,3.79-5.78,5-9.48,4.56C65.94,39.37,65.9,40,66.3,40.06Z"/></g></g></svg>