<svg xmlns="http://www.w3.org/2000/svg" viewBox="0 0 60.72 61.28"><defs><style>.cls-1{fill:#c28b51;}.cls-2{fill:#dea262;}.cls-3{fill:#260029;}</style></defs><g id="Layer_2" data-name="Layer 2"><g id="_"><path class="cls-1" d="M21.11,59.34A26.85,26.85,0,0,1,7.7,49.48a33,33,0,0,1-6.65-16A31.1,31.1,0,0,1,7.31,11.26,29.16,29.16,0,0,1,12,6.42a29.25,29.25,0,0,1,32.9-2.18,39.64,39.64,0,0,1,6.35,5C54,11.79,55.2,15.15,57,18.44a28.84,28.84,0,0,1,2.83,15.33,17,17,0,0,1-1.33,6.5c-.94,1.94-1.26,4.38-2.67,6-1.92,2.21-3.75,4-5.67,6.17a25.71,25.71,0,0,1-4.9,4,21.9,21.9,0,0,1-7.55,3.29A28.64,28.64,0,0,1,21.11,59.34Z"/><path class="cls-2" d="M49.58,12.11c-1-.24-2.06-.12-3.07-.31-1.71-.32-3.13-1.46-4.73-2.16C36.09,7.16,29,10.5,23.5,7.53a7.34,7.34,0,0,0-1.71-.84c-1.34-.35-2.7.37-3.88,1.1-1.72,1.06-3.5,2.35-4.08,4.28a5.89,5.89,0,0,0,1.57,5.52,13.77,13.77,0,0,0,5.06,3.13,43.66,43.66,0,0,0,21.48,2.89C45,23.24,51.5,23.19,53.33,20,55,17.19,52.65,12.85,49.58,12.11Z"/><path class="cls-2" d="M38.54,27.79c-.89-.94-2.41-.12-3.63.31-5.26,1.83-10.32-5-15.77-3.94-4.09.84-7.69-5.42-11.45-3.61-1.6,1.61-3.33,3.58-3,5.83A7.42,7.42,0,0,0,5.8,29c.91,1.57,1.83,3.13,2.75,4.7a7.29,7.29,0,0,0,2,2.47c.83.56,1.86.77,2.7,1.31a20.73,20.73,0,0,1,2.31,2.19c1.58,1.39,3.75,1.86,5.81,2.28C28,43.27,35,44.62,41.51,42.6c1.55-.48,2.16-2.58,1.45-4A5.1,5.1,0,0,0,39,36a20.86,20.86,0,0,0-4.86.19,36.28,36.28,0,0,1-20.25-4c-1-.54-2.16-1.88-1.3-2.67a1.64,1.64,0,0,1,1.08-.34c3.57-.09,6.42,3.16,10,3.66,3.35.47,7-1.58,10,0,1.35.7,2.34,2,3.79,2.51a6.69,6.69,0,0,0,3.35-.09c2.65-.53,11.51-.9,9.06-5.37C47.53,25.73,41.63,31,38.54,27.79Z"/><path class="cls-3" d="M55.42,45.44C43.6,63.37,21.93,64.41,7.8,48.83-5.94,33.68,2.58,13.05,17.65,3.18c.33-.22.1-.76-.28-.57C-1.2,11.73-4.19,33.7,6.8,49.7,19.39,68,45.73,63,56,45.81A.34.34,0,0,0,55.42,45.44Z"/><path class="cls-3" d="M55.68,46.84c16.9-25.59-12-56.08-38.83-44.19-.38.17-.09.72.29.57C45.3-7.8,67.42,20.76,55,46.51,54.8,46.91,55.45,47.2,55.68,46.84Z"/><path class="cls-3" d="M57.19,41.4a11.35,11.35,0,0,1-1.44,1.5c-1,.82-2,.54-3.12.2a3.12,3.12,0,0,0-2.5-.09c-.17.09,0,.33.13.27,1.5-.56,2.68.76,4.14.53a4.79,4.79,0,0,0,3-2.26C57.54,41.4,57.3,41.25,57.19,41.4Z"/><path class="cls-3" d="M47.94,44.12a3.79,3.79,0,0,1-4.32,1.74.14.14,0,1,0-.08.26,4,4,0,0,0,4.64-1.85A.14.14,0,1,0,47.94,44.12Z"/><path class="cls-3" d="M39.69,45.91a3.38,3.38,0,0,0-2.26.55c-1.69.95-2.8,1.73-4.74.56-1.34-.82-3.25-2.26-4.65-.72-.15.16.06.42.23.26,1.93-1.82,4.3,1.44,6.35,1.59s3.09-2.09,5.05-1.89C39.9,46.29,39.91,45.94,39.69,45.91Z"/><path class="cls-3" d="M27.23,46.85a2.32,2.32,0,0,1-3.54-1.1c-.08-.18-.39-.08-.33.11a2.6,2.6,0,0,0,4.06,1.2C27.56,47,27.38,46.75,27.23,46.85Z"/><path class="cls-3" d="M21.39,45.57c-1.15-1.23-2.62-1.11-4.13-.66s-3.75,1.39-4.91-.62c-.27-.46-.45-.69-1-.79-.23,0-.36.28-.12.36.78.23.75,1,1.33,1.45a2.9,2.9,0,0,0,1.55.62c2.22.09,5-2.11,7-.13C21.28,46,21.54,45.73,21.39,45.57Z"/><path class="cls-3" d="M9.86,43.14C9,41.92,7.52,42,6.18,41.68c-1.89-.39-3.45-2.55-3.83-4.32-.05-.23-.45-.22-.43,0A5.55,5.55,0,0,0,4.05,41a6,6,0,0,0,1.62,1c1.32.6,2.9.06,3.89,1.42C9.71,43.61,10,43.35,9.86,43.14Z"/><path class="cls-3" d="M56,41.44c-1.69.91-3.59-.19-5.39-.15-2.25,0-3.63,4.19-6,2.8a.17.17,0,0,0-.19.29c1.71,1.37,3.36-.67,4.48-1.81,2.08-2.14,4.93.51,7.25-.84A.16.16,0,0,0,56,41.44Z"/><path class="cls-3" d="M43.46,44c-1.51.94-3-.49-4.52-.16-1.94.4-4.54,3.86-6.35,1.64-.13-.15-.39,0-.29.19,1,1.82,3.24.7,4.49-.24,1.77-1.33,3-1.1,4.93-.71a2.42,2.42,0,0,0,2-.39C43.86,44.23,43.65,43.91,43.46,44Z"/><path class="cls-3" d="M31.28,44.6a2.75,2.75,0,0,0-2.11-1C27,43.78,26,46,23.58,44.51c-.91-.55-1.85-1.41-3-1.47a7.7,7.7,0,0,0-4.11,1.13.18.18,0,0,0,.16.32c1.8-.78,3.44-1.58,5.36-.53a16.38,16.38,0,0,0,2.29,1.41c2.59.87,4.24-2.7,6.77-.53C31.21,45,31.41,44.73,31.28,44.6Z"/><path class="cls-3" d="M14.59,44a3.24,3.24,0,0,1-2.47-1.73.15.15,0,0,0-.26.13,3.33,3.33,0,0,0,2.72,1.89C14.76,44.3,14.78,44,14.59,44Z"/><path class="cls-3" d="M10.06,41.72C7.36,40,3,40,2.51,36.09c0-.21-.33-.17-.35,0C1.89,40,7.41,40.65,9.86,42,10.07,42.14,10.27,41.85,10.06,41.72Z"/><path class="cls-3" d="M18.22,42.43c-2.3,1-4.2-1-6.09-2-1.27-.64-2.71-.32-4-.76-.19-.06-.27.21-.09.3a6.47,6.47,0,0,0,2.44.43c1.48.09,2.72,1.1,4,1.84a4.24,4.24,0,0,0,4,.48C18.57,42.64,18.42,42.34,18.22,42.43Z"/><path class="cls-3" d="M6.48,38.78a16.5,16.5,0,0,1-4.93-4.33c-.14-.16-.42,0-.31.2A12.51,12.51,0,0,0,6.31,39C6.48,39.12,6.65,38.87,6.48,38.78Z"/><path class="cls-3" d="M1.72,35.75c-.11-.21-.23-.42-.35-.62a.16.16,0,0,0-.28.14l.31.63C1.5,36.11,1.84,36,1.72,35.75Z"/><path class="cls-3" d="M23.39,42.89a5,5,0,0,0-3.18-.84c-.18,0-.16.31,0,.31a5.59,5.59,0,0,1,3,.77C23.39,43.22,23.55,43,23.39,42.89Z"/><path class="cls-3" d="M20.32,41.33a2.27,2.27,0,0,0-1.88-.51,5,5,0,0,1-4.13-1.3c-2.19-1.81-5-.15-7.06-2-.17-.15-.42.14-.26.3,1.87,1.8,4.38.31,6.52,1.57.77.44,1.39,1.55,2.29,1.83,1.26.39,3.29-.31,4.32.38C20.31,41.77,20.5,41.47,20.32,41.33Z"/><path class="cls-3" d="M5.11,36.46A6,6,0,0,1,2.45,33.2a.18.18,0,0,0-.34.11A5.27,5.27,0,0,0,4.9,36.78C5.11,36.89,5.32,36.59,5.11,36.46Z"/><path class="cls-3" d="M13.62,37.1c-1.95-1-5.29.41-6.53-2-.84-1.61-4.45-1.85-4.44-3.74a.16.16,0,0,0-.32,0c-.26,2.53,3.46,2.15,4.41,3.92,1.46,2.72,4.36.94,6.69,2.09C13.63,37.48,13.82,37.2,13.62,37.1Z"/><path class="cls-3" d="M10.83,34.27c-1.23-.61-2.57-.52-3.87-.92-3.27-1-.72-1.06-1.64-2-.57-.58-2-.94-1.87-2,0-.19-.25-.23-.32-.06-.13.32-.23.56,0,.89a1.88,1.88,0,0,0,.6.59,6.53,6.53,0,0,1,1.77,2c.92,1.58,3.76,1.09,5.15,1.75C10.86,34.65,11,34.35,10.83,34.27Z"/><path class="cls-3" d="M7.48,30.72a1.82,1.82,0,0,1-1.79-1.11.16.16,0,0,0-.29.15,2.14,2.14,0,0,0,2.06,1.32C7.7,31.08,7.72,30.72,7.48,30.72Z"/><path class="cls-3" d="M17.48,47c-2.15.27-3.68.17-5.42-1.23A2.92,2.92,0,0,0,9.41,45a.14.14,0,0,0,.06.28c1.83-.34,3.07,1.53,4.67,2.09a7.74,7.74,0,0,0,3.42.05C17.83,47.34,17.74,46.93,17.48,47Z"/><path class="cls-3" d="M8.27,44.33A3,3,0,0,0,7,43c-1-.42-3.4.07-3.47-1.5a.17.17,0,0,0-.33,0c-.11.7.31,1.1.91,1.42a2.32,2.32,0,0,0,.83.17c1.28.14,2.29.12,3.09,1.44C8.1,44.63,8.37,44.5,8.27,44.33Z"/><path class="cls-3" d="M14.13,48.08a6.23,6.23,0,0,0-2.31-1.2c-1.79-.29-3-.3-4.45-1.58-.94-.82-2.11-1.53-3.33-.89-.19.1-.09.43.13.37C6.26,44.21,6.9,46,8.46,46.73c1.82.85,3.68.49,5.5,1.6A.15.15,0,1,0,14.13,48.08Z"/><path class="cls-3" d="M12.46,48.79c-1.08.61-2.06-.9-3-1.28C8.31,47,7,47.87,6.12,46.29c-.1-.18-.42-.09-.35.12.41,1.24,1.61,1.32,2.77,1.37,1.44.08,2.62,2.31,4.1,1.37C12.85,49,12.69,48.66,12.46,48.79Z"/><path class="cls-3" d="M43.46,47.54a7,7,0,0,0,4.68-.61,6.6,6.6,0,0,0,2-1.67c.86-1,3.09-.19,4.18-.09.2,0,.21-.28,0-.31-1.42-.27-3.33-1-4.46.1a6.94,6.94,0,0,1-6.39,2.22A.19.19,0,0,0,43.46,47.54Z"/><path class="cls-3" d="M44.86,48.75A4,4,0,0,0,48.7,48c1.19-.8,2.26-1.64,3.78-1.56a4.26,4.26,0,0,0,2.16-.13.15.15,0,0,0-.1-.27c-1.31.42-2.61-.17-4,.33-1.89.71-3.36,2.91-5.62,2C44.77,48.35,44.67,48.66,44.86,48.75Z"/><path class="cls-3" d="M43.3,48.64A5.7,5.7,0,0,0,38.08,48c-.22.08-.09.46.13.39A5.54,5.54,0,0,1,43.1,49,.18.18,0,0,0,43.3,48.64Z"/><path class="cls-3" d="M42.33,46.64a2,2,0,0,0-1.47-.07c-.21.07-.16.39.06.34a1.79,1.79,0,0,1,1.29.09C42.44,47.09,42.55,46.73,42.33,46.64Z"/><path class="cls-3" d="M51.16,48.17c-3,.7-5,3.17-8.32,1.94a11.82,11.82,0,0,0-3.2-1c-1.21-.11-2,1.25-3.24,1a.18.18,0,0,0-.11.34c.79.28,1.25,0,2-.44,1.83-1.1,3.75.37,5.53.89,2.61.76,5.11-1.65,7.44-2.37C51.44,48.45,51.38,48.11,51.16,48.17Z"/><path class="cls-3" d="M49.16,50.43A5.84,5.84,0,0,1,44,51.64c-1.09-.26-2-.78-3.1-.45-.23.06-.16.43.07.37,1.49-.41,3.15.62,4.7.6a5.93,5.93,0,0,0,3.7-1.51C49.5,50.53,49.31,50.31,49.16,50.43Z"/><path class="cls-3" d="M45.94,53.11A20.34,20.34,0,0,1,42,52.34a.17.17,0,0,0-.11.32,12.59,12.59,0,0,0,4,.73A.14.14,0,0,0,45.94,53.11Z"/><path class="cls-3" d="M50.93,50.49c.7-.37,1.39-.74,2-1.17a.15.15,0,0,0-.13-.27,23,23,0,0,0-2.11,1.05A.22.22,0,0,0,50.93,50.49Z"/><path class="cls-3" d="M52.46,48.83c.57-.28,1.12-.57,1.66-.9a.17.17,0,0,0-.15-.3,17.63,17.63,0,0,0-1.67.87A.18.18,0,0,0,52.46,48.83Z"/><path class="cls-3" d="M53.65,47.2a9.29,9.29,0,0,0,.94-.27c.21-.07.16-.39-.07-.34a8.09,8.09,0,0,0-1,.21C53.32,46.86,53.4,47.26,53.65,47.2Z"/><path class="cls-3" d="M45.2,54.7a3.23,3.23,0,0,1-2.82-.54c-.15-.11-.36.12-.22.25a3.07,3.07,0,0,0,3.1.61C45.46,55,45.4,54.64,45.2,54.7Z"/><path class="cls-3" d="M41.93,56.73a5.44,5.44,0,0,1-3.6.63c-.16,0-.21.24,0,.27a5.11,5.11,0,0,0,3.8-.59C42.27,56.93,42.12,56.63,41.93,56.73Z"/><path class="cls-3" d="M37.35,57.2c-1.47-1.39-3.25.2-4.78.6-1.09.28-2.1-1-3.22-1a2.21,2.21,0,0,0-1.83,1.07c-.09.14.11.33.23.2a2.39,2.39,0,0,1,3.32-.21,2.29,2.29,0,0,0,1.16.36c1.63.14,3.29-2.37,4.92-.85C37.27,57.49,37.47,57.32,37.35,57.2Z"/><path class="cls-3" d="M26.85,58c-.19-1.51-1.87-1.26-2.89-.81a5.24,5.24,0,0,1-4.11.07,3.31,3.31,0,0,0-2.3,0,.18.18,0,0,0,.11.33c1.41-.26,2.61.3,4,.54s4.58-1.92,4.89-.08C26.56,58.26,26.88,58.19,26.85,58Z"/><path class="cls-3" d="M33,56.8c-1.56-1.16-3.07-1.07-4.86-.54-1,.29-2.15-.47-3.13-.64-1.31-.22-2,1.51-3.47.85-.16-.08-.27.17-.13.26a1.47,1.47,0,0,0,1.29.19,3.22,3.22,0,0,0,.92-.48,2.61,2.61,0,0,1,2.63-.1,3.58,3.58,0,0,0,2,.26c1.83-.24,2.92-.73,4.63.46C33,57.17,33.12,56.92,33,56.8Z"/><path class="cls-3" d="M19.82,56.27a8.39,8.39,0,0,0-4.54-.75c-.21,0-.17.34,0,.36a17.26,17.26,0,0,1,4.39.75C19.93,56.71,20,56.36,19.82,56.27Z"/><path class="cls-3" d="M19.86,54.78c-2-2.34-5.81.8-7.53-1.94A.17.17,0,0,0,12,53c1.09,3.13,5.71.07,7.58,2A.17.17,0,0,0,19.86,54.78Z"/><path class="cls-3" d="M35.91,55.71c1.4-1.36,3.44,1.21,5,1.1,1.26-.1,2.34-1,3.61-1.16.18,0,.15-.31,0-.31-2.12,0-3.36,1.85-5.55.51-1.05-.64-2.23-1.46-3.29-.39C35.55,55.61,35.76,55.85,35.91,55.71Z"/><path class="cls-3" d="M40.79,55.16a13.53,13.53,0,0,0-4.87-1.5.16.16,0,0,0,0,.31,14.88,14.88,0,0,1,4.7,1.47C40.79,55.53,41,55.26,40.79,55.16Z"/><path class="cls-3" d="M43.56,37a5,5,0,0,0-3.71-.78c-.17,0-.11.29.06.27a5,5,0,0,1,3.48.77A.16.16,0,0,0,43.56,37Z"/><path class="cls-3" d="M37.56,37c-1.78-1.37-3.07-1.7-5.1-.71-1.73.86-2.95-.32-4.42-.85a1.16,1.16,0,0,0-.64,0c-1.53.41-2.37,1-4.13,0a.16.16,0,0,0-.17.26,2.86,2.86,0,0,0,2,.76,4.64,4.64,0,0,0,1.28-.27c2.16-.76,2.17.27,3.35,1a2.51,2.51,0,0,0,1.73,0,5.75,5.75,0,0,0,1.16-.51,4.32,4.32,0,0,1,4.8.63C37.55,37.33,37.69,37.11,37.56,37Z"/><path class="cls-3" d="M42,35.63a2.26,2.26,0,0,0-2.55-.13c-1.73.66-3.6-1.09-5.41-.84a8.74,8.74,0,0,0-1.72.59c-1.74.67-2.68-.12-4.12-.89-1-.54-2,.72-2.87.23-.16-.09-.38.12-.23.26.56.52.86.46,1.56.06,1.24-.7,3.2,1.15,4.63,1.05,2.21-.16,3.16-1.5,5.64-.14,1.51.83,3.66-.82,4.89.09C42,36,42.16,35.76,42,35.63Z"/><path class="cls-3" d="M38.49,33.33c-1.68,1.17-3.68-.69-5.51-.26-.68.16-1.31.59-2,.8-1.08.33-2.11-1-3.12-1.19-.19,0-.29.25-.1.29.89.23,1.55,1.19,2.44,1.28a4.68,4.68,0,0,0,2.47-.71c2-.95,4,1.4,6,0C38.85,33.45,38.65,33.22,38.49,33.33Z"/><path class="cls-3" d="M26.46,32.93c-1.92-1.18-4.33,1.51-6-.28-.12-.13-.37,0-.27.18,1.39,2.21,4.23-.62,6.07.39C26.46,33.32,26.65,33.05,26.46,32.93Z"/><path class="cls-3" d="M24.91,33.85a4.44,4.44,0,0,1-4.44-.18.16.16,0,0,0-.18.27,4.49,4.49,0,0,0,4.78.24C25.28,34.07,25.12,33.74,24.91,33.85Z"/><path class="cls-3" d="M21.73,35.25c-2.06.24-2.48-1.33-3.6-2.51a1.5,1.5,0,0,0-1.52-.43c-.18,0-.17.33,0,.33,1.7,0,1.72,1.74,2.89,2.45a3.19,3.19,0,0,0,2.27.47C22,35.53,21.93,35.23,21.73,35.25Z"/><path class="cls-3" d="M47.48,7.85c-.81,1.7-3.49.14-4.95.61a4.62,4.62,0,0,0-1.18.77c-1.5,1.15-2.63.79-4.11-.07a.15.15,0,0,0-.17.24c1.86,1.36,3.12,1.2,4.88-.15,1.49-1.15,2.53,0,4-.16.86-.08,1.48-.31,1.78-1.15C47.84,7.75,47.56,7.67,47.48,7.85Z"/><path class="cls-3" d="M39.92,8.58c-1.66.07-3.83-2.13-5.48-1.26-.88.46-1.88,1.1-2.94.81a16.48,16.48,0,0,1-1.91-1A2.61,2.61,0,0,0,27,7c-.16.09-.09.38.11.32,2.07-.68,4.06,2.25,6,1.27a9,9,0,0,1,2.36-1,4.45,4.45,0,0,1,1.72.55,5.82,5.82,0,0,0,2.78.75C40.11,8.9,40.13,8.57,39.92,8.58Z"/><path class="cls-3" d="M34.76,9c-2.17.74-3.59-.1-5.57-.83a2.07,2.07,0,0,0-1.39.06c-1.59.48-2.75.56-3.58-1.07-.09-.18-.41-.09-.34.11a2.6,2.6,0,0,0,3.66,1.54c1.74-.75,2.63.56,4.23.81a5.53,5.53,0,0,0,3.09-.33C35,9.25,34.93,9,34.76,9Z"/><path class="cls-3" d="M25.57,6.87c-1.17.35-1.73-1.29-2.66-1.6-.71-.23-3.14,1-3.17-.35,0-.29-.44-.32-.45,0,0,1,.84,1.22,1.66,1.15a6.13,6.13,0,0,0,1.16-.34c1.23-.35,1.46.81,2.15,1.27a1.44,1.44,0,0,0,1.39.27C25.88,7.17,25.81,6.8,25.57,6.87Z"/><path class="cls-3" d="M22.7,6.7c-1.44-.23-3.88.53-4.38-1.46A.17.17,0,0,0,18,5.3c.17,2.26,3.25,1.52,4.69,1.72C22.88,7.05,22.9,6.74,22.7,6.7Z"/><path class="cls-3" d="M45.44,7.7a4.52,4.52,0,0,0-4.68,1.07A.16.16,0,0,0,41,9a5.3,5.3,0,0,1,4.36-1C45.54,8.07,45.65,7.77,45.44,7.7Z"/><path class="cls-3" d="M42.26,6.77a3.63,3.63,0,0,1-3.42.59c-.93-.27-1.5-1-2.48-1.26-1.94-.44-3.93,2-5.77,0-.13-.15-.35.05-.23.21,1.61,2.18,4.26-.2,6.34.27,1.36.3,2,1.29,3.48,1.31A3.7,3.7,0,0,0,42.46,7C42.62,6.88,42.42,6.65,42.26,6.77Z"/><path class="cls-3" d="M35,26.66c1.51-2.42,4,1.27,5.82,1s2.48-2.58,4.27-2.53a.16.16,0,0,0,0-.31c-2.66-.49-2.66,3.69-6,1.89-1.35-.73-3.24-2.09-4.36-.25A.16.16,0,0,0,35,26.66Z"/><path class="cls-3" d="M45.16,25.18c1.31.47,3,1.4,4.35,1.47,1.6.09,1.33-2.28,3.41-1.66,1.27.39,2,1,3.35.72a3.26,3.26,0,0,0,2-1.59.18.18,0,0,0-.3-.2c-1.06,1.64-2.73,1.69-4.38.94a3.16,3.16,0,0,0-2.09-.26c-1.12.21-.76,2-2.49,1.52-1.28-.34-2.54-.82-3.8-1.22A.15.15,0,0,0,45.16,25.18Z"/><path class="cls-3" d="M57.25,23c-1.17,1.94-3.71.15-5.34,0-1.39-.09-2.15,2.08-3.42,1.56a.15.15,0,0,0-.14.27,1,1,0,0,0,1.19.09A4.64,4.64,0,0,0,50.59,24c.82-.92,1.85-.61,2.83-.28,1.38.45,3.37,1.11,4.12-.6C57.62,23,57.34,22.86,57.25,23Z"/><path class="cls-3" d="M45.22,24a2.33,2.33,0,0,0-2.31-.29,2.86,2.86,0,0,0-.89,1c-1.17,1.72-2.45.94-3.82.24a.18.18,0,0,0-.2.3,3.75,3.75,0,0,0,2.7,1c1.75-.39,2.13-3.07,4.33-2C45.22,24.36,45.41,24.09,45.22,24Z"/><path class="cls-3" d="M57.28,20.7c-.46,2.83-5.64-.3-7.27,1.72-2.18,2.71-4-1.84-5.81.32-.12.14.11.34.25.21,1.57-1.45,2.72,1.15,4.11,1,1.76-.22,2.38-2.28,4.51-1.86,1.67.32,4.24,1.12,4.55-1.35C57.65,20.5,57.31,20.49,57.28,20.7Z"/><path class="cls-3" d="M44.38,28c1.59-1.22,3.47.22,5.16.32,1.16.07,2.16-.88,2.89-1.65.14-.14,0-.37-.2-.23A4.14,4.14,0,0,1,49.14,28a12.26,12.26,0,0,1-2.42-.67,2.7,2.7,0,0,0-2.53.5C44,27.92,44.23,28.14,44.38,28Z"/><path class="cls-3" d="M54.93,27.34l.63-.33c.15-.08,0-.31-.11-.23l-.63.33C54.67,27.19,54.79,27.42,54.93,27.34Z"/><path class="cls-3" d="M53.93,26.74a7.89,7.89,0,0,0-.85-.08c-.18,0-.19.26,0,.28s.56.08.84.11S54.13,26.76,53.93,26.74Z"/><path class="cls-3" d="M55.61,27.85c-.71-.41-1.28-.11-1.93.31a7,7,0,0,1-4.84.92c-.2,0-.21.27,0,.3a9.76,9.76,0,0,0,3.19.06c1-.17,2.46-1.83,3.41-1.32C55.61,28.22,55.79,28,55.61,27.85Z"/><path class="cls-3" d="M22.93,20.32a3.23,3.23,0,0,0-2.88-.68.14.14,0,0,0,.06.27,3.11,3.11,0,0,1,2.63.7C22.92,20.76,23.11,20.46,22.93,20.32Z"/><path class="cls-3" d="M17,20.06c-1-1.42-2-2.67-3.81-2.2-2.45.62-2.68-1-4.15-1.88-.85-.5-3.39.81-3.59-1,0-.26-.47-.23-.45,0,.18,2.41,3.45.75,4.71,2,.49.48,1.1,1.64,2,1.59a2.77,2.77,0,0,0,1.13-.21c2-.79,3,.47,4,1.81C16.92,20.37,17.11,20.19,17,20.06Z"/><path class="cls-3" d="M21.22,18.39c-3.54,1.23-4.38-2.35-7.39-1.81-1.66.3-2.33-1.29-3.59-1.56-.87-.19-3.42.09-3.6-1.14a.17.17,0,0,0-.33,0,1.21,1.21,0,0,0,1,1.4c1.54.5,1.88-1.17,4,1.23a1.59,1.59,0,0,0,.81.57A4.19,4.19,0,0,0,13.91,17c2.26-.53,2.3,1.08,3.65,1.62a4.85,4.85,0,0,0,3.81.08C21.57,18.62,21.42,18.33,21.22,18.39Z"/><path class="cls-3" d="M16.3,15.6c-1.26-.77-2.86.38-4-.75A2.2,2.2,0,0,0,11.08,14c-1-.16-3.62.23-3.43-1.56,0-.27-.37-.28-.41,0-.3,1.65,1.69,1.9,2.88,1.91s1.85,1.09,2.94,1.4,2-.47,3.06.11C16.3,16,16.48,15.7,16.3,15.6Z"/><path class="cls-3" d="M14.44,13.61c-1.56.38-2.46-.71-3.69-1.38-.15-.08-.35.1-.21.25,1,1,2.55,2,4,1.47A.18.18,0,0,0,14.44,13.61Z"/><path class="cls-3" d="M15.4,20.32c-1-.68-2.18-.52-3.34-.53a2.85,2.85,0,0,1-1.43-.37c-.48-.27-.52-.79-1-1.07a1,1,0,0,0-1.18-.12c-.15.09-.08.35.1.3.75-.19,1.86,1.48,2.79,1.6,1.27.17,2.68-.25,3.82.51C15.4,20.77,15.6,20.46,15.4,20.32Z"/><path class="cls-3" d="M12.8,21.13a3,3,0,0,1-2.48-.77c-.15-.12-.33.1-.21.24a2.71,2.71,0,0,0,2.76.86A.17.17,0,0,0,12.8,21.13Z"/><path class="cls-3" d="M5.92,19c-.51-.48-1-1-1.54-1.39-.15-.12-.35.11-.22.25.46.49,1,.94,1.46,1.4C5.8,19.42,6.1,19.16,5.92,19Z"/><path class="cls-3" d="M5.26,20.44c-.66-.67-1.31-1.35-2-2-.17-.14-.38.13-.25.28.61.7,1.29,1.32,2,2C5.14,20.91,5.45,20.64,5.26,20.44Z"/><path class="cls-3" d="M8,23c-1.89.54-2.81-2-4.26-2.76-.2-.1-.4.18-.2.3C5,21.44,6,24.1,8.07,23.35,8.27,23.28,8.15,22.94,8,23Z"/><path class="cls-3" d="M4.8,23.58A5.82,5.82,0,0,1,3.29,22c-.11-.17-.36,0-.28.18A4.36,4.36,0,0,0,4.59,23.9.19.19,0,0,0,4.8,23.58Z"/><path class="cls-3" d="M3.19,24.39a3.87,3.87,0,0,1-1.09-1c-.13-.15-.41,0-.3.2A3.07,3.07,0,0,0,3,24.73C3.19,24.87,3.42,24.53,3.19,24.39Z"/><path class="cls-3" d="M47.31,39.92c1.47-2.08,5.19,1.54,6.22-1.3a.16.16,0,0,0-.28-.14c-1.36,2.43-4.69-1.18-6.19,1.28A.15.15,0,0,0,47.31,39.92Z"/><path class="cls-3" d="M54.46,38.44A3.17,3.17,0,0,0,58,36.22c0-.16-.2-.3-.29-.13a3.25,3.25,0,0,1-3.26,2C54.27,38.1,54.25,38.42,54.46,38.44Z"/><path class="cls-3" d="M54.79,40.28A2.72,2.72,0,0,0,58,37.74c0-.18-.28-.26-.33-.06a2.64,2.64,0,0,1-2.87,2.23C54.57,39.88,54.56,40.25,54.79,40.28Z"/><path class="cls-3" d="M55.49,20.55a5.31,5.31,0,0,0-3.4-.56c-1.4.32-2.43,1.5-3.85,1.83a.16.16,0,0,0,.06.31,6.73,6.73,0,0,0,2.76-1.23c1.48-.9,2.79-.59,4.33,0C55.6,21,55.69,20.64,55.49,20.55Z"/><path class="cls-3" d="M53.2,18.35A17.46,17.46,0,0,0,48.89,20a.17.17,0,0,0,.14.3,23.14,23.14,0,0,1,4.23-1.64C53.46,18.61,53.4,18.3,53.2,18.35Z"/><path class="cls-3" d="M51.8,16.8c-.53.16-.66.2-1.19.4-.18.07-.07.35.11.31a9.09,9.09,0,0,0,1.17-.29C52.14,17.14,52.06,16.72,51.8,16.8Z"/><path class="cls-3" d="M21,10.4c-1-.89-2.38-.78-3.67-.71a4.58,4.58,0,0,1-2.85-.44c-1-.61-1-1.72-2.07-2.2-.25-.12-.42.28-.2.42.88.57,1.21,1.54,2,2.2a3.07,3.07,0,0,0,1.67.51c1.69.15,3.51-.74,5,.47C21,10.77,21.12,10.53,21,10.4Z"/><path class="cls-3" d="M18.23,8.61A3,3,0,0,1,14.92,7a1.79,1.79,0,0,0-1.16-1,.2.2,0,0,0-.17.35c1,.79,1.36,1.85,2.51,2.44a3.3,3.3,0,0,0,2.19.16A.17.17,0,0,0,18.23,8.61Z"/><path class="cls-3" d="M17.5,7.62a5.5,5.5,0,0,1-2.36-2.14c-.12-.17-.44,0-.37.18a3.86,3.86,0,0,0,2.59,2.4C17.64,8.16,17.76,7.74,17.5,7.62Z"/><path class="cls-3" d="M16,11.27c-2.08-.21-3.25-1.36-4.34-3-.12-.2-.48-.13-.41.14a4.88,4.88,0,0,0,4.73,3.27A.19.19,0,0,0,16,11.27Z"/><path class="cls-3" d="M12.52,11.93a6.19,6.19,0,0,1-2.12-1.31c-.15-.13-.33.11-.22.24a4.22,4.22,0,0,0,2.22,1.42A.19.19,0,0,0,12.52,11.93Z"/><path class="cls-3" d="M27.27,50.29a2.36,2.36,0,0,0-2.37-1.22c-1.82,0-3.14,1.51-5,.67-.2-.09-.33.22-.16.34,2.13,1.55,5.76-2.21,7.23.38C27.05,50.68,27.39,50.51,27.27,50.29Z"/><path class="cls-3" d="M34.08,53.59a5,5,0,0,1-3.7.25A10.7,10.7,0,0,0,28.11,53c-1.54-.12-3.05,1.23-4.53.73-.16-.06-.24.2-.08.26a2.77,2.77,0,0,0,1.73,0c1.36-.37,2.25-.9,3.7-.32,1.9.77,3.39,1.23,5.33.29A.2.2,0,0,0,34.08,53.59Z"/><path class="cls-3" d="M30.85,52.41a20.38,20.38,0,0,1-2.07.16.18.18,0,0,0,0,.35,9.22,9.22,0,0,0,2.16-.11C31.19,52.77,31.11,52.37,30.85,52.41Z"/><path class="cls-3" d="M23,52.78a20.84,20.84,0,0,1-4-1.25c-.17-.06-.3.21-.14.29a13.6,13.6,0,0,0,4.08,1.3C23.13,53.15,23.19,52.82,23,52.78Z"/><path class="cls-3" d="M35,38.49a5.61,5.61,0,0,0-2.73,0,.15.15,0,0,0,.06.3,6.69,6.69,0,0,1,2.56,0C35.13,38.86,35.23,38.54,35,38.49Z"/><path class="cls-3" d="M30.54,39.13c-.81,1-2.88-1-4-.74a.15.15,0,0,0,0,.3c1.35-.08,3,2.17,4.23.62C30.93,39.14,30.67,39,30.54,39.13Z"/><path class="cls-3" d="M44.51,16.9c-1.45,1.43-3.46-.58-5.14-.12a.15.15,0,0,0,.06.3c1.74-.28,3.78,1.58,5.29.06C44.86,17,44.66,16.76,44.51,16.9Z"/><path class="cls-3" d="M38,17c-.79.05-1.58.08-2.37.16-.17,0-.15.31,0,.31.77,0,1.54-.07,2.32-.12C38.21,17.35,38.23,17,38,17Z"/><path class="cls-3" d="M38.26,18.46a12.71,12.71,0,0,0-1.63.08.16.16,0,0,0,0,.31,12.67,12.67,0,0,0,1.63,0C38.49,18.8,38.46,18.46,38.26,18.46Z"/><path class="cls-3" d="M31.17,18.44a12.26,12.26,0,0,0-3.71-1.31c-.19,0-.25.3-.06.35A19.19,19.19,0,0,1,31,18.72C31.19,18.8,31.33,18.52,31.17,18.44Z"/><path class="cls-3" d="M27,18c-.42.05-.84.09-1.26.17-.16,0-.15.3,0,.29.44,0,.87-.07,1.31-.11C27.27,18.34,27.2,18,27,18Z"/><path class="cls-3" d="M25.15,16.6a6.56,6.56,0,0,1-2.78-.3.16.16,0,0,0-.1.3,5.38,5.38,0,0,0,2.94.34C25.44,16.91,25.37,16.58,25.15,16.6Z"/><path class="cls-3" d="M23.47,15.37l-.84,0a.17.17,0,0,0,0,.33c.29,0,.56.08.85.11S23.72,15.4,23.47,15.37Z"/><path class="cls-3" d="M42.78,5.13c-1.22,1.5-3.31-.39-4.73-.46A.15.15,0,1,0,38,5c1.64.18,3.63,2.1,5,.36C43.21,5.15,42.92,5,42.78,5.13Z"/><path class="cls-3" d="M38.65,6a6,6,0,0,0-2.43-.9c-.18,0-.23.27-.06.3a6.78,6.78,0,0,1,2.31.88C38.65,6.42,38.83,6.15,38.65,6Z"/><path class="cls-3" d="M27.86,4.08a5.37,5.37,0,0,1-2.15.08C24.87,4,24.48,3,23.94,2.43a1.1,1.1,0,0,0-1.15-.26c-.18,0-.18.33,0,.33,1.37,0,1.34,1.45,2.39,1.84a4.67,4.67,0,0,0,2.72,0A.16.16,0,0,0,27.86,4.08Z"/><path class="cls-3" d="M24.14,4.17a10.35,10.35,0,0,1-3.41-2.06c-.16-.13-.37.13-.24.27A8.48,8.48,0,0,0,24,4.49.17.17,0,0,0,24.14,4.17Z"/><path class="cls-3" d="M21.56,4.18a5.88,5.88,0,0,1-1.82-1.69c-.13-.17-.39,0-.31.21a3.67,3.67,0,0,0,2,1.82C21.59,4.61,21.75,4.28,21.56,4.18Z"/><path class="cls-3" d="M18.29,6.12a2.43,2.43,0,0,1-1.88-2c-.05-.19-.36-.19-.36,0a2.34,2.34,0,0,0,2.18,2.32C18.41,6.46,18.47,6.15,18.29,6.12Z"/><path class="cls-3" d="M16.44,6.15c-.26-.31-.52-.62-.79-.92a.15.15,0,0,0-.22.19,11.55,11.55,0,0,0,.76.94C16.33,6.53,16.57,6.31,16.44,6.15Z"/><path class="cls-3" d="M18.09,4.5a7.6,7.6,0,0,0-.73-1.27c-.15-.19-.39,0-.32.21a7.2,7.2,0,0,0,.64,1.27C17.82,5,18.23,4.77,18.09,4.5Z"/><path class="cls-3" d="M46.06,10.34a5.56,5.56,0,0,0,3.58-1.12c.2-.15,0-.5-.24-.37A6.24,6.24,0,0,1,46.08,10C45.87,10,45.84,10.33,46.06,10.34Z"/><path class="cls-3" d="M46.23,11.59a16.16,16.16,0,0,0,4.1-1.4.19.19,0,0,0-.17-.34,28.29,28.29,0,0,1-4,1.4C46,11.31,46,11.64,46.23,11.59Z"/><path class="cls-3" d="M48.49,12.32a7,7,0,0,0,3.84-1.52.18.18,0,0,0-.2-.29,11.63,11.63,0,0,1-3.72,1.43C48.15,12,48.24,12.35,48.49,12.32Z"/><path class="cls-3" d="M50.56,12.63c.53-.18,1-.36,1.56-.59.17-.08.08-.37-.1-.32-.56.16-1.09.35-1.63.55C50.14,12.36,50.32,12.72,50.56,12.63Z"/><path class="cls-3" d="M54.46,37.2A8.7,8.7,0,0,0,59,34.5c.18-.21-.09-.53-.28-.33a9,9,0,0,1-4.36,2.65C54.15,36.89,54.21,37.25,54.46,37.2Z"/><path class="cls-3" d="M55.65,35.27a5.21,5.21,0,0,0,2.84-1.4c.14-.14,0-.43-.21-.31a8.56,8.56,0,0,1-2.72,1.31A.21.21,0,0,0,55.65,35.27Z"/><path class="cls-3" d="M54.82,33.68c.81-.34,1.62-.66,2.4-1,.18-.09,0-.34-.14-.28-.82.29-1.62.65-2.43,1C54.43,33.44,54.6,33.77,54.82,33.68Z"/><path class="cls-3" d="M55.67,31.86l.73-.15c.2,0,.13-.32-.06-.3l-.75.08C55.35,31.51,55.43,31.9,55.67,31.86Z"/><path class="cls-3" d="M31.35,4a11.71,11.71,0,0,0-1.28-.38.16.16,0,0,0-.1.3,9.88,9.88,0,0,0,1.27.41A.17.17,0,0,0,31.35,4Z"/><path class="cls-3" d="M27.53,3.38A4,4,0,0,1,25,1.12a.19.19,0,0,0-.36.13A3.27,3.27,0,0,0,27.42,3.7C27.63,3.74,27.74,3.43,27.53,3.38Z"/><path class="cls-3" d="M16.8,52.57a4.26,4.26,0,0,0-2.84,0c-2.13.4-2.49-1.76-4.23-2.16a.18.18,0,0,0-.11.34c1.13.53,1.74,2.12,3,2.33s2.64-.5,4-.15C16.83,53,17,52.67,16.8,52.57Z"/><path class="cls-3" d="M13.82,51.07c-2.66.22-4.17-2.32-6.58-2.94-.29-.08-.43.36-.14.44,2.35.65,4.13,3.5,6.81,2.9C14.17,51.41,14.08,51.05,13.82,51.07Z"/><path class="cls-3" d="M1.86,31.64l.21.42c.09.17.35,0,.26-.12s-.15-.28-.23-.41S1.78,31.49,1.86,31.64Z"/><path class="cls-3" d="M2.22,31.76a2.39,2.39,0,0,0-1.62-2c-.18-.08-.35.18-.21.33.56.57,1,1.19,1.59,1.78A.14.14,0,0,0,2.22,31.76Z"/><path class="cls-3" d="M4.3,32.09c-1.65-.8-1.94-3.74-4.09-3.65-.21,0-.31.34-.07.39,2,.41,2.16,2.94,4,3.64C4.43,32.56,4.53,32.2,4.3,32.09Z"/><path class="cls-3" d="M4.41,28.93c-1-1.08-1.87-2.28-2.86-3.35-.15-.16-.45,0-.33.21A22.32,22.32,0,0,0,4.1,29.2C4.28,29.38,4.58,29.12,4.41,28.93Z"/><path class="cls-3" d="M3.88,26.7A6.09,6.09,0,0,1,2.13,25c-.11-.15-.38,0-.28.19A5,5,0,0,0,3.66,27C3.87,27.15,4.09,26.83,3.88,26.7Z"/><path class="cls-3" d="M49.73,36.68a4.27,4.27,0,0,0,4.09-1c.14-.14,0-.42-.21-.3a5.17,5.17,0,0,1-3.8.82C49.56,36.19,49.48,36.62,49.73,36.68Z"/><path class="cls-3" d="M51.39,38.68a3.33,3.33,0,0,1,1.47-.57c.18,0,.17-.33,0-.32a2.84,2.84,0,0,0-1.69.63C51,38.55,51.2,38.81,51.39,38.68Z"/><path class="cls-3" d="M51.31,33.25c1.41.45,2.51-.49,3.52-1.37s2.14-.94,3.25-1.46a1.35,1.35,0,0,0,.77-1.18c0-.19-.27-.3-.36-.12-.65,1.29-2.1,1-3.12,1.74-1.19.85-2.27,2.4-3.93,2A.21.21,0,0,0,51.31,33.25Z"/><path class="cls-3" d="M52.3,30.67c2.29-.09,4.53-1.68,6.36-3,.22-.15,0-.5-.25-.38-2,1-3.79,2.82-6.1,3C52.09,30.33,52.07,30.68,52.3,30.67Z"/><path class="cls-3" d="M56.34,27.13a1.75,1.75,0,0,0,1.75-1.2.19.19,0,0,0-.34-.16,1.61,1.61,0,0,1-1.44,1A.2.2,0,0,0,56.34,27.13Z"/><path class="cls-3" d="M11,51c-.75-.59-1.49-1.18-2.28-1.71-.17-.11-.39.12-.24.26.73.65,1.5,1.24,2.27,1.82C11,51.52,11.27,51.15,11,51Z"/><path class="cls-3" d="M10.34,49.76A31.86,31.86,0,0,1,6.4,47.07c-.13-.1-.32.11-.2.23a19.68,19.68,0,0,0,3.93,2.78C10.34,50.19,10.55,49.88,10.34,49.76Z"/><path class="cls-3" d="M8.89,48.15a32.75,32.75,0,0,1-3.1-2.39c-.14-.12-.34.12-.21.24a21.16,21.16,0,0,0,3.11,2.46C8.88,48.59,9.08,48.28,8.89,48.15Z"/><path class="cls-3" d="M7.82,46.55a31.18,31.18,0,0,1-3.16-2.31c-.14-.11-.33.11-.21.23a16.08,16.08,0,0,0,3.17,2.39C7.82,47,8,46.67,7.82,46.55Z"/><path class="cls-3" d="M6.29,44.14c-.8-.64-1.59-1.3-2.42-1.9-.15-.11-.36.13-.22.26.78.69,1.61,1.32,2.42,2C6.27,44.63,6.49,44.3,6.29,44.14Z"/><path class="cls-3" d="M6,42.67a13.49,13.49,0,0,1-3.17-2.24c-.15-.14-.39,0-.25.22A10.05,10.05,0,0,0,5.81,43C6,43.11,6.25,42.78,6,42.67Z"/><path class="cls-3" d="M4.77,43.35c-.32-.28-.64-.55-1-.81-.15-.11-.36.13-.22.26q.48.45,1,.87C4.75,43.83,5,43.51,4.77,43.35Z"/><path class="cls-3" d="M37.9,58.92c-2.17-1-4.44-.07-6.66.27a6.31,6.31,0,0,1-2.41-.08c-.68-.15-1.25-.71-1.94-.79-1.49-.16-2.81.77-4.31.46-.23-.05-.35.29-.12.35a4.37,4.37,0,0,0,2.5-.19c1.75-.51,3.1.52,4.78.7,2.76.29,5.28-1.47,8-.36C38,59.37,38.11,59,37.9,58.92Z"/><path class="cls-3" d="M30.73,58.41c-.42-.15-.85-.27-1.28-.38a.15.15,0,0,0-.1.29c.42.16.84.29,1.27.42A.17.17,0,0,0,30.73,58.41Z"/><path class="cls-3" d="M22.26,55.36,20.67,55c-.12-.12-.35,0-.26.17a1.4,1.4,0,0,0,2,.52A.2.2,0,0,0,22.26,55.36Z"/><path class="cls-3" d="M21.68,54.11a2.9,2.9,0,0,1-1.61-.69c-.16-.12-.37.12-.23.26a2.47,2.47,0,0,0,1.81.85A.21.21,0,0,0,21.68,54.11Z"/><path class="cls-3" d="M18.5,52.15a4.82,4.82,0,0,0-2.93-.95c-.18,0-.2.28,0,.29a5,5,0,0,1,2.75.95A.18.18,0,0,0,18.5,52.15Z"/><path class="cls-3" d="M18,50.13c-.68-.26-1.35-.53-2-.74-.18-.06-.26.2-.09.28.66.31,1.34.55,2,.81C18.14,50.56,18.25,50.22,18,50.13Z"/><path class="cls-3" d="M15.61,49.77c.15.14.38-.06.24-.2S15.46,49.63,15.61,49.77Z"/><path class="cls-3" d="M15.78,48.61c.16.15.41-.07.25-.22S15.62,48.46,15.78,48.61Z"/><path class="cls-3" d="M41.45,54.18a11.19,11.19,0,0,0-6.06-1.67.16.16,0,0,0,0,.31,13,13,0,0,1,5.9,1.65C41.46,54.58,41.65,54.3,41.45,54.18Z"/><path class="cls-3" d="M40.18,52c-.72-.19-1.43-.36-2.17-.48-.19,0-.23.26-.06.32.7.21,1.4.36,2.12.52C40.3,52.45,40.42,52.1,40.18,52Z"/><path class="cls-3" d="M35,51.53a3.5,3.5,0,0,1-3.18-.05c-.15-.07-.28.19-.13.27a3.67,3.67,0,0,0,3.44,0C35.25,51.72,35.12,51.45,35,51.53Z"/><path class="cls-3" d="M34.66,55.26a6.6,6.6,0,0,0-2.83-.13.15.15,0,0,0,.05.3,7.32,7.32,0,0,1,2.68.13C34.76,55.61,34.86,55.31,34.66,55.26Z"/><path class="cls-3" d="M29.73,54.63a12.72,12.72,0,0,0-3.64-.19.17.17,0,0,0,0,.33,27.09,27.09,0,0,1,3.6.23C29.94,55,30,54.67,29.73,54.63Z"/><path class="cls-3" d="M34.92,49.85c-1.84.66-4-2.32-5.6-.68a.17.17,0,0,0,.23.26c1.9-1.37,3.71,2.18,5.55.69C35.26,50,35.08,49.79,34.92,49.85Z"/><path class="cls-3" d="M28.51,48.29a1.83,1.83,0,0,0-1.35.19c-.2.1-.05.37.15.3l1.18-.13C28.73,48.67,28.74,48.33,28.51,48.29Z"/><path class="cls-3" d="M30.57,50.14a17.29,17.29,0,0,0-1.9-.11.18.18,0,0,0,0,.35,17.28,17.28,0,0,0,1.89.19A.22.22,0,0,0,30.57,50.14Z"/><path class="cls-3" d="M27,51.42c-1.43.47-3-1.36-4.25-.13a.15.15,0,0,0,.2.22c1.23-1,2.76.69,4.11.23C27.22,51.68,27.15,51.35,27,51.42Z"/><path class="cls-3" d="M25.05,52.35c-.42-.15-.84-.28-1.28-.39a.16.16,0,0,0-.1.31c.42.17.83.31,1.26.45A.19.19,0,0,0,25.05,52.35Z"/><path class="cls-3" d="M23.8,48.32c-1.49,1.27-3.19-.65-4.62-1-.19-.05-.29.23-.1.29,1.56.51,3.34,2.41,5,1C24.23,48.44,24,48.16,23.8,48.32Z"/><path class="cls-3" d="M19.44,49.26a4.39,4.39,0,0,0-2-1.16.16.16,0,0,0-.1.3,4.82,4.82,0,0,1,1.86,1.07C19.34,49.62,19.59,49.4,19.44,49.26Z"/><path class="cls-3" d="M21.76,46.93a4.21,4.21,0,0,0-3.52-1.17.15.15,0,0,0,0,.3,4.44,4.44,0,0,1,3.22,1.1C21.66,47.31,21.93,47.08,21.76,46.93Z"/><path class="cls-3" d="M36.52,43.81c-2.22,1.18-4.15-1.74-6.45-1.44-.17,0-.15.3,0,.29,2.29-.1,4.26,2.71,6.58,1.45C36.86,44,36.71,43.7,36.52,43.81Z"/><path class="cls-3" d="M36.09,42.94a3.79,3.79,0,0,1-1.85-.54c-.16-.09-.32.14-.16.23a4.52,4.52,0,0,0,2,.63A.16.16,0,0,0,36.09,42.94Z"/><path class="cls-3" d="M27.66,42.08a8.59,8.59,0,0,1-2.89,1.43.17.17,0,0,0,.06.33,6.08,6.08,0,0,0,3.05-1.51C28,42.19,27.83,42,27.66,42.08Z"/><path class="cls-3" d="M25.56,42.21l-.81-.39c-.16-.07-.28.19-.13.27s.49.29.74.42S25.76,42.32,25.56,42.21Z"/><path class="cls-3" d="M19.53,39.23A3.3,3.3,0,0,1,15,38c-.11-.18-.4,0-.29.15a3.54,3.54,0,0,0,5,1.37C19.86,39.42,19.71,39.13,19.53,39.23Z"/><path class="cls-3" d="M16.43,37.77a5.08,5.08,0,0,0-4.92-2.61c-.17,0-.15.29,0,.29a5.29,5.29,0,0,1,4.61,2.47C16.25,38.1,16.54,38,16.43,37.77Z"/><path class="cls-3" d="M9.57,35.41l-.77-.54c-.09-.14-.34,0-.25.13a1.33,1.33,0,0,0,.94.67A.14.14,0,1,0,9.57,35.41Z"/><path class="cls-3" d="M48.34,40.47a6.51,6.51,0,0,1-3.24.77,15.69,15.69,0,0,1-2.54-.62A2.91,2.91,0,0,0,39.43,42c-.1.15.13.31.23.16,1.46-2.23,3.45-.79,5.43-.57a5.86,5.86,0,0,0,3.39-.82C48.65,40.65,48.52,40.37,48.34,40.47Z"/><path class="cls-3" d="M47.08,42.62c-2.18,0-4.37-.13-6.55-.1-.21,0-.23.32,0,.33,2.18.08,4.37,0,6.55,0C47.25,42.91,47.26,42.62,47.08,42.62Z"/><path class="cls-3" d="M38.38,42.81a6.42,6.42,0,0,0-.74.14.17.17,0,0,0,.07.33c.25,0,.5-.06.74-.1A.19.19,0,0,0,38.38,42.81Z"/><path class="cls-3" d="M38,41c.16.15.41-.07.25-.22S37.85,40.89,38,41Z"/><path class="cls-3" d="M48.23,36.55c-1.7-.19-4.24,2.89-5.61,1.07-.11-.14-.35,0-.27.18,1.35,2.39,4.27-1.08,5.86-.95A.15.15,0,0,0,48.23,36.55Z"/><path class="cls-3" d="M46.91,38.77a4.69,4.69,0,0,1-4.36.4c-.17-.06-.25.2-.09.27a4.58,4.58,0,0,0,4.59-.39C47.22,38.94,47.09,38.65,46.91,38.77Z"/><path class="cls-3" d="M45.06,33a4.32,4.32,0,0,0,5.91.26c.16-.14,0-.36-.21-.24a4.14,4.14,0,0,1-5.43-.25C45.17,32.58,44.9,32.8,45.06,33Z"/><path class="cls-3" d="M51.3,30.77c-2.25-1-3.64,2.34-5.87,1.59a.16.16,0,0,0-.13.28c2.22,1.21,3.68-2.31,5.88-1.5C51.42,31.23,51.53,30.87,51.3,30.77Z"/><path class="cls-3" d="M50.77,31.83c-.86.24-1.72.51-2.55.83-.17.07-.07.34.1.3.87-.23,1.71-.51,2.55-.82A.16.16,0,0,0,50.77,31.83Z"/><path class="cls-3" d="M45.5,32.83c-1.16-.39-2.33-.76-3.52-1.07a.17.17,0,0,0-.1.33c1.15.4,2.33.74,3.52,1A.16.16,0,0,0,45.5,32.83Z"/><path class="cls-3" d="M15.89,32.17c-.77-.81-1-2-2.09-2.52a7.53,7.53,0,0,0-3.64-.49c-.17,0-.2.27,0,.28a9.75,9.75,0,0,1,3.13.39c1.23.42,1.52,1.73,2.36,2.56C15.79,32.54,16,32.32,15.89,32.17Z"/><path class="cls-3" d="M17.74,31.15A4.09,4.09,0,0,0,15,29.61c-.17,0-.23.27-.06.3a4.23,4.23,0,0,1,2.59,1.43C17.64,31.48,17.86,31.29,17.74,31.15Z"/><path class="cls-3" d="M15.73,30.93a3.2,3.2,0,0,0-3.66-2.28c-.17,0-.15.32,0,.31A3.13,3.13,0,0,1,15.43,31C15.5,31.21,15.79,31.11,15.73,30.93Z"/><path class="cls-3" d="M11.1,26.55a2.09,2.09,0,0,0-1.62-.24.16.16,0,0,0,.07.31,2.07,2.07,0,0,1,1.41.22C11.13,26.92,11.27,26.63,11.1,26.55Z"/><path class="cls-3" d="M11.93,31.72c-.43-.13-.86-.26-1.29-.37a.16.16,0,0,0-.1.3c.42.15.85.28,1.28.41C12,32.12,12.15,31.78,11.93,31.72Z"/><path class="cls-3" d="M31.71,24.5a1.9,1.9,0,0,0-2.12-.95,11,11,0,0,0-2.15.76A3.68,3.68,0,0,1,24,23.22a.16.16,0,0,0-.25.21,3.69,3.69,0,0,0,2.56,1.42c1.43.22,4.16-2,5.11-.19C31.5,24.87,31.82,24.71,31.71,24.5Z"/><path class="cls-3" d="M26,23c-2.14.24-3.32-2.66-5.5-2.07a.15.15,0,0,0,.06.29c2.15-.3,3.33,2.37,5.51,2.12C26.31,23.26,26.24,22.93,26,23Z"/><path class="cls-3" d="M22.88,23.37c-1.43-1.7-4-1-5.58-2.47-.15-.13-.37.05-.24.21,1.45,1.7,4.14.8,5.62,2.44A.13.13,0,0,0,22.88,23.37Z"/><path class="cls-3" d="M36.18,24.49a2.49,2.49,0,0,0-2.72-.09,14,14,0,0,1-1.83-1.26,4.65,4.65,0,0,0-2.32-.49.17.17,0,0,0,0,.33,4.91,4.91,0,0,1,3.83,1.9.2.2,0,0,0,.26,0A2.29,2.29,0,0,1,36,24.72C36.18,24.8,36.32,24.58,36.18,24.49Z"/><path class="cls-3" d="M31.08,25.67c-1.07-1.56-2.89.38-4.25,0a.15.15,0,0,0-.09.28c1.15.37,3.33-1.25,4.13-.12C31,26,31.18,25.82,31.08,25.67Z"/><path class="cls-3" d="M33.62,25.81c-.46,0-.91-.06-1.37-.06a.15.15,0,1,0,0,.29c.46.05.92.07,1.38.1C33.82,26.15,33.83,25.83,33.62,25.81Z"/><path class="cls-3" d="M57.29,33.62a5.2,5.2,0,0,0,1.84-1.8.17.17,0,0,0-.28-.19,6.47,6.47,0,0,1-1.73,1.65C56.91,33.41,57.08,33.75,57.29,33.62Z"/><path class="cls-3" d="M57.14,31.83a8.66,8.66,0,0,0,1-.57.18.18,0,0,0-.16-.33,10.32,10.32,0,0,0-1,.53A.21.21,0,0,0,57.14,31.83Z"/><path class="cls-3" d="M52.38,34.75a9.61,9.61,0,0,0-1.42,0c-.18,0-.2.32,0,.36a9.49,9.49,0,0,0,1.42.14A.25.25,0,0,0,52.38,34.75Z"/></g></g></svg>