<svg xmlns="http://www.w3.org/2000/svg" viewBox="0 0 20.99 27.16"><defs><style>.cls-1{fill:#48b17b;}.cls-2{fill:#ffc85f;}.cls-3{fill:#260029;}</style></defs><g id="Layer_2" data-name="Layer 2"><g id="_"><path class="cls-1" d="M6,21.56C4.89,19.41,3.38,17.5,2.2,15.4A11,11,0,0,1,.52,8.5,8.76,8.76,0,0,1,2.25,4.63a10.91,10.91,0,0,1,9-4.33,9.73,9.73,0,0,1,8.24,5.51,12.51,12.51,0,0,1,.81,2.56,9.08,9.08,0,0,1-.19,5.39A13.14,13.14,0,0,1,17.89,17a21.62,21.62,0,0,0-3.49,5.4c-.55,1.32-.94,2.78-2,3.74C9.21,29,7,23.6,6,21.56Z"/><path class="cls-2" d="M17.92,9.71a.51.51,0,0,1,.42.79,2.65,2.65,0,0,1-1.67,1.24,18.6,18.6,0,0,0-4.65,2C12.25,11.31,15.57,9.24,17.92,9.71Z"/><path class="cls-2" d="M3.34,11.79a1.37,1.37,0,0,1-.89-.73A.93.93,0,0,1,3,10,2.14,2.14,0,0,1,4.2,9.89a6.27,6.27,0,0,1,4.93,3.88c-.21-.53-.76-1-.87,0A48.38,48.38,0,0,0,3.34,11.79Z"/><path class="cls-3" d="M20.47,7a10.18,10.18,0,0,0-9.64-7C6.35,0,1.9,2.44.47,6.83c-1.91,5.84,2.42,9.85,5.35,14.32a.18.18,0,0,0-.05.17c.81,2.27,2.17,6.51,5.45,5.75,2.14-.5,3.15-3.92,4-6C17.93,16.3,22.56,13.46,20.47,7ZM20.39,11c-.3,4-3.46,6.32-5.31,9.49-1.3,1.72-1.55,4.62-3.37,5.82s-3.6-.68-4.34-2.14c-.42-.84-.68-1.77-1.13-2.59a.12.12,0,0,0,0-.17C4.43,17.7,1,15,.57,10.66,0,4.32,6,0,11.94.65A9.75,9.75,0,0,1,20.39,11Zm-8.73,2.59a.15.15,0,0,0,.13.23.18.18,0,0,0,.06.25c2.83,1.91,7-.74,6.75-4.1-.06-.1-.08-.13-.12-.14C15.38,8.45,13.16,11.3,11.66,13.56Zm.91.36.09,0S12.62,13.94,12.57,13.92Zm3.82-1.33s0,0,0-.05l.14,0Zm1.75-2.44a5.25,5.25,0,0,1-.25,1.11,6.09,6.09,0,0,0-4.19,1.22,6,6,0,0,0-1.51,1.18.08.08,0,0,0,0,.07l-.07,0a.2.2,0,0,0-.15,0C13.52,11.64,15.33,9.39,18.14,10.15Zm-8.8,4a.16.16,0,0,0,.13-.25c-1.59-2.33-3.92-5.25-7.09-3.82l-.06.07a.14.14,0,0,0,0,.09c-.29,3.52,4.14,6.15,7,4.16A.19.19,0,0,0,9.34,14.14Zm-4.6-.3.08,0,0,0ZM9.07,14l-.07,0S9,14,9,14a7.94,7.94,0,0,0-1.69-1.27A6.46,6.46,0,0,0,3,11.59a4.92,4.92,0,0,1-.28-1.16C5.63,9.59,7.55,11.94,9.19,14A.17.17,0,0,0,9.07,14Zm-.65,8.52c-.13.08,0,.3.1.22a3.79,3.79,0,0,1,3.73-.15.12.12,0,0,0,.11-.21A3.65,3.65,0,0,0,8.42,22.55Zm1.4-4a.19.19,0,0,0,.27-.25l.11-.06c.11-.07,0-.23-.07-.25a.49.49,0,0,0-.44.09.18.18,0,0,0-.07.19C9.64,18.46,9.7,18.49,9.82,18.58Zm1.94-.26a1.38,1.38,0,0,1,.34-.3c.14-.09,0-.26-.12-.25a.6.6,0,0,0-.52.34A.18.18,0,0,0,11.76,18.32ZM11,23.05a2.36,2.36,0,0,0-1.15.11.13.13,0,0,0,0,.26A10.36,10.36,0,0,0,11,23.3.13.13,0,0,0,11,23.05Z"/></g></g></svg>