<svg xmlns="http://www.w3.org/2000/svg" viewBox="0 0 22.14 22.09"><defs><style>.cls-1{fill:#896496;}.cls-2{fill:#260029;}</style></defs><g id="Layer_2" data-name="Layer 2"><g id="_"><path class="cls-1" d="M.85,8.35A10.4,10.4,0,0,1,7.44,1.1,13.1,13.1,0,0,1,14.08.76,9.78,9.78,0,0,1,17.5,2a8.6,8.6,0,0,1,1.86,1.65,11.19,11.19,0,0,1,1.94,11,10.94,10.94,0,0,1-8.81,6.85A10.81,10.81,0,0,1,.85,8.35Z"/><path class="cls-2" d="M11.09,22.09A11,11,0,1,1,22.14,11,11.06,11.06,0,0,1,11.09,22.09ZM11.09,1a10,10,0,1,0,10,10A10,10,0,0,0,11.09,1Z"/><path class="cls-2" d="M2.57,5.19c3.64,0,7.6-1,9.78-4.17a.29.29,0,0,0-.48-.34c-2.2,2.92-5.73,3.92-9.25,4C2.28,4.67,2.23,5.2,2.57,5.19Z"/><path class="cls-2" d="M.61,11.67C6.47,11.19,13.1,7.06,14.13.88c.06-.36-.5-.48-.62-.14C11.37,6.82,6.7,9.89.51,11.09A.29.29,0,0,0,.61,11.67Z"/><path class="cls-2" d="M1.32,15.3c6.06-2.51,12.6-6.73,13.54-13.74.06-.47-.68-.54-.74-.07-.89,7.18-7.44,10.17-13,13.45A.2.2,0,0,0,1.32,15.3Z"/><path class="cls-2" d="M5,19.76C11,19,20.33,8.44,15.72,2.37a.28.28,0,0,0-.48.23c.65,4,.33,6.93-2,10.35a17.36,17.36,0,0,1-8.34,6.39C4.64,19.44,4.78,19.79,5,19.76Z"/><path class="cls-2" d="M9.82,21.42A14.6,14.6,0,0,0,15.22,1a.43.43,0,1,0-.72.47c4.6,7.09,1.37,15-4.9,19.61C9.41,21.22,9.62,21.54,9.82,21.42Z"/><path class="cls-2" d="M15.38,2.39C20.1,6.6,19.94,13.62,17,18.73a.23.23,0,0,0,.34.31c4.55-3.33,3-14.47-1.72-17A.23.23,0,0,0,15.38,2.39Z"/><path class="cls-2" d="M.09,12.58c6.35,3.55,13.79,6.53,20.42,2.15.4-.27-.09-.83-.49-.57-6.75,4.37-13.26.88-19.73-2C.07,12.1-.12,12.46.09,12.58Z"/><path class="cls-2" d="M2.24,17.71c7,1.31,15.32-1.34,18.92-7.87a.27.27,0,0,0-.43-.31C16.1,15.46,9.84,18.29,2.28,17.29,2,17.25,2,17.66,2.24,17.71Z"/></g></g></svg>