<svg xmlns="http://www.w3.org/2000/svg" viewBox="0 0 106.4 62.51"><defs><style>.cls-1{fill:#fccc68;}.cls-2{fill:#ffe7b4;}.cls-3{fill:#e2783b;}.cls-4{fill:#260029;}</style></defs><g id="Layer_2" data-name="Layer 2"><g id="_"><path class="cls-1" d="M28.39,49C24.65,45.49,22.75,37.6,23,32.64A35.32,35.32,0,0,1,28.14,16,31.55,31.55,0,0,1,49.9,1.81C58,.44,67.65,3.4,73.81,8.39a48.15,48.15,0,0,1,9.71,19c2,8.08-.25,15.86-5.38,22.3A29.84,29.84,0,0,1,58.23,61.31c-3.15.43-9.12,1.21-12.17-.07-1.62-.68-2.88-2.32-4.55-3-1.85-.81-4.18-.73-5.84-2-1.46-1.1-1.83-2.77-2.94-4S29.73,50.23,28.39,49Z"/><path class="cls-2" d="M60.73,39.2C55.54,37,49.9,35.53,45,32.8c-3.91-2.17-7.13-5.12-11-7.43-1.69-1-5.58-3-8-5.34a36.44,36.44,0,0,0-1.64,4.45c.23.18.46.37.73.55,2.37,1.64,4.83,2.94,7.16,4.58,4.15,2.94,8.47,4.67,12.9,7.13,2.16,1.2,4,2.73,6.31,3.65,3.18,1.29,6.67,1.42,10.06,2.12,4.56.93,8.26,2.75,12.49,4.29a26.78,26.78,0,0,0,5,1.66,29.24,29.24,0,0,0,3-5.17c-2.47.5-5.06.07-7.69-.34A55.69,55.69,0,0,1,60.73,39.2Zm-18,9.53c-4.33-1.64-7.56-4.44-11.6-6.61a29.23,29.23,0,0,1-8-6.29,26.74,26.74,0,0,0,3.41,10.78,77.25,77.25,0,0,0,8,4.12c4.28,2,8.4,4.26,12.87,5.67s8.73,3.16,13,4.51l.07,0a29,29,0,0,0,8.28-3.06c.14-.22.27-.44.39-.67-3.63-1.81-8.75-2.23-12.64-3.06C51.66,53.12,47.31,50.49,42.68,48.73Zm3.6-37.48c8.42,3.23,16.64,7.6,24.92,11.55C74,24.15,80,28,83.24,26.28a56.73,56.73,0,0,0-2.85-8.61c-3.25,1.23-6.19-.15-9.17-1.7C68,14.32,64.4,12.78,61.14,11.19A91.19,91.19,0,0,0,50.47,6.6,16,16,0,0,1,44.2,3.3a32.25,32.25,0,0,0-4.46,2A11,11,0,0,0,46.28,11.25ZM84.21,32.48a15.14,15.14,0,0,1-3.91-.25c-8.86-1.51-17.41-5.93-25.43-9.91-4.27-2.12-8.19-4-11.93-7-1.75-1.44-3.51-2.73-5.36-4.08a16,16,0,0,1-2.73-2.73,29.53,29.53,0,0,0-4,3.89c1.77,1.66,2.89,3.79,4.92,5.23C38,19.2,40.83,20.5,43.27,22c4.93,2.93,9.1,5.42,14.62,7.27,5,1.67,9.57,3.9,14.61,5.49,3.59,1.14,7.93,1.56,11.22,3.43A24.29,24.29,0,0,0,84.21,32.48Z"/><path class="cls-3" d="M33.73,8.63c-5.51-.87-9.73-2.83-13.85-4-4.76-1.3-14-3-16.74-.8C-4.22,9.75,14.21,21.81,18.39,25.27,25.76,31.38,34,38.75,42.83,42.56c9.52,4.11,19.66,9,29.41,12.76,8.71,3.38,24.7,7.1,30.31,4.79,9.56-4-7.38-17.62-11.14-20.56a43.81,43.81,0,0,0-6.68-4.8,9.93,9.93,0,0,1-1.33,4.43c2.65,3.16,7.55,8.68.88,10.9-4.78,1.6-11.67-2.8-15.93-4.12A142.44,142.44,0,0,1,38.84,32.65C33,29.28,25.81,25.21,21.07,20c-2.82-3.13-4.88-8,.57-8.68,2.16-.25,4.89,1,7,.42,1.82-.53,2.7-2.35,4.74-3.13Z"/><path class="cls-4" d="M106.16,54.88a.23.23,0,0,0-.34-.16,15.32,15.32,0,0,0-1.2-3.47.2.2,0,0,0-.27-.09C99,44.42,91.62,39.72,85.1,34.24c-.19-.16-.41.16-.22.32C91.5,40.42,98.67,45.24,104.44,52c0,0,0,0,.08,0a34.88,34.88,0,0,1,1.13,4c-1.11,10.28-29.51.34-35.16-2-.29-.12-.44.32-.17.45s.57.27,1,.43a25.76,25.76,0,0,1-10.62,5.23c-3.67,1-7.48.23-11.12,1.26a18.92,18.92,0,0,1-2.49.1,5.9,5.9,0,0,1-3.19-1.33.21.21,0,0,0-.09-.27c-1.76-.93-3.68-1.51-5.47-2.4a35.26,35.26,0,0,1-5.42-3.37,7.19,7.19,0,0,0-4.76-4.6A32.48,32.48,0,0,1,23,38.7c-.73-2.8-.06-5.88-1-8.57C36.13,40.21,52.21,47.92,68.17,53.84c.23.09.35-.25.13-.35-5.74-2.66-11.74-4.33-17.39-7.3-5.21-2.73-10.39-5.53-15.47-8.49A171.27,171.27,0,0,1,7.73,17.79a.26.26,0,0,0,0-.29c-2.25-3.08-5.57-5.24-6.61-9.16-1.6-6.07,5.4-6,9.47-5.67C17.69,4.22,24.65,5.47,31.52,8a27.62,27.62,0,0,0-3,2.91c-4.28-.08-15.46-2.05-11,5.92a20.83,20.83,0,0,0,5.38,5.86.25.25,0,0,0,.1.08c.47.38.94.74,1.4,1.09a187.49,187.49,0,0,0,18.37,12.2c.22.13.46-.19.23-.34-6.52-4.24-13.36-8.18-19.37-13.15l-.2-.16C27,10.35,36.67,4.28,48.22.76A20.73,20.73,0,0,1,51.15,1,3.2,3.2,0,0,0,53.37.72c8.32.19,14.32,3.83,20.85,8.65a.19.19,0,0,0,0,.13,5.41,5.41,0,0,0,2.08,2.9,20.93,20.93,0,0,1,1.83,1.69,12.38,12.38,0,0,1,1.23,1.79.23.23,0,0,0-.12.29c4.77,11,6,22-1.6,32.14a.39.39,0,0,0,.18.57C72.72,48,67.94,46.05,63,44.73c-.22-.06-.34.26-.12.32,5.05,1.58,10.15,3.59,15.39,4.44,2.29.37,5.73.91,7.93-.15,5.21-2.51-.1-7.61-2.66-9.86-.16-.14-.41.13-.26.29,2.5,2.51,3.65,2.64,2.66,6.44-.85,3.3-.77,3.18-3.72,3.13-.85,0-1.71-.11-2.55-.2-.56-.06-1.12-.15-1.67-.24a.26.26,0,0,0,.17-.09c7.55-8.05,8-23.51,1.66-32.5a.22.22,0,0,0,.2-.22c-.08-2.86-3.82-4.05-5.09-6.37a.3.3,0,0,0,.14-.47C70.2,3.45,60.38-1,52.77.21A15.4,15.4,0,0,1,50.24.14,3.87,3.87,0,0,0,47.79.3a.2.2,0,0,0-.08.08A34.67,34.67,0,0,0,31.9,7.67C25.38,4.55,17.72,3.15,10.55,2.15,6.89,1,.86,1.37.08,6-.6,9.9,3.41,15.24,6.71,17.49A130.38,130.38,0,0,0,21.26,29.61c.94,4,.38,7.74,1.66,11.68,1,3.14,2.31,6.45,4.83,8.68a.25.25,0,0,0,.16.22,8.66,8.66,0,0,1,2.85,2,20.4,20.4,0,0,1,1.39,1.92.22.22,0,0,0,0,.23A17.81,17.81,0,0,0,37.34,58,20.15,20.15,0,0,0,43,60.38c1.74,2.32,5.21,2.54,7.77,1.62a.18.18,0,0,0,.13-.11c3.77-.4,7.45,0,11.16-1.15A25.76,25.76,0,0,0,72,55.59a.4.4,0,0,0,.14-.24C80.52,58.61,109.28,66.88,106.16,54.88ZM22.9,22C21,20.46,18,17.8,17.57,15.68c-1.25-6.67,7-4.37,10.5-4.27A22,22,0,0,0,22.9,22ZM54.68,41.32a4.1,4.1,0,0,0,1.31.55c.2.07.32-.25.11-.31a4,4,0,0,1-1.22-.51C54.71,40.91,54.52,41.19,54.68,41.32ZM53.83,41c-2.91-1.57-6.07-2.95-9.11-4.26-.23-.1-.42.27-.2.39a46.56,46.56,0,0,0,9.1,4.27C53.85,41.47,54.07,41.14,53.83,41Zm3.41,2.16,1.52.62a4.86,4.86,0,0,0,1.43.45.23.23,0,0,0,.15-.41A6.68,6.68,0,0,0,59,43.26c-.52-.2-1-.36-1.56-.51C57.12,42.67,57,43.07,57.24,43.17ZM92.69,57.36a.24.24,0,0,0-.17.44c2.74,1.22,14.81.75,11.22-4.63a.24.24,0,0,0-.41.2C104.93,58.45,95.76,58.3,92.69,57.36ZM4.25,5.32A.25.25,0,0,0,4,4.86C-2.3,7.65,15,22.49,17.92,24.21a.18.18,0,0,0,.21-.3C15.91,21.92-.86,8.11,4.25,5.32Zm17.27.87C16.6,4.75,10.7,2.7,5.54,3.8a.2.2,0,0,0,.07.39C11.13,4,16.1,5.41,21.44,6.55,21.65,6.59,21.72,6.25,21.52,6.19Zm3.84,1.12c-.66-.31-1.34-.54-2-.81-.22-.09-.42.26-.2.39.66.36,1.34.65,2,1C25.5,8,25.7,7.47,25.36,7.31ZM18.51,9.62c.2-.06.08-.38-.12-.35-1.77.29-4.06,1.1-4.35,3.15s1.16,4.22,2.33,5.66a.21.21,0,0,0,.35-.22c-.75-1.49-1.93-2.92-2.13-4.63C14.33,10.9,16.73,10.2,18.51,9.62Zm5.55,15.61c.19.14.38-.15.21-.3a49.05,49.05,0,0,1-5.59-4.79.2.2,0,0,0-.3.26A32.41,32.41,0,0,0,24.06,25.23Zm17.1,14c.23.11.44-.28.21-.4-7.45-4-14.23-9.11-21.59-13.29-.22-.13-.45.18-.23.33C26.48,30.58,33.59,35.51,41.16,39.19Zm2.39,1c-.2-.17-.5.15-.31.35a3,3,0,0,0,1.79,1,.23.23,0,0,0,.15-.41,4.63,4.63,0,0,0-.78-.37A4.12,4.12,0,0,1,43.55,40.2Zm7.34,1.94a175.21,175.21,0,0,1-21-12.77c-.21-.15-.42.17-.23.32A111.84,111.84,0,0,0,50.77,42.47C51,42.56,51.08,42.24,50.89,42.14Zm35.82-1.87c2.86,2.81,10.81,7.31,9.19,12.13a.28.28,0,0,0,.52.19c2.16-5-6.55-9.91-9.44-12.55C86.82,39.89,86.55,40.1,86.71,40.27Zm4.06.63c-.15-.14-.42.07-.26.23C92.69,43.25,104.1,51.05,99,54a.27.27,0,0,0,.23.48C105.92,51.9,92.72,42.69,90.77,40.9Zm-2.3,15.63C76.32,54.07,65.2,49.72,53.82,45c-.27-.11-.42.3-.16.42,11.1,4.84,22.64,10,34.77,11.53C88.68,56.93,88.7,56.58,88.47,56.53ZM10,7c.21,0,.21-.38,0-.37C8.45,6.69,7,7.24,7.21,9a8.73,8.73,0,0,0,2.65,4.89c.2.16.42-.09.35-.29C9.39,11.52,5.45,7.6,10,7ZM11,11a.2.2,0,0,0,.4,0c.11-.52.07-1,.73-1.09a.21.21,0,0,0,0-.41A1.16,1.16,0,0,0,11,11Zm1.87,4.85c-.21-.21-.58.08-.36.3a5.48,5.48,0,0,0,1.38,1.3.22.22,0,0,0,.27-.3A5.14,5.14,0,0,0,12.9,15.85ZM52.65,50.59a11.6,11.6,0,0,0-3.48-1.65c-.29-.11-.45.33-.16.46,1.15.51,2.3,1,3.45,1.55C52.69,51.06,52.82,50.73,52.65,50.59Zm-3.58,3.65a16,16,0,0,0-4.91-2.74A.26.26,0,0,0,44,52a37.15,37.15,0,0,1,4.87,2.58A.19.19,0,0,0,49.07,54.24Zm-3,.95a8.91,8.91,0,0,0-1.85-1.48c-.2-.17-.49.15-.31.34a9,9,0,0,0,1.87,1.45A.21.21,0,0,0,46.07,55.19Zm2.51,5.55c.23.1.43-.27.21-.4-4.66-2.56-9.93-3.64-14.14-7.05-.2-.16-.42.16-.23.33C38.45,57.14,43.8,58.53,48.58,60.74ZM46.15,49.57A15.22,15.22,0,0,0,44,48.44c-.26-.11-.49.31-.24.44a13.91,13.91,0,0,0,2.25,1A.21.21,0,0,0,46.15,49.57Zm.31-46.66c.24,0,.32-.33.09-.42a2,2,0,0,0-2,.42c-.22.15,0,.43.24.36A4,4,0,0,1,46.46,2.91ZM43,3.41C37,4.89,30.12,9.83,27.39,15.57c-.15.31.34.56.54.28,3.67-5.33,8.8-10.14,15.17-12C43.37,3.77,43.3,3.34,43,3.41ZM36.87,8.85a4.43,4.43,0,0,0-1.66,1.41c-.14.18.12.4.29.26a15.24,15.24,0,0,1,1.6-1.17C37.41,9.17,37.2,8.69,36.87,8.85ZM26.85,22c1.25-1.73,2.11-3.74,3.28-5.53a22.49,22.49,0,0,1,4.66-5.17c.2-.16,0-.45-.26-.3a25.15,25.15,0,0,0-8.09,10.78A.24.24,0,0,0,26.85,22Zm-.68-3.59a26,26,0,0,1-1,2.85.22.22,0,0,0,.39.2,6.41,6.41,0,0,0,1.15-3C26.78,18.06,26.24,18,26.17,18.36ZM78.73,42.57c4.2-4.46,2.54-11.61,2.43-17.12,0-.27-.41-.33-.44,0-.54,6.08,1,11.24-2.33,16.85C78.27,42.47,78.54,42.78,78.73,42.57Zm-2,1.37a9.23,9.23,0,0,1-.83,1.59.23.23,0,0,0,.34.31,2.94,2.94,0,0,0,1-1.72A.26.26,0,0,0,76.73,43.94Zm1.82-13.3a.26.26,0,0,0-.52.09,16.88,16.88,0,0,1-4.62,14.06.23.23,0,0,0,.25.38C77.87,43.14,79.74,34.77,78.55,30.64ZM71.89,44.07a8,8,0,0,0,2.41-6.55c0-.35-.58-.25-.54.1.27,2.42-1.08,4.17-2.19,6.16C71.46,44,71.7,44.25,71.89,44.07ZM59.12,2.68c-.33-.05-.37.45,0,.51,5.24.92,10.39,3.4,13.45,7.86.14.21.46,0,.36-.23C70.64,5.92,64.08,3.42,59.12,2.68ZM74.72,13a2.28,2.28,0,0,0-.75-1.2c-.23-.22-.61.1-.38.32a3.83,3.83,0,0,1,.73,1C74.43,13.34,74.77,13.26,74.72,13ZM76,13.8c-.21-.2-.57.08-.35.3.57.59,1.16,1.17,1.68,1.82A14.17,14.17,0,0,1,78.49,18a.24.24,0,0,0,.45-.14C78.82,16.24,77,14.81,76,13.8Zm-6.42-3.36a31.55,31.55,0,0,0-5.41-3.59c-.25-.14-.5.21-.26.36,1.86,1.13,3.64,2.36,5.47,3.52A.18.18,0,0,0,69.54,10.44Zm2.2,2.12c-.2-.17-.43.16-.23.33a14.33,14.33,0,0,1,4.84,7.57c.05.23.43.25.43,0C76.77,17.36,74,14.38,71.74,12.56ZM36.28,13.89a.23.23,0,0,0,.31.29,2.56,2.56,0,0,0,.92-.79c.3-.19,0-.84-.4-.51A2.78,2.78,0,0,0,36.28,13.89ZM29.77,24.74a16.23,16.23,0,0,1,1.79-5.1A26.07,26.07,0,0,1,35,15.39c.17-.18-.07-.48-.25-.3-2.54,2.55-5.46,5.71-5.41,9.56C29.35,24.87,29.71,25,29.77,24.74Zm1.66.9c1.28-2.54,1.63-5.46,4-7.35.22-.18-.06-.5-.29-.34C32.77,19.67,31.8,22.8,31,25.47A.25.25,0,0,0,31.43,25.64ZM38,18.24c-2.22,2.28-4.94,5.54-5,8.89,0,.26.37.37.46.11a21.74,21.74,0,0,1,1.71-4.62,22.19,22.19,0,0,1,3.21-3.95C38.58,18.41,38.23,18,38,18.24Zm-3,7.19a6.78,6.78,0,0,0-.68,1.87.22.22,0,0,0,.39.15,7.67,7.67,0,0,0,.76-1.85A.25.25,0,0,0,34.93,25.43ZM67.56,43.75c2.94-2.82,2.26-8.83,1.75-12.47,0-.28-.44-.2-.42.07.37,4,.86,8.64-1.65,12.11C67.09,43.66,67.38,43.93,67.56,43.75Zm2-.92a4.27,4.27,0,0,0,1.54-2.68c.05-.28-.44-.4-.5-.11a8.53,8.53,0,0,1-1.35,2.5A.21.21,0,0,0,69.53,42.83Zm-3.6.4a3.86,3.86,0,0,0,1.34-2.5c.06-.32-.42-.35-.48,0a4.4,4.4,0,0,1-.46,1.24c-.21.36-.5.66-.72,1A.22.22,0,0,0,65.93,43.23ZM50.79,59.66A26.32,26.32,0,0,0,68.65,55.9c.36-.23-.07-.73-.43-.5-5.21,3.37-11.34,4-17.39,3.79A.24.24,0,0,0,50.79,59.66Zm1.45-2c.29-.24.5-.15.81,0s.38-.2.26-.37a.88.88,0,0,0-1.44-.05C51.62,57.47,52,57.88,52.24,57.64Zm3.27-.21a29.06,29.06,0,0,0,10.35-2.38.3.3,0,0,0-.26-.55A33,33,0,0,1,55.44,57C55.15,57,55.24,57.45,55.51,57.43Zm6.65-2.76a.22.22,0,0,0,0-.44,4.21,4.21,0,0,0-2.11.18c-.28.09-.13.58.15.49C60.83,54.72,61.51,54.83,62.16,54.67ZM24.06,32.94c-1.46,4.06.85,8.81,2.67,12.38a.17.17,0,0,0,.31-.15c-1.54-3.78-3.82-7.92-2.62-12.09A.19.19,0,0,0,24.06,32.94ZM27.76,43c-.37-2.95-1.78-5.53-1.46-8.58a.24.24,0,0,0-.48-.05c-.53,2.88.7,6,1.6,8.74C27.49,43.35,27.79,43.23,27.76,43Zm.19,2a7.85,7.85,0,0,0,1.7,3.86.2.2,0,0,0,.33-.21A16.29,16.29,0,0,1,28.33,45,.19.19,0,0,0,28,45.08Zm2.88,1.31a18.86,18.86,0,0,1-2.21-10.34.21.21,0,0,0-.41,0,17.93,17.93,0,0,0,2.32,10.53C30.64,46.72,30.94,46.58,30.83,46.39Zm0-7.48A10.64,10.64,0,0,0,31,37.65c0-.26-.39-.31-.41,0a9.85,9.85,0,0,0-.14,1.32C30.44,39.14,30.76,39.11,30.79,38.91ZM32.64,46A21.63,21.63,0,0,1,31,41.2a.21.21,0,0,0-.42.07,12.5,12.5,0,0,0,1.72,4.89A.18.18,0,0,0,32.64,46Zm.06,4.61a5.3,5.3,0,0,0,1.2,1.07c.17.09.36-.15.27-.31A5.67,5.67,0,0,0,33,50.14c-.42-.41-.85-.77-1.28-1.15-.18-.16-.44.13-.28.3C31.86,49.74,32.26,50.19,32.7,50.62Zm2.17-.88c.27-.64-.08-1.07-.55-1.49-.24-.22-.63.08-.39.33a1.42,1.42,0,0,1,.54,1.07A.21.21,0,0,0,34.87,49.74Zm7,4.49a19.52,19.52,0,0,1-6.12-3.49c-.23-.18-.49.19-.26.37,1.86,1.5,3.86,3.14,6.27,3.6C42,54.77,42.11,54.31,41.84,54.23Zm-3.46.45a4.54,4.54,0,0,0,1,.54c.2.1.34-.17.23-.32s-.65-.36-.93-.59S38.15,54.5,38.38,54.68Zm2.77,1.24a28.05,28.05,0,0,0,6.38,2.33c.26,0,.36-.39.11-.46a47.41,47.41,0,0,1-6.35-2.25C41.05,55.44,40.92,55.81,41.15,55.92ZM50.67,9.36c-.19.22.14.48.35.33a2.37,2.37,0,0,1,1.68-.51,2,2,0,0,1,1.56,1.11c.13.23.52.15.46-.14C54.37,8.38,51.72,8.13,50.67,9.36ZM55,10.78c-.17.19.13.44.32.29a2.09,2.09,0,0,1,1.33-.46,8.26,8.26,0,0,1,1.21.31.23.23,0,0,0,.19-.37A2.16,2.16,0,0,0,55,10.78ZM72.12,22.5a4.62,4.62,0,0,1,.12,2.09.24.24,0,0,0,.1.19.24.24,0,0,0,0,.41,2.1,2.1,0,0,1,1.3,1.22,10.35,10.35,0,0,1,.21,1.65.23.23,0,0,0,.44,0A2.76,2.76,0,0,0,74.14,26a2.17,2.17,0,0,0-1.54-1.18l0,0c1-1.59-.34-3.41-1.76-4.1-.22-.1-.41.26-.2.38A3.27,3.27,0,0,1,72.12,22.5Zm2.37,10.2A2,2,0,0,0,75,31.19a1.28,1.28,0,0,0-1-1.05.24.24,0,0,0-.16.45c1,.41.37,1.17.23,1.91A.24.24,0,0,0,74.49,32.7ZM41.25,22.26a.23.23,0,0,0,.38.26,3.59,3.59,0,0,1,1.26-1.16,2.47,2.47,0,0,1,1.71.13c0,.14.26.27.4.14a3.14,3.14,0,0,1,.94-.64,1.92,1.92,0,0,1,1.18.1c.18,0,.41-.17.23-.33-.82-.77-1.83-.27-2.51.39a.1.1,0,0,0,0,0C43.42,20.12,42,21.06,41.25,22.26ZM33.6,41.9a.22.22,0,0,0-.16.42,1.8,1.8,0,0,1,1,.89,2.85,2.85,0,0,1,0,1.39.22.22,0,0,0,.4.15A1.81,1.81,0,0,0,35,43,2,2,0,0,0,33.6,41.9Zm1.24,3c-.3,0-.36.45-.05.48.72.08.85.52,1.11,1.1a.21.21,0,0,0,.38,0C36.56,45.61,35.63,44.9,34.84,44.92ZM42.9,32.3c.19.05.39-.16.24-.33s-.65-.45-.89-.77A1.45,1.45,0,0,1,42.1,30c0-.14-.07-.22-.19-.24a.15.15,0,0,0,0-.11,6.57,6.57,0,0,1-.9-.85,4.32,4.32,0,0,1-.51-1.19.22.22,0,0,0-.44.08A2.81,2.81,0,0,0,41.62,30,1.84,1.84,0,0,0,42.9,32.3ZM40.23,7.22a1.76,1.76,0,0,1,2.25-.69h.05a.17.17,0,0,0,.13,0,11.91,11.91,0,0,0,.94-.94c.16-.18-.12-.43-.29-.28a10.32,10.32,0,0,0-.8.82A2,2,0,0,0,39.83,7C39.68,7.21,40.05,7.48,40.23,7.22ZM51.88,2.33s0,0-.05-.05a2.2,2.2,0,0,0-2.2-.16.2.2,0,0,0,.17.37,2.13,2.13,0,0,1,1.82.19.2.2,0,0,0,.26-.1.24.24,0,0,0,.33,0,2.15,2.15,0,0,1,1.94-.37c.2.06.38-.22.18-.34A1.92,1.92,0,0,0,51.88,2.33ZM78.36,23.24a1.41,1.41,0,0,0,0-2c-.17-.18-.46.06-.29.25.54.59.23,1.18-.17,1.75a.19.19,0,0,0,0,.27,2,2,0,0,1,.77.82,5.65,5.65,0,0,1,.26.89.21.21,0,0,0,.38,0A1.89,1.89,0,0,0,78.36,23.24Z"/></g></g></svg>