<svg xmlns="http://www.w3.org/2000/svg" viewBox="0 0 40.6 40.6"><defs><style>.cls-1{fill:#a5a150;}.cls-2{fill:#c1ba3f;}.cls-3{fill:#260029;}</style></defs><g id="Layer_2" data-name="Layer 2"><g id="_"><path class="cls-1" d="M4.81,32.7C.93,27.23-.79,20.05,1.45,14.28A21.16,21.16,0,0,1,5.57,8c3.84-4.27,9-7.92,14.7-8a22.51,22.51,0,0,1,8.22,1.74c1.88.7,3.64,2.54,5.1,3.91a12.91,12.91,0,0,1,3.55,4.44c1.62,3.59,3.11,7.38,3,11.32A19.35,19.35,0,0,1,36,32.58c-2.44,3-4.6,4.24-8,6-1.77.92-3.7,1-5.67,1.33A18.19,18.19,0,0,1,4.81,32.7Z"/><path class="cls-2" d="M9.58,12.07c1,1.3,1.52,2.87,2.39,4.23s2.26,2.59,3.88,2.56,3.09-1.45,3.89-3a4.29,4.29,0,0,1,1.12-1.61c1-.76,2.49-.23,3.6.4s2.38,1.37,3.6,1c1.66-.54,2.43-3,4.18-2.95,1.1,0,1.86,1.1,2.88,1.51a6.27,6.27,0,0,0,2.05-2.08,2.18,2.18,0,0,0-.4-2.69C36.05,8.9,35,9.06,34.12,9c-2-.19-3.84-1.67-5.77-1.2a13.44,13.44,0,0,0-2.54,1.28,5.46,5.46,0,0,1-5.06-.2c-.7-.41-1.29-1-2-1.39a5.94,5.94,0,0,0-4-.79c-1.64.26-3.09,1.2-4.69,1.67s-3.62.3-4.49-1.12c.25.41-4.15,3.94-2.83,5.89S8.28,13.16,9.58,12.07Z"/><path class="cls-2" d="M3.05,23.65a12.73,12.73,0,0,0,5.06-.46,7.52,7.52,0,0,1,2.11-.49c1.3,0,2.48.83,3.78.85s2.7-.94,4.12-.93c1.91,0,3.39,1.75,5.27,2.13a5.81,5.81,0,0,0,4.28-1.13c1.26-.84,2.33-1.93,3.57-2.81a1.76,1.76,0,0,1,.75-.34,2,2,0,0,1,1.07.33,5.45,5.45,0,0,0,4.3.11,2.46,2.46,0,0,1,1.69-.34A1.36,1.36,0,0,1,39.83,22a3.93,3.93,0,0,1-.62,1.62,8.17,8.17,0,0,0-4.37-1C32.62,23,31.1,25,29.12,26.05a13.15,13.15,0,0,1-6.07,1.13,23.52,23.52,0,0,1-6.49-.59,25.56,25.56,0,0,0-3.7-1c-2-.23-4,.48-6,.32-1.42-.1-3-.61-4.19.11-.17.09-.36.22-.55.17a.64.64,0,0,1-.34-.41A4.11,4.11,0,0,1,1.5,23,2.9,2.9,0,0,0,3.05,23.65Z"/><path class="cls-2" d="M12.26,33.12c2.05.68,4.18,1.49,6.32,1.14,3.2-.52,5.53-3.5,8.69-4.24s6.3.81,9.36.12A12.34,12.34,0,0,1,32,35.86a2.06,2.06,0,0,1-1,.41,2.88,2.88,0,0,1-1.36-.47,5.08,5.08,0,0,0-5.32.61,5.24,5.24,0,0,1-1,.76c-.88.41-1.9,0-2.87-.09a4.37,4.37,0,0,0-3.52,1.32c-.28.3-.57.67-1,.73a1.46,1.46,0,0,1-.62-.08,17.76,17.76,0,0,1-7.62-3.87c-1-.93-2.54-2.21-.69-2.74C8.67,32,10.7,32.61,12.26,33.12Z"/><path class="cls-3" d="M20.3,40.6A20.3,20.3,0,1,1,40.6,20.3,20.32,20.32,0,0,1,20.3,40.6Zm0-39.32a19,19,0,1,0,19,19A19,19,0,0,0,20.3,1.28Z"/><path class="cls-3" d="M5.15,7.21c2.57,3,3.56,2.26,6.79.8,2-.89,4.23-1.45,5.89-.49.73.43,1.34,1.26,2.21,1.7,3.54,1.81,4.11,1.13,7-.37,4.36-2.26,5.71,2.75,9.63.24a.36.36,0,1,0-.39-.61C34.1,9.93,31.39,6.91,29,7.31a9.56,9.56,0,0,0-2.42,1c-3.68,1.66-4.77.85-8.25-1.06-.71-.39.06-.85-1.09-1-4-.59-8.19,4.68-11.74.63C5.32,6.65,4.94,7,5.15,7.21Z"/><path class="cls-3" d="M2.21,13.24a4,4,0,0,0,4,.68c1.17-.33,2.45-2.07,3.74-1.37a16.81,16.81,0,0,0,.84,2.6c1.09,2.41,3.77,5.29,6.7,3.61.82-.47,1-1.27,1.61-1.93q1.07-3.22,5.28-2.26a5.48,5.48,0,0,0,.93.67c.49.12.88.49,1.43.61,3.64.75,4.49-5.51,7.83-1.29a.38.38,0,0,0,.64-.11c.39-1.08,1.56-1.74,1.43-2.64a.36.36,0,0,0,.71,0v-.16a.38.38,0,0,0-.61-.32c-.45.3-1.9,2.34-2.06,2.34-.37,0-1.27-1.79-2-2-2-.42-2,1.5-3.28,2.51-2.69,2.2-5.59-2.18-8.69-.48-1,.56-1.11,1.32-1.87,2.08-1.55,1.54-.13,6.27-6.05,1.19-1.45-1.24-2-4-2.31-5.72A.36.36,0,0,0,9.89,11c-2.11,1.28-4.6,3.37-7.4,1.83C2.22,12.68,1.93,13.06,2.21,13.24Z"/><path class="cls-3" d="M1,22.54c3.48,5.16,9-2.66,12.23,1.84a.37.37,0,0,0,.44.1c1.81-1.13,2.84-.09,4.51-.2a14.07,14.07,0,0,0,1.69-.69c2,.19,3.07,2.09,5.36,1.95,2.59-.16,3.91-2.08,5.73-3.54s1.08-.8,2.94-.71,3.73-.27,5.64-.18a.39.39,0,0,0,.07-.77c-2.45-.13-5.27.69-7.5-.78a.39.39,0,0,0-.54.09c-2,3.54-7,7.84-10.53,2.56a.35.35,0,0,0-.49,0c1.38-1.1-5.59,1.09-6.12,1-1.37-.17-2-1.11-3.28-1.35-3.89-.71-5.93,4.8-9.76.37C1.12,22,.78,22.27,1,22.54Z"/><path class="cls-3" d="M1.8,26.83c3-1.55,5.38.41,8.33-.2,1.94-.39,2.23-.92,4.41-.28a45.37,45.37,0,0,0,4.58,1.07c2.72.51,5.77,1.06,8.42,0,4.08-1.59,5.92-5.89,11-3.81.43.18.68-.5.25-.68-3.73-1.55-5.63-.21-8.65,2-5.33,3.84-12.5,2-18.27-.27a.38.38,0,0,0-.37.06c-2.66,2.45-6.79-.32-10,1.59C1.23,26.49,1.45,27,1.8,26.83Z"/><path class="cls-3" d="M5.75,33.49c4.91-2.82,9.3,3.29,14.56.84,3.39-1.58,5.4-4,9.44-3.9,2.56.06,5,.67,7.5,0a.31.31,0,0,0-.11-.62c-3.23.57-6.45-.6-9.64-.05-2.7.46-4.55,2.47-6.93,3.6-5.72,2.71-10-4-15.07-.28C5.28,33.25,5.52,33.63,5.75,33.49Z"/><path class="cls-3" d="M31.13,36.32c-2.5-1.79-6.66-2-8.49.91a.28.28,0,0,0,.4.37,7,7,0,0,1,3.57-1.86,7.12,7.12,0,0,1,4.22,1C31.12,36.91,31.42,36.52,31.13,36.32Z"/><path class="cls-3" d="M23,37.15a5.18,5.18,0,0,0-4.4-.34c-1.09.37-2.88,1.36-2.89,2.69a.29.29,0,0,0,.47.25c.87-.76,1.29-1.61,2.44-2.08a6,6,0,0,1,4.11,0C23.06,37.75,23.32,37.34,23,37.15Z"/><path class="cls-3" d="M2.89,19.26a20.58,20.58,0,0,1,3.42-1.08,3.91,3.91,0,0,1,4,1.85c.17.21.55,0,.41-.26-2-3.3-5.11-2-8-1C2.34,18.89,2.57,19.37,2.89,19.26Z"/><path class="cls-3" d="M10.5,19.59C8,19.4,5.21,20.9,3.06,18.93a.31.31,0,0,0-.47.4c1.72,2.27,5.58,1.11,7.93.82A.28.28,0,0,0,10.5,19.59Z"/><path class="cls-3" d="M22.65,19.55A2.2,2.2,0,0,0,24.44,21a3.53,3.53,0,0,0,2.46-1.39c.19-.2-.14-.49-.35-.32a4.19,4.19,0,0,1-1.88,1.2c-.78.11-1.26-.5-1.59-1.12C22.93,19.07,22.5,19.27,22.65,19.55Z"/><path class="cls-3" d="M23.06,19.49c1-1.18,2.49-.82,3.47.1.19.18.53,0,.4-.25-.78-1.62-3.38-1.57-4.31-.16A.27.27,0,0,0,23.06,19.49Z"/><path class="cls-3" d="M33.72,17.08a2,2,0,0,1,2.68,0,.25.25,0,0,0,.33-.36,2.25,2.25,0,0,0-3.36,0A.27.27,0,0,0,33.72,17.08Z"/><path class="cls-3" d="M32.94,17.46c1.09,1.25,2.86.74,3.8-.44.18-.23-.15-.48-.36-.33-1.05.75-2,1.29-3.13.42C33,17,32.76,17.26,32.94,17.46Z"/><path class="cls-3" d="M10.32,30.77c2.35,2.11,5,1.51,7.21-.48.2-.18-.06-.48-.28-.32-2.21,1.59-4.37,2.34-6.62.35C10.36,30.09,10.06,30.54,10.32,30.77Z"/><path class="cls-3" d="M10.66,30.69c1.92-2.12,4.25-1.62,6.51-.36.27.15.54-.22.28-.4-2.34-1.67-5.25-1.83-7.17.49C10.09,30.65,10.46,30.9,10.66,30.69Z"/><path class="cls-3" d="M32,26.9c.85-.77,2.88-1.58,3.91-.78.2.16.5-.15.31-.33-1.19-1.12-3.53-.23-4.55.72C31.43,26.74,31.76,27.13,32,26.9Z"/><path class="cls-3" d="M31.67,27.1c1.78.81,3.57.74,4.64-1.11.12-.22-.15-.53-.36-.32-.53.53-1,1.19-1.75,1.38a4.42,4.42,0,0,1-2.37-.39A.23.23,0,0,0,31.67,27.1Z"/><path class="cls-3" d="M19.24,3.73a4.76,4.76,0,0,0,2.7,2.93,3.21,3.21,0,0,0,3.21-1.14c.2-.22-.06-.55-.3-.36-.86.7-1.83,1.42-3,1a4.62,4.62,0,0,1-2.22-2.61A.23.23,0,0,0,19.24,3.73Z"/><path class="cls-3" d="M19.49,3.9A4.79,4.79,0,0,1,24.7,5.49c.25.31.7-.08.47-.4A5.3,5.3,0,0,0,19.4,3.37C19.07,3.46,19.15,4,19.49,3.9Z"/><path class="cls-3" d="M12.44,5.1c.89-1.07,2.48-2.39,4-2.1.25,0,.34-.35.1-.43-1.68-.58-3.76.74-4.61,2.16A.32.32,0,0,0,12.44,5.1Z"/><path class="cls-3" d="M11.79,6.44C13.63,6,16,4.75,16.67,2.86a.24.24,0,0,0-.41-.22A8.3,8.3,0,0,1,11.71,6C11.4,6,11.48,6.52,11.79,6.44Z"/><path class="cls-3" d="M11.7,25.63a13.15,13.15,0,0,1,1.55-.88,9.91,9.91,0,0,0,1.35-.66c.22-.15,0-.44-.2-.42a6.62,6.62,0,0,0-3.06,1.53C11,25.42,11.41,25.82,11.7,25.63Z"/><path class="cls-3" d="M11.58,25.51a11.54,11.54,0,0,0,1.22-1c.31-.27.7-.6.74-1,0-.16-.15-.36-.33-.3-.4.12-.61.47-.88.78a10.29,10.29,0,0,1-1.09,1.1A.27.27,0,0,0,11.58,25.51Z"/><path class="cls-3" d="M10.11,25.9a6.46,6.46,0,0,0,3.71-2.17c.31-.37-.28-.92-.63-.57A10.5,10.5,0,0,1,10,25.45.24.24,0,0,0,10.11,25.9Z"/><path class="cls-3" d="M22.81,19.4c.4,1.31,2.84,1.63,3.56.43.19-.32-.13-.8-.51-.6a2.32,2.32,0,0,1-1.29.46,2.44,2.44,0,0,1-1.25-.6C23.11,19,22.73,19.12,22.81,19.4Z"/><path class="cls-3" d="M23.52,19.56a7.37,7.37,0,0,1,1.41-.08c.4,0,.74.14,1.07-.14a.34.34,0,0,0,0-.48c-.26-.4-.86-.35-1.29-.32a4.38,4.38,0,0,0-1.43.37C23,19.06,23.15,19.62,23.52,19.56Z"/><path class="cls-3" d="M24.16,19.73A1.58,1.58,0,0,0,26,19.54a.33.33,0,0,0-.16-.5A11.64,11.64,0,0,0,24.34,19C23.88,18.88,23.75,19.57,24.16,19.73Z"/><path class="cls-3" d="M33.07,17.58a5.84,5.84,0,0,0,1.18-.13c.44-.05.88-.06,1.32-.08.71,0,.84-1.1.11-1.11a4.31,4.31,0,0,0-2.81.69A.36.36,0,0,0,33.07,17.58Z"/><path class="cls-3" d="M33.73,17.46c.61.39,2,.38,2.12-.51a.35.35,0,0,0-.31-.38,1.29,1.29,0,0,0-.71.15,3.1,3.1,0,0,1-.86.07C33.63,16.79,33.39,17.25,33.73,17.46Z"/><path class="cls-3" d="M2.87,19.43a5.56,5.56,0,0,0,3,.7c1.1,0,2.49-.49,3.53-.09.34.12.82-.19.7-.58-.28-.89-1.11-.79-1.93-.73a25.72,25.72,0,0,1-5,.09C2.78,18.78,2.57,19.26,2.87,19.43Z"/><path class="cls-3" d="M3.74,19.28A16.93,16.93,0,0,0,6.49,19a10,10,0,0,1,2.57.19.4.4,0,0,0,.4-.57,2.09,2.09,0,0,0-2.21-.8,13.57,13.57,0,0,0-3.63.76A.35.35,0,0,0,3.74,19.28Z"/><path class="cls-3" d="M11.66,6.27C12.27,6,12.73,5.36,13.27,5a6.56,6.56,0,0,1,2.24-1c.73-.19.53-1.36-.21-1.17a6.79,6.79,0,0,0-2.49,1.21c-.59.45-1.48,1.16-1.52,2A.26.26,0,0,0,11.66,6.27Z"/><path class="cls-3" d="M12.44,5.77a4.3,4.3,0,0,0,1.71-.65c.45-.27,1-.57,1.23-1.1A.34.34,0,0,0,15,3.57c-.52.05-1,.53-1.42.79s-.94.55-1.39.88C11.93,5.43,12.16,5.81,12.44,5.77Z"/><path class="cls-3" d="M19.84,4.22a18.5,18.5,0,0,1,2.21.36,6.76,6.76,0,0,1,2,1.06c.35.23,1-.17.69-.59-1-1.53-3.3-1.57-4.91-1.46C19.44,3.62,19.5,4.17,19.84,4.22Z"/><path class="cls-3" d="M19.82,4.06c.73,1.38,2.71,3.28,4.31,1.85A.52.52,0,0,0,23.58,5c-1.38.65-2.27-.46-3.2-1.34C20.12,3.45,19.62,3.69,19.82,4.06Z"/><path class="cls-3" d="M21.32,4.57c.34.69,1.66,1.41,2.35.82a.31.31,0,0,0,0-.48,3.65,3.65,0,0,0-1-.27,6.2,6.2,0,0,1-1-.49C21.46,4,21.22,4.35,21.32,4.57Z"/><path class="cls-3" d="M20.28,4.4A2.37,2.37,0,0,0,21.23,6a1.1,1.1,0,0,0,1.54-.09.29.29,0,0,0-.21-.46A1.38,1.38,0,0,1,21.48,5c-.24-.28-.37-.63-.59-.93A.35.35,0,0,0,20.28,4.4Z"/><path class="cls-3" d="M20.88,4.59A1.31,1.31,0,0,0,22,5.32a.32.32,0,0,0,.19-.52c-.2-.28-.55-.4-.76-.71S20.61,4.18,20.88,4.59Z"/><path class="cls-3" d="M15.67,3.32a.63.63,0,0,0,.3,0c.25-.07.36-.46,0-.55a1,1,0,0,0-.38-.07A.34.34,0,1,0,15.67,3.32Z"/><path class="cls-3" d="M10.62,30.67A6,6,0,0,0,17,30.8c.59-.34.14-1.32-.47-1a6.25,6.25,0,0,1-5.59.27A.33.33,0,0,0,10.62,30.67Z"/><path class="cls-3" d="M11.05,30.65c.88-.19,1.73-.51,2.63-.62a8.12,8.12,0,0,1,2.54.31c.45.09.61-.55.29-.79-1.56-1.18-4.13-.3-5.64.54C10.59,30.24,10.71,30.72,11.05,30.65Z"/><path class="cls-3" d="M12.12,30.81a10.88,10.88,0,0,0,2.21,0c.65,0,1.42.08,1.94-.38a.37.37,0,0,0,0-.58,2.86,2.86,0,0,0-1.94-.08,11,11,0,0,0-2.29.4C11.66,30.28,11.83,30.76,12.12,30.81Z"/><path class="cls-3" d="M32,27.06a3.93,3.93,0,0,0,2.12.24c.59-.09,1.38-.23,1.51-.89a.37.37,0,0,0-.24-.38c-.48-.22-1,.19-1.45.29a5.07,5.07,0,0,1-1.78.05A.36.36,0,0,0,32,27.06Z"/><path class="cls-3" d="M32.75,26.79c.54,0,1.07-.18,1.61-.24s1,.11,1.37-.35a.39.39,0,0,0,0-.47l-.07-.11a.52.52,0,0,0-.51-.18,4.51,4.51,0,0,0-2.57.73C32.34,26.35,32.43,26.8,32.75,26.79Z"/><path class="cls-3" d="M35.55,26.07a.79.79,0,0,0,.47.14.3.3,0,0,0,.2-.54.76.76,0,0,0-.45-.19C35.46,25.44,35.26,25.92,35.55,26.07Z"/><path class="cls-3" d="M35.13,14.49a16.26,16.26,0,0,0,2.44-1.76c.45-.39-.12-1-.59-.7a17.43,17.43,0,0,0-2.21,1.9C34.52,14.18,34.78,14.71,35.13,14.49Z"/><path class="cls-3" d="M36.92,12.6c.3-.24.67-.36.95-.61s.15-.72-.22-.71a1.72,1.72,0,0,0-1.29.81C36.09,12.45,36.59,12.87,36.92,12.6Z"/><path class="cls-3" d="M37.43,12.48a3.23,3.23,0,0,1,.41-.22c.2-.12.24-.46,0-.54a.89.89,0,0,0-.85.22C36.61,12.22,37.07,12.77,37.43,12.48Z"/><path class="cls-3" d="M6.1,13.79a13.86,13.86,0,0,0,2-.48,1.76,1.76,0,0,1,2.1.67.27.27,0,0,0,.48-.15c.18-.82-.64-1.39-1.38-1.48-1.21-.14-2.15.78-3.29,1C5.7,13.35,5.79,13.81,6.1,13.79Z"/><path class="cls-3" d="M16.78,18.66a14.6,14.6,0,0,0,2.37-1.84c.61-.58,1.63-1.3,1.84-2.14a.34.34,0,0,0-.46-.42c-.78.36-1.31,1.34-1.91,1.93s-1.44,1.32-2.16,2C16.23,18.38,16.48,18.84,16.78,18.66Z"/><path class="cls-3" d="M24,27.58c2.06-1.06,4.58-2.4,5.8-4.46.13-.2-.08-.51-.32-.38a20.73,20.73,0,0,0-2.73,2.14c-1,.78-2,1.59-3,2.31C23.55,27.34,23.79,27.7,24,27.58Z"/><path class="cls-3" d="M21.66,27.55c1.88,0,4.33-.44,5.57-2,.19-.24-.11-.53-.36-.43-.82.34-1.54.9-2.38,1.23a11.21,11.21,0,0,1-2.85.7C21.35,27.07,21.37,27.55,21.66,27.55Z"/><path class="cls-3" d="M25.75,27.41a44,44,0,0,0,3.41-3.28,24.16,24.16,0,0,1,3-2.27.29.29,0,0,0-.15-.5c-1.29,0-2.22,1-3.07,1.9a41.25,41.25,0,0,0-3.56,3.8C25.17,27.3,25.52,27.6,25.75,27.41Z"/></g></g></svg>