<svg xmlns="http://www.w3.org/2000/svg" viewBox="0 0 61.06 58.78"><defs><style>.cls-1{fill:#a574af;}.cls-2{fill:#7d5b87;}.cls-3{fill:#bd3d2c;}.cls-4{fill:#280513;}</style></defs><g id="Layer_2" data-name="Layer 2"><g id="_"><path class="cls-1" d="M18.4,28a5.56,5.56,0,0,1,1.48-1.5,5.45,5.45,0,0,1,2.65-.62c2.7-.12,5.57.16,8-1.09A8.3,8.3,0,0,1,32.17,24a4.6,4.6,0,0,1,1.53-.11,16.13,16.13,0,0,1,14.12,22A18.51,18.51,0,0,1,46.21,49C42.75,54.4,36.44,58.15,30,57.67c-4.11-.3-10.08-2.31-12.42-6a22.14,22.14,0,0,1-2.76-15.14A20.5,20.5,0,0,1,18.4,28Z"/><path class="cls-2" d="M20.05,28.36a3.79,3.79,0,0,1,1.8-.75,4.47,4.47,0,0,1,2.93.36,2.75,2.75,0,0,1,1.48,2.43,3.34,3.34,0,0,1-.32,1.19c-.9,2-4.42,5.14-6.75,3.43C17.44,33.75,18.64,29.52,20.05,28.36Z"/><path class="cls-2" d="M38.57,29.52c1.63,2,2.44,4.68,4.6,6a1.32,1.32,0,0,0,1.15.25A1.29,1.29,0,0,0,45,35a4.45,4.45,0,0,0-.67-3.65,10,10,0,0,0-2.76-2.63C39.91,27.54,36.11,26.55,38.57,29.52Z"/><path class="cls-2" d="M31,48.55a2.83,2.83,0,0,0-.61,2,2.25,2.25,0,0,0,1.68,1.67,4.73,4.73,0,0,0,2.47-.13,5.61,5.61,0,0,0,3.2-2c1-1.48.63-3.89-1.25-4.33S32.05,47.08,31,48.55Z"/><path class="cls-2" d="M42.64,41a6.88,6.88,0,0,0-.82,3c0,.62.12,1.36.69,1.6s1.33-.33,1.52-1a7,7,0,0,0,0-2,3.69,3.69,0,0,0-.08-1,.87.87,0,0,0-.67-.68c-.33-.05-.69.29-.58.61Z"/><path class="cls-2" d="M28.15,33.36a1.22,1.22,0,0,0-1.25.71,3.46,3.46,0,0,0-.28,1.5,1.33,1.33,0,0,0,.13.79.86.86,0,0,0,.29.28A1.84,1.84,0,0,0,29.67,36a1.54,1.54,0,0,0-1.4-2.11Z"/><path class="cls-2" d="M18.16,40.88a5.64,5.64,0,0,0-.44,3,4.92,4.92,0,0,0,1.51,2.27,1.73,1.73,0,0,0,.53.4,1.44,1.44,0,0,0,1.48-.37A3.23,3.23,0,0,0,22.1,43C21.75,41.66,19,38.33,18.16,40.88Z"/><path class="cls-2" d="M37.1,38.65a1.08,1.08,0,0,0-1.59-.2,1.42,1.42,0,0,0-.24,1.69,2.11,2.11,0,0,0,1.47,1,1.74,1.74,0,0,0,1.08-.07,1.33,1.33,0,0,0,.56-1.8,1.37,1.37,0,0,0-1.85-.45Z"/><path class="cls-3" d="M30.85,8a7.2,7.2,0,0,0,3.36,5.44c1.94,1.05,4.33.79,6.47.25s4.28-1.33,6.49-1.25,4.35,1,6.55.79a6.42,6.42,0,0,0,5.55-5.93A9.29,9.29,0,0,1,55,8.74a6.65,6.65,0,0,1-2.51-.23c-3-.93-4.59-4.35-7.42-5.76-4.25-2.15-9.41.56-13.93-.23A16.08,16.08,0,0,0,30.85,8Z"/><path class="cls-4" d="M15.25,45.79c-2.67-8.35-1-15.17,6.71-19.89a.49.49,0,0,0-.42-.88c-8.56,3.67-10.47,13.11-7,21.08C14.78,46.55,15.39,46.22,15.25,45.79Z"/><path class="cls-4" d="M21.1,25.34c2.83,2.16,8.09,1.72,9.56-1.88A.41.41,0,0,0,30,23c-1.24,1.21-2.16,2.32-4,2.58-1.64.24-3.07-.4-4.58-.92A.38.38,0,0,0,21.1,25.34Z"/><path class="cls-4" d="M30.77,24.09a11.91,11.91,0,0,1,12,3.79c.32.36,1,0,.74-.48-2.49-4.31-8.42-5.34-12.84-4C30.24,23.53,30.33,24.19,30.77,24.09Z"/><path class="cls-4" d="M14.13,45.58c2.5,12.07,17.64,16.53,27.22,9.63S52.84,34.31,43,26.65c-.65-.5-1.3.5-.71,1C50.73,35.16,49.92,47,41,53.89,31.25,61.32,18.88,56,14.83,45.36,14.68,45,14,45.18,14.13,45.58Z"/><path class="cls-4" d="M33.17,52.19c1.88.8,4-.32,5.07-1.9.91-1.31,1.2-3.49-.6-4.18-.25-.1-.53.24-.32.44,2.59,2.44-1.24,5.75-4,5.1A.29.29,0,0,0,33.17,52.19Z"/><path class="cls-4" d="M36.71,45.67a6.33,6.33,0,0,0-5.8,3.69c-.93,2.32,1.5,3.09,3.34,2.39a.29.29,0,0,0-.1-.55c-.71,0-2,.36-2.55-.33-.4-.53,0-1.37.33-1.83a6.4,6.4,0,0,1,4.8-2.83C37,46.19,37,45.68,36.71,45.67Z"/><path class="cls-4" d="M17.67,41.65c-.42,1.94.09,4.69,2.38,5.14a2.22,2.22,0,0,0,2-.54,2.46,2.46,0,0,0,.5-2.4,6.79,6.79,0,0,0-1-1.94,11.84,11.84,0,0,0-.95-1.17,3.13,3.13,0,0,0-1.32-1.08.33.33,0,0,0-.41.45,3.38,3.38,0,0,0,.84,1,9.71,9.71,0,0,1,.81.89,6.62,6.62,0,0,1,1,1.56,2.19,2.19,0,0,1,.12,2c-.72,1.16-2.36.46-3-.42a5.1,5.1,0,0,1-.56-3.47A.24.24,0,0,0,17.67,41.65Z"/><path class="cls-4" d="M35.66,40.21c.72.46,2.72,1.48,3.26.21s-1.38-2.27-2.29-2.06a.33.33,0,0,0-.2.54c.36.38.86.46,1.27.75.1.07.43.36.41.44s-.4.13-.53.13a4.78,4.78,0,0,1-1.64-.53C35.63,39.54,35.38,40,35.66,40.21Z"/><path class="cls-4" d="M26.64,34.26a2.2,2.2,0,0,0-.25,2.11,1.73,1.73,0,0,0,1.46.79c1.06.07,2.69-.54,2.5-1.86-.14-.95-1.25-1.76-2.07-2.09a.38.38,0,0,0-.35.66c.59.42,2.44,1.39,1.36,2.21a1.86,1.86,0,0,1-2.21.09c-.43-.44-.16-1.18.05-1.65C27.26,34.23,26.79,34,26.64,34.26Z"/><path class="cls-4" d="M37.75,28.63c2.38,2.23,3.07,6,6.49,7a.38.38,0,0,0,.49-.23A6.45,6.45,0,0,0,43,29.19c-1.22-1.25-3.69-2.85-5.54-2.34a.32.32,0,0,0-.06.61c1.62.56,3,.66,4.46,1.81A5.72,5.72,0,0,1,44,35.14l.49-.23c-3.22-.94-4-4.68-6.37-6.7C37.89,28,37.51,28.41,37.75,28.63Z"/><path class="cls-4" d="M42,41.65a14.33,14.33,0,0,0-.33,2.66c.14.84,1,1.17,1.72,1.46a.28.28,0,0,0,.31-.1,4,4,0,0,0,0-5,.28.28,0,0,0-.49.23c.16.69.53,1.29.67,2a3.26,3.26,0,0,1-.61,2.5l.31-.09c-.82-.25-1.55-.56-1.44-1.52a20,20,0,0,0,.27-2.06C42.45,41.43,42,41.38,42,41.65Z"/><path class="cls-4" d="M42,41.87a1.49,1.49,0,0,0,.5-1.09.24.24,0,0,0-.45,0,1.5,1.5,0,0,1-.38.74C41.42,41.71,41.75,42.11,42,41.87Z"/><path class="cls-4" d="M20.3,28.24c-1.73,1.42-2.86,3.79-1.75,5.94a3.41,3.41,0,0,0,4.67,1.35c2-1,4.19-3.61,3.21-6s-4-2.79-6.12-1.85c-.37.16-.18.8.22.69,1.75-.51,4.14-.67,5.14,1.23,1.1,2.09-1.07,4.55-2.87,5.38a2.71,2.71,0,0,1-3.8-1.4c-.76-1.84.28-3.72,1.64-5A.26.26,0,0,0,20.3,28.24Z"/><path class="cls-4" d="M30.43,2c-.44,8.6.07,17.4.12,26,0,.75,1.11.89,1.18.11.77-8.55-.2-17.6-.74-26.14C31,1.61,30.44,1.64,30.43,2Z"/><path class="cls-4" d="M30.5,2.29c1.75,1.48,3.52,1.35,5.68.94,1.92-.37,4.07-1.33,6.07-1,2.59.4,4.56,2.59,6.18,4.43C52,10.72,54.59,10.76,59.5,7.93c.48-.28.14-1-.38-.8-3.95,1.92-6.61,2.58-9.65-.77a18,18,0,0,0-4.29-4c-4.67-2.67-9.94,2.31-14.25-.68C30.52,1.39,30.13,2,30.5,2.29Z"/><path class="cls-4" d="M31.28,11.93c3.62,5.67,10.08.86,15.5,1.3,6,.49,9.44.61,12.94-5,.33-.54-.48-1.11-.82-.57C55.37,13.29,52,12.55,46.28,12.2c-4.53-.28-11.14,3.58-14.47-.61C31.59,11.32,31.08,11.62,31.28,11.93Z"/><path class="cls-4" d="M31.05.41a.8.8,0,0,0-.13-.13c-.13-.13,0-.06,0,0A.54.54,0,0,0,30.49,0a.62.62,0,0,0-.66.53,2.77,2.77,0,0,0,.27,1.29c.15.44.32,1.2.88,1.25l-.34-.18a1.16,1.16,0,0,0,.37.29A.38.38,0,0,0,31.49,3a.83.83,0,0,0,0-.15c.07-.43,0,0-.07,0,.29-.11,0-.88-.08-1s-.19-.5-.27-.75L31,.78a.61.61,0,0,1,0-.13c0,.06,0,.09,0,0a.6.6,0,0,0-.25-.55c.07.17.16.35.24.52-.21.11-.42.24-.63.37-.08,0,.07.07.07.07C30.85,1.38,31.38.79,31.05.41Z"/><path class="cls-4" d="M9.23,55.1c.08-.1.07-.11,0,0l-.49-.17c-.11-.29,0-.26-.06-.08a1.14,1.14,0,0,0-.08.33c-.07.29-.12.57-.18.86a11.5,11.5,0,0,0-.32,1.83.44.44,0,0,0,.51.47,12,12,0,0,0,5.15-1.5.23.23,0,0,0-.2-.42,11.92,11.92,0,0,1-5,1.06l.39.48a11.76,11.76,0,0,1,.35-2c.07-.36.3-.95.08-1.3a.38.38,0,0,0-.57-.12.58.58,0,0,0-.19.31A.35.35,0,0,0,9.23,55.1Z"/><path class="cls-4" d="M18.85,55.1A157.52,157.52,0,0,0,44,40.65c4.7-3.24,14.74-9,15.21-15.59a.37.37,0,0,0-.32-.39A17.48,17.48,0,0,0,48,28.21c-.29.19,0,.7.33.52a23.42,23.42,0,0,1,5.16-2.56c1.54-.51,4.76-1.94,4.76.16,0,1.42-2.24,3.47-3.11,4.4a69.8,69.8,0,0,1-11,9.08,158,158,0,0,1-25.43,14.9A.21.21,0,0,0,18.85,55.1Z"/><path class="cls-4" d="M13,50.83c.45-.44.93-.87,1.38-1.31a6.82,6.82,0,0,0,1.22-1.3c.11-.19-.08-.51-.31-.37a7,7,0,0,0-1.3,1.2c-.45.46-.87.94-1.32,1.4C12.41,50.67,12.71,51.05,13,50.83Z"/><path class="cls-4" d="M10.37,26.1a22.2,22.2,0,0,0-6.88-3c-.18-.05-.42.08-.36.3,2.55,10.16,13.6,16.24,21.38,22.08,7.63,5.73,17.7,14.6,28,13.18a.32.32,0,0,0,.26-.36c-.47-3.14-2.75-6.05-5.27-7.87-.3-.22-.63.25-.33.48,2.5,1.85,7.06,6.91,1.49,7.17-2.78.13-6.5-1.93-8.9-3.17a104.16,104.16,0,0,1-14.45-9.65c-3.95-3-8.11-5.7-11.91-8.88a40.9,40.9,0,0,1-6.67-6.74c-.52-.69-3-3.73-2.26-4.94.93-1.43,4.27,1,5.59,1.85C10.35,26.69,10.64,26.28,10.37,26.1Z"/><path class="cls-4" d="M13.54,28.71c1,.48,2,.86,3,1.24.25.1.47-.28.23-.43a32.78,32.78,0,0,0-3-1.34C13.4,28,13.21,28.55,13.54,28.71Z"/><path class="cls-4" d="M56.61,34.19c.39.22.8.66,1.28.53.83-.22,1.15-1.63,1.38-2.29a.43.43,0,0,0-.35-.56c-.71,0-1.42,0-2.13,0-.22,0-.47.14-.47.38,0,.72,0,1.43,0,2.14a.45.45,0,0,0,.4.48c.51,0,1.51.06,1.79-.49a.6.6,0,0,0-.48-.84,1.72,1.72,0,0,0-.64,0l-.15.07-.19.07a.32.32,0,0,0,0,.57,2,2,0,0,0,.91.17l-.3-.16c-.09-.1.15-.37,0-.42l-.09,0c-.13,0-.28.05-.41.06l-.43,0,.39.48c0-.71,0-1.42,0-2.13l-.46.38c.74,0,1.5,0,2.24,0-.15-.18-.3-.37-.46-.55a9,9,0,0,1-.43,1.45c-.06.16-.18.47-.36.53s-.65-.25-.87-.35S56.37,34.05,56.61,34.19Z"/><path class="cls-4" d="M60.2,20.84a.36.36,0,0,0-.4.5c.15.31.35.88.77.91a.46.46,0,0,0,.39-.74l-.49-.59c-.34-.42-.9.1-.62.53.95-.36,1.08-.34.37.08A.35.35,0,0,0,60.2,20.84Z"/><path class="cls-4" d="M4.07,33.4c.46.37.74.91,1.19,1.3a3.14,3.14,0,0,0,1.93.6.46.46,0,0,0,.5-.41c0-.6,0-1.51-.66-1.76-.45-.16-.9.15-1.33,0-.59-.24-.92.67-.34.93a1.72,1.72,0,0,0,1.14.06c.11,0,.23,0,.15-.07.16.13.13.74.14.9.12-.17.24-.35.37-.52a1.83,1.83,0,0,1-1.6-.52,4.92,4.92,0,0,0-1.13-1A.32.32,0,0,0,4.07,33.4Z"/><path class="cls-4" d="M0,21.26c.16.59.32,1.56.87,1.94.7.48,1.12-.46,1.27-1s-.77-.95-.93-.34a2.32,2.32,0,0,0-.19.6q-.14.21.39,0l0-.06a.72.72,0,0,0-.11-.19c-.19-.39-.33-.81-.49-1.2A.4.4,0,0,0,0,21.26Z"/><path class="cls-4" d="M31.28,5.56a26.06,26.06,0,0,1,3-2.12c.23-.16,0-.48-.24-.39a7.72,7.72,0,0,0-1.66,1A10,10,0,0,0,31,5.23C30.8,5.43,31.06,5.76,31.28,5.56Z"/><path class="cls-4" d="M31.59,7.28h-.12c-.32,0-.37.51,0,.5a1.67,1.67,0,0,0,.67,0,.23.23,0,0,0,0-.43,1.5,1.5,0,0,0-.6,0c-.32,0-.37.5,0,.5h.12C31.87,7.79,31.91,7.27,31.59,7.28Z"/><path class="cls-4" d="M35.13,5.14A12.35,12.35,0,0,1,38.5,3.05a.24.24,0,0,0-.15-.45,8,8,0,0,0-3.52,2.19C34.63,5,34.91,5.35,35.13,5.14Z"/><path class="cls-4" d="M37.69,6.85a61.64,61.64,0,0,1,6.79-4.64.26.26,0,0,0-.22-.46A31.67,31.67,0,0,0,37.39,6.5C37.17,6.69,37.46,7,37.69,6.85Z"/><path class="cls-4" d="M39.56,9.27c.06-.3.76-.57,1-.63a.26.26,0,0,0,0-.52c-.65-.06-1.57.35-1.62,1.09A.32.32,0,0,0,39.56,9.27Z"/><path class="cls-4" d="M41.56,7.74a28.21,28.21,0,0,0,4.75-4.31c.22-.26-.17-.6-.42-.39-1.62,1.36-3,3-4.69,4.28C40.92,7.54,41.28,8,41.56,7.74Z"/><path class="cls-4" d="M39.84,13.27a89.35,89.35,0,0,1,8.59-7.19c.34-.26-.09-.75-.44-.51a59.65,59.65,0,0,0-8.48,7.32C39.29,13.11,39.6,13.5,39.84,13.27Z"/><path class="cls-4" d="M43.27,13.29c.84-.78,1.69-1.55,2.6-2.25a20.46,20.46,0,0,0,2.52-2c.18-.21,0-.62-.3-.45a24.2,24.2,0,0,0-5.18,4.29C42.67,13.12,43,13.54,43.27,13.29Z"/><path class="cls-4" d="M49.22,11.56C50,10.79,51,10.22,51.8,9.44c.24-.24-.1-.64-.35-.41-.8.78-1.75,1.37-2.54,2.15C48.68,11.4,49,11.78,49.22,11.56Z"/></g></g></svg>