<svg xmlns="http://www.w3.org/2000/svg" viewBox="0 0 63.57 56.66"><defs><style>.cls-1{fill:#7ccaea;}.cls-2{fill:#b39b17;}.cls-3{fill:#c28b13;}.cls-4{fill:#b4e9ff;}.cls-5{fill:#3b95bb;}.cls-6{fill:#260029;}</style></defs><g id="Layer_2" data-name="Layer 2"><g id="_"><path class="cls-1" d="M11.76,12.12a25.59,25.59,0,0,1,9.91-7.76,25.34,25.34,0,0,1,14-2.26C46.38,3.54,53,10.37,57.31,19.49,61.23,27.71,58.83,40,52,46a68.94,68.94,0,0,1-5.53,4.41c-2,1.39-4.66,2.1-7,3a24.27,24.27,0,0,1-16.07-.57,36.13,36.13,0,0,1-12.42-9.17A21,21,0,0,1,5.76,29.85c.07-3.11-.29-6.41,1.19-9.16,1.21-2.25,1.56-4.9,3.58-6.88Z"/><path class="cls-2" d="M32.83,8.33c.26-.88,1-1,1.56-1.56,1.21-1.29.44-2.35.44-4A4.59,4.59,0,0,0,34.76,2,25.52,25.52,0,0,0,21.67,4.36a25.59,25.59,0,0,0-9.91,7.76l-1,1.42,0,.07c1.4.41,2-.13,2.9-1,1.31-1.29,1.1-1.05,2.89-.88a3.21,3.21,0,0,0,2.74-1c.42-.36.65-1,1.21-1.25s1,.12,1.54-.14c1-.51,1.48-2.28,2.43-2.48s1.8,1.35,2.41,2.05c1.29,1.47,3.94,4.43,5.68,1.73C33.12,9.8,32.58,9.2,32.83,8.33Z"/><path class="cls-2" d="M30.79,18.65l.59.82C31.44,19.16,31.34,18.88,30.79,18.65ZM52,46c5-4.34,7.61-12,7.2-19-1.26-.66-3-.51-4.53-.45-.94,0-2-.08-3,0s-2.14,1.1-3.17.84a1.59,1.59,0,0,0-.43-2c-1.05-.83-2.22.16-3.23-.05-1.27-.27-1.11-1.6-2.31-2-.5-.17-1.14.29-1.56.13s-1-1-1.24-1.38a7.82,7.82,0,0,0-1.12-1.53c-.42-.3-1.16-.2-1.53-.48-1.3-1-.14-1.87-.79-2.9-.78-1.23-1.84.38-2.91.08-.68-.19-2.18-2.13-2.6-.23-.18.83,1.16,2,1.08,3l-.43-.59a11.72,11.72,0,0,0-.46,1.31c-.08.84.44,1.41,0,2.33-.67,1.3-2.75,2.47-2.4,4.17.22,1.13,1,1,1.73,1.63a16.56,16.56,0,0,0,1.87,1.79c1.48.91,3.12.1,4.52.64,1,.38,1.59,1.56,2.65,2s2,0,2,1.53c-.05,1.26-1.42,1.64-1.88,2.68-.68,1.52.49,2.05.72,3.23.15.77-.66.86,0,1.7a2.47,2.47,0,0,0,1.32.51c.86-.08.62-.65,1.21-1s.92-.19,1.31-.4a25.48,25.48,0,0,0,2.72-2.11c.59-.41.53-.53,1.26-.69.33-.08.9.24,1.45,0s1.85-2.87,2.86-1.46c.41.59-.49,2.41-.58,3.06a10.39,10.39,0,0,0,.45,3.25c.18,1.26-.64,1.65-.75,2.73a1,1,0,0,0,0,.29Z"/><path class="cls-2" d="M18.66,46.31a10.16,10.16,0,0,0,6.51-.9c1.21-.67,1.23-1.75,2.18-2.52s2.06-.64,3-1.35c2-1.52,2.23-3.39,2.48-5.75.11-1,1.1-2.25.25-3.08-.65-.63-2-.2-2.65-1.06-.85-1.07-.49-1.55-1.7-2.18-1.42-.75-1.35-.66-2-2.09-.27-.56-.11-.61-.53-1.09s-.91-.51-1.3-1c-.52-.68-.78-2.41-2.21-1.41-.93.66-.3,2.08-.68,3.05-.48,1.24-2.15,1.45-2.55,2.53-.18.49.5.91.36,1.46a17.54,17.54,0,0,1-1,1.94c-.43,1.17.33,1.43.79,2.39a10.71,10.71,0,0,1,1,4c-.05,1.5-1,1.19-2,2.44-.77.92-1.83,1.93-1.78,3.17.08,1.72,1.35,2,2.75,1.77Z"/><path class="cls-2" d="M7.77,37.42a10.47,10.47,0,0,0,.9-3.7,17.58,17.58,0,0,1,1-5.84c.33-.86,1.28-1.66,1.3-2.69s-.9-1.9-.83-3.08.52-1.61,0-3A10.47,10.47,0,0,0,8.86,16.2C8.14,17.67,7.71,19.26,7,20.69c-1.48,2.75-1.12,6-1.19,9.16A19.83,19.83,0,0,0,7.42,38,3.83,3.83,0,0,0,7.77,37.42Z"/><path class="cls-3" d="M28.32,46.64c0-1.5,4.13-4.73,4.42-2,.34,3.13-3.27,2.42-4.75,1.9Z"/><path class="cls-4" d="M38.15,8.69c2-.24,2.46,2,4.06,2.46,1.4.44,3.43-1.05,4.44-2-.36-1.12-1.51-.95-2.43-1.34-1.49-.64-.74-1-1.63-2.17-1.73-2.28-5,2.16-3.89,3.19Z"/><path class="cls-5" d="M46.42,50.44l.27-.2a4.16,4.16,0,0,0-2.31-.69c-2.18,0-4.56.84-6.5.83-1.07,0-2-.79-3.07-1a13.59,13.59,0,0,0-2.92-.06c-2.24,0-4.12-1.31-6.3-1.91-1.08-.29-1.66-.94-2.69-1.29-1.49-.5-2,.54-3.38.55a3,3,0,0,1-2.6-1.91c-.19-1.06.78-1.87.81-3.05-.59-.44-1.35-.73-1.93-1.23s-.89-1.44-1.49-2c-1.27-1.24-2.89-1.13-3.7-3s-1.24-2.33-2.06,0a24.56,24.56,0,0,1-1,2.89,21.21,21.21,0,0,0,3.41,5.4,36.13,36.13,0,0,0,12.42,9.17,24.27,24.27,0,0,0,16.07.57C41.76,52.54,44.47,51.83,46.42,50.44Z"/><path class="cls-6" d="M7.07,21.1c3-7.24,7.48-13.49,15-16.61a26.46,26.46,0,0,1,21.15.11c12.24,5.64,18.54,20,13.54,32.68A26.25,26.25,0,0,1,25.4,53C11.11,49.26,3,35.5,6.94,21.21c.07-.26-.31-.41-.4-.15-7.83,23,20,41.71,39.75,29.82C66.48,38.7,61.2,7.17,38.15,2.2,24.3-.78,11,7.82,6.7,21A.2.2,0,0,0,7.07,21.1Z"/><path class="cls-6" d="M58.34,26c-1.17.95-2.2-.29-3.41-.51s-1.88.57-3,.61c-.19,0-.27.25-.08.33a1.71,1.71,0,0,0,1.4-.05,2.82,2.82,0,0,1,2.69.05c1,.5,1.77.81,2.71-.07A.24.24,0,0,0,58.34,26Z"/><path class="cls-6" d="M52,26.09c-1.36-.6-2.66.19-3.55,1.21l.46,0c-.23-.33-.2-.22-.2-.51a4.27,4.27,0,0,0,0-1.13,1.68,1.68,0,0,0-1.41-1.24c-.17,0-.27.23-.12.31a2.33,2.33,0,0,1,1,.74c.33.57.08.86,0,1.41a1,1,0,0,0,.26.8.3.3,0,0,0,.47,0,3,3,0,0,1,3-1.16C52.13,26.53,52.18,26.17,52,26.09Z"/><path class="cls-6" d="M47.14,24.38a2.5,2.5,0,0,0-1.84.11,2.23,2.23,0,0,1-.91.17c-.59-.11-.64-.84-.9-1.26-.09-.14-.35-.14-.36.07a1.56,1.56,0,0,0,1.38,1.72,3.69,3.69,0,0,0,1.08-.25,5.72,5.72,0,0,1,1.48-.24A.18.18,0,0,0,47.14,24.38Z"/><path class="cls-6" d="M43.09,23.13a2,2,0,0,0-1.3-.35,2,2,0,0,1-.64-.07,5,5,0,0,1-.63-.38.15.15,0,0,0-.2.17,1.09,1.09,0,0,0,.92.8,5,5,0,0,0,.67,0,4.18,4.18,0,0,1,1,.16A.21.21,0,0,0,43.09,23.13Z"/><path class="cls-6" d="M42.72,23.28a.91.91,0,0,0,.26.29c.1.08.29,0,.25-.16A1.23,1.23,0,0,0,43,23C42.88,22.81,42.57,23.07,42.72,23.28Z"/><path class="cls-6" d="M40.67,22.47a21,21,0,0,1-2.41-2.78c-.82-.89-.42,1.32-1.57-1.26-.29-.66,0-2.09-1.19-2.17-.45,0-.36.19-.7.33s.18.32-.55.39c-.39,0-1-.51-1.4-.63a2.1,2.1,0,0,0-2.69.67c-.11.17.11.4.26.25,1.34-1.37,2.87.28,4.32.39.16,0,.23-.31.32-.31,1.26,0,.89.55,1,1.51.17,1.19.41.89,1.25,1.32,1.32.67,1.69,2.08,3.17,2.6A.18.18,0,0,0,40.67,22.47Z"/><path class="cls-6" d="M30.3,16.92c-.93,1.43.77,1.45.86,2.74,0,.38-.41.32-.5.71-.27,1.15.26,1.95-.34,3.17s-2,2-2.1,3.44c-.13,2.24,2.68,1.91,2.73,3.67,0,.23.36.37.44.09.76-2.74-3.57-1.36-1.84-5.18C30,24.64,31,24,31.2,22.9c.21-.91-.38-2.29.5-2.88a.18.18,0,0,0,.05-.22c-.34-.82-1.56-1.74-1.13-2.71C30.71,16.9,30.41,16.75,30.3,16.92Z"/><path class="cls-6" d="M31,30.53A2.71,2.71,0,0,0,33.65,32c1.43-.07,2.67-.94,3.81.28a.19.19,0,0,0,.32-.15c-.19-1-1.12-1.19-2-1.08-1.75.22-3.17,1-4.38-.82C31.25,30,30.87,30.29,31,30.53Z"/><path class="cls-6" d="M37.26,32a4,4,0,0,0,2.44,2c.87.15,1.73-.37,1.34,1a5,5,0,0,1-1.25,1.68,3.26,3.26,0,0,0-1.09,1.93,1.66,1.66,0,0,0,.33.92c.5.75.8.65.44,1.65a.18.18,0,0,0,.32.17,3.8,3.8,0,0,0,.65-1,.29.29,0,0,0-.07-.39c-3.2-2.18,2.48-3.78,1-6.54a.29.29,0,0,0-.36-.13c-2,.64-2.3-.66-3.52-1.58C37.32,31.62,37.16,31.86,37.26,32Z"/><path class="cls-6" d="M39.35,41.16A2.49,2.49,0,0,0,41.29,43c1.16.22,1.82-.65,2.06-1.68l-.4.18a2.64,2.64,0,0,0,2.64-.69.24.24,0,0,0-.26-.4,3.07,3.07,0,0,1-2.24.5c-.18,0-.31.13-.34.27-.43,2-2.4,1.25-3-.17A.2.2,0,0,0,39.35,41.16Z"/><path class="cls-6" d="M45.26,41a5.86,5.86,0,0,0,2.1-2.47l-.48.09c1.82,2.11,2.65-.65,4.31-1.34.19-.08.05-.37-.15-.3a4.77,4.77,0,0,0-1.53,1c-.77.7-1.32,1.25-2.2.25a.29.29,0,0,0-.48.09A7.3,7.3,0,0,1,45,40.73C44.86,40.87,45.08,41.11,45.26,41Z"/><path class="cls-6" d="M50.9,37.25c.34,0,.92-.13,1,.32a2.51,2.51,0,0,1-.36,1c-.24.51-.81,1.29-.61,1.88,0,.14.21.11.29,0a6.1,6.1,0,0,0,.63-1.25,6.42,6.42,0,0,0,.56-1.39c.22-1.09-.72-1.15-1.53-.94A.17.17,0,0,0,50.9,37.25Z"/><path class="cls-6" d="M50.84,40.43c.11.74.25,1.47.42,2.2.12.54.44,1.15.25,1.69-.32.92-1,1.73-1.33,2.71a.18.18,0,0,0,.28.19c.86-.69,1-2,1.72-2.78a.29.29,0,0,0,.07-.34c-.4-1.23-.68-2.49-1-3.74A.2.2,0,0,0,50.84,40.43Z"/><path class="cls-6" d="M33.39,34.94a1.61,1.61,0,0,0,0-1.86,1.73,1.73,0,0,0-1.88-.49c-.19.06-.09.32.07.35a2.46,2.46,0,0,1,1.35.46A1.31,1.31,0,0,1,33,34.74C32.94,35,33.27,35.16,33.39,34.94Z"/><path class="cls-6" d="M31.54,32.41a1.31,1.31,0,0,1-1-.78c-.17-.38-.26-.8-.43-1.19a1.45,1.45,0,0,0-2-.85.18.18,0,0,0,.06.34c.49.1.95,0,1.28.47a4.47,4.47,0,0,1,.46,1.13c.27.7.75,1.36,1.59,1.29A.21.21,0,0,0,31.54,32.41Z"/><path class="cls-6" d="M28.5,29.61c-1.57-.49-1.85-1.64-1.71-3.16a.29.29,0,0,0-.34-.31c-1.8.4-1.16-2.25-2.69-2.51a2.31,2.31,0,0,0-2,1c-.54.82-.11,2,.07,2.84a.19.19,0,0,0,.38,0c.07-1.14-.68-2.67.93-3.15.9-.26,1.06.43,1.33,1.11.39,1,.93,1.58,2.06,1.33l-.33-.3c-.15,1.74.24,3.32,2.19,3.6A.2.2,0,0,0,28.5,29.61Z"/><path class="cls-6" d="M22,26.85c-.65,1.26-2.42,1.51-2.92,2.81s.91,1.85-.57,2.71a.25.25,0,0,0-.11.32c.27.69.68,1.3,1,2a4.17,4.17,0,0,1,.22,2,3,3,0,0,0,.95,2.14.22.22,0,0,0,.33-.28,2.06,2.06,0,0,1-.31-2.68.27.27,0,0,0,0-.31c-.72-1-1.63-1.9-1.19-3.1.13-.35.48-.73.61-1.09a1.7,1.7,0,0,0-.24-.51,1.6,1.6,0,0,1,.61-1.67,7.71,7.71,0,0,1,.95-.73,2.77,2.77,0,0,0,1-1.44A.17.17,0,1,0,22,26.85Z"/><path class="cls-6" d="M20.29,38.71c.45.65-.35,1-.82,1.33a1.72,1.72,0,0,0-.62.66,6.28,6.28,0,0,0-1,2.13.16.16,0,0,0,.29.11,7.63,7.63,0,0,1,1.92-2.65c.65-.44,1.36-1.25.45-1.83A.17.17,0,0,0,20.29,38.71Z"/><path class="cls-6" d="M17.81,42.8l-.65.17a.22.22,0,0,0-.2.21c-.66,5.44,4.87,3.78,8.41,2.52,1.06-.37.94-.58,1.68-1.2,1.19-1,2.54-1.6,3.63-2.52A22.33,22.33,0,0,0,33,39.47c.45-.84.47-.62.26-1.56-.06-.22-.4-.16-.36.06.1.5-2,3-2.34,3.32-1.11,1.08-2.66,1.18-3.75,2.27-1.31,1.31-1.31,1.52-3.11,2-.95.23-1.94.5-2.91.67-1.48.26-4,.1-3.38-2.19.18-.68.21-.56.61-.93A.16.16,0,0,0,17.81,42.8Z"/><path class="cls-6" d="M32.77,38.26c.07-.61.19-1.22.31-1.82a7,7,0,0,0,.29-1.81c0-.28-.4-.25-.49-.05a7,7,0,0,0-.43,1.93,5.2,5.2,0,0,0,0,1.76A.17.17,0,0,0,32.77,38.26Z"/><path class="cls-6" d="M31.42,43.56c-1.08.38-4.07,1.6-3.4,3.2a.2.2,0,0,0,.16.12c1.51.07,3.62.27,4.57-1.21a2.17,2.17,0,0,0,.14-2.31c-.61-.73-1.52-.11-2,.4a.16.16,0,0,0,.21.25c.23-.15.68-.49,1-.44.7.1.61.82.5,1.29A1.73,1.73,0,0,1,31.69,46a5.4,5.4,0,0,1-2.49.43c-.27,0-.81.14-.9-.2s.79-1,1.07-1.18c.72-.45,1.55-.73,2.26-1.19C31.82,43.75,31.61,43.49,31.42,43.56Z"/><path class="cls-6" d="M10.3,14.47c.5.26,1.55-.08,2.07-.24A2,2,0,0,0,13.84,13c.06-.23-.24-.42-.38-.2a2.49,2.49,0,0,1-1.65,1.07c-.45.1-1.21,0-1.56.37A.15.15,0,0,0,10.3,14.47Z"/><path class="cls-6" d="M13.76,13c.54-.55,1.16-1,1.71-1.55h-.31a6.61,6.61,0,0,0,2,.55.17.17,0,0,0,.19-.27c-.48-.55-1.3-.34-1.9-.69a.26.26,0,0,0-.35.06c-.48.6-1.12,1-1.62,1.63C13.34,13,13.61,13.2,13.76,13Z"/><path class="cls-6" d="M17.06,11.91c1.91.52,2.42-1.65,3.94-2.24.16-.06.09-.29-.06-.31-.71-.13-1.22.39-1.63.9-.61.75-1.08,1.45-2.17,1.32C17,11.55,16.87,11.86,17.06,11.91Z"/><path class="cls-6" d="M20.81,9.56a1.94,1.94,0,0,0,2-.39,3.09,3.09,0,0,0,.39-.74c.18-.4.44-.75.63-1.13.1-.21-.2-.39-.35-.25a4.88,4.88,0,0,0-.89,1.57c-.34.68-1.06.6-1.74.57A.19.19,0,0,0,20.81,9.56Z"/><path class="cls-6" d="M24,7.17c1.4-.51,2.57,1.89,3.25,2.81s1.61,2.15,2.86,2.16a.23.23,0,0,0,.1-.44c-1.75-.64-2.51-2.13-3.61-3.52a5.81,5.81,0,0,0-1.41-1.39c-.56-.34-.78-.24-1.33.08A.17.17,0,0,0,24,7.17Z"/><path class="cls-6" d="M30.23,12a2.63,2.63,0,0,0,2.29-1c.5-.59.9-1.88.15-2.43a.18.18,0,0,0-.28.13c-.06.37.11.72.07,1.09a1.81,1.81,0,0,1-.56,1,4.19,4.19,0,0,1-1.74.86C30,11.71,30.08,12,30.23,12Z"/><path class="cls-6" d="M33,8.7a1.47,1.47,0,0,1,.29-1.13A4.29,4.29,0,0,1,34.35,7a.16.16,0,0,0-.05-.31,1.5,1.5,0,0,0-1.64,2.12C32.74,9,33,8.89,33,8.7Z"/><path class="cls-6" d="M34,7.07a2,2,0,0,0,1.1-1.72,1.85,1.85,0,0,0-1.18-1.79.19.19,0,0,0-.23.26c.26.49.75.81.84,1.4a1.84,1.84,0,0,1-.72,1.55C33.64,6.9,33.78,7.17,34,7.07Z"/><path class="cls-6" d="M34.31,3.74a1.19,1.19,0,0,1,.14-.94c.16-.21.4-.33.58-.53A.2.2,0,0,0,34.89,2c-.91,0-1.41,1.2-1,1.93A.25.25,0,0,0,34.31,3.74Z"/><path class="cls-6" d="M40.55,5c-1,.55-3.22,2.73-2.43,4a.25.25,0,0,0,.25.12c1.64-.19,2.19,1.47,3.4,2.23s2.41,0,3.13-1.09a.14.14,0,0,0-.2-.19c-.91.74-1.91,1.87-3,.73A19,19,0,0,0,40.3,9.19a3.16,3.16,0,0,0-1.63-.58s-.34,0-.23.13c-.23-.23.32-1.21.46-1.45a5.29,5.29,0,0,1,1.82-1.91C40.94,5.26,40.78,4.9,40.55,5Z"/><path class="cls-6" d="M40.87,5.4c1.36.06,1,1,1.39,2,.26.57.58.6,1.14.71a11.07,11.07,0,0,1,2.1.57c1.32.53-.41,1.13-1,1.57a.17.17,0,0,0,.14.29c.59-.12,2.12-.77,1.88-1.64-.19-.64-1.27-.82-1.82-.92A7.73,7.73,0,0,1,43.3,7.7c-.58-.22-.64-.76-.76-1.33-.19-.9-.68-1.7-1.72-1.26A.15.15,0,0,0,40.87,5.4Z"/><path class="cls-6" d="M8.51,16.93a3.3,3.3,0,0,0,.41,2.3c.18.31.87.83.94,1.13.14.54-.18.71-.32,1.17-.37,1.31,1,2.17,1.14,3.4a.19.19,0,0,0,.37,0,2.12,2.12,0,0,0-.36-1.4c-.15-.25-.39-.44-.52-.69-.49-.88-.18-1.44.39-2.18a.24.24,0,0,0,0-.27A4.23,4.23,0,0,1,9,17,.24.24,0,0,0,8.51,16.93Z"/><path class="cls-6" d="M10.58,24.79c.14,1.41-1,2-1.63,3.07-.12.21.08.54.34.39a3.22,3.22,0,0,0-.37-.2,6.33,6.33,0,0,1,.16,1.37c0,.6-.26.79-.55,1.3a1.56,1.56,0,0,0,.3,2.06c.14.16.45,0,.33-.22-.85-1.38.25-1.6.44-2.73A6.29,6.29,0,0,0,9.46,28a.28.28,0,0,0-.39-.19c.1.14.21.27.33.41.63-1.14,2.13-2,1.53-3.49C10.85,24.48,10.57,24.59,10.58,24.79Z"/><path class="cls-6" d="M9,32.53A21.13,21.13,0,0,1,8.06,36a6.71,6.71,0,0,0-.55,2.48c0,.2.28.17.35,0a18.17,18.17,0,0,0,1-3.12,12.07,12.07,0,0,0,.49-2.86A.18.18,0,0,0,9,32.53Z"/><path class="cls-6" d="M38.17,45.53c1.91,2.32,5.07,3.09,7.92,3.58.14,0,.2-.21,0-.25-2.85-.77-5.71-1.16-7.77-3.5A.13.13,0,0,0,38.17,45.53Z"/><path class="cls-6" d="M40.66,45.12a11.59,11.59,0,0,0,1.35,1c.12.06.28-.08.17-.19a11.52,11.52,0,0,0-1.35-1A.15.15,0,0,0,40.66,45.12Z"/><path class="cls-6" d="M42.73,46.5a10.42,10.42,0,0,0,5.12,1.4c.16,0,.13-.23,0-.26a19.94,19.94,0,0,1-5-1.4C42.66,46.17,42.57,46.42,42.73,46.5Z"/><path class="cls-6" d="M43.54,44.61a7.67,7.67,0,0,0,4.39,1.93c.15,0,.21-.21.06-.26a14.13,14.13,0,0,1-4.3-1.89C43.55,44.28,43.41,44.5,43.54,44.61Z"/><path class="cls-6" d="M46.39,44.78a5.66,5.66,0,0,0,1.33.6.15.15,0,0,0,.14-.26,5.68,5.68,0,0,0-1.3-.66C46.37,44.38,46.21,44.68,46.39,44.78Z"/><path class="cls-6" d="M35.07,46.67a11.23,11.23,0,0,0,1.46,1.11c.13.07.31-.08.18-.2a11,11,0,0,0-1.44-1.19C35.09,46.26,34.9,46.53,35.07,46.67Z"/><path class="cls-6" d="M37.81,48.39a16.06,16.06,0,0,0,5.42,1.85.13.13,0,0,0,.06-.25,46.32,46.32,0,0,1-5.35-1.85C37.79,48.07,37.66,48.32,37.81,48.39Z"/><path class="cls-6" d="M32.5,47.55c1.83,2,4.85,3.81,7.63,3.79a.14.14,0,0,0,0-.27,14.44,14.44,0,0,1-7.45-3.7C32.59,47.24,32.37,47.42,32.5,47.55Z"/><path class="cls-6" d="M30.47,48.7a2.09,2.09,0,0,0,1.1.88.16.16,0,0,0,.14-.27c-.31-.28-.66-.5-.94-.8C30.64,48.37,30.35,48.52,30.47,48.7Z"/><path class="cls-6" d="M32.33,50.07A11.49,11.49,0,0,0,36.73,52a.14.14,0,0,0,.06-.27,21.6,21.6,0,0,1-4.29-1.89C32.34,49.73,32.18,50,32.33,50.07Z"/><path class="cls-6" d="M29.2,49.9a12.18,12.18,0,0,0,3.94,2.21.13.13,0,0,0,.1-.25,41,41,0,0,1-3.87-2.2A.15.15,0,0,0,29.2,49.9Z"/><path class="cls-6" d="M26.6,49.83c.23.08.33.26.5.42a.13.13,0,0,0,.22-.15,1,1,0,0,0-.61-.56C26.51,49.47,26.4,49.77,26.6,49.83Z"/><path class="cls-6" d="M28.46,51.27a18.61,18.61,0,0,0,2.2,1.29.14.14,0,0,0,.13-.25A19.54,19.54,0,0,0,28.62,51C28.46,51,28.29,51.18,28.46,51.27Z"/><path class="cls-6" d="M25.13,50.8a6.16,6.16,0,0,0,1.52.9c.15.06.23-.16.09-.23a8.3,8.3,0,0,1-1.45-.89C25.15,50.48,25,50.7,25.13,50.8Z"/><path class="cls-6" d="M50.25,23.2a13.59,13.59,0,0,0,7.2,1.29c.16,0,.14-.26,0-.27C55,24,52.7,24,50.38,23,50.24,22.9,50.12,23.13,50.25,23.2Z"/><path class="cls-6" d="M51,24.54a1.08,1.08,0,0,0,1.2.4c.14,0,.15-.26,0-.26a1.73,1.73,0,0,1-1-.28A.11.11,0,0,0,51,24.54Z"/><path class="cls-6" d="M50,21.92a1.69,1.69,0,0,0,1.2.32.14.14,0,0,0,0-.28,2.46,2.46,0,0,1-1-.32C50,21.54,49.77,21.82,50,21.92Z"/><path class="cls-6" d="M52.55,22.76a12.92,12.92,0,0,0,3.5.33c.13,0,.13-.23,0-.23a21.2,21.2,0,0,1-3.46-.4C52.39,22.42,52.36,22.72,52.55,22.76Z"/><path class="cls-6" d="M50.42,20.09a9.69,9.69,0,0,0,5,1.28.14.14,0,0,0,0-.28c-1.68-.37-3.31-.42-4.87-1.25C50.43,19.75,50.25,20,50.42,20.09Z"/><path class="cls-6" d="M51.05,18.85l1.1.29a.14.14,0,0,0,.13-.25,2.35,2.35,0,0,0-1.15-.38C50.94,18.49,50.86,18.81,51.05,18.85Z"/><path class="cls-6" d="M53.37,19.37a4.07,4.07,0,0,0,1.93.18.13.13,0,0,0,0-.25,7.43,7.43,0,0,1-1.82-.22A.15.15,0,0,0,53.37,19.37Z"/><path class="cls-6" d="M52.05,17.77c.66.13,1.27.42,1.92.57.15,0,.23-.2.1-.28a6.27,6.27,0,0,0-2-.64C51.86,17.38,51.84,17.72,52.05,17.77Z"/><path class="cls-6" d="M10.74,17.25A17.58,17.58,0,0,0,15,23c.1.09.25-.08.16-.17A22.58,22.58,0,0,1,11,17.14.12.12,0,0,0,10.74,17.25Z"/><path class="cls-6" d="M12,16.63c.14.19.27.38.42.57s.29,0,.21-.14a6.65,6.65,0,0,0-.41-.62C12.11,16.29,11.88,16.48,12,16.63Z"/><path class="cls-6" d="M13.55,19.14a17.65,17.65,0,0,0,2.93,3.57.12.12,0,0,0,.18-.15A28.63,28.63,0,0,1,13.78,19C13.7,18.89,13.47,19,13.55,19.14Z"/><path class="cls-6" d="M13,15.53c1.32,2,2.45,4.07,4.35,5.57.12.09.24-.09.13-.18-1.81-1.53-2.92-3.66-4.27-5.57C13.06,15.2,12.85,15.39,13,15.53Z"/><path class="cls-6" d="M14.39,15.17l.32.42c.09.1.29,0,.22-.14l-.3-.48C14.52,14.81,14.28,15,14.39,15.17Z"/><path class="cls-6" d="M15.58,17.12c.64.64,1.15,1.39,1.82,2,.1.09.26-.08.17-.18-.61-.65-1.17-1.35-1.8-2C15.66,16.86,15.47,17,15.58,17.12Z"/><path class="cls-6" d="M15.71,14.25c.66,1,1.32,1.94,2,2.87.09.13.26,0,.18-.15-.64-1-1.33-1.93-2-2.89C15.81,13.94,15.61,14.11,15.71,14.25Z"/><path class="cls-6" d="M17.57,14.45l.31.43c.09.12.26,0,.18-.15l-.3-.44C17.67,14.15,17.47,14.32,17.57,14.45Z"/><path class="cls-6" d="M11.88,21.38a10.05,10.05,0,0,0,3.56,4.46c.15.1.28-.11.15-.22a13.91,13.91,0,0,1-3.45-4.36A.14.14,0,0,0,11.88,21.38Z"/><path class="cls-6" d="M11.44,23.23a6.16,6.16,0,0,0,.52.71c.1.11.3,0,.22-.15a7.1,7.1,0,0,0-.5-.76C11.56,22.86,11.32,23.07,11.44,23.23Z"/><path class="cls-6" d="M12.55,24.77a7.77,7.77,0,0,0,1.9,2.4c.1.09.25-.08.16-.18a12.45,12.45,0,0,1-1.83-2.33A.13.13,0,0,0,12.55,24.77Z"/><path class="cls-6" d="M12.16,26.37c.36.53.72,1.07,1.1,1.59.11.14.3,0,.21-.17-.36-.54-.74-1.06-1.11-1.59C12.26,26.06,12.06,26.23,12.16,26.37Z"/><path class="cls-6" d="M10.75,34.21a13.48,13.48,0,0,0,2.63,2.49.12.12,0,0,0,.14-.2c-.88-.8-1.66-1.74-2.57-2.5C10.82,33.9,10.65,34.09,10.75,34.21Z"/><path class="cls-6" d="M10.51,35.72a2.69,2.69,0,0,1,.63.58c.11.11.31,0,.24-.15a1.64,1.64,0,0,0-.69-.69C10.52,35.35,10.33,35.62,10.51,35.72Z"/><path class="cls-6" d="M12,37.23a17.48,17.48,0,0,1,1.58,1.64c.09.11.28,0,.21-.13A7.09,7.09,0,0,0,12.17,37C12,36.9,11.9,37.11,12,37.23Z"/><path class="cls-6" d="M10.09,37.25c1.41,1.4,2.67,3.34,4.49,4.24.14.07.24-.16.13-.25A17.94,17.94,0,0,1,12.26,39a14.11,14.11,0,0,0-2-2C10.15,37,10,37.13,10.09,37.25Z"/><path class="cls-6" d="M9.48,38.27a8.5,8.5,0,0,0,3.65,3.57c.12.06.22-.14.11-.21a10.62,10.62,0,0,1-3.45-3.51C9.68,37.93,9.37,38.07,9.48,38.27Z"/><path class="cls-6" d="M9.83,40a8.81,8.81,0,0,0,.62.85c.11.12.33,0,.25-.15a8.15,8.15,0,0,0-.61-.92C10,39.61,9.71,39.83,9.83,40Z"/><path class="cls-6" d="M11.57,42.43a13.08,13.08,0,0,0,2.22,1.92.12.12,0,0,0,.14-.2,25.85,25.85,0,0,1-2.16-1.89C11.65,42.15,11.45,42.31,11.57,42.43Z"/><path class="cls-6" d="M24.44,55.34a17.73,17.73,0,0,0,12.16.45c.16-.06.07-.31-.09-.29a26.42,26.42,0,0,1-12-.46A.16.16,0,0,0,24.44,55.34Z"/><path class="cls-6" d="M38.44,55.63c1.71-.51,3.79-1,5.17-2.15a.16.16,0,0,0-.17-.26c-.85.42-1.64.89-2.53,1.23s-1.71.58-2.56.9C38.2,55.41,38.28,55.68,38.44,55.63Z"/><path class="cls-6" d="M13.25,7.51C17.37,4.75,20.81,2.07,25.78,1a.15.15,0,0,0-.05-.3C21,1,16.47,4.2,13,7.25A.17.17,0,0,0,13.25,7.51Z"/><path class="cls-6" d="M29,.77C31.29.05,33.5.89,35.78.61a.15.15,0,0,0,0-.3c-2.21-.15-4.72-.69-6.84.14C28.75.52,28.85.83,29,.77Z"/><path class="cls-6" d="M6.66,16.6a16.23,16.23,0,0,0-1.43,3.32.13.13,0,0,0,.24.09,31.32,31.32,0,0,1,1.42-3.25C7,16.6,6.74,16.44,6.66,16.6Z"/><path class="cls-6" d="M6.15,13.82A29.13,29.13,0,0,0,1.54,27c0,.25.36.28.37,0,.32-4.86,2.2-8.87,4.46-13.1C6.45,13.82,6.24,13.66,6.15,13.82Z"/><path class="cls-6" d="M4.35,22.79A11.72,11.72,0,0,0,3.77,29a.14.14,0,0,0,.28,0,16.71,16.71,0,0,1,.59-6.05A.15.15,0,0,0,4.35,22.79Z"/><path class="cls-6" d="M60.55,25.93a31.86,31.86,0,0,1-2.08,12.56c-.06.15.18.28.26.13,2-3.79,2.46-8.48,2.08-12.7C60.8,25.78,60.55,25.78,60.55,25.93Z"/><path class="cls-6" d="M57.87,40c-1.06,1.36-2.13,2.74-3.12,4.15-.1.15.12.37.25.23a39.74,39.74,0,0,0,3.11-4.21A.15.15,0,0,0,57.87,40Z"/><path class="cls-6" d="M63.24,28.6c-.19.86-.28,1.75-.44,2.62,0,.13.19.21.26.09a6.89,6.89,0,0,0,.5-2.67C63.59,28.42,63.29,28.41,63.24,28.6Z"/><path class="cls-6" d="M62.72,32.68a47.34,47.34,0,0,1-6.44,12.45c-.11.14.1.34.23.21,3.22-3.46,5.12-8.1,6.45-12.57A.13.13,0,0,0,62.72,32.68Z"/><path class="cls-6" d="M50.47,49c.78-.52,1.56-1,2.32-1.6.18-.13,0-.38-.22-.26-.78.52-1.54,1.07-2.3,1.62C50.11,48.86,50.31,49.09,50.47,49Z"/><path class="cls-6" d="M47.25,3.65C51.46,7,55.13,10.33,57.59,15.21c.07.14.32.08.27-.09-1.3-5-6.48-8.77-10.45-11.7C47.26,3.31,47.11,3.54,47.25,3.65Z"/><path class="cls-6" d="M51.34,4.24a13.52,13.52,0,0,1,1.39,1.54c.1.12.32,0,.24-.15A5,5,0,0,0,51.54,4C51.35,3.81,51.16,4.1,51.34,4.24Z"/><path class="cls-6" d="M54.06,6.92c2.1,1.78,3.29,4,4.72,6.32a.15.15,0,0,0,.27-.13,14.82,14.82,0,0,0-4.79-6.48C54.09,6.48,53.89,6.77,54.06,6.92Z"/><path class="cls-6" d="M58.63,17.92a38.69,38.69,0,0,0,1.61,5.17.13.13,0,0,0,.25-.09c-.45-1.74-1-3.5-1.61-5.2C58.82,17.62,58.57,17.75,58.63,17.92Z"/><path class="cls-6" d="M59.9,18.12A17.11,17.11,0,0,0,60.62,20c.06.15.3.07.27-.09A15.87,15.87,0,0,0,60.2,18C60.15,17.85,59.85,18,59.9,18.12Z"/><path class="cls-6" d="M7.07,41.89c1.82,4,4.92,8.67,9.42,9.86a.17.17,0,0,0,.12-.32C12.13,49.66,9.43,46,7.28,41.79A.12.12,0,1,0,7.07,41.89Z"/><path class="cls-6" d="M9.15,49.05A15.49,15.49,0,0,0,12,52.25c.11.1.27-.08.17-.2C11.27,51,10.27,50,9.4,48.84,9.27,48.68,9.05,48.88,9.15,49.05Z"/><path class="cls-6" d="M.35,19.82c.52,0,.6-.81.08-.81S-.17,19.82.35,19.82Z"/></g></g></svg>