<svg xmlns="http://www.w3.org/2000/svg" viewBox="0 0 54.38 35.98"><defs><style>.cls-1{fill:#50778d;}.cls-2{fill:#a12b6e;}.cls-3{fill:#67a2c0;}.cls-4{fill:#6e3c50;}.cls-5{fill:#260029;}</style></defs><g id="Layer_2" data-name="Layer 2"><g id="_"><path class="cls-1" d="M24.31,1.19A9.08,9.08,0,0,1,27.25.5c2.61-.11,5,1.31,7.25,2.68.84.51,1.79,1.25,1.67,2.22s-1.12,1.42-2,1.75C31,8.34,27.79,9.56,24.42,9.57a6.42,6.42,0,0,1-1.8-.2A8.68,8.68,0,0,1,21,8.63c-2-1.1-3.72-1.81-1.87-4A12.71,12.71,0,0,1,24.31,1.19Z"/><path class="cls-2" d="M5,9.32C13.25,6.56,22.07,6,30.79,5.47c6-.34,12.15-.61,18,.78a8.76,8.76,0,0,1,4.41,2.12,3.65,3.65,0,0,1,.62,4.51A5,5,0,0,1,52.47,14c-6.41,4.07-14.33,4.82-21.92,5.14-3.09.13-6.19.21-9.29.21-5.08,0-10.35-.28-15.14-2.12C4.5,16.65,1.49,15.61,1,13.67.42,11.28,3.16,9.92,5,9.32Z"/><path class="cls-3" d="M37.74,12.29a1.62,1.62,0,0,1,.83.34A1.62,1.62,0,0,1,38.85,14c-.36,3.86-1.22,8-4.16,10.54a9.79,9.79,0,0,1-11,.68C21,23.59,15,16.55,19.17,13.89,24,10.87,32.45,11.3,37.74,12.29Z"/><path class="cls-4" d="M22.15,23.88a.88.88,0,0,1,.77.66,2.34,2.34,0,0,1-.7,2c-1.39,1.82-3.4,3.76-4.42,5.8a2.45,2.45,0,0,0-.39,1.5c0,.52.55.86.15,1.46s-2.7.79-3,.37c-.58-.73.8-.6,2-2.34C18.61,30.28,21.51,25,22.15,23.88Z"/><path class="cls-4" d="M33.19,25.66l6.33,7.66-.33,1.34s2.5.5,3.5-.5c-.34-.84-2.5-1-2.5-1-1-1.17-5.5-8.67-5.5-8.67Z"/><path class="cls-5" d="M14.21,35.45a5.09,5.09,0,0,0,4,.22c.22-.08.1-.43-.12-.38a8.41,8.41,0,0,1-1.88.23,9.11,9.11,0,0,1-1.86-.35C14.2,35.14,14,35.36,14.21,35.45Z"/><path class="cls-5" d="M15.56,35.31a7.22,7.22,0,0,1,1.14-.11.31.31,0,0,0,.06-.61,1.78,1.78,0,0,0-1.38.34A.22.22,0,0,0,15.56,35.31Z"/><path class="cls-5" d="M18.56,19.21C14.14,19,7.81,18.88,4,16.24c-4.23-2.93-1.34-6,1.75-7,1.17-.36,2.35-.68,3.54-1q4-1,8.09-1.67A91.19,91.19,0,0,1,34.7,5.5c5.36.17,12.39.15,17.2,2.65.27.14.51-.32.25-.47-6.1-3.54-16-2.95-22.91-2.74-8.31.25-17.51,1.34-25.32,4.38-2.56,1-5.53,3-2.89,5.81C4.74,19,13.56,19.55,18.52,19.56,18.75,19.56,18.79,19.21,18.56,19.21Z"/><path class="cls-5" d="M17.76,15.36c-.16,6.33,5.48,12.44,12.09,11.48C36.2,25.92,40.08,18.6,39,12.67a.35.35,0,0,0-.68.12c.84,5.16-1.94,11.4-7.2,13.07C24.47,28,18.28,21.91,18.21,15.4,18.2,15.12,17.77,15.07,17.76,15.36Z"/><path class="cls-5" d="M17.22,14.87c7.51-3.22,14.93-2.4,22.86-2.12a.22.22,0,0,0,0-.44C32.66,10.91,23.91,10.93,17,14.4A.26.26,0,0,0,17.22,14.87Z"/><path class="cls-5" d="M18.17,6.37A10.09,10.09,0,0,1,27,.78C30.74.59,33.19,2.26,35.5,5a.21.21,0,0,0,.36-.22C33-3.06,20.34-.3,17.7,6.2,17.58,6.51,18,6.65,18.17,6.37Z"/><path class="cls-5" d="M5.35,13.31A50.57,50.57,0,0,1,20.09,9.48c.34,0,.25-.56-.09-.52A42.19,42.19,0,0,0,5.19,13,.19.19,0,0,0,5.35,13.31Z"/><path class="cls-5" d="M34.08,8.37A43.39,43.39,0,0,1,46.42,11a.26.26,0,0,0,.18-.49A37.06,37.06,0,0,0,34.11,8C33.9,8,33.86,8.36,34.08,8.37Z"/><path class="cls-5" d="M11,15.7a24,24,0,0,0,3.43.9,4.34,4.34,0,0,0,2.34.1c.15-.07.07-.34-.1-.29a5.69,5.69,0,0,1-2.35-.19,25.56,25.56,0,0,1-3.21-.81C11,15.34,10.84,15.64,11,15.7Z"/><path class="cls-5" d="M43.3,14.08A11.43,11.43,0,0,0,45.15,14a.2.2,0,0,0,0-.4,11.44,11.44,0,0,0-1.85,0A.24.24,0,1,0,43.3,14.08Z"/><path class="cls-5" d="M51.88,8c7.3,7.34-9.28,10.28-13.44,11-.2,0-.2.37,0,.37,4.38-.14,10.58-1.49,14.09-4.28,2.58-2.05,2.06-5.49-.43-7.32C52,7.61,51.74,7.84,51.88,8Z"/><path class="cls-5" d="M23.05,22.51A7.79,7.79,0,0,0,34.73,22c.23-.27-.23-.59-.46-.32-3,3.44-7.65,3.5-11,.63C23.12,22.19,22.93,22.39,23.05,22.51Z"/><path class="cls-5" d="M16.73,33.83c2.39-2.72,4.54-5.67,6.78-8.51.18-.23-.18-.48-.36-.26-2.24,2.84-4.6,5.63-6.68,8.59C16.35,33.82,16.6,34,16.73,33.83Z"/><path class="cls-5" d="M16.49,33.8c1.86-3.26,3.63-6.58,5.41-9.88.14-.25-.22-.51-.36-.26-1.81,3.31-3.63,6.62-5.36,10C16.09,33.81,16.39,34,16.49,33.8Z"/><path class="cls-5" d="M32.75,25.3a55.49,55.49,0,0,0,7,7.78c.16.14.36-.14.19-.28A79,79,0,0,1,33,25.1.16.16,0,0,0,32.75,25.3Z"/><path class="cls-5" d="M34.32,24.48a41.92,41.92,0,0,0,5.84,8.72c.16.17.42-.06.27-.23a62,62,0,0,1-5.82-8.62C34.51,24.17,34.22,24.3,34.32,24.48Z"/><path class="cls-5" d="M14.65,35.28a5.25,5.25,0,0,1,1.53-1,1.13,1.13,0,0,1,1.57,1.07.22.22,0,0,0,.42.1c.31-.81-.46-1.57-1.22-1.71A2.88,2.88,0,0,0,14.39,35,.18.18,0,0,0,14.65,35.28Z"/><path class="cls-5" d="M39.51,34.71a1.58,1.58,0,0,1,1.3-1.53c.87-.09,1.24.59,1.62,1.21a.18.18,0,0,0,.33-.06c.1-1-1.08-1.68-1.94-1.61a1.88,1.88,0,0,0-1.69,2C39.15,34.94,39.49,34.92,39.51,34.71Z"/><path class="cls-5" d="M39.05,34.8a4.69,4.69,0,0,0,3.79-.36.19.19,0,0,0-.15-.32,16.24,16.24,0,0,1-1.66.44,5.83,5.83,0,0,1-1.91-.08C38.94,34.44,38.87,34.75,39.05,34.8Z"/><path class="cls-5" d="M40.22,34.45c.43-.43.8-.24,1.31-.32a.21.21,0,0,0,.12-.34c-.47-.57-1.4-.11-1.76.35C39.73,34.34,40,34.64,40.22,34.45Z"/><path class="cls-5" d="M34,25.62a28.08,28.08,0,0,0,3.71,4.78c.11.11.35,0,.25-.16a27.3,27.3,0,0,0-3.64-4.83C34.18,25.27,33.89,25.42,34,25.62Z"/><path class="cls-5" d="M19.16,30.6c.51-1,1.06-1.89,1.63-2.82a15.48,15.48,0,0,0,1.52-2.52A.22.22,0,0,0,22,25a10.27,10.27,0,0,0-1.75,2.59c-.52.91-1,1.85-1.44,2.8C18.68,30.62,19,30.82,19.16,30.6Z"/></g></g></svg>