<svg xmlns="http://www.w3.org/2000/svg" viewBox="0 0 65.68 61.83"><defs><style>.cls-1{fill:#7c77a6;}.cls-2{fill:#575b7b;}.cls-3{fill:#260029;}</style></defs><g id="Layer_2" data-name="Layer 2"><g id="_"><path class="cls-1" d="M8,35.65c-1.24-8.9,3-18.51,10.75-23a27.63,27.63,0,0,1,5-2.23,29.38,29.38,0,0,1,12.8-1.61,19.72,19.72,0,0,1,11.59,5.35A28.42,28.42,0,0,1,52.91,21a35.25,35.25,0,0,1,3,7.08,22.73,22.73,0,0,1-3.08,18.57,23.53,23.53,0,0,1-16,9.92,39.13,39.13,0,0,1-4.46.29,22.83,22.83,0,0,1-14.71-5.1,26.75,26.75,0,0,1-6.92-8A24.13,24.13,0,0,1,8,35.65Z"/><path class="cls-2" d="M7.86,33.47a11.2,11.2,0,0,1,5.47,3.9c1.46,1.75,2.67,3.7,4.2,5.39,2.6,2.87,6.08,4.92,8.29,8.11a5,5,0,0,1,.69,1.29c.14.45.18.93.3,1.38a4.92,4.92,0,0,0,4,3.22,12.73,12.73,0,0,0,5.33-.51c.24-.07.51-.16.59-.39a.65.65,0,0,0,0-.34,8.88,8.88,0,0,0-3.59-5.59,46.57,46.57,0,0,0-5.84-3.51,40.88,40.88,0,0,1-10.5-8.65c-1.66-1.92-3.18-4-5.32-5.39-.92-.59-2.1-1.29-2-2.38s1.46-1.55,2.56-1.72A19.1,19.1,0,0,1,17.58,28c5.23.71,9.45,5.28,14.73,5.51,1.22.06,2.45-.13,3.66,0,3.29.25,6.11,2.5,8.1,5.13S47.41,44.28,49.2,47a1.24,1.24,0,0,0,.51.53,1.26,1.26,0,0,0,1.09-.23,10.14,10.14,0,0,0,4.63-6.53,1.27,1.27,0,0,0,0-.67c-.13-.43-.6-.64-1-.83a8.19,8.19,0,0,1-2.85-2.2c-.76-.92-1.32-2.23-.77-3.29.73-1.42,2.82-1.39,4-2.46a3.36,3.36,0,0,0,.41-4.09,6.16,6.16,0,0,0-3.54-2.55,29.64,29.64,0,0,1-3.24-1c-4.17-1.85-5.61-7.61-9.88-9.21a3.85,3.85,0,0,1-1.74-.89c-.42-.5-.28-1.5.38-1.56A17.19,17.19,0,0,1,46.87,17c1.48,1.52,3,3.47,5.14,3.38.2-1.75-.91-3.37-2.12-4.65A23.71,23.71,0,0,0,25.67,9.56c-.33.11-.71.28-.78.63a1,1,0,0,0,.27.76,14.76,14.76,0,0,0,10.48,5.86,5.84,5.84,0,0,1,2.35.47,5.37,5.37,0,0,1,1.85,2.38c1.85,3.49,4.72,6.74,8.56,7.66.43.11,1,.3,1,.75a.77.77,0,0,1-.2.45,4.06,4.06,0,0,1-2.34.94c-.83.2-1.77.79-1.68,1.64.07.65.72,1.31.35,1.84a.84.84,0,0,1-1.07.16,3.31,3.31,0,0,1-.85-.82A11.24,11.24,0,0,0,37,29c-2.45-.48-5-.61-7.38-1.3-3.46-1-6.48-3.09-9.45-5.14A15.77,15.77,0,0,0,15,19.86a4.05,4.05,0,0,0-2.6.13c-1.3.59-1.92,2-2.44,3.36a30.08,30.08,0,0,0-1.74,4.93C8.13,28.83,7.48,33.36,7.86,33.47Z"/><path class="cls-3" d="M8.53,27.51C11.08,19,17.17,11.85,26,9.59A23.75,23.75,0,0,1,49.83,17a26.28,26.28,0,0,1,5,24C52.15,49.68,44,54.66,35.62,56.55a.36.36,0,0,0,.13.7c8.94-.93,17.49-7,20.18-15.78a27.48,27.48,0,0,0-5.74-25.71C36.89,1.23,11.79,8,8.07,27.41,8,27.67,8.45,27.77,8.53,27.51Z"/><path class="cls-3" d="M8.46,25.94C2.41,42.38,19.69,60.54,36.4,57.16c.39-.08.4-.74,0-.72-7.56.22-14.55-1-20-6.64C9.79,43,7,35.41,8.94,26.05,9,25.77,8.55,25.68,8.46,25.94Z"/><path class="cls-3" d="M16.05,14.77l.12.15c.13.14.4,0,.3-.19l-.1-.17A.19.19,0,1,0,16.05,14.77Z"/><path class="cls-3" d="M26.33,9.44A2.35,2.35,0,0,0,28.51,11a.17.17,0,0,0,0-.33,2.37,2.37,0,0,1-1.85-1.42C26.59,9,26.23,9.2,26.33,9.44Z"/><path class="cls-3" d="M29.22,11.12a8.15,8.15,0,0,0,1,.75c.16.09.39-.11.23-.26a9.86,9.86,0,0,0-1-.77C29.24,10.71,29.05,11,29.22,11.12Z"/><path class="cls-3" d="M31.69,12.5a5.6,5.6,0,0,0,3.89,1.43A18.19,18.19,0,0,1,38,14c1.92.32,2.88,1.45,3.8,3.06.11.19.41.05.31-.14-.75-1.42-1.55-2.67-3.17-3.14-2.57-.76-4.68.16-7-1.64C31.71,12,31.5,12.33,31.69,12.5Z"/><path class="cls-3" d="M42.75,18.46c2.15,3.08,4.16,8.07,8.81,7.12a.19.19,0,0,0-.07-.38c-4.63.4-6.25-3.77-8.5-6.94C42.88,18.09,42.64,18.3,42.75,18.46Z"/><path class="cls-3" d="M52.1,25.51a8.17,8.17,0,0,1,2.16,1.33c.66.56,1.06,1.33,1.66,1.92a.21.21,0,0,0,.35-.22,5.1,5.1,0,0,0-1.65-2,8.44,8.44,0,0,0-2.38-1.42C52,25,51.85,25.4,52.1,25.51Z"/><path class="cls-3" d="M25,10.14A4.49,4.49,0,0,0,27.4,12a.16.16,0,0,0,.11-.3A4.81,4.81,0,0,1,25.34,9.9C25.19,9.71,24.85,9.92,25,10.14Z"/><path class="cls-3" d="M28.1,12.25c1.87.36,3,2.09,4.79,2.58s3.68,0,5.47.82c.24.11.44-.28.21-.41-1.73-1-3.66-.43-5.53-.91s-3-2.12-4.91-2.45C27.89,11.84,27.87,12.21,28.1,12.25Z"/><path class="cls-3" d="M39.84,16.59c1.75,2.05,2.27,5.25,4.64,6.76.17.11.42-.13.25-.28-2.08-1.91-2.69-4.7-4.56-6.75A.21.21,0,0,0,39.84,16.59Z"/><path class="cls-3" d="M45.21,24a6.16,6.16,0,0,0,3.59,2.65c2.67.72,5-.11,6.79,2.61.13.2.46,0,.35-.23a4.41,4.41,0,0,0-2.74-2.29,23.18,23.18,0,0,0-3.34-.32,6.37,6.37,0,0,1-4.37-2.65C45.34,23.56,45.08,23.79,45.21,24Z"/><path class="cls-3" d="M38.88,18c3.11,3.32,4.89,8.56,9.74,9.73.22.05.34-.27.12-.33-4.8-1.28-6.45-6.33-9.6-9.63C39,17.58,38.73,17.8,38.88,18Z"/><path class="cls-3" d="M50,28c.2,0,.23-.31,0-.31S49.8,28,50,28Z"/><path class="cls-3" d="M51.69,28c.2,0,.23-.31,0-.31S51.49,28,51.69,28Z"/><path class="cls-3" d="M51.74,28a4.54,4.54,0,0,1,3.66,1.4c.19.16.43-.13.28-.31a4.58,4.58,0,0,0-4-1.4A.16.16,0,0,0,51.74,28Z"/><path class="cls-3" d="M38,16.12c-1.62-.61-3.46-.17-5.16-.3-2.11-.15-3.18-1.94-4.77-3.07-.16-.11-.39.13-.23.26,1.13,1,2.24,2.58,3.74,3.12,2,.7,4.29,0,6.33.39C38.1,16.57,38.17,16.2,38,16.12Z"/><path class="cls-3" d="M35.38,8.41C36.94,12.31,41.71,11,44.2,14c1.22,1.46,1.81,3.26,3.35,4.46,1.35,1.07,3,1.16,4.5,1.79.22.09.33-.24.13-.34-2.06-.94-4.07-1.13-5.66-3.09-1-1.18-1.5-2.67-2.63-3.74-2.59-2.44-6.23-1.15-8.15-4.83A.2.2,0,0,0,35.38,8.41Z"/><path class="cls-3" d="M37.25,8.59a1.88,1.88,0,0,0,1.52,1.88c.19,0,.25-.27.07-.33a1.53,1.53,0,0,1-1.11-1.5C37.73,8.33,37.25,8.28,37.25,8.59Z"/><path class="cls-3" d="M43.44,12.69c2.64,2.12,4.21,6.18,8.1,6.17.34,0,.39-.53.05-.53-3.69,0-5.37-3.9-8-5.89C43.46,12.32,43.29,12.57,43.44,12.69Z"/><path class="cls-3" d="M40.23,11a1.92,1.92,0,0,1,1.1.35c.18.11.4-.1.25-.27a1.6,1.6,0,0,0-1.31-.53C40,10.53,39.94,11,40.23,11Z"/><path class="cls-3" d="M11.77,20.75c7.74-2.91,11.43,6,17.76,7.92,2.06.62,4.19.4,6.3.69,4.64.65,7,3.68,9.43,7.28.11.17.41,0,.3-.2-1.4-2.33-3-4.81-5.35-6.24-3.36-2-7.51-1.07-11.09-2.36-5.94-2.16-10.37-10.26-17.52-7.43C11.37,20.5,11.54,20.84,11.77,20.75Z"/><path class="cls-3" d="M46.37,37.58a10.62,10.62,0,0,0,7,5.69c.29.07.47-.37.17-.45a10.51,10.51,0,0,1-6.72-5.44A.23.23,0,0,0,46.37,37.58Z"/><path class="cls-3" d="M54.42,41.07c-2.13-1.57-5.34-4-5.69-6.75-.52-4.15,4.73-3.49,7.34-3a.24.24,0,0,0,.1-.47c-2.68-.74-7-1.18-8.11,2.19s3.82,6.85,6,8.48A.27.27,0,0,0,54.42,41.07Z"/><path class="cls-3" d="M55.44,31.46a24.74,24.74,0,0,0-2.85-.09c-.21,0-.17.32,0,.34a26.12,26.12,0,0,0,2.8.14C55.65,31.85,55.69,31.48,55.44,31.46Z"/><path class="cls-3" d="M49.35,33.45a8.61,8.61,0,0,0,5.46,7.08.24.24,0,0,0,.17-.45,8.66,8.66,0,0,1-5.32-6.68A.16.16,0,0,0,49.35,33.45Z"/><path class="cls-3" d="M54.83,32a16.77,16.77,0,0,0-3.75.5,1.17,1.17,0,0,0-.91,1.15,5.9,5.9,0,0,0,2.93,4.53c.16.09.42-.12.25-.27a8,8,0,0,1-2.47-3.3c-.22-.67-.46-1.22.59-1.72a3.63,3.63,0,0,1,1-.14c.82-.11,1.64-.22,2.45-.35C55.17,32.4,55.09,32,54.83,32Z"/><path class="cls-3" d="M53.66,32.86a1.73,1.73,0,0,0-1.85,1.46,2.59,2.59,0,0,0,1.3,2.5.19.19,0,0,0,.21-.31,2.62,2.62,0,0,1-1.11-1.75,1.36,1.36,0,0,1,1.41-1.52A.19.19,0,0,0,53.66,32.86Z"/><path class="cls-3" d="M51.39,29.27c-1.48.08-3.87.23-4.84,1.55-.82,1.13-.44,3,.18,4.1.12.2.47.12.42-.13-.28-1.27-1.08-2.77,0-3.9s2.92-1.21,4.29-1.3C51.65,29.57,51.59,29.26,51.39,29.27Z"/><path class="cls-3" d="M47.24,28.67a3,3,0,0,0-2.07,3.07c0,.19.34.18.34,0a2.79,2.79,0,0,1,1.9-2.7C47.65,28.94,47.48,28.59,47.24,28.67Z"/><path class="cls-3" d="M48.71,38.63a9.25,9.25,0,0,0,5.06,3.84.21.21,0,0,0,.14-.39A13.32,13.32,0,0,1,49,38.37C48.85,38.16,48.57,38.42,48.71,38.63Z"/><path class="cls-3" d="M53.26,29.62a5.55,5.55,0,0,1,1.51.25c.45.15.83.44,1.27.61a.2.2,0,0,0,.22-.32,3.77,3.77,0,0,0-3-1C53,29.17,53,29.61,53.26,29.62Z"/><path class="cls-3" d="M27.91,9.12a10.47,10.47,0,0,0,4.22,2.39,24,24,0,0,0,2.92,1.11c.65.16,2.22-.21,2.7,0,.18.09.32-.2.16-.31-.35-.26-.37-.22-.8-.24a7.1,7.1,0,0,0-.92.17,5.3,5.3,0,0,1-2.26-.52c-2-.73-4.1-1.43-5.66-2.95C28.06,8.59,27.69,8.89,27.91,9.12Z"/><path class="cls-3" d="M30.19,9.5c1.31.8,5.76,2.69,5.47-.53,0-.25-.41-.22-.43,0-.2,2.52-3.57.86-4.87.18C30.18,9.07,30,9.39,30.19,9.5Z"/><path class="cls-3" d="M31.42,9.08a4.18,4.18,0,0,0,2.86.53c.2-.06.22-.36,0-.38-.44,0-.87,0-1.3-.06a4.92,4.92,0,0,1-1.36-.44C31.41,8.63,31.22,9,31.42,9.08Z"/><path class="cls-3" d="M8.5,27.81c6.68-4.23,12.12-1.6,18,2.24a12.92,12.92,0,0,0,4.25,2c3.54.78,6.45-1,9.72,2,.18.17.47-.05.3-.25a6.16,6.16,0,0,0-4.71-2.15c-3.57-.35-6,0-9.24-2.06-1.35-.86-2.55-1.94-3.95-2.71a13.53,13.53,0,0,0-14.63.5C8,27.54,8.26,28,8.5,27.81Z"/><path class="cls-3" d="M9,25.74a15.39,15.39,0,0,1,15.48,1c.17.12.36-.14.19-.26A15,15,0,0,0,8.83,25.4C8.62,25.52,8.77,25.85,9,25.74Z"/><path class="cls-3" d="M24.94,27.38a12.82,12.82,0,0,0,10.32,3.18c.19,0,.19-.36,0-.36-3.78.07-7.11-.64-10.1-3.11C25,27,24.77,27.24,24.94,27.38Z"/><path class="cls-3" d="M10.46,23.44a25,25,0,0,1,9.59,0c.19,0,.27-.29.08-.33a21.46,21.46,0,0,0-9.73.05C10.21,23.17,10.26,23.48,10.46,23.44Z"/><path class="cls-3" d="M10.66,22A5.65,5.65,0,0,1,13,21.57a.17.17,0,0,0,0-.34,4.56,4.56,0,0,0-2.54.37C10.27,21.7,10.43,22,10.66,22Z"/><path class="cls-3" d="M14.74,21.37A14.32,14.32,0,0,1,18,22c.22.06.34-.27.12-.34A13,13,0,0,0,14.78,21C14.56,21,14.52,21.36,14.74,21.37Z"/><path class="cls-3" d="M9.59,28.93c4.42-1.54,9.7-2.32,14,.13a.18.18,0,0,0,.21-.3c-3.8-2.92-10.26-2-14.34-.21C9.15,28.66,9.34,29,9.59,28.93Z"/><path class="cls-3" d="M25.61,30.26a15.41,15.41,0,0,0,6.93,3.49c.2,0,.27-.29.08-.35A19.32,19.32,0,0,1,25.83,30C25.64,29.8,25.43,30.11,25.61,30.26Z"/><path class="cls-3" d="M34.93,33.66c.9.25,1.8.5,2.71.73.2,0,.32-.26.11-.31-.9-.25-1.81-.48-2.71-.72C34.84,33.31,34.73,33.61,34.93,33.66Z"/><path class="cls-3" d="M45.74,41.15a20,20,0,0,0,5,7c.2.18.51-.15.32-.35A25.68,25.68,0,0,1,46.05,41,.17.17,0,0,0,45.74,41.15Z"/><path class="cls-3" d="M44.39,37.82c2.79,2.54,3.06,8.21,7.19,9.26a.21.21,0,0,0,.15-.39c-3.95-1.83-4-6.54-7.1-9.22C44.42,37.29,44.19,37.64,44.39,37.82Z"/><path class="cls-3" d="M47.67,41a9.9,9.9,0,0,0,4.18,4.68c.25.14.51-.22.26-.37A11.27,11.27,0,0,1,48,40.88.17.17,0,0,0,47.67,41Z"/><path class="cls-3" d="M49.53,42.33a4.47,4.47,0,0,0,3.64,2.16.21.21,0,0,0,0-.41,4.6,4.6,0,0,1-3.33-2C49.75,41.92,49.41,42.13,49.53,42.33Z"/><path class="cls-3" d="M8.33,31.81c.72.22,1.44.42,2.16.62.21.06.33-.24.12-.31-.71-.25-1.42-.48-2.14-.7C8.22,31.34,8.07,31.73,8.33,31.81Z"/><path class="cls-3" d="M11.81,32.81c4.94,2,6.5,7.15,10.32,10.43a22,22,0,0,0,5.25,2.92c4.77,2.29,7.83,5.23,9.09,10.5a.26.26,0,0,0,.52-.09c-1.26-6.52-5.36-8.9-10.87-11.56-6.05-2.91-8-10.09-14.17-12.58C11.71,32.33,11.57,32.71,11.81,32.81Z"/><path class="cls-3" d="M8.11,33.14c5.27,1.37,6.32,7.69,10.05,11s9.32,5.55,9.57,11.56c0,.28.51.27.51,0-.08-5.62-4.83-8-8.73-11.07C15.26,41.29,14,34,8.19,32.8,8,32.76,7.92,33.09,8.11,33.14Z"/><path class="cls-3" d="M11.53,33.89c3.2,2.75,4.92,6.68,8,9.52,4.25,3.88,9.9,6.4,10.83,12.76,0,.32.53.23.49-.09-.6-4.83-4.1-7.64-7.81-10.39a28.2,28.2,0,0,1-6.71-6.64,23,23,0,0,0-4.66-5.41C11.55,33.52,11.38,33.77,11.53,33.89Z"/><path class="cls-3" d="M14.12,35.18a62.35,62.35,0,0,0,7.13,8.43c2.91,2.72,7.62,4.11,9.85,7.37.11.16.38,0,.28-.18C29.77,47.92,26.08,47,23.57,45,20,42.2,17.16,38.53,14.4,34.94,14.25,34.75,14,35,14.12,35.18Z"/><path class="cls-3" d="M31.84,52.1c1.41,1.35,1.67,3.18,1.91,5,0,.33.55.24.51-.09-.21-1.89-.58-4-2.16-5.22C31.92,51.68,31.67,52,31.84,52.1Z"/><path class="cls-3" d="M28.37,49.58A10.05,10.05,0,0,1,32,56.74c0,.23.42.22.41,0a9.74,9.74,0,0,0-3.83-7.44C28.39,49.16,28.21,49.43,28.37,49.58Z"/><path class="cls-3" d="M31.44,49.47a5.9,5.9,0,0,0,.72,1,.19.19,0,0,0,.31-.2,6.3,6.3,0,0,0-.69-1C31.64,49.07,31.31,49.27,31.44,49.47Z"/><path class="cls-3" d="M33.08,51.52a7.67,7.67,0,0,1,1.81,5.11c0,.22.33.26.35,0a7,7,0,0,0-1.9-5.36A.17.17,0,0,0,33.08,51.52Z"/><path class="cls-3" d="M28.17,52.3a3.07,3.07,0,0,1,.71,1.33c0,.2.36.15.31-.05a3.47,3.47,0,0,0-.78-1.48C28.27,52,28,52.15,28.17,52.3Z"/><path class="cls-3" d="M28.94,54.37a1.69,1.69,0,0,1-.06,1.53c-.11.19.17.39.28.2a2,2,0,0,0,.07-1.87C29.15,54,28.85,54.18,28.94,54.37Z"/><path class="cls-3" d="M20.62,40c3,3.59,8,4.47,11.32,7.78.16.15.42-.06.27-.23C29.08,44,24,43.26,20.88,39.78A.17.17,0,0,0,20.62,40Z"/><path class="cls-3" d="M34.14,49.8a12,12,0,0,1,3.24,6.67c0,.29.49.21.45-.08a11.7,11.7,0,0,0-3.38-6.86C34.26,49.36,34,49.6,34.14,49.8Z"/><path class="cls-3" d="M37.52,52.43a8.36,8.36,0,0,1,1,3.45c0,.2.35.18.36,0a6.57,6.57,0,0,0-1-3.57C37.71,52.11,37.41,52.25,37.52,52.43Z"/><path class="cls-3" d="M20.73,47.22c2.62,2,6.08,4.63,6,8.27,0,.28.41.32.42,0,.23-3.81-3.47-6.58-6.21-8.62C20.75,46.77,20.54,47.07,20.73,47.22Z"/><path class="cls-3" d="M8.47,34.16A5.52,5.52,0,0,1,10,35a11.08,11.08,0,0,1,1.24,1.23.19.19,0,0,0,.31-.2,4.72,4.72,0,0,0-3-2.2C8.36,33.71,8.22,34.08,8.47,34.16Z"/><path class="cls-3" d="M8.11,35.41a5.62,5.62,0,0,0,1,.29c.2,0,.32-.27.14-.37a4.18,4.18,0,0,0-1-.38A.25.25,0,0,0,8.11,35.41Z"/><path class="cls-3" d="M10,36.31a2,2,0,0,1,1.27.85c.14.18.39,0,.32-.21A1.81,1.81,0,0,0,10,35.89.21.21,0,0,0,10,36.31Z"/><path class="cls-3" d="M14.24,46.66A49.67,49.67,0,0,0,21.81,53a.19.19,0,0,0,.22-.31c-2.45-2.17-5.12-4.08-7.57-6.25C14.32,46.29,14.11,46.53,14.24,46.66Z"/><path class="cls-3" d="M23.31,53.57a10.1,10.1,0,0,0,1.21.65.19.19,0,0,0,.17-.33,8.73,8.73,0,0,0-1.22-.62C23.3,53.18,23.15,53.47,23.31,53.57Z"/><path class="cls-3" d="M10.69,41.12a4.74,4.74,0,0,0,1.76,2.47c.17.12.4-.11.25-.27A6.6,6.6,0,0,1,11.06,41C11,40.7,10.61,40.88,10.69,41.12Z"/><path class="cls-3" d="M38,48.81l.23.31c.13.15.4,0,.29-.19a2.92,2.92,0,0,0-.24-.37C38.13,48.36,37.83,48.61,38,48.81Z"/><path class="cls-3" d="M40.34,52.88a5,5,0,0,1,.7,2.34c0,.25.41.18.39-.07a5.09,5.09,0,0,0-.78-2.42C40.53,52.55,40.23,52.69,40.34,52.88Z"/><path class="cls-3" d="M38.77,47.53A20.09,20.09,0,0,1,42,54.09c.06.2.37.16.32-.06A15.91,15.91,0,0,0,39,47.31C38.89,47.13,38.64,47.35,38.77,47.53Z"/><path class="cls-3" d="M41.18,49.88a27,27,0,0,1,1.54,3.78c.06.18.37.08.32-.1a19.52,19.52,0,0,0-1.56-3.82C41.38,49.55,41.08,49.69,41.18,49.88Z"/><path class="cls-3" d="M40.76,46.61c.26.38.52.77.81,1.12.13.15.41,0,.3-.19a11.78,11.78,0,0,0-.8-1.19C40.92,46.13,40.61,46.4,40.76,46.61Z"/><path class="cls-3" d="M42.5,49.43c.44,1.21.83,2.45,1.36,3.63.07.17.37.08.32-.1-.39-1.24-.93-2.46-1.4-3.67C42.71,49.1,42.42,49.24,42.5,49.43Z"/><path class="cls-3" d="M43.22,49.41c.51.93,1,1.87,1.57,2.77A.17.17,0,0,0,45.1,52c-.48-1-1-1.86-1.54-2.78C43.44,49,43.11,49.2,43.22,49.41Z"/><path class="cls-3" d="M45.07,50.34c.23.32.44.66.7,1,.12.14.38,0,.28-.19a11.3,11.3,0,0,0-.68-1C45.22,49.89,44.93,50.14,45.07,50.34Z"/><path class="cls-3" d="M14.4,18.46c.22,0,.25-.33,0-.33S14.18,18.46,14.4,18.46Z"/><path class="cls-3" d="M14.9,18.91a10.34,10.34,0,0,0,1.1.14c.21,0,.31-.31.09-.37a10.66,10.66,0,0,0-1.15-.25C14.64,18.38,14.6,18.85,14.9,18.91Z"/><path class="cls-3" d="M16.83,19.16a8.39,8.39,0,0,1,4.66,2.63c.14.14.45,0,.32-.2a6.78,6.78,0,0,0-4.95-2.77C16.64,18.79,16.61,19.13,16.83,19.16Z"/><path class="cls-3" d="M15.75,18.08a10.66,10.66,0,0,1,5.1,2,.18.18,0,0,0,.24-.27,7.34,7.34,0,0,0-5.3-2.2A.22.22,0,0,0,15.75,18.08Z"/><path class="cls-3" d="M17.83,17.52a2.47,2.47,0,0,1,1.63.7c.14.11.37-.08.27-.24a2,2,0,0,0-1.92-.83C17.61,17.17,17.62,17.51,17.83,17.52Z"/><path class="cls-3" d="M18.15,16.27A29.31,29.31,0,0,1,22,18c.18.09.32-.2.16-.3A15.92,15.92,0,0,0,18.27,16C18.06,15.88,17.94,16.2,18.15,16.27Z"/><path class="cls-3" d="M19.49,14.07a57.11,57.11,0,0,0,5.71,3.08c.17.08.31-.19.15-.29a55.89,55.89,0,0,0-5.69-3.1C19.48,13.67,19.32,14,19.49,14.07Z"/><path class="cls-3" d="M21.22,13.84a23.07,23.07,0,0,0,2.09,1.25c.19.08.32-.2.16-.32a22.16,22.16,0,0,0-2-1.24C21.22,13.41,21,13.72,21.22,13.84Z"/><path class="cls-3" d="M22,13.05a15.5,15.5,0,0,0,4.28,2.59c.19.06.35-.21.17-.32-1.42-.87-2.86-1.63-4.22-2.59C22.06,12.58,21.85,12.89,22,13.05Z"/><path class="cls-3" d="M24.21,13c.42.27.84.55,1.28.79.19.1.38-.15.2-.28-.41-.29-.84-.55-1.26-.81C24.22,12.52,24,12.82,24.21,13Z"/><path class="cls-3" d="M24.49,24.27A10.07,10.07,0,0,0,34.25,28a.18.18,0,0,0-.06-.35A11.23,11.23,0,0,1,24.77,24,.18.18,0,0,0,24.49,24.27Z"/><path class="cls-3" d="M27.94,25.53a10.88,10.88,0,0,0,3.64,1.6c.19,0,.26-.27.08-.32a13.58,13.58,0,0,1-3.54-1.54C28,25.16,27.77,25.42,27.94,25.53Z"/><path class="cls-3" d="M36.46,28.37a15.15,15.15,0,0,1,6.34,3.12c.21.17.44-.17.24-.34A13.75,13.75,0,0,0,36.5,28C36.28,28,36.25,28.33,36.46,28.37Z"/><path class="cls-3" d="M20.22,37.86a27,27,0,0,0,10.09,6.76c.24.09.37-.28.14-.38a30.73,30.73,0,0,1-10-6.59C20.33,37.49,20.07,37.71,20.22,37.86Z"/><path class="cls-3" d="M24.25,40c1,.62,1.95,1.28,3,1.81.19.1.32-.19.17-.31-.93-.67-1.95-1.22-2.93-1.81C24.26,39.51,24,39.82,24.25,40Z"/><path class="cls-3" d="M23.19,29.81c3.55,2.63,7.6,5.15,12.17,5,.2,0,.25-.32,0-.33-4.62-.25-8.19-2.61-12-5A.18.18,0,0,0,23.19,29.81Z"/><path class="cls-3" d="M26.16,33.28a26,26,0,0,0,7.94,2.93c.23,0,.32-.34.09-.4A40.57,40.57,0,0,1,26.33,33C26.14,32.87,26,33.18,26.16,33.28Z"/><path class="cls-3" d="M26.84,35.29a23,23,0,0,1,2.54.86c.21.08.31-.23.12-.33A11.38,11.38,0,0,0,27,35C26.74,34.9,26.61,35.24,26.84,35.29Z"/><path class="cls-3" d="M9,29.46c.28.94,1.08,1.29,1.95,1.65,1.82.75,3.65,1.6,5.53,2.2a.21.21,0,0,0,.15-.39c-1.19-.58-2.45-1-3.67-1.53s-3-.83-3.56-2.06C9.27,29.11,8.89,29.23,9,29.46Z"/><path class="cls-3" d="M15.53,28a6.74,6.74,0,0,0-4.4,1.3.24.24,0,0,0,0,.36,7.9,7.9,0,0,0,3.72,1.52.19.19,0,0,0,.08-.37,17.83,17.83,0,0,1-3.54-1.52l0,.36a6.49,6.49,0,0,1,4.07-1.32C15.71,28.29,15.75,28,15.53,28Z"/><path class="cls-3" d="M17.28,33.73a15.44,15.44,0,0,0,2,1.72.21.21,0,0,0,.28-.31,14.89,14.89,0,0,0-2-1.77C17.31,33.19,17.08,33.55,17.28,33.73Z"/><path class="cls-3" d="M38.19,3.37a7.46,7.46,0,0,0,.21,2.41c.08.24.38.12.42-.07a7.84,7.84,0,0,0-.14-2.36C38.65,3.07,38.18,3.09,38.19,3.37Z"/><path class="cls-3" d="M42.79.16A13.32,13.32,0,0,0,41.22,5.9c0,.25.38.39.47.1.29-.93.4-1.91.66-2.86s.6-1.87.94-2.79C43.42,0,42.94-.14,42.79.16Z"/><path class="cls-3" d="M43.39,4.5a15,15,0,0,0-.6,1.94c0,.24.31.29.4.09a17,17,0,0,0,.64-1.86C43.92,4.38,43.48,4.21,43.39,4.5Z"/><path class="cls-3" d="M19.82,3.38A13,13,0,0,0,23,7.1c.25.2.6-.18.38-.41a24,24,0,0,1-3.12-3.57C20.07,2.9,19.68,3.14,19.82,3.38Z"/><path class="cls-3" d="M19.36,6.12A2.9,2.9,0,0,0,21.2,8c.18,0,.33-.23.19-.35s-.62-.43-.89-.7a3.66,3.66,0,0,1-.7-1A.24.24,0,0,0,19.36,6.12Z"/><path class="cls-3" d="M24.22,4.08a3.58,3.58,0,0,0,1.14,2.3.21.21,0,0,0,.3-.26c-.17-.34-.44-.61-.61-1A4,4,0,0,1,24.67,4,.23.23,0,0,0,24.22,4.08Z"/><path class="cls-3" d="M29.94,1.45a34.11,34.11,0,0,0,.57,4c0,.21.43.24.42,0a35.09,35.09,0,0,0-.56-4.08C30.33,1.09,29.9,1.17,29.94,1.45Z"/><path class="cls-3" d="M32.92,4.22c0,.29.1.58.16.87s.44.19.42-.08-.07-.58-.11-.88S32.87,3.91,32.92,4.22Z"/><path class="cls-3" d="M1.32,25.63a17.43,17.43,0,0,0,4.43.94.23.23,0,0,0,.1-.45,17.42,17.42,0,0,0-4.4-1A.29.29,0,0,0,1.32,25.63Z"/><path class="cls-3" d="M3,24A9.79,9.79,0,0,0,5.19,25c.24.06.32-.28.16-.41a10.77,10.77,0,0,0-2.15-1C2.9,23.43,2.74,23.89,3,24Z"/><path class="cls-3" d="M5.83,17.73a33.26,33.26,0,0,0,3.38,1.56c.28.1.53-.32.25-.48A32.5,32.5,0,0,0,6,17.27C5.71,17.14,5.55,17.59,5.83,17.73Z"/><path class="cls-3" d="M9.32,17.13a13.67,13.67,0,0,0,1.25,1c.19.13.45-.13.28-.31a15,15,0,0,0-1.26-1.12C9.35,16.53,9.09,16.93,9.32,17.13Z"/><path class="cls-3" d="M.21,32.33A23.2,23.2,0,0,0,4.85,32a.22.22,0,0,0,0-.44,22.62,22.62,0,0,0-4.65.35C-.07,31.9-.06,32.33.21,32.33Z"/><path class="cls-3" d="M2.41,34.72a10.9,10.9,0,0,0,2.29-.18.23.23,0,0,0,0-.45,11.73,11.73,0,0,0-2.36.13C2,34.24,2.08,34.74,2.41,34.72Z"/><path class="cls-3" d="M1.51,38.25a36,36,0,0,0,4.72-1c.25-.09.09-.43-.13-.41a33.93,33.93,0,0,0-4.68.91A.25.25,0,0,0,1.51,38.25Z"/><path class="cls-3" d="M6.66,42.69a9.07,9.07,0,0,0-1.27.94c-.17.17,0,.48.24.36A7.71,7.71,0,0,0,7,43.09C7.28,42.89,6.93,42.51,6.66,42.69Z"/><path class="cls-3" d="M8.33,45.09A5.3,5.3,0,0,1,5.4,46.91c-.22.07-.13.42.08.43a3.81,3.81,0,0,0,3.24-2A.24.24,0,0,0,8.33,45.09Z"/><path class="cls-3" d="M9.22,47.71c-1,.67-2,1.32-2.9,2.06-.17.13,0,.43.21.31,1-.63,2-1.35,3-2C9.71,47.87,9.44,47.55,9.22,47.71Z"/><path class="cls-3" d="M12.79,49.4c-.56.54-1.12,1.07-1.67,1.62a9.85,9.85,0,0,0-1.47,1.56c-.11.16.07.44.27.32a10.21,10.21,0,0,0,1.58-1.43c.56-.54,1.11-1.09,1.66-1.64C13.41,49.57,13.05,49.14,12.79,49.4Z"/><path class="cls-3" d="M13.44,51.06a19.65,19.65,0,0,0-1.18,1.83c-.11.22.22.35.35.18a18,18,0,0,0,1.2-1.75C14,51.08,13.6,50.82,13.44,51.06Z"/><path class="cls-3" d="M15,52.5a42.28,42.28,0,0,1-2.57,4,.19.19,0,0,0,.31.22,16.38,16.38,0,0,0,2.63-4C15.48,52.48,15.13,52.29,15,52.5Z"/><path class="cls-3" d="M16.86,53.92,16,55.53c-.09.18.22.34.32.16l.87-1.53C17.34,53.92,17,53.68,16.86,53.92Z"/><path class="cls-3" d="M20.76,56.68c-.69,1.56-1.43,3.12-2,4.73-.08.24.26.35.37.13.77-1.53,1.41-3.13,2.08-4.71C21.3,56.57,20.88,56.42,20.76,56.68Z"/><path class="cls-3" d="M22.92,57.86a24.24,24.24,0,0,0-1.28,2.91c-.07.22.24.42.37.2A24.52,24.52,0,0,0,23.38,58C23.51,57.74,23.05,57.58,22.92,57.86Z"/><path class="cls-3" d="M25.56,59a13.69,13.69,0,0,0-.12,2c0,.19.35.23.39,0A11.21,11.21,0,0,0,26,59,.23.23,0,0,0,25.56,59Z"/><path class="cls-3" d="M59.74,30.62a14.22,14.22,0,0,0,3.06,0,17.4,17.4,0,0,0,2.7-.16.23.23,0,0,0,0-.45,20.83,20.83,0,0,0-3.06,0,12.06,12.06,0,0,0-2.69.18A.21.21,0,0,0,59.74,30.62Z"/><path class="cls-3" d="M59.47,29a5.17,5.17,0,0,0,3.28-.47c.23-.12.06-.44-.18-.36a6.49,6.49,0,0,1-3.06.34C59.2,28.44,59.16,28.92,59.47,29Z"/><path class="cls-3" d="M59.12,26.78c.61-.27,1.24-.52,1.82-.84a.2.2,0,0,0-.17-.36c-.63.21-1.24.52-1.85.78C58.65,26.48,58.85,26.9,59.12,26.78Z"/><path class="cls-3" d="M57,14.22A15.07,15.07,0,0,1,53.76,17c-.17.12,0,.39.19.3a10.77,10.77,0,0,0,3.38-2.88C57.49,14.25,57.18,14,57,14.22Z"/><path class="cls-3" d="M56.79,17.24c-.76.52-1.53,1-2.24,1.61-.16.14,0,.45.22.33.81-.47,1.56-1,2.33-1.58C57.35,17.42,57,17.07,56.79,17.24Z"/><path class="cls-3" d="M58.14,19.76a18.88,18.88,0,0,0-2.18,1c-.16.1-.11.44.12.37a18.72,18.72,0,0,0,2.24-1A.21.21,0,0,0,58.14,19.76Z"/><path class="cls-3" d="M52.1,10.44a5.68,5.68,0,0,0-1.46,1,3.44,3.44,0,0,0-1,1.29.23.23,0,0,0,.36.25c.38-.32.63-.79,1-1.13a7.2,7.2,0,0,1,1.29-1C52.52,10.7,52.35,10.32,52.1,10.44Z"/><path class="cls-3" d="M48.62,10c-.06.37-.11.74-.16,1.11s.36.29.41,0,.15-.73.22-1.09S48.67,9.72,48.62,10Z"/><path class="cls-3" d="M53.9,47.1a30,30,0,0,0,5.33,3.62c.2.1.42-.21.26-.37a30.21,30.21,0,0,0-5.29-3.66A.25.25,0,0,0,53.9,47.1Z"/><path class="cls-3" d="M54.51,45.24a22.3,22.3,0,0,0,2.87,1.49.2.2,0,0,0,.18-.36,23.49,23.49,0,0,0-2.85-1.52C54.49,44.73,54.28,45.12,54.51,45.24Z"/><path class="cls-3" d="M56.81,42.89a2.4,2.4,0,0,1,1.91.79c.16.16.5,0,.37-.24a2.31,2.31,0,0,0-2.38-1.09C56.36,42.4,56.46,42.92,56.81,42.89Z"/><path class="cls-3" d="M57.87,37.67a52.24,52.24,0,0,0,6,1.65c.24,0,.31-.32.09-.4A50.15,50.15,0,0,0,58,37.24C57.75,37.17,57.58,37.59,57.87,37.67Z"/><path class="cls-3" d="M58.45,36.38a11.5,11.5,0,0,1,2.95.68c.23.07.42-.24.2-.38a6.09,6.09,0,0,0-3.1-.79C58.18,35.88,58.13,36.36,58.45,36.38Z"/><path class="cls-3" d="M59,35.06l1.11.14c.25,0,.28-.34,0-.39L59,34.57C58.71,34.51,58.65,35,59,35.06Z"/><path class="cls-3" d="M41.75,56.49a28.65,28.65,0,0,0,2.12,5.23c.11.19.43.12.38-.12a28.76,28.76,0,0,0-2-5.34C42.08,56,41.65,56.18,41.75,56.49Z"/><path class="cls-3" d="M40.09,57.14a11,11,0,0,1,1.15,3.49c0,.22.41.23.42,0a6.7,6.7,0,0,0-1.15-3.68C40.35,56.69,39.93,56.87,40.09,57.14Z"/><path class="cls-3" d="M36.75,58.38a2.82,2.82,0,0,0,.54,2.23.2.2,0,0,0,.34-.22,3.45,3.45,0,0,1-.41-2C37.26,58.12,36.79,58.08,36.75,58.38Z"/><path class="cls-3" d="M32.38,59a10.94,10.94,0,0,0-.89,2.12c-.06.24.24.45.4.21a11.66,11.66,0,0,0,1-2.15C33,58.83,32.52,58.66,32.38,59Z"/><path class="cls-3" d="M47.61,54.54a12.65,12.65,0,0,0,2.67,2c.22.1.41-.2.26-.38a12.7,12.7,0,0,0-2.62-2A.27.27,0,0,0,47.61,54.54Z"/><path class="cls-3" d="M49.73,52.09c.28,0,.33-.45,0-.45S49.44,52.09,49.73,52.09Z"/><path class="cls-3" d="M49.79,53a1.92,1.92,0,0,1,1.28,1.76c0,.21.37.24.41,0A2,2,0,0,0,50,52.4C49.63,52.31,49.41,52.84,49.79,53Z"/><path class="cls-3" d="M45.89,56.37a4.23,4.23,0,0,0,.17.93.22.22,0,0,0,.42-.08,3.65,3.65,0,0,0-.12-.93A.24.24,0,0,0,45.89,56.37Z"/></g></g></svg>