<svg xmlns="http://www.w3.org/2000/svg" viewBox="0 0 29.64 32.33"><defs><style>.cls-1{fill:#c28b50;}.cls-2{fill:#260029;}</style></defs><g id="Layer_2" data-name="Layer 2"><g id="_"><path class="cls-1" d="M.51,19.56a18.23,18.23,0,0,1,2-10.74A12.55,12.55,0,0,1,6.33,3.75a15.51,15.51,0,0,1,5.09-2L15.66.64A6.74,6.74,0,0,1,19.72.43c.78.3,2.29,2.26,2.91,2.83,2.51,2.29,4.22,3.28,5.65,6.36a3.53,3.53,0,0,1,.41,2.32c-.19.69-.74,1.24-1,1.92-.55,1.65.89,3.24,1.24,4.94a6.36,6.36,0,0,1-.77,4,14.09,14.09,0,0,1-10,7.5c-2.4.42-3.77,1.85-6.31,1.16C10.34,31,10.3,29.59,8,29.34,4.43,26.75,1.3,24.16.51,19.56Z"/><path class="cls-2" d="M12.31,1.74c-15.07-.23-17,26.41-2,28.52a.34.34,0,0,0,.15-.65C4,27.64.46,22.16,1,15.37S5.67,3.8,12.33,2.33C12.64,2.26,12.66,1.75,12.31,1.74Z"/><path class="cls-2" d="M9.66,29c.18.44.39.85.59,1.28s.29,1,.7,1.35a.33.33,0,0,0,.49-.16,2.29,2.29,0,0,0-.38-1.5,10.78,10.78,0,0,0-.69-1.3A.39.39,0,0,0,9.66,29Z"/><path class="cls-2" d="M11.17,31.71a5.61,5.61,0,0,0,4,.42,2.68,2.68,0,0,0,2-2.53c0-.27-.37-.28-.51-.11-.78.89-1,1.73-2.36,1.92a10.06,10.06,0,0,1-3-.32C10.93,31,10.86,31.56,11.17,31.71Z"/><path class="cls-2" d="M16.1,31.35c6.34-.67,13.72-5.66,13.53-12.69a.4.4,0,0,0-.79-.08c-.66,3.48-1.77,6.25-4.64,8.52C21.76,29,18.93,29.88,16,30.76A.3.3,0,0,0,16.1,31.35Z"/><path class="cls-2" d="M29.4,18a3.32,3.32,0,0,1-1.47-2.73,5.76,5.76,0,0,1,1.23-2.84.37.37,0,0,0-.54-.5c-2.19,1.51-2.15,5.64.52,6.59A.29.29,0,0,0,29.4,18Z"/><path class="cls-2" d="M29.19,12.53C28.7,9.23,26.51,4,22.86,3.21c-.36-.08-.45.43-.22.61A14.5,14.5,0,0,1,26.69,8a26.1,26.1,0,0,1,1.87,4.74C28.68,13.1,29.24,12.89,29.19,12.53Z"/><path class="cls-2" d="M23.38,3.68a5.7,5.7,0,0,1-1.13-1.17,5.68,5.68,0,0,1-.38-.93.39.39,0,0,0-.7,0c-.17.42.13.94.36,1.27A4.14,4.14,0,0,0,23,4.16.29.29,0,0,0,23.38,3.68Z"/><path class="cls-2" d="M16.6.88c1.53-.53,3.45.42,4.8,1a.37.37,0,0,0,.45-.5c-.44-.76-1.71-1-2.5-1.15a4.72,4.72,0,0,0-3,0C15.9.46,16.19,1,16.6.88Z"/><path class="cls-2" d="M16.21.37a8.45,8.45,0,0,1-2.64.78,8,8,0,0,0-2.91.64.27.27,0,0,0,.09.52,17,17,0,0,0,3.33-.41,6,6,0,0,0,2.49-1C16.89.71,16.55.21,16.21.37Z"/><path class="cls-2" d="M3,11.3c-1.43,2-1.11,6.07,0,8.2a.29.29,0,0,0,.54-.18c-.18-2.77-1.08-5,0-7.76A.28.28,0,0,0,3,11.3Z"/><path class="cls-2" d="M4.33,22.73c.44.07.66.54,1.07.68A.29.29,0,0,0,5.76,23a1.68,1.68,0,0,0-1.36-1A.34.34,0,0,0,4.33,22.73Z"/><path class="cls-2" d="M7.08,18.3A2.48,2.48,0,0,0,8,20c.25.19.49-.15.34-.37a3.21,3.21,0,0,1-.65-1.4C7.65,17.8,7.05,17.91,7.08,18.3Z"/><path class="cls-2" d="M18.28,26.43c2.93,0,6.54-2.14,7.45-5.07.08-.25-.23-.53-.44-.32a36.57,36.57,0,0,1-2.74,3.1,7.63,7.63,0,0,1-4.29,1.75C18,25.91,18,26.43,18.28,26.43Z"/><path class="cls-2" d="M10,27.22a9.75,9.75,0,0,0,5.41-.08c.29-.12.11-.5-.15-.48a21.54,21.54,0,0,1-5.2-.06C9.65,26.54,9.61,27.14,10,27.22Z"/><path class="cls-2" d="M24.8,7.74c.33,1.38.57,2.74.79,4.14a.26.26,0,0,0,.51,0,8.74,8.74,0,0,0-.74-4.3A.3.3,0,0,0,24.8,7.74Z"/><path class="cls-2" d="M9.42,5.75A9,9,0,0,1,12.2,4.64c.9-.21,1.89-.15,2.77-.43.24-.07.36-.47,0-.56C13.13,3.1,10.53,4,9,5.16,8.73,5.4,9.07,6,9.42,5.75Z"/></g></g></svg>