<svg xmlns="http://www.w3.org/2000/svg" viewBox="0 0 35 39.59"><defs><style>.cls-1{fill:#2c8d8a;}.cls-2{fill:#42acae;}.cls-3{fill:#260029;}</style></defs><g id="Layer_2" data-name="Layer 2"><g id="_"><path class="cls-1" d="M9.57,33.58a7.62,7.62,0,0,0-1.95-5,4.64,4.64,0,0,0-5-1.16,5.58,5.58,0,0,0,2-3.17,2.4,2.4,0,0,0-2-2.78c2.06-.41,3-3.07,2.36-5.08s-2.3-3.48-3.9-4.85a11,11,0,0,0,5.37.93c1.81-.3,3.56-1.86,3.38-3.69a2.56,2.56,0,0,0,3.22.4,6.54,6.54,0,0,0,2.26-2.67c.81-1.48,1.54-3.18,1.1-4.81.14,1.84,1.25,3.43,2.33,4.93s2.18,2.9,3.87,3.24c2.67.54,4.89-2,7.49-2.81a21.62,21.62,0,0,0-2.41,5,7.57,7.57,0,0,0-.41,4.25,3.34,3.34,0,0,0,3.05,2.61,5.22,5.22,0,0,0-1.7,4.56A7.14,7.14,0,0,0,31,27.83c1.28,1.18,3,2,3.8,3.56a3.83,3.83,0,0,1-2.32.25c-1.43-.19-2.84-.58-4.28-.71A6.26,6.26,0,0,0,24,31.8c-1.66,1.16-2.27,3.3-2.76,5.27-2-1-3.17-3.23-5.27-3.88a5.21,5.21,0,0,0-5,1.49,10.67,10.67,0,0,0-1.88,2.66A9.52,9.52,0,0,0,9.57,33.58Z"/><path class="cls-2" d="M20.56,26.64a4.33,4.33,0,0,0,2.49-2.73,8,8,0,0,0,.18-3.77,9,9,0,0,0-1.42-3.75,5.14,5.14,0,0,0-3.3-2.16,6.67,6.67,0,0,0-3.32.5,8.68,8.68,0,0,0-2.63,1.41,6.57,6.57,0,0,0-1.27,1.46,6.71,6.71,0,0,0,5.16,10.29,6.84,6.84,0,0,0,6-2.82Z"/><path class="cls-3" d="M15.31,14.59c-4.54-.43-6.27,5.14-5.26,8.68,1.55,5.44,7.49,6,11.8,3.39a.26.26,0,0,0-.22-.47c-4.14,1.5-9.29,2-10.75-3.23-1-3.72.75-6.94,4.45-7.82A.28.28,0,0,0,15.31,14.59Z"/><path class="cls-3" d="M17.3,14.49c5,.46,6.48,5.67,5.21,9.8a.27.27,0,0,0,.43.3c1.82-1.68,1.16-4.94.18-6.9-1.09-2.21-3.23-4.17-5.85-3.8A.3.3,0,0,0,17.3,14.49Z"/><path class="cls-3" d="M9.33,8.56c4.69,5.17,8-4.7,7.23-8.35,0-.23-.43-.31-.5,0-.53,2.17-.4,4.35-1.28,6.48A4.86,4.86,0,0,1,13,9.14c-1.23.7-2.37-.14-3.33-.91C9.44,8.06,9.16,8.37,9.33,8.56Z"/><path class="cls-3" d="M16.07.3c.39,3.3,1.55,7.58,4.74,9.26s7.11-.19,9.64-2.26c.28-.23,0-.73-.35-.54-2.8,1.62-6.33,4-9.5,1.8C18,6.74,17.24,3.11,16.54.21A.24.24,0,0,0,16.07.3Z"/><path class="cls-3" d="M29.31,7.22c-1.48,2.75-5.42,12.3.89,12.11a.39.39,0,0,0,.07-.77c-5.28-.64-1.74-8.15-.43-11.06C30,7.19,29.47,6.91,29.31,7.22Z"/><path class="cls-3" d="M30.88,19.06c-7,1.87-.28,10.87,3.65,12.46.39.16.64-.39.33-.64-2.93-2.31-9.94-8.5-3.84-11.39C31.24,19.39,31.13,19,30.88,19.06Z"/><path class="cls-3" d="M34.34,31.25c-2.91-.51-7.09-1.43-10-.41s-3.59,4.45-3.3,7.2c0,.39.62.33.67,0,.53-3.62,1-6.56,5.2-6.61,2.47,0,5,.75,7.42.39A.27.27,0,0,0,34.34,31.25Z"/><path class="cls-3" d="M21.65,37.86c-1.18-2-3.24-5.28-5.94-5.31-3,0-5.41,3.79-6.87,5.87a.41.41,0,0,0,.66.47c1.39-1.79,3.37-5.26,5.93-5.5s4.4,3.17,5.76,4.77C21.39,38.39,21.82,38.14,21.65,37.86Z"/><path class="cls-3" d="M8.69,39.48a12.15,12.15,0,0,0,.56-8.89c-1-3-4-4.7-7-3.05a.26.26,0,0,0,.16.5c1.53-.15,3.05-.6,4.42.36A5.64,5.64,0,0,1,8.79,32a14.3,14.3,0,0,1-.53,7.25C8.17,39.5,8.55,39.73,8.69,39.48Z"/><path class="cls-3" d="M2.2,28.32c1.25-1.09,2.7-2.6,3-4.29.36-1.86-1.22-2.76-2.81-3.1-.44-.09-.61.65-.18.77C3.93,22.16,5,23,4.16,24.8A14.76,14.76,0,0,1,1.82,28C1.63,28.2,2,28.5,2.2,28.32Z"/><path class="cls-3" d="M2.41,21.23c2.71-.12,4.3-2,3.26-4.62A12.09,12.09,0,0,0,3.21,13c-.74-.79-1.75-2-2.84-2.25-.33-.07-.46.36-.3.58A15.58,15.58,0,0,0,2,13.05a15.22,15.22,0,0,1,1.93,2.24,6.18,6.18,0,0,1,1.26,2.84c.12,1.74-1.49,2.19-2.85,2.61A.25.25,0,0,0,2.41,21.23Z"/><path class="cls-3" d="M.17,11c3,2.31,11,2.61,10-3a.34.34,0,0,0-.67,0c-.3,2.53-1.4,3.82-4,3.84a10,10,0,0,1-5-1.32A.28.28,0,0,0,.17,11Z"/><path class="cls-3" d="M9.37,38.39a33.86,33.86,0,0,0,2.74-7.87c0-.25-.35-.33-.43-.1C10.76,33,10,35.67,9,38.24,8.87,38.5,9.26,38.63,9.37,38.39Z"/><path class="cls-3" d="M8.73,28.82c.07-.6.65-.79.95-1.26.1-.16-.07-.41-.26-.31a2,2,0,0,0-1.17,1.53A.24.24,0,0,0,8.73,28.82Z"/><path class="cls-3" d="M2.13,27.64c2.38-.91,5.16-1.84,7.18-3.43a.22.22,0,0,0-.23-.36c-2.33,1.18-4.91,2-7.14,3.39A.22.22,0,0,0,2.13,27.64Z"/><path class="cls-3" d="M2.8,21.52c1.18-.66,2.41-.19,3.63,0,.23,0,.26-.28.09-.37a4.29,4.29,0,0,0-3.9,0C2.39,21.27,2.56,21.66,2.8,21.52Z"/><path class="cls-3" d="M1.57,12.32a24.62,24.62,0,0,0,3.71,2.42c1.29.73,2.5,1.58,3.78,2.33.18.1.42-.12.26-.29-2-2.12-5.19-3.06-7.51-4.8C1.59,11.82,1.37,12.15,1.57,12.32Z"/><path class="cls-3" d="M9.59,9.48A16.94,16.94,0,0,0,11,12.91a.2.2,0,0,0,.37-.12,15.89,15.89,0,0,0-1.32-3.47C10,9,9.5,9.19,9.59,9.48Z"/><path class="cls-3" d="M15.15,2.75c.87,1,.63,3.59.7,4.75.09,1.5,0,3.35.6,4.74a.21.21,0,0,0,.4-.13c-.14-2-.37-4.06-.53-6.08-.08-1.06,0-2.81-.93-3.55C15.23,2.36,15,2.6,15.15,2.75Z"/><path class="cls-3" d="M22.13,15.47a1.58,1.58,0,0,0,1.14-.82c.1-.16-.06-.43-.26-.31s-.59.54-1,.61S21.8,15.49,22.13,15.47Z"/><path class="cls-3" d="M24.28,12.94c1.12-1.46,2.41-2.86,3.41-4.41a.21.21,0,0,0-.34-.24c-1.22,1.39-2.29,2.94-3.39,4.43C23.81,12.92,24.13,13.15,24.28,12.94Z"/><path class="cls-3" d="M24.89,19.81c1.08-.65,2.16-.48,3.34-.67a.2.2,0,0,0,0-.39,5.08,5.08,0,0,0-3.55.72C24.47,19.59,24.69,19.93,24.89,19.81Z"/><path class="cls-3" d="M24.78,26.94c3.54.54,6,3.08,9.12,4.45a.23.23,0,0,0,.21-.4c-2.87-1.76-5.88-4-9.29-4.4C24.59,26.56,24.56,26.9,24.78,26.94Z"/><path class="cls-3" d="M18.78,28.78A3,3,0,0,0,19.6,31c.17.14.35-.11.24-.27a4,4,0,0,1-.58-2C19.25,28.49,18.78,28.51,18.78,28.78Z"/><path class="cls-3" d="M19.86,32.57a28.25,28.25,0,0,0,.69,4.13c.08.22.38.09.37-.12a29.57,29.57,0,0,0-.69-4.07C20.17,32.28,19.81,32.34,19.86,32.57Z"/><path class="cls-3" d="M15.51,30.86c0-.61.36-1.14.31-1.75,0-.24-.36-.19-.39,0a14.32,14.32,0,0,0-.37,1.7C15.05,31.1,15.49,31.15,15.51,30.86Z"/><path class="cls-3" d="M10.73,30a4.75,4.75,0,0,0,.67-1.77c.07-.21-.24-.39-.36-.19-.31.52-.34,1.22-.72,1.68C10.12,29.93,10.52,30.19,10.73,30Z"/><path class="cls-3" d="M6.64,17.71a5,5,0,0,0,1.78,1.08c.2.07.37-.22.18-.34a14.79,14.79,0,0,1-1.7-1C6.73,17.28,6.48,17.56,6.64,17.71Z"/><path class="cls-3" d="M9,13.65a4.85,4.85,0,0,0,1.8,1.07.2.2,0,0,0,.18-.36,17.33,17.33,0,0,1-1.69-1C9.11,13.17,8.82,13.48,9,13.65Z"/><path class="cls-3" d="M13.33,11.44A4.77,4.77,0,0,0,14.11,14c.14.22.41,0,.34-.22a8.19,8.19,0,0,1-.6-2.27C13.83,11.17,13.32,11.11,13.33,11.44Z"/><path class="cls-3" d="M19.2,10.94a2.24,2.24,0,0,0-.38,1.93.21.21,0,0,0,.41,0c.09-.52,0-1.13.34-1.57C19.75,11.05,19.4,10.72,19.2,10.94Z"/><path class="cls-3" d="M21.48,12.13a4.6,4.6,0,0,0,.05.74c0,.25.38.21.43,0a3.88,3.88,0,0,0,0-.68C22,11.85,21.49,11.79,21.48,12.13Z"/><path class="cls-3" d="M25.37,21.48a1.44,1.44,0,0,0,1.16.35c.2,0,.18-.32,0-.34a1.37,1.37,0,0,1-.93-.32C25.41,21,25.19,21.32,25.37,21.48Z"/><path class="cls-3" d="M25.46,24.25c.27,0,.31-.42,0-.42S25.19,24.25,25.46,24.25Z"/><path class="cls-3" d="M22.21,28.78a1.55,1.55,0,0,0,1.16,1.57.2.2,0,0,0,.19-.35c-.48-.34-.88-.61-.92-1.24C22.62,28.52,22.21,28.54,22.21,28.78Z"/><path class="cls-3" d="M24.28,17.44a2.44,2.44,0,0,1,.89-.68c.21,0,.23-.39,0-.39a1.6,1.6,0,0,0-1.2.69C23.74,17.28,24,17.66,24.28,17.44Z"/></g></g></svg>