<svg xmlns="http://www.w3.org/2000/svg" viewBox="0 0 30.86 31.14"><defs><style>.cls-1{fill:#c2935e;}.cls-2{fill:#260029;}</style></defs><g id="Layer_2" data-name="Layer 2"><g id="_"><path class="cls-1" d="M4.58,27.4a9.33,9.33,0,0,1,.7-3.56l1.56-4.63Q4,16,1.19,12.87c-.49-.55-1-1.23-.81-1.94.24-.87,1.34-1.1,2.23-1.17L8,9.33A2.64,2.64,0,0,0,9.31,9a2.71,2.71,0,0,0,.83-1.08C11.52,5.26,13,3.12,13.92.26,15.55,1.47,16,2.85,16.86,4.7a24.28,24.28,0,0,0,2.56,4.56c2.33.33,5,.89,7,1.17s3.67,1.5,3.71,2.81L23.7,19a4.17,4.17,0,0,0-1.33,1.71,4.17,4.17,0,0,0,.15,2.21q1,3.84,2,7.66l-7-3.9a5.23,5.23,0,0,0-2.35-.85,5,5,0,0,0-2.08.6C10.61,27.59,4.94,33,4.58,27.4Z"/><path class="cls-2" d="M8.18,19.87c-2.33-2.73-5.4-4.69-7.52-7.63-.24-.34-.74.08-.49.41,2.07,2.89,5,5.3,7.65,7.62C8.06,20.47,8.37,20.1,8.18,19.87Z"/><path class="cls-2" d="M.48,12.77c3.43-1.2,7.05-.31,10.5-1.21.43-.11.33-.78-.12-.7a53.88,53.88,0,0,1-6.09.44c-1.47.08-3.35.1-4.55,1.07C0,12.55.24,12.85.48,12.77Z"/><path class="cls-2" d="M24.79,30.59c-1.68-1-3.41-1.83-5.11-2.78a38.92,38.92,0,0,0-4.57-2.49c-.27-.11-.43.25-.23.42A39.41,39.41,0,0,0,24.56,31C24.82,31.14,25.05,30.73,24.79,30.59Z"/><path class="cls-2" d="M24.84,30.82a23.51,23.51,0,0,0-1-5.19,41.31,41.31,0,0,0-1.41-5.38c-.17-.46-.86-.13-.69.32,1.23,3.31,1.62,6.89,2.67,10.26C24.51,31,24.84,31.06,24.84,30.82Z"/><path class="cls-2" d="M22.31,20.64a72.51,72.51,0,0,0,8.4-6.82c.3-.3-.12-.81-.43-.51a107.62,107.62,0,0,1-8.35,6.87C21.63,20.42,22,20.85,22.31,20.64Z"/><path class="cls-2" d="M30.7,13.44c-3-1.72-7-1.38-10.26-2.22-.4-.1-.62.5-.22.6,3.39.87,6.93,1.23,10.36,2C30.76,13.83,30.86,13.53,30.7,13.44Z"/><path class="cls-2" d="M20.39,11.55a26.84,26.84,0,0,0-2.16-4.61c-.89-1.71-1.79-3.43-2.8-5.07-.23-.37-.85-.1-.63.3,1,1.68,1.89,3.36,2.78,5.08A27.26,27.26,0,0,0,20,11.72C20.15,11.87,20.45,11.75,20.39,11.55Z"/><path class="cls-2" d="M11,11.53C11.8,10.06,12.37,8.47,13.1,7a27.31,27.31,0,0,0,2.15-5,.32.32,0,0,0-.6-.23c-.69,1.7-1.4,3.35-2.19,5a16.82,16.82,0,0,0-1.81,4.65C10.63,11.58,10.92,11.7,11,11.53Z"/><path class="cls-2" d="M6.09,30.78c.6-3.68,1.53-7.28,2.13-10.94.06-.36-.48-.4-.55-.06-.78,3.58-1.88,7.29-2,11A.23.23,0,0,0,6.09,30.78Z"/><path class="cls-2" d="M5.78,31.12c3.11-1.56,6.69-3.08,9.33-5.39a.29.29,0,0,0-.37-.44c-2.89,2.15-6.28,3.39-9.2,5.46C5.34,30.9,5.56,31.23,5.78,31.12Z"/><path class="cls-2" d="M5.74,29.44a.84.84,0,0,0,1.19.77.38.38,0,0,0,.31-.44.42.42,0,0,0-.08-.18.38.38,0,0,0-.36-.13c-.22.07-.32.09-.42-.14S5.73,29.09,5.74,29.44Z"/><path class="cls-2" d="M5.79,29.86a.75.75,0,0,0,1.29.37c.12-.13,0-.31-.11-.37s-.49-.13-.73-.28A.29.29,0,0,0,5.79,29.86Z"/><path class="cls-2" d="M5.89,30.08c-.26.65.8.8.94.16a.2.2,0,0,0-.09-.2.4.4,0,0,0-.23-.1H6.42c-.18,0-.17.08,0,.19C6.43,29.83,6,29.82,5.89,30.08Z"/><path class="cls-2" d="M6,30.11l-.09.15a.29.29,0,0,0,0,.36.43.43,0,0,0,.71-.1c.07-.11,0-.32-.11-.35a1.93,1.93,0,0,1-.27,0l.08.23,0-.11C6.41,30,6.07,29.87,6,30.11Z"/><path class="cls-2" d="M6.45,30.42l.37-.11c.18-.06.08-.38-.1-.33l-.38.09A.18.18,0,1,0,6.45,30.42Z"/><path class="cls-2" d="M6.45,30.19a1.47,1.47,0,0,0,1.33-.41.22.22,0,0,0-.16-.34,3.75,3.75,0,0,0-1.18.27A.24.24,0,0,0,6.45,30.19Z"/><path class="cls-2" d="M6.71,30c-.23-.21-.27-.47-.46-.7a.23.23,0,0,0-.36,0,.74.74,0,0,0,.59,1.11C6.69,30.47,6.88,30.18,6.71,30Z"/><path class="cls-2" d="M6.51,29.94c-.21-.26-.14-.55-.21-.85,0-.14-.24-.26-.36-.13a1,1,0,0,0,.2,1.38A.27.27,0,0,0,6.51,29.94Z"/><path class="cls-2" d="M6.72,29.9a4.93,4.93,0,0,0-.37-1.06.23.23,0,0,0-.41,0,1.41,1.41,0,0,0,.35,1.26A.25.25,0,0,0,6.72,29.9Z"/><path class="cls-2" d="M2.55,14.53a3.16,3.16,0,0,1-.64-1.45c0-.55.8-.53,1-1a.3.3,0,0,0-.1-.34c-.69-.52-1.74.43-1.81,1.14-.09.9.57,1.47,1.16,2A.27.27,0,0,0,2.55,14.53Z"/><path class="cls-2" d="M1.61,13.39c0-.2-.08-.33,0-.5s.21-.2.26-.37a.27.27,0,0,0-.1-.31c-.85-.5-1.47,1-.67,1.48A.31.31,0,0,0,1.61,13.39Z"/><path class="cls-2" d="M1.38,12.93l-.06.1a.41.41,0,0,0,0-.81,1.09,1.09,0,0,0-.59.11c.12.26.24.52.37.78.28-.14.73-.37.55-.77s-.64-.16-.92,0c-.49.27-.13,1,.37.78A.55.55,0,0,0,1.22,13c0-.27,0-.54,0-.8-.38.11-.77.5-.38.88A.34.34,0,0,0,1.38,12.93Z"/><path class="cls-2" d="M28.92,15.36a1.81,1.81,0,0,0,1-1.36A1,1,0,0,0,29,12.72c-.23,0-.53.09-.54.36s.4.38.51.6-.11.46-.18.61a1.84,1.84,0,0,0-.26.82A.25.25,0,0,0,28.92,15.36Z"/><path class="cls-2" d="M30.83,13.34a11.06,11.06,0,0,0-1-1.36,3.87,3.87,0,0,0-1.16-1.05c-.16-.07-.35.13-.26.28a7.14,7.14,0,0,0,1,1.1c.36.41.7.84,1,1.27C30.61,13.78,31,13.56,30.83,13.34Z"/><path class="cls-2" d="M28.6,11a29.4,29.4,0,0,0-9.3-2.11.27.27,0,0,0-.05.54,35,35,0,0,1,9.21,1.95A.2.2,0,0,0,28.6,11Z"/><path class="cls-2" d="M.39,12.5c.17-.42.26-.87.41-1.31A6.39,6.39,0,0,0,1.22,10c0-.2-.25-.36-.39-.21A2.94,2.94,0,0,0,.27,11,4.58,4.58,0,0,0,0,12.41.2.2,0,0,0,.39,12.5Z"/><path class="cls-2" d="M10.86,10.93c-.19-.73-.41-1.46-.64-2.18-.09-.29-.56-.22-.47.08.22.75.44,1.5.7,2.24C10.53,11.3,10.92,11.17,10.86,10.93Z"/><path class="cls-2" d="M15.17,1.82A2.68,2.68,0,0,0,14.07,0a.26.26,0,0,0-.34.38,6,6,0,0,1,.63.71c.15.26.25.55.38.83A.23.23,0,0,0,15.17,1.82Z"/><path class="cls-2" d="M10.08,9c.71-1.49,1.45-3,2.16-4.47.59-1.24.93-2.91,1.73-4a.22.22,0,0,0-.28-.32c-.92.42-1.16,2.14-1.54,3A55.78,55.78,0,0,0,9.69,8.85.21.21,0,0,0,10.08,9Z"/><path class="cls-2" d="M9.72,8.74A27.36,27.36,0,0,0,1,9.77c-.3.1-.09.55.21.45C4,9.31,6.89,9.5,9.74,9.15,10,9.12,10,8.74,9.72,8.74Z"/><path class="cls-2" d="M5.79,30.67a5.39,5.39,0,0,1-.7-1.57,13.32,13.32,0,0,0-.23-1.43.22.22,0,0,0-.41,0,2.68,2.68,0,0,0,.1,1.72A5.19,5.19,0,0,0,5.31,31C5.49,31.23,6,30.94,5.79,30.67Z"/><path class="cls-2" d="M4.61,28.12c.92-3,1.55-6.09,2.27-9.12.1-.39-.49-.61-.59-.22C5.56,21.84,4.71,24.92,4.18,28,4.13,28.27,4.53,28.36,4.61,28.12Z"/></g></g></svg>