<svg xmlns="http://www.w3.org/2000/svg" viewBox="0 0 47.16 45.42"><defs><style>.cls-1{fill:#df71a0;}</style></defs><g id="Layer_2" data-name="Layer 2"><g id="_"><path class="cls-1" d="M8.76,37.05A10.52,10.52,0,0,1,5,37.92c.06-.44.15-.87.24-1.3s.26-.8.07-1.09a.31.31,0,0,0-.47-.1.52.52,0,0,0-.17.26c0,.05,0,.09,0,.14l0,.17c-.06.24-.1.48-.16.72a10.11,10.11,0,0,0-.26,1.54.38.38,0,0,0,.43.4A10.09,10.09,0,0,0,8.92,37.4.19.19,0,0,0,8.76,37.05Zm38.4-26.34a.3.3,0,0,0-.27-.33,15,15,0,0,0-9.17,3c-.24.16,0,.59.28.44,1.33-.83,7.83-4.42,8.33-2,.22,1-2.48,3.59-3,4.16a62.9,62.9,0,0,1-9.12,7.38c-1.17.81-2.36,1.62-3.55,2.41-1.16-.81-2.3-1.65-3.44-2.5.46-7.51.64-15.7-1.23-23,0-.17-.29-.32-.44-.16-4.26,4.61-3.69,11.94-4,17.77,0,.24.37.28.38,0,.25-3.32.24-6.68.78-10,.1-.56,1.45-7.38,2.84-7A11.42,11.42,0,0,1,26,3.42a98.19,98.19,0,0,1,.67,17.14l-.09,2.21c-4.89-3.66-9.74-7.46-15.19-10.11-.21-.1-.33.24-.12.34,5.48,2.71,10.34,6.57,15.29,10.24-.09,1.76-.21,3.54-.39,5.31-1.15.71-2.31,1.4-3.48,2.08-1.42-1-2.81-2.05-4.21-3.09C15.14,25,11.6,22.71,8.4,20c-.68-.58-1.33-1.18-2-1.78a.42.42,0,0,0,0-.19,3.26,3.26,0,0,0-.08-1.5c-.27-.56-1-.87-1.52-1.17a.41.41,0,0,0-.56.07.29.29,0,0,0-.34.12,20.75,20.75,0,0,1-1.49-2C2.07,13,.27,10.46,1.3,9.75c.6-.41,4.49,2.14,4.55,2.18.23.15.47-.2.24-.35A18.72,18.72,0,0,0,.31,9C.16,9,0,9.1,0,9.28a18.14,18.14,0,0,0,3.76,7,2.25,2.25,0,0,0,0,1.29,1.93,1.93,0,0,0,1.48.92.58.58,0,0,0,.73.2c3.72,3.56,8.37,6.45,12.16,9.3,1.24.93,2.55,1.95,3.92,3-3,1.68-6,3.25-9,4.65-.21.09-.06.41.15.32,3.15-1.4,6.24-3,9.26-4.68,1,.73,2,1.46,3,2.18a45,45,0,0,1-1.28,5.27c-.66,2.1-2.56,8.45-4.41,3.62-1-2.56-.48-5.71-.72-8.38a.22.22,0,0,0-.43,0c-.28,3.22-.63,9.16,2.19,11.39a.3.3,0,0,0,.37,0c3-2.63,4.32-7,5-11.4a42,42,0,0,0,4.51,2.66,1,1,0,0,0-.14.15,1.2,1.2,0,0,0,0,1.2,2.41,2.41,0,0,0,.45,1.33c.73,1,2.48,2,3.69,1.23a1.54,1.54,0,0,0,.4-.36,2.81,2.81,0,0,0,1.15-1.52,15.46,15.46,0,0,0,5.21.28.27.27,0,0,0,.22-.31A10.9,10.9,0,0,0,37.32,32c-.26-.19-.54.21-.29.4,1.92,1.46,5.84,5.75,1.22,6a6.49,6.49,0,0,1-1.91-.22,2.2,2.2,0,0,0-1.4-1.71c-.14-.06-.29-.13-.47-.19a3.94,3.94,0,0,0-2-.67.27.27,0,0,0-.41-.15,3,3,0,0,0-.69.58L30,35.34c-1.24-.68-2.44-1.42-3.63-2.19.22-1.5.36-3,.47-4.42,1.32-.81,2.63-1.65,3.92-2.49.9.62,1.81,1.22,2.74,1.8.19.11.38-.17.2-.28-.88-.56-1.75-1.14-2.6-1.74,1.15-.76,2.31-1.53,3.44-2.32C38.47,21,46.7,16.24,47.16,10.71Zm-21.52,22c-.85-.57-1.7-1.15-2.54-1.75q1.53-.87,3-1.77C26,30.33,25.84,31.5,25.64,32.67Zm8.85,5.47.13,0a1.76,1.76,0,0,1,0,1l-.17.14a.14.14,0,0,1,0-.06.53.53,0,0,0,0-.19,1.29,1.29,0,0,0-.1-.51A1.18,1.18,0,0,0,34.49,38.14Zm-2,1a2.76,2.76,0,0,0,.39.18.4.4,0,0,0,.37.18c.08,0,.08.07.09.09a1.85,1.85,0,0,0,.13.29,3.33,3.33,0,0,1-1.12-.54A.35.35,0,0,0,32.48,39.09Zm-5.61-11c.09-1.22.27-4.12.29-4.46,1,.76,2.08,1.52,3.14,2.25C29.16,26.67,28,27.41,26.87,28.13ZM10.18,29.86A12.9,12.9,0,0,0,8,32c-.19.19.07.51.27.32.39-.37.79-.73,1.17-1.11a6.13,6.13,0,0,0,1-1.08C10.55,30,10.38,29.74,10.18,29.86Zm9.61-2.3a37.22,37.22,0,0,1,.36-5.38c0-.25-.34-.28-.38,0a23.52,23.52,0,0,0-.35,5.43C19.42,27.78,19.78,27.76,19.79,27.56ZM31.94,17.14l.12.35a1.13,1.13,0,0,0,0,.15c.15.47.56.57,1,.39a1.33,1.33,0,0,0,.35-.19h.33a.43.43,0,0,0,.23,0,.52.52,0,0,0,.33-.26.83.83,0,0,0,.93-.6c.53-1.37-1.29-2.38-2.3-2.71-.21-.07-.51.11-.43.36a6,6,0,0,1,.16.71c0,.06-.05.11-.08.18a.51.51,0,0,0-.48.4c-.3,0-.49.37-.39.64Zm1.58-1.91.18.09a.53.53,0,0,0-.13.16.31.31,0,0,0-.06.13.65.65,0,0,0,0,.13,2.17,2.17,0,0,1-.07-.24C33.45,15.41,33.48,15.32,33.52,15.23Z"/></g></g></svg>