<svg xmlns="http://www.w3.org/2000/svg" viewBox="0 0 92.67 89.64"><defs><style>.cls-1{fill:#f2c45d;}.cls-2{fill:#efa54c;}.cls-3{fill:#260029;}.cls-4{fill:#133258;}.cls-5{fill:#90c2c3;}</style></defs><g id="Layer_2" data-name="Layer 2"><g id="_"><path class="cls-1" d="M82.09,55.49c-1-.77-2.32-1.31-3.13-2.23,1.27-.31,2.74.11,4-.15,1.1-.21,2.21-.77,3.36-1a32.92,32.92,0,0,1-4.86-2.79c1.24-.46,2.6-.1,3.8-.63s1.9-1.37,3.28-1.51c-.79-2.49-7.16-1-8.06-3.92.83-.25,2.17-.84,3.15-1s1.62,0,2.33-.42c-2.2,0-3-1.07-4.85-1.61.06-1.13,3.83-2.47,4.77-3.3a6.72,6.72,0,0,0,2.21-4.09c-1.64,1.5-2.5,2.1-4.93,1.85-1.85-.19-3.25-1.22-4.88-2.07,1.75-.6,3-2.43,4.22-3.63-1.72-.05-4.06,1-5.61-.39a15.51,15.51,0,0,0,1.94-1.87A42.3,42.3,0,0,1,84.33,21c-4.58.5-8.66,3.75-10.33,4.25,1-1.55,2.15-4.73,3.33-6.08-2,.61-3.07.13-5.41,1.41a16,16,0,0,1,.3-4.19,11.28,11.28,0,0,1,2.17-5.11c-3.14.93-5.4,8.11-8.51,7.62,1-2.05,1.38-4.24,2.18-6.46-2,.48-2.37,3.87-5,3.28A15,15,0,0,0,64,11.48c.06-1.58-.22-3.37.3-4.75-2.11.39-2.5,2.21-3.58,3.87a5.49,5.49,0,0,1-4.59,2.34c1.32-3-.83-4.69-1-7.61-1.35,1.31-1,3-1.59,4.56a10.12,10.12,0,0,1-1.86,2.38,8.15,8.15,0,0,0-2.09-4.94C48,5.73,46.16,4.63,44.9,2.78c-.2,2.9,2.31,6.11-.2,8.56C43.87,10,43.89,8,43.16,6.55s-2.31-1.84-3-3.17c-.37,2.08.9,3.08,1.08,5.08s-1.4,2.93-1.47,4.6a10,10,0,0,0-3.65-5.84c-2.24-1.49-4-1.95-4.78-4.95-2.22,2-.84,4.65.2,6.83,1.25,2.64,2.58,5,1.43,7.79l-.69-.7c-.66-.32-.6,0-1.33-.25-1.16-.37-2.29.34-3.43-.29a5.85,5.85,0,0,1-2.41-1.88c-.74-1.41-2.2,0-3.5-.58a19.46,19.46,0,0,1-2.75-2.25c-1,1.07.65,4.67,1.59,5.5,1.86,1.64,2.75,2.67,1.66,5.66-1.1-.93-3.18-1.25-4.54-1.54,0,1.2,1.87,3.66,2.46,4.89a18.44,18.44,0,0,0-2.17-1.13c-1.1-.3-1.71.18-2.7.32a15.43,15.43,0,0,1-5.19-.44c.81,2.9,5.91,2.71,5.64,6.66-1,.11-1.6,0-2.58.08s-2.21.59-3.26.76a38.78,38.78,0,0,1,3.6,1.45,9.67,9.67,0,0,1,3,2.83c-2-.27-3.63-.89-5.63.19A24.06,24.06,0,0,1,5,37.94c1,.7,4.49.84,5.83,1.05a27.64,27.64,0,0,1,4.56,1.31c-1.58.91-3.62,1.71-5.14,2.64,1.47.24,4.17,1.21,5.62.49-2.86,1.7-3,4.72-8.95,5.67,1.74,0,3.8.73,5.62,0s2.34-1,4.27-.44a10.37,10.37,0,0,0-3.41,3.47c1.16.07,2.2-.24,3.3-.26-1.51,4.42-10.28,4.54-9.62,8.87,1.41-1.46,2.59-1.21,4.71-1.42,1.43-.14,3.13.75,4.78.64-.61,1.29-.81,2.7-2.37,3.63,1.43-.44,3.82-2.35,5.35-1.53-.49,1.86-.18,3.39-1.75,4.85-1.34,1.24-3.64,1.74-4.09,3.68.83-.13,1.68-.61,2.52-.78,1.11-.22,1.92-.17,2.94-.32,1.37-.2,3.15-2.12,4.52-1.4-.16,1.32-.68,2.64-.9,3.93,1.67-.67,2.63-3,4.55-3.46.19,1.73-1.53,3.24-2.19,4.76a17.41,17.41,0,0,0-1.07,4.59c1.52-.1,3.26-1.62,4.37-2.72.75-.75,2.92-4.22,4.29-3.11.45.37,0,1,.23,1.52s.65.77.88,1.18a7.11,7.11,0,0,1,.87,2.67c.32,2.21-.17,4.65.32,6.83a16.26,16.26,0,0,1,1.44-2.65c.68-.76,1.65-1.27,2.31-2.12s1-2.14,1.67-3.14a35.5,35.5,0,0,1,.37,6.29C41,81.25,43,79,44.37,78.29c0,2.8-3.46,8.11-.95,10.56.58-2,2.39-4.07,3.95-5.52s2.79-3,4.22-4.55c0,.07.31.13.41.16a3.79,3.79,0,0,0,0,.58c.31,0,.13.51.45.42-.11.12.45.39.33.5,1.17,2.5,2.09,3.75,4.74,4.82a8,8,0,0,1-1.25-5.39c.17-1.07.64-4.85,1.55-4.58,3.38,1.48,5.44,11.41,7.32,10.27.56-.34-.64-1.76-.61-2.46a25.79,25.79,0,0,1,1-4.5c.3-1,.76-2.11,1-3.15a17.14,17.14,0,0,0,0-3.36c2,1.64,5.39,3.18,6.66,4.53a41.66,41.66,0,0,0-1.76-5.34c-.61-1.53-1.86-3.36-2.17-5a8.25,8.25,0,0,0,2.8.82,16.56,16.56,0,0,0,3,1.08c.34-2.33-1.71-3.55-1.86-5.68,1.33-.06,2.49-.6,3.83-.37s1.85,0,2.89.59a16.86,16.86,0,0,0,3.91,1.82c1.18.25,2.24,1,3.48.94.24-2.87-2-4.58-3.12-7A6.48,6.48,0,0,0,82.09,55.49Z"/><path class="cls-2" d="M23.88,47.59c-2.31-3.94,1-11.41,2.68-15.08,2.5-5.36,7.81-7.29,12.67-9.78,4.43-2.26,9.93-2.07,14.8-1.09s7.81,4.15,11.19,7.5c3.85,3.83,4.5,8.42,5,13.59A22.51,22.51,0,0,1,66.74,57c-6,10-17.32,12.83-27.79,9.5-7.49-2.38-16.9-13.16-15.23-21.7Z"/><path class="cls-2" d="M19.7,29.73c.92.78,1.41,2.4,2.14,3.46a14.27,14.27,0,0,0,2.75,2.63c.86-.86,2.06-2.11,1.77-3.45-1.12-.3-2.52-.43-3.68-.62s-1.81-1.38-2.51-1.55Z"/><path class="cls-2" d="M36.64,23.29c-1.3-1.67-.81-3.63-.84-5.69.61.71,1,1.67,1.58,2.43a7.61,7.61,0,0,1,1.53,2.06c-.6.57-2.07.71-2.39,1.43Z"/><path class="cls-2" d="M63.24,26.86c-.61-1.69.63-2.53,2-3.1a7.5,7.5,0,0,0,3.59-2.7c-.31,2.16-1.44,2.61-2.61,4.14-.53.7-.39,1.39-1.12,2s-1.89.68-1.76-.33Z"/><path class="cls-2" d="M69.68,51.79a7.8,7.8,0,0,1,2.86,2.51c.78,1,1,1.31,1.86,2.28-1.57-1.15-3.74-1.17-5.42-1.8a4.32,4.32,0,0,1,1.17-2.27Z"/><path class="cls-2" d="M54.65,66.7a13,13,0,0,0,3.7,2.87c1.47.8,2.6,1.4,3.22,3.06a5.77,5.77,0,0,0-1.17-3.9c-.71-1-1.85-2.26-1.48-3.55-.83-.4-3.57.73-3.56,1.88Z"/><path class="cls-2" d="M35.56,64.44c-1.25.3-2,1.66-2.59,2.63-.81,1.21-1.93,1.82-2.82,2.84,1.05-1.4,1.28-3.59,1.86-5.35.34-1,.42-1.65,1.37-1.17a12.16,12.16,0,0,1,2.06,1.88Z"/><path class="cls-2" d="M25.54,53.94c-1-1-5.24.43-6.39,1A23.48,23.48,0,0,1,22.8,51c2.08-1.85,1.79,1.75,2.62,3.1Z"/><path class="cls-3" d="M27.49,57.76c-6.76-9.8-4.61-24.81,5-31.87,10.86-8,26.39-5.83,34,5.43a22.94,22.94,0,0,1-5,31.25C50,71.48,35.62,67.41,26.87,57c-.19-.23-.63,0-.46.3C38.57,76.62,70.75,68.62,71.62,45.47,72.46,22.93,44.07,11.86,28.79,28c-7.12,7.49-8.28,21.9-1.66,30.11C27.33,58.31,27.66,58,27.49,57.76Z"/><path class="cls-3" d="M32.49,25.14c-1.45-1-1.31-4.62-.89-6.05a18.42,18.42,0,0,1,.87-1.93,8.44,8.44,0,0,0,.94-3,7.16,7.16,0,0,0-1.18-3.41c-.19-.37-.49-.71-.71-1.08A9.33,9.33,0,0,1,31.8.29a.19.19,0,0,0-.3-.22C30,1.94,28.89,4.2,29.42,6.69c.78,3.63,4.11,5,3,9.39-.83,3.27-4.27,7-.11,9.33C32.49,25.51,32.68,25.26,32.49,25.14Z"/><path class="cls-3" d="M31.5.15C29.83,3.55,32.67,5.31,35.29,7c1.45.91,3,1.72,3.74,3.39.86,1.82.12,3.46.54,5.24.57,2.47,2.9,3,3.88,5.28.11.24.53.12.45-.15-.53-1.87-1.81-2-3-3.47-1.62-2.1-.31-4.86-1.38-7.16-1.8-3.87-9.75-4.52-7.69-9.81C32,.05,31.61-.07,31.5.15Z"/><path class="cls-3" d="M42.34,18.28C40.89,14.05,44.76,12.49,45.9,9c.92-2.8-1.37-5-1.16-7.79a.18.18,0,0,0-.35,0,7.31,7.31,0,0,0,.44,3.43c1,3.23.44,4.75-1.49,7.42C41.85,14.13,40.79,16,42,18.44,42.1,18.67,42.41,18.5,42.34,18.28Z"/><path class="cls-3" d="M44.53,1.32c1.5,3,5.16,4.65,6.23,7.84.64,1.9-.06,3.9.6,5.82.8,2.32,1.94,3.74,1.79,6.52a.13.13,0,0,0,.26.06,5.49,5.49,0,0,0-.32-4.4A12.78,12.78,0,0,1,51.65,13c-.1-1.06.11-2.12-.09-3.17-.7-3.74-4.83-5.58-6.65-8.69C44.78.91,44.41,1.08,44.53,1.32Z"/><path class="cls-3" d="M48.84,67.92c-.25,5.69,4.89,5.86,8.77,8.19,4.37,2.62,2.68,9.94,8.58,10.63a.17.17,0,0,0,.07-.32c-5.23-1.87-3.54-6.8-7-10s-9.85-2.23-9.91-8.5C49.31,67.66,48.85,67.61,48.84,67.92Z"/><path class="cls-3" d="M66.23,86.41c-3-4.67,1.25-9,.76-13.79a10.93,10.93,0,0,0-1.84-5c-1-1.46-3.32-3.11-3.7-4.7-.05-.22-.42-.23-.41,0,0,1.35.37,1.61,1.22,2.63C65,69,67,71.35,66,76.11c-.84,3.9-3,7-.09,10.5C66.05,86.77,66.34,86.59,66.23,86.41Z"/><path class="cls-3" d="M66.65,72.08a6.88,6.88,0,0,0,3.12,2.64,15.12,15.12,0,0,1,2.36,1.4A10.11,10.11,0,0,1,74,78.57c.1.14.31,0,.29-.14-.44-3.59-5.53-4-7.39-6.54C66.82,71.73,66.56,71.9,66.65,72.08Z"/><path class="cls-3" d="M74.07,77.73c-.18-4.93-4.39-8.29-4.42-13.1,0-3,.74-6-1.92-8-.31-.23-.63.24-.34.49,3.09,2.65.9,7,1.93,10.35,1.16,3.78,3.79,6.19,4.35,10.33C73.7,78,74.08,78,74.07,77.73Z"/><path class="cls-3" d="M43.51,67.61c-2.49,2.31-.1,5.6.51,8.23.82,3.51-1.39,5.54-1.85,8.81a8.45,8.45,0,0,0,1,4.86c.09.21.4.06.32-.16-1.07-3-.68-5.31.42-8.1a9.51,9.51,0,0,0,1-3.69c-.07-3.1-3.56-6.87-1.07-9.63C44.05,67.73,43.71,67.43,43.51,67.61Z"/><path class="cls-3" d="M43.59,89.45c.29-4.08,4.43-5.62,6.86-8.32A9.16,9.16,0,0,0,53,73.71c0-.22-.35-.19-.38,0-.38,2.25-.54,4.11-1.94,6a22.22,22.22,0,0,1-4.2,4c-1.88,1.53-3.53,3.17-3.37,5.74C43.17,89.72,43.57,89.69,43.59,89.45Z"/><path class="cls-3" d="M64.58,28.1c2.38-3.85,7.35-1,10.73-2.79,2.25-1.17,3.39-2.65,6.1-3.2,1.62-.34,2.09-.2,3.16-1.52.16-.19-.14-.46-.33-.3-1.78,1.58-4.47,1-6.46,2.33-1.5,1-2.09,2.15-4.12,2.63a14.94,14.94,0,0,1-3.41.05c-2.4,0-5.09,0-6,2.6C64.11,28.13,64.45,28.32,64.58,28.1Z"/><path class="cls-3" d="M69.09,34.93a6.69,6.69,0,0,0,2.83-1.41,6,6,0,0,0,2-2.61.23.23,0,0,0-.36-.25c-.76.63-1.2,1.63-1.95,2.32A7.65,7.65,0,0,1,69,34.56C68.77,34.64,68.88,35,69.09,34.93Z"/><path class="cls-3" d="M73.58,31.4c1.44-2.47,4.62-2.89,6.12-5.33A7.12,7.12,0,0,1,82,23.59c.36-.24.73-.37,1.08-.63a3.63,3.63,0,0,0,1.57-2.32c.06-.31-.43-.41-.53-.12-.69,1.85-2.17,2-3.52,3.15-1.08.89-1.37,2.31-2.39,3.26-1.68,1.56-4,2-5,4.28C73.15,31.42,73.47,31.59,73.58,31.4Z"/><path class="cls-3" d="M61,24.69c.76-4.42,5.11-4.68,7.94-7.2,2.5-2.24,3.18-5.46,6.11-7.42.16-.11,0-.33-.17-.26-3.93,1.62-4.58,6.4-8.28,8.48-2.6,1.46-6,2.88-5.95,6.36A.18.18,0,0,0,61,24.69Z"/><path class="cls-3" d="M68.53,25.73c2.24-.84,3-2.42,3.37-4.71a24.9,24.9,0,0,1,1.58-5.83c.6-1.48.79-3.76,1.6-5.07a.17.17,0,0,0-.25-.23c-.64.43-.56.45-.85,1.14-.68,1.6-1,3.48-1.63,5.14-1.34,3.25-.42,7.32-4,9.24A.18.18,0,0,0,68.53,25.73Z"/><path class="cls-3" d="M63.21,26.19c.25-2.17,1.9-2.7,3.68-3.52,1.19-.55,2.64-1.33,2.8-2.79a.18.18,0,0,0-.35-.08c-.86,1.93-2.69,2.33-4.42,3.25-1.21.64-2.32,1.65-2,3.15A.16.16,0,0,0,63.21,26.19Z"/><path class="cls-3" d="M65.94,26.09c.47-1.52,1.73-2,2.73-3.13a4.41,4.41,0,0,0,1-3.08c0-.14-.2-.2-.25-.06a20.16,20.16,0,0,1-.56,2.06,5.18,5.18,0,0,1-1.52,1.64A3.89,3.89,0,0,0,65.56,26,.2.2,0,0,0,65.94,26.09Z"/><path class="cls-3" d="M90.13,47.12a3.15,3.15,0,0,0-2.79-1.72c-.87-.09-1.76.12-2.63,0-2.2-.33-3.45-1.6-5-2.9-2.86-2.36-5.72-4.1-9-1.47-.21.16,0,.54.26.39,4.62-2.76,7.12,1.1,10.53,3.35,2.42,1.59,6.53.32,8.29,2.58C89.93,47.53,90.26,47.32,90.13,47.12Z"/><path class="cls-3" d="M70.54,49.84A7.57,7.57,0,0,0,75,49.77c.71-.21,1.31-.61,2-.78,1.79-.44,3.19.06,5,.3a6.68,6.68,0,0,0,2.14.11c1.83-.31,3.92-2.93,5.77-1.65a.29.29,0,0,0,.33-.48c-.77-.58-.84-.68-1.8-.61-3.23.23-2.54,2.39-7.14,1.76A11.32,11.32,0,0,0,77.89,48a11.17,11.17,0,0,0-2.08.73,12.28,12.28,0,0,1-5.23.65A.23.23,0,0,0,70.54,49.84Z"/><path class="cls-3" d="M7.1,61.94c-.8-4.85,4.59-5.11,7.44-7.32a6.37,6.37,0,0,0,2-2.77c.53-1.24.79-2.74,1.92-3.65,1.36-1.1,3.26-.47,4.82-.73a.27.27,0,0,0,0-.53c-2.22,0-4.18-.64-5.82,1.3-1.9,2.25-1.64,4.95-4.56,6.54S5.5,57.68,6.68,62A.21.21,0,0,0,7.1,61.94Z"/><path class="cls-3" d="M7,62.1c.89-4.21,6.76-1.57,9.12-1.84a20.42,20.42,0,0,0,3.07-.91C22,58.58,25,60.4,27.06,58c.19-.23-.17-.56-.39-.35-1.42,1.33-4.85.3-6.72.75a34,34,0,0,1-3.83,1.19c-1.48.17-2.91-.4-4.35-.51-2-.14-5.26.47-5.08,3C6.71,62.32,7,62.27,7,62.1Z"/><path class="cls-3" d="M30.41,61.44c-3.08.66-3.07,3.08-3.11,5.78s-1.1,3.29-2.55,5.13c-1.84,2.32,0,5-3.27,6.8a.23.23,0,0,0,.2.42A4.1,4.1,0,0,0,24,77.87a7.79,7.79,0,0,0,.47-2,5.88,5.88,0,0,1,1.4-3.77,6.53,6.53,0,0,0,1.33-1.24c2-3-1.16-7.46,3.36-9.06C30.74,61.74,30.63,61.39,30.41,61.44Z"/><path class="cls-3" d="M21.92,79.55a11.91,11.91,0,0,0,4.14-1.73c1.93-1.51,2.63-3.6,5-4.59,1.41-.58,3-.76,4.21-1.75,1.74-1.4,1.56-3.63,3.08-5.19a.2.2,0,0,0-.26-.3c-1.4.91-1.27,2.09-2,3.5C34.71,72.05,32.28,71.85,30,73a6.72,6.72,0,0,0-2.22,2,12.61,12.61,0,0,1-6,4.23C21.6,79.27,21.71,79.61,21.92,79.55Z"/><path class="cls-3" d="M9.06,22.34a4.79,4.79,0,0,0,1.7,4.28c1.6,1.19,3,1.81,4,3.8a10.29,10.29,0,0,0,1,2.11,6.26,6.26,0,0,0,2,1.57,9.28,9.28,0,0,1,3.09,3.28A2.9,2.9,0,0,0,24,39c.41,0,.48-.65.07-.63-2.62.08-2.64-1.94-4.08-3.44-1.18-1.22-2.71-1.53-3.74-2.94s-.87-3.13-2.21-4.31c-1.93-1.69-4.37-1.7-4.55-5.31C9.43,22.11,9.07,22.13,9.06,22.34Z"/><path class="cls-3" d="M9.11,22.34c1.52,3.76,3.52,1.93,6.71,2,2.56,0,3.31,1.89,5.32,2.81,2.5,1.17,4.91-.43,6.94,2.29.26.35.78-.09.52-.44A4.42,4.42,0,0,0,26,26.89a8.25,8.25,0,0,0-1.57-.05c-2.78-.13-2.88-.31-4.9-1.82a5.3,5.3,0,0,0-2.9-1.39c-2.72-.25-5.05,2.43-7.21-1.44A.17.17,0,0,0,9.11,22.34Z"/><path class="cls-3" d="M3.69,37.6a6.23,6.23,0,0,0,3.09.11c2.24-.58,3.53-2.34,6.08-2,2.71.39,3.66.63,5.8-1.23a.28.28,0,0,0-.36-.42c-1.76,1.36-2.68,1.57-5,1.18a5.62,5.62,0,0,0-2.12-.2,9.61,9.61,0,0,0-2.85,1.37,7.24,7.24,0,0,1-4.64.85C3.51,37.27,3.5,37.55,3.69,37.6Z"/><path class="cls-3" d="M3.76,37.57c3.15,2.3,7,1.46,10.45,3.08,1.34.63,2.61,1.62,4.11,1.89s3.18-.15,4.74,0a.26.26,0,0,0,.05-.52c-1.87-.38-3.81.25-5.66-.35-1.24-.41-2.3-1.29-3.49-1.81-3.27-1.42-6.83-.64-10-2.52A.16.16,0,0,0,3.76,37.57Z"/><path class="cls-3" d="M5.69,49.2c2.31-.28,4.62-.71,6.47-2.21,2.05-1.67,2.92-4.08,5.71-4.77a.27.27,0,0,0-.09-.54c-1.82.19-2.94,1.31-4,2.67a11.14,11.14,0,0,1-3.22,3,20.72,20.72,0,0,1-4.9,1.42A.19.19,0,0,0,5.69,49.2Z"/><path class="cls-3" d="M5.49,49.34c1.8-.07,3.52.77,5.33.48S15.3,47.69,17,49.5c.26.28.7-.1.45-.38-1.22-1.34-2.73-1-4.34-.57a10.64,10.64,0,0,1-3.6.76c-1.41-.08-2.62-.56-4-.33C5.28,49,5.28,49.35,5.49,49.34Z"/><path class="cls-3" d="M22.15,58.45c-3.06.16-3.08,3.34-3.42,5.69-.56,3.81-5.23,3.7-5.91,7.24,0,.22.31.29.38.09,1-2.69,4.16-2.88,5.52-5.21,1.44-2.48-.31-6.69,3.49-7.46C22.45,58.76,22.38,58.44,22.15,58.45Z"/><path class="cls-3" d="M13.14,71.54c2.54-2.13,5.79-1.06,8.51-2.62A19.09,19.09,0,0,1,26,66.64c.95-.27,1.3-.19,2-1,.18-.21-.14-.45-.34-.31-1.18.84-2.76.65-4,1.38-1.59.93-2.5,2.05-4.46,2.41-2.38.44-4.54.2-6.26,2.14C12.72,71.45,13,71.68,13.14,71.54Z"/><path class="cls-3" d="M33.62,72c-1.71,0-1.27,1.62-.79,2.7.94,2.11,1.67,2.78,1.21,5.39-.35,2,.36,3.29.42,5.28a.19.19,0,0,0,.38,0c.36-1.56-.53-2.81-.37-4.43.13-1.34.75-2.54.33-3.9-.37-1.17-3.09-4-1.13-4.77A.16.16,0,0,0,33.62,72Z"/><path class="cls-3" d="M34.85,85.09c.66-3,3.43-4,4.82-6.47a5.44,5.44,0,0,1,3-2.83,2.19,2.19,0,0,0,1.42-1.45c.1-.26-.28-.47-.43-.23-.68,1.08-1.93,1.13-2.85,1.87s-1.35,2.08-2.07,3.12c-1.51,2.19-4.11,3-4.24,6A.2.2,0,0,0,34.85,85.09Z"/><path class="cls-3" d="M23.19,26.78c-3-2.09.26-5.63-.76-8.33a7.27,7.27,0,0,0-1.7-2.24,6.38,6.38,0,0,1-1.82-6c0-.2-.29-.27-.36-.08a5.76,5.76,0,0,0-.12,4.22c1,2.16,3.42,2.88,3.59,5.53s-2.29,5.75,1,7.17A.18.18,0,0,0,23.19,26.78Z"/><path class="cls-3" d="M18.67,10.28a3.22,3.22,0,0,0,1.67,2.41c1.44.82,3-.07,4.44.81,1.18.71,1.79,2.24,3.18,2.65,1.19.34,3.21-.81,3.93.81a.23.23,0,0,0,.44-.14c-.27-1.91-1.8-1.17-3.21-1.24-2.43-.12-2.72-2.13-4.54-3s-4.68,1.24-5.49-2.41C19,10,18.62,10,18.67,10.28Z"/><path class="cls-3" d="M52.71,16.87c.12-3.92,3.42-3.29,6.11-4.48a4,4,0,0,0,2.12-1.89c.34-.59.5-1.27.79-1.89a6,6,0,0,1,3.64-3c.17-.07.08-.36-.09-.31A5.81,5.81,0,0,0,61.47,7.8c-.85,1.43-.88,3-2.51,3.88a11.29,11.29,0,0,1-2.56.77c-2.38.61-4.58,1.57-4,4.44A.18.18,0,0,0,52.71,16.87Z"/><path class="cls-3" d="M64.86,5.42c-2.3,2.23-.75,4-1,6.85-.12,1.65-1.23,2.78-1.42,4.36-.15,1.32.59,2.29.8,3.57a.22.22,0,0,0,.43,0,15.63,15.63,0,0,0-.37-2.75c-.2-1.79.55-2.32,1-3.93.76-2.64-1.64-5.33.77-7.75C65.34,5.56,65.07,5.23,64.86,5.42Z"/><path class="cls-3" d="M76.38,40.73c3.46,1.38,5.2-1.48,8-2.89,2.5-1.26,4.61-2.68,4.79-5.79a.16.16,0,0,0-.31-.07,9.39,9.39,0,0,1-2,3.64,13.8,13.8,0,0,1-3.39,2c-2.47,1.36-3.87,3.47-7.07,2.88C76.28,40.43,76.24,40.67,76.38,40.73Z"/><path class="cls-3" d="M88.78,31.74c-2.32,2.5-4.43,3.13-7.39,1.48-1-.53-1.94-1-3-1.49s-3.62-1.88-4.88-.95c-.26.19,0,.53.28.44,2.51-.84,6.21,2.07,8.33,3.08C85,35.66,87.2,34.21,89,32,89.17,31.83,88.92,31.59,88.78,31.74Z"/><path class="cls-3" d="M69.29,60.77c1,3.07,3.8,2.19,6.34,1.84a5.26,5.26,0,0,1,4.71,1.2c.44.37.62.93,1.15,1.22a3,3,0,0,0,1.42.33c2.63.31,3.11-.45,5.36,1.78a.22.22,0,0,0,.33-.28,4.43,4.43,0,0,0-3.07-2.17c-1.69-.34-2.54.4-4.35-.84-.42-.29-.69-.88-1.11-1.21-3-2.34-8.62,2.07-10.36-2C69.62,60.41,69.21,60.53,69.29,60.77Z"/><path class="cls-3" d="M73.65,49.81a22.71,22.71,0,0,1,3,1.35c2,1.37,1.24,1.75,2.35,2.84s2.12,1.14,3.22,2c1.81,1.35,1.84,3.4,3.08,5,.42.54,1.06,1,1.49,1.53,1.12,1.43,1.13,2.69,1.49,4.4a.2.2,0,0,0,.39,0,6.69,6.69,0,0,0-1-4.56,7,7,0,0,0-.65-.68,4.62,4.62,0,0,1-2.17-3.38c-.38-.89-.1-1-.79-1.82s-.89-.6-1.61-1.09a33.55,33.55,0,0,1-4-3.48,11.42,11.42,0,0,0-4.59-2.49A.21.21,0,0,0,73.65,49.81Z"/><path class="cls-3" d="M18.73,10.42c.14,1.59,2.42,4,4,2.51a.17.17,0,0,0-.14-.29,2.74,2.74,0,0,1-2.34-.41A4.26,4.26,0,0,1,19,10.33C19,10.16,18.71,10.26,18.73,10.42Z"/><path class="cls-3" d="M39.89,13.38c-.34-2.31,1.78-3.89,1.62-6.11-.15-2-2.72-3.46-1-5.51.09-.12-.08-.26-.19-.17-1.62,1.29-.57,2.57.13,4.12.88,2,.28,3-.45,4.82a3.84,3.84,0,0,0-.32,2.89C39.69,13.57,39.91,13.55,39.89,13.38Z"/><path class="cls-3" d="M40.22,1.82c-.15,1.67,1,2.25,2,3.41C43.6,6.88,43.47,9,44.54,10.78a.19.19,0,0,0,.35-.16A24.89,24.89,0,0,0,43.4,6.13c-.85-1.57-2.79-2.41-2.9-4.32C40.49,1.64,40.23,1.66,40.22,1.82Z"/><path class="cls-3" d="M51.47,12.1c.56-1.54,2.19-2.3,2.58-4S53.9,5,55.65,3.77c.17-.11,0-.37-.19-.29-1.45.63-1.64,1.74-1.72,3.19a5.09,5.09,0,0,1-1.4,3.47A4.73,4.73,0,0,0,51.19,12,.15.15,0,0,0,51.47,12.1Z"/><path class="cls-3" d="M55.41,3.74a4.28,4.28,0,0,0,.07,3.76,8.1,8.1,0,0,1,1,2.52c.08,1.06-.59,1.88-.55,2.91,0,.29.44.35.46,0,.08-1.49,1-2.44.4-4-.64-1.8-1.82-3.11-1.1-5.16C55.73,3.66,55.48,3.58,55.41,3.74Z"/><path class="cls-3" d="M63.07,16.27c.31-1.41,2.44-1.47,3.42-2.21S67.69,11.72,69,11a.16.16,0,0,0-.1-.29c-1.64.14-1.85,2.61-3.25,3.28-1,.48-2.92.85-2.9,2.26A.17.17,0,0,0,63.07,16.27Z"/><path class="cls-3" d="M66.31,18.64c1.06-.77,1.21-2.45,1.58-3.64A18.28,18.28,0,0,1,69.21,11c.08-.14-.06-.37-.23-.27-.8.5-1,2-1.18,2.8-.17.63-.33,1.27-.54,1.89-.33,1-.43,2.27-1.16,3A.17.17,0,0,0,66.31,18.64Z"/><path class="cls-3" d="M71.56,21.18c2-1.7,5.07-.65,6.7-3,.17-.24-.18-.47-.37-.26-1.15,1.33-2.5,1.46-4.12,1.77A3.64,3.64,0,0,0,71.34,21,.15.15,0,0,0,71.56,21.18Z"/><path class="cls-3" d="M73.79,25.27a4.78,4.78,0,0,0,2.15-2.82,8.73,8.73,0,0,1,2.39-4.12c.11-.09,0-.33-.13-.28a3.81,3.81,0,0,0-2.14,2.57c-.62,1.63-.92,3.32-2.45,4.38C73.46,25.1,73.63,25.36,73.79,25.27Z"/><path class="cls-3" d="M76.6,28.6c1.13-.24,1.93.63,3,.66,1.55,0,2.61-1,4.25-.51.19.05.35-.21.17-.32-1.16-.69-2.1-.22-3.3.14a3.9,3.9,0,0,1-2.69-.28,2.18,2.18,0,0,0-1.51,0C76.34,28.32,76.38,28.64,76.6,28.6Z"/><path class="cls-3" d="M78.47,31.88a2.59,2.59,0,0,0,2.46-1.08c1-1,1.73-2.19,3.29-2a.21.21,0,0,0,.09-.41c-2.46-1-3.47,3.25-5.77,3.2C78.38,31.57,78.29,31.83,78.47,31.88Z"/><path class="cls-3" d="M80.77,39.85c2,0,4.1,3.11,6.13,1.63a.17.17,0,0,0-.14-.29c-1.46.35-2.25-.22-3.45-1a3.91,3.91,0,0,0-2.56-.69C80.58,39.56,80.59,39.86,80.77,39.85Z"/><path class="cls-3" d="M80.31,43.47c1.49-.06,2.65-1.08,4.14-1.07a3.27,3.27,0,0,0,2.77-.9.2.2,0,0,0-.26-.3,3.33,3.33,0,0,1-2,.76,7,7,0,0,0-1.29,0c-1.18.21-2.09,1-3.32,1.14C80.12,43.16,80.13,43.47,80.31,43.47Z"/><path class="cls-3" d="M69.37,65.53c-.1,1.27.9,1.88,2,2.15,1.68.41,3.4.3,4.6,1.74a.19.19,0,0,0,.31-.2c-1.15-2.83-6.08-.49-6.63-3.71A.15.15,0,0,0,69.37,65.53Z"/><path class="cls-3" d="M76.15,69c-.13-2.24-1.6-4.65-2.84-6.45-.16-.24-.57,0-.43.28A30.26,30.26,0,0,1,75.8,69,.18.18,0,0,0,76.15,69Z"/><path class="cls-3" d="M78.29,52.59a4.79,4.79,0,0,0,3.28,1.18c2.21-.13,4-1.47,6.26-1,.15,0,.25-.22.11-.3a3.75,3.75,0,0,0-3.13-.07c-2.39.72-4.06,1.38-6.35-.06A.15.15,0,0,0,78.29,52.59Z"/><path class="cls-3" d="M88,52.42a18.26,18.26,0,0,0-3.76-1.92c-1.15-.45-2.08-1.63-3.26-1.86a.23.23,0,0,0-.15.41A24,24,0,0,0,83.86,51c1.35.52,2.62,1.21,3.93,1.81C88,52.86,88.14,52.55,88,52.42Z"/><path class="cls-3" d="M51.94,77.81c-.94,2.13.34,2.54,1.5,4.08.57.76.43,1.83,1.17,2.44,1,.78,2.5.62,2.88,2.12,0,.16.3.17.3,0,.11-2-2.47-1.6-3.22-3-.41-.79-.35-1.4-1-2.09-1.12-1.13-1.83-1.56-1.31-3.39A.15.15,0,0,0,51.94,77.81Z"/><path class="cls-3" d="M57.87,86.39c.21-2.57-2.56-4.26-1.32-6.88.72-1.53,1.56-2.62.7-4.3a.23.23,0,0,0-.42.2c.94,2.37-1.36,3.53-1.25,5.73.09,1.88,1.71,3.36,1.94,5.27C57.54,86.61,57.86,86.59,57.87,86.39Z"/><path class="cls-3" d="M40.82,83.48c1-2.4-.57-5,.89-7.32a.18.18,0,0,0-.22-.26c-2.18,1-.45,5.66-1,7.46A.17.17,0,0,0,40.82,83.48Z"/><path class="cls-3" d="M40.83,83.54c.9-1.32,1.44-2.84,2.53-4,.61-.68,1.54-1.41,1.54-2.38a.18.18,0,0,0-.33-.12c-.64.95-1.36,1.77-2.06,2.68a27.83,27.83,0,0,0-2,3.64C40.42,83.53,40.7,83.74,40.83,83.54Z"/><path class="cls-3" d="M16.21,19.36c2,1.95,1.79,6,4.72,7,.15.05.29-.18.14-.27-2.62-1.53-2.48-5-4.66-6.91C16.28,19,16.09,19.24,16.21,19.36Z"/><path class="cls-3" d="M16.34,19.38c1.32,1.62,3.85,1.42,5.23,3a.21.21,0,0,0,.37-.17C21.78,21.39,20.71,21,20,20.7a11.57,11.57,0,0,1-3.44-1.58C16.42,19,16.22,19.23,16.34,19.38Z"/><path class="cls-3" d="M9,42.65a2.39,2.39,0,0,0,1.95.87,7.13,7.13,0,0,1,3.31.68.18.18,0,0,0,.25-.26c-1.2-1.7-3.86-.2-5.31-1.51C9.07,42.31,8.9,42.52,9,42.65Z"/><path class="cls-3" d="M9.05,42.71a2.43,2.43,0,0,0,2.5-.36c.42-.29.79-.64,1.2-.94s1.08-.49,1.59-.82c.15-.1,0-.3-.1-.33-.79-.16-1.61.55-2.18,1a3.53,3.53,0,0,1-2.93,1.11A.17.17,0,0,0,9.05,42.71Z"/><path class="cls-3" d="M8.94,31.13c.85,1.76,3,1.29,4.28,2.55.87.83,1.81,2.39,3.22,2a.22.22,0,0,0-.08-.43c-1.52.18-2.32-1.72-3.44-2.47S10.17,32.34,9.19,31C9.09,30.83,8.87,31,8.94,31.13Z"/><path class="cls-3" d="M8.75,31.14a9.62,9.62,0,0,0,2.36.54c1.45,0,2.6-1.13,4.07-.46.27.13.49-.3.24-.45a2.87,2.87,0,0,0-2.66,0,4.66,4.66,0,0,1-2.3.37,13,13,0,0,0-1.63-.31C8.65,30.81,8.55,31.09,8.75,31.14Z"/><path class="cls-3" d="M21.65,72.45a2.37,2.37,0,0,0,1.47-2.08c.09-.55.11-1.12.2-1.67a3.5,3.5,0,0,1,.95-1.86c.11-.14-.07-.29-.2-.25-.83.3-1.11,1.28-1.23,2.06-.2,1.33,0,2.69-1.33,3.5A.17.17,0,0,0,21.65,72.45Z"/><path class="cls-3" d="M21.69,72.46a4,4,0,0,0,2.63-1.18,8.42,8.42,0,0,1,3.16-2.08c.21-.06.24-.4,0-.41A3.62,3.62,0,0,0,25,70a7.47,7.47,0,0,1-3.3,2.15C21.52,72.19,21.51,72.45,21.69,72.46Z"/><path class="cls-3" d="M12.59,64.2a4.09,4.09,0,0,0,2.62-1.78c.31-.44.57-.92.88-1.37a10.81,10.81,0,0,1,1.4-1.39.18.18,0,0,0-.15-.3c-.89.19-1.51,1.22-1.95,1.94a5,5,0,0,1-2.85,2.58C12.35,63.94,12.39,64.24,12.59,64.2Z"/><path class="cls-3" d="M12.36,64.34c2.6.6,4.36-2.22,7-2.05a.21.21,0,0,0,.09-.4c-2.4-1-4.49,2.42-7,2.14C12.25,64,12.18,64.3,12.36,64.34Z"/><path class="cls-3" d="M12.75,52.29A19.88,19.88,0,0,0,16.36,52a.23.23,0,0,0-.08-.46c-1.18.14-2.35.4-3.54.46C12.54,52,12.56,52.29,12.75,52.29Z"/><path class="cls-3" d="M12.79,52.33a4.48,4.48,0,0,0,1.72-1.76,9.81,9.81,0,0,1,.79-1.12,8.88,8.88,0,0,1,1-.75.18.18,0,0,0-.1-.31c-.71-.16-1.34.72-1.68,1.22A7.35,7.35,0,0,1,12.64,52C12.45,52.12,12.58,52.43,12.79,52.33Z"/><path class="cls-3" d="M35.33,16.68c.39,1.72-1.43,5.65,1.05,6.38.22.07.41-.23.2-.36-2-1.18-.5-4.19-1-6.06C35.54,16.48,35.29,16.52,35.33,16.68Z"/><path class="cls-3" d="M35.41,16.7c-.4,2.48,2.27,3,3,5.07.09.26.53.12.46-.15-.54-2.05-3.38-2.56-3.21-4.9A.14.14,0,0,0,35.41,16.7Z"/><path class="cls-3" d="M28.5,71.26c3.44-1.35,1.63-6.35,4.45-8.12a.23.23,0,0,0-.2-.41c-1.22.39-1.6,1.83-1.86,2.94-.47,2-.63,4.19-2.5,5.37A.12.12,0,1,0,28.5,71.26Z"/><path class="cls-3" d="M28.73,71.26a17.74,17.74,0,0,0,2.17-1.33,8.32,8.32,0,0,0,1.21-1.44c.93-1.3,1.61-2.71,3-3.54a.23.23,0,0,0-.21-.42c-1.25.45-2,1.77-2.69,2.82a14.5,14.5,0,0,1-1.47,2c-.66.69-1.58,1-2.24,1.69A.14.14,0,0,0,28.73,71.26Z"/><path class="cls-3" d="M17.21,55.94c2.95-1,3.68-4.48,6.66-5.2a.23.23,0,0,0-.07-.45,4.32,4.32,0,0,0-3,1.88c-1.11,1.43-2,2.8-3.75,3.51C16.91,55.75,17,56,17.21,55.94Z"/><path class="cls-3" d="M17.05,56.06c2.75-.48,5.07-2.24,8-1.73.23,0,.31-.33.09-.41-2.59-.93-5.79,1-8.15,1.88C16.81,55.85,16.89,56.09,17.05,56.06Z"/><path class="cls-3" d="M18.55,29a12.59,12.59,0,0,0,3,2.45c1.13.51,2.3.09,3.4.76.14.08.31-.08.2-.21-.68-.79-1.49-.57-2.43-.65-1.69-.15-2.76-1.61-4-2.57C18.56,28.66,18.42,28.88,18.55,29Z"/><path class="cls-3" d="M18.6,29c2,2.09,2.27,5.93,5.61,6.5.3,0,.35-.43.05-.48-3.11-.51-3.4-4.4-5.47-6.23C18.67,28.71,18.49,28.91,18.6,29Z"/><path class="cls-3" d="M24.74,32a9.63,9.63,0,0,0,1.23.65c.2.08.37-.23.18-.34a9.69,9.69,0,0,0-1.26-.6C24.73,31.66,24.59,31.92,24.74,32Z"/><path class="cls-3" d="M54.15,66.77c.29,1.51,1.66,2.36,3,3,1.93.93,3.68,1.5,4.45,3.68.06.18.3.07.29-.09-.09-1.56-1.39-2.5-2.68-3.13-1.91-.94-3.78-1.45-4.76-3.52A.14.14,0,0,0,54.15,66.77Z"/><path class="cls-3" d="M61.85,73c.59-3-2.64-5-3-7.86a.17.17,0,0,0-.32,0c-.34,1,.34,2,.85,2.81,1.07,1.67,2.06,3,2.15,5.09C61.55,73.17,61.82,73.13,61.85,73Z"/><path class="cls-3" d="M75.4,57a22.44,22.44,0,0,0-4.23-2.08c-.83-.29-2.16-.75-2.82.08-.15.18.12.39.29.27,1-.71,2.65.16,3.59.57s2,1,3,1.41C75.42,57.32,75.54,57.09,75.4,57Z"/><path class="cls-3" d="M69.69,52.3c1.68.16,2.58,1.65,3.53,2.87.62.8,1.54,2.12,2.69,2.12A.17.17,0,0,0,76,57a8.65,8.65,0,0,1-1.79-1.4c-.56-.63-1-1.33-1.58-2-.75-.91-1.7-1.85-3-1.67A.18.18,0,0,0,69.69,52.3Z"/><path class="cls-3" d="M44.66,66.69c8.42,1.59,17.63-3.74,22-10.88a.15.15,0,0,0-.25-.17c-5,6.7-12.91,12.22-21.7,10.76C44.5,66.37,44.47,66.65,44.66,66.69Z"/><path class="cls-3" d="M67.42,53.6a17.26,17.26,0,0,0,2-11.53.16.16,0,0,0-.32,0c-.22,4.18.15,7.52-2,11.36C67.11,53.6,67.33,53.76,67.42,53.6Z"/><path class="cls-3" d="M25.17,41.11C26.21,34.68,29.48,31,34,26.6a.16.16,0,0,0-.21-.25A20.71,20.71,0,0,0,24.9,41.09C24.88,41.26,25.14,41.28,25.17,41.11Z"/><path class="cls-3" d="M25.11,47.53c.62,4.52,2.29,10.6,6.65,12.93a.16.16,0,0,0,.18-.26c-4-3.15-5.73-7.84-6.57-12.71A.13.13,0,0,0,25.11,47.53Z"/><path class="cls-3" d="M52.44,23.59A24.57,24.57,0,0,1,64.38,32c.11.14.36,0,.27-.18-2.36-4.33-7.57-7-12.12-8.46A.13.13,0,0,0,52.44,23.59Z"/><path class="cls-3" d="M66,34.16A4.27,4.27,0,0,0,67,35.61c.12.1.28-.09.18-.21A12.17,12.17,0,0,1,66.26,34C66.15,33.82,65.85,34,66,34.16Z"/><path class="cls-3" d="M55,26.61a19.55,19.55,0,0,1,10.13,8.94.15.15,0,0,0,.27-.12c-1.54-3.95-6.24-8-10.3-9.09C55,26.29,54.86,26.55,55,26.61Z"/><path class="cls-3" d="M51.5,65.05a12.32,12.32,0,0,0,6.92-3.63c.12-.14-.09-.31-.23-.21a26.41,26.41,0,0,1-6.76,3.63A.11.11,0,0,0,51.5,65.05Z"/><path class="cls-3" d="M60.4,60.25c3.8-3.84,7.54-8.21,7.05-14,0-.17-.28-.15-.29,0a16.15,16.15,0,0,1-2.35,8.07A58.64,58.64,0,0,1,60.17,60C60.06,60.18,60.27,60.38,60.4,60.25Z"/><path class="cls-3" d="M53.15,62.27a18.71,18.71,0,0,0,10.69-10.9c0-.15-.17-.28-.26-.14C60.83,56,58.21,59.73,53,62,52.84,62.08,53,62.34,53.15,62.27Z"/><path class="cls-3" d="M57.4,57.25a8.08,8.08,0,0,0,1.81-1.64c.11-.14-.08-.3-.21-.2-.63.5-1.16,1.12-1.82,1.59C57,57.12,57.22,57.37,57.4,57.25Z"/><path class="cls-3" d="M61,53.21A14.27,14.27,0,0,0,62.24,51a.15.15,0,0,0-.26-.14,14.73,14.73,0,0,0-1.24,2.23C60.67,53.23,60.94,53.38,61,53.21Z"/><path class="cls-3" d="M64.26,49.77a8.18,8.18,0,0,0,.79-3.69c0-.18-.27-.15-.3,0a28.27,28.27,0,0,1-.81,3.56A.17.17,0,0,0,64.26,49.77Z"/><path class="cls-3" d="M28.33,53.57a18.4,18.4,0,0,0,11.48,9.31.15.15,0,0,0,.1-.28c-4.75-2-8.88-4.43-11.35-9.13C28.48,53.32,28.26,53.43,28.33,53.57Z"/><path class="cls-3" d="M30.11,53A3.38,3.38,0,0,0,31,54.23c.11.1.27-.08.18-.19a9.3,9.3,0,0,1-.77-1.19A.15.15,0,0,0,30.11,53Z"/><path class="cls-3" d="M32.14,56c2.53,2.72,6.22,5.61,10.11,5.67a.16.16,0,0,0,0-.31,18.09,18.09,0,0,1-9.92-5.55C32.23,55.69,32,55.88,32.14,56Z"/><path class="cls-3" d="M32.56,54a15.45,15.45,0,0,0,9.49,5.26.13.13,0,0,0,.06-.25c-3.6-1-6.83-2.27-9.37-5.17C32.64,53.72,32.46,53.88,32.56,54Z"/><path class="cls-3" d="M36.14,54.82a5,5,0,0,0,1.47,1,.14.14,0,0,0,.13-.24,9,9,0,0,1-1.37-1C36.23,54.5,36,54.69,36.14,54.82Z"/><path class="cls-3" d="M44.61,62.29a6.63,6.63,0,0,0,4.33-.23c.15-.06.07-.29-.09-.27a11,11,0,0,1-4.16.18C44.5,61.92,44.43,62.24,44.61,62.29Z"/><path class="cls-3" d="M43.65,64.3a23,23,0,0,0,5.62.36c.15,0,.18-.24,0-.24A36.27,36.27,0,0,1,43.68,64C43.48,63.94,43.45,64.26,43.65,64.3Z"/><path class="cls-3" d="M46.46,60.07c2.88.19,6.51-.18,8.73-2.22a.16.16,0,0,0-.21-.24,13,13,0,0,1-8.49,2.18C46.31,59.78,46.28,60.06,46.46,60.07Z"/><path class="cls-3" d="M47.06,57.49a10,10,0,0,0,1.64,0,.14.14,0,0,0,0-.27,12.21,12.21,0,0,0-1.6,0C46.88,57.16,46.84,57.49,47.06,57.49Z"/><path class="cls-3" d="M50.94,57.46a15.62,15.62,0,0,0,3.41-1.41.14.14,0,0,0-.12-.25c-1.15.44-2.25,1-3.41,1.4C50.64,57.26,50.77,57.51,50.94,57.46Z"/><path class="cls-3" d="M37.17,24.81a11.27,11.27,0,0,1,1.95-1c.16-.06.07-.29-.08-.27a5.12,5.12,0,0,0-2.1,1C36.75,24.67,37,24.93,37.17,24.81Z"/><path class="cls-3" d="M41.13,23a9.18,9.18,0,0,1,5.13-.6.14.14,0,0,0,.06-.28,6.86,6.86,0,0,0-5.33.59C40.81,22.82,41,23.11,41.13,23Z"/><path class="cls-3" d="M32.35,30.76c2.38-3.43,6.69-5.24,10.75-5.53.18,0,.17-.32,0-.32a13.75,13.75,0,0,0-10.94,5.7C32.05,30.75,32.26,30.89,32.35,30.76Z"/><path class="cls-3" d="M45.26,24.43a12.56,12.56,0,0,0,1.84,0c.15,0,.13-.24,0-.26a13.55,13.55,0,0,0-1.8,0C45.08,24.11,45.05,24.43,45.26,24.43Z"/><path class="cls-3" d="M30.77,32.12a2.58,2.58,0,0,0-1.29,2c0,.15.21.27.3.11s.26-.66.45-1a3.43,3.43,0,0,1,.74-.78C31.13,32.3,31,32,30.77,32.12Z"/><path class="cls-3" d="M39,31.21a5.6,5.6,0,0,1,3.12-1.39.14.14,0,0,0,0-.28A4.39,4.39,0,0,0,38.75,31C38.6,31.1,38.81,31.36,39,31.21Z"/><path class="cls-4" d="M76.06,72.8c.83,0,1-1.3.12-1.3S75.22,72.8,76.06,72.8Z"/><path class="cls-4" d="M78.87,67.4a1.94,1.94,0,0,0,.34,0,.65.65,0,0,0,0-1.28l-.17,0C78.13,66.05,78,67.43,78.87,67.4Z"/><path class="cls-4" d="M59.53,84.08l-.07.09a.53.53,0,0,0,0,.64l.08.11c.39.54,1.23.12,1.21-.48A.69.69,0,0,0,59.53,84.08Z"/><path class="cls-4" d="M25,82.05c.75,0,.86-1.17.11-1.17S24.23,82.05,25,82.05Z"/><path class="cls-3" d="M18.67,79.35c.75,0,.87-1.17.11-1.17S17.91,79.35,18.67,79.35Z"/><path class="cls-4" d="M30.68,79.8c.94,0,1.09-1.47.14-1.47S29.73,79.8,30.68,79.8Z"/><path class="cls-3" d="M52,2.27c.82,0,.95-1.27.12-1.27S51.2,2.27,52,2.27Z"/><path class="cls-4" d="M58.46,1.83A2.53,2.53,0,0,0,58,1.69l.82,1.78A1.45,1.45,0,0,0,59,2.8a1,1,0,0,0-.66-1,1.26,1.26,0,0,0-1,0A1.15,1.15,0,0,0,57,3.55a1.29,1.29,0,0,0,1.56.25A1.08,1.08,0,0,0,58.46,1.83Z"/><path class="cls-4" d="M81.16,14.89l.14,0c.61-.17.87-1.15.13-1.36l-.33-.08C80.06,13.25,80,15.05,81.16,14.89Z"/><path class="cls-4" d="M71.56,5.72c.75,0,.86-1.16.11-1.16S70.81,5.72,71.56,5.72Z"/><path class="cls-4" d="M67.34,7.93c.88,0,1-1.37.13-1.37S66.46,7.93,67.34,7.93Z"/><path class="cls-4" d="M76.81,14.19l-.08,0c-1.22-.26-1.27,2,.07,1.76l.07,0A.87.87,0,0,0,76.81,14.19Z"/><path class="cls-4" d="M5.67,27.79H5.59c-.67.17-1,1.31-.13,1.52h.07C6.94,29.69,6.83,27.49,5.67,27.79Z"/><path class="cls-4" d="M86.26,21.08c1,0,1.21-1.63.16-1.63S85.21,21.08,86.26,21.08Z"/><path class="cls-4" d="M91.66,26c1.22,0,1.41-1.9.18-1.9S90.43,26,91.66,26Z"/><path class="cls-4" d="M4.78,20.31l.12-.1a.46.46,0,0,0,0-.72l-.13-.11a.59.59,0,1,0,0,.93Z"/><path class="cls-4" d="M10.15,65.59c.83,0,1-1.3.12-1.3S9.31,65.59,10.15,65.59Z"/><path class="cls-4" d="M1.19,45.07a1.36,1.36,0,0,0,1.43-1.19,1.32,1.32,0,0,0-1.19-1.42A1.36,1.36,0,0,0,0,43.64,1.33,1.33,0,0,0,1.19,45.07Z"/><path class="cls-3" d="M68.86,78.07c.66,0,.76-1,.1-1S68.2,78.07,68.86,78.07Z"/><path class="cls-5" d="M81.29,70.32a1.35,1.35,0,0,0-.48-.07c-.8,0-.73,1.37,0,1.4a1.54,1.54,0,0,0,.48-.08A.63.63,0,0,0,81.29,70.32Z"/><path class="cls-3" d="M88.1,56.69c.6,0,.69-.93.09-.93S87.5,56.69,88.1,56.69Z"/><path class="cls-3" d="M86.3,38.9c.52,0,.6-.81.08-.81S85.78,38.9,86.3,38.9Z"/><path class="cls-3" d="M12.66,17.15c.76,0,.88-1.18.11-1.18S11.89,17.15,12.66,17.15Z"/><path class="cls-4" d="M16.56,74c.85,0,1-1.33.13-1.33S15.7,74,16.56,74Z"/><path class="cls-4" d="M70.11,81.57c1,0,1.09-1.47.14-1.47S69.16,81.57,70.11,81.57Z"/><path class="cls-3" d="M74.16,76.71c1.26,0,1.45-1.95.19-1.95S72.9,76.71,74.16,76.71Z"/></g></g></svg>