<svg xmlns="http://www.w3.org/2000/svg" viewBox="0 0 22.19 21.51"><defs><style>.cls-1{fill:#7f3913;}.cls-2{fill:#260029;}</style></defs><g id="Layer_2" data-name="Layer 2"><g id="_"><path class="cls-1" d="M.63,8.3A10.11,10.11,0,0,1,5.81,1.88,13.22,13.22,0,0,1,11.35.61a10.81,10.81,0,0,1,3.88.47c3.06,1,5.17,4,6,7.1a8.51,8.51,0,0,1,.31,3.68A10.22,10.22,0,0,1,20.34,15a12.59,12.59,0,0,1-2.64,3.57,9.48,9.48,0,0,1-8.2,1.79C3.61,19-1,14.69.63,8.3Z"/><path class="cls-2" d="M20.49,5A11.51,11.51,0,0,0,13.59.3c0-.12-.17-.21-.24-.09A11.34,11.34,0,0,0,.66,7a.22.22,0,0,0,.07.26c-3.13,7,4.32,16.28,12,13.86a.29.29,0,0,0,.12-.1C19.71,19.8,25.05,11.38,20.49,5ZM1.64,6.45a14,14,0,0,1,4.08-4A15.09,15.09,0,0,0,.82,9.65,10.94,10.94,0,0,1,1.64,6.45ZM17.81,17.12a14.47,14.47,0,0,0,2.76-3.81,11.92,11.92,0,0,1-1,2.39c-1.81,3.27-5.53,4.4-9,4.91-.45,0-.9-.07-1.32-.13a20.29,20.29,0,0,0,2-.38.11.11,0,0,0,0-.21c-.75.08-1.48.23-2.21.38a.12.12,0,0,0-.1.14,8.72,8.72,0,0,1-1.71-.48c3.12.17,4.37-2.47,6.45-4.2.1-.08,0-.23-.13-.15a29.8,29.8,0,0,0-2.4,2.5,6.14,6.14,0,0,1-3.93,1.58.14.14,0,0,0-.05.25A10.14,10.14,0,0,1,5.49,19a5.82,5.82,0,0,0,2.9-1.24,5.7,5.7,0,0,0,1.5-4.61c0-.14-.22-.12-.23,0a7.81,7.81,0,0,1-1,3.79A3.62,3.62,0,0,1,6.31,18.4a4.49,4.49,0,0,1-1.41.22l-.37-.27a9.65,9.65,0,0,1-3.15-4.26A.12.12,0,0,0,1.54,14,17.62,17.62,0,0,1,4.08,6.35a.12.12,0,1,0-.19-.13A13,13,0,0,0,1.3,13.88a10.11,10.11,0,0,1-.5-2.37A16.33,16.33,0,0,1,7.42,1.59,10.6,10.6,0,0,1,9.55,1,6.45,6.45,0,0,0,8,2.21c-.09.1,0,.27.14.17a6.12,6.12,0,0,1,3-1.54c.22,0,.44,0,.66,0A37.45,37.45,0,0,0,7.52,4.78c-.1.1,0,.27.14.17C9.11,3.49,10.73,2.26,12.24.89l.61.07a5.59,5.59,0,0,1-1,1.1c-.16.12,0,.34.2.23A4.49,4.49,0,0,0,13.23,1c.33.07.65.15,1,.25A11.66,11.66,0,0,1,9.79,6.94c-.12.08,0,.28.14.21A9.36,9.36,0,0,0,14.5,1.4a10,10,0,0,1,1,.41c0,3.13-3.17,4.36-4.61,6.76-.08.13.09.25.2.13,1.71-2,4.88-3.8,4.7-6.75a13.19,13.19,0,0,1,1.3.75,7.25,7.25,0,0,1-1.66,3.08c-.09.09.08.24.17.15a5.29,5.29,0,0,0,1.76-3.06l.16.1c.3.22.58.46.85.7-.72,4.2-6.8,3.78-7.73,8,0,.15.22.21.25.06.65-2.78,3.45-3.33,5.53-4.68a4.63,4.63,0,0,0,2.3-3l.24.24c-.9,3.63-3.13,5.42-5.6,8a6.18,6.18,0,0,0-1.18,2.43,6.38,6.38,0,0,1-5.69,4.57c-.14,0-.1.22,0,.21,3.48-.29,5.24-2.34,6.27-5.5.71-2.16,3.29-3.47,4.67-5.19a8.86,8.86,0,0,0,1.7-4.24,6,6,0,0,1,.42.57.16.16,0,0,0-.12.13A11.82,11.82,0,0,1,18.19,9c-.06.12.12.2.2.1a7.23,7.23,0,0,0,1.43-3.66,8.56,8.56,0,0,1,.42.79.14.14,0,0,0-.08.1,29.16,29.16,0,0,1-.79,3c-.06.18.19.26.28.1a6.86,6.86,0,0,0,.79-2.75,8.56,8.56,0,0,1,.35,1.12c-.67,5.15-3.15,9.44-8.1,11.57-.16.06,0,.29.11.23A13.39,13.39,0,0,0,21,9.34a9.77,9.77,0,0,1,0,1.71A17.89,17.89,0,0,1,17.65,17C17.57,17.07,17.72,17.21,17.81,17.12ZM9.35,10.41c-.95,3.11-2,5.85-5.14,7.21a.12.12,0,0,0,.08.23c3.3-.67,4.53-4.54,5.3-7.35C9.63,10.35,9.4,10.26,9.35,10.41Zm7.3,7.48A11,11,0,0,1,14,19.58a.11.11,0,0,0,.09.19A7.55,7.55,0,0,0,16.78,18,.1.1,0,1,0,16.65,17.89Zm-1.39-1.23c-.12.1,0,.27.15.18a10.15,10.15,0,0,0,4.16-6.08c0-.16-.22-.2-.28-.06A14.15,14.15,0,0,1,15.26,16.66ZM5,5a14.9,14.9,0,0,1,1.67-1.7c.16-.12,0-.35-.2-.23A6.33,6.33,0,0,0,4.75,4.88.13.13,0,0,0,5,5ZM4.29,9.14c.39-.54.72-1.1,1-1.66.09-.15-.13-.31-.22-.16-.35.55-.71,1.1-1,1.69C4,9.13,4.2,9.26,4.29,9.14ZM3.6,10.26a10.44,10.44,0,0,0-1.25,4.6.12.12,0,0,0,.24,0,15.2,15.2,0,0,1,1.27-4.54C3.94,10.19,3.68,10.1,3.6,10.26Zm1.48.89a23.75,23.75,0,0,1-2,4.32c-.09.16.13.32.24.17a17.3,17.3,0,0,0,2-4.42A.11.11,0,0,0,5.08,11.15Zm.45,2.42c-.2.3-.38.62-.55.94-.07.14.12.29.21.15.2-.31.38-.62.55-.95C5.81,13.57,5.62,13.43,5.53,13.57Zm9.18-10a17.49,17.49,0,0,0,.57-1.68.13.13,0,0,0-.25-.1,16.79,16.79,0,0,0-.6,1.68A.15.15,0,0,0,14.71,3.56Zm0,10.77a3.37,3.37,0,0,0,.76-.7c.11-.13,0-.32-.18-.21a3.39,3.39,0,0,0-.78.73C14.43,14.27,14.62,14.42,14.74,14.33ZM9.05,18.11a3.54,3.54,0,0,0,1.71-2.06.13.13,0,0,0,.2,0,38.78,38.78,0,0,1,6.3-8.59.12.12,0,0,0-.16-.19c-.37.3-.74.63-1.11,1a.09.09,0,0,0-.11,0c-1.36,1.13-3,1.72-4.14,3.14-1.55,2-.52,4.86-2.86,6.48C8.72,17.94,8.89,18.2,9.05,18.11Zm2.15-3.73a5.84,5.84,0,0,1,2.31-4.15c.48-.35,1-.67,1.45-1a20.07,20.07,0,0,0-3.86,5.61C11.13,14.69,11.17,14.54,11.2,14.38Zm5.63-1.29a6.18,6.18,0,0,0,1.44-2.82c0-.16-.21-.21-.27-.06a11.67,11.67,0,0,1-1.38,2.73A.13.13,0,0,0,16.83,13.09ZM14.6,16.82c.1-.11-.07-.25-.18-.17a22,22,0,0,1-2.63,2c-.17.1,0,.37.13.28A9.38,9.38,0,0,0,14.6,16.82Zm.78-1.32c.23-.2.45-.42.66-.64s0-.28-.14-.18-.47.41-.69.62S15.25,15.62,15.38,15.5Z"/></g></g></svg>