<svg xmlns="http://www.w3.org/2000/svg" viewBox="0 0 58.82 49.27"><defs><style>.cls-1{fill:#857778;}.cls-2{fill:#c25d50;}.cls-3{fill:#c8b48f;}.cls-4{fill:#260029;}</style></defs><g id="Layer_2" data-name="Layer 2"><g id="_"><path class="cls-1" d="M36.89,29.84A11.75,11.75,0,0,0,35,34.55a11.57,11.57,0,0,0,3.69,9.6,9.85,9.85,0,0,0,6.91,2.13,19.7,19.7,0,0,0,5.14-1,5.31,5.31,0,0,0,3.41-2.86c1.71-3,3-6,2.27-9.49a10.78,10.78,0,0,0-4.87-7c-2.68-1.56-5.38-1.09-8.27-.59A10.16,10.16,0,0,0,36.89,29.84Z"/><path class="cls-2" d="M42.31,36.89a30.35,30.35,0,0,1,2.81-2.37c2.93-2.26,6.12-4.48,9.79-4.92.23.5.45,1,.67,1.49A54,54,0,0,0,48.11,35,21.79,21.79,0,0,0,42,40.69a32.07,32.07,0,0,0-2.36,4.16c-.74-.09-1.76-.29-1.64-1.2a9.73,9.73,0,0,1,1.12-2.41A17.28,17.28,0,0,1,42.31,36.89Z"/><path class="cls-3" d="M17.49,26a2.42,2.42,0,0,1-1.06-1.33,2.06,2.06,0,0,1,1.22.39L33,34c.42.25.9.66.73,1.12-.08.23-.32.37-.51.53-.42.35-.47,1.35-.89,1.55S30.74,36.3,30.34,36Z"/><path class="cls-3" d="M26.71,23.1a54.89,54.89,0,0,0,7.78,6.77,1.14,1.14,0,0,0,.81.26,1.18,1.18,0,0,0,.53-.35l.8-.8a1.3,1.3,0,0,0,.55-1c0-.39-.39-.67-.72-.89l-9.3-6.23C24,18.78,21,16.44,17.69,14.59c-.8.68,1,1.58,1.46,1.95.87.68,1.74,1.39,2.59,2.1Q24.29,20.79,26.71,23.1Z"/><path class="cls-3" d="M41.31,24.29a1.32,1.32,0,0,0,.68.46,1.14,1.14,0,0,0,.57-.09,3.49,3.49,0,0,0,1.95-1.86c.18-.4-6.94-5.89-7.65-6.49L33,13c-.6-.5-2.92-3-3.63-2.64.37,1.17,1.87,2.49,2.67,3.46q1.49,1.8,3,3.56Q38.09,20.93,41.31,24.29Z"/><path class="cls-4" d="M48,25.66c8.46.93,10.28,13.77,4.15,18.53a10.79,10.79,0,0,1-10.82,1.13c-4.14-1.81-5.61-5.25-6.64-9.36A.33.33,0,0,0,34,36C32.4,46.08,46.54,50.61,53.31,44.93c6.23-5.24,4.38-20.34-5.29-20A.39.39,0,0,0,48,25.66Z"/><path class="cls-4" d="M48.91,24.76c-7.5-2.13-17.46,5.68-14.31,13.78a.33.33,0,0,0,.63-.11c.23-4,.41-7.39,3.76-10.24a13,13,0,0,1,9.77-2.79C49.12,25.42,49.28,24.87,48.91,24.76Z"/><path class="cls-4" d="M52.87,30.73a25.72,25.72,0,0,1,1.38,5.46.27.27,0,0,0,.53,0,9.64,9.64,0,0,0-1.33-5.72A.32.32,0,0,0,52.87,30.73Z"/><path class="cls-4" d="M53.34,39.66c0,.25-.31.54-.46.73a1.8,1.8,0,0,0-.37.76c0,.28.29.37.47.25.52-.34,1.21-1.09,1.08-1.76C54,39.25,53.33,39.24,53.34,39.66Z"/><path class="cls-4" d="M50.39,43.58c-2.58,1.16-4.69.86-7.31.15-.23-.06-.53.23-.31.44,1.8,1.65,6.13,1.46,7.92-.12A.28.28,0,0,0,50.39,43.58Z"/><path class="cls-4" d="M40.58,42.92c-.11-.49-.44-1.27-1.08-.9-.2.12-.24.46,0,.54s.27.26.33.49C40,43.51,40.69,43.39,40.58,42.92Z"/><path class="cls-4" d="M38.84,39.73c-.36-.27-.42-.65-.67-1-.14-.2-.45-.06-.48.15a1.49,1.49,0,0,0,.77,1.4A.33.33,0,0,0,38.84,39.73Z"/><path class="cls-4" d="M47.88,27.81a16.2,16.2,0,0,0-5.14,1.65A.3.3,0,0,0,43,30a48.45,48.45,0,0,1,5-1.66C48.31,28.26,48.23,27.73,47.88,27.81Z"/><path class="cls-4" d="M57.67,41.39C59.8,36.13,59.19,29.21,53.92,26a.24.24,0,0,0-.27.39c4.44,3.94,5.55,9.22,3.58,14.79A.24.24,0,0,0,57.67,41.39Z"/><path class="cls-4" d="M53.53,46.56c-3.56,2.37-7.23,2.28-10.9.26-.26-.14-.63.17-.38.42,3.11,3.1,8.51,2.33,11.73-.15C54.34,46.81,53.89,46.32,53.53,46.56Z"/><path class="cls-4" d="M41.46,14.43c-3.9-3.75-7.83-7.51-12-11-.19-.16-.48.15-.3.32,4,3.66,8,7.24,11.9,11C41.32,14.94,41.68,14.64,41.46,14.43Z"/><path class="cls-4" d="M25.27,12.05c-5-3.92-9.7-8.1-14.66-12-.23-.18-.47.18-.26.37,4.73,4.17,9.7,8.1,14.7,11.94C25.25,12.51,25.46,12.2,25.27,12.05Z"/><path class="cls-4" d="M14.31,11.72C9.79,8.38,5,5.34.35,2.24a.23.23,0,0,0-.26.37c4.44,3.44,9.42,6.17,14,9.44A.2.2,0,0,0,14.31,11.72Z"/><path class="cls-4" d="M19.18,18.91c-4.51-2.76-8.89-5.85-13.54-8.35-.25-.14-.51.2-.26.36,4.35,3,9,5.64,13.52,8.39C19.17,19.47,19.45,19.07,19.18,18.91Z"/><path class="cls-4" d="M25.43,36.78C18.21,31.13,10.2,26.63,2.76,21.28c-.24-.18-.5.2-.26.38,7.32,5.5,15.42,9.86,22.68,15.46C25.4,37.29,25.64,37,25.43,36.78Z"/><path class="cls-4" d="M54.18,29.51C46.7,31.06,40.43,36.82,37.51,43.8c-.2.49.53.73.76.28,3.35-6.74,8.5-12.12,16-13.91C54.72,30.07,54.61,29.42,54.18,29.51Z"/><path class="cls-4" d="M55.08,31.48c-6.51,1-13.47,6.91-15.79,13-.15.38.43.7.65.34,1.85-3,3.55-5.73,6.31-8s5.77-3.44,9-4.81A.27.27,0,0,0,55.08,31.48Z"/><path class="cls-4" d="M47.36,24.84C41.51,19.31,35,14.34,28.88,9.15c-.35-.31-.77.29-.41.59C34.61,14.9,40.59,20.42,47,25.22,47.24,25.4,47.58,25.05,47.36,24.84Z"/><path class="cls-4" d="M42.61,25.32c-4.72-5.41-9.45-10.81-14.3-16.11-.29-.32-.8.11-.51.44C32.56,15,37.38,20.34,42.15,25.72,42.4,26,42.87,25.62,42.61,25.32Z"/><path class="cls-4" d="M25.77,9.41A2.17,2.17,0,1,1,28.39,11,2.16,2.16,0,0,1,25.77,9.41Z"/><path class="cls-4" d="M37.82,27.69C31.44,22.82,24.54,18.53,17.91,14c-.39-.27-.81.33-.42.59,6.64,4.52,13.16,9.37,20,13.53A.27.27,0,0,0,37.82,27.69Z"/><path class="cls-4" d="M35.49,30.57C29.5,25,23.4,19.51,17.28,14.07c-.29-.25-.74.24-.45.5C22.83,20.1,29,25.44,35,31,35.31,31.23,35.78,30.84,35.49,30.57Z"/><path class="cls-4" d="M14.8,14.56a2.17,2.17,0,1,1,2.77,1.32A2.16,2.16,0,0,1,14.8,14.56Z"/><path class="cls-4" d="M34.5,39.11C28.49,33.78,21.92,29,15.64,24c-.37-.3-.79.3-.42.59,6.29,5,12.43,10.31,19,15C34.48,39.74,34.75,39.33,34.5,39.11Z"/><path class="cls-4" d="M34.07,34.29C27.87,30.68,21.69,27,15.48,23.41c-.37-.21-.76.33-.39.56,6.16,3.69,12.4,7.26,18.64,10.82C34.06,35,34.41,34.48,34.07,34.29Z"/><path class="cls-4" d="M14.92,21.53A2.17,2.17,0,1,0,17,23.78,2.17,2.17,0,0,0,14.92,21.53Z"/><path class="cls-4" d="M44.43,22.62a3.08,3.08,0,0,0-2.84,1.75c-.14.35.33.55.54.29a4.38,4.38,0,0,1,1-1.05,4.15,4.15,0,0,1,1.32-.46C44.74,23.09,44.75,22.63,44.43,22.62Z"/><path class="cls-4" d="M45.78,24.09a1.92,1.92,0,0,0-.45-.45,4.31,4.31,0,0,1-.59-.39l-.24.47.06,0h-.34l.07,0L44,23.28v0l.25-.35c-.66.23-2.72,1.06-2.11,2.09a.33.33,0,0,0,.42.15c.37-.15.5-.58.81-.83a5,5,0,0,1,1.25-.62.42.42,0,0,0,.25-.35v-.06a.45.45,0,0,0-.29-.45.49.49,0,0,0-.47,0,.46.46,0,0,0-.24.47c.16.62,1.06,1.06,1.64,1.19C45.8,24.65,45.9,24.28,45.78,24.09Z"/><path class="cls-4" d="M44.89,23.89a3.87,3.87,0,0,0-1.43.2c-.42.14-.92.3-1.07.75a.34.34,0,0,0,.28.45c.38.06.67-.19,1-.32a7.65,7.65,0,0,1,1.24-.36A.36.36,0,0,0,44.89,23.89Z"/><path class="cls-4" d="M43.86,23.48a3.68,3.68,0,0,0-.91.7.34.34,0,0,0,.33.52,4.05,4.05,0,0,0,1.07-.64C44.75,23.78,44.26,23.22,43.86,23.48Z"/><path class="cls-4" d="M37.3,27.32c-.56-.19-1.28.35-1.67.73a2.88,2.88,0,0,0-.89,1.72.39.39,0,0,0,.76.17,3.22,3.22,0,0,1,.78-1.35c.35-.33.87-.43,1.17-.79A.32.32,0,0,0,37.3,27.32Z"/><path class="cls-4" d="M37.13,27.68A5.34,5.34,0,0,0,35,30.22c-.24.58.67.91.91.34a6.3,6.3,0,0,1,1.62-2.29C37.79,28,37.48,27.46,37.13,27.68Z"/><path class="cls-4" d="M33.15,34c-1.13.41-1.72,1.94-1.78,3,0,.51.79.58.79.07a3.26,3.26,0,0,1,.4-1.56,7.94,7.94,0,0,1,.94-1.13C33.7,34.17,33.39,33.9,33.15,34Z"/><path class="cls-4" d="M33,34.69a3.29,3.29,0,0,0-1.11,2,.51.51,0,0,0,.89.46,13.74,13.74,0,0,0,1-1.41l-.93-.49a5.53,5.53,0,0,0-.35,1,.54.54,0,0,0,.95.5,7.18,7.18,0,0,0,.81-1.36l-1.12-.26c0,1,0,2,0,3L34.29,38A3.66,3.66,0,0,0,33.2,36.8a.61.61,0,0,0-1,.44,1,1,0,0,0,.31,1,.61.61,0,0,0,1-.65,1.74,1.74,0,0,0-.93-1.09c-.54-.26-.91.48-.62.88a2.65,2.65,0,0,1,.46.73l1-.65,0-.07-1,.44a2.2,2.2,0,0,1,.7.69c.27.46,1.15.46,1.15-.2,0-1,0-2,0-3,0-.6-.94-.95-1.13-.26a3.19,3.19,0,0,1-.61,1.15l1,.36a4.22,4.22,0,0,1,.3-.91c.23-.55-.63-1-.93-.49a13.86,13.86,0,0,1-1,1.44l.91.34a12.75,12.75,0,0,1,.72-1.8C33.76,34.73,33.32,34.49,33,34.69Z"/><path class="cls-4" d="M36.12,27.17a3,3,0,0,0-2.07,2.38c-.1.48.67.56.76.07a3,3,0,0,1,1.54-1.94C36.6,27.52,36.38,27.11,36.12,27.17Z"/><path class="cls-4" d="M24.69,27.87c.88,0,1-1.38.13-1.38S23.8,27.87,24.69,27.87Z"/></g></g></svg>