<svg xmlns="http://www.w3.org/2000/svg" viewBox="0 0 60.95 53.35"><defs><style>.cls-1{fill:#e5bd9b;}.cls-2{fill:#5fabc2;}.cls-3{fill:#af8f72;}.cls-4{fill:#c06e52;}.cls-5{fill:#f2c45d;}.cls-6{fill:#ffa363;}.cls-7{fill:#ff8343;}.cls-8{fill:#260029;}</style></defs><g id="Layer_2" data-name="Layer 2"><g id="_"><path class="cls-1" d="M3.3,27.24c3-2.48,6.18-5,9.88-6.34A36.77,36.77,0,0,1,21,19.29l20.63-2.7c2.4-.31,3.43,0,5.84-.27,3.11-.3,8.56-.11,11.37,1.25,1.14.55,1.51.75,1.15,2a3,3,0,0,1-1,1.34,27.72,27.72,0,0,1-4.06,2.9A44.11,44.11,0,0,1,49.2,26.5C34.79,32.4,18.76,34.77,3.45,32c-.81-.15-2.63-.55-2.81-1.58S2.55,27.85,3.3,27.24Z"/><path class="cls-2" d="M16.31,13c.5-4.33,2.39-8.79,6.14-11A13.24,13.24,0,0,1,25.15.78,10.08,10.08,0,0,1,30.47.35c2.65.62,4.66,2.76,6.22,5a32.45,32.45,0,0,1,5.57,14.34,2.07,2.07,0,0,1,0,1,2,2,0,0,1-.56.72C38.76,24,34.75,25,30.9,25.68a38.54,38.54,0,0,1-8.22.83c-2.37-.08-6,.25-6.27-2.73A52.78,52.78,0,0,1,16.31,13Z"/><path class="cls-3" d="M8.54,32.45c8.51.36,17.13.46,25.45-1.38,9.4-2.08,18.09-6.56,26.46-11.31l-2.87,7.47a7.34,7.34,0,0,1-1.43,2.6,7.18,7.18,0,0,1-2,1.28c-5,2.5-10,5-15.33,6.31-5,1.21-10.25,1.33-15.42,1.44L17.08,39A28.74,28.74,0,0,1,11,38.71a14.74,14.74,0,0,1-7.91-4.35c-.92-1-2-2.2-.07-2.43C4.69,31.73,6.83,32.38,8.54,32.45Z"/><path class="cls-4" d="M16.89,42.59a4.66,4.66,0,0,0,1.73,1,5.77,5.77,0,0,0,2,.13c1.34-.07,2.67-.19,4-.35A12.3,12.3,0,0,0,28.9,42.3a4.77,4.77,0,0,0,2.62-3.39Q26,38.67,20.4,39c-.89,0-1.78.1-2.67.16-.69,0-2.17-.11-2.77.26C13.87,40.06,16.21,42,16.89,42.59Z"/><path class="cls-4" d="M53.21,31.76c0,2.12-.2,4.52-1.84,5.86a7.12,7.12,0,0,1-1.76,1,15.75,15.75,0,0,1-5.53,1.6c-1.3,0-3.52-.33-4.3-1.55-.92-1.45,2.37-1.72,3.35-2A47.34,47.34,0,0,0,53.21,31.76Z"/><path class="cls-5" d="M21.4,49.49a15.74,15.74,0,0,0,4.88,3.83,31.06,31.06,0,0,0,2.21-3.67,11.36,11.36,0,0,0,1.14-3.12,5,5,0,0,0-.47-3.24,1.05,1.05,0,0,0-.41-.45,1.11,1.11,0,0,0-.6-.06c-2.89.25-5.76.79-8.65,1A9.52,9.52,0,0,0,21.4,49.49Z"/><path class="cls-5" d="M44.27,44.49a7.76,7.76,0,0,0,1.18,1.11A24.58,24.58,0,0,0,49,47.93,12.2,12.2,0,0,0,52.23,43a5.73,5.73,0,0,0,.05-4.34,1.06,1.06,0,0,0-.49-.55,1.21,1.21,0,0,0-.68,0,23.08,23.08,0,0,0-3.82,1.08,14,14,0,0,1-4.29,1A6.43,6.43,0,0,0,44.27,44.49Z"/><path class="cls-6" d="M22.34,47.7a7,7,0,0,0,3,1.95,10.29,10.29,0,0,0,2.22-3.88,6.93,6.93,0,0,0,.11-2.13.79.79,0,0,0-.1-.34c-.15-.23-.48-.22-.75-.19-1.14.14-2.27.34-3.39.59-1,.22-2.27-.05-2.34,1.07A4.58,4.58,0,0,0,22.34,47.7Z"/><path class="cls-6" d="M45.57,43A11,11,0,0,0,48,44.86l.42.27a.46.46,0,0,0,.25.08.31.31,0,0,0,.2-.2,14.38,14.38,0,0,0,2.06-4.82,1.46,1.46,0,0,0-.26-1.35c-.46-.43-1.21-.17-1.8.1a11.6,11.6,0,0,1-4.55,1.16c.33.32.22.89.35,1.34A4.39,4.39,0,0,0,45.57,43Z"/><path class="cls-7" d="M22.82,44.28l.07-.23a3.66,3.66,0,0,0,1.64,2.45.32.32,0,0,0,.2.1c.12,0,.2-.12.26-.22l.66-1.19A1.88,1.88,0,0,0,26,44a.53.53,0,0,0-.14-.29.67.67,0,0,0-.28-.14,3,3,0,0,0-2.9.75Z"/><path class="cls-7" d="M46.07,39.91a3.61,3.61,0,0,0,1.52,2,.76.76,0,0,0,.61.16c.31-.08.44-.44.52-.76.13-.54.26-1.08.4-1.63a.48.48,0,0,0,0-.39.5.5,0,0,0-.43-.15,6.83,6.83,0,0,0-2.4.51c-.12,0-.23.24-.11.27Z"/><path class="cls-8" d="M16.72,25.51c-.55-8.39-1.17-23.27,10.71-24.08C37.56.74,40,13.9,42.29,21.25a.46.46,0,0,0,.9-.16C42,12.49,37.7-1.37,26.63.11c-12,1.6-11.84,16.57-10.35,25.47A.22.22,0,0,0,16.72,25.51Z"/><path class="cls-8" d="M16.44,25.88c8.27,3.61,19.41.91,26.4-4.25.71-.53-.18-1.57-.89-1.05-7.72,5.69-16.29,5.69-25.38,4.74A.29.29,0,0,0,16.44,25.88Z"/><path class="cls-8" d="M19.5,16a10.63,10.63,0,0,1,.88-5.67c.78-1.68,2.25-2.67,3.14-4.21a.41.41,0,0,0-.4-.63C21.28,5.89,20,8,19.27,9.61a9.78,9.78,0,0,0-.42,6.51A.33.33,0,0,0,19.5,16Z"/><path class="cls-8" d="M25.78,5.13a7.12,7.12,0,0,1,2.41-.75c.7,0,1.57.33,2.19,0a.46.46,0,0,0,.22-.6C30.13,2.93,29,3,28.11,3.1a5,5,0,0,0-2.87,1.2A.5.5,0,0,0,25.78,5.13Z"/><path class="cls-8" d="M18.34,23.94a50.27,50.27,0,0,1,5.12-2.07c.26-.08.1-.43-.13-.41a10.84,10.84,0,0,0-5.41,1.83C17.54,23.54,18,24.12,18.34,23.94Z"/><path class="cls-8" d="M26.62,21c4.77-1.43,9.18-1.39,14.09-1.13.41,0,.61-.64.17-.75C36.17,18,31,18.87,26.45,20.44,26.14,20.55,26.31,21.09,26.62,21Z"/><path class="cls-8" d="M33.23,5.37c.55.92,1.38,1.65,1.94,2.57s.8,1.84,1.37,2.66a.25.25,0,0,0,.43-.13,5.93,5.93,0,0,0-1.24-3.15A6,6,0,0,0,33.54,5,.25.25,0,0,0,33.23,5.37Z"/><path class="cls-8" d="M37.25,12.52c.15.65.3,1.3.48,2,.12.44.82.32.7-.12-.18-.68-.39-1.35-.6-2C37.72,12,37.18,12.18,37.25,12.52Z"/><path class="cls-8" d="M.12,31.29a19.54,19.54,0,0,0,9.24,7.56A.48.48,0,0,0,9.7,38c-3.86-1.3-6.45-4.13-9.16-7A.27.27,0,0,0,.12,31.29Z"/><path class="cls-8" d="M9.24,38.64c7.85,2.41,17.37,1.69,25.42.53,7.69-1.11,15.27-3.8,21.37-8.72.37-.29,0-1-.46-.71C48.84,33.85,42.35,36.87,34.46,38c-8.49,1.25-16.61.61-25.08,0C9,38,8.9,38.54,9.24,38.64Z"/><path class="cls-8" d="M56.08,30.35A20.71,20.71,0,0,0,61,20c0-.34-.49-.59-.67-.25-.91,1.72-1.37,3.66-2.16,5.44a25.54,25.54,0,0,1-2.7,4.74C55.11,30.32,55.74,30.73,56.08,30.35Z"/><path class="cls-8" d="M13.71,39.16a6.62,6.62,0,0,0,2,3,5.43,5.43,0,0,0,3,1.69.28.28,0,0,0,.18-.5c-.85-.74-1.91-1.15-2.74-1.95a18.32,18.32,0,0,1-2-2.51C14.06,38.68,13.63,38.87,13.71,39.16Z"/><path class="cls-8" d="M18.48,43.79c3.1.59,7.88.45,10.8-.82a.29.29,0,0,0-.1-.54,46.68,46.68,0,0,0-5,.54c-1.92.15-3.83,0-5.74.21C18.08,43.21,18.16,43.73,18.48,43.79Z"/><path class="cls-8" d="M28.9,42.84a3.37,3.37,0,0,0,1.7-1.33,5.68,5.68,0,0,0,1.15-2.1c.11-.48-.56-1-.85-.45a12.89,12.89,0,0,1-1,1.82,17.45,17.45,0,0,0-1.32,1.55C28.45,42.56,28.6,42.91,28.9,42.84Z"/><path class="cls-8" d="M38.84,38.21a7.11,7.11,0,0,0,1.89,1.69c.53.34,1.28.93,1.92.71a.29.29,0,0,0,.13-.37c-.26-.58-1.14-.78-1.65-1.11-.66-.41-1.25-.92-1.87-1.38C39,37.53,38.63,37.93,38.84,38.21Z"/><path class="cls-8" d="M42.11,40.62c3.1.24,7.9-1,10.13-3.25a.29.29,0,0,0-.31-.47c-1.63.57-3.08,1.55-4.75,2.08s-3.38.69-5.09,1.05A.3.3,0,0,0,42.11,40.62Z"/><path class="cls-8" d="M52.52,32.08a19.59,19.59,0,0,1-.14,2.3,10.87,10.87,0,0,1-.82,2.43c-.22.49.54.75.77.29A7.39,7.39,0,0,0,53.15,32C53,31.65,52.54,31.78,52.52,32.08Z"/><path class="cls-8" d="M19.43,43.52c-1.95,4.29,3.34,8.76,7,9.81a.22.22,0,0,0,.16-.42c-3.31-1.72-8.14-4.72-6.7-9.21A.26.26,0,0,0,19.43,43.52Z"/><path class="cls-8" d="M26.57,53.27c2.08-2.19,5.65-8.11,2.42-10.65-.33-.26-.69.21-.47.52,2.23,3.08-.3,7.26-2.32,9.79C26,53.15,26.37,53.48,26.57,53.27Z"/><path class="cls-8" d="M42.73,40.36c-.64,4.29,3.27,6.52,6.69,8,.26.11.43-.26.22-.42-1.25-1-2.79-1.53-4.07-2.48-1.76-1.3-2.2-2.91-2.23-5A.31.31,0,0,0,42.73,40.36Z"/><path class="cls-8" d="M49.71,48.22A22.56,22.56,0,0,0,53,42.09a3.58,3.58,0,0,0-1.15-4.17c-.39-.34-.85.32-.46.66,2,1.77.67,3.42,0,5.24a26.15,26.15,0,0,1-2.07,4.09A.27.27,0,0,0,49.71,48.22Z"/><path class="cls-8" d="M21.27,43.77A.89.89,0,0,0,21,45.12c.09.14.33.05.34-.11a2.69,2.69,0,0,1,.29-.91A.27.27,0,0,0,21.27,43.77Z"/><path class="cls-8" d="M21,46.3a7.17,7.17,0,0,0,4.23,3.58.22.22,0,0,0,.2-.38c-.68-.5-1.47-.83-2.16-1.33a6.33,6.33,0,0,1-1.84-2.08A.24.24,0,0,0,21,46.3Z"/><path class="cls-8" d="M25.78,49.7a7,7,0,0,0,1.27-1.78c.09-.2-.18-.37-.34-.24a7.17,7.17,0,0,0-1.36,1.73C25.17,49.69,25.56,49.94,25.78,49.7Z"/><path class="cls-8" d="M27.35,47.17a4.4,4.4,0,0,0,.37-3.79c-.12-.33-.59-.09-.49.23A4.07,4.07,0,0,1,27,46.92C26.86,47.17,27.21,47.42,27.35,47.17Z"/><path class="cls-8" d="M44.45,40.15a2.85,2.85,0,0,0,1.66,3.36c.22.08.41-.25.2-.38a3.06,3.06,0,0,1-1.21-1.21,3.49,3.49,0,0,1-.28-1.69A.19.19,0,0,0,44.45,40.15Z"/><path class="cls-8" d="M46.75,44.16c.7.39,1.26,1.12,2,1.35a.21.21,0,0,0,.19-.37,10.93,10.93,0,0,0-2-1.35C46.73,43.69,46.54,44,46.75,44.16Z"/><path class="cls-8" d="M49.19,45.47a7.72,7.72,0,0,0,.62-1.13,4.67,4.67,0,0,0,.51-1.17c0-.25-.28-.3-.41-.16a4.68,4.68,0,0,0-.58,1.05,8.68,8.68,0,0,0-.55,1.2A.23.23,0,0,0,49.19,45.47Z"/><path class="cls-8" d="M50.68,42.48a3.89,3.89,0,0,0,0-3.93c-.2-.34-.78-.08-.57.28a3.61,3.61,0,0,1,.2,3.46C50.23,42.5,50.57,42.68,50.68,42.48Z"/><path class="cls-8" d="M23,45.13a2.71,2.71,0,0,0,1.93,1.73c.23,0,.28-.3.09-.39A2.79,2.79,0,0,1,23.38,45C23.28,44.7,22.9,44.88,23,45.13Z"/><path class="cls-8" d="M25.13,46.68a2.65,2.65,0,0,0,.92-2.46.21.21,0,0,0-.41,0,3.06,3.06,0,0,1-.78,2.12C24.66,46.54,24.93,46.87,25.13,46.68Z"/><path class="cls-8" d="M46.53,41.13a2.56,2.56,0,0,0,1.94,1.24c.18,0,.34-.26.14-.38s-.61-.23-.9-.4a5.45,5.45,0,0,1-.85-.67C46.71,40.78,46.4,40.92,46.53,41.13Z"/><path class="cls-8" d="M48.52,42.34a2.89,2.89,0,0,0,.36-3.58c-.13-.16-.46,0-.39.19a3.94,3.94,0,0,1,.32,1.52A3,3,0,0,1,48.16,42C48,42.23,48.32,42.54,48.52,42.34Z"/><path class="cls-8" d="M22.52,26.14a21.45,21.45,0,0,1,15.87-2.68c.35.07.39-.48,0-.56a20.88,20.88,0,0,0-16.13,2.79C22,25.86,22.24,26.31,22.52,26.14Z"/><path class="cls-8" d="M.72,31.22c-.12-1.81,2.11-3.76,3.44-4.78A26.14,26.14,0,0,1,8.48,23.8,67.88,67.88,0,0,1,16,20.72c.47-.18.13-.89-.34-.72A49.14,49.14,0,0,0,5.19,24.78c-2,1.32-5.74,3.74-5,6.53A.26.26,0,0,0,.72,31.22Z"/><path class="cls-8" d="M.12,30.89c3.39,2.71,9.27,2.61,13.43,2.84A79.67,79.67,0,0,0,29.73,33c9.54-1.4,19.82-4.19,27.65-10,.23-.17,0-.57-.27-.42A76.91,76.91,0,0,1,32,31.81a81.91,81.91,0,0,1-15.16,1.3c-4.75,0-12.32.11-16.35-2.71A.3.3,0,0,0,.12,30.89Z"/><path class="cls-8" d="M58.16,22c.23,0,.27-.36,0-.36S57.93,22,58.16,22Z"/><path class="cls-8" d="M59,21.5a4.07,4.07,0,0,0,1.6-1.64.22.22,0,0,0-.34-.24,5.65,5.65,0,0,0-.64.82,4.84,4.84,0,0,1-.86.77C58.56,21.36,58.81,21.63,59,21.5Z"/><path class="cls-8" d="M42,16.6c2.67-.19,18.17-1.6,18.25,3.18a.31.31,0,0,0,.61.06c.37-2.68-2.09-3.18-4.36-3.55a54.83,54.83,0,0,0-14.59-.2C41.53,16.13,41.63,16.63,42,16.6Z"/><path class="cls-8" d="M41.4,37.86A3,3,0,0,0,43,40.08a.21.21,0,0,0,.2-.37,3.6,3.6,0,0,1-1.39-1.93A.22.22,0,0,0,41.4,37.86Z"/><path class="cls-8" d="M43.17,37.31a7.7,7.7,0,0,0,1.41,2.39c.14.15.43,0,.32-.21-.42-.8-.93-1.55-1.32-2.38C43.46,36.84,43.05,37,43.17,37.31Z"/><path class="cls-8" d="M45,36.73a7.53,7.53,0,0,0,1.23,2.51c.12.14.41,0,.36-.17-.26-.89-.75-1.71-1.09-2.57C45.37,36.16,44.89,36.4,45,36.73Z"/><path class="cls-8" d="M46.81,35.88a8.81,8.81,0,0,1,.63,1.4c.17.47.24,1,.45,1.45a.2.2,0,0,0,.39-.07,6.26,6.26,0,0,0-1-3C47.11,35.4,46.66,35.6,46.81,35.88Z"/><path class="cls-8" d="M48.81,34.91a12.35,12.35,0,0,1,.87,3.27.2.2,0,0,0,.4,0,7,7,0,0,0-.84-3.45A.24.24,0,0,0,48.81,34.91Z"/><path class="cls-8" d="M50.62,33.72c.17.67.34,1.34.46,2s.1,1.38.24,2c0,.17.33.24.37,0a8.16,8.16,0,0,0-.5-4.31C51.07,33.22,50.54,33.39,50.62,33.72Z"/><path class="cls-8" d="M16.05,39.8a4.24,4.24,0,0,0,1.53,3.12c.17.14.42-.13.26-.28a4.74,4.74,0,0,1-1.38-2.91C16.44,39.46,16,39.54,16.05,39.8Z"/><path class="cls-8" d="M18.14,39.84a6.23,6.23,0,0,0,1.42,3.53c.15.17.48,0,.35-.23a9.37,9.37,0,0,1-1.37-3.37A.2.2,0,0,0,18.14,39.84Z"/><path class="cls-8" d="M20.53,40.16a7,7,0,0,0,1.31,3.06c.13.16.42,0,.31-.2a10.4,10.4,0,0,1-1.15-3A.24.24,0,0,0,20.53,40.16Z"/><path class="cls-8" d="M22.72,39.92c.14.54.32,1.07.49,1.6a8.79,8.79,0,0,0,.65,1.73.21.21,0,0,0,.4-.13,7.7,7.7,0,0,0-.47-1.6c-.2-.58-.39-1.17-.62-1.74C23.07,39.53,22.65,39.66,22.72,39.92Z"/><path class="cls-8" d="M25.1,40c.19,1,.24,2,.37,3.06a.2.2,0,0,0,.39,0A10.89,10.89,0,0,0,25.5,40C25.44,39.71,25.05,39.77,25.1,40Z"/><path class="cls-8" d="M27.21,39.7a9.63,9.63,0,0,0,.05,1.42c0,.6,0,1.18,0,1.77a.21.21,0,0,0,.41,0c.06-.57.06-1.14.09-1.71a6.61,6.61,0,0,0,0-1.54A.26.26,0,0,0,27.21,39.7Z"/><path class="cls-8" d="M29,39.48c-.07.93-.32,1.88-.31,2.82a.19.19,0,0,0,.37.08,8.6,8.6,0,0,0,.38-2.86C29.49,39.24,29.06,39.19,29,39.48Z"/><path class="cls-8" d="M2.3,33.29C8.39,36,15.82,35.78,22.35,35.45c7.15-.35,14.76-1.35,21.42-4.12a.2.2,0,0,0-.12-.38c-12.78,3.16-28.36,7-41.17,1.84C2.16,32.66,2,33.15,2.3,33.29Z"/><path class="cls-8" d="M45.15,30.89a3.77,3.77,0,0,0,1.71-.7.23.23,0,0,0-.13-.4A3.79,3.79,0,0,0,45,30.4C44.76,30.54,44.86,31,45.15,30.89Z"/><path class="cls-8" d="M48.67,29.37a25.17,25.17,0,0,0,11.46-6.25.27.27,0,0,0-.35-.41A50.85,50.85,0,0,1,48.54,29,.22.22,0,0,0,48.67,29.37Z"/><path class="cls-8" d="M5.84,36.61a23,23,0,0,0,8.05.7c.22,0,.21-.4,0-.4A33.43,33.43,0,0,1,6,36.12C5.7,36,5.51,36.53,5.84,36.61Z"/><path class="cls-8" d="M15.46,37.4l.3-.08c.22,0,.17-.4-.06-.35l-.31.07A.18.18,0,0,0,15.46,37.4Z"/><path class="cls-8" d="M17.27,37.44a39,39,0,0,0,10-.48.19.19,0,0,0-.07-.38c-3.3.21-6.57.43-9.88.41C17,37,17,37.42,17.27,37.44Z"/><path class="cls-8" d="M29.44,37.2a62.67,62.67,0,0,0,22.69-6.8.24.24,0,0,0-.21-.44,78.93,78.93,0,0,1-22.56,6.79C29.07,36.79,29.15,37.23,29.44,37.2Z"/><path class="cls-8" d="M53.54,29.82a2.14,2.14,0,0,0,.66-.22c.19-.1.16-.43-.08-.43a2,2,0,0,0-.68.07C53.08,29.34,53.16,29.89,53.54,29.82Z"/><path class="cls-8" d="M55.05,29.08a10.69,10.69,0,0,0,1.54-.7,5,5,0,0,0,1.32-.83.22.22,0,0,0-.23-.36,9.54,9.54,0,0,0-1.4.77c-.47.25-1,.48-1.42.72A.22.22,0,0,0,55.05,29.08Z"/><path class="cls-8" d="M3.92,27.87A19.71,19.71,0,0,1,8.8,24.74c.26-.13.07-.48-.19-.39a14.19,14.19,0,0,0-4.95,3.21C3.47,27.74,3.73,28.05,3.92,27.87Z"/><path class="cls-8" d="M9.43,24.45c2.09-1,4.31-1.7,6.43-2.63a.22.22,0,0,0-.13-.41,29,29,0,0,0-6.48,2.66C9,24.19,9.19,24.57,9.43,24.45Z"/><path class="cls-8" d="M42.15,17.6a17.49,17.49,0,0,0,4.62-.41.21.21,0,0,0-.07-.41c-1.52.09-3,.29-4.56.39C41.89,17.18,41.91,17.6,42.15,17.6Z"/><path class="cls-8" d="M48.19,17.14h.57c.24,0,.28-.38,0-.38h-.58C48,16.79,48,17.14,48.19,17.14Z"/><path class="cls-8" d="M51,17.23a14.8,14.8,0,0,1,3.39.15c.29,0,.33-.4,0-.45a12.08,12.08,0,0,0-3.5-.09C50.64,16.87,50.71,17.25,51,17.23Z"/></g></g></svg>