<?xml version="1.0" standalone="no"?>
<!DOCTYPE svg PUBLIC "-//W3C//DTD SVG 20010904//EN"
 "http://www.w3.org/TR/2001/REC-SVG-20010904/DTD/svg10.dtd">
<svg version="1.0" xmlns="http://www.w3.org/2000/svg"
 width="500.000000pt" height="500.000000pt" viewBox="0 0 500.000000 500.000000"
 preserveAspectRatio="xMidYMid meet">

<g transform="translate(0.000000,500.000000) scale(0.100000,-0.100000)"
fill="#000000" stroke="none">
<path d="M2210 4880 c-150 -10 -223 -25 -405 -82 -255 -79 -358 -123 -570
-238 -69 -38 -233 -146 -332 -220 -17 -12 -36 -19 -42 -15 -13 8 -91 -68 -91
-88 0 -37 -149 -129 -174 -108 -19 16 -13 147 8 170 28 31 -1 37 -33 7 -15
-14 -32 -26 -38 -26 -18 0 -40 -72 -35 -117 4 -38 1 -44 -22 -54 -19 -9 -26
-20 -26 -40 0 -15 -7 -35 -16 -44 -10 -10 -14 -24 -10 -40 4 -14 1 -33 -6 -44
-9 -15 -9 -23 1 -35 7 -8 18 -13 25 -10 7 3 19 -2 26 -11 11 -13 10 -19 -9
-38 -13 -15 -21 -36 -21 -59 0 -19 -12 -57 -27 -84 -14 -27 -34 -65 -44 -84
-14 -29 -19 -32 -24 -17 -8 20 -25 23 -25 3 0 -8 7 -16 15 -20 19 -7 19 -36 0
-63 -8 -12 -37 -77 -64 -145 -52 -130 -93 -294 -111 -443 -6 -49 -18 -137 -26
-195 -14 -93 -14 -113 -1 -175 8 -38 21 -102 28 -142 11 -68 11 -73 -10 -98
-24 -31 -28 -93 -9 -128 6 -12 12 -62 12 -112 1 -86 2 -89 26 -95 22 -5 28
-16 46 -90 64 -258 186 -565 269 -680 19 -25 36 -57 40 -71 6 -24 1 -29 -58
-59 -50 -25 -70 -43 -88 -74 -12 -23 -29 -49 -38 -59 -25 -29 -25 -192 0 -234
11 -17 25 -33 33 -36 8 -3 15 -26 18 -54 4 -45 40 -113 59 -113 4 0 42 -34 83
-75 64 -64 81 -75 110 -75 41 0 54 -14 58 -64 4 -49 28 -68 56 -43 10 9 30 17
43 17 14 0 30 5 36 11 5 5 37 9 69 7 l59 -3 -3 -37 c-3 -28 1 -39 17 -47 26
-14 84 -14 98 0 8 8 21 8 48 -1 50 -16 118 -5 155 27 25 21 37 24 66 19 49
-10 74 0 74 30 0 14 7 36 17 50 19 30 25 29 153 -21 93 -36 363 -107 475 -124
268 -42 552 -26 787 44 29 8 66 15 84 15 18 0 36 5 39 10 12 20 40 9 55 -23
16 -34 28 -36 130 -23 19 2 41 4 47 5 19 2 44 46 37 64 -3 9 -14 19 -25 22
-57 18 15 87 177 170 70 36 133 65 139 65 7 0 18 7 26 16 7 9 42 30 77 47 37
18 75 46 90 65 14 18 39 40 56 49 41 21 180 129 228 178 117 117 162 170 230
275 41 63 88 139 103 167 l28 53 79 0 c44 0 78 4 78 10 0 5 24 16 54 25 65 19
76 38 78 143 1 63 -2 76 -22 97 -17 18 -34 25 -60 25 -20 0 -44 6 -54 13 -17
12 -17 18 -6 51 6 20 22 49 34 64 24 28 76 168 76 202 0 11 6 20 14 20 23 0
29 19 16 50 -11 26 -9 35 14 74 15 26 26 60 26 81 0 44 37 85 75 85 30 0 101
53 108 81 7 26 -15 40 -54 33 -31 -5 -32 -4 -16 9 25 21 21 44 -10 59 -24 11
-29 20 -31 58 -3 45 -24 80 -47 80 -15 0 -26 121 -18 190 3 29 1 61 -6 79 -7
16 -14 47 -16 70 -1 23 -8 47 -14 54 -6 8 -20 62 -31 121 -12 60 -32 138 -46
175 -14 36 -32 88 -40 115 -37 116 -149 325 -261 485 -50 71 -152 181 -168
181 -7 0 -28 19 -46 43 -36 46 -43 53 -109 111 -25 22 -51 49 -59 59 -12 16
-6 15 31 -7 l46 -26 6 22 c3 13 -2 42 -10 65 -15 39 -18 41 -63 45 -25 2 -49
-1 -53 -6 -4 -7 -19 2 -38 21 -43 44 -92 71 -114 63 -16 -5 -10 -13 35 -53 35
-31 48 -47 36 -47 -22 0 -22 -13 1 -33 12 -11 22 -13 28 -7 10 10 39 -12 124
-92 42 -40 90 -97 90 -107 0 -6 13 -17 30 -26 26 -13 60 -68 60 -96 0 -24 -33
-4 -78 47 -28 31 -60 63 -72 71 -21 15 -22 15 -10 -8 7 -12 36 -44 64 -71 28
-26 47 -47 41 -47 -5 0 -30 17 -53 39 -24 22 -47 40 -51 40 -5 0 -20 17 -35
38 -15 22 -39 45 -54 53 -15 7 -46 30 -70 50 -36 31 -51 37 -105 42 -34 4 -79
8 -100 10 -21 2 -48 14 -61 26 -25 24 -56 28 -56 7 0 -7 23 -44 50 -82 28 -38
56 -85 62 -106 7 -23 25 -47 49 -65 26 -19 37 -33 33 -45 -10 -33 8 -89 33
-106 14 -9 53 -19 85 -23 50 -6 65 -13 89 -38 17 -20 38 -31 54 -31 17 0 38
-12 59 -35 41 -43 20 -47 -33 -7 -47 35 -82 55 -88 49 -2 -3 18 -22 46 -43 28
-21 48 -40 46 -42 -3 -3 -24 3 -47 14 -33 15 -42 16 -46 5 -3 -8 -8 -5 -16 11
-7 13 -28 28 -51 36 -22 7 -56 25 -75 41 -79 63 -111 62 -38 -1 54 -46 45 -60
-10 -16 -29 23 -41 41 -41 60 -1 34 -11 59 -21 53 -5 -3 -14 10 -20 29 -16 48
-45 83 -89 106 l-38 19 5 -24 c7 -39 -26 -45 -53 -11 -32 40 -59 32 -63 -17
-3 -29 -9 -40 -27 -47 -27 -10 -45 -38 -45 -70 0 -11 -6 -23 -14 -26 -34 -13
-146 73 -146 112 0 9 -11 14 -29 14 -16 0 -34 7 -41 15 -7 8 -22 15 -34 15
-12 0 -31 7 -42 15 -10 8 -28 15 -40 15 -25 0 -64 35 -64 57 0 17 -27 42 -46
43 -6 0 -10 -22 -10 -56 1 -49 5 -59 27 -76 15 -12 52 -23 89 -27 55 -7 67
-12 90 -40 19 -22 38 -33 63 -36 52 -7 75 -24 89 -65 6 -19 30 -52 52 -72 23
-20 36 -37 30 -38 -19 0 -64 40 -90 81 -17 28 -42 48 -83 68 -33 15 -71 40
-87 54 -20 19 -47 29 -97 38 -82 13 -117 40 -117 90 0 37 -22 77 -57 102 -37
28 -43 10 -7 -22 24 -22 32 -39 36 -75 7 -57 -12 -49 -31 13 -6 22 -24 49 -39
61 -15 12 -33 33 -40 48 -11 24 -12 20 -9 -41 3 -67 4 -70 48 -110 25 -23 53
-54 63 -69 12 -18 30 -30 54 -34 50 -9 86 -29 111 -60 33 -43 24 -50 -13 -12
-25 26 -50 39 -88 48 -34 8 -65 24 -86 44 -27 25 -32 27 -27 11 3 -11 -3 -4
-13 17 -10 20 -32 50 -50 66 -18 17 -32 39 -32 51 0 12 -4 21 -10 21 -5 0 -10
10 -10 23 0 18 2 19 10 7 8 -12 10 -10 10 9 0 32 -69 136 -100 150 -21 10 -23
9 -8 -2 33 -26 68 -108 67 -156 l-2 -46 -6 47 c-12 81 -61 125 -171 154 -55
14 -125 -3 -152 -38 -14 -20 -18 -21 -23 -7 -9 23 -36 14 -72 -24 -19 -20 -48
-37 -79 -45 -109 -29 -122 -32 -133 -32 -22 0 0 20 32 29 l32 9 -35 1 c-20 1
-46 -6 -58 -15 -12 -8 -22 -10 -22 -5 0 6 5 11 11 11 5 0 8 4 4 9 -9 15 29 31
75 31 34 0 48 7 82 40 27 26 51 40 68 40 16 0 37 13 58 35 29 30 40 34 90 37
43 2 58 7 60 19 6 33 -26 49 -99 49 -38 0 -69 -4 -69 -9 0 -5 -37 -9 -82 -8
-57 2 -82 -2 -85 -10 -3 -7 -9 -13 -15 -13 -5 0 -30 -14 -54 -32 -34 -24 -47
-29 -53 -20 -6 10 -15 10 -35 2 -15 -5 -34 -10 -43 -10 -14 0 -14 2 0 18 37
41 6 44 -37 5 l-30 -28 17 28 c15 23 15 27 3 27 -10 0 -13 6 -9 18 3 9 -7 4
-23 -14 -39 -42 -125 -94 -156 -94 -18 0 -38 -14 -68 -47 -23 -27 -51 -58 -62
-70 -19 -21 -38 -30 -38 -18 0 3 11 18 25 33 44 47 9 35 -68 -22 -40 -31 -91
-63 -113 -71 l-39 -15 40 5 c31 4 34 3 14 -4 -14 -4 -36 -14 -49 -21 -20 -11
-22 -10 -17 3 5 13 2 15 -16 8 -12 -5 -41 -14 -65 -21 -31 -8 -48 -20 -62 -43
-17 -27 -20 -28 -20 -11 0 26 37 60 75 70 17 4 39 13 50 20 11 8 30 14 43 14
32 0 54 13 136 82 98 83 162 124 301 194 139 71 198 95 315 128 163 46 216 58
330 72 339 40 642 -8 903 -145 64 -34 119 -61 122 -61 2 0 2 6 -1 14 -3 8 4
19 16 26 24 13 23 13 38 -17 7 -11 31 -31 54 -43 51 -26 71 -37 121 -69 21
-13 40 -21 43 -18 8 8 -87 97 -102 97 -8 0 -32 18 -53 39 -59 59 -79 69 -159
79 -57 7 -72 6 -72 -5 0 -23 -22 -14 -49 20 -13 16 -12 17 12 8 29 -11 47 3
28 22 -17 17 -103 47 -133 47 -19 0 -42 14 -75 47 -27 25 -39 43 -29 39 24 -8
168 23 161 35 -7 11 -117 43 -220 64 -150 30 -438 41 -675 25z m534 -136 c8
-22 2 -27 -23 -19 -12 4 -18 12 -14 21 7 19 29 18 37 -2z m66 6 c0 -5 -4 -10
-9 -10 -6 0 -13 5 -16 10 -3 6 1 10 9 10 9 0 16 -4 16 -10z m215 -120 c3 -5 2
-10 -4 -10 -5 0 -13 5 -16 10 -3 6 -2 10 4 10 5 0 13 -4 16 -10z m-1655 -220
c0 -5 -4 -10 -10 -10 -5 0 -10 5 -10 10 0 6 5 10 10 10 6 0 10 -4 10 -10z
m500 -5 c-14 -8 -34 -14 -45 -14 -13 0 -8 5 15 14 46 18 61 18 30 0z m-230
-19 c0 -2 -8 -10 -17 -17 -16 -13 -17 -12 -4 4 13 16 21 21 21 13z m42 -118
c-5 -74 -11 -87 -52 -113 -45 -28 -69 -61 -80 -108 -7 -30 -8 -28 -9 16 -1 44
3 52 37 85 20 20 46 42 57 48 14 7 21 24 23 50 3 31 16 64 26 64 1 0 0 -19 -2
-42z m739 10 c52 -40 67 -72 18 -38 -19 13 -38 30 -42 37 -4 7 -15 13 -22 13
-8 0 -15 5 -15 10 0 17 17 11 61 -22z m-81 -20 c0 -5 8 -8 18 -6 9 2 30 -8 46
-22 26 -23 28 -29 23 -83 -4 -41 -2 -57 6 -54 16 5 40 -28 61 -85 10 -27 21
-48 25 -48 5 0 20 -11 35 -25 34 -32 79 -55 106 -55 11 0 20 -4 20 -10 0 -13
-16 -13 -58 -1 -37 11 -82 -3 -82 -26 0 -18 14 -16 34 6 11 12 25 16 41 13 39
-7 40 -22 2 -22 -34 0 -52 -13 -72 -53 -6 -12 -28 -26 -54 -34 -64 -18 -73
-29 -65 -78 3 -24 1 -51 -5 -63 -11 -21 -93 -52 -139 -52 -38 0 -51 -17 -61
-79 -4 -28 -10 -52 -12 -54 -2 -1 -15 -11 -28 -22 l-25 -20 22 37 c14 22 21
46 18 61 -7 42 39 97 81 97 13 0 26 7 29 15 4 8 11 15 17 15 6 0 26 10 44 23
29 19 33 27 31 59 -2 32 -4 35 -20 27 -10 -5 -18 -13 -18 -18 0 -15 -52 -31
-104 -31 -40 0 -60 -6 -86 -25 -42 -31 -42 -31 -34 0 l6 25 -54 -28 c-112 -60
-146 -84 -174 -124 -21 -29 -30 -37 -32 -25 -5 27 35 75 73 87 19 6 35 15 35
20 0 5 18 16 40 26 22 10 40 23 40 30 0 7 23 31 51 55 37 30 61 43 87 45 21 1
45 2 55 3 9 1 37 19 61 41 24 22 47 40 51 40 10 0 85 81 85 92 0 4 -9 13 -21
20 -11 7 -29 30 -40 51 -11 20 -24 37 -29 37 -16 0 -21 40 -9 73 16 44 5 87
-21 87 -12 0 -20 7 -20 18 0 9 -3 27 -6 40 -5 18 -3 21 10 16 9 -3 16 -10 16
-16z m-177 -32 c-19 -40 -43 -53 -115 -61 -39 -5 -49 -4 -38 4 8 6 24 11 34
11 32 0 10 12 -25 13 -18 1 -34 7 -36 14 -4 12 11 18 80 27 34 4 37 3 26 -11
-20 -24 -19 -41 2 -36 10 3 17 10 16 16 -1 6 10 17 26 24 15 8 27 18 27 24 0
5 4 9 10 9 5 0 2 -15 -7 -34z m1447 3 c0 -6 -4 -7 -10 -4 -5 3 -10 11 -10 16
0 6 5 7 10 4 6 -3 10 -11 10 -16z m-2250 -29 c0 -5 -5 -10 -11 -10 -5 0 -7 5
-4 10 3 6 8 10 11 10 2 0 4 -4 4 -10z m65 -12 c-14 -46 -33 -65 -71 -71 -63
-10 -52 4 19 27 10 3 24 20 30 36 13 35 32 41 22 8z m440 -39 c-22 -46 -24
-49 -19 -19 6 34 33 84 40 77 3 -2 -7 -28 -21 -58z m-545 16 c-7 -8 -17 -15
-22 -15 -6 0 -25 -7 -44 -16 -19 -9 -37 -14 -40 -12 -10 11 53 42 115 57 2 1
-2 -6 -9 -14z m605 5 c-3 -5 -11 -10 -16 -10 -6 0 -7 5 -4 10 3 6 11 10 16 10
6 0 7 -4 4 -10z m725 -87 c0 -3 7 -15 17 -25 28 -31 9 -29 -30 3 -20 17 -37
27 -37 22 -1 -4 -10 3 -20 16 -11 13 -20 35 -19 50 l1 26 13 -30 14 -30 1 35
0 35 30 -47 c17 -27 30 -51 30 -55z m-92 -7 c16 -18 16 -18 -4 -8 -25 13 -34
33 -33 70 1 24 2 24 11 -8 5 -19 17 -44 26 -54z m-1108 -31 c0 -8 -5 -15 -11
-15 -5 0 -7 -5 -3 -11 5 -8 0 -10 -17 -6 -13 3 -43 2 -67 -2 -23 -5 -45 -4
-48 0 -3 5 10 9 28 9 18 0 47 9 63 20 36 24 55 25 55 5z m60 -35 c0 -11 -33
-30 -52 -30 -7 0 -2 9 12 20 28 22 40 25 40 10z m1210 -25 c0 -5 -5 -3 -10 5
-5 8 -10 20 -10 25 0 6 5 3 10 -5 5 -8 10 -19 10 -25z m-1758 -23 c-6 -5 -19
-17 -27 -28 -15 -19 -15 -19 -8 1 7 21 22 35 38 35 6 0 4 -4 -3 -8z m374 -30
c-18 -16 -18 -16 -6 6 6 13 14 21 18 18 3 -4 -2 -14 -12 -24z m-66 -17 c-7 -9
-15 -13 -17 -11 -7 7 7 26 19 26 6 0 6 -6 -2 -15z m-357 -25 c-5 -19 -33 -49
-33 -36 0 7 31 56 35 56 2 0 1 -9 -2 -20z m479 -2 c-7 -7 -12 -8 -12 -2 0 14
12 26 19 19 2 -3 -1 -11 -7 -17z m2246 -73 c12 -14 18 -25 13 -25 -5 0 -16 11
-25 25 -9 14 -15 25 -13 25 2 0 13 -11 25 -25z m-1683 -5 c3 -5 1 -10 -4 -10
-6 0 -11 5 -11 10 0 6 2 10 4 10 3 0 8 -4 11 -10z m2115 0 c0 -5 -4 -10 -9
-10 -6 0 -13 5 -16 10 -3 6 1 10 9 10 9 0 16 -4 16 -10z m62 -17 c30 -36 30
-47 0 -19 -18 17 -32 31 -32 33 0 9 19 1 32 -14z m-67 -23 c3 -5 1 -10 -4 -10
-6 0 -11 5 -11 10 0 6 2 10 4 10 3 0 8 -4 11 -10z m-3339 -11 c10 -17 -13 -36
-27 -22 -12 12 -4 33 11 33 5 0 12 -5 16 -11z m2713 -53 c-1 -30 -1 -30 -8 -5
-5 14 -14 36 -21 50 -13 24 -13 24 9 5 13 -12 21 -30 20 -50z m472 47 c13 -16
12 -17 -3 -4 -10 7 -18 15 -18 17 0 8 8 3 21 -13z m112 -24 c7 -25 3 -24 -17
6 -13 19 -13 23 -2 19 8 -3 16 -14 19 -25z m-7 -29 c13 -1 64 -71 64 -88 0
-12 -3 -12 -15 -2 -13 10 -15 9 -16 -11 -1 -17 -5 -10 -15 21 -8 25 -22 52
-32 60 -19 16 -42 52 -42 67 0 4 11 -4 24 -19 13 -16 27 -28 32 -28z m-2882
-2 c-16 -32 -41 -57 -56 -58 -4 0 7 20 24 45 37 52 56 60 32 13z m526 8 c0
-28 -19 -44 -30 -26 -11 17 0 50 16 50 8 0 14 -10 14 -24z m1265 -10 c19 -8
35 -17 35 -20 0 -7 -63 15 -74 25 -14 13 0 11 39 -5z m359 -26 c16 -41 36 -53
36 -23 0 15 2 15 14 3 13 -15 30 -80 20 -80 -3 0 -27 21 -54 46 -33 31 -50 55
-50 70 0 36 16 29 34 -16z m-910 5 c-10 -8 -26 -14 -34 -14 -9 0 -6 4 6 9 12
5 25 14 29 20 4 6 10 9 13 6 3 -4 -3 -13 -14 -21z m-774 -40 c0 -18 -62 -28
-72 -13 -13 21 -9 36 10 40 23 5 62 -12 62 -27z m1823 13 c-23 -28 -24 -72 -2
-113 l21 -40 -27 26 c-33 32 -36 85 -8 122 10 14 20 23 22 21 2 -2 -1 -9 -6
-16z m-1142 -13 c-18 -8 -44 -15 -57 -15 -26 0 -74 -20 -74 -31 0 -4 -7 -9
-15 -13 -20 -7 -19 -4 5 24 12 14 41 27 77 35 81 17 105 17 64 0z m742 -40
c20 -58 12 -58 -13 1 -23 52 -24 58 -11 50 5 -4 16 -26 24 -51z m-469 34 c13
-6 27 -21 30 -33 3 -13 14 -22 27 -23 14 -1 19 3 16 12 -8 19 3 26 24 15 10
-6 19 -22 21 -37 3 -25 7 -28 35 -25 27 3 32 0 27 -13 -6 -13 -2 -16 19 -13
51 6 163 -103 121 -119 -8 -3 -20 -1 -27 6 -16 16 -37 14 -37 -4 0 -21 -13
-19 -28 5 -7 12 -17 18 -22 15 -6 -4 -8 -11 -4 -16 3 -5 10 -7 15 -4 5 4 9 -1
9 -9 0 -9 5 -16 10 -16 6 0 10 -11 10 -25 0 -18 5 -25 20 -25 11 0 20 -4 20
-8 0 -5 9 -18 21 -31 16 -17 27 -21 50 -16 34 8 50 -16 31 -46 -17 -27 -15
-46 9 -62 17 -13 19 -18 9 -37 -9 -17 -14 -19 -25 -10 -22 18 -54 2 -72 -35
-14 -30 -48 -55 -73 -55 -6 0 -10 18 -10 40 0 45 -1 46 -38 26 -15 -7 -47 -18
-72 -24 -40 -9 -47 -8 -73 14 -23 19 -32 22 -43 13 -11 -9 -19 -8 -34 6 -22
20 -18 35 11 35 42 0 16 24 -90 86 -27 16 -36 27 -36 47 1 14 -1 24 -3 23 -2
-2 -14 7 -27 20 -13 13 -33 24 -45 24 -11 0 -20 5 -20 10 0 5 6 9 13 8 8 -2
13 14 15 50 3 50 16 68 28 37 9 -22 64 -20 64 3 0 10 9 35 19 55 17 33 17 38
3 46 -13 7 -12 10 6 20 15 8 22 21 22 41 0 39 28 50 74 29z m146 -10 c0 -5 -7
-9 -15 -9 -8 0 -15 7 -15 15 0 9 6 12 15 9 8 -4 15 -10 15 -15z m-310 -115 c0
-8 -4 -12 -10 -9 -5 3 -10 10 -10 16 0 5 5 9 10 9 6 0 10 -7 10 -16z m1014
-31 c14 -41 14 -45 1 -33 -14 15 -33 80 -22 80 3 0 12 -21 21 -47z m-1717 -4
c8 -8 6 -16 -8 -30 -20 -20 -59 -26 -59 -9 0 6 7 10 16 10 11 0 14 6 9 20 -5
15 -2 20 12 20 11 0 24 -5 30 -11z m-141 -24 c-3 -8 -1 -15 4 -15 6 0 10 5 10
10 0 6 7 10 16 10 10 0 14 -6 10 -15 -3 -9 0 -15 10 -15 17 0 17 -2 -7 -92 -8
-30 -15 -38 -32 -38 -41 0 -50 14 -45 68 3 30 0 56 -6 62 -8 8 -6 15 8 26 26
18 40 18 32 -1z m2552 -58 c2 -12 -3 -17 -17 -17 -15 0 -21 6 -21 21 0 25 33
22 38 -4z m-1945 -110 c-8 -13 -21 23 -21 58 0 14 4 10 14 -13 8 -18 11 -38 7
-45z m1121 -20 c11 -70 -23 -162 -79 -217 -23 -22 -51 -42 -63 -45 -11 -2 -43
-13 -69 -24 -38 -16 -43 -17 -24 -3 50 35 131 127 137 157 4 16 19 45 35 63
17 19 29 44 29 61 0 16 3 43 7 62 5 27 7 29 13 13 4 -10 10 -41 14 -67z m381
56 c22 -42 37 -53 79 -53 22 0 52 -7 66 -15 14 -8 40 -21 58 -30 17 -8 32 -20
32 -25 0 -20 -54 -9 -106 19 -54 31 -84 31 -37 -1 34 -22 19 -23 -29 -3 -19 8
-43 27 -53 42 -9 15 -29 39 -44 51 -24 22 -24 23 -3 12 22 -11 23 -10 12 10
-10 18 -9 21 2 18 7 -3 18 -14 23 -25z m-348 -75 c-3 -8 -6 -5 -6 6 -1 11 2
17 5 13 3 -3 4 -12 1 -19z m-1202 -8 c-10 -11 -31 -20 -47 -20 -28 0 -68 -30
-68 -51 0 -6 -7 -17 -15 -25 -8 -9 -15 -28 -15 -43 0 -37 -21 -54 -72 -60 -3
-1 -15 -16 -26 -35 -18 -31 -62 -56 -62 -35 0 5 4 9 9 9 5 0 23 21 39 48 54
84 162 189 217 211 28 10 52 19 54 20 2 1 -4 -8 -14 -19z m-197 -16 c-6 -12
-22 -28 -37 -35 -14 -8 -28 -17 -31 -21 -3 -4 -12 -3 -20 2 -10 7 -11 10 -2
10 6 0 12 5 12 10 0 14 -20 12 -52 -4 -16 -8 -28 -11 -28 -5 0 15 -18 10 -37
-10 -10 -10 -33 -26 -51 -35 -29 -15 -33 -15 -38 -1 -5 13 -16 15 -59 10 -34
-5 -55 -3 -59 4 -4 6 -14 11 -23 11 -9 0 -25 8 -35 17 -14 12 -21 14 -26 6 -8
-13 -89 -17 -140 -7 -18 4 -37 16 -44 28 -10 18 -9 19 4 8 22 -18 113 -28 122
-13 9 14 83 15 91 1 13 -20 78 -39 144 -42 64 -3 70 -1 105 30 43 38 81 55
105 48 9 -3 32 -2 51 3 55 12 59 11 48 -15z m1472 -39 c0 -16 -4 -37 -10 -45
-6 -10 -8 -4 -7 20 1 19 -2 49 -6 65 -8 28 -8 29 7 10 8 -11 15 -33 16 -50z
m-2346 26 c3 -5 21 -12 41 -15 19 -4 41 -17 50 -29 24 -34 17 -42 -11 -13 -15
14 -37 26 -48 26 -12 0 -35 14 -52 31 -24 26 -25 30 -7 20 12 -6 24 -15 27
-20z m2615 -74 c35 -15 36 -15 8 -16 -31 -1 -77 40 -77 68 0 11 6 7 17 -11 9
-15 33 -33 52 -41z m-1849 8 c-33 -19 -49 -19 -24 0 10 8 26 14 34 14 9 0 4
-6 -10 -14z m2144 -74 c-8 -9 -20 44 -15 68 4 22 6 18 12 -19 3 -25 5 -47 3
-49z m-680 -58 c-21 -17 -52 -33 -68 -36 -17 -3 -31 -4 -32 -3 0 0 20 21 44
45 25 24 42 36 39 27 -6 -14 -3 -15 14 -6 11 6 23 25 27 43 l7 32 3 -35 c3
-30 -2 -39 -34 -67z m422 -3 c13 0 25 -10 32 -25 15 -32 15 -48 2 -40 -5 3
-10 -1 -10 -9 0 -20 -7 -20 -26 -1 -23 22 -54 19 -54 -5 0 -13 -7 -20 -20 -20
-24 0 -40 -28 -40 -74 0 -44 -9 -66 -26 -66 -8 0 -14 -4 -14 -10 0 -5 -10 -19
-22 -30 -22 -20 -22 -22 -5 -34 24 -18 21 -34 -13 -85 -45 -66 -42 -74 44
-115 45 -22 60 -26 66 -16 6 10 16 8 45 -9 21 -12 44 -20 51 -17 14 5 40 -21
31 -31 -4 -3 1 -12 11 -19 15 -12 15 -15 2 -25 -11 -8 -12 -12 -2 -16 17 -7 5
-23 -17 -23 -19 0 -48 -27 -65 -62 -13 -25 -65 -43 -71 -25 -2 7 -6 25 -9 40
-8 34 -31 45 -59 28 -17 -11 -22 -10 -31 5 -6 11 -13 28 -16 39 -8 27 -42 30
-65 5 -21 -24 -43 -26 -51 -5 -10 25 -46 17 -88 -19 l-40 -33 33 -64 c29 -56
31 -65 17 -75 -9 -6 -16 -21 -16 -33 0 -19 5 -21 63 -21 34 0 68 -4 75 -9 20
-12 27 -87 11 -108 -11 -13 -11 -17 -1 -20 13 -5 17 -43 5 -43 -14 0 -29 15
-36 33 -10 26 -35 20 -52 -13 -9 -16 -18 -30 -20 -30 -3 0 -23 11 -45 25 -34
21 -46 24 -73 16 l-32 -9 36 -1 c49 -1 61 -16 40 -52 -9 -16 -23 -29 -32 -29
-10 0 -20 -15 -28 -40 -6 -22 -18 -40 -25 -40 -7 0 -24 -8 -37 -19 -25 -19
-159 -37 -159 -21 0 5 8 11 18 13 10 3 6 5 -11 6 -15 0 -30 -5 -32 -11 -3 -7
-16 -14 -30 -14 -13 -1 -35 -15 -49 -30 -17 -20 -25 -24 -26 -14 0 9 25 39 55
68 47 44 62 52 94 52 40 0 104 41 138 89 16 24 16 24 -6 18 -21 -5 -77 8 -93
22 -4 4 -3 23 3 44 7 25 7 49 -1 77 l-11 41 -67 -5 c-55 -3 -69 -8 -85 -28
-41 -52 -47 -57 -61 -52 -9 4 -16 -2 -18 -14 -3 -20 -4 -20 -32 3 -21 17 -27
28 -21 44 3 11 13 21 20 21 12 0 12 5 1 32 -8 18 -19 34 -25 36 -18 6 -13 20
9 27 11 3 20 13 20 20 0 28 24 65 42 65 26 0 102 38 133 66 14 13 34 28 44 34
21 11 35 50 18 50 -7 0 3 8 22 17 50 25 101 77 101 103 l0 23 -22 -20 c-13
-11 -41 -30 -63 -41 -57 -28 -92 -66 -109 -120 -14 -41 -22 -49 -63 -66 -26
-11 -61 -19 -76 -18 -35 3 -78 -23 -132 -79 -53 -54 -62 -58 -137 -61 l-65 -3
24 -21 c13 -11 25 -31 26 -45 2 -30 19 -48 57 -59 31 -9 54 5 26 16 -34 13
-11 44 33 44 9 0 27 9 39 20 19 18 45 30 29 13 -4 -3 0 -15 10 -25 9 -10 13
-21 10 -24 -3 -4 -3 -14 2 -23 5 -9 11 -28 15 -43 5 -23 1 -29 -26 -42 -39
-20 -58 -20 -58 -2 0 26 -21 29 -45 6 -21 -20 -24 -20 -36 -5 -35 43 -73 76
-85 71 -7 -3 -18 1 -24 9 -9 10 -6 15 9 20 21 6 26 22 13 40 -15 21 -81 65
-98 65 -31 0 -115 43 -102 51 9 6 3 19 -23 46 -19 21 -48 68 -63 105 -23 54
-33 68 -59 78 -68 25 -77 30 -77 40 0 5 -8 10 -18 10 -10 0 -26 14 -36 33 -10
17 -28 52 -42 76 -13 24 -34 56 -46 70 -19 21 -20 23 -3 11 11 -8 33 -25 49
-39 26 -23 27 -24 18 -5 -15 29 -109 107 -120 100 -5 -3 -18 11 -28 32 -24 45
-92 73 -174 73 -66 0 -104 16 -44 19 21 1 53 1 69 -1 37 -2 83 -2 153 1 52 2
55 0 97 -44 24 -25 48 -62 54 -82 6 -21 24 -51 40 -68 16 -17 32 -46 35 -66 6
-43 29 -60 80 -60 24 0 54 -8 71 -20 17 -11 37 -20 45 -19 9 0 6 5 -8 11 -17
9 -22 17 -18 33 3 12 -1 31 -10 43 -19 28 -71 55 -90 48 -8 -3 -14 -1 -14 4 0
6 5 10 11 10 6 0 -3 14 -20 32 -21 21 -31 42 -31 62 0 17 -9 45 -20 61 -20 30
-25 69 -14 99 3 9 10 13 15 10 5 -3 16 2 25 10 8 9 22 16 30 16 9 0 31 12 49
26 24 18 40 24 56 19 12 -4 31 -2 43 3 94 46 94 46 154 27 57 -17 141 -61 143
-73 0 -4 3 -16 6 -27 13 -55 14 -76 3 -90 -10 -12 -8 -16 14 -25 14 -5 33 -7
41 -4 8 3 29 -6 46 -20 20 -17 38 -24 49 -21 15 5 19 0 22 -27 2 -26 7 -33 25
-33 35 0 37 -12 4 -30 -17 -8 -31 -19 -31 -23 0 -5 -16 -16 -35 -25 -37 -18
-46 -41 -18 -51 10 -4 20 -1 25 9 5 8 13 13 18 10 13 -8 1 -66 -18 -88 -22
-25 -7 -32 17 -8 12 12 21 33 21 49 0 40 35 90 67 98 35 8 118 68 129 92 4 9
10 40 14 67 l7 50 2 -54 c1 -39 -5 -63 -20 -87 -19 -32 -20 -34 -2 -34 16 -1
15 -3 -6 -20 -25 -21 -13 -27 20 -10 21 12 26 1 7 -18 -9 -9 -8 -12 5 -12 11
0 14 -5 10 -16 -5 -14 -3 -14 15 -3 11 7 23 21 25 31 3 10 11 17 18 16 7 -2
18 8 26 22 l13 25 0 -26 c0 -44 11 -40 37 12 14 28 37 57 52 66 14 9 38 29 53
43 27 27 104 58 92 38 -10 -16 48 0 66 18 8 8 10 14 3 14 -6 0 3 15 20 33 38
38 48 39 18 1 -12 -15 -19 -29 -16 -32 3 -3 12 3 19 14 8 10 17 16 21 13 5 -6
-5 -16 -75 -69 -20 -15 -23 -22 -14 -37 6 -10 25 -19 43 -21 18 -2 35 -10 38
-18 9 -23 29 -16 58 21 14 20 32 35 38 34 26 -3 37 2 37 16 0 8 -8 15 -18 15
-34 0 -55 38 -48 89 8 57 22 73 42 47 8 -11 14 -26 14 -33 0 -7 5 -13 10 -13
6 0 10 9 10 21 0 11 4 18 9 14 5 -3 13 0 16 6 4 5 14 8 22 5 19 -8 8 31 -18
60 -11 11 -19 24 -19 28 0 4 11 -6 24 -21 30 -34 44 -26 16 10 -36 46 -21 52
23 9 23 -23 52 -42 63 -42z m313 3 c23 -10 24 -11 5 -12 -11 -1 -31 11 -45 26
-14 16 -16 21 -5 13 10 -8 31 -20 45 -27z m-2636 13 c18 -7 47 -19 66 -27 45
-17 91 -57 91 -78 0 -9 3 -21 8 -27 4 -5 -6 5 -23 22 -29 31 -62 52 -115 74
-14 6 -41 20 -60 30 -42 23 -15 28 33 6z m657 -31 c0 -9 -7 -18 -16 -22 -18
-7 -39 11 -30 26 11 17 46 13 46 -4z m1930 0 c7 -9 8 -15 2 -15 -5 0 -12 7
-16 15 -3 8 -4 15 -2 15 2 0 9 -7 16 -15z m-1181 -14 c8 -5 14 -30 16 -59 3
-48 2 -50 -22 -47 -23 2 -41 19 -63 57 -20 34 33 72 69 49z m1636 -1 c3 -5 1
-10 -4 -10 -6 0 -11 5 -11 10 0 6 2 10 4 10 3 0 8 -4 11 -10z m-1098 -56 c-3
-3 -12 -4 -19 -1 -8 3 -5 6 6 6 11 1 17 -2 13 -5z m-47 -24 c-8 -6 -22 -10
-30 -10 -8 0 -4 6 10 13 27 15 44 12 20 -3z m900 -26 c0 -2 -9 0 -20 6 -11 6
-20 13 -20 16 0 2 9 0 20 -6 11 -6 20 -13 20 -16z m-822 10 c-8 -7 -122 -34
-126 -29 -5 5 88 33 112 34 11 1 17 -2 14 -5z m420 -36 c15 -18 17 -48 7 -88
-5 -19 -8 -56 -6 -82 1 -37 -1 -48 -13 -48 -8 0 -18 -9 -21 -20 -4 -13 -15
-20 -31 -20 -21 0 -24 5 -26 38 -2 60 1 71 27 110 29 42 32 72 9 72 -11 0 -14
5 -10 16 3 9 6 20 6 25 0 14 46 11 58 -3z m-3053 -7 c7 -12 -12 -24 -25 -16
-11 7 -4 25 10 25 5 0 11 -4 15 -9z m878 -38 c-7 -2 -19 -2 -25 0 -7 3 -2 5
12 5 14 0 19 -2 13 -5z m2836 -63 c0 -10 -3 -8 -9 5 -12 27 -12 43 0 25 5 -8
9 -22 9 -30z m-2626 -96 c21 -25 25 -34 14 -34 -15 0 -57 45 -57 61 0 17 15 7
43 -27z m-713 -3 c0 -5 9 -13 20 -16 11 -3 23 -18 27 -33 3 -15 12 -33 20 -40
21 -21 15 -35 -27 -65 -34 -24 -41 -26 -46 -13 -3 9 -17 16 -30 16 -15 0 -27
7 -30 18 -5 14 -19 48 -32 75 -2 4 8 7 23 7 22 0 24 2 15 19 -8 16 -6 22 7 30
23 13 53 14 53 2z m2564 -17 c7 -28 -7 -54 -30 -54 -11 0 -12 -4 -3 -19 13
-20 6 -51 -11 -51 -6 0 -16 12 -22 26 -9 20 -9 27 1 33 9 6 11 19 6 39 -5 23
-2 33 12 41 29 17 40 13 47 -15z m-1849 -34 c28 0 90 -28 82 -37 -3 -3 -16 2
-28 11 -13 8 -32 13 -44 10 -21 -5 -75 28 -75 47 0 5 9 0 20 -11 11 -11 31
-20 45 -20z m1731 -14 c-5 -23 -3 -36 6 -39 7 -3 3 -6 -8 -6 -25 -1 -38 33
-23 61 17 31 32 21 25 -16z m-2581 -26 c3 -5 1 -10 -4 -10 -6 0 -11 5 -11 10
0 6 2 10 4 10 3 0 8 -4 11 -10z m-255 -71 c0 -5 -4 -9 -10 -9 -5 0 -10 7 -10
16 0 8 5 12 10 9 6 -3 10 -10 10 -16z m274 -32 c16 -30 17 -39 6 -52 -29 -35
-49 -12 -48 58 0 46 16 44 42 -6z m1156 -89 c0 -33 22 -80 56 -121 13 -16 24
-36 24 -45 0 -23 -48 25 -65 65 -8 18 -38 57 -67 85 -29 29 -52 56 -50 61 1 4
-1 6 -5 5 -16 -3 -68 24 -55 29 7 3 19 -1 27 -7 10 -8 15 -9 15 -2 0 6 -4 14
-10 17 -5 3 -10 10 -10 15 0 5 32 -10 70 -32 61 -36 70 -44 70 -70z m1696 64
c12 -9 24 -25 27 -34 10 -27 -35 -2 -50 27 -13 29 -6 31 23 7z m-2573 -16 c3
-8 4 -30 2 -50 -2 -20 1 -39 6 -42 13 -7 11 -104 -1 -104 -6 0 -24 10 -40 21
-16 12 -41 22 -57 23 -32 1 -40 22 -19 51 12 16 17 18 27 8 20 -20 30 -15 17
7 -9 14 -10 23 -2 28 6 4 13 15 17 25 4 10 11 16 16 12 5 -3 12 -1 16 5 3 5 1
10 -5 10 -6 0 -8 5 -5 10 9 14 22 12 28 -4z m2635 -51 c-12 -27 -28 -34 -28
-12 0 14 20 37 32 37 4 0 2 -11 -4 -25z m-68 -45 c0 -15 -6 -30 -14 -33 -12
-5 -14 12 -7 66 3 21 21 -7 21 -33z m-3229 7 c9 -7 18 -26 22 -44 5 -27 3 -33
-14 -38 -28 -9 -45 10 -52 58 -5 30 -3 37 11 37 9 0 24 -6 33 -13z m3409 -1
c0 -2 -8 -10 -17 -17 -16 -13 -17 -12 -4 4 13 16 21 21 21 13z m-2990 -54 c-7
-3 -16 2 -21 9 -16 25 -9 32 12 13 13 -12 16 -20 9 -22z m2850 -19 c-11 -21
-36 -56 -55 -77 -31 -34 -35 -37 -35 -18 0 12 8 30 18 40 10 10 17 24 16 30
-1 7 0 8 3 2 9 -18 21 -11 42 25 27 47 37 45 11 -2z m-2758 -3 c18 -25 29 -30
64 -30 33 0 45 -5 58 -25 10 -16 26 -25 41 -25 14 0 33 -8 43 -19 9 -10 29
-32 45 -49 23 -26 37 -31 93 -37 36 -4 83 -5 104 -2 26 3 43 0 50 -8 6 -7 31
-16 56 -20 25 -3 64 -20 88 -36 23 -17 67 -36 97 -42 54 -12 54 -12 72 -67 10
-30 25 -60 34 -67 10 -8 45 -11 101 -9 90 4 128 -6 183 -49 15 -11 41 -28 58
-37 28 -16 31 -21 31 -66 0 -38 6 -56 25 -78 25 -29 29 -38 26 -62 -1 -7 16
-20 38 -29 37 -14 46 -27 39 -50 -2 -5 -7 -7 -11 -5 -4 1 -16 -2 -27 -8 -12
-7 -27 -7 -45 0 -17 7 -24 7 -20 0 3 -6 12 -10 19 -10 8 0 20 -7 27 -17 13
-15 11 -16 -13 -11 -34 6 -35 1 -6 -29 17 -18 18 -23 6 -23 -27 0 -81 44 -92
76 -17 49 -54 90 -68 76 -18 -18 -41 -14 -61 8 -9 11 -26 20 -37 20 -10 0 -24
9 -30 19 -14 26 -13 31 5 25 11 -5 15 1 15 20 0 20 -4 26 -17 24 -11 -2 -18 3
-18 13 0 8 -11 28 -23 45 -13 16 -31 39 -40 52 -27 37 -130 49 -108 13 9 -14
0 -14 -25 -1 -21 12 -49 60 -49 86 0 13 4 11 20 -7 16 -20 19 -21 20 -7 0 24
-45 88 -78 111 -41 28 -125 69 -121 60 25 -57 48 -94 67 -104 38 -21 24 -27
-23 -11 -24 9 -49 26 -55 37 -6 12 -27 30 -47 40 -19 11 -51 37 -71 60 -19 22
-31 34 -27 26 7 -12 -3 -13 -56 -7 -65 8 -90 16 -92 32 -2 12 -70 84 -80 84
-5 0 -5 -4 -2 -10 3 -5 -1 -10 -9 -10 -8 0 -17 4 -20 9 -3 5 -17 11 -32 14
-21 4 -25 1 -21 -14 7 -28 -1 -23 -23 13 -14 23 -40 42 -92 66 -55 25 -65 32
-40 29 35 -4 44 8 12 18 -20 6 -25 16 -13 28 14 14 33 6 55 -23z m-578 -5 c3
-9 0 -15 -9 -15 -16 0 -27 14 -18 24 10 10 21 7 27 -9z m1244 3 c18 -18 15
-43 -8 -63 -19 -17 -21 -17 -39 -1 -11 10 -18 24 -15 32 2 8 6 21 9 29 5 18
36 20 53 3z m-348 -49 c38 -3 42 -4 56 -24 12 -16 12 -21 0 -33 -18 -19 -69
-3 -96 30 l-19 23 -9 -25 -9 -24 -12 21 c-17 32 -14 45 9 38 16 -5 20 -2 20
16 l0 23 20 -22 c12 -12 30 -23 40 -23z m-1026 -31 c6 -28 2 -48 -8 -37 -10
11 -17 69 -8 69 5 0 12 -14 16 -32z m1681 12 c4 -7 12 -7 25 0 23 12 57 13 64
2 3 -5 7 -21 10 -37 8 -41 25 -55 33 -26 4 17 8 19 14 9 15 -24 10 -37 -23
-54 -24 -12 -36 -14 -49 -6 -13 9 -19 8 -23 -3 -8 -22 -26 -18 -26 6 0 11 -13
32 -29 47 -16 15 -34 37 -40 50 -11 20 -9 22 13 22 14 0 28 -5 31 -10z m195
-16 c13 -33 13 -34 -5 -34 -9 0 -20 12 -25 26 -13 33 -13 34 5 34 9 0 20 -12
25 -26z m-1777 -101 c-10 -61 -64 -27 -69 42 -1 17 -6 41 -10 55 -6 21 0 18
38 -20 40 -39 45 -49 41 -77z m3308 -6 c-10 -9 -11 -8 -5 6 3 10 9 15 12 12 3
-3 0 -11 -7 -18z m-3241 -7 c15 -21 40 -27 40 -10 0 23 29 -5 36 -33 9 -45 28
-63 80 -77 36 -10 52 -10 84 0 35 12 42 11 59 -4 11 -10 22 -28 25 -40 3 -13
24 -35 46 -50 31 -20 40 -33 40 -54 0 -18 11 -38 30 -57 26 -25 29 -33 24 -66
-9 -57 2 -86 46 -115 45 -30 65 -79 49 -121 -15 -40 -15 -119 1 -137 7 -10 30
-24 49 -32 59 -24 101 -72 101 -113 0 -40 28 -107 54 -134 19 -19 100 -24 111
-7 10 17 61 11 87 -9 13 -11 37 -23 52 -27 30 -7 40 -23 50 -78 4 -21 17 -47
29 -57 21 -16 19 -16 -32 1 -42 14 -61 27 -80 56 -27 39 -56 58 -45 30 3 -9 2
-16 -4 -16 -5 0 -12 6 -15 13 -5 13 -93 59 -141 73 -21 6 -40 25 -61 61 -18
29 -36 50 -41 45 -4 -4 -3 0 4 9 9 12 8 20 -5 40 -26 37 -65 64 -95 66 -35 2
-86 32 -94 56 -3 10 -3 34 0 52 4 20 2 36 -4 40 -7 4 -9 21 -5 44 5 33 2 40
-35 76 -23 22 -38 32 -35 23 5 -13 2 -18 -8 -18 -11 0 -18 13 -23 38 -8 44
-19 67 -45 93 -10 10 -19 33 -19 50 0 21 -9 39 -32 59 -17 16 -33 28 -34 27
-2 -1 1 -36 6 -77 11 -97 29 -149 55 -156 26 -6 26 -45 1 -73 -20 -23 -14 -38
19 -51 18 -7 23 -16 23 -40 -1 -16 -6 -34 -12 -39 -19 -15 -69 -19 -87 -8 -29
18 -34 -1 -10 -34 22 -30 24 -53 2 -27 -56 68 -77 88 -88 88 -8 0 -13 13 -13
34 0 26 9 45 35 73 19 21 38 52 41 70 7 39 -13 101 -41 128 -42 39 -90 138
-52 106 18 -15 26 -5 18 22 -6 23 -75 90 -123 120 -15 9 -34 30 -43 47 -14 27
-14 30 6 40 15 9 24 8 35 -1 28 -23 15 27 -16 59 -16 18 -30 34 -30 37 0 12
17 4 30 -15z m330 -40 c0 -5 -4 -10 -10 -10 -5 0 -10 5 -10 10 0 6 5 10 10 10
6 0 10 -4 10 -10z m1248 -88 c9 -15 23 -32 31 -38 13 -10 13 -14 -1 -28 -9 -9
-18 -12 -20 -8 -2 4 -16 17 -32 30 -16 12 -25 22 -21 22 5 0 -2 11 -15 25 -13
14 -29 25 -36 25 -24 0 -25 20 -2 29 27 10 69 -15 96 -57z m-1103 48 c3 -5 1
-10 -4 -10 -6 0 -11 5 -11 10 0 6 2 10 4 10 3 0 8 -4 11 -10z m1396 -46 c9
-11 9 -17 0 -28 -21 -25 21 -96 57 -96 21 0 32 25 32 71 0 45 43 68 55 29 3
-11 12 -20 20 -20 18 0 85 -76 85 -98 0 -24 -35 -78 -62 -95 -39 -25 -106 -18
-185 18 -70 32 -73 35 -73 68 0 23 -8 41 -25 57 -33 31 -32 47 6 86 32 33 67
36 90 8z m-807 -20 c23 -23 19 -29 -7 -11 -13 8 -34 17 -48 20 -20 4 -19 5 8
6 17 0 39 -6 47 -15z m1684 -65 c2 -23 2 -23 -13 4 -9 15 -20 27 -25 27 -6 0
-10 5 -10 11 0 22 45 -18 48 -42z m613 18 l-24 -22 19 27 c10 14 21 24 23 22
3 -3 -6 -15 -18 -27z m-2371 -11 c0 -2 -7 -7 -16 -10 -8 -3 -12 -2 -9 4 6 10
25 14 25 6z m-59 -24 c-13 -2 -27 0 -32 5 -6 6 3 7 23 4 28 -4 29 -6 9 -9z
m-135 -9 c7 -10 14 -33 14 -50 0 -26 6 -36 29 -48 34 -17 71 -65 71 -92 0 -10
-9 -26 -20 -36 -29 -25 -25 -45 12 -55 38 -10 60 -38 39 -51 -8 -5 -10 -14 -6
-21 5 -7 7 -30 7 -52 -1 -21 2 -38 8 -38 9 0 50 -83 50 -101 0 -18 -26 -8 -53
21 -16 17 -37 30 -47 30 -10 0 -22 5 -25 10 -4 6 -16 8 -27 4 -18 -5 -20 -3
-15 16 8 30 -4 50 -60 106 -36 37 -50 44 -69 40 -24 -6 -28 0 -25 36 1 11 -17
25 -59 44 -64 28 -69 34 -45 54 17 14 20 40 5 40 -5 0 -10 5 -10 11 0 6 6 9
14 6 19 -7 33 50 17 66 -13 13 -15 47 -2 47 5 0 12 -6 15 -12 5 -10 7 -10 12
0 3 6 22 12 42 12 21 0 48 7 62 14 35 19 51 19 66 -1z m1844 -18 c0 -2 -19
-14 -42 -26 l-43 -21 30 26 c27 23 55 34 55 21z m37 -1 c-3 -3 -12 -4 -19 -1
-8 3 -5 6 6 6 11 1 17 -2 13 -5z m513 -3 c0 -5 -11 -16 -25 -25 -31 -20 -32
-14 -3 14 24 22 28 24 28 11z m-2340 -31 c0 -5 -4 -10 -10 -10 -5 0 -10 5 -10
10 0 6 5 10 10 10 6 0 10 -4 10 -10z m2010 -41 c0 -5 -10 -3 -22 5 -12 9 -32
16 -43 16 -16 0 -17 2 -6 9 17 11 71 -13 71 -30z m-1852 4 c9 -16 11 -16 27 0
21 22 24 21 63 -12 21 -18 32 -36 30 -48 -3 -16 -6 -15 -27 9 -13 15 -28 25
-32 22 -4 -2 -11 0 -14 6 -5 8 -15 6 -32 -5 -33 -22 -52 -14 -46 19 6 30 18
33 31 9z m1879 -68 c19 -8 45 -15 57 -15 11 0 27 -4 35 -9 9 -6 -3 -8 -35 -5
-71 6 -91 12 -98 29 -7 19 -4 19 41 0z m-1827 -30 c10 -12 10 -15 -4 -15 -9 0
-16 7 -16 15 0 8 2 15 4 15 2 0 9 -7 16 -15z m125 -35 c3 -6 21 -10 39 -10 19
0 46 -10 66 -25 19 -14 46 -25 61 -25 14 0 32 -7 39 -15 7 -9 29 -15 50 -15
26 0 48 -8 68 -25 17 -14 36 -25 44 -25 34 0 53 -40 54 -111 0 -39 6 -75 12
-81 17 -17 15 -27 -6 -21 -10 2 -28 24 -41 48 -13 25 -31 47 -41 50 -15 5 -26
32 -32 83 -1 6 -7 12 -14 12 -16 0 -74 33 -74 43 0 4 -4 7 -10 7 -22 0 -8 -21
24 -34 38 -16 50 -33 60 -89 4 -21 11 -35 17 -32 5 4 9 0 9 -7 0 -7 3 -24 7
-36 5 -22 4 -23 -15 -11 -11 7 -23 25 -26 40 -4 22 -9 26 -26 22 -11 -3 -20
-14 -20 -25 0 -36 33 -91 60 -101 23 -9 27 -16 28 -53 0 -50 -23 -63 -62 -33
-13 10 -29 19 -35 19 -6 0 -11 4 -11 8 0 5 -11 14 -25 20 -20 9 -23 9 -18 -3
3 -8 0 -15 -7 -15 -13 0 -5 56 12 77 5 6 8 29 6 50 -2 28 -9 41 -25 48 -12 5
-24 19 -27 31 -10 40 -45 73 -76 72 -41 -1 -74 24 -88 68 -14 46 -11 50 20 30
25 -16 41 -11 51 16 4 12 -2 19 -21 26 -15 5 -38 19 -52 31 -22 20 -23 21 -3
12 12 -6 25 -16 28 -21z m903 13 c-10 -2 -28 -2 -40 0 -13 2 -5 4 17 4 22 1
32 -1 23 -4z m-1937 -35 c9 -81 8 -88 -9 -78 -45 26 -72 60 -37 46 11 -4 15 1
15 19 0 26 29 37 31 13z m1782 -16 c-10 -10 -20 -17 -22 -16 -6 5 20 34 30 34
5 0 1 -8 -8 -18z m302 -52 c-11 -5 -27 -9 -35 -9 -9 0 -8 4 5 9 11 5 27 9 35
9 9 0 8 -4 -5 -9z m-206 -19 c10 -7 1 -14 -34 -30 -27 -12 -50 -19 -52 -17 -3
2 5 7 16 11 12 3 26 15 31 26 12 21 18 23 39 10z m-1951 -73 c14 -29 25 -68
19 -68 -5 0 -47 77 -47 85 0 14 18 2 28 -17z m3216 -60 c-12 -40 -82 -124 -93
-113 -2 2 8 18 23 35 14 17 26 35 26 40 0 8 41 59 48 60 2 0 0 -10 -4 -22z
m-2466 -50 c-3 -7 -11 -13 -18 -13 -7 0 -15 6 -17 13 -3 7 4 12 17 12 13 0 20
-5 18 -12z m1489 -13 c9 -24 -1 -27 -15 -5 -8 13 -8 20 -2 20 6 0 13 -7 17
-15z m638 -7 c-11 -6 -33 -20 -49 -31 -16 -12 -26 -15 -22 -8 10 15 67 51 81
51 6 0 1 -6 -10 -12z m-1375 -65 c0 -7 -4 -13 -10 -13 -5 0 -10 6 -10 14 0 8
-3 23 -6 33 -5 16 -4 16 10 -1 9 -11 16 -26 16 -33z m1616 -38 c-11 -8 -22
-12 -25 -9 -6 6 19 24 34 24 6 -1 1 -7 -9 -15z m-1151 -5 c3 -5 1 -10 -4 -10
-6 0 -11 5 -11 10 0 6 2 10 4 10 3 0 8 -4 11 -10z m-1550 -22 c15 -12 34 -37
42 -56 16 -39 11 -55 -8 -20 -7 12 -27 36 -46 52 -51 44 -41 66 12 24z m1484
-33 c-3 -2 -16 10 -29 28 l-23 32 29 -27 c15 -15 26 -30 23 -33z m551 40 c0
-8 -7 -15 -15 -15 -8 0 -15 7 -15 15 0 8 7 15 15 15 8 0 15 -7 15 -15z m-1407
-36 c-6 -23 -19 -25 -27 -3 -10 26 -7 32 13 27 13 -3 17 -11 14 -24z m282 -38
l0 -49 -27 31 c-16 17 -28 35 -28 40 0 6 3 8 6 4 4 -3 13 0 21 8 23 24 28 18
28 -34z m-185 13 c0 -9 -5 -14 -12 -12 -18 6 -21 28 -4 28 9 0 16 -7 16 -16z
m1546 1 c7 -18 -14 -47 -27 -39 -5 3 -9 16 -9 30 0 27 27 34 36 9z m-2031
-133 c11 -6 15 -12 9 -12 -16 0 -64 39 -64 52 0 6 8 2 18 -9 9 -11 26 -25 37
-31z m1895 2 c0 -8 -4 -12 -10 -9 -5 3 -10 10 -10 16 0 5 5 9 10 9 6 0 10 -7
10 -16z m-1288 -68 c13 -19 9 -35 -12 -46 -15 -8 -21 -6 -30 9 -5 11 -10 29
-10 41 0 18 4 20 23 14 12 -4 25 -12 29 -18z m288 14 c0 -5 -4 -10 -10 -10 -5
0 -10 5 -10 10 0 6 5 10 10 10 6 0 10 -4 10 -10z m650 -28 c0 -21 -2 -24 -10
-12 -13 20 -13 53 0 45 6 -3 10 -18 10 -33z m-1389 11 c13 -16 12 -17 -3 -4
-17 13 -22 21 -14 21 2 0 10 -8 17 -17z m334 7 c3 -5 -1 -10 -9 -10 -9 0 -16
5 -16 10 0 6 4 10 9 10 6 0 13 -4 16 -10z m600 0 c3 -5 14 -10 23 -10 18 0 46
-56 36 -72 -3 -5 1 -20 10 -33 18 -28 15 -31 -39 -40 -35 -5 -38 -4 -23 7 15
13 15 17 -2 55 -19 43 -36 55 -69 46 -26 -7 -51 13 -51 38 0 16 8 19 54 19 30
0 58 -4 61 -10z m-1214 -47 c13 -15 12 -15 -8 -4 -24 12 -29 21 -14 21 5 0 15
-7 22 -17z m857 -7 c13 -7 32 -26 42 -42 15 -23 31 -31 72 -39 51 -10 53 -12
56 -45 2 -19 8 -41 14 -47 14 -18 76 -16 94 2 21 21 27 19 46 -15 11 -19 13
-32 7 -36 -6 -3 4 -16 23 -28 l33 -21 -50 -5 -50 -5 55 -14 c30 -8 49 -16 42
-18 -6 -3 -10 -9 -6 -14 3 -5 -7 -14 -21 -19 -34 -13 -102 -13 -110 0 -3 6 1
10 10 10 9 0 13 5 10 10 -3 6 3 10 15 10 12 0 19 4 16 9 -3 4 -37 11 -77 14
-62 5 -74 3 -92 -14 -11 -10 -15 -19 -9 -19 7 0 12 -5 12 -10 0 -22 -118 30
-166 73 -49 44 -59 47 -48 15 6 -22 6 -22 -17 -6 -13 9 -23 21 -21 27 1 6 -2
11 -7 11 -11 0 -32 80 -24 93 5 9 -35 57 -49 57 -4 0 -8 -7 -8 -15 0 -12 -7
-14 -27 -9 -23 6 -25 4 -20 -15 3 -12 1 -21 -6 -21 -12 1 -52 34 -74 61 -15
19 -22 17 104 25 l91 6 35 -34 c32 -32 46 -63 61 -130 8 -33 57 -62 92 -54 24
6 32 30 14 41 -16 10 -12 37 7 50 16 12 16 16 3 40 -13 24 -45 45 -75 50 -5 0
-23 6 -38 13 -16 7 -33 12 -38 12 -5 0 -9 11 -9 24 0 19 6 26 28 29 15 2 29 5
32 5 3 1 15 -4 28 -12z m-121 -22 c-3 -3 -12 -4 -19 -1 -8 3 -5 6 6 6 11 1 17
-2 13 -5z m1873 -25 c-37 -29 -80 -51 -80 -40 0 11 93 70 100 64 3 -2 -6 -13
-20 -24z m-5 -49 c-3 -5 -23 -19 -45 -31 -22 -13 -40 -26 -40 -31 0 -4 -5 -8
-11 -8 -16 0 0 19 43 51 41 29 65 38 53 19z m-1874 -157 c13 -17 13 -17 -6 -3
-11 8 -22 16 -24 17 -2 2 0 3 6 3 6 0 17 -8 24 -17z m-96 -46 c7 -18 23 -42
35 -54 11 -13 17 -23 11 -23 -16 0 -48 34 -76 83 -25 46 -26 48 -5 37 12 -6
28 -26 35 -43z m85 -60 c0 -6 -11 0 -25 13 -14 13 -25 28 -25 33 0 6 11 0 25
-13 14 -13 25 -28 25 -33z m560 43 c0 -5 -2 -10 -4 -10 -3 0 -8 5 -11 10 -3 6
-1 10 4 10 6 0 11 -4 11 -10z m-514 -65 c29 -15 17 -20 -23 -9 -13 4 -20 10
-17 15 7 12 7 12 40 -6z"/>
<path d="M2700 3485 c-21 -26 -8 -49 30 -52 28 -2 31 0 18 8 -10 5 -18 19 -18
29 0 25 -15 33 -30 15z"/>
<path d="M2390 3315 c0 -8 5 -15 10 -15 6 0 10 7 10 15 0 8 -4 15 -10 15 -5 0
-10 -7 -10 -15z"/>
<path d="M2497 3264 c-8 -8 1 -24 14 -24 5 0 9 7 9 15 0 15 -12 20 -23 9z"/>
<path d="M2546 3211 c-15 -23 55 -124 79 -114 19 7 19 29 0 37 -8 3 -15 12
-15 20 0 8 -9 18 -20 21 -11 3 -20 15 -20 26 0 20 -15 26 -24 10z"/>
<path d="M2500 3194 c0 -17 22 -14 28 4 2 7 -3 12 -12 12 -9 0 -16 -7 -16 -16z"/>
<path d="M2327 2942 c-21 -23 -22 -46 -2 -62 33 -27 91 34 63 67 -15 18 -42
16 -61 -5z"/>
<path d="M3229 2778 l-12 -23 24 20 c13 11 26 21 28 22 2 2 -3 3 -12 3 -9 0
-22 -10 -28 -22z"/>
<path d="M2492 2726 c1 -10 8 -17 13 -17 15 1 12 24 -3 29 -9 3 -13 -2 -10
-12z"/>
<path d="M3264 2709 c-19 -21 -19 -21 6 -18 14 2 26 12 28 22 5 23 -11 22 -34
-4z"/>
<path d="M3330 2646 c0 -14 5 -26 10 -26 6 0 10 9 10 19 0 11 -4 23 -10 26 -6
4 -10 -5 -10 -19z"/>
<path d="M3426 2601 c-4 -7 -5 -15 -2 -18 9 -9 19 4 14 18 -4 11 -6 11 -12 0z"/>
<path d="M3250 2551 c-22 -18 -23 -20 -7 -26 9 -4 17 -11 17 -16 0 -16 -43
-69 -56 -69 -11 0 -24 -21 -24 -41 0 -16 39 -10 57 10 10 10 29 24 41 30 18
10 22 18 18 37 -4 14 -2 24 4 24 5 0 10 -7 10 -15 0 -20 30 -19 45 2 12 16 16
16 39 3 35 -18 50 -3 41 39 -7 33 -41 44 -51 17 -4 -12 -10 -12 -32 -1 -50 25
-76 26 -102 6z"/>
<path d="M2505 2550 c3 -5 8 -10 11 -10 2 0 4 5 4 10 0 6 -5 10 -11 10 -5 0
-7 -4 -4 -10z"/>
<path d="M2280 2460 c0 -5 9 -10 21 -10 11 0 17 5 14 10 -3 6 -13 10 -21 10
-8 0 -14 -4 -14 -10z"/>
<path d="M3472 2458 c-19 -19 -15 -48 8 -48 21 0 24 12 12 43 -6 14 -10 15
-20 5z"/>
<path d="M2380 2410 c0 -6 7 -10 15 -10 8 0 15 2 15 4 0 2 -7 6 -15 10 -8 3
-15 1 -15 -4z"/>
<path d="M3681 2400 c-14 -8 -7 -30 9 -30 11 0 21 28 12 34 -5 3 -14 1 -21 -4z"/>
<path d="M2424 2387 c3 -10 6 -23 6 -27 0 -18 39 -31 58 -21 16 10 16 10 0 11
-9 0 -29 12 -44 28 -19 19 -25 22 -20 9z"/>
<path d="M1660 1901 c0 -6 4 -13 10 -16 6 -3 7 1 4 9 -7 18 -14 21 -14 7z"/>
<path d="M1861 1855 c-1 -5 8 -21 19 -35 11 -14 20 -20 20 -14 0 7 -9 22 -20
35 -10 13 -19 20 -19 14z"/>
<path d="M2032 1708 c9 -14 32 -27 56 -32 26 -6 44 -17 50 -32 9 -19 62 -54
83 -54 15 0 -6 46 -34 72 -20 19 -44 30 -78 34 -28 4 -56 13 -64 20 -21 22
-29 16 -13 -8z"/>
<path d="M2260 1643 c0 -10 5 -25 10 -33 7 -11 10 -7 10 18 0 17 -4 32 -10 32
-5 0 -10 -8 -10 -17z"/>
<path d="M2240 1513 c0 -6 9 -21 20 -34 15 -18 19 -20 20 -8 0 9 -9 24 -20 34
-11 10 -20 13 -20 8z"/>
<path d="M629 1890 c13 -11 28 -20 35 -20 6 1 0 10 -13 20 -13 11 -28 20 -35
20 -6 -1 0 -10 13 -20z"/>
<path d="M708 1823 c-5 -42 3 -94 13 -87 5 3 9 1 9 -4 0 -6 10 -5 25 1 25 12
33 27 14 27 -5 0 -19 20 -30 45 -11 25 -22 45 -24 45 -2 0 -5 -12 -7 -27z"/>
<path d="M665 1820 c10 -11 20 -18 23 -15 7 6 -18 35 -31 35 -5 0 -2 -9 8 -20z"/>
<path d="M770 1571 c0 -12 5 -21 10 -21 6 0 10 6 10 14 0 8 -4 18 -10 21 -5 3
-10 -3 -10 -14z"/>
<path d="M1355 1580 c-3 -5 -1 -10 4 -10 6 0 11 5 11 10 0 6 -2 10 -4 10 -3 0
-8 -4 -11 -10z"/>
<path d="M1875 690 c3 -5 8 -10 11 -10 2 0 4 5 4 10 0 6 -5 10 -11 10 -5 0 -7
-4 -4 -10z"/>
<path d="M2120 642 c0 -5 7 -17 15 -28 15 -19 20 -8 9 20 -6 17 -24 22 -24 8z"/>
<path d="M2170 591 c0 -17 67 -51 96 -50 25 1 23 3 -16 15 -24 8 -48 21 -53
29 -9 16 -27 20 -27 6z"/>
<path d="M3505 4620 c3 -5 11 -10 16 -10 6 0 7 5 4 10 -3 6 -11 10 -16 10 -6
0 -7 -4 -4 -10z"/>
<path d="M1924 4495 c-10 -8 -14 -15 -8 -15 6 0 17 7 24 15 16 19 9 19 -16 0z"/>
<path d="M2360 4481 c0 -5 11 -16 25 -25 27 -18 30 -15 15 15 -11 19 -40 27
-40 10z"/>
<path d="M2232 4397 c-12 -7 -20 -16 -16 -20 4 -3 16 -1 27 5 12 6 32 14 46
19 26 7 26 7 -4 8 -16 0 -40 -5 -53 -12z"/>
<path d="M3759 4342 c15 -28 99 -94 114 -89 15 5 -89 107 -109 107 -11 0 -12
-4 -5 -18z"/>
<path d="M3250 4254 c0 -9 5 -14 12 -12 18 6 21 28 4 28 -9 0 -16 -7 -16 -16z"/>
</g>
</svg>
