<svg xmlns="http://www.w3.org/2000/svg" viewBox="0 0 40.72 74.27"><defs><style>.cls-1{fill:#ffc66e;}.cls-2{fill:#ff9455;}.cls-3{fill:#ed6c45;}.cls-4{fill:#ff3d21;}.cls-5{fill:#260029;}</style></defs><g id="Layer_2" data-name="Layer 2"><g id="_"><path class="cls-1" d="M20.07,62.74c-1.39-1.11-1.58-3.12-2.31-4.74-1.4-3.1-4.8-4.75-7-7.38a21.8,21.8,0,0,1-3.38-6.93L2.63,29.9a28.3,28.3,0,0,1-1.48-5.33,28.75,28.75,0,0,1-.07-5.41l.39-7.76C1.58,9.19,1.72,6.87,2.88,5c2.26-3.68,8.36-6,12.21-3.93,3,1.62,3.94,4.35,5.69,7a48.32,48.32,0,0,1,5.47,10.71c.67,2,1.15,4,1.88,6,1.15,3.12,1.67,7.51,2.54,10.71,1.19,4.33,2,7.62,4.06,11.6a15.54,15.54,0,0,0-4.29-4.45l3.47,13.45c-1.43-1.51-3.48-3.59-4.9-5.1,1.5,7.17,5.66,12.67,6.5,18.17a7.79,7.79,0,0,0,4.33,4.5,14.43,14.43,0,0,1-9-4.4c-2.38-2.38-4-5.47-6.56-7.72.46,1.32,1.48,2.29-.1,2.63C23.17,64.37,20.83,63.34,20.07,62.74Z"/><path class="cls-2" d="M23.12,47.47c-.37-2.62-.73-5.23-1.09-7.85a11.71,11.71,0,0,1,4.18,6.93A24.61,24.61,0,0,0,24,29.68l4,4.11A111.9,111.9,0,0,0,25.1,20.37l1.8,3.05a2.42,2.42,0,0,0,1.16,1.14c-.69-1.89-1.16-3.85-1.81-5.75A48.32,48.32,0,0,0,20.78,8.1c-1.75-2.69-2.73-5.42-5.69-7C11.24-1,5.14,1.31,2.88,5c-1.16,1.88-1.3,4.2-1.41,6.41l-.39,7.76a28.75,28.75,0,0,0,.07,5.41A28.3,28.3,0,0,0,2.63,29.9L6.54,41.16a17,17,0,0,1,.55-6.39C8.83,40.33,10.59,46,13.7,50.88a21.89,21.89,0,0,1-.16-9.36c.47,3.09,4,4.69,5.6,7.36.6,1,.95,2.11,1.48,3.13a9.66,9.66,0,0,0,6.06,4.83C24.19,54.51,23.58,50.85,23.12,47.47Z"/><path class="cls-3" d="M20.44,10.46l1,1c-.12-1-.25-2-.4-3a4,4,0,0,1-.22-.34c-1.75-2.69-2.73-5.42-5.69-7C11.24-1,5.14,1.31,2.88,5c-1.16,1.88-1.3,4.2-1.41,6.41-.13,2.59-.4,8-.41,8.12.38,1.09.78,2.16,1.18,3.22a6.61,6.61,0,0,1,1.58-4.09C3.5,21,6.14,22.54,7.47,24.5c1.66,2.48,1.28,5.95,3.06,8.35a19,19,0,0,1,2.35-8.19c2.63,1.69,1.31,6.12,3.31,8.52C18,29,19.83,24.27,18.15,20a6.84,6.84,0,0,1,2.19,3.64A19.14,19.14,0,0,0,20.44,10.46Z"/><path class="cls-4" d="M5.83,16.44a7.2,7.2,0,0,0,1.31.34A6.25,6.25,0,0,1,9.4,18.5a2.67,2.67,0,0,0,2.58.9,4.8,4.8,0,0,0,1.36-1c.83-.68,1.9-1,2.77-1.63a4.83,4.83,0,0,0,1.95-4.28,8.86,8.86,0,0,1-.14-1.62,12.56,12.56,0,0,0,.42-2.15,3.39,3.39,0,0,0-1-1.8L15.22,4.31c-1.88-2.24-3.31-1.25-5.64-.45-1.54.53-3.26.63-4.36,2C3.49,8,3.12,15,5.83,16.44Z"/><path class="cls-5" d="M5.18,13.57a3.19,3.19,0,0,1-1-2.29c0-1,.48-1.43.93-2.2a.28.28,0,0,0-.28-.43c-1.18.13-1.61,1.59-1.57,2.61A3.07,3.07,0,0,0,4.9,14,.24.24,0,0,0,5.18,13.57Z"/><path class="cls-5" d="M4.84,9.4A21.68,21.68,0,0,1,5.64,6,1.87,1.87,0,0,1,6.8,4.87c.7-.21,1.41.13,2.09-.09A.28.28,0,0,0,9,4.35C8,3.37,6,4,5.23,5S4.4,7.89,4.3,9.27C4.27,9.58,4.75,9.71,4.84,9.4Z"/><path class="cls-5" d="M8.2,4.85c1-.33,1.8-1,2.78-1.35a2.94,2.94,0,0,1,1.85-.16c.78.22,1.19.9,1.8,1.37.22.18.65,0,.55-.35C14.07.85,9.75,2.64,7.9,4.39A.28.28,0,0,0,8.2,4.85Z"/><path class="cls-5" d="M14.39,4.39a7.94,7.94,0,0,0,2.2,2.2c1.28,1,1.41,2,.85,3.6a.46.46,0,0,0,.87.32,3.61,3.61,0,0,0-.24-3.76c-.88-1.07-2.23-1.69-3.22-2.66C14.65,3.88,14.23,4.09,14.39,4.39Z"/><path class="cls-5" d="M17.66,10.2A2.08,2.08,0,0,0,17.42,12c.29,1.25.77,2.19-.15,3.4s-2.89,1.49-4.1,2.4c-.48.36.12,1,.6.7,1.3-.87,3.14-1.2,4.1-2.49a4.24,4.24,0,0,0,.88-2.17c.05-1.19-.91-2.11-.63-3.35C18.19,10.18,17.83,9.92,17.66,10.2Z"/><path class="cls-5" d="M4.62,13.86a2.8,2.8,0,0,0,1.06,3.19c.82.57,2.75,1.26,3.68.69a.27.27,0,0,0,0-.46A2.89,2.89,0,0,0,8,16.94a5.52,5.52,0,0,1-1.43-.39C5.41,16,5.23,15.06,5.16,13.91,5.15,13.63,4.7,13.6,4.62,13.86Z"/><path class="cls-5" d="M8.43,17.51a3.83,3.83,0,0,0,2.7,2.11,3.4,3.4,0,0,0,3.11-1.24.29.29,0,0,0-.28-.45c-.9.08-1.55.83-2.51.83S9.67,17.88,9,17.18C8.71,17,8.25,17.18,8.43,17.51Z"/><path class="cls-5" d="M14.3,15.16a2.89,2.89,0,0,0,1.47-1.07,2.5,2.5,0,0,0,.07-2,.39.39,0,0,0-.45-.31,1.85,1.85,0,0,0-1.2.73,3.71,3.71,0,0,0-.46,1.32c-.06.36.43.48.63.23a3.42,3.42,0,0,0,.4-.94,1,1,0,0,1,.77-.59l-.45-.31a1.87,1.87,0,0,1,0,1.57,4.52,4.52,0,0,1-1.1.89C13.73,14.88,14,15.27,14.3,15.16Z"/><path class="cls-5" d="M14.86,9.05a2.56,2.56,0,0,0,.08-1.57,2.63,2.63,0,0,0-1.25-1.3.36.36,0,0,0-.56.25,1.75,1.75,0,0,0,.11,1.42.25.25,0,0,0,.43-.07,5.41,5.41,0,0,0,.17-1.28l-.56.26a2.11,2.11,0,0,1,1,1,2.44,2.44,0,0,1,0,1.2C14.29,9.23,14.78,9.35,14.86,9.05Z"/><path class="cls-5" d="M6.07,11.07c.34,1.49.3,3.14,1.29,4.39a.35.35,0,0,0,.54,0c.54-.75.37-1.24.08-2a.22.22,0,0,0-.41.07c0,.61.16,1-.23,1.58l.54,0c-.94-1.16-.75-2.76-1.34-4.09A.25.25,0,0,0,6.07,11.07Z"/><path class="cls-5" d="M7.91,12.47a2.58,2.58,0,0,0-1.25-1.91c-.34-.27-.71.28-.38.56a3.17,3.17,0,0,1,1.17,1.37C7.52,12.72,7.92,12.77,7.91,12.47Z"/><path class="cls-5" d="M8.45,7.7c.15-.26.34-.54.67-.44s.46.34.78.36a.27.27,0,0,0,.27-.38,1.37,1.37,0,0,0-1.24-.72c-.55,0-.79.46-1,.92C7.81,7.73,8.28,8,8.45,7.7Z"/><path class="cls-5" d="M9.1,11.78c.36.34,1,.81,1.45.46.34-.24.5-.92.12-1.18a.3.3,0,0,0-.34,0c-.21.19-.06.38-.18.56s-.51-.2-.66-.29S8.85,11.53,9.1,11.78Z"/><path class="cls-5" d="M8.28,1C5,1.11-.27,5.38,1.86,9c.12.19.5.19.5-.09,0-2,.26-3.55,1.81-5A12.26,12.26,0,0,1,8.36,1.5.25.25,0,0,0,8.28,1Z"/><path class="cls-5" d="M1.92,8.65c-2.06,2-1.64,4.25-1,6.9S.25,21,2.17,23a.22.22,0,0,0,.34-.29c-1.27-1.84-.34-4-.66-6.06C1.41,13.9.32,11.61,2.33,9,2.52,8.78,2.15,8.42,1.92,8.65Z"/><path class="cls-5" d="M2.79,23A2.63,2.63,0,0,1,2.9,21c.34-.69.9-1.25,1.29-1.92.11-.17-.07-.44-.28-.32-1.37.72-2.86,3.1-1.58,4.51C2.49,23.4,2.86,23.27,2.79,23Z"/><path class="cls-5" d="M3.58,19.41C3.65,22.23,6,23,7.46,25.12c1.72,2.52-.25,5.68,2.81,7.41a.28.28,0,0,0,.32-.46c-2.35-2.06-.78-5-2.39-7.37-1.34-2-3.67-2.68-4-5.32C4.16,19,3.57,19.05,3.58,19.41Z"/><path class="cls-5" d="M10.89,32.69c-1.73-3.07,3.25-5.63,1.94-8.92-.15-.39-.71-.16-.67.22.23,2.22-1.05,3.58-1.94,5.47A3,3,0,0,0,10.46,33C10.64,33.18,11,33,10.89,32.69Z"/><path class="cls-5" d="M12.63,25c2.07,1.47,2,3.35,2.1,5.64a5.24,5.24,0,0,0,1.08,3.52.23.23,0,0,0,.38-.25c-1.16-3.19.17-7.37-3.27-9.32C12.64,24.41,12.36,24.78,12.63,25Z"/><path class="cls-5" d="M16.21,34c.24-2.75,2.4-5.14,2.87-7.93a15.13,15.13,0,0,0-.66-6.77.31.31,0,0,0-.61.11c.29,3,1,5.58-.08,8.6-.7,2-2.36,3.79-2,6A.23.23,0,0,0,16.21,34Z"/><path class="cls-5" d="M18,20.24A6.65,6.65,0,0,1,19.71,22,9.77,9.77,0,0,1,20.47,24c.06.21.39.24.41,0a4.78,4.78,0,0,0-2.61-4.16C18,19.69,17.84,20.08,18,20.24Z"/><path class="cls-5" d="M21.25,23.87c-.74-2.95,1.2-5.62,1.24-8.54,0-2.26-2.41-4.21-2.12-6.24A.2.2,0,0,0,20,9a2.62,2.62,0,0,0-.13,2.07c.72,1.91,2,2.65,1.75,5-.27,2.74-2,5.18-.81,7.91C20.91,24.26,21.32,24.13,21.25,23.87Z"/><path class="cls-5" d="M20.25,9.9c-.05.24-.14.33,0,.57a1.88,1.88,0,0,0,.46.59,2.81,2.81,0,0,0,1.67.93.2.2,0,0,0,.17-.32,5.79,5.79,0,0,0-1.22-1,2.75,2.75,0,0,1-.44-.46,2.87,2.87,0,0,0-.24-.31A.19.19,0,0,0,20.25,9.9Z"/><path class="cls-5" d="M22.28,11.71C20.75,8,20,3.37,16.08,1.32,13.88.16,9.75-.95,7.86,1.3c-.18.22.12.59.37.44C11,.11,14.82.91,17.14,3c2.6,2.3,3.1,6,4.63,9A.28.28,0,0,0,22.28,11.71Z"/><path class="cls-5" d="M1,15.7c-1.2,5.32-1.8,8.92.86,13.79C3.27,32,3.69,34.24,4.59,37a5.69,5.69,0,0,0,2,3.18c.22.18.49-.15.32-.35-2.13-2.7-2.28-7-4-10.06-2.71-4.84-2.13-8.82-1.41-14C1.51,15.45,1.09,15.43,1,15.7Z"/><path class="cls-5" d="M6.94,40.23a5.5,5.5,0,0,1-.22-3c.16-.86.6-1.65.7-2.51,0-.24-.26-.29-.39-.15a5.6,5.6,0,0,0-.47,5.82A.21.21,0,0,0,6.94,40.23Z"/><path class="cls-5" d="M7,35.1a34.72,34.72,0,0,0,1.55,4.32c.7,1.9.9,3.89,1.55,5.8a9.86,9.86,0,0,0,4.3,5.42c.22.13.53-.15.32-.35C12.36,48,11,46.13,10.22,42.87A47.5,47.5,0,0,0,7.44,35,.22.22,0,0,0,7,35.1Z"/><path class="cls-5" d="M14.73,50.3a7,7,0,0,1-1-5.38,13.45,13.45,0,0,0,.48-3.48.24.24,0,0,0-.46,0,13.83,13.83,0,0,0-.83,4.94,5.9,5.9,0,0,0,1.47,4.26A.22.22,0,0,0,14.73,50.3Z"/><path class="cls-5" d="M14,42.36c.68,4,4.94,4.93,6.13,8.59.44,1.37.65,2.66,1.72,3.71,1.31,1.27,3.12.87,4.43,2.17.18.17.53,0,.4-.26A2.49,2.49,0,0,0,25,55.19c-1.87-.76-3.09-.93-3.81-3.16-.17-.55-.25-1.12-.46-1.66-1.3-3.46-5.08-4.57-6.31-8.15C14.36,42,14,42.12,14,42.36Z"/><path class="cls-5" d="M26.71,56.57a17.32,17.32,0,0,0-1.84-3.11c-.9-1.49-.64-2.68-.72-4.33-.18-3.7-1.79-7-1.68-10.73a.3.3,0,0,0-.6,0c-.61,4.11,1.39,8.07,1.58,12.18.12,2.81,1.44,3.73,2.84,6.24A.23.23,0,0,0,26.71,56.57Z"/><path class="cls-5" d="M21.82,39c.36,1.37,1.68,2,2.56,3,1.27,1.45,1,3.59,1.8,5.27a.22.22,0,0,0,.41-.13c-.26-1.54-.3-3.51-1.1-4.89s-2.35-2.16-3.27-3.45C22.09,38.57,21.77,38.73,21.82,39Z"/><path class="cls-5" d="M26.75,47c-.13-3.06,1.35-5.95.48-9-1-3.47-3.33-5.62-2.71-9.54a.26.26,0,0,0-.5-.11c-.79,2.77.16,4.61,1.38,7.1a10.26,10.26,0,0,1,1.24,6.8A11.73,11.73,0,0,0,26.31,47C26.36,47.22,26.76,47.23,26.75,47Z"/><path class="cls-5" d="M24.06,29.17a4.71,4.71,0,0,0,1.55,2.4,16.42,16.42,0,0,1,2.2,2.51c.11.16.38,0,.34-.16-.46-2-2.9-2.92-3.57-4.91C24.48,28.7,24,28.88,24.06,29.17Z"/><path class="cls-5" d="M28.15,34c.47-2.3-.6-4.72-1.41-6.84a14.63,14.63,0,0,1-1-5.37,2.75,2.75,0,0,0-.61-2.05c-.16-.23-.46,0-.38.25.45,1.29.12,2.46.26,3.74a12,12,0,0,0,.72,2.61c.87,2.47,2.11,5,2.06,7.63A.19.19,0,0,0,28.15,34Z"/><path class="cls-5" d="M25.32,20.71a7.28,7.28,0,0,0,3.36,4.64c.15.09.38-.06.28-.24a10.63,10.63,0,0,0-1.63-1.91,6.82,6.82,0,0,1-1.56-2.57A.23.23,0,0,0,25.32,20.71Z"/><path class="cls-5" d="M28.81,24.94c-2.27-5.42-3-13.21-8.23-16.78a.23.23,0,0,0-.31.34,23.38,23.38,0,0,1,5,8.37c.95,2.79,1.65,5.68,3.1,8.27A.24.24,0,0,0,28.81,24.94Z"/><path class="cls-5" d="M5.9,39.63c1.51,3.58,1.75,8,3.86,11.35,1.63,2.56,4.81,3.24,7,5.27.17.16.51,0,.37-.24-1.29-2.28-3.95-2.61-5.74-4.37-3.06-3-3-8.5-5-12.24A.27.27,0,0,0,5.9,39.63Z"/><path class="cls-5" d="M16.51,56.49c1.28,1.95,1.44,4.52,3.18,6.2s4,1.51,5.66,3.08c.16.16.48,0,.36-.24-1-1.92-3.09-1.88-4.77-2.92-2.22-1.39-2.45-4.53-4-6.51C16.72,55.79,16.3,56.18,16.51,56.49Z"/><path class="cls-5" d="M25.77,65.58c-.2-.78-.44-1.54-.71-2.3a8.93,8.93,0,0,0-1-2.35.29.29,0,0,0-.51.23,18.11,18.11,0,0,0,.83,2.27c.29.78.55,1.56.9,2.31C25.4,66,25.85,65.87,25.77,65.58Z"/><path class="cls-5" d="M24,61.66c3.08,2.47,4.6,6.07,7.44,8.72,2.42,2.28,5.74,3,8.85,3.87a.29.29,0,0,0,.21-.55c-3.85-1.86-7.39-2.2-10.23-5.82-1.88-2.38-3.32-5-5.93-6.7A.29.29,0,0,0,24,61.66Z"/><path class="cls-5" d="M40.57,73.78c-2.33-1.64-4.72-3.28-5.5-6.14-.4-1.48-.17-3.07-.76-4.54-.88-2.24-2.41-3.51-3-6-.53-2.21-1.83-4.78-2-7,0-.35-.63-.33-.63,0,0,2.55,1.29,5.14,1.92,7.62.69,2.76,2.83,4.57,3.49,7.36,1.06,4.5,1.66,6.61,6.26,9C40.56,74.31,40.83,74,40.57,73.78Z"/><path class="cls-5" d="M29.07,51a8.73,8.73,0,0,0,2.09,2.74c.92.91,1.72,1.93,2.62,2.85.13.14.4.05.35-.16a6,6,0,0,0-1.91-2.73,15.22,15.22,0,0,1-2.57-3A.32.32,0,0,0,29.07,51Z"/><path class="cls-5" d="M33.76,55.79a11.06,11.06,0,0,0-.92-6.17c-1.16-3-2.14-5.35-2.15-8.6a.27.27,0,0,0-.52-.12c-.7,1.86-.16,3.83.51,5.64,1.15,3.12,2.63,5.78,2.59,9.21A.25.25,0,0,0,33.76,55.79Z"/><path class="cls-5" d="M29.73,41.67c.91,1.67,4.39,3.62,4.6,5.15.06.44.73.32.68-.13-.43-4-2.76-7.85-3.59-11.75s-1.89-7.45-3-11.29a.28.28,0,0,0-.56.1c.28,3.76,2,7.64,2.76,11.34.85,3.93,3.32,7.76,3.74,11.73,0,.44.71.31.68-.13-.15-1.95-3.8-3.78-4.85-5.3C30,41.16,29.59,41.41,29.73,41.67Z"/></g></g></svg>