<svg xmlns="http://www.w3.org/2000/svg" viewBox="0 0 77.64 77.9"><defs><style>.cls-1{fill:#bb6c51;}.cls-2{fill:#9b5840;}.cls-3{fill:#260029;}</style></defs><g id="Layer_2" data-name="Layer 2"><g id="_"><path class="cls-1" d="M3.66,25.31C8.87,12.27,21.52,2.67,35.41.55A34.24,34.24,0,0,1,44.34.29,33.75,33.75,0,0,1,64.49,10.57,49.23,49.23,0,0,1,75.86,30.4a25.88,25.88,0,0,1,1.49,10.25,28.23,28.23,0,0,1-2.64,8.65c-4.9,11.05-12.47,21.91-23.87,25.93s-24,.24-34-5.76C8.09,64.18,3,54.94,1.49,44.81A37.92,37.92,0,0,1,3.66,25.31Z"/><path class="cls-2" d="M17.19,25.4c.93-2.71,1.9-5.49,3.81-7.63,2.95-3.3,7.55-4.47,11.86-5.46l8.48-2A36.4,36.4,0,0,0,34,18.79c-1.87,3-3.37,6.26-6.06,8.5a18,18,0,0,1-5.19,2.81c-1.79.68-5.92,2.59-7.71,1.83A51.51,51.51,0,0,1,17.19,25.4Z"/><path class="cls-2" d="M22,34.71c2.47-1.36,5.19-2.32,7.41-4.06,4.7-3.68,6.38-10.12,10.66-14.27,3.38-3.28,8.11-4.84,12.79-5.36a20.15,20.15,0,0,0-9.11,7.69,58.19,58.19,0,0,0-5.38,10.8,17.79,17.79,0,0,1-2.32,4.4c-2.24,2.77-6,3.91-9.51,4.15a29.44,29.44,0,0,0-5.64.51c-3.8,1-6.2,4.08-8.54,7A20.56,20.56,0,0,1,22,34.71Z"/><path class="cls-2" d="M51.91,69.7a16,16,0,0,1,2.28-3.53,30,30,0,0,1,3.39-3.28l7.79-6.83a6.47,6.47,0,0,1,2.72-1.68,2.22,2.22,0,0,1,2.64,1.28,2.86,2.86,0,0,1-.17,1.68c-1.33,3.9-4.53,6.83-7.73,9.42Q59,69.89,54.88,72.71c-1,.72-2.05,1.82-3.13.71S51.44,70.69,51.91,69.7Z"/><path class="cls-2" d="M41.67,62c.95-2,1.13-4.26,1.92-6.31a11.13,11.13,0,0,1,4.22-5.24,6.68,6.68,0,0,1,3.31-1.22,19.59,19.59,0,0,1,3,.33c4.12.47,8.08-1.67,11.42-4.13S72,40,75.84,38.58a14.77,14.77,0,0,0-12.45-1.27c-4.91,1.75-8.5,6-13,8.66-3.14,1.87-6.67,3-9.94,4.63s-6.39,4-7.69,7.45-.56,7.12-.66,10.72c0,.92-.59,2.82.12,3.33C35.17,68.93,39.78,65.92,41.67,62Z"/><path class="cls-2" d="M68.05,25.07c-4.78.84-8.56,4.36-12,7.72-.9.86-1.87,2-1.55,3.18a2.3,2.3,0,0,0,2,1.55A5.65,5.65,0,0,0,59,37.11c2.81-1,5.4-2.58,8.27-3.33a23.36,23.36,0,0,1,7.6-.44.87.87,0,0,0,.69-.14.9.9,0,0,0,.19-.56c.17-2.2-.12-5.19-1.41-7.07S70.14,24.7,68.05,25.07Z"/><path class="cls-2" d="M19.88,10.5a34.41,34.41,0,0,1,8.29-3.14L33.9,5.73a7,7,0,0,0,2.39-1,2.4,2.4,0,0,0,1-2.26A2.41,2.41,0,0,0,35.22.73a7.11,7.11,0,0,0-2.84.39A53,53,0,0,0,21.66,5a53.07,53.07,0,0,0-9.36,6.86C10.69,13.18,8.24,14.93,7.58,17,7.11,18.53,7.4,20,9,19.5c1.85-.52,4-3.31,5.36-4.59A33,33,0,0,1,19.88,10.5Z"/><path class="cls-3" d="M63.53,9.67c10.6,11.8,16,25.56,10.07,41.07C67.88,65.57,55.51,76.66,39,76.35,24.69,76.07,10.26,67.72,4.6,54.22c-6.17-14.75-2.73-29.25,7-41.45.31-.39-.29-1-.66-.6C-7.4,30.08-1.69,61.68,20.74,73.23c10.45,5.38,23.61,6.49,34.37,1.34C66.31,69.2,74,57.28,76.76,45.43,79.92,31.92,74.31,18.1,64,9.14,63.7,8.88,63.26,9.37,63.53,9.67Z"/><path class="cls-3" d="M66.42,11.76C59.73,2.9,46.4-.71,35.77.11,24,1,13.36,6.89,7.08,16.94a.36.36,0,0,0,.58.41C14.72,8.45,23.84,2.58,35.33,1.51,47.2.4,56.92,5.12,66,12.25,66.28,12.49,66.63,12.05,66.42,11.76Z"/><path class="cls-3" d="M76.8,37.83c-5.84-1.31-12-2.45-17.45.86-3,1.84-5.3,4.62-8.4,6.36-3.46,1.94-7.4,2.78-10.89,4.65-3.92,2.12-6.87,5.14-7.34,9.71-.22,2.13.14,4.14-.32,6.26C32,67.54,31,69.05,30.46,70.85a6.78,6.78,0,0,0,.26,5.49.32.32,0,0,0,.58-.28c-1.74-3.54,1-6.82,1.78-10.07.44-1.89.12-3.8.25-5.71.53-7.59,7-10.09,13.11-12.54,4.37-1.74,7.32-4,10.94-6.82,6-4.73,12.35-4.05,19.37-2.58C77.07,38.41,77.12,37.9,76.8,37.83Z"/><path class="cls-3" d="M76.44,39.58c-5.94-.62-8.56,4.29-12.7,7.56-5.23,4.14-12,.2-17.24,4a7.62,7.62,0,0,0-2.86,3.65C43,56.43,43.48,58.35,43,60a13.58,13.58,0,0,1-4.58,6.56c-3.28,2.64-6.94,5.57-5.72,10.22.1.38.7.28.6-.11-1.67-6.33,5.66-8.44,8.7-12.38,3.56-4.6.45-11.93,7.83-13.83,4.24-1.1,8.64.7,12.65-1.6,4.91-2.82,7.28-9.28,13.94-8.73A.29.29,0,0,0,76.44,39.58Z"/><path class="cls-3" d="M46.73,49.39c-3.94,2.15-5.32,6.68-6.29,10.77-.06.24.31.38.37.13,1-4.17,2.42-8.09,6.12-10.59C47.11,49.58,46.92,49.29,46.73,49.39Z"/><path class="cls-3" d="M40.24,60.84c-1,4.84-4.8,5.48-7.44,8.89a7.74,7.74,0,0,0-1.19,6.83c.09.37.7.27.6-.11-1.39-5.21,2.22-7.09,5.46-10.06a9.39,9.39,0,0,0,2.95-5.52C40.67,60.62,40.29,60.59,40.24,60.84Z"/><path class="cls-3" d="M48.5,48.49c-4.21.91-8.8,2.66-11.35,6.32a15.27,15.27,0,0,0-2,5.12,87.14,87.14,0,0,1-3.48,12c-.13.32.37.51.51.19,1.93-4.62,2.36-9.42,4.09-14,2.18-5.83,7.17-7.16,12.42-9.14C48.91,48.86,48.77,48.43,48.5,48.49Z"/><path class="cls-3" d="M42,52.62c-1.42,2.56-1.73,5.42-2.81,8.1A9.86,9.86,0,0,1,35.89,65a4.12,4.12,0,0,0-1.67,2c-.08.23.27.43.4.2,1.25-2.18,3.6-3.09,4.71-5.51,1.32-2.85,1.52-6,3-8.86C42.4,52.61,42.07,52.43,42,52.62Z"/><path class="cls-3" d="M42.16,52.26c-6.43,2.59-5.91,8.81-8,14.37-.1.28.34.53.49.25,1.15-2.16,1.28-4.55,1.89-6.89a11.5,11.5,0,0,1,5.8-7.34A.21.21,0,0,0,42.16,52.26Z"/><path class="cls-3" d="M40.21,54.66c-2.68,2.25-3.23,5.86-4.13,9.06-.08.29.35.46.45.17,1.15-3.11,1.29-6.57,4-8.88C40.74,54.82,40.44,54.47,40.21,54.66Z"/><path class="cls-3" d="M40.26,54.93a36.75,36.75,0,0,0-1.41,4.43c-.57,1.64-1.68,2.62-2.59,4a.27.27,0,0,0,.4.36c2.76-2.23,2.8-5.59,4-8.65C40.79,54.81,40.39,54.68,40.26,54.93Z"/><path class="cls-3" d="M73.53,38.69c-4.48.05-6.18,3.45-9.23,6.15C59,49.49,52.38,46,46.69,49.16c-.28.16-.08.59.21.45,4.61-2.21,9.53-.43,14.18-2.12,5-1.81,6.76-8,12.47-8.32C73.82,39.16,73.81,38.68,73.53,38.69Z"/><path class="cls-3" d="M73.12,38.4c-3.09-.38-6.75-1.16-9.81-.21-3.57,1.12-6.14,4.34-9.05,6.53-.21.16.05.44.26.3,2.71-1.76,4.93-4.5,7.91-5.84,3.29-1.48,7.19-.47,10.65-.31A.24.24,0,0,0,73.12,38.4Z"/><path class="cls-3" d="M49.62,47.61c.23,0,.26-.36,0-.36S49.38,47.61,49.62,47.61Z"/><path class="cls-3" d="M49.17,47.38a9.67,9.67,0,0,0-2.88,2.06c-.16.2.14.44.32.3a19,19,0,0,1,2.72-2C49.55,47.6,49.39,47.26,49.17,47.38Z"/><path class="cls-3" d="M53.87,45c-1.11.55-2.24,1.07-3.32,1.67a.21.21,0,0,0,.19.38c1.12-.52,2.2-1.13,3.29-1.71A.19.19,0,0,0,53.87,45Z"/><path class="cls-3" d="M69.13,39.15c-2.46,1.15-3.83,3.22-5.85,4.91-3.13,2.61-7.31,2.48-11.15,3-.37.05-.26.6.1.57,3.24-.28,6.9-.34,9.79-2s4.41-4.56,7.29-6.08C69.55,39.4,69.37,39,69.13,39.15Z"/><path class="cls-3" d="M69.2,39.09c-2.73,0-5.32.15-7.74,1.56A65.58,65.58,0,0,0,54.17,46c-.21.16,0,.44.25.3,1.94-1.32,3.82-2.73,5.74-4.08,2.91-2,5.5-2.55,9-2.68C69.45,39.53,69.5,39.09,69.2,39.09Z"/><path class="cls-3" d="M53.78,46.24A11.32,11.32,0,0,0,52,47c-.21.13-.14.53.14.45A11.22,11.22,0,0,0,54,46.63C54.23,46.51,54,46.14,53.78,46.24Z"/><path class="cls-3" d="M66.3,40.07c-4.06.19-7,3.46-10.22,5.52-.24.15-.07.55.2.42,3.52-1.7,6-5.16,10.09-5.51C66.65,40.47,66.57,40.05,66.3,40.07Z"/><path class="cls-3" d="M65.94,40.32c-1.5.79-2.49,2.19-3.91,3.08-1.64,1-3.5,1.36-5.24,2.14a.25.25,0,0,0,.15.46,14,14,0,0,0,4.88-1.81c1.6-1,2.69-2.56,4.3-3.48C66.36,40.57,66.19,40.2,65.94,40.32Z"/><path class="cls-3" d="M63.46,41.43c-.54.3-1.05.67-1.56,1a9.34,9.34,0,0,0-1.64,1.2.23.23,0,0,0,.25.38,8.68,8.68,0,0,0,1.57-1c.55-.38,1.13-.74,1.65-1.17C63.94,41.67,63.71,41.29,63.46,41.43Z"/><path class="cls-3" d="M76.28,36.23a21.91,21.91,0,0,0-8.39-1.11c-3.64.24-6,2-9.34,2.86q-2.86,2.52-4.1-3.19A20.13,20.13,0,0,1,57,31.89a24.64,24.64,0,0,1,5.28-3.77A34.53,34.53,0,0,1,73.65,24.6c.45-.07.33-.76-.13-.7a31.89,31.89,0,0,0-13.85,4.87c-2.5,1.68-7,5.14-6.88,8.59.08,2,1.62,2.72,3.49,2.37,2.78-.52,5.41-2.81,8.27-3.49a22.21,22.21,0,0,1,11.55.49C76.42,36.82,76.61,36.34,76.28,36.23Z"/><path class="cls-3" d="M74.12,25a28.22,28.22,0,0,0-11.59,4c-1.92,1.16-6.68,4-6.71,6.76,0,1.09.13,1.24,1.21,1.47,2.12.44,5.34-1.58,7.34-2a25.86,25.86,0,0,1,8.86-.24c.36,0,.41-.52,0-.56a26.08,26.08,0,0,0-7.74,0,28.85,28.85,0,0,0-3.77.94c-1.34.42-5.68,3.17-4.46-1.24.66-2.4,6.2-5.12,8-6a33.68,33.68,0,0,1,8.85-2.63A.24.24,0,0,0,74.12,25Z"/><path class="cls-3" d="M75.51,35.13a.88.88,0,0,1-.58-.23.23.23,0,0,0-.33.29.9.9,0,0,0,.86.45C75.78,35.64,75.83,35.13,75.51,35.13Z"/><path class="cls-3" d="M74.44,33a28.79,28.79,0,0,0-5.94-.28c-1.1.06-8.71,1.73-8.57-.24a.24.24,0,0,0-.48,0c-.28,1.52.84,2.12,2.26,2,1.75-.13,3.52-.88,5.28-1.09a34.09,34.09,0,0,1,7.42,0C74.64,33.39,74.67,33,74.44,33Z"/><path class="cls-3" d="M62.19,31a25.16,25.16,0,0,1,11.65-3.56c.4,0,.28-.63-.11-.61A23.32,23.32,0,0,0,62,30.64C61.74,30.77,62,31.14,62.19,31Z"/><path class="cls-3" d="M74.05,28.45a18.32,18.32,0,0,0-11.57,3.44.32.32,0,0,0,.18.55c3.72,0,7.44-1.78,11.13-.88.37.09.58-.47.21-.56-3.85-.91-7.44,1.12-11.28.81.05.19.11.37.17.56A18.48,18.48,0,0,1,74,28.84C74.26,28.84,74.3,28.46,74.05,28.45Z"/><path class="cls-3" d="M73.05,29.55a20.85,20.85,0,0,0-3.36.23.23.23,0,0,0,0,.45A19.65,19.65,0,0,0,73.13,30C73.43,30,73.34,29.53,73.05,29.55Z"/><path class="cls-3" d="M58.48,28.07C50,31.17,49.88,42.7,42.16,47a.24.24,0,0,0,.21.44c8.38-3.38,8.11-15.11,16.34-18.92C59,28.4,58.79,28,58.48,28.07Z"/><path class="cls-3" d="M55,40.7c-2.76,1.55-5.56,3-8.31,4.57a.25.25,0,0,0,.22.46,34.49,34.49,0,0,0,8.37-4.6C55.5,41,55.24,40.56,55,40.7Z"/><path class="cls-3" d="M51.53,38.4a64.93,64.93,0,0,1-4.18,6.68c-.13.21.15.51.35.31a22,22,0,0,0,4.22-6.85C52,38.29,51.65,38.16,51.53,38.4Z"/><path class="cls-3" d="M52.83,40.7a6.93,6.93,0,0,0-1.48.89.23.23,0,0,0,.25.37,7.63,7.63,0,0,0,1.47-.88C53.28,40.94,53.05,40.58,52.83,40.7Z"/><path class="cls-3" d="M52.46,39.12c-.36.86-.65,1.71-1.08,2.54-.15.29.34.55.51.27A8.28,8.28,0,0,0,53,39.25C53.06,38.92,52.58,38.84,52.46,39.12Z"/><path class="cls-3" d="M39.1,47.91C35,50,30.86,53.08,29.18,57.56a15.54,15.54,0,0,0-.71,6.32A28.67,28.67,0,0,1,28.24,71a22.69,22.69,0,0,0-.84,4.73c0,.48.75.55.75.07,0-2.17,1-4.13,1.22-6.25s-.2-4.38-.21-6.56c0-7.2,4.4-11.1,10.15-14.63C39.58,48.2,39.39,47.77,39.1,47.91Z"/><path class="cls-3" d="M33.86,53.4A16,16,0,0,0,30.29,60c-.62,2.72-.15,5.65-.27,8.43,0,.28.44.42.52.11.56-2.31.05-4.59.25-6.94.26-3,1.81-5.45,3.47-7.91A.24.24,0,0,0,33.86,53.4Z"/><path class="cls-3" d="M58.45,50.48c-3.66.31-7.93.87-10.53,3.79s-2.56,6.91-4.8,9.91c-.16.21.15.49.34.31,2.12-1.94,2.36-4.8,3.44-7.33,2-4.82,7-5.6,11.63-6.21C58.84,50.91,58.75,50.45,58.45,50.48Z"/><path class="cls-3" d="M72.9,41.7c-3.73,1.86-6.27,5.34-9.77,7.56-.23.14-.07.51.18.39C67,47.8,69.38,44,73.08,42.1A.22.22,0,0,0,72.9,41.7Z"/><path class="cls-3" d="M40.2,66.84c-2.3,1.19-4.46,3.34-4.59,6.08-.1,2.07,1.26,4.25,3.46,4.38.29,0,.42-.43.12-.52a3.91,3.91,0,0,1-2.55-5.58c.76-1.78,2.32-2.86,3.83-4C40.69,67.08,40.45,66.71,40.2,66.84Z"/><path class="cls-3" d="M75.46,48.35c-.5-2.41-2.49-2.64-4.66-2-1.89.56-3.42,1.91-5,3a18,18,0,0,1-9.13,3.7c-.26,0-.19.42.08.4a17,17,0,0,0,7.49-2.27c1.91-1.15,9.41-8.05,10.75-2.78C75.07,48.72,75.52,48.65,75.46,48.35Z"/><path class="cls-3" d="M55.24,54.55a14.77,14.77,0,0,0-5.46,4.18c-1.56,2.18-1.83,5-3.67,7-.18.19.06.5.26.32,1.49-1.31,2-3,2.76-4.82,1.26-3,3.54-4.73,6.31-6.27C55.69,54.82,55.5,54.42,55.24,54.55Z"/><path class="cls-3" d="M45.44,66.56c-2,1.3-4.11,3.94-4,6.46,0,.27.39.41.5.11a16.52,16.52,0,0,1,1.28-3.5,10.21,10.21,0,0,1,2.52-2.76C45.92,66.71,45.65,66.42,45.44,66.56Z"/><path class="cls-3" d="M42.37,75.1c.06.61.22,1.51.81,1.84a.28.28,0,0,0,.43-.27c-.1-.58-.53-1.08-.67-1.67A.29.29,0,0,0,42.37,75.1Z"/><path class="cls-3" d="M72.61,54.07c-.21-2.13-2.77-1.92-4.38-1.41a12.29,12.29,0,0,0-4.72,3.48A33.52,33.52,0,0,1,56,61.75a11.54,11.54,0,0,0-5.73,7.36c-.54,2.45-.28,5.44,2.71,5.61a.29.29,0,0,0,.06-.58l-2.41-3.8c.18-.75.35-1.5.53-2.25a10.85,10.85,0,0,1,2.5-3.86c1.66-1.6,3.83-2.44,5.75-3.66a19.77,19.77,0,0,0,3.56-3c1.14-1.18,7.86-8.34,9.2-3.41A.2.2,0,0,0,72.61,54.07Z"/><path class="cls-3" d="M71.46,56.7a1.9,1.9,0,0,0-.86-3c-2.83-1.26-6,3.18-7.55,4.78-3.54,3.54-15,8.14-10.65,15,.21.34.79.07.57-.28-3.3-5.27,3.31-8.65,6.78-11A25,25,0,0,0,63.48,59c.74-.74,1.43-1.52,2.17-2.25.29-.3.59-.59.9-.86,1.13-1.29,2.64-1.09,4.53.58A.23.23,0,0,0,71.46,56.7Z"/><path class="cls-3" d="M70.07,59.28a1.78,1.78,0,0,0-.72-2.48c-1.52-.79-3,.54-3.95,1.52a35,35,0,0,1-7.08,5.88c-1.81,1.12-3.38,2.24-4.23,4.25-.14.34.4.54.53.2,1.2-3,4.25-4,6.66-5.72a23.22,23.22,0,0,0,2.93-2.49c.27-.28.44-.46.7-.75l.87-1c.85-1.32,2.1-1.19,3.75.37C69.38,59.42,69.92,59.61,70.07,59.28Z"/><path class="cls-3" d="M53.66,69.78c-.62.79-.94,2.46,0,3.17a.28.28,0,0,0,.43-.27,6.22,6.22,0,0,1-.35-1.21,2.3,2.3,0,0,1,.38-1.37A.28.28,0,0,0,53.66,69.78Z"/><path class="cls-3" d="M67.42,59.7c-.27,2.08-2.66,4.33-4.11,5.64a26.18,26.18,0,0,1-2.16,1.75c-.44.31-2.29,1.92-2.89,1.76-2-.51.85-2.11,1.3-2.47.87-.7,1.75-1.38,2.64-2,1.58-1.19,3.41-3.68,5.39-4.07.25,0,.26-.47,0-.47-1.29,0-1.94.72-2.85,1.6a48,48,0,0,1-4.84,4c-.63.47-5.1,2.81-3.17,4.19,1.48,1,5-2.07,5.95-2.9,1.93-1.63,5-4.32,5.26-7A.25.25,0,0,0,67.42,59.7Z"/><path class="cls-3" d="M64.42,54.26c-2.61.61-4.41,2.6-6.34,4.33-1.76,1.58-4.73,2.54-5.71,4.79-.12.26.28.47.44.23,1.27-1.94,3.95-3,5.69-4.53a22.9,22.9,0,0,1,6-4.43C64.76,54.56,64.65,54.2,64.42,54.26Z"/><path class="cls-3" d="M44.53,64.69C43,67.33,40,68.32,39,71.42c-.6,1.85-.69,4.36,1.23,5.42.41.23.84-.38.42-.6-3.18-1.68-.67-6.57,1.16-8.17a13.18,13.18,0,0,0,3.06-3.13C45,64.7,44.67,64.45,44.53,64.69Z"/><path class="cls-3" d="M37.58,73.88a2.87,2.87,0,0,0,1.21,3.24c.32.17.53-.32.28-.53A2.48,2.48,0,0,1,37.94,74C38,73.78,37.65,73.64,37.58,73.88Z"/><path class="cls-3" d="M61,8C53.49,9.1,44.34,8,38.67,14c-2.17,2.3-3.38,5.31-4.78,8.1-3,6-6.79,8.61-13.32,10a.25.25,0,0,0,.08.49c7-.95,10.73-4.16,13.86-10.28,2.38-4.65,4.46-8.95,9.54-11.16,5.24-2.29,11.44-1.69,17-2.71A.23.23,0,0,0,61,8Z"/><path class="cls-3" d="M19.59,32.55C11.34,33.87,6.34,44.69,6.34,52.24a.25.25,0,0,0,.49,0c1-7.46,4.36-17.44,12.86-19.15A.29.29,0,0,0,19.59,32.55Z"/><path class="cls-3" d="M52.57,7.87a58.49,58.49,0,0,0-27.86,4.67C17.48,15.86,14.53,22.54,13,30c-.06.29.41.39.5.12,2.51-8.41,5.11-14.44,14-17.83a63.76,63.76,0,0,1,25-4A.25.25,0,0,0,52.57,7.87Z"/><path class="cls-3" d="M13.06,29.56C10.9,35.57,6,40,5.88,46.8c0,.24.38.37.44.1C7.24,43.26,8,40,10,36.74c1.4-2.32,3.13-4.32,3.51-7.07A.23.23,0,0,0,13.06,29.56Z"/><path class="cls-3" d="M42,9.66c-6.64.79-13.81,1.9-19.18,6.23s-5.93,10.74-8.76,16.58a.32.32,0,0,0,.36.43c5.41-1.28,11.11-2.72,15.09-6.88,4.77-5,6.1-12.18,12.56-15.67.38-.2.1-.81-.28-.61-10.1,5.33-10.64,21-24.37,21.76-1.73.1-1.67.76-1.74-1-.05-1.08,1-2.8,1.33-3.9,1.16-3.42,2.42-6.73,5.12-9.25,5.42-5.06,12.94-6.06,20-7.21C42.39,10.06,42.31,9.63,42,9.66Z"/><path class="cls-3" d="M35.88,13.6c-.2-3.83-7.63.12-8.91.94-4.22,2.7-9,8.54-9.69,13.69-.49,3.75,4.26,1.11,6,.14,5.67-3.23,9.36-8.62,12.45-14.18a.34.34,0,1,0-.6-.32,36.67,36.67,0,0,1-6.92,9.94A28.1,28.1,0,0,1,24,27.26c-1.68,1.13-6.28,4.2-5.72.07.47-3.41,3.68-7.53,6.08-9.85.69-.67,10.48-7.57,11-3.79C35.4,14,35.9,13.94,35.88,13.6Z"/><path class="cls-3" d="M33.61,14.91l.15-.36a.32.32,0,0,0,0-.3c-1.27-1.57-4.83,1.18-6,1.95a23.55,23.55,0,0,0-7.23,7.27c-.63,1-1.95,3.48.06,3.93s6.32-3.28,7.69-4.55a.25.25,0,0,0-.32-.38,31.14,31.14,0,0,1-5.31,3.59c-.39.2-.78.39-1.17.56-1.13-1-1.28-1.94-.45-2.8a9.17,9.17,0,0,1,1.53-2,25.83,25.83,0,0,1,4.2-4A23.63,23.63,0,0,1,29.43,16c.22-.13,3.78-1.73,3.66-1.25A.28.28,0,0,0,33.61,14.91Z"/><path class="cls-3" d="M28.68,22.23c.24,0,.27-.36,0-.36S28.45,22.23,28.68,22.23Z"/><path class="cls-3" d="M31.41,19.34A12.63,12.63,0,0,0,33.72,15c.11-.38-.46-.59-.57-.21a12.87,12.87,0,0,1-2.09,4.31C30.9,19.32,31.24,19.55,31.41,19.34Z"/><path class="cls-3" d="M31.27,15.75a15.11,15.11,0,0,0-5.75,3.77c-.6.64-2.8,2.75-1.94,3.85,1,1.31,3.31-.45,4.11-1.1A15,15,0,0,0,32,16.92a.23.23,0,0,0-.41-.21,21.23,21.23,0,0,1-2.71,3.74,13.9,13.9,0,0,1-1.56,1.4,5.58,5.58,0,0,1-1.22.85l-.48.24c-1.1-.34-1.43-.76-1-1.27.4-1.19,2-2.43,2.9-3.2a14.22,14.22,0,0,1,4-2.26C31.79,16.09,31.57,15.64,31.27,15.75Z"/><path class="cls-3" d="M32.67,26.27c-3.33,8.47-13.75,7-19.37,12.88C8.71,43.94,7.71,52,8.61,58.29c.06.44.73.32.67-.12A27,27,0,0,1,11,44.09c2-4.87,5.8-7,10.49-8.78s9.89-3.57,11.62-8.88A.24.24,0,0,0,32.67,26.27Z"/><path class="cls-3" d="M58.34,10.21c-7.7.77-16,2.2-20.5,9.16-.14.21.18.43.31.22,4.58-6.89,12.69-8,20.26-8.94C58.7,10.61,58.62,10.18,58.34,10.21Z"/><path class="cls-3" d="M35.75,22.16a2.36,2.36,0,0,1-.5.87.24.24,0,0,0,.3.36,1.33,1.33,0,0,0,.74-1.18C36.32,21.86,35.83,21.84,35.75,22.16Z"/><path class="cls-3" d="M57,5.39c-4.32-1.72-10.05-.66-14.54-.12C36.83,6,31.18,7.12,26.09,9.67a.2.2,0,0,0,.17.37,48.51,48.51,0,0,1,14.6-4c5.08-.56,11-1.55,16-.16A.27.27,0,0,0,57,5.39Z"/><path class="cls-3" d="M23.75,11A7.12,7.12,0,0,0,21,13.05c-.13.18.09.5.31.36.93-.6,1.75-1.33,2.72-1.87C24.36,11.34,24.11,10.8,23.75,11Z"/><path class="cls-3" d="M19.53,14.4c-2.79,2.4-5.49,5-7,8.38-.89,1.94-1.29,4-2,6a31,31,0,0,1-1.78,3.94c-.31.64-.65,1.27-1,1.88q-1.17,2.61-5,1.36c0-.28-.42-.41-.49-.12-.86,3.55,3.27,2.88,4.91,1,1.93-2.25,3.34-5.79,4.25-8.56,1.85-5.61,4-9.48,8.51-13.47C20.16,14.59,19.8,14.17,19.53,14.4Z"/><path class="cls-3" d="M9.85,33.88C9,35.32,8.19,36.8,7.27,38.2S3.55,41.57,2.48,39c-.11-.27-.57-.13-.49.16a2.49,2.49,0,0,0,3.55,1.3c2.24-1.1,3.44-4.33,4.61-6.35C10.27,33.89,10,33.68,9.85,33.88Z"/><path class="cls-3" d="M6.24,40.94c-.34.85-.68,1.7-1,2.55-.15.39-.28,1.13-.88.94-.21-.06-.49-1.28-.56-1.47-.75-2.07-1-4.24-1.61-6.33-.07-.23-.47-.28-.47,0a18.26,18.26,0,0,0,1.08,5,13.47,13.47,0,0,0,1.44,3.89.31.31,0,0,0,.27.1c.52-.1.57-.33.79-.81.55-1.19.93-2.49,1.37-3.72A.21.21,0,0,0,6.24,40.94Z"/><path class="cls-3" d="M5.53,51c-.86-3.16-3.16-6.81-2.6-10.12,0-.22-.33-.31-.38-.09A7.14,7.14,0,0,0,2.89,45c.68,2,1.37,4.14,2.23,6.11C5.22,51.36,5.6,51.25,5.53,51Z"/><path class="cls-3" d="M7.83,57.2C6.25,54.68,5.05,52,3.63,49.39a.23.23,0,0,0-.41.2A36.53,36.53,0,0,0,7.4,57.47C7.56,57.71,8,57.44,7.83,57.2Z"/><path class="cls-3" d="M15.83,16.37c3.2-3.25,6.39-6.19,10.52-8.25C29.7,6.44,33.91,6.2,37,4.19c3.71-2.37-.7-3.24-3.05-3-.33,0-.24.53.08.5,2.27,1.72,2.43,2.7.48,2.92q-.87.3-1.77.54c-.68.2-1.36.38-2,.6a34,34,0,0,0-6.48,2.92,30.5,30.5,0,0,0-8.77,7.37C15.33,16.26,15.65,16.56,15.83,16.37Z"/><path class="cls-3" d="M31.79,1.86a2.62,2.62,0,0,1,1.2.25c.64.45-.09.93-.5,1.14-.76.37-1.55.7-2.29,1.12a.21.21,0,0,0,.18.38c.8-.27,1.59-.63,2.38-1a1.72,1.72,0,0,0,1.15-.95,1.15,1.15,0,0,0-.39-1.18,2,2,0,0,0-1.75-.3A.25.25,0,0,0,31.79,1.86Z"/><path class="cls-3" d="M24.44,6.8a25.4,25.4,0,0,0-6.14,3.5c-.19.16,0,.5.24.37,2-1.17,3.92-2.53,6.07-3.53A.19.19,0,0,0,24.44,6.8Z"/><path class="cls-3" d="M28.83,4.62a11.47,11.47,0,0,0-2.39,1c-.22.14-.15.53.16.47a11.94,11.94,0,0,0,2.49-1C29.44,5,29.19,4.49,28.83,4.62Z"/><path class="cls-3" d="M13.71,16.73c-1,1.1-1.69,2.37-2.6,3.5-.53.65-1.08,1.29-1.67,1.89-.26.27-.53.54-.81.79q-1.26,1.48-2.76-.45c.1-.39-.47-.62-.61-.22C4.59,24.19,7,24.77,8.34,24a13.52,13.52,0,0,0,2.95-2.9A16.73,16.73,0,0,0,14.15,17C14.28,16.68,13.88,16.53,13.71,16.73Z"/><path class="cls-3" d="M17,11.17a20.81,20.81,0,0,0-4.15,4c-.51.7-1,1.43-1.5,2.12-.17.23-3.72,4-3.8,2.1,0-.39-.61-.47-.62-.06,0,2.29,2.74.65,3.57-.14A21.11,21.11,0,0,0,13,16a23.65,23.65,0,0,1,4.33-4.44A.25.25,0,0,0,17,11.17Z"/><path class="cls-3" d="M26.37,4.45A36.21,36.21,0,0,0,10.78,15.06c-.24.29.23.61.47.34A38.41,38.41,0,0,1,26.6,4.94C26.92,4.81,26.69,4.34,26.37,4.45Z"/><path class="cls-3" d="M12.29,20.34c-1.16,2-5.46,9.85-5.72,10.3q-.92,1.84-3.34,0c0-.4-.62-.48-.63-.06,0,2.14,2.1,2.94,3.64,1.53,1.34-1.23,2.1-3.35,2.94-4.93,1.17-2.21,2.35-4.41,3.49-6.64C12.77,20.32,12.41,20.13,12.29,20.34Z"/><path class="cls-3" d="M64.93,11.08A41,41,0,0,0,46.46,16a.23.23,0,0,0,.2.41A48,48,0,0,1,65,11.58C65.23,11.56,65.21,11.07,64.93,11.08Z"/><path class="cls-3" d="M43.65,18.73c-2.53,3.17-3.75,6.71-5,10.51-2.21,6.45-6.39,8.42-12.83,8.87-5.3.37-11.93.92-13.07,7.24,0,.24.35.34.41.1,2.62-10,15.23-4.3,21.77-8.87a10.76,10.76,0,0,0,3.69-5.15C40.29,27.08,41.41,23,44.08,19A.26.26,0,0,0,43.65,18.73Z"/><path class="cls-3" d="M41.35,19.74c-3.16,1.72-4.76,4.7-6.59,7.68-3.32,5.41-7.41,7.22-13.35,8.84-.34.09-.26.62.1.55,4.07-.81,8.25-2.05,11.11-5.23,3.33-3.7,4.65-8.62,9-11.44C41.84,20,41.59,19.61,41.35,19.74Z"/><path class="cls-3" d="M41.59,20c-2.53,2.67-3.35,6.09-4.86,9.36s-3.58,5.71-7.19,6.34c-2.56.44-5.22.34-7.8.66-.3,0-.29.53,0,.53,4.36,0,9.8.31,13-3.2,3.47-3.8,4-9.37,7.15-13.4C42.06,20.11,41.76,19.82,41.59,20Z"/><path class="cls-3" d="M47.64,13.62a16.94,16.94,0,0,0-3.93,3.23,10.71,10.71,0,0,0-2.77,3.85c-.08.24.22.5.43.3,1.08-1.07,1.79-2.51,2.81-3.66A35.71,35.71,0,0,1,47.87,14C48.05,13.82,47.86,13.5,47.64,13.62Z"/><path class="cls-3" d="M23,36.08a7.25,7.25,0,0,0-6.4,2.8c-.16.21.13.45.33.3a12.15,12.15,0,0,1,2.82-1.82A15.23,15.23,0,0,1,23,36.67.3.3,0,0,0,23,36.08Z"/><path class="cls-3" d="M36.75,26.87a18,18,0,0,1-2.63,4.2,20.24,20.24,0,0,1-3.66,3,.36.36,0,0,0,.29.62C34.2,34,36,29.93,37.16,27,37.26,26.75,36.86,26.62,36.75,26.87Z"/><path class="cls-3" d="M20.62,41.2C12.74,46,8.51,60.12,13.83,68.07c.32.47,1,0,.81-.52-3.79-8.36-1.33-20.59,6.22-26C21.07,41.43,20.84,41.06,20.62,41.2Z"/><path class="cls-3" d="M12.31,47.1A35.82,35.82,0,0,0,10,56.57c-.33,2.57-.94,5.69.34,8.06a.4.4,0,0,0,.72-.35c-1.72-5.41.34-11.78,1.7-17A.22.22,0,0,0,12.31,47.1Z"/><path class="cls-3" d="M63.73,12.26c-6.32,1-14.92,1.41-18.81,7.35-.17.26.2.5.4.27,4.68-5.44,11.91-5.77,18.5-7.1A.26.26,0,0,0,63.73,12.26Z"/><path class="cls-3" d="M56.06,15.08a15.39,15.39,0,0,0-9.15,4.43.24.24,0,0,0,.32.37,19.6,19.6,0,0,1,8.91-4.35A.23.23,0,0,0,56.06,15.08Z"/><path class="cls-3" d="M44.25,21.19a21.91,21.91,0,0,0-1.79,4.61.21.21,0,0,0,.4.15c.63-1.52,1.2-3.08,1.82-4.6C44.8,21.06,44.38,20.93,44.25,21.19Z"/><path class="cls-3" d="M48.79,37.22c-2.41,3.45-4.91,6.63-8.71,8.6C37.55,47.13,34.9,48,33,50.18c-.21.24.18.6.41.38,2.63-2.54,6.11-3.35,9-5.38s4.79-4.87,6.66-7.74C49.23,37.24,48.93,37,48.79,37.22Z"/><path class="cls-3" d="M43.54,42.07A64.24,64.24,0,0,1,37.7,45.6a.22.22,0,0,0,.19.39,22.66,22.66,0,0,0,5.94-3.58C44.06,42.23,43.77,41.9,43.54,42.07Z"/><path class="cls-3" d="M27.55,58.65c-1.75,3.84-.31,8.27-1.24,12.31-.07.3.34.47.45.17,1.56-3.94-.18-8.29,1.23-12.31A.24.24,0,0,0,27.55,58.65Z"/><path class="cls-3" d="M25.61,66.07c-.05.33-.05.67-.09,1s-.13.65-.16,1,.3.35.41.15A3,3,0,0,0,26,66.06C26,65.84,25.64,65.82,25.61,66.07Z"/><path class="cls-3" d="M67.32,24a15.49,15.49,0,0,0-5.78,1.92c-.25.16,0,.47.26.4a56.62,56.62,0,0,1,5.6-1.88A.22.22,0,0,0,67.32,24Z"/><path class="cls-3" d="M64.51,18.68c-4.26.7-8.92,2.82-11.79,6.12-.19.22.16.5.37.33,3.67-2.81,6.95-4.86,11.51-5.94A.26.26,0,0,0,64.51,18.68Z"/><path class="cls-3" d="M51.61,26a15.81,15.81,0,0,0-1.39,1.45c-.17.21.13.45.32.3A13.77,13.77,0,0,0,52,26.4C52.2,26.16,51.86,25.75,51.61,26Z"/><path class="cls-3" d="M59,18.18a27.18,27.18,0,0,0-7,5,.24.24,0,0,0,.32.37c2.36-1.54,4.51-3.38,6.93-4.87C59.51,18.47,59.31,18,59,18.18Z"/><path class="cls-3" d="M44.83,33a54.6,54.6,0,0,1-7.68,7.37c-.19.16,0,.51.24.38a27.26,27.26,0,0,0,7.87-7.45C45.47,33,45,32.7,44.83,33Z"/><path class="cls-3" d="M39.8,36.74a15.35,15.35,0,0,0-1.18,1.1c-.17.2.14.44.33.3.41-.31.77-.69,1.15-1C40.32,36.89,40,36.54,39.8,36.74Z"/><path class="cls-3" d="M31.64,44.16a16.24,16.24,0,0,0-8,6.31.22.22,0,0,0,.36.26,21.54,21.54,0,0,1,7.86-6.21C32,44.42,31.87,44.07,31.64,44.16Z"/><path class="cls-3" d="M26.24,46.15A4.66,4.66,0,0,0,24.32,48c-.1.21.21.41.37.26a12.12,12.12,0,0,1,1.78-1.58C26.77,46.46,26.54,46,26.24,46.15Z"/><path class="cls-3" d="M21,57.32c-1.9,3.35-2.09,7.4-1.52,11.15,0,.27.5.27.49,0-.13-3.83-.35-7.38,1.48-10.9C21.61,57.3,21.17,57.07,21,57.32Z"/><path class="cls-3" d="M18.23,63.11a6.24,6.24,0,0,0-.08,3.58.21.21,0,0,0,.41-.07,8.74,8.74,0,0,1,.15-3.34C18.78,63,18.33,62.79,18.23,63.11Z"/><path class="cls-3" d="M28.63,38.85a13.79,13.79,0,0,0-6.06,1.64c-.21.13-.14.56.15.47a38.8,38.8,0,0,1,6-1.62C29,39.3,28.94,38.84,28.63,38.85Z"/><path class="cls-3" d="M20.78,39.81c-3.07.94-6.07,3.47-6.77,6.74-.07.33.41.38.53.12,1.41-3,3.21-5.24,6.37-6.44C21.14,40.14,21,39.74,20.78,39.81Z"/><path class="cls-3" d="M19.55,44c-3.78,3.13-5.3,8.08-5.39,12.86a.26.26,0,0,0,.51,0c.69-4.75,1.34-9.23,5.17-12.56A.23.23,0,0,0,19.55,44Z"/></g></g></svg>