<svg xmlns="http://www.w3.org/2000/svg" viewBox="0 0 55.64 77.24"><defs><style>.cls-1{fill:#50778d;}.cls-2{fill:#d59b44;}.cls-3{fill:#af7838;}.cls-4{fill:#857778;}.cls-5{fill:#260029;}</style></defs><g id="Layer_2" data-name="Layer 2"><g id="_"><path class="cls-1" d="M24.07,72.37a2.85,2.85,0,0,1,2.51-3.64,5.22,5.22,0,0,1,2.51-3.37,5,5,0,0,1,6.6-5.9c1.27-1.84,4.62-2.4,6.74-1.72,2.31.74,3,2.64,4.09,4.79a6.2,6.2,0,0,1,3.58.87,2.77,2.77,0,0,1,1.5,2.5c1.48-.19,3.45.13,3.71,1.6a4.83,4.83,0,0,1-1.21,3.74c-1.47,2.8-4.29,4.12-7.21,2.9a1.82,1.82,0,0,0-1-.24,1.61,1.61,0,0,0-.67.46A9.46,9.46,0,0,1,42,76.63a4.18,4.18,0,0,1-3.73-.2c-.84-.53-1.5-1.49-2.49-1.57a3.84,3.84,0,0,0-1.48.33c-2.3.73-3.79-.14-6-.59C26.66,74.24,24.77,74.54,24.07,72.37Z"/><path class="cls-2" d="M8.54,56.08a14.67,14.67,0,0,1-3.1-4.62c-.32-.93-.44-1.91-.72-2.85A36.29,36.29,0,0,0,2.46,43.8a22.5,22.5,0,0,1-1.5-13,42.41,42.41,0,0,1,4.48-12.5,33.88,33.88,0,0,1,5.1-7.61A37.58,37.58,0,0,1,17,5.44c2.59-1.77,7.31-2.2,10.28-3.2C34,0,38.72,1,45.6,2.9c2.23.63,5.17.62,7.18,1.78.95.54,1.95,1.64,1.4,2.58a2.34,2.34,0,0,1-1.32.84c-5.62,2-11.23,4.74-14.79,9.5a37.1,37.1,0,0,0-3.29,5.66l-2.24,4.43c-1.6,3.15-3.21,6.38-3.63,9.88-.46,3.81.54,7.63,1.55,11.33s2.1,7.44,4.25,10.6c-.56-.83-3.3.42-3.82.8-1.38,1-1.45,2.23-1.86,3.74a5,5,0,0,1-5.63,3.65C17.47,66.74,12.24,60.29,8.54,56.08Z"/><path class="cls-3" d="M15.33,39.43a3.94,3.94,0,0,1,4.55,1,2.42,2.42,0,0,1,.86,2.21c-.26,1-1.48,1.47-2.35,2.12-1.48,1.12-2.66,2-3.89.2S13.42,40.51,15.33,39.43Z"/><path class="cls-3" d="M23.7,49.87a2.4,2.4,0,0,0-.86,1.74,5.78,5.78,0,0,0,2.43,5.31,3,3,0,0,0,1.93.61,1.53,1.53,0,0,0,1.41-1.28,2.13,2.13,0,0,0-.14-.86C28.05,54.11,25.62,48.54,23.7,49.87Z"/><path class="cls-3" d="M15.58,58.74a1.88,1.88,0,0,0,.9.32.76.76,0,0,0,.76-.5,1,1,0,0,0-.11-.66A7.55,7.55,0,0,0,15.06,55c-.72-.62-1.79-1.28-2.72-.92C12.34,56,14.08,57.84,15.58,58.74Z"/><path class="cls-3" d="M6.38,45a20,20,0,0,0-1-6.7,1.31,1.31,0,0,0-.32-.59A.89.89,0,0,0,4,37.87,2.09,2.09,0,0,0,3.46,39C3.22,40.48,4.06,45.68,6.38,45Z"/><path class="cls-3" d="M26.31,29.13c0,5.41-7.41,3.13-6.85-1a4,4,0,0,1,4-3.41C25.65,25,26.3,27.25,26.31,29.13Z"/><path class="cls-3" d="M10.11,29.45c.17.38.7.35,1.12.4A2.16,2.16,0,0,1,12.65,33a2.69,2.69,0,0,1-3.57.81,2,2,0,0,1-.73-.67c-.59-.93-.12-2.15.47-3.07.14-.21.51-.39.57-.15C9.78,29.52,9.64,29.19,10.11,29.45Z"/><path class="cls-3" d="M12.57,17.39a7.75,7.75,0,0,0-1.31,3.68c-.08.91.13,2,1,2.36s1.7-.28,2.3-.91a10.54,10.54,0,0,0,2.79-5.73,2.15,2.15,0,0,0,0-1,1.59,1.59,0,0,0-1.79-.86,4,4,0,0,0-1.85,1c-1,.86-2,2-1.86,3.3Z"/><path class="cls-3" d="M29.16,13.58a3.53,3.53,0,0,0-.06,4.83,2.11,2.11,0,0,0,1,.63,2.16,2.16,0,0,0,1.32-.2A3.19,3.19,0,0,0,33.22,15a2.6,2.6,0,0,0-3.75-1.28Z"/><path class="cls-4" d="M44.89,7.21c-.34.53-1.11.49-1.74.39l-3.39-.55a2.5,2.5,0,0,1-1.44-.55c-.78-.77-.17-2.23.84-2.63a4.32,4.32,0,0,1,3.18.33A3.53,3.53,0,0,1,44,5.32a1.38,1.38,0,0,1-.16,1.85C44.1,7,44.67,7.43,44.89,7.21Z"/><path class="cls-5" d="M51.37,65.46c1.3-.49,2.53.48,3.12,1.58a2.88,2.88,0,0,1,.36,1.84c-.14.77-.75,1.17-1.22,1.74a.26.26,0,0,0,.26.4C56,70.65,56,68,55.1,66.52c-.75-1.25-2.62-2.71-4-1.42A.22.22,0,0,0,51.37,65.46Z"/><path class="cls-5" d="M51.85,66.26c.06-2.66-3.55-5.43-5.88-3.45a.23.23,0,0,0,.19.41c1.25-.18,2.31-.44,3.45.33a4.88,4.88,0,0,1,1.76,2.79C51.45,66.58,51.84,66.5,51.85,66.26Z"/><path class="cls-5" d="M46.36,63.08c1.94-7.57-13.81-8.3-10.6.36.16.42.77.18.73-.23-.18-1.54-.43-3.1.81-4.29a4.63,4.63,0,0,1,3.46-1.07A5.07,5.07,0,0,1,45.87,63C45.88,63.22,46.28,63.38,46.36,63.08Z"/><path class="cls-5" d="M47.29,64.83a3.49,3.49,0,0,0-3.8-2.12c-.24.06-.33.44-.05.52a14.12,14.12,0,0,1,1.94.49,3.7,3.7,0,0,1,1.52,1.36C47.06,65.31,47.39,65.06,47.29,64.83Z"/><path class="cls-5" d="M37.42,63.33a4.69,4.69,0,0,0-3.88,1c-.87.68-2,2-1.93,3.16,0,.27.37.28.52.11.7-.82.93-1.83,1.81-2.57a5.39,5.39,0,0,1,3.43-1.18A.27.27,0,0,0,37.42,63.33Z"/><path class="cls-5" d="M33.28,65a4.83,4.83,0,0,0-5.46.74,5,5,0,0,0-1.16,5.48c.17.5.93.15.75-.36-1.28-3.67,2.18-6.57,5.69-5.36A.27.27,0,0,0,33.28,65Z"/><path class="cls-5" d="M35.94,59.83c-3.81-2.69-8.43,1.17-7.26,5.49.14.54,1,.39.86-.16a4.47,4.47,0,0,1,1.3-4.55,4.21,4.21,0,0,1,4.87-.33C36,60.42,36.17,60,35.94,59.83Z"/><path class="cls-5" d="M52.88,70.17c.47,2.12-.86,3.35-2.86,3.71A6.36,6.36,0,0,1,45,72.45a.27.27,0,0,0-.4.34c2,3.74,11.1,2,8.94-2.81A.33.33,0,0,0,52.88,70.17Z"/><path class="cls-5" d="M45.88,73.18a6.5,6.5,0,0,1-5.08,3.24c-2.45.15-4-1.19-5.4-3.07-.27-.37-.84,0-.66.42,2.23,4.87,9.6,4.49,11.58-.36C46.42,73.15,46,72.94,45.88,73.18Z"/><path class="cls-5" d="M36,74.67c-3.14,1.28-6.23.89-8.29-2-.26-.36-.9,0-.67.43,1.8,3.06,6.32,4.22,9.24,2C36.47,74.91,36.21,74.56,36,74.67Z"/><path class="cls-5" d="M28.27,74.29a3.06,3.06,0,0,1-3.79-1.84,2.9,2.9,0,0,1,.05-2c.41-1,1.23-1.26,2-1.78a.34.34,0,0,0-.2-.63c-2.17.2-3.33,2.7-2.72,4.62a3.46,3.46,0,0,0,4.78,2.18A.27.27,0,0,0,28.27,74.29Z"/><path class="cls-5" d="M53.54,8.93c1.51-.46,2.27-1.82,1.16-3.14a6.33,6.33,0,0,0-2.18-1.53c-.7-.33-1.81-.89-2.59-.56a.29.29,0,0,0-.1.44,3.62,3.62,0,0,0,1.46.6,8.07,8.07,0,0,1,2,1A2.48,2.48,0,0,1,54.35,7c.15.69-.59,1.09-1.07,1.43C53,8.55,53.24,9,53.54,8.93Z"/><path class="cls-5" d="M26.1,68.31a34,34,0,0,1-7-2.74c-2-1.13-3.58-2.68-5.44-3.95a.29.29,0,0,0-.38.42A21.11,21.11,0,0,0,26,68.84.28.28,0,0,0,26.1,68.31Z"/><path class="cls-5" d="M53.74,8.29c-3.11,0-7.62,1.55-9.79,3.81a.36.36,0,0,0,.38.59c1.5-.57,2.84-1.57,4.32-2.22a25.35,25.35,0,0,1,5.11-1.56C54.1,8.84,54.11,8.29,53.74,8.29Z"/><path class="cls-5" d="M25.81,67.45a34.67,34.67,0,0,1-7.56-3.26c-.29-.15-.46.28-.25.46A16.31,16.31,0,0,0,25.7,68C26,68,26.1,67.52,25.81,67.45Z"/><path class="cls-5" d="M22.3,65c-.48-.22-1-.45-1.45-.66a5.15,5.15,0,0,0-1.36-.49.23.23,0,0,0-.15.42,5,5,0,0,0,1.3.62c.49.2,1,.38,1.49.56C22.43,65.6,22.57,65.17,22.3,65Z"/><path class="cls-5" d="M52.74,6.54a8.91,8.91,0,0,0-1,1.2A.18.18,0,0,0,52,8a10.45,10.45,0,0,0,1.09-1.21C53.25,6.57,52.91,6.34,52.74,6.54Z"/><path class="cls-5" d="M51.19,6.92a2.06,2.06,0,0,1-.76.87c-.16.12,0,.4.19.3a1.93,1.93,0,0,0,.93-1C51.65,6.82,51.29,6.69,51.19,6.92Z"/><path class="cls-5" d="M28.76,64.65a5.19,5.19,0,0,0-1.71-.82.22.22,0,0,0-.15.4,5.32,5.32,0,0,0,1.66.8C28.78,65.1,29,64.78,28.76,64.65Z"/><path class="cls-5" d="M28.15,65.72a8.68,8.68,0,0,0-2.32-.24.21.21,0,0,0-.1.41,8.36,8.36,0,0,0,2.29.36A.28.28,0,0,0,28.15,65.72Z"/><path class="cls-5" d="M41.87,75.48a9,9,0,0,1-2.7-.12A5.52,5.52,0,0,1,37,73.87c-.18-.16-.44.09-.34.29.93,1.81,3.49,2.39,5.32,1.77C42.17,75.86,42.1,75.48,41.87,75.48Z"/><path class="cls-5" d="M39.27,74.13a3.17,3.17,0,0,1-1-.12c-.19-.05-.39.22-.18.33a2.13,2.13,0,0,0,1.27.2C39.61,74.52,39.53,74.11,39.27,74.13Z"/><path class="cls-5" d="M35.41,74.43a4,4,0,0,1-4,.28c-.2-.09-.31.19-.17.32a3.57,3.57,0,0,0,4.45-.29A.2.2,0,0,0,35.41,74.43Z"/><path class="cls-5" d="M35.14,73.79a6.37,6.37,0,0,1-2.31.56.21.21,0,0,0,0,.41,3.79,3.79,0,0,0,2.56-.67C35.6,73.93,35.35,73.66,35.14,73.79Z"/><path class="cls-5" d="M34.46,73.11a4.92,4.92,0,0,1-1.47.34.2.2,0,0,0,0,.4,3.13,3.13,0,0,0,1.65-.31C34.93,73.39,34.73,73,34.46,73.11Z"/><path class="cls-5" d="M29.82,73.22c-.61-.43-.72-1.12-1.2-1.63-.12-.13-.41-.09-.4.13a2.4,2.4,0,0,0,1.3,1.93C29.81,73.81,30.11,73.42,29.82,73.22Z"/><path class="cls-5" d="M51.55,72.22a5.57,5.57,0,0,1-4.92.77c-.19-.06-.37.22-.17.33,1.69,1,3.79.16,5.28-.81C51.9,72.4,51.72,72.11,51.55,72.22Z"/><path class="cls-5" d="M49.08,72.12a4.12,4.12,0,0,1-1.88.15.19.19,0,0,0-.08.37,3,3,0,0,0,2.15-.12C49.54,72.42,49.35,72,49.08,72.12Z"/><path class="cls-5" d="M48.57,66.78c0-.35-.44-.62-.69-.81a3.87,3.87,0,0,0-1.38-.81c-.2,0-.31.23-.19.37a4.93,4.93,0,0,0,1,.75c.2.14.7.4.8.63S48.6,67,48.57,66.78Z"/><path class="cls-5" d="M47.61,66.92a7.89,7.89,0,0,0-.72-.6.2.2,0,0,0-.27.29c.22.24.49.45.73.67S47.82,67.1,47.61,66.92Z"/><path class="cls-5" d="M50.28,63.61c-.82-.6-2.21-1.09-3.16-.51-.19.12-.2.49.08.48a10,10,0,0,1,1.34,0,4.55,4.55,0,0,1,1.53.48C50.31,64.14,50.49,63.76,50.28,63.61Z"/><path class="cls-5" d="M49.14,63.88a7.08,7.08,0,0,0-1.44-.57c-.21,0-.31.28-.14.39a6.91,6.91,0,0,0,1.42.61C49.26,64.42,49.4,64,49.14,63.88Z"/><path class="cls-5" d="M39.74,58.3a3.35,3.35,0,0,0-2.4,1,2.77,2.77,0,0,0-.66,2.54.21.21,0,0,0,.41,0,4.37,4.37,0,0,1,.72-2.15,3.09,3.09,0,0,1,2-1C40.08,58.67,40,58.29,39.74,58.3Z"/><path class="cls-5" d="M39,59.89a2.53,2.53,0,0,0-1.84,1.87c0,.22.28.32.4.15a8.87,8.87,0,0,1,.62-1,2.41,2.41,0,0,1,1-.62C39.33,60.23,39.2,59.81,39,59.89Z"/><path class="cls-5" d="M36.05,60.59a2.35,2.35,0,0,0-3.18.25.22.22,0,0,0,.27.32,4.16,4.16,0,0,1,1.32-.51,2.6,2.6,0,0,1,1.39.33C36.08,61.09,36.25,60.73,36.05,60.59Z"/><path class="cls-5" d="M35.66,61.51a1.64,1.64,0,0,0-1.28-.18.21.21,0,0,0,0,.42c.33,0,.72-.08,1,.11A.21.21,0,0,0,35.66,61.51Z"/><path class="cls-5" d="M52.93,68.3a2.66,2.66,0,0,1-.31,1.49c-.09.16.16.3.28.2a1.92,1.92,0,0,0,.43-1.76C53.3,68,52.91,68.05,52.93,68.3Z"/><path class="cls-5" d="M34.21,66.53a2.57,2.57,0,0,0-1,3.39c.09.19.42.1.36-.11a2.62,2.62,0,0,1,.82-3C34.63,66.65,34.4,66.4,34.21,66.53Z"/><path class="cls-5" d="M34.69,67.84a3.91,3.91,0,0,0-.6,1.21c-.05.19.22.37.34.17a8.88,8.88,0,0,1,.6-1.14C35.19,67.87,34.85,67.63,34.69,67.84Z"/><path class="cls-5" d="M39.62,64.77a3.85,3.85,0,0,0-3.52-.21c-.16.1-.16.41.08.41.51,0,1-.15,1.53-.15a4.42,4.42,0,0,1,1.76.35C39.74,65.28,39.86,64.89,39.62,64.77Z"/><path class="cls-5" d="M38.05,65.27a2.57,2.57,0,0,0-1,.11.22.22,0,0,0,0,.41,2.41,2.41,0,0,0,1,0C38.35,65.74,38.34,65.26,38.05,65.27Z"/><path class="cls-5" d="M14.21,62.21c-3.28-4.05-7.75-8.07-9.82-12.92A.19.19,0,0,0,4,49.4c.55,2.46,2.34,4.44,3.84,6.4a43.1,43.1,0,0,0,6,6.8C14.09,62.8,14.39,62.44,14.21,62.21Z"/><path class="cls-5" d="M4.57,49.56c1.14-2.59-1.46-4.85-2.7-6.79a.25.25,0,0,0-.47.08c-.08,1,.66,1.55,1.21,2.28A6.78,6.78,0,0,1,4,49.44.29.29,0,0,0,4.57,49.56Z"/><path class="cls-5" d="M2.15,43.15a35.63,35.63,0,0,1,.93-19.76.31.31,0,0,0-.58-.22A25.66,25.66,0,0,0,1.67,43.3.25.25,0,0,0,2.15,43.15Z"/><path class="cls-5" d="M50.79,4C44.63,1.26,36.7-1.26,30,.69a.27.27,0,0,0,.09.54C37.6.6,43.47,2.51,50.6,4.55A.28.28,0,0,0,50.79,4Z"/><path class="cls-5" d="M23.81,2.39c-1.56-.57-3.56.91-4.9,1.66C17.28,5,15.31,6,14.15,7.46c-.16.21.1.48.32.38,3.18-1.4,5.73-4.32,9.3-5A.24.24,0,0,0,23.81,2.39Z"/><path class="cls-5" d="M14.26,7.19c-1,1.25-2.45,1.84-3.64,2.9a13.81,13.81,0,0,0-3.09,4c-.13.28.25.5.47.33,1.52-1.21,2.29-3.11,3.91-4.24C13,9.42,14.3,8.76,14.75,7.45A.28.28,0,0,0,14.26,7.19Z"/><path class="cls-5" d="M44.21,11.84a24.22,24.22,0,0,0-2.8,2.56,17.41,17.41,0,0,1-1.32,1.26,14.22,14.22,0,0,1-2.2,1.19,4.36,4.36,0,0,0-2,3.82c0,.35.5.53.63.15a8.8,8.8,0,0,1,1-2.65c.78-1,2-1,3-1.64a18.41,18.41,0,0,0,4.16-4.33C44.8,11.94,44.46,11.66,44.21,11.84Z"/><path class="cls-5" d="M36.14,20.7c-3.07,4-4.22,8.77-6.92,12.88-1.89,2.88-1.14,4.9-.15,8.25.13.43.78.34.7-.12-.39-2.28-1.37-4.68-.32-7,.44-1,1.29-1.86,1.76-2.86C33,28.17,34.57,24.56,36.58,21A.27.27,0,0,0,36.14,20.7Z"/><path class="cls-5" d="M34.89,59.35c-.83-2.66-2.29-5.07-3.27-7.67a31.8,31.8,0,0,1-1.84-10.21c0-.34-.54-.28-.58,0-.9,5.92,1.93,13.26,5.31,18C34.63,59.7,35,59.55,34.89,59.35Z"/><path class="cls-5" d="M28.71,44.84a16.08,16.08,0,0,0,.13-3c-.09-1-.79-1.62-1-2.55,0-.18-.36-.2-.35,0a10.74,10.74,0,0,0,.64,2.26,17.42,17.42,0,0,1,0,3.23C28.16,45.13,28.67,45.2,28.71,44.84Z"/><path class="cls-5" d="M43,11.52a9.56,9.56,0,0,1-3.14,2.62c-.79.35-1.77.64-2.21,1.45-.09.18.07.46.28.34,1-.59,2.07-1,3-1.65a8.71,8.71,0,0,0,2.37-2.54C43.51,11.53,43.21,11.33,43,11.52Z"/><path class="cls-5" d="M12.69,59.53c-1.65-1.77-3.18-3.69-4.9-5.39a.18.18,0,0,0-.27.23,35.72,35.72,0,0,0,4.86,5.42C12.56,60,12.87,59.72,12.69,59.53Z"/><path class="cls-5" d="M10.74,56.43c-.45-.36-.77-.81-1.18-1.2-.15-.14-.42,0-.32.21a4.21,4.21,0,0,0,1.24,1.35C10.71,57,11,56.61,10.74,56.43Z"/><path class="cls-5" d="M6.94,52.62a11,11,0,0,1-1.56-2.76c-.11-.29-.57-.08-.45.22a10.54,10.54,0,0,0,1.7,2.8A.2.2,0,0,0,6.94,52.62Z"/><path class="cls-5" d="M2.84,28.19A27.58,27.58,0,0,0,4,23.93a.19.19,0,0,0-.36-.08A27.39,27.39,0,0,0,2.4,28C2.32,28.32,2.75,28.49,2.84,28.19Z"/><path class="cls-5" d="M31.22,27.74a10.51,10.51,0,0,1-1.95,4.1c-.76.89-1.54,1.64-1.51,2.88,0,.23.35.36.43.1.43-1.46,1.63-2.32,2.37-3.59a10.66,10.66,0,0,0,1.08-3.39C31.69,27.6,31.29,27.51,31.22,27.74Z"/><path class="cls-5" d="M30,29.05c-.22.63-.54,1.22-.76,1.84a.2.2,0,0,0,.35.18,7.25,7.25,0,0,0,.78-1.88C30.45,29,30.09,28.81,30,29.05Z"/><path class="cls-5" d="M8,13.62c-2.44,2.59-5.13,6.28-5.52,9.93a.27.27,0,0,0,.51.12c.88-1.74,1.53-3.56,2.51-5.25s1.89-3,2.79-4.54C8.35,13.7,8.12,13.44,8,13.62Z"/><path class="cls-5" d="M15.28,8.73a20.38,20.38,0,0,0-4.82,4.16c-.14.16.13.4.29.26,1.55-1.38,3.17-2.72,4.78-4C15.73,9,15.51,8.59,15.28,8.73Z"/><path class="cls-5" d="M9.39,14.15a8,8,0,0,0-.88,1.2c-.1.17.11.41.28.25a9.23,9.23,0,0,0,1-1.17C10,14.17,9.59,13.91,9.39,14.15Z"/><path class="cls-5" d="M17.89,6.9a2.61,2.61,0,0,0-.91.74.21.21,0,0,0,.27.31,2.47,2.47,0,0,0,.92-.61C18.38,7.15,18.16,6.73,17.89,6.9Z"/><path class="cls-5" d="M17.26,15.72c-.78,2-1.06,3.8-2.31,5.58a5.21,5.21,0,0,1-.9,1.13c-.9.74-2.21.59-2.44-.63s.9-2.32,1.38-3.4c.14-.32-.28-.56-.53-.37a4.39,4.39,0,0,0-1.72,4.13,2.44,2.44,0,0,0,2.35,1.92c1.45-.13,2.53-2.06,3.13-3.15a9.22,9.22,0,0,0,1.45-5.18C17.65,15.53,17.33,15.53,17.26,15.72Z"/><path class="cls-5" d="M17.43,16c.07-1-1-1.57-1.89-1.49a3,3,0,0,0-2.43,2.21.28.28,0,0,0,.4.27c.61-.36.91-1,1.52-1.38a1.32,1.32,0,0,1,1.93.47A.25.25,0,0,0,17.43,16Z"/><path class="cls-5" d="M18.17,18.52a16.86,16.86,0,0,1-1.47,3.2c-.55.92-1.26,1.71-1.84,2.6a.2.2,0,0,0,.3.27,12.85,12.85,0,0,0,3.4-5.93C18.63,18.41,18.26,18.27,18.17,18.52Z"/><path class="cls-5" d="M16.85,39.22c1.41.28,3.37,1.27,3.25,3-.06,1-.72,1.07-1.42,1.53a15.47,15.47,0,0,0-1.17,1.12c-1.43,1.17-3.31-.17-3.49-1.77a4.3,4.3,0,0,1,.8-2.6c.14-.25.27-.94.54-1s.32-.44.05-.52c-.77-.24-.81.28-1.09.87-.52,1.11-1.15,2-1.07,3.28a3.12,3.12,0,0,0,3.73,3c1.09-.28,1.71-1.38,2.67-1.91a1.87,1.87,0,0,0,1.22-2,3.89,3.89,0,0,0-4-3.55C16.49,38.7,16.56,39.16,16.85,39.22Z"/><path class="cls-5" d="M44.25,5.31c-1.5-1.16-5.22-2.91-6.31-.2s4.67,2.41,6,2.2a.33.33,0,0,0-.12-.65,9.27,9.27,0,0,1-2.68.13c-.84-.09-3.26-.54-2.08-1.88s3.74.09,5,.78C44.24,5.84,44.5,5.49,44.25,5.31Z"/><path class="cls-5" d="M32.67,15.15a2.29,2.29,0,0,1-2.87,3,2.18,2.18,0,0,1-1.45-1.81A2,2,0,0,1,30,14c.21,0,.38-.3.16-.44-1.06-.64-2.11.7-2.39,1.62a2.87,2.87,0,1,0,5.4-.22C33.1,14.68,32.58,14.84,32.67,15.15Z"/><path class="cls-5" d="M32.14,13.88a3,3,0,0,0-1.2-.37.23.23,0,0,0-.16.42,3.21,3.21,0,0,0,1.25.43C32.32,14.41,32.37,14,32.14,13.88Z"/><path class="cls-5" d="M23.24,24.63a4.22,4.22,0,0,0-3.52,5.29c.71,2.39,3.85,3.69,5.82,1.88.28-.25,0-.78-.37-.57-1.82,1.09-4.12.68-4.77-1.58a3.8,3.8,0,0,1,2.92-4.57C23.6,25,23.54,24.57,23.24,24.63Z"/><path class="cls-5" d="M26.47,28.62A3.26,3.26,0,0,0,26,26c-.4-.63-1.32-1.59-2.16-1.41a.25.25,0,0,0-.1.45,5.87,5.87,0,0,0,.86.46,3,3,0,0,1,.8.76A3.09,3.09,0,0,1,26,28.5C25.91,28.8,26.4,28.93,26.47,28.62Z"/><path class="cls-5" d="M11.56,30.43c1.7.34,1.25,2.46,0,3a2.35,2.35,0,0,1-3-1c-.15-.24-.51,0-.47.23.3,2,3.22,2,4.45,1s.94-3.49-.92-3.69C11.29,29.92,11.26,30.37,11.56,30.43Z"/><path class="cls-5" d="M9.87,29.87c-.63-.16-1.46.24-1.37,1,0,.25.34.22.43,0,.18-.35.39-.62.83-.55C10,30.39,10.13,29.94,9.87,29.87Z"/><path class="cls-5" d="M25.24,50.33a30.87,30.87,0,0,0,1.7,3l.74,1.21c.52.86.73.85.26,1.82-.16.94-.71,1.12-1.64.54l-.73-.42a6.07,6.07,0,0,1-1.18-1.14,8.44,8.44,0,0,1-1.23-2.63c-.11-.33-.53-.12-.52.16.11,2.22,2.93,6,5.52,4.82a1.68,1.68,0,0,0,.8-2.4,28.11,28.11,0,0,0-3.31-5.18C25.48,49.84,25.12,50.08,25.24,50.33Z"/><path class="cls-5" d="M24.16,49.55c-1.19.52-2.25,2.36-1.37,3.57a.25.25,0,0,0,.43-.13,4.46,4.46,0,0,1,0-1.59A2.75,2.75,0,0,1,24.36,50,.23.23,0,0,0,24.16,49.55Z"/><path class="cls-5" d="M13.5,54.55a13.07,13.07,0,0,1,2.22,1.77,5.06,5.06,0,0,1,.86,1c.33.32.32.7,0,1.15a1.11,1.11,0,0,1-.78-.2c-1.42-.72-3.36-2.68-3-4.36.05-.24-.27-.34-.43-.22-1.09.84.13,2.43.76,3.17s2.05,2.39,3.34,2.34a1.18,1.18,0,0,0,1-1.85,8.77,8.77,0,0,0-3.72-3.26C13.47,53.94,13.24,54.38,13.5,54.55Z"/><path class="cls-5" d="M5.05,38.91a25,25,0,0,0,.83,4.37c0,.21.28.63.24.84-.11.71-.51.42-.79.06a9.16,9.16,0,0,1-.77-2c-.1-.21-.47-.16-.47.08,0,.91,1,4.48,2.41,3.28.66-.56.28-1.43.08-2.12a41.83,41.83,0,0,1-1-4.56A.24.24,0,0,0,5.05,38.91Z"/><path class="cls-5" d="M5.31,38c-.26-.13-.52-.25-.77-.39a.3.3,0,0,0-.42.08c-.55,1-1,2.54-.43,3.62a.24.24,0,0,0,.44-.08c0-.53,0-1.06,0-1.59a5,5,0,0,1,.51-1.68l-.39.18.89.31C5.44,38.5,5.58,38.09,5.31,38Z"/><path class="cls-5" d="M20,44.42c-1.36,1.38-3.69,4.39-5.4,1.66-.11-.17-.45-.18-.44.08,0,1.19,1.41,1.69,2.45,1.58,1.7-.16,2.77-1.78,3.71-3C20.45,44.52,20.16,44.25,20,44.42Z"/><path class="cls-5" d="M17.22,37.18c-2.49,0-5.33,2.48-4.71,5.19a.22.22,0,0,0,.44,0c.39-2.38,1.7-4.42,4.29-4.71C17.5,37.62,17.49,37.17,17.22,37.18Z"/><path class="cls-5" d="M24.6,32.88a3.68,3.68,0,0,1-2.82-.1,6.36,6.36,0,0,1-2-1.72.21.21,0,0,0-.36.17,3.27,3.27,0,0,0,2.15,2.1,4.27,4.27,0,0,0,3.2-.08C25,33.15,24.84,32.79,24.6,32.88Z"/><path class="cls-5" d="M27,26.22c-.44-1.94-3-3.65-4.88-2.41-.2.13,0,.44.18.4a3.94,3.94,0,0,1,2.45.05,3.1,3.1,0,0,1,1.84,2C26.63,26.55,27,26.49,27,26.22Z"/><path class="cls-5" d="M33,17.88a2.68,2.68,0,0,1-1.55,1.29,4.26,4.26,0,0,1-1.88,0,.21.21,0,0,0-.14.37c1.3,1,3.3-.23,3.91-1.46C33.43,17.86,33.1,17.68,33,17.88Z"/><path class="cls-5" d="M28.33,18.49a7.1,7.1,0,0,0-.79-1.32.21.21,0,0,0-.34.22A7,7,0,0,0,28,18.68C28.09,18.9,28.47,18.74,28.33,18.49Z"/><path class="cls-5" d="M27.26,16a3.81,3.81,0,0,1,.16-1.3c.11-.36.31-.67.43-1s-.18-.4-.33-.24A3.41,3.41,0,0,0,26.84,16C26.86,16.31,27.27,16.22,27.26,16Z"/><path class="cls-5" d="M29.69,4c-.63.3-1.16.75-1.82,1a3,3,0,0,1-2.31-.2.25.25,0,0,0-.28.39c1.17,1.46,3.65.25,4.67-.78A.24.24,0,0,0,29.69,4Z"/><path class="cls-5" d="M39.74,7.58c-1.36-.47-2.57-1.32-2.11-2.9,0-.19-.18-.4-.33-.24a1.69,1.69,0,0,0,0,2.07,3.89,3.89,0,0,0,2.33,1.43C39.84,8,40,7.66,39.74,7.58Z"/><path class="cls-5" d="M28.65,54.26a3.65,3.65,0,0,1,.46,1.05.22.22,0,0,0,.4,0,1.3,1.3,0,0,0-.58-1.35C28.74,53.79,28.51,54.07,28.65,54.26Z"/><path class="cls-5" d="M29.4,56.56c.13,2-2.2,1.88-3.39,1.36a6.33,6.33,0,0,1-2.22-1.79c-.15-.17-.47,0-.35.23a4.87,4.87,0,0,0,4.13,2.53,2.14,2.14,0,0,0,2.27-2.41C29.79,56.19,29.39,56.28,29.4,56.56Z"/><path class="cls-5" d="M23.1,55.16a6.8,6.8,0,0,0-.57-1.79.21.21,0,0,0-.39.12,6.72,6.72,0,0,0,.59,1.79C22.8,55.49,23.17,55.38,23.1,55.16Z"/><path class="cls-5" d="M16.83,56.33a3.61,3.61,0,0,1,1,2.48,1.07,1.07,0,0,1-2,.55c-.13-.17-.37,0-.35.16.15,1.21,1.85,1.15,2.47.36,1-1.27.08-2.81-.82-3.81A.2.2,0,0,0,16.83,56.33Z"/><path class="cls-5" d="M13.88,58.16a15,15,0,0,0-1.77-1.88c-.18-.14-.37.11-.25.28a13.66,13.66,0,0,0,1.73,1.84C13.76,58.57,14,58.34,13.88,58.16Z"/><path class="cls-5" d="M5.62,39.32c.3,1,.64,2.1.92,3.16.19.68,1.46,4.05-.47,4A.26.26,0,0,0,6,47c1,.17,1.65-.65,1.7-1.61a6.61,6.61,0,0,0-.53-2.22c-.41-1.29-.77-2.59-1.15-3.88C6,39,5.54,39.06,5.62,39.32Z"/><path class="cls-5" d="M30.55.62a44.48,44.48,0,0,1-4.71,1c-1.33.16-2.69.15-3.71,1.11a.25.25,0,0,0,.2.43c2.85-.51,5.78-.69,8.36-2.16C30.9.93,30.82.56,30.55.62Z"/></g></g></svg>