<svg xmlns="http://www.w3.org/2000/svg" viewBox="0 0 40.45 42.14"><defs><style>.cls-1{fill:#90c2c3;}</style></defs><g id="Layer_2" data-name="Layer 2"><g id="_"><path class="cls-1" d="M29.17,40c-5.13,1.56-9.57.87-12-4.5a10.19,10.19,0,0,1,4.45-13.45.29.29,0,0,0-.25-.52c-12,5.82-2.7,26.54,8,19C29.61,40.34,29.43,39.93,29.17,40Zm.08-5c-3.1-.4-5.84-.84-7.49-3.86a7.41,7.41,0,0,1,.73-8c.19-.27-.2-.53-.41-.29-4.27,5,0,14.72,7.19,12.76A.3.3,0,0,0,29.25,35Zm4.85-9.21c-1.8,1-3.57,1.71-5.66,1.11a4.76,4.76,0,0,1-3.57-4.36c0-.31-.56-.29-.55,0,.05,4.89,6.9,7.4,10.14,3.66C34.65,26,34.34,25.63,34.1,25.77Zm3.31-21.2c-.31-.13-.5.25-.34.48,1.25,1.82,2.26,3.12,2.13,5.47a12,12,0,0,1-2.14,5.9c-2.67,3.94-7,5.84-11.13,2.81-.28-.2-.67.21-.41.46C34.48,28.31,46,8.08,37.41,4.57Zm-12.33,12c-.35-.09-.57.43-.2.54a6.47,6.47,0,0,0,6.81-1.77c1.62-1.7,2.93-4.78,2-7.1-.11-.29-.53-.18-.57.1-.27,2.22-.19,4.1-1.68,6A6.19,6.19,0,0,1,25.08,16.52ZM15.71,1c3.43.39,6.42.67,8.57,3.82a7.62,7.62,0,0,1-.71,9.53c-.22.27.21.66.46.42A7.93,7.93,0,0,0,25.26,4.49c-1.89-3-6.1-5.38-9.66-4.17C15.27.43,15.41.91,15.71,1Zm5.76,12.89c1.14-3.82-2-7.39-5.7-7.76a.31.31,0,0,0-.06.62,6.47,6.47,0,0,1,4,2.32c1.09,1.41,1.13,3,1.06,4.66C20.76,14.06,21.35,14.25,21.47,13.84ZM10.84,9.79a10.42,10.42,0,0,1,8.46,6c.17.4.71.11.58-.27C16.8,5.83,2.34,7.25,0,16.67a.35.35,0,0,0,.65.24C2.78,12.67,5.64,9.27,10.84,9.79Zm7.47,8.11c.39.16.65-.4.33-.63-3.94-2.93-12.29-4.55-14.7,1-.12.27.32.51.47.24C7.4,13.1,14.06,16.07,18.31,17.9Zm.48,1.88c.31.06.43-.37.2-.54-3-2.2-7.28-.4-9.45,2.14A10.26,10.26,0,0,0,7.79,32.31c.15.32.62.09.5-.23a10,10,0,0,1,1.6-9.74,8.06,8.06,0,0,1,4.34-2.95C15.84,19,17.23,19.51,18.79,19.78Zm-.71.95A6.43,6.43,0,0,0,12,26c0,.34.51.48.59.14.68-2.92,3.06-3.95,5.62-4.84A.3.3,0,0,0,18.08,20.73ZM38.8,23.84c-.7.12-1.2.7-1.93.77a.27.27,0,0,0,0,.54A3.08,3.08,0,0,0,39,24.31.27.27,0,0,0,38.8,23.84Zm-3.54,9.65C33.85,34,32.44,34.5,31,35c-.35.12-.15.67.2.61a8.32,8.32,0,0,0,4.35-1.65A.27.27,0,0,0,35.26,33.49ZM12,28.25a3.94,3.94,0,0,0-.39,2.45c0,.22.42.31.49,0a6,6,0,0,0,.08-1,3.74,3.74,0,0,1,.3-1.27C12.65,28.13,12.18,28,12,28.25Zm-9.2-8.91a5.27,5.27,0,0,0-1.3,3.19.35.35,0,0,0,.69.07,9.66,9.66,0,0,1,1-3C3.4,19.31,3,19.14,2.83,19.34ZM9.77,5.13a10.36,10.36,0,0,0,4.4,1.16.28.28,0,0,0,.13-.54,43.33,43.33,0,0,0-4.22-1.21C9.73,4.42,9.43,4.93,9.77,5.13Zm23.05.61c.14.3.53.12.51-.16a8.42,8.42,0,0,0-1.55-4.41c-.22-.3-.73,0-.55.36C32,2.87,32.2,4.37,32.82,5.74Zm-7,9A5.92,5.92,0,0,0,29.89,9.5a.29.29,0,0,0-.56-.13A12.2,12.2,0,0,1,28,12.2a7.94,7.94,0,0,1-2.37,2C25.37,14.37,25.47,14.86,25.8,14.77Z"/></g></g></svg>