<svg xmlns="http://www.w3.org/2000/svg" viewBox="0 0 76.84 51.02"><defs><style>.cls-1{fill:#50778d;}.cls-2{fill:#260029;}</style></defs><g id="Layer_2" data-name="Layer 2"><g id="_"><path class="cls-1" d="M.43,28.67c-.7,4.33,2.65,9.08,7,9.35,1.64.1,3.35-.36,4.91.18A14.29,14.29,0,0,1,15,39.75a8.86,8.86,0,0,0,5.6,1.19c1.37-.16,2.83-.64,4.09-.06,1.08.51,1.67,1.67,2.4,2.61,2.8,3.59,7.92,4.25,12.47,4.22,3.65,0,7.62-.44,10.24-3,.77-.74,1.5-1.69,2.56-1.82a4.43,4.43,0,0,1,1.64.25A11.88,11.88,0,0,0,64.37,40.8a35,35,0,0,1,3.53-3.15A19.25,19.25,0,0,0,72.81,36a5.83,5.83,0,0,0,3.71-4.64,7.19,7.19,0,0,0-2.75-6.75c-1.94-1.22-3.7-1.12-6-.94a13.74,13.74,0,0,0-18-14.22A15.11,15.11,0,0,0,35.42.26,13,13,0,0,0,23.65,11.77c-4.06-.89-8.6-.18-11.5,2.75A11.26,11.26,0,0,0,10.4,17.4c-.4.84,0,2.69-.63,3.37s-2.47.34-3.19.63A11.12,11.12,0,0,0,3.9,23,9.37,9.37,0,0,0,.43,28.67Z"/><path class="cls-2" d="M10.82,23c-1.19-4.43.18-8.45,4.6-10.29s8.3-.42,12.09,1.84c.24.14.56-.16.35-.38-6.77-7.06-21.22-1.38-17.59,9A.29.29,0,0,0,10.82,23Z"/><path class="cls-2" d="M23.86,11.18C25.19,5.48,28.92,1.21,35,.62,41.57,0,46.48,3.94,49.54,9.39a.31.31,0,0,0,.56-.27c-4.93-12.53-24.75-12.41-26.72,2C23.35,11.34,23.8,11.45,23.86,11.18Z"/><path class="cls-2" d="M46.93,11.71a12.7,12.7,0,0,1,14.81-.18c5,3.25,6.42,8.09,5,13.7-.07.25.29.5.43.23C73.23,14.13,55.29,3.21,46.66,11.39A.21.21,0,0,0,46.93,11.71Z"/><path class="cls-2" d="M67.85,23.7a6.33,6.33,0,0,1,8.12,5c1,4.86-2.81,7.45-7.07,8.21-.44.07-.32.71.12.67,4.82-.44,8.83-4.1,7.6-9.2-1-4.1-4.86-6.63-8.9-5.09C67.5,23.38,67.62,23.77,67.85,23.7Z"/><path class="cls-2" d="M49.66,42.06c8.28,5,19-1.06,20.52-10.3,0-.25-.34-.32-.42-.1C66.51,40.24,59,45.81,49.91,41.57,49.63,41.44,49.39,41.89,49.66,42.06Z"/><path class="cls-2" d="M10,20.51C4.69,20.88-.62,25,.06,30.74S7,39.39,12.25,38.43a.22.22,0,0,0,0-.44C7.37,37.8,1.67,36.64.81,30.88S5.22,22.13,10.07,21A.22.22,0,0,0,10,20.51Z"/><path class="cls-2" d="M10.33,36c3.9,7.36,15.44,6.85,21,2,.28-.25-.07-.64-.37-.44-6.22,4.23-15.48,4.93-20.29-1.76C10.56,35.51,10.21,35.74,10.33,36Z"/><path class="cls-2" d="M24.44,41c4.74,9.09,21.39,10.44,27.63,2.36a.29.29,0,0,0-.42-.38C44,49.91,31,49.42,24.81,40.77A.22.22,0,0,0,24.44,41Z"/><path class="cls-2" d="M16.51,37.41A14.13,14.13,0,0,0,28.24,37a.18.18,0,0,0-.16-.33,15.75,15.75,0,0,1-11.44.45A.18.18,0,0,0,16.51,37.41Z"/><path class="cls-2" d="M25.81,40.82c1.68,1.61,3.61,3.39,5.9,4a.18.18,0,0,0,.12-.33,26.63,26.63,0,0,1-5.79-4C25.89,40.45,25.67,40.69,25.81,40.82Z"/><path class="cls-2" d="M30.21,42.63a3.13,3.13,0,0,0,2.08.92c.22,0,.17-.33,0-.37a4.13,4.13,0,0,1-1.85-.85C30.23,42.18,30,42.48,30.21,42.63Z"/><path class="cls-2" d="M37.58,46.19c3.56.37,7.63-.11,10.32-2.7a.16.16,0,0,0-.2-.25,14.19,14.19,0,0,1-10.09,2.61A.17.17,0,0,0,37.58,46.19Z"/><path class="cls-2" d="M42.44,44a8.47,8.47,0,0,0,3.49-1.36.17.17,0,0,0-.14-.3c-1.1.43-2.15,1.24-3.37,1.3C42.22,43.64,42.23,44,42.44,44Z"/><path class="cls-2" d="M53.61,41.78c5.49.33,10.78-2.35,12.84-7.63a.2.2,0,0,0-.38-.15,12.55,12.55,0,0,1-12.42,7.42A.18.18,0,0,0,53.61,41.78Z"/><path class="cls-2" d="M59,38.22a7.63,7.63,0,0,0,5.48-5c.06-.18-.2-.34-.31-.16-1.27,2.18-2.64,4.13-5.23,4.8C58.74,37.94,58.79,38.26,59,38.22Z"/><path class="cls-2" d="M69.14,35a7.93,7.93,0,0,0,5.61-.43.17.17,0,0,0-.15-.31,9.5,9.5,0,0,1-5.33.38C69,34.62,68.9,35,69.14,35Z"/><path class="cls-2" d="M69.51,33.67c2,.43,4.72.69,6.41-.64a.16.16,0,0,0-.17-.27,9.3,9.3,0,0,1-6.2.52C69.3,33.23,69.27,33.61,69.51,33.67Z"/><path class="cls-2" d="M70.9,32.49c2,.1,4.92,0,5.72-2.23.07-.19-.21-.29-.3-.11-1,2.05-3.4,2.11-5.39,2C70.72,32.16,70.69,32.48,70.9,32.49Z"/><path class="cls-2" d="M72.42,31.18c1.51-.22,3.15-.63,3.72-2.22a.17.17,0,0,0-.32-.12c-.56,1.46-2.07,1.8-3.46,2A.16.16,0,0,0,72.42,31.18Z"/><path class="cls-2" d="M1.94,28.8a8.73,8.73,0,0,0,8.94,8.13.19.19,0,0,0,0-.38c-2.15-.44-4.22-.7-5.95-2.2a8.53,8.53,0,0,1-2.64-5.62C2.3,28.47,1.91,28.54,1.94,28.8Z"/><path class="cls-2" d="M4.39,28.35c.47,3.3,3.31,5.61,6.42,6.34.24.06.38-.28.14-.35-3.1-1-5.48-2.75-6.21-6.05A.18.18,0,0,0,4.39,28.35Z"/><path class="cls-2" d="M7.32,29.28a7.57,7.57,0,0,0,3,3.16c.18.11.38-.15.19-.28a10.05,10.05,0,0,1-2.85-3C7.53,28.93,7.2,29.07,7.32,29.28Z"/><path class="cls-2" d="M61.14,13.23C65,15,66.18,21,64.57,24.69c-.13.3.34.47.47.18,1.63-3.76.51-10.42-3.78-12C61,12.81,60.93,13.14,61.14,13.23Z"/><path class="cls-2" d="M62.27,17.38a10.61,10.61,0,0,1,.62,7.29.2.2,0,0,0,.38.14c1-2.09.34-5.61-.69-7.58C62.48,17,62.17,17.18,62.27,17.38Z"/><path class="cls-2" d="M45.49,14.3a11.48,11.48,0,0,1,9.41-2.61.18.18,0,0,0,.08-.35c-3.26-1.16-7.28.52-9.73,2.68C45.08,14.17,45.31,14.44,45.49,14.3Z"/><path class="cls-2" d="M51.42,14.62c0-.47.45-.61.83-.74.18-.07.1-.32-.06-.35A1.16,1.16,0,0,0,51,14.58.22.22,0,0,0,51.42,14.62Z"/><path class="cls-2" d="M42.39,5a8.79,8.79,0,0,1,5.4,5.49c.11.29.53.08.42-.2a8.65,8.65,0,0,0-5.69-5.63C42.3,4.63,42.17,5,42.39,5Z"/><path class="cls-2" d="M43.36,8.15a5.26,5.26,0,0,1,2.33,2.55c.1.17.4.1.35-.11A4.55,4.55,0,0,0,43.5,7.77C43.26,7.67,43.13,8,43.36,8.15Z"/><path class="cls-2" d="M29.64,3.85C26.73,5.3,25,9.61,24.82,12.69a.21.21,0,0,0,.42,0c.43-3,1.74-6.95,4.54-8.58C30,4,29.83,3.75,29.64,3.85Z"/><path class="cls-2" d="M28.25,9.14c-1,.92-2.1,2.27-2,3.72,0,.22.34.18.37,0a5.84,5.84,0,0,1,1.88-3.42C28.66,9.26,28.43,9,28.25,9.14Z"/><path class="cls-2" d="M19.65,13.88a12.06,12.06,0,0,1,7.64,1.76.19.19,0,0,0,.21-.31,11.09,11.09,0,0,0-7.9-1.78C19.38,13.58,19.44,13.9,19.65,13.88Z"/><path class="cls-2" d="M22.52,16.56a15.61,15.61,0,0,1,3.4.44c.18,0,.27-.24.12-.34-.95-.61-2.39-.5-3.48-.49C22.31,16.18,22.27,16.56,22.52,16.56Z"/><path class="cls-2" d="M45.88,38.21c3.29-.88,6.83-2.84,7.93-6.28a.19.19,0,0,0-.36-.14c-1.26,3.28-4.37,5.18-7.62,6.11C45.64,38,45.69,38.26,45.88,38.21Z"/><path class="cls-2" d="M44.91,36.45a17.86,17.86,0,0,0,4.94-1.81c.15-.1,0-.35-.17-.27a29.54,29.54,0,0,1-4.82,1.75C44.66,36.18,44.71,36.51,44.91,36.45Z"/><path class="cls-2" d="M51.67,32.49c2.54,0,5.71-1.27,7-3.63a.18.18,0,0,0-.29-.2,9.33,9.33,0,0,1-6.68,3.46C51.45,32.13,51.46,32.48,51.67,32.49Z"/><path class="cls-2" d="M54.2,34.25a21.85,21.85,0,0,0,2.42-.9c.16-.1.1-.4-.11-.34A22.22,22.22,0,0,0,54,33.9C53.8,34,54,34.35,54.2,34.25Z"/><path class="cls-2" d="M17.37,39.38a14.11,14.11,0,0,0,9.7-.66c.19-.08.09-.42-.12-.36-3.11.88-6.25,1.63-9.46.7A.17.17,0,0,0,17.37,39.38Z"/><path class="cls-2" d="M33.16,2.19c2.58-.62,4.91-.14,7.46.35.19,0,.26-.27.07-.33a13.27,13.27,0,0,0-7.59-.33C32.9,1.93,33,2.24,33.16,2.19Z"/><path class="cls-2" d="M42.92,3.85a13.63,13.63,0,0,1,2.7,2.32c.12.14.39,0,.29-.19a7.48,7.48,0,0,0-2.79-2.41A.17.17,0,0,0,42.92,3.85Z"/><path class="cls-2" d="M53.92,10.25a10.26,10.26,0,0,1,5.63,1.65.18.18,0,0,0,.23-.26c-1.26-1.56-4-1.76-5.82-1.75C53.73,9.9,53.69,10.25,53.92,10.25Z"/><path class="cls-2" d="M65,11.22c2.66,3.45,4.44,6.75,4.32,11.22,0,.35.53.41.55,0,.3-4.49-1.74-8.19-4.55-11.55C65.19,10.73,64.88,11,65,11.22Z"/><path class="cls-2" d="M70.14,17.19a11.41,11.41,0,0,1,.32,4.93c0,.21.32.31.39.08A7.83,7.83,0,0,0,70.5,17C70.4,16.78,70.05,17,70.14,17.19Z"/><path class="cls-2" d="M17.56,42.39A13,13,0,0,0,25,42.07c.22-.07.1-.44-.13-.39a15.83,15.83,0,0,1-7.24.35C17.44,42,17.36,42.33,17.56,42.39Z"/><path class="cls-2" d="M20.48,43.77c1.79,0,3.94.19,5.57-.69a.2.2,0,0,0-.12-.37,31.63,31.63,0,0,1-5.41.67C20.27,43.38,20.22,43.76,20.48,43.77Z"/><path class="cls-2" d="M46.16,50.14c5.15-.33,3.86-2.33,7-6.43.19-.25-.2-.51-.4-.27-3.29,3.89-6.6,6.17-11.78,6.64C40.68,50.1,45.91,50.16,46.16,50.14Z"/><path class="cls-2" d="M63.2,43.47a8.56,8.56,0,0,0,4.55-3.14c.14-.17-.12-.39-.28-.25-1.39,1.13-2.56,2.45-4.36,2.93C62.83,43.08,62.89,43.53,63.2,43.47Z"/><path class="cls-2" d="M66.38,44.42c.38-.4.42-.94.69-1.4a.2.2,0,0,0-.29-.27c-.44.35-.42.94-.75,1.36C65.87,44.31,66.19,44.62,66.38,44.42Z"/><path class="cls-2" d="M24.09,43.38c.79.88,1.59,1.75,2.45,2.57A7.71,7.71,0,0,0,29,47.78c.18.07.38-.18.23-.32-.84-.76-1.76-1.41-2.58-2.21s-1.44-1.5-2.23-2.19C24.19,42.91,23.94,43.2,24.09,43.38Z"/><path class="cls-2" d="M49,50.19c2.2-1.54,4.77-3.45,5.94-5.95.1-.21-.21-.35-.34-.18a27,27,0,0,1-5.84,5.85C48.56,50.05,48.8,50.33,49,50.19Z"/><path class="cls-2" d="M53.15,49a10.4,10.4,0,0,0,1.66-1.72,14.34,14.34,0,0,0,1.51-2c.1-.17-.11-.42-.28-.26-1.12,1.16-1.9,2.66-3.17,3.69C52.65,48.86,52.93,49.19,53.15,49Z"/><path class="cls-2" d="M32.58,50.45a6.44,6.44,0,0,0,3.6.49c.3,0,.21-.49-.09-.46a8.66,8.66,0,0,1-3.39-.35A.17.17,0,0,0,32.58,50.45Z"/><path class="cls-2" d="M27.28,40.1a5.11,5.11,0,0,0,1.9,1.82.21.21,0,0,0,.24-.35c-.64-.55-1.23-1.16-1.87-1.7C27.41,39.75,27.19,39.94,27.28,40.1Z"/><path class="cls-2" d="M67.35,37.81a5.1,5.1,0,0,0,1.29-.09,2.15,2.15,0,0,0,1.06-.43.2.2,0,0,0-.11-.35,5.69,5.69,0,0,0-2.27.26A.31.31,0,0,0,67.35,37.81Z"/><path class="cls-2" d="M24,11.76c0-.48.06-.95.06-1.43a.21.21,0,0,0-.37-.14,2.21,2.21,0,0,0-.38,1.5C23.29,12.13,24,12.21,24,11.76Z"/></g></g></svg>