<svg xmlns="http://www.w3.org/2000/svg" viewBox="0 0 55.04 55.45"><defs><style>.cls-1{fill:#2e9191;}.cls-2{fill:#48b5b9;}.cls-3{fill:#260029;}</style></defs><g id="Layer_2" data-name="Layer 2"><g id="_"><path class="cls-1" d="M10.25,7C15.15,2.5,21.81-.3,28.47.16a27.88,27.88,0,0,1,7.19,1.58c9.09,3.18,17.34,10.5,18.88,20,.77,4.72-.15,9.54-1.36,14.17a19.41,19.41,0,0,1-2,5.34,28.59,28.59,0,0,1-7.56,7.9,45.14,45.14,0,0,1-11.5,5.25C13.58,58.66-3,39.25,2.11,20.65A29.15,29.15,0,0,1,10.25,7Z"/><path class="cls-2" d="M6.46,34.26c1.55-.94,3.31-1.81,4.09-3.44a8,8,0,0,1,1-2c.55-.61,1.49-.87,1.83-1.62s-.14-1.71-.16-2.59c-.06-1.59,1.44-2.94,1.36-4.53A11.11,11.11,0,0,0,8,16a3,3,0,0,0-1.84.05,3.25,3.25,0,0,0-1.06.83A15.68,15.68,0,0,0,.76,27.31a28.59,28.59,0,0,0,.61,5.28c.32,1.8.56,4,1.67,5.44A11.77,11.77,0,0,1,6.46,34.26Z"/><path class="cls-2" d="M29.78,23a6.22,6.22,0,0,1,.43-2.83c.81-1.37,2.81-1.41,4.28-.84s2.81,1.58,4.38,1.8A5.39,5.39,0,0,0,44,18.57a7.88,7.88,0,0,0,.88-5.81c1.34.21,2-1.51,2.27-2.85a19.06,19.06,0,0,1,5.42,9.56,56.78,56.78,0,0,1,1.35,11,3.15,3.15,0,0,1-3.78-3.22c-.43-.64-1.5-.32-2,.31s-.55,1.45-1,2.1A5.09,5.09,0,0,1,45.74,31a12.7,12.7,0,0,1-4.63,2.35,4.34,4.34,0,0,1-4.6-1.69,7.45,7.45,0,0,0-.53-.91A3.29,3.29,0,0,0,34.77,30c-1.18-.56-5-1.61-5.61-2.73C28.4,25.88,29.78,24.51,29.78,23Z"/><path class="cls-2" d="M35.27,48a15.67,15.67,0,0,0,1-1.38,1.48,1.48,0,0,0,0-1.63c-.4-.45-1.21-.53-1.41-1.1a1.46,1.46,0,0,1,0-.8c.33-1.29.66-2.59,1-3.88a4.34,4.34,0,0,1,.66-1.6,3.55,3.55,0,0,1,2.91-1,9.09,9.09,0,0,0,3.17-.14C44,36,44.84,34.86,46,34.12s3-.79,3.56.49a2.86,2.86,0,0,1,0,1.59,34.54,34.54,0,0,1-1.34,5A4.85,4.85,0,0,1,46,44.25c-.82.37-1.9.38-2.37,1.14a2.91,2.91,0,0,0-.31,1,7.36,7.36,0,0,1-3.12,4.27c-1,.72-3.73,2.56-4.91,1.78S34.63,48.94,35.27,48Z"/><path class="cls-2" d="M12.62,45.48c-.57-.8-1.66-1.62-1.19-2.49.11-.21.32-.38.36-.62.09-.48-.51-.79-.67-1.26-.27-.8.81-1.37,1.13-2.16a1.65,1.65,0,0,0-1.53-2.06A2.85,2.85,0,0,0,8.28,38.4a2.58,2.58,0,0,0-3.39,1.39c-.6,1.62.57,3.31,1.69,4.62,1.85,2.17,4,4.75,6.8,5.63A6.55,6.55,0,0,0,12.62,45.48Z"/><path class="cls-2" d="M16.05,10.15c1.17-.29,2.16.83,2.84,1.82s1.67,2.12,2.83,1.84c1-.24,1.53-1.39,2.51-1.59s2.06.85,3.17.92a3,3,0,0,0,2.54-1.69,13,13,0,0,1,1.71-2.7c.53-.53,1.23-.88,1.76-1.42,1.16-1.19,1.28-3,1.16-4.7a.87.87,0,0,0-.13-.5.94.94,0,0,0-.67-.28l-5.25-.68A27.2,27.2,0,0,0,22.68.84c-3.07.28-8.95,2-10.64,4.92a4.68,4.68,0,0,0,.11,4.39C13.73,12.88,13.83,10.71,16.05,10.15Z"/><path class="cls-3" d="M51.74,40C43.26,53.58,23.2,59.45,10.53,48.28-1.47,37.71-2.4,21.17,8,9.15c.23-.27-.12-.68-.38-.42-11.14,11.54-9.76,29.87,2,40.56,13.05,11.81,34.33,5.45,42.52-9C52.36,40,51.92,39.71,51.74,40Z"/><path class="cls-3" d="M53.69,35.36C62.3,6.88,27.5-12,7.23,8.88c-.2.2.08.52.29.33,21-19,52.4-2,45.71,26A.24.24,0,0,0,53.69,35.36Z"/><path class="cls-3" d="M33.18,2.29c2,.38,1.23,2.6.28,4-.31.44-.12,0-.53.67-.1.17.11.45,0,.6L31.45,9.25l-.6.2c-.52.43-.78.45-1,1.16s.37.63-.52,1.16a.12.12,0,0,0,.11.22c.31-.14.63-.29.94-.45a.17.17,0,0,0,0-.26c-.71-.9,2.2-2.14,2.71-2.7A1.84,1.84,0,0,0,33.32,8a2.23,2.23,0,0,1,1-2c.2-.26.39-.34.56-.6A2.21,2.21,0,0,0,33.26,2C33.08,2,33,2.25,33.18,2.29Z"/><path class="cls-3" d="M11.45,6c-.13,1.62-.43,4.27,1.09,5.4s3-.17,3.94-1.24a.15.15,0,0,0-.2-.21A9.25,9.25,0,0,1,15,11a1.87,1.87,0,0,1-2.84-.67c-.63-1.31-.37-2.92-.42-4.32A.14.14,0,0,0,11.45,6Z"/><path class="cls-3" d="M16,10.88c1.24-.32,2-.61,2.84.9.11.19.15.56.26.77a2.54,2.54,0,0,0,1.39,1.1,4.26,4.26,0,0,0,4.25-1.35c.13-.13,0-.36-.18-.27-1.08.62-2.23,1.43-3.55,1.15-1.47-.31-1.3-1.34-2-2.29s-2.17-.67-3.14-.25A.13.13,0,0,0,16,10.88Z"/><path class="cls-3" d="M24.23,12.38c1.38.44,3.19,1.4,4.67.83.9-.35,1.67-1.55.93-2.4a.19.19,0,0,0-.32.17c.72,2.91-3.89,1.41-5.18,1.09C24.13,12,24,12.32,24.23,12.38Z"/><path class="cls-3" d="M1.67,21.93c1-1.3,1.71-2.73,2.62-4.06.72-1.07,1.26-2,2.82-2a7.86,7.86,0,0,1,2.47.57c.18,0,.25-.21.08-.29-1.45-.65-3.2-1.12-4.58,0C3.5,17.32,2.29,20,1.37,21.75A.18.18,0,0,0,1.67,21.93Z"/><path class="cls-3" d="M10.54,16.49c1.64.3,4.38.92,4.11,3.15-.16,1.36-1.93,1.41-2.11,2.75,0,.17.22.19.27.05.39-1,1.7-1.14,2.14-2.11a2.34,2.34,0,0,0,0-1.67c-.6-1.87-2.7-2.28-4.39-2.52C10.4,16.11,10.34,16.45,10.54,16.49Z"/><path class="cls-3" d="M12.74,23.32c.35.73.69,1.46,1.09,2.16a.13.13,0,0,0,.23-.12c-.32-.74-.69-1.46-1.05-2.18A.15.15,0,0,0,12.74,23.32Z"/><path class="cls-3" d="M14,26c-.09.45-.07,1-.48,1.28a6.62,6.62,0,0,1-1.38.31.13.13,0,0,0,.06.26c.58-.07,1.16-.2,1.74-.31A.18.18,0,0,0,14,27.4c.08-.46.16-.91.23-1.37C14.3,25.87,14,25.82,14,26Z"/><path class="cls-3" d="M12.64,28a3.6,3.6,0,0,0-2.07,1.34c-.9,1.23-.45,2.48-2.23,3.3C6.76,33.37,4.92,33.91,5,36c0,.14.22.2.25,0a4,4,0,0,1,2.9-2.82,5.29,5.29,0,0,0,1.69-.58,1.53,1.53,0,0,0,.49-.75c.72-1.59-.08-2.72,2.36-3.55C12.92,28.27,12.85,27.94,12.64,28Z"/><path class="cls-3" d="M5.18,35.6C3.83,35.81,2.58,38,4,38.94c.18.12.35-.09.29-.26-.4-1-.41-2.44,1-2.77A.16.16,0,0,0,5.18,35.6Z"/><path class="cls-3" d="M3.9,40.87c.59.52,1.26.24,1.69-.39.76-1.13-.08-1.9,2-2.24.49-.08.83.09,1.25-.26.61-.51.65-1.44,1.55-1.78,1-.13,1.52.35,1.43,1.44.66.79.62,1.29-.12,1.49-.08.14-.26.24-.35.37-.58,1,.2,2.19.79,2.94.1.13.32,0,.23-.16a4,4,0,0,1-.75-1.56c-.23-3,.68-.72,1.24-1.8.22-.42.37-.44.37-1,0-1.44-1.8-2.12-3-2.08-.44,0-.63,0-.94.34s-.12.39-.26.62a2,2,0,0,1-1.79,1c-.5.07-.79,0-1.19.31-.59.49-.84,3.14-1.95,2.41C4,40.51,3.76,40.74,3.9,40.87Z"/><path class="cls-3" d="M12,42.93l-.91.17a.14.14,0,0,0-.11.1,1.49,1.49,0,0,0,.28,1.22c.46.66,2.28,1.91,1.1,2.79-.1.08,0,.26.13.19a1.1,1.1,0,0,0,.35-1.47,3,3,0,0,0-.77-1,3.56,3.56,0,0,1-.56-.66c-.38-.72-.07-.91.55-1A.13.13,0,0,0,12,42.93Z"/><path class="cls-3" d="M12.8,48.44c1.13,1,1.42,2.35,2,3.67.08.19.34.1.35-.08.15-1.59-1.05-2.88-2.19-3.8C12.86,48.13,12.68,48.33,12.8,48.44Z"/><path class="cls-3" d="M46.65,9.33a2.89,2.89,0,0,1-.54,2.75c-.27.26-.88.39-1.2.68a3.31,3.31,0,0,0-1,2,4.58,4.58,0,0,0,.39,1.94c.47,1.82-1.06,2.69-2.25,4-.11.13,0,.31.18.2.72-.69,2.62-2,2.9-2.91.32-1.11-.79-1.75-.74-2.93.11-2.95,4.71-2.45,2.49-5.82A.11.11,0,0,0,46.65,9.33Z"/><path class="cls-3" d="M42,21c-1.55.16-3.2-1-4.69-1.32-4.29-1-1.5-.19-3-1.11a5.94,5.94,0,0,0-.95-.66,2.71,2.71,0,0,0-1.12-.2,3.21,3.21,0,0,0-2.55,1.41c-1,1.54.68,4.61-1,5.67-.17.1,0,.38.14.27A2.22,2.22,0,0,0,30,22.87c0-.92-.55-2-.25-2.92a3.22,3.22,0,0,1,2.12-1.8c1.28-.18,2.06.64,2.94,1.34,1.06.83,2.09.7,3.35,1.14,1.67.59,2.19,1,4,.63C42.26,21.22,42.19,21,42,21Z"/><path class="cls-3" d="M28.61,25.17c-.09.65-.19,1.31-.29,2a.18.18,0,0,0,.12.17,21.66,21.66,0,0,1,4.84,2.23c.8.5,1.9.5,2.57.91,1.06.65.46,2.53,1.9,3.16.8.36.81,0,1.61-.07,1.17-.12,2.45-.07,3.58-.24s1.91-.78,1.78-2c0-.23-.38-.15-.35.08.1,1-7.82,3.65-7.44-1.33a.2.2,0,0,0-.24-.19c-1.61.37-3.31-1.22-4.85-1.78s-3.21-.75-2.93-2.9C28.93,25,28.64,25,28.61,25.17Z"/><path class="cls-3" d="M45,31.93a1.82,1.82,0,0,1,1.72-1.85c.3,0,.6.23.91.24a1.1,1.1,0,0,0,.79-.18c.62-.45.32-1.18.46-1.8,0-.11,0-.21,0-.32q-.06-1,1.62.36c.28.36.24,1,.34,1.45s.16,1,.57,1.29c.66.4,2.08-.87,2.31-.58a.21.21,0,0,0,.25,0,1.88,1.88,0,0,0,1-1,.16.16,0,0,0-.27-.17c-.92,1.24-.73.16-1.52.49,0,0-.69.54-.71.54-1.44.22-1.19-1.07-1.42-1.77S49.84,26.32,48.85,27c-.32.22-.32.64-.35,1s.17,1.08,0,1.42c-.54.88-1.19.35-1.8.24-1.55-.27-2,.9-2.06,2.26C44.59,32.19,45,32.2,45,31.93Z"/><path class="cls-3" d="M49.31,34a4,4,0,0,0-3.62-.5c-1.63.56-3.42,4.14-5.28,2.57-.13-.11-.33,0-.2.19a1.94,1.94,0,0,0,2.67.11c.87-.58,1.36-1.57,2.26-2.13a3.8,3.8,0,0,1,4,.05A.17.17,0,0,0,49.31,34Z"/><path class="cls-3" d="M40.43,36.74c-2.25-1.79-5.67.44-4.6,3.22.06.17.31.06.28-.1A2.71,2.71,0,0,1,40.29,37C40.43,37.06,40.56,36.85,40.43,36.74Z"/><path class="cls-3" d="M35.66,40.46c-.2.75-.4,1.51-.59,2.27a4.55,4.55,0,0,0-.32,1.74c.18,1.13,1.82.52,2,1.31a.16.16,0,0,0,.31,0c.2-.6-.34-.74-.78-.92-.61-.25-1.13-.34-1-1.13.07-.35.17-.7.26-1.06.17-.7.35-1.4.52-2.11C36.1,40.32,35.73,40.2,35.66,40.46Z"/><path class="cls-3" d="M36.55,45.7c0,.33,0,.66,0,1a3.18,3.18,0,0,1-.62.35c-.19.09-.38.15-.56.25a1.59,1.59,0,0,0-.61.54.85.85,0,0,0,0,1.09c.09.11.31,0,.26-.13-.44-1.24,1.59-1.31,2-2.18a.86.86,0,0,0-.29-1.2C36.55,45.31,36.4,45.57,36.55,45.7Z"/><path class="cls-3" d="M34.54,49.46c.2.4-.55,1-.55,1.46a1,1,0,0,0,.19.53c.1.14.26.23.37.36s1.25.8.37,1a.15.15,0,0,0,0,.3c.74.11.7-.86.38-1.28-.18-.23-.48-.34-.65-.56-.45-.57-.08-.76.15-1.22a.66.66,0,0,0,0-.79A.17.17,0,0,0,34.54,49.46Z"/><path class="cls-3" d="M48.82,34.32c1.74,1.31,1.33,3.5-.39,4.6-.12.08-.06.33.1.27A2.88,2.88,0,0,0,49,34C48.81,33.88,48.63,34.18,48.82,34.32Z"/><path class="cls-3" d="M47.69,40.92c.11.57.23,1.13.35,1.7a1.91,1.91,0,0,1-1.33,1.24,7.56,7.56,0,0,1-1,.3,6,6,0,0,0-1.59.54,1.94,1.94,0,0,0-1.15,1.75c0,.14.22.19.25,0,.5-2.32,3.46-1.51,4.74-3a2.17,2.17,0,0,0,0-2.73C47.79,40.58,47.58,40.78,47.69,40.92Z"/><path class="cls-3" d="M42.46,47.53A4.7,4.7,0,0,1,40.25,51c-.12.1,0,.32.14.27a3.87,3.87,0,0,0,2.37-3.76A.15.15,0,0,0,42.46,47.53Z"/><path class="cls-3" d="M48.66,39a5.65,5.65,0,0,0-.7,2.53c0,.16.26.22.29.05a17.12,17.12,0,0,1,.69-2.45C49,39,48.74,38.86,48.66,39Z"/><path class="cls-3" d="M13.83,26.6a51.51,51.51,0,0,1,8.58-.74.12.12,0,0,0,0-.23,37.38,37.38,0,0,0-8.64.73C13.62,26.39,13.68,26.63,13.83,26.6Z"/><path class="cls-3" d="M13.71,25.32a87.72,87.72,0,0,1,8.88-.64.11.11,0,0,0,0-.22,54.51,54.51,0,0,0-8.93.63A.12.12,0,1,0,13.71,25.32Z"/><path class="cls-3" d="M13.54,24.36a71.3,71.3,0,0,1,15.78-.89c.16,0,.16-.23,0-.24a50.54,50.54,0,0,0-15.85.88A.13.13,0,0,0,13.54,24.36Z"/><path class="cls-3" d="M13.74,23.39a85.65,85.65,0,0,1,16.07-1.23.13.13,0,1,0,0-.25,71.62,71.62,0,0,0-16.14,1.23C13.52,23.17,13.58,23.42,13.74,23.39Z"/><path class="cls-3" d="M13.6,22.53A31.21,31.21,0,0,1,17.34,22c.14,0,.16-.24,0-.24a15.75,15.75,0,0,0-3.8.52A.14.14,0,0,0,13.6,22.53Z"/><path class="cls-3" d="M18.2,21.71c3.73-.33,7.41-.27,11.15-.27a.12.12,0,0,0,0-.24,58,58,0,0,0-11.17.27C18,21.48,18.06,21.73,18.2,21.71Z"/><path class="cls-3" d="M13.79,21a74,74,0,0,1,16-.28c.17,0,.17-.23,0-.25a57.25,57.25,0,0,0-16,.28C13.57,20.81,13.63,21.06,13.79,21Z"/><path class="cls-3" d="M14,19.86a115.38,115.38,0,0,1,17-.08c.16,0,.17-.24,0-.26A73.75,73.75,0,0,0,14,19.63C13.85,19.65,13.87,19.87,14,19.86Z"/><path class="cls-3" d="M15,19.08c3.05-.45,6.1-.75,9.18-1,.15,0,.16-.23,0-.23a55.21,55.21,0,0,0-9.26.88C14.72,18.8,14.79,19.11,15,19.08Z"/><path class="cls-3" d="M23.57,25.75l.83.11c.14,0,.18-.22,0-.25-.29-.06-.57-.11-.86-.15S23.38,25.72,23.57,25.75Z"/><path class="cls-3" d="M25.28,25.62c.95,0,1.91,0,2.86,0,.18,0,.19-.28,0-.28-1,0-1.91,0-2.87.08A.11.11,0,0,0,25.28,25.62Z"/><path class="cls-3" d="M23.46,24.51c1.8,0,3.61,0,5.41,0,.18,0,.19-.28,0-.28-1.8,0-3.61,0-5.41,0C23.31,24.26,23.3,24.51,23.46,24.51Z"/><path class="cls-3" d="M1.45,20c.4-.13.8-.25,1.2-.39.14-.05.1-.28-.06-.24-.4.11-.8.24-1.2.37C1.22,19.8,1.28,20.06,1.45,20Z"/><path class="cls-3" d="M1.89,18.9c.49-.11,1-.22,1.47-.35a.12.12,0,0,0,0-.23c-.49.1-1,.21-1.48.33A.13.13,0,0,0,1.89,18.9Z"/><path class="cls-3" d="M2.59,17.91a3.44,3.44,0,0,0,1.87-.58c.12-.08,0-.28-.11-.21a3.5,3.5,0,0,1-1.75.52C2.44,17.65,2.42,17.91,2.59,17.91Z"/><path class="cls-3" d="M3,17.12a3.35,3.35,0,0,0,1.91-.88c.11-.1,0-.27-.17-.18a3.87,3.87,0,0,1-1.8.8C2.8,16.88,2.86,17.15,3,17.12Z"/><path class="cls-3" d="M3.76,16.09c.8-.23,1.61-.47,2.4-.75a.12.12,0,0,0-.06-.24c-.81.21-1.6.46-2.4.72C3.53,15.87,3.58,16.15,3.76,16.09Z"/><path class="cls-3" d="M4.22,15.07a53.49,53.49,0,0,1,9.84-1.38c.15,0,.17-.25,0-.25a37.32,37.32,0,0,0-9.91,1.32A.16.16,0,0,0,4.22,15.07Z"/><path class="cls-3" d="M4.42,14a64.14,64.14,0,0,1,11-1.45.12.12,0,0,0,0-.24,39.51,39.51,0,0,0-11,1.45A.12.12,0,0,0,4.42,14Z"/><path class="cls-3" d="M5.33,13.17a54.08,54.08,0,0,1,8.75-1.41c.15,0,.17-.23,0-.23A26.06,26.06,0,0,0,5.29,13C5.16,13,5.2,13.21,5.33,13.17Z"/><path class="cls-3" d="M5.47,12.37a55.38,55.38,0,0,1,6.74-1.22c.13,0,.11-.24,0-.24a27.38,27.38,0,0,0-6.77,1.23A.12.12,0,0,0,5.47,12.37Z"/><path class="cls-3" d="M5.36,11.14c2.14-.3,4.29-.58,6.42-1,.15,0,.09-.24,0-.23-2.15.25-4.29.61-6.42,1C5.15,10.92,5.2,11.16,5.36,11.14Z"/><path class="cls-3" d="M6.7,10c1.55-.34,3.1-.5,4.66-.71.14,0,.12-.26,0-.25a22.55,22.55,0,0,0-4.69.72A.12.12,0,0,0,6.7,10Z"/><path class="cls-3" d="M8,9c1.28-.2,2.59-.37,3.85-.68a.12.12,0,0,0-.05-.24c-1.29.15-2.58.43-3.85.68C7.76,8.79,7.82,9,8,9Z"/><path class="cls-3" d="M8.71,8.06c1-.13,1.94-.26,2.91-.43.16,0,.1-.26-.06-.25-1,.11-1.94.27-2.91.41C8.47,7.82,8.54,8.09,8.71,8.06Z"/><path class="cls-3" d="M9.15,7.25a4.29,4.29,0,0,1,2-.27c.15,0,.15-.21,0-.23A4.26,4.26,0,0,0,9,7C8.89,7.09,9,7.31,9.15,7.25Z"/><path class="cls-3" d="M14.59,17.78c2-.25,3.92-.67,5.87-1.05.14,0,.09-.24-.05-.22-2,.32-3.94.6-5.87,1C14.39,17.58,14.44,17.8,14.59,17.78Z"/><path class="cls-3" d="M12.38,17.45a24.75,24.75,0,0,1,6.14-1.27c.14,0,.16-.23,0-.23a21.63,21.63,0,0,0-6.21,1.25C12.17,17.25,12.22,17.5,12.38,17.45Z"/><path class="cls-3" d="M11.06,16.61c3.68-.51,7.34-1,11-1.36.13,0,.11-.24,0-.23A80.64,80.64,0,0,0,11,16.37.12.12,0,0,0,11.06,16.61Z"/><path class="cls-3" d="M8.88,16c3.68-.44,7.36-.85,11-1.35.14,0,.09-.24-.05-.22-3.69.4-7.36.89-11,1.34C8.68,15.76,8.73,16,8.88,16Z"/><path class="cls-3" d="M7.26,15.49a84,84,0,0,1,12.44-1.4c.14,0,.15-.23,0-.22a72.92,72.92,0,0,0-12.5,1.39A.12.12,0,0,0,7.26,15.49Z"/><path class="cls-3" d="M14.31,14c1.65-.17,3.32-.32,5-.59.13,0,.12-.26,0-.25-1.66.12-3.32.37-5,.59C14.09,13.74,14.15,14,14.31,14Z"/><path class="cls-3" d="M14.11,13.34a29.31,29.31,0,0,1,5.53-.65.11.11,0,0,0,0-.22,19.52,19.52,0,0,0-5.59.63A.12.12,0,0,0,14.11,13.34Z"/><path class="cls-3" d="M14,12.55a29.66,29.66,0,0,1,4.38-.73c.13,0,.11-.23,0-.22a20.79,20.79,0,0,0-4.42.71A.12.12,0,0,0,14,12.55Z"/><path class="cls-3" d="M15,11.3a6.69,6.69,0,0,1,2.56-.18c.14,0,.15-.2,0-.22a6.1,6.1,0,0,0-2.62.18C14.84,11.12,14.89,11.34,15,11.3Z"/><path class="cls-3" d="M25,18.57c2,.07,4,.22,6,.15a.13.13,0,0,0,0-.25c-2-.18-4-.14-6-.18C24.8,18.29,24.79,18.57,25,18.57Z"/><path class="cls-3" d="M24.86,17.39c2.28,0,4.57.06,6.84,0a.12.12,0,0,0,0-.24c-2.28-.07-4.56,0-6.84,0C24.72,17.16,24.71,17.39,24.86,17.39Z"/><path class="cls-3" d="M20.63,17.2a110.6,110.6,0,0,1,11.2-.84c.14,0,.15-.23,0-.23A68.56,68.56,0,0,0,20.57,17C20.42,17,20.48,17.22,20.63,17.2Z"/><path class="cls-3" d="M21.35,16.13A66.56,66.56,0,0,1,32,15.43a.12.12,0,0,0,0-.24,51.92,51.92,0,0,0-10.71.71C21.14,15.92,21.2,16.16,21.35,16.13Z"/><path class="cls-3" d="M21.81,15.16a65.46,65.46,0,0,1,10.64-.87c.15,0,.16-.23,0-.23a51.21,51.21,0,0,0-10.7.88C21.62,15,21.67,15.18,21.81,15.16Z"/><path class="cls-3" d="M23.7,14.07c1.37-.26,2.74-.51,4.1-.8a.11.11,0,0,0-.05-.21c-1.37.24-2.73.52-4.1.79C23.5,13.87,23.55,14.1,23.7,14.07Z"/><path class="cls-3" d="M35.62,19.54c2.72.2,5.44.43,8.17.58a.16.16,0,0,0,0-.31c-2.72-.21-5.45-.35-8.18-.5C35.47,19.3,35.47,19.53,35.62,19.54Z"/><path class="cls-3" d="M33.75,18.75c3.3,0,6.64.24,9.94.08a.12.12,0,0,0,0-.23c-3.3-.21-6.64-.07-9.94-.08C33.61,18.52,33.6,18.75,33.75,18.75Z"/><path class="cls-3" d="M33.6,17.92c3.61-.15,7.18,0,10.78.17.15,0,.16-.22,0-.24a71.84,71.84,0,0,0-10.78-.18C33.45,17.67,33.44,17.93,33.6,17.92Z"/><path class="cls-3" d="M32.93,16.92a39,39,0,0,1,10.46.23c.12,0,.16-.2,0-.22a34.32,34.32,0,0,0-10.56-.25C32.72,16.7,32.78,16.93,32.93,16.92Z"/><path class="cls-3" d="M32.48,15.89c3.88,0,7.79.19,11.68.07a.12.12,0,0,0,0-.24c-3.89-.16-7.8-.06-11.69-.07A.12.12,0,0,0,32.48,15.89Z"/><path class="cls-3" d="M30.94,15c1,0,2.09-.07,3.14-.14.13,0,.15-.22,0-.22-1,0-2.09.07-3.13.11C30.79,14.71,30.78,15,30.94,15Z"/><path class="cls-3" d="M35.79,14.84a62,62,0,0,1,8,.06c.13,0,.18-.22,0-.24a30.89,30.89,0,0,0-8-.08C35.63,14.6,35.62,14.86,35.79,14.84Z"/><path class="cls-3" d="M31.67,14a134.52,134.52,0,0,1,14.2-.06c.15,0,.15-.22,0-.24a94.67,94.67,0,0,0-14.19,0C31.51,13.75,31.5,14,31.67,14Z"/><path class="cls-3" d="M28.68,13.1a57.23,57.23,0,0,1,16.53-.29c.22,0,.23-.31,0-.34a54.68,54.68,0,0,0-16.6.37C28.45,12.87,28.51,13.13,28.68,13.1Z"/><path class="cls-3" d="M30.61,11.24c5-.24,9.88,0,14.84,0a.13.13,0,0,0,0-.25,102.09,102.09,0,0,0-14.84,0C30.45,11,30.44,11.24,30.61,11.24Z"/><path class="cls-3" d="M31.15,10.09c1-.13,1.93-.27,2.9-.43.15,0,.09-.24,0-.22-1,.1-2,.22-2.92.36C30.89,9.82,31,10.12,31.15,10.09Z"/><path class="cls-3" d="M35.41,9.91c3.86.12,7.74.35,11.61.31a.14.14,0,0,0,0-.28c-3.86-.24-7.75-.21-11.61-.28A.13.13,0,0,0,35.41,9.91Z"/><path class="cls-3" d="M32.44,8.72c4.94,0,9.81.3,14.72.71.18,0,.18-.25,0-.28a88.31,88.31,0,0,0-14.72-.67C32.3,8.48,32.28,8.72,32.44,8.72Z"/><path class="cls-3" d="M33.72,8A87.13,87.13,0,0,1,47,8.32c.19,0,.19-.26,0-.28a70.57,70.57,0,0,0-13.32-.36C33.55,7.69,33.54,8,33.72,8Z"/><path class="cls-3" d="M33.62,6.76c4-.11,7.91.18,11.89.46.16,0,.16-.23,0-.25A58.38,58.38,0,0,0,33.63,6.5C33.46,6.5,33.45,6.76,33.62,6.76Z"/><path class="cls-3" d="M34.39,5.54a84.92,84.92,0,0,1,9,.51c.14,0,.19-.22,0-.25a45.64,45.64,0,0,0-9.05-.56C34.21,5.25,34.2,5.55,34.39,5.54Z"/><path class="cls-3" d="M34,4.31c2.25.11,4.54.34,6.79.27a.13.13,0,0,0,0-.26C38.57,4.06,36.28,4.07,34,4A.17.17,0,0,0,34,4.31Z"/><path class="cls-3" d="M34.18,3.52a11.09,11.09,0,0,1,4.18,0,.13.13,0,0,0,.07-.25,8.74,8.74,0,0,0-4.31-.1A.15.15,0,0,0,34.18,3.52Z"/><path class="cls-3" d="M14.46,51.33c1.39.22,2.78.45,4.17.65.13,0,.17-.21,0-.23-1.4-.25-2.8-.45-4.2-.66C14.31,51.06,14.31,51.31,14.46,51.33Z"/><path class="cls-3" d="M14.31,50.52c1.6.11,3.2.21,4.8.23a.13.13,0,0,0,0-.26c-1.59-.12-3.2-.19-4.8-.23A.13.13,0,0,0,14.31,50.52Z"/><path class="cls-3" d="M17.33,52.85a51.09,51.09,0,0,0,17.4.34c.17,0,.11-.27-.06-.25a54.39,54.39,0,0,1-17.27-.32C17.24,52.59,17.17,52.82,17.33,52.85Z"/><path class="cls-3" d="M18,52.42a56.75,56.75,0,0,0,16-.69.12.12,0,0,0-.05-.24,72.44,72.44,0,0,1-16,.67C17.83,52.14,17.82,52.4,18,52.42Z"/><path class="cls-3" d="M17.33,51.22A61,61,0,0,0,34,50.76c.19,0,.12-.3-.06-.28A76.44,76.44,0,0,1,17.34,51C17.17,50.94,17.16,51.2,17.33,51.22Z"/><path class="cls-3" d="M17.5,50.15c1.51,0,3,.08,4.53.08A.12.12,0,0,0,22,50c-1.51-.07-3-.09-4.53-.12A.14.14,0,0,0,17.5,50.15Z"/><path class="cls-3" d="M25.45,50.13a33.34,33.34,0,0,0,8.45-.81.13.13,0,0,0-.06-.26,43.61,43.61,0,0,1-8.38.83A.12.12,0,0,0,25.45,50.13Z"/><path class="cls-3" d="M19.16,48.52a52.91,52.91,0,0,0,16.37-.73.14.14,0,0,0-.06-.27,58.24,58.24,0,0,1-16.3.73C19,48.24,19,48.5,19.16,48.52Z"/><path class="cls-3" d="M20.49,47.14a5.34,5.34,0,0,0,2.32.07.11.11,0,1,0,0-.22,5.62,5.62,0,0,1-2.2-.08C20.41,46.87,20.34,47.1,20.49,47.14Z"/><path class="cls-3" d="M27.31,47.34A25.66,25.66,0,0,0,36,46.43a.11.11,0,0,0-.05-.22,35.07,35.07,0,0,1-8.66.9A.12.12,0,0,0,27.31,47.34Z"/><path class="cls-3" d="M22.68,46a64.88,64.88,0,0,0,12.92-.46c.14,0,.12-.27,0-.26a100.94,100.94,0,0,1-12.89.47C22.53,45.73,22.52,46,22.68,46Z"/><path class="cls-3" d="M22.34,44.65c4.66-.14,9.34-.15,14-.46.16,0,.18-.26,0-.26-4.66,0-9.33.3-14,.46C22.18,44.39,22.17,44.65,22.34,44.65Z"/><path class="cls-3" d="M18.9,43a31.14,31.14,0,0,1,4.53,0c.15,0,.15-.2,0-.22a26.35,26.35,0,0,0-4.53-.09C18.74,42.71,18.73,43,18.9,43Z"/><path class="cls-3" d="M25.7,43.1a41.87,41.87,0,0,0,10.61-.26c.14,0,.12-.25,0-.24a86.87,86.87,0,0,1-10.58.24A.13.13,0,0,0,25.7,43.1Z"/><path class="cls-3" d="M21.11,41.55a82.27,82.27,0,0,0,13.59.5.14.14,0,0,0,0-.27c-4.54-.12-9.05-.08-13.58-.48C21,41.28,21,41.53,21.11,41.55Z"/><path class="cls-3" d="M20.13,40.45a83.18,83.18,0,0,0,15.7,0c.14,0,.11-.25,0-.24-5.24.12-10.41.31-15.66-.07C20,40.18,20,40.43,20.13,40.45Z"/><path class="cls-3" d="M21.17,39.37c.94,0,1.88.05,2.83.05a.12.12,0,0,0,0-.23c-.94-.06-1.88-.08-2.82-.11A.15.15,0,0,0,21.17,39.37Z"/><path class="cls-3" d="M26,39.45a59.13,59.13,0,0,0,9.5-.47c.16,0,.14-.29,0-.27-3.16.25-6.29.51-9.47.49C25.83,39.2,25.82,39.45,26,39.45Z"/><path class="cls-3" d="M21.94,37.92c4.37,0,8.77.06,13.13-.15.15,0,.17-.24,0-.25-4.37-.12-8.76.07-13.13.13C21.78,37.65,21.77,37.93,21.94,37.92Z"/><path class="cls-3" d="M14.76,49.43c1.22.11,2.43.23,3.65.3a.12.12,0,0,0,0-.23c-1.21-.12-2.43-.2-3.65-.3A.12.12,0,0,0,14.76,49.43Z"/><path class="cls-3" d="M12.64,48.4c2.25.17,4.52.33,6.78.38a.12.12,0,0,0,0-.23c-2.26-.21-4.52-.31-6.79-.41A.13.13,0,0,0,12.64,48.4Z"/><path class="cls-3" d="M12.52,47.42c2.05.21,4.1.42,6.16.58.14,0,.15-.2,0-.22-2.05-.25-4.11-.43-6.16-.62C12.36,47.14,12.35,47.41,12.52,47.42Z"/><path class="cls-3" d="M13.49,46.66a53.36,53.36,0,0,0,6.19.45.12.12,0,0,0,0-.23c-2.07-.09-4.14-.24-6.19-.5C13.32,46.36,13.31,46.64,13.49,46.66Z"/><path class="cls-3" d="M12.23,45.61c3.76.17,7.55.44,11.32.41a.13.13,0,0,0,0-.26c-3.76-.3-7.56-.31-11.32-.41A.13.13,0,0,0,12.23,45.61Z"/><path class="cls-3" d="M12.4,44.47a71.75,71.75,0,0,0,11.45,0c.15,0,.12-.24,0-.24-3.81,0-7.61.09-11.42,0A.15.15,0,0,0,12.4,44.47Z"/><path class="cls-3" d="M11.5,42.94a41.15,41.15,0,0,0,7.36.22.12.12,0,1,0,0-.24c-2.45-.09-4.9-.13-7.35-.25C11.34,42.66,11.33,42.92,11.5,42.94Z"/><path class="cls-3" d="M12.51,41.92c3.05-.06,6.11-.05,9.15-.18.15,0,.16-.24,0-.24-3.05,0-6.1.1-9.15.16C12.36,41.66,12.35,41.92,12.51,41.92Z"/><path class="cls-3" d="M12.21,40.24c3.4.08,6.82.24,10.22.19a.12.12,0,0,0,0-.24C19,40,15.62,40,12.22,40,12.05,40,12,40.24,12.21,40.24Z"/><path class="cls-3" d="M13.78,39.3c2.48-.1,5-.16,7.43-.34.16,0,.18-.25,0-.25-2.48,0-4.95.16-7.43.26C13.58,39,13.57,39.31,13.78,39.3Z"/><path class="cls-3" d="M13.48,37.62c1.12.07,2.25.16,3.38.18.17,0,.18-.25,0-.27-1.13-.11-2.26-.16-3.38-.23A.16.16,0,0,0,13.48,37.62Z"/><path class="cls-3" d="M11.66,36.37c2.1,0,4.19-.11,6.29-.23.15,0,.16-.25,0-.25-2.1,0-4.19.09-6.29.19C11.49,36.09,11.47,36.38,11.66,36.37Z"/><path class="cls-3" d="M9,35.39c2.89-.27,5.79-.53,8.68-.87.13,0,.11-.25,0-.24-2.92.22-5.82.54-8.72.84C8.77,35.14,8.83,35.41,9,35.39Z"/><path class="cls-3" d="M8.35,34.15c3.92-.46,7.84-.7,11.79-.89.16,0,.18-.26,0-.26a82.62,82.62,0,0,0-11.87.85C8.08,33.88,8.15,34.17,8.35,34.15Z"/><path class="cls-3" d="M9.66,32.91A37.65,37.65,0,0,1,19.75,32a.13.13,0,0,0,0-.26,30.8,30.8,0,0,0-10.16.93C9.42,32.67,9.48,33,9.66,32.91Z"/><path class="cls-3" d="M9.88,31.5a71.64,71.64,0,0,1,9.81-.86c.16,0,.17-.25,0-.25a43.09,43.09,0,0,0-9.88.85C9.64,31.27,9.71,31.53,9.88,31.5Z"/><path class="cls-3" d="M10.92,30.17a77.4,77.4,0,0,1,11-.89c.16,0,.17-.25,0-.25a50.48,50.48,0,0,0-11,.87C10.68,29.93,10.74,30.2,10.92,30.17Z"/><path class="cls-3" d="M11.72,28.73c3.16-.2,6.31-.36,9.46-.63.16,0,.17-.26,0-.25-3.15.13-6.31.37-9.46.58C11.54,28.44,11.53,28.74,11.72,28.73Z"/><path class="cls-3" d="M13.05,27.5c3.25-.16,6.5-.29,9.74-.55.15,0,.17-.24,0-.24-3.25.09-6.5.33-9.74.51C12.88,27.23,12.87,27.51,13.05,27.5Z"/><path class="cls-3" d="M17.73,37.94a15.22,15.22,0,0,1,3.15-.43.13.13,0,0,0,0-.25,8.21,8.21,0,0,0-3.23.36C17.46,37.68,17.52,38,17.73,37.94Z"/><path class="cls-3" d="M18.22,36.57c3.23-.32,6.47-.49,9.71-.55a.13.13,0,0,0,0-.25,72.81,72.81,0,0,0-9.79.5C18,36.29,18,36.59,18.22,36.57Z"/><path class="cls-3" d="M19.28,35c3.89,0,7.79,0,11.69-.16.16,0,.17-.25,0-.25-3.9,0-7.8.06-11.69.12A.15.15,0,0,0,19.28,35Z"/><path class="cls-3" d="M19.13,34.19c4.86-.23,9.7-.19,14.55-.3a.13.13,0,0,0,0-.25,119.78,119.78,0,0,0-14.55.27C19,33.92,19,34.2,19.13,34.19Z"/><path class="cls-3" d="M19.57,33c4.77-.17,9.56-.24,14.33-.55.15,0,.17-.25,0-.25-4.78,0-9.56.32-14.33.5C19.4,32.69,19.38,33,19.57,33Z"/><path class="cls-3" d="M20,32c4.69-.44,9.35-.48,14.05-.48a.12.12,0,0,0,0-.24A89.37,89.37,0,0,0,20,31.69C19.85,31.7,19.87,32,20,32Z"/><path class="cls-3" d="M23.34,30.77c3-.09,5.92-.16,8.88-.3.14,0,.15-.23,0-.23-2.95.06-5.91.19-8.87.29C23.2,30.53,23.19,30.78,23.34,30.77Z"/><path class="cls-3" d="M20.06,30.37a81.79,81.79,0,0,1,10-.75c.15,0,.16-.23,0-.23a63.18,63.18,0,0,0-10.1.68C19.79,30.1,19.86,30.4,20.06,30.37Z"/><path class="cls-3" d="M21.38,28.8c3.14-.06,6.3,0,9.43-.23.15,0,.16-.24,0-.24-3.14-.07-6.29.09-9.43.17C21.2,28.5,21.19,28.8,21.38,28.8Z"/><path class="cls-3" d="M23,27.71c2-.05,4,0,6-.18.16,0,.18-.26,0-.26-2,0-4,.07-6,.13C22.8,27.41,22.79,27.72,23,27.71Z"/><path class="cls-3" d="M25.1,26.85c1.14,0,2.28,0,3.42,0a.12.12,0,0,0,0-.24c-1.14-.05-2.28-.05-3.42-.06A.14.14,0,0,0,25.1,26.85Z"/><path class="cls-3" d="M29.51,37c3-.09,5.92-.16,8.87-.31.21,0,.23-.34,0-.34-3,.07-5.91.22-8.87.34C29.32,36.67,29.3,37,29.51,37Z"/><path class="cls-3" d="M32.27,35.63c3.91-.14,7.76-.16,11.68-.06a.14.14,0,0,0,0-.28,53.4,53.4,0,0,0-11.72.07C32.1,35.38,32.12,35.63,32.27,35.63Z"/><path class="cls-3" d="M33,34.36c3.88,0,7.82.15,11.69-.1a.13.13,0,0,0,0-.25c-3.87-.19-7.82,0-11.69.09C32.88,34.1,32.87,34.36,33,34.36Z"/><path class="cls-3" d="M33.77,33.24c1.43,0,2.9,0,4.33-.18.15,0,.12-.25,0-.26-1.43-.06-2.88.08-4.3.15C33.59,33,33.58,33.25,33.77,33.24Z"/><path class="cls-3" d="M33.94,32.13c1,0,1.91.11,2.86.08a.13.13,0,0,0,0-.26c-.94-.11-1.91-.09-2.86-.12A.15.15,0,0,0,33.94,32.13Z"/><path class="cls-3" d="M33.79,31.3l1.11.16c.13,0,.17-.2,0-.22l-1.14-.19C33.64,31,33.63,31.28,33.79,31.3Z"/><path class="cls-3" d="M42.27,33.46c.76,0,1.52.08,2.27,0a.14.14,0,0,0,0-.28c-.75-.08-1.51-.07-2.27-.09C42.07,33.13,42.06,33.46,42.27,33.46Z"/><path class="cls-3" d="M42.51,48.56c1-.23,2-.43,2.94-.74a.12.12,0,0,0-.05-.24c-1,.15-2,.44-3,.67A.16.16,0,0,0,42.51,48.56Z"/><path class="cls-3" d="M42.7,47.55c1.46-.21,2.94-.44,4.38-.77a.12.12,0,0,0,0-.24c-1.47.17-2.94.45-4.39.74C42.47,47.32,42.53,47.57,42.7,47.55Z"/><path class="cls-3" d="M43.15,46.2a16.9,16.9,0,0,0,5.23-.76c.13,0,.09-.25-.05-.21a23.66,23.66,0,0,1-5.17.7C43,45.94,43,46.2,43.15,46.2Z"/><path class="cls-3" d="M44.16,45.21a15.61,15.61,0,0,0,5.52-.64c.15,0,.11-.28,0-.25a22.35,22.35,0,0,1-5.46.6A.15.15,0,0,0,44.16,45.21Z"/><path class="cls-3" d="M46.87,44.18a6.1,6.1,0,0,0,3.85-.6c.15-.08,0-.28-.12-.23a7.3,7.3,0,0,1-3.72.53C46.69,43.85,46.68,44.15,46.87,44.18Z"/><path class="cls-3" d="M47.6,43.2a13.12,13.12,0,0,0,3.84-.67c.14-.05.05-.26-.09-.24-1.25.21-2.46.5-3.73.6C47.42,42.9,47.4,43.21,47.6,43.2Z"/><path class="cls-3" d="M48.1,41.76a6.92,6.92,0,0,0,3.26-.29c.15,0,0-.27-.09-.25a9.6,9.6,0,0,1-3.16.21C47.9,41.41,47.89,41.73,48.1,41.76Z"/><path class="cls-3" d="M48.27,40.63a7.85,7.85,0,0,0,4.25-1,.12.12,0,0,0-.11-.21,9.66,9.66,0,0,1-4.13.86A.16.16,0,0,0,48.27,40.63Z"/><path class="cls-3" d="M49.08,39.14a6.7,6.7,0,0,0,4.11-.61c.13-.07.06-.31-.09-.26a8.73,8.73,0,0,1-4,.57C48.89,38.81,48.88,39.12,49.08,39.14Z"/><path class="cls-3" d="M49.29,37.75a8.39,8.39,0,0,0,4.15-.54.13.13,0,0,0-.09-.24,11.54,11.54,0,0,1-4.05.5C49.13,37.45,49.12,37.73,49.29,37.75Z"/><path class="cls-3" d="M49.79,36.68c1.08-.21,2.15-.43,3.22-.7a.13.13,0,0,0-.06-.25c-1.08.18-2.15.42-3.22.66A.15.15,0,0,0,49.79,36.68Z"/><path class="cls-3" d="M50,35.27c1.07-.19,2.16-.34,3.23-.58a.12.12,0,0,0-.05-.24c-1.09.14-2.17.36-3.25.55C49.77,35,49.83,35.3,50,35.27Z"/><path class="cls-3" d="M48.93,34.66a5.9,5.9,0,0,0,.84,0,.16.16,0,0,0,0-.31,5.78,5.78,0,0,0-.83-.05A.17.17,0,0,0,48.93,34.66Z"/><path class="cls-3" d="M51.25,34.28c.78-.06,1.56-.09,2.34-.2.13,0,.11-.23,0-.23-.76,0-1.53.1-2.3.16C51.09,34,51.08,34.29,51.25,34.28Z"/><path class="cls-3" d="M48.17,34c1.87-.28,3.76-.6,5.6-1a.14.14,0,0,0-.06-.27c-1.87.25-3.76.61-5.61,1C47.92,33.77,48,34.05,48.17,34Z"/><path class="cls-3" d="M44.57,33.17a86.1,86.1,0,0,0,8.78-1,.14.14,0,0,0,0-.28,86.75,86.75,0,0,0-8.78,1C44.39,32.92,44.41,33.18,44.57,33.17Z"/><path class="cls-3" d="M44.51,32.12c3-.49,6-.6,9-.94.14,0,.11-.25,0-.25a40.07,40.07,0,0,0-9,.92C44.28,31.88,44.34,32.15,44.51,32.12Z"/><path class="cls-3" d="M44.93,31a57.55,57.55,0,0,0,6.41-.67c.17,0,.15-.32,0-.31a52.68,52.68,0,0,0-6.4.74A.12.12,0,0,0,44.93,31Z"/><path class="cls-3" d="M48.83,30a14.77,14.77,0,0,0,2.08-.54.14.14,0,0,0-.06-.27,14.71,14.71,0,0,0-2.08.52C48.59,29.72,48.64,30,48.83,30Z"/><path class="cls-3" d="M48.69,28.8a20.45,20.45,0,0,0,2.07-.22c.14,0,.12-.24,0-.25a20,20,0,0,0-2,.16C48.51,28.5,48.49,28.81,48.69,28.8Z"/><path class="cls-3" d="M49.66,28.12c.49,0,1,0,1.47-.08.16,0,.13-.28,0-.28-.48,0-1,0-1.43,0C49.46,27.81,49.45,28.13,49.66,28.12Z"/><path class="cls-3" d="M3.76,39.82a10,10,0,0,0,1.73-.14.13.13,0,0,0,0-.25,10,10,0,0,0-1.73.14A.13.13,0,0,0,3.76,39.82Z"/><path class="cls-3" d="M3.91,38.83c.68-.07,1.36-.13,2-.23.13,0,.12-.24,0-.23-.69,0-1.38.13-2.07.2C3.68,38.59,3.74,38.85,3.91,38.83Z"/><path class="cls-3" d="M3.79,37.79c1.54-.13,3.1-.28,4.63-.53.13,0,.11-.24,0-.23-1.55.09-3.1.3-4.64.51C3.63,37.56,3.65,37.8,3.79,37.79Z"/><path class="cls-3" d="M4.78,36.7c1.43-.06,2.87-.08,4.3-.2.15,0,.16-.24,0-.24-1.44,0-2.87.11-4.3.18C4.62,36.45,4.61,36.71,4.78,36.7Z"/><path class="cls-3" d="M5.55,35.73c1-.13,1.94-.25,2.9-.42.16,0,.1-.25,0-.23-1,.1-1.94.25-2.91.38C5.32,35.49,5.38,35.75,5.55,35.73Z"/><path class="cls-3" d="M6.24,34.7c.86,0,1.73-.07,2.59-.14.15,0,.17-.26,0-.25-.87,0-1.73.07-2.59.11C6.07,34.43,6.06,34.71,6.24,34.7Z"/><path class="cls-3" d="M7,33.68l1.43-.07c.16,0,.17-.25,0-.24L7,33.41C6.81,33.42,6.8,33.68,7,33.68Z"/><path class="cls-3" d="M17.91,3.78a27.71,27.71,0,0,1,7.8-.9.13.13,0,0,0,0-.26,22.54,22.54,0,0,0-7.87.91C17.69,3.57,17.74,3.83,17.91,3.78Z"/><path class="cls-3" d="M28.08,4.24a14.21,14.21,0,0,1,4.22.09c.14,0,.18-.21,0-.25A10.15,10.15,0,0,0,28,4C27.85,4,27.91,4.26,28.08,4.24Z"/><path class="cls-3" d="M26.87,2.61a29.6,29.6,0,0,1,6.24.17c.15,0,.2-.24,0-.27a23.4,23.4,0,0,0-6.31-.15C26.71,2.37,26.73,2.62,26.87,2.61Z"/><path class="cls-3" d="M51.4,19.36a16.35,16.35,0,0,0-4-7.51.12.12,0,0,0-.18.16,18.9,18.9,0,0,1,3.92,7.4A.12.12,0,1,0,51.4,19.36Z"/><path class="cls-3" d="M36.46,51.17a9,9,0,0,0,5.84-3c.09-.1-.08-.24-.18-.15a10.67,10.67,0,0,1-5.72,2.92C36.24,51,36.3,51.2,36.46,51.17Z"/><path class="cls-3" d="M9.63,46.57a17,17,0,0,1-3.9-5.24.12.12,0,0,0-.22.11,13,13,0,0,0,3.94,5.29C9.57,46.83,9.75,46.67,9.63,46.57Z"/><path class="cls-3" d="M33.55,7.3a5.63,5.63,0,0,1,3.22.63c.13.07.26-.13.12-.2a5.12,5.12,0,0,0-3.38-.65C33.37,7.1,33.42,7.31,33.55,7.3Z"/><path class="cls-3" d="M34.3,6c1.43.53,2.86,1.06,4.3,1.56.14,0,.2-.16.06-.21-1.42-.56-2.85-1.09-4.28-1.61C34.21,5.66,34.13,5.93,34.3,6Z"/><path class="cls-3" d="M34.72,5a17,17,0,0,1,6.14,2.4.12.12,0,0,0,.13-.2A15.1,15.1,0,0,0,34.8,4.71C34.63,4.68,34.55,4.94,34.72,5Z"/><path class="cls-3" d="M34.1,3.48a19.15,19.15,0,0,1,6.45,2.37.12.12,0,0,0,.13-.21A15.8,15.8,0,0,0,34.15,3.2C34,3.18,33.94,3.46,34.1,3.48Z"/><path class="cls-3" d="M35.07,2.76a15.22,15.22,0,0,1,4,1.47c.14.07.28-.13.14-.22A12.35,12.35,0,0,0,35.15,2.5C35,2.47,34.9,2.72,35.07,2.76Z"/><path class="cls-3" d="M31.44,9.9a8.81,8.81,0,0,1,3,.69c.12.05.21-.15.1-.2a7.88,7.88,0,0,0-3.08-.75C31.28,9.64,31.27,9.9,31.44,9.9Z"/><path class="cls-3" d="M32.37,9.16c1.71.58,3.4,1.21,5.13,1.71a.12.12,0,0,0,.07-.22c-1.68-.64-3.42-1.16-5.13-1.73C32.29,8.87,32.22,9.11,32.37,9.16Z"/><path class="cls-3" d="M33.36,8.24a47.13,47.13,0,0,1,6.22,2.26c.13.05.22-.16.1-.23A28.69,28.69,0,0,0,33.44,8C33.27,7.91,33.18,8.19,33.36,8.24Z"/><path class="cls-3" d="M37.32,8.22c2,1.09,4,2.22,6,3.24.14.07.27-.13.13-.21-2-1.13-4-2.16-6-3.23C37.31,8,37.18,8.15,37.32,8.22Z"/><path class="cls-3" d="M38.05,7.46c2.42,1,4.77,2.2,7.14,3.33.16.08.31-.14.15-.23A54.28,54.28,0,0,0,38.13,7.2C38,7.13,37.88,7.4,38.05,7.46Z"/><path class="cls-3" d="M38.58,5.78c2.52,1.46,5,2.94,7.57,4.33.16.08.31-.15.15-.24-2.5-1.48-5-2.88-7.58-4.3C38.58,5.49,38.44,5.7,38.58,5.78Z"/><path class="cls-3" d="M41.45,5.45c1.46.92,2.9,1.86,4.38,2.75A.12.12,0,0,0,46,8c-1.43-1-2.91-1.84-4.36-2.77A.13.13,0,0,0,41.45,5.45Z"/><path class="cls-3" d="M31,12.34c1,.29,2,.56,3,.79a.12.12,0,0,0,.07-.23c-1-.3-2-.57-3-.82A.14.14,0,0,0,31,12.34Z"/><path class="cls-3" d="M31.52,11c2.21.94,4.42,1.91,6.65,2.82.14.05.2-.16.07-.22-2.2-1-4.43-1.89-6.65-2.82C31.45,10.73,31.38,11,31.52,11Z"/><path class="cls-3" d="M35.16,11.31a30.85,30.85,0,0,1,6.62,3c.12.08.24-.11.12-.19a25.12,25.12,0,0,0-6.67-3C35.09,11,35,11.27,35.16,11.31Z"/><path class="cls-3" d="M39.32,12a42.73,42.73,0,0,1,5.55,2.75.13.13,0,0,0,.14-.22,30.2,30.2,0,0,0-5.61-2.78C39.24,11.68,39.16,11.93,39.32,12Z"/><path class="cls-3" d="M41.67,11.62c1.22.63,2.43,1.3,3.68,1.85.15.07.26-.17.12-.25C44.28,12.56,43,12,41.81,11.4,41.66,11.33,41.52,11.55,41.67,11.62Z"/><path class="cls-3" d="M43.69,11.19a10.14,10.14,0,0,0,2.94,1.38c.15,0,.22-.18.07-.24A14.46,14.46,0,0,1,43.83,11,.13.13,0,0,0,43.69,11.19Z"/><path class="cls-3" d="M44.44,10.2c1,.44,1.94.91,2.93,1.3.12.05.22-.16.1-.22-1-.49-2-.9-2.95-1.34C44.36,9.87,44.28,10.13,44.44,10.2Z"/><path class="cls-3" d="M39.74,14.58c1.78,1.25,3.55,2.55,5.39,3.71.13.09.26-.11.13-.21-1.73-1.31-3.57-2.51-5.37-3.73C39.74,14.25,39.6,14.48,39.74,14.58Z"/><path class="cls-3" d="M38.53,14.92a44.6,44.6,0,0,0,5.28,4.34c.15.1.28-.12.15-.22-1.81-1.37-3.58-2.75-5.24-4.28C38.6,14.65,38.41,14.81,38.53,14.92Z"/><path class="cls-3" d="M38.71,17.55a32.48,32.48,0,0,1,4.06,3.13c.13.11.31,0,.19-.17a17.88,17.88,0,0,0-4.11-3.18A.13.13,0,1,0,38.71,17.55Z"/><path class="cls-3" d="M38.23,16.09c-.83-.72-1.71-1.39-2.59-2.05-.11-.08-.25.09-.15.17.83.72,1.68,1.44,2.56,2.1C38.18,16.4,38.36,16.2,38.23,16.09Z"/><path class="cls-3" d="M39.64,19.53c-1.26-1.17-2.61-2.29-4-3.34-.1-.08-.24.08-.15.17,1.26,1.17,2.58,2.32,3.94,3.38C39.58,19.83,39.75,19.63,39.64,19.53Z"/><path class="cls-3" d="M36.71,18.45c-.48-.47-1-1-1.46-1.42a.12.12,0,0,0-.17.17c.46.49,1,1,1.43,1.43C36.63,18.75,36.83,18.57,36.71,18.45Z"/><path class="cls-3" d="M33.42,13.7c-1-.65-2-1.34-3.09-1.95a.11.11,0,0,0-.12.19c1,.69,2,1.31,3.08,2A.12.12,0,0,0,33.42,13.7Z"/><path class="cls-3" d="M32.21,14.3c-.66-.51-1.31-1-2-1.53-.12-.09-.24.11-.13.2.66.53,1.32,1,2,1.55C32.21,14.62,32.35,14.4,32.21,14.3Z"/><path class="cls-3" d="M30.45,14.62l-1.32-.75c-.13-.07-.25.12-.12.19l1.3.77C30.45,14.91,30.59,14.7,30.45,14.62Z"/><path class="cls-3" d="M29.54,15.23a30.74,30.74,0,0,0-4.72-2.89.11.11,0,1,0-.12.19,54.23,54.23,0,0,1,4.7,2.93C29.54,15.56,29.68,15.34,29.54,15.23Z"/><path class="cls-3" d="M27.73,15.9c-.42-.37-.84-.74-1.29-1.07-.12-.09-.28.1-.17.2a16.6,16.6,0,0,0,1.28,1.08C27.67,16.21,27.85,16,27.73,15.9Z"/><path class="cls-3" d="M25.14,13.79a5.86,5.86,0,0,1-2.1-.91c-.13-.08-.24.11-.13.2a5,5,0,0,0,2.16.95C25.23,14.06,25.31,13.82,25.14,13.79Z"/><path class="cls-3" d="M24.38,15.33c-1.38-.87-2.75-1.78-4.17-2.59a.12.12,0,0,0-.12.2c1.35.92,2.76,1.75,4.16,2.61A.13.13,0,1,0,24.38,15.33Z"/><path class="cls-3" d="M23.09,16.06a38.89,38.89,0,0,0-7.21-4.61c-.16-.07-.32.16-.15.24A45.68,45.68,0,0,1,23,16.28C23.08,16.39,23.22,16.17,23.09,16.06Z"/><path class="cls-3" d="M18.69,11.63c-.52-.36-1-.72-1.57-1.05-.14-.09-.26.11-.13.21.5.37,1,.71,1.55,1.07A.14.14,0,0,0,18.69,11.63Z"/><path class="cls-3" d="M19.33,15.06A40,40,0,0,0,8.15,9.55a.12.12,0,0,0-.07.23A45.7,45.7,0,0,1,19.2,15.27C19.33,15.36,19.47,15.15,19.33,15.06Z"/><path class="cls-3" d="M17,15.61a23,23,0,0,0-9.84-5.08.14.14,0,0,0-.08.27,26.1,26.1,0,0,1,9.75,5C16.93,15.9,17.1,15.71,17,15.61Z"/><path class="cls-3" d="M15,15.56c-2.73-1.36-5.45-2.75-8.2-4.07-.16-.08-.31.15-.15.23,2.72,1.39,5.48,2.7,8.22,4C15,15.84,15.1,15.63,15,15.56Z"/><path class="cls-3" d="M12.09,15.49a19.43,19.43,0,0,0-6.91-3.18c-.14,0-.21.18-.07.21A20.51,20.51,0,0,1,12,15.66C12.09,15.74,12.2,15.56,12.09,15.49Z"/><path class="cls-3" d="M11.38,16.5a29.29,29.29,0,0,0-6.33-3.35c-.15-.05-.22.18-.07.24a31.58,31.58,0,0,1,6.27,3.31C11.38,16.79,11.5,16.58,11.38,16.5Z"/><path class="cls-3" d="M7.26,15.56a4.22,4.22,0,0,0-2.47-1,.13.13,0,0,0,0,.25,4.37,4.37,0,0,1,2.34.93C7.25,15.88,7.38,15.66,7.26,15.56Z"/><path class="cls-3" d="M6,16.21a4.73,4.73,0,0,0-2.2-.93.12.12,0,0,0,0,.24,5.84,5.84,0,0,1,2.09.92C6,16.55,6.17,16.31,6,16.21Z"/><path class="cls-3" d="M11.5,10.24C10.72,9.82,9.94,9.4,9.14,9c-.12-.06-.25.12-.12.19.77.44,1.56.85,2.35,1.26C11.51,10.53,11.65,10.32,11.5,10.24Z"/><path class="cls-3" d="M11.12,9c-.6-.38-1.21-.76-1.83-1.11-.13-.07-.25.12-.13.2.6.39,1.21.76,1.82,1.13A.13.13,0,1,0,11.12,9Z"/><path class="cls-3" d="M11.52,8.27c-.6-.39-1.2-.78-1.81-1.15a.12.12,0,0,0-.13.2c.59.4,1.19.79,1.79,1.18A.14.14,0,0,0,11.52,8.27Z"/><path class="cls-3" d="M25.43,19.28q-1.86-1.49-3.77-2.93c-.12-.09-.23.1-.12.19,1.24,1,2.5,2,3.76,2.95C25.43,19.59,25.56,19.38,25.43,19.28Z"/><path class="cls-3" d="M24.2,20.21a23.16,23.16,0,0,0-5.33-4.28c-.12-.08-.24.11-.12.19A25.37,25.37,0,0,1,24,20.39C24.12,20.51,24.31,20.33,24.2,20.21Z"/><path class="cls-3" d="M22.63,21.34c-.41-.43-.82-.87-1.27-1.27a.13.13,0,0,0-.19.17c.4.45.82.87,1.24,1.3C22.55,21.67,22.76,21.48,22.63,21.34Z"/><path class="cls-3" d="M19.78,19c-1.28-.89-2.54-1.79-3.83-2.66-.11-.08-.23.11-.11.19,1.26.91,2.53,1.79,3.8,2.68C19.77,19.3,19.91,19.09,19.78,19Z"/><path class="cls-3" d="M19.54,21.13c-1.4-1.27-2.78-2.58-4.23-3.81-.11-.09-.29.06-.18.17,1.36,1.32,2.8,2.56,4.21,3.83C19.47,21.44,19.67,21.25,19.54,21.13Z"/><path class="cls-3" d="M18.38,22.74c-1.13-1.23-2.24-2.47-3.4-3.68-.1-.1-.26.05-.16.15,1.1,1.25,2.26,2.46,3.39,3.68A.11.11,0,0,0,18.38,22.74Z"/><path class="cls-3" d="M18.19,24.1a26.26,26.26,0,0,0-3.43-3.64c-.11-.09-.27.05-.17.15A38,38,0,0,1,18,24.27C18.1,24.4,18.29,24.23,18.19,24.1Z"/><path class="cls-3" d="M18.78,25.92a1.46,1.46,0,0,0-1.12-.78c-.13,0-.17.2,0,.23a1.14,1.14,0,0,1,.94.67C18.64,26.17,18.86,26.06,18.78,25.92Z"/><path class="cls-3" d="M16.49,23.84c-.84-.62-1.68-1.26-2.54-1.85-.12-.09-.24.1-.12.19.82.64,1.68,1.24,2.53,1.86C16.49,24.13,16.61,23.93,16.49,23.84Z"/><path class="cls-3" d="M15.15,24.38c.11.1.29-.05.17-.15S15,24.28,15.15,24.38Z"/><path class="cls-3" d="M24.74,24A11.07,11.07,0,0,0,22,21.48a.13.13,0,0,0-.13.22,16.45,16.45,0,0,1,2.68,2.46C24.67,24.28,24.84,24.11,24.74,24Z"/><path class="cls-3" d="M26.76,24a20.35,20.35,0,0,0-3.28-3.28c-.1-.08-.26.09-.15.19a29.34,29.34,0,0,1,3.23,3.27A.13.13,0,0,0,26.76,24Z"/><path class="cls-3" d="M28.48,24.05l-.22-.63c-.06-.14-.29-.05-.25.09a5.94,5.94,0,0,0,.18.6C28.25,24.29,28.53,24.23,28.48,24.05Z"/><path class="cls-3" d="M28.28,23.37c-1.21-1.32-2.38-2.71-3.68-3.95a.13.13,0,0,0-.19.18c1.16,1.37,2.47,2.62,3.71,3.92C28.22,23.62,28.38,23.47,28.28,23.37Z"/><path class="cls-3" d="M29.55,22.45a38.1,38.1,0,0,0-4.73-4.69c-.1-.09-.25.09-.15.18a56,56,0,0,1,4.69,4.68C29.47,22.75,29.65,22.58,29.55,22.45Z"/><path class="cls-3" d="M29.58,20.45c-.33-.34-.64-.68-1-1a.13.13,0,0,0-.19.18c.3.36.63.69.95,1C29.48,20.81,29.72,20.6,29.58,20.45Z"/><path class="cls-3" d="M27.39,17.84l-1-.73c-.12-.08-.24.11-.12.19l1,.73C27.38,18.12,27.51,17.92,27.39,17.84Z"/><path class="cls-3" d="M30.45,18.82c-.77-.74-1.51-1.51-2.3-2.23-.12-.1-.29.05-.18.17.73.77,1.51,1.5,2.28,2.24C30.37,19.12,30.57,18.94,30.45,18.82Z"/><path class="cls-3" d="M32.23,18c-.82-.8-1.64-1.6-2.48-2.38-.11-.1-.29,0-.18.17.8.81,1.63,1.6,2.46,2.39C32.15,18.34,32.36,18.15,32.23,18Z"/><path class="cls-3" d="M34.27,17.48l-1-.72c-.12-.09-.24.11-.12.19l1,.74C34.27,17.78,34.4,17.57,34.27,17.48Z"/><path class="cls-3" d="M17,52.1a6.82,6.82,0,0,1-1.42-1.65.11.11,0,0,0-.2.1,5.43,5.43,0,0,0,1.44,1.75C16.9,52.4,17.07,52.2,17,52.1Z"/><path class="cls-3" d="M18.31,52.81a20.39,20.39,0,0,1-2.44-3.37c-.08-.13-.28,0-.21.11A15.18,15.18,0,0,0,18.1,53C18.23,53.14,18.44,52.94,18.31,52.81Z"/><path class="cls-3" d="M20.46,53.46c-1.25-1.47-2.52-2.94-3.85-4.34-.1-.11-.27.05-.17.16,1.23,1.49,2.53,2.92,3.85,4.33A.11.11,0,0,0,20.46,53.46Z"/><path class="cls-3" d="M22.6,54.07A14.87,14.87,0,0,1,19,50.14c-.09-.12-.3,0-.22.12a12.26,12.26,0,0,0,3.66,4.09C22.59,54.47,22.76,54.2,22.6,54.07Z"/><path class="cls-3" d="M21.18,50.72,19,48.12c-.09-.11-.25,0-.16.15.72.87,1.42,1.75,2.14,2.62C21.09,51,21.28,50.84,21.18,50.72Z"/><path class="cls-3" d="M25.73,54c-1.52-1.75-3-3.56-4.58-5.26-.1-.12-.27,0-.18.16,1.47,1.8,3,3.53,4.57,5.28C25.65,54.34,25.84,54.17,25.73,54Z"/><path class="cls-3" d="M28.06,54a18.28,18.28,0,0,1-3.63-3.92c-.08-.11-.28,0-.2.14a14.7,14.7,0,0,0,3.68,4C28.05,54.34,28.2,54.1,28.06,54Z"/><path class="cls-3" d="M29.56,53.7c-.34-.33-.66-.67-1-1-.12-.11-.31.05-.19.18.31.35.65.67,1,1C29.47,54,29.7,53.83,29.56,53.7Z"/><path class="cls-3" d="M27.64,51.41c-.73-.78-1.45-1.58-2.2-2.33-.11-.11-.28,0-.18.15.71.8,1.46,1.57,2.19,2.35C27.56,51.7,27.75,51.53,27.64,51.41Z"/><path class="cls-3" d="M31.32,53.39c-1.22-1.25-2.42-2.51-3.66-3.73-.11-.1-.28.05-.17.15,1.19,1.27,2.43,2.5,3.65,3.74C31.25,53.66,31.43,53.5,31.32,53.39Z"/><path class="cls-3" d="M33,53.05q-.4-.21-.81-.39c-.14-.07-.27.13-.13.21l.78.42C33.05,53.38,33.2,53.13,33,53.05Z"/><path class="cls-3" d="M30.8,50.79a10.08,10.08,0,0,1-2.15-2.54.11.11,0,0,0-.2.11A8.29,8.29,0,0,0,30.67,51C30.79,51.1,30.93,50.89,30.8,50.79Z"/><path class="cls-3" d="M35.27,53.23c-1.93-2.12-3.82-4.28-5.81-6.35a.11.11,0,0,0-.17.15c1.88,2.17,3.85,4.26,5.79,6.37C35.19,53.53,35.38,53.35,35.27,53.23Z"/><path class="cls-3" d="M34.31,50.24c-.88-1-1.75-2-2.65-3a.11.11,0,0,0-.17.15c.86,1,1.75,2,2.63,3C34.23,50.53,34.41,50.36,34.31,50.24Z"/><path class="cls-3" d="M34.64,48.27c-.89-1-1.77-2-2.69-3-.1-.11-.27,0-.17.16.86,1,1.76,2,2.65,3C34.55,48.59,34.75,48.41,34.64,48.27Z"/><path class="cls-3" d="M35.41,47c-.71-.88-1.43-1.75-2.16-2.6-.1-.12-.26,0-.17.15.7.89,1.42,1.75,2.13,2.62C35.32,47.28,35.52,47.1,35.41,47Z"/><path class="cls-3" d="M15.08,49.55c-.78-1.32-1.53-2.67-2.42-3.92-.08-.11-.27,0-.2.14.7,1.35,1.56,2.63,2.38,3.91C14.93,49.82,15.17,49.71,15.08,49.55Z"/><path class="cls-3" d="M16.84,49.21a29.6,29.6,0,0,1-4.11-6.05c-.08-.16-.33,0-.25.13a29.81,29.81,0,0,0,4.17,6.1A.13.13,0,0,0,16.84,49.21Z"/><path class="cls-3" d="M17.63,47.9c-.41-.44-.81-.89-1.23-1.32a.12.12,0,0,0-.18.16c.4.45.81.89,1.22,1.33C17.55,48.2,17.74,48,17.63,47.9Z"/><path class="cls-3" d="M15.72,45.36a17.21,17.21,0,0,1-2.51-3.54.12.12,0,0,0-.21.11,14.55,14.55,0,0,0,2.52,3.61A.13.13,0,0,0,15.72,45.36Z"/><path class="cls-3" d="M19.36,48.11c-1.09-1.5-2.17-3-3.31-4.47-.08-.11-.27,0-.19.13,1.06,1.54,2.19,3,3.3,4.52C19.27,48.43,19.46,48.25,19.36,48.11Z"/><path class="cls-3" d="M22.14,48.29c-.81-1-1.61-2.11-2.46-3.11-.12-.14-.3,0-.2.18.77,1.07,1.62,2.09,2.44,3.13C22,48.64,22.26,48.44,22.14,48.29Z"/><path class="cls-3" d="M4.86,40.53c-.45-.74-.88-1.48-1.35-2.21-.08-.12-.29,0-.21.11.42.76.87,1.49,1.32,2.23C4.71,40.81,5,40.69,4.86,40.53Z"/><path class="cls-3" d="M5.87,39.55c-.62-1-1.21-2.08-1.87-3.08-.09-.13-.31,0-.23.12.57,1,1.22,2.07,1.84,3.09C5.71,39.84,6,39.71,5.87,39.55Z"/><path class="cls-3" d="M7.38,39.19c-.85-1.35-1.69-2.71-2.56-4-.09-.12-.3,0-.22.11.83,1.37,1.69,2.71,2.55,4.06C7.24,39.45,7.47,39.33,7.38,39.19Z"/><path class="cls-3" d="M7.84,37.61c-.43-.83-.86-1.67-1.32-2.49-.07-.13-.28,0-.21.11.42.84.86,1.67,1.3,2.5A.13.13,0,0,0,7.84,37.61Z"/><path class="cls-3" d="M8.8,36c-.23-.5-.45-1-.69-1.48a.12.12,0,1,0-.22.11q.32.75.66,1.5C8.63,36.25,8.87,36.12,8.8,36Z"/><path class="cls-3" d="M54.12,32.84a8.35,8.35,0,0,0-1.89-2.6.12.12,0,0,0-.18.17A10.29,10.29,0,0,1,53.86,33C53.94,33.15,54.2,33,54.12,32.84Z"/><path class="cls-3" d="M53.83,35a24.61,24.61,0,0,0-4.41-5.19c-.12-.1-.3.05-.19.18a39.55,39.55,0,0,1,4.35,5.14C53.68,35.31,53.92,35.18,53.83,35Z"/><path class="cls-3" d="M52.73,36.57a43.74,43.74,0,0,0-5.46-7.38c-.1-.11-.27,0-.17.16a71.87,71.87,0,0,1,5.41,7.34C52.6,36.82,52.82,36.71,52.73,36.57Z"/><path class="cls-3" d="M49.79,35c-1.16-1.61-2.3-3.25-3.52-4.81-.09-.11-.28,0-.21.14,1.13,1.66,2.35,3.24,3.53,4.85C49.69,35.31,49.9,35.12,49.79,35Z"/><path class="cls-3" d="M46.72,32.79c-.66-.66-1.31-1.33-2-2-.11-.1-.28.05-.17.15.65.68,1.32,1.34,2,2C46.65,33.05,46.82,32.9,46.72,32.79Z"/><path class="cls-3" d="M52.43,38.51c-.54-.84-1.08-1.7-1.67-2.52-.08-.12-.29,0-.21.15.5.86,1.06,1.68,1.61,2.52C52.27,38.82,52.54,38.68,52.43,38.51Z"/><path class="cls-3" d="M51.76,40.72c-.61-1.26-1.2-2.54-1.87-3.78a.12.12,0,0,0-.21.12c.56,1.28,1.22,2.53,1.84,3.79C51.6,41,51.84,40.88,51.76,40.72Z"/><path class="cls-3" d="M50.64,40.81c-.61-1-1.23-1.9-1.85-2.84-.08-.13-.29,0-.2.1.6,1,1.22,1.9,1.83,2.85C50.5,41.05,50.72,40.94,50.64,40.81Z"/><path class="cls-3" d="M49.77,42.13c-.55-.75-1.09-1.49-1.65-2.23-.09-.12-.25,0-.17.15l1.64,2.25C49.68,42.42,49.86,42.26,49.77,42.13Z"/><path class="cls-3" d="M48.94,43c.12.12.32-.06.2-.17S48.82,42.91,48.94,43Z"/><path class="cls-3" d="M47.38,45.12c-.24-.33-.47-.65-.73-1-.09-.11-.3,0-.21.15.22.35.47.68.71,1C47.26,45.48,47.49,45.27,47.38,45.12Z"/><path class="cls-3" d="M14.3,41.52c-.41-1.16-.9-2.3-1.4-3.42-.07-.17-.3,0-.24.12.43,1.14.86,2.29,1.38,3.4C14.11,41.76,14.35,41.67,14.3,41.52Z"/><path class="cls-3" d="M17,43c-.72-1.44-1.41-2.9-2.2-4.31a.13.13,0,0,0-.22.12c.67,1.46,1.45,2.88,2.19,4.31A.13.13,0,0,0,17,43Z"/><path class="cls-3" d="M24.89,48.74c-.24-.31-.48-.63-.73-.94-.09-.1-.28,0-.2.14.23.34.47.67.71,1C24.78,49.09,25,48.89,24.89,48.74Z"/><path class="cls-3" d="M22.52,45.79A25.52,25.52,0,0,1,19.07,41a.11.11,0,1,0-.19.1A21.34,21.34,0,0,0,22.34,46,.12.12,0,0,0,22.52,45.79Z"/><path class="cls-3" d="M23.12,43.64l-2.63-3.49c-.08-.12-.25,0-.16.15L23,43.79C23,43.9,23.2,43.75,23.12,43.64Z"/><path class="cls-3" d="M25.83,44.61c-.8-1.13-1.59-2.28-2.42-3.4-.08-.11-.26,0-.19.13.79,1.16,1.62,2.29,2.44,3.43C25.74,44.9,25.92,44.74,25.83,44.61Z"/><path class="cls-3" d="M28.82,44.93c-1.77-2.57-3.52-5.17-5.37-7.69-.08-.11-.27,0-.19.14,1.72,2.6,3.55,5.14,5.34,7.7C28.69,45.2,28.91,45.05,28.82,44.93Z"/><path class="cls-3" d="M29.66,44c-1.32-1.82-2.61-3.67-4-5.46-.08-.1-.27,0-.19.13,1.28,1.87,2.65,3.67,4,5.5C29.57,44.33,29.75,44.16,29.66,44Z"/><path class="cls-3" d="M30.62,43.38a11,11,0,0,0-2.13-3.17.13.13,0,0,0-.19.18,13.87,13.87,0,0,1,2.07,3.12C30.45,43.67,30.7,43.54,30.62,43.38Z"/><path class="cls-3" d="M31.08,41.79c-.22-.41-.45-.81-.69-1.22a.12.12,0,0,0-.21.11c.22.42.44.83.67,1.24A.13.13,0,0,0,31.08,41.79Z"/><path class="cls-3" d="M33.84,42.5c-.54-.85-1.06-1.69-1.62-2.52-.09-.13-.31,0-.22.12.5.85,1,1.69,1.58,2.53C33.68,42.78,33.93,42.65,33.84,42.5Z"/><path class="cls-3" d="M35.4,41.57,34.21,40c-.09-.13-.26,0-.17.15l1.17,1.62C35.3,41.87,35.49,41.7,35.4,41.57Z"/><path class="cls-3" d="M44.1,35l-1-1c-.1-.1-.27,0-.17.15.33.33.66.67,1,1C44,35.23,44.2,35.07,44.1,35Z"/><path class="cls-3" d="M43.35,36.23c-.55-.65-1.1-1.32-1.67-2-.1-.11-.27,0-.17.16.54.67,1.1,1.32,1.66,2C43.27,36.53,43.46,36.36,43.35,36.23Z"/><path class="cls-3" d="M41.21,36.11c.1.1.26,0,.16-.15S41.11,36,41.21,36.11Z"/><path class="cls-3" d="M39.86,36.61A25.49,25.49,0,0,0,37.05,33a.11.11,0,0,0-.16.15,28.48,28.48,0,0,1,2.76,3.61C39.74,36.85,39.94,36.74,39.86,36.61Z"/><path class="cls-3" d="M37.92,36.56a45.79,45.79,0,0,0-3.35-4.48c-.1-.12-.26,0-.17.15,1.16,1.44,2.28,2.9,3.31,4.44C37.79,36.79,38,36.69,37.92,36.56Z"/><path class="cls-3" d="M35.88,36.82a22,22,0,0,0-2.77-4.42c-.1-.12-.28,0-.18.17a25.89,25.89,0,0,1,2.71,4.37A.13.13,0,0,0,35.88,36.82Z"/><path class="cls-3" d="M33.94,36.26a31.64,31.64,0,0,0-3-4,.11.11,0,0,0-.17.15,35.81,35.81,0,0,1,3,3.94C33.82,36.49,34,36.38,33.94,36.26Z"/><path class="cls-3" d="M31.73,36.64c.12.11.3-.06.19-.16S31.62,36.53,31.73,36.64Z"/><path class="cls-3" d="M33,38.67c-.21-.42-.42-.83-.65-1.24a.12.12,0,0,0-.21.1c.2.43.41.84.63,1.26C32.84,39,33.08,38.82,33,38.67Z"/><path class="cls-3" d="M30.76,35.15c-.74-1.26-1.44-2.56-2.26-3.77-.08-.12-.28,0-.21.11.67,1.3,1.47,2.54,2.21,3.79C30.6,35.44,30.86,35.31,30.76,35.15Z"/><path class="cls-3" d="M29.78,36.11c-1.06-1.77-2.09-3.56-3.21-5.29-.08-.12-.28,0-.2.11,1,1.79,2.11,3.54,3.17,5.31C29.63,36.39,29.88,36.26,29.78,36.11Z"/><path class="cls-3" d="M27.74,35.83c-.71-1-1.39-1.94-2.12-2.88-.08-.11-.27,0-.19.14.68,1,1.41,1.95,2.11,2.92C27.64,36.14,27.83,36,27.74,35.83Z"/><path class="cls-3" d="M25.52,35.48c-.47-.64-.93-1.29-1.41-1.92-.09-.12-.25,0-.17.15.46.65.94,1.29,1.41,1.93C25.44,35.77,25.61,35.6,25.52,35.48Z"/><path class="cls-3" d="M24.19,35.75c.12.11.31-.06.19-.17S24.07,35.64,24.19,35.75Z"/><path class="cls-3" d="M9.72,35.32c-.39-1.21-.82-2.4-1.29-3.58,0-.12-.26,0-.22.08C8.6,33,9,34.22,9.5,35.4,9.55,35.52,9.76,35.44,9.72,35.32Z"/><path class="cls-3" d="M11.19,34.42c-.37-.8-.72-1.61-1.11-2.41-.06-.13-.26,0-.2.11.36.81.73,1.61,1.1,2.41A.12.12,0,0,0,11.19,34.42Z"/><path class="cls-3" d="M12.43,34c-.41-1-.81-2-1.26-3-.07-.15-.27,0-.22.11.39,1,.83,2,1.25,3C12.27,34.29,12.5,34.17,12.43,34Z"/><path class="cls-3" d="M13.15,32.74c-.42-.92-.82-1.85-1.25-2.77-.06-.13-.26,0-.2.1.4.93.82,1.85,1.24,2.78C13,33,13.21,32.88,13.15,32.74Z"/><path class="cls-3" d="M14.19,31.75A10.55,10.55,0,0,1,12.94,29c0-.16-.29-.11-.25.05a7.71,7.71,0,0,0,1.24,2.81C14,32,14.29,31.91,14.19,31.75Z"/><path class="cls-3" d="M14.49,30.06c-.43-.92-.85-1.84-1.31-2.74a.12.12,0,0,0-.21.1c.41.93.86,1.84,1.29,2.76C14.33,30.33,14.56,30.21,14.49,30.06Z"/><path class="cls-3" d="M14.86,28.76c-.52-1.42-1-2.84-1.6-4.24-.06-.12-.27,0-.23.09.48,1.44,1,2.86,1.58,4.28C14.67,29.07,14.93,28.93,14.86,28.76Z"/><path class="cls-3" d="M15.29,27c-.5-1.19-1-2.41-1.55-3.58-.06-.12-.29-.05-.24.09.44,1.24,1,2.43,1.52,3.63C15.1,27.34,15.36,27.2,15.29,27Z"/><path class="cls-3" d="M15.43,26c-.4-1.11-.77-2.24-1.23-3.34,0-.13-.28-.05-.24.09.35,1.12.78,2.21,1.18,3.32C15.21,26.21,15.5,26.15,15.43,26Z"/><path class="cls-3" d="M15.74,24.21c.13.11.33-.07.2-.19S15.61,24.09,15.74,24.21Z"/></g></g></svg>