<svg xmlns="http://www.w3.org/2000/svg" viewBox="0 0 17.16 17.45"><defs><style>.cls-1{fill:#7c772d;}.cls-2{fill:#260029;}</style></defs><g id="Layer_2" data-name="Layer 2"><g id="_"><path class="cls-1" d="M.66,10.11A10.69,10.69,0,0,1,1,4.81,6.59,6.59,0,0,1,4.51.94a7.25,7.25,0,0,1,2.2-.5,9.56,9.56,0,0,1,8.15,3.31,8.37,8.37,0,0,1,1.69,6.83,7.79,7.79,0,0,1-4.36,5.47,9.74,9.74,0,0,1-3.06.75,8.4,8.4,0,0,1-3.79-.43A8.24,8.24,0,0,1,.66,10.11Z"/><path class="cls-2" d="M5.2,1.32C2.29.6,1,3.26.39,5.7c-.78,3.29-.51,6.42,1.85,9,4.37,4.81,12.89,3,14.42-3.49a.24.24,0,0,0-.45-.16c-2,4.46-7.14,7.59-11.78,4.57A8.24,8.24,0,0,1,.94,10.88C.22,8.22.79,1.55,5.09,1.79,5.35,1.8,5.48,1.39,5.2,1.32Z"/><path class="cls-2" d="M3.47,2.45c3.35-2.08,8-2.3,10.79.87,2.62,2.94,2.07,6.66.59,9.94-.11.25.24.5.43.31,2.89-2.94,2.21-8.26-.51-11.08A8.48,8.48,0,0,0,3.22,2.07C3,2.24,3.23,2.6,3.47,2.45Z"/><path class="cls-2" d="M1.85,7.59a4.38,4.38,0,0,0,.74,3.64,2.11,2.11,0,0,0,2.55.5A2.18,2.18,0,0,0,5.91,9.2,4.75,4.75,0,0,0,3.4,6.78a.43.43,0,0,0-.67.31,5.7,5.7,0,0,0,1.1,3.75.43.43,0,0,0,.51.11.93.93,0,0,0,.44-1.49c-.16-.21-.47,0-.45.22a.41.41,0,0,1-.25.47l.4.14a5.09,5.09,0,0,1-.9-3.12l-.67.31C3.89,8,6.05,9.37,5,10.78c-.62.8-1.69.15-2.07-.54a5.25,5.25,0,0,1-.3-2.58A.37.37,0,0,0,1.85,7.59Z"/><path class="cls-2" d="M3.26,7.62A3.16,3.16,0,0,0,4.37,9.69c.35.3.71-.23.5-.55S4.31,8.24,4,7.79a.43.43,0,0,0-.55-.2,1.6,1.6,0,0,0,.46,2.93.44.44,0,0,0,.45-.29,2,2,0,0,0-.21-1.9c-.33-.5-1.07-1.07-1.6-.55-.81.79.06,2.86,1.24,2.24a.43.43,0,0,0,0-.78c-.25-.08-.43-.06-.55-.32a.4.4,0,0,1,.1-.56l-.46.08a1.13,1.13,0,0,1,.7,1.49L4,9.64c-.54-.1-.63-1-.18-1.31l-.49-.1c.32.46.64.92.95,1.39l.5-.55a2.93,2.93,0,0,1-.95-1.55A.3.3,0,0,0,3.26,7.62Z"/><path class="cls-2" d="M6.45,4.21c.21-.61,1.64-.6,1.58.14S6.7,5,6.62,4.35l-.07.33a1.12,1.12,0,0,1,1-.46,1.36,1.36,0,0,1,1,.51.43.43,0,0,0,.71-.47c-.36-1-1.77-1.15-2.61-.78-.41.18-.93.58-.87,1.07a1.24,1.24,0,0,0,.67.94,1.82,1.82,0,0,0,2.27-.43,1.35,1.35,0,0,0-.7-2,1.53,1.53,0,0,0-2.18,1C5.74,4.44,6.32,4.56,6.45,4.21Z"/><path class="cls-2" d="M12.67,4.6a4.73,4.73,0,0,1,.72,5.74l.83,0a8.69,8.69,0,0,1-.5-3.12,8.75,8.75,0,0,0,0-2.23c-.07-.24-.42-.39-.57-.13-1,1.66,0,4,.26,5.75a.45.45,0,0,0,.81.18A4.84,4.84,0,0,0,13.1,4.13C12.81,3.91,12.41,4.34,12.67,4.6Z"/><path class="cls-2" d="M13.59,6.57a5.12,5.12,0,0,0,.63,2.17.3.3,0,0,0,.52-.16,5.2,5.2,0,0,0-.48-2.13C14.14,6.05,13.49,6.13,13.59,6.57Z"/><path class="cls-2" d="M7.82,13.15a1.34,1.34,0,0,0,1,1.33,1.64,1.64,0,0,0,1.77-.38c.53-.62-.13-1.27-.8-1.34s-1.51.41-1.24,1.13a.38.38,0,0,0,.5.18c.21-.13.67-.69.9-.24,0-.15,0-.31,0-.46a.88.88,0,0,1-1.54-.25C8.35,12.81,7.81,12.79,7.82,13.15Z"/><path class="cls-2" d="M8.54,7.92a1.43,1.43,0,0,0,.33,1.87c.61.47,1.69-.2,1.81-.9S10.09,7.45,9.45,8c-.48.42-.28,1.49.47,1.17A.34.34,0,0,0,10,8.64c-.08-.11-.24.27-.25.27a1.7,1.7,0,0,1-.61.28l.29.06a.75.75,0,0,1-.36-1C9.26,7.88,8.72,7.6,8.54,7.92Z"/></g></g></svg>