<svg xmlns="http://www.w3.org/2000/svg" viewBox="0 0 65.17 44.19"><defs><style>.cls-1{fill:#f3b643;}.cls-2{fill:#260029;}</style></defs><g id="Layer_2" data-name="Layer 2"><g id="_"><path class="cls-1" d="M7.06,1.13,35.39,20.8l8.84,5L32.06,27.08,64.56,44s-35-9.83-44.67-13c2.17-1,5.5-5,7.17-5.66C21.89,24,.73,18,.73,18s10.66-4.5,11.5-4.33C10.73,10.46,7.06,1.13,7.06,1.13Z"/><path class="cls-2" d="M65,43.75a.33.33,0,0,0-.18-.25q-10.92-5.4-21.72-11c-2.88-1.5-7.09-2.77-9.48-5a1.83,1.83,0,0,0-.35-.27,16.55,16.55,0,0,1,2.9-.43,34.63,34.63,0,0,1,8-.57c.37,0,.65-.53.27-.73C31.11,18.32,19.9,7.91,6.89.24a.34.34,0,0,0-.34,0S6.49.14,6.45.1A.3.3,0,0,0,6,.42Q7.57,4,9,7.56a38.51,38.51,0,0,0,2.72,6.09,8.44,8.44,0,0,0-4.12,1A56.31,56.31,0,0,1,.19,17.56a.24.24,0,0,0-.1.43.25.25,0,0,0,.2.21C9,20.73,17.78,23.27,26.58,25.28c-2.68,1.11-4.32,4-7,5.14a.42.42,0,0,0,0,.77c14.74,4.7,30,10.94,45.35,13C65.21,44.22,65.25,43.84,65,43.75ZM23.36,31.54a10.08,10.08,0,0,1-2.27-.75l-.25-.15c1-1.68,5-4.08,6.5-4.95a.39.39,0,0,0,.07-.58.34.34,0,0,0-.22-.43c-8.42-2.43-17-5.44-25.7-6.92,3.62-.94,6.84-3,10.58-3.59.21.1.53-.11.39-.35a54,54,0,0,1-3-7.14A49.51,49.51,0,0,0,7.33,1.4c8.32,5.46,16.23,11.49,24.43,17.14.93.64,11.2,7.46,11.49,6.78-.17.39-10.12,1.16-11.26,1.36-.31.06-.48.56-.16.73,10.31,5.54,20.69,11.11,31.33,16C54,41.84,44.9,38.54,36.08,35.75,31.82,34.39,27.58,33,23.36,31.54Z"/></g></g></svg>