<svg xmlns="http://www.w3.org/2000/svg" viewBox="0 0 15.98 15.41"><defs><style>.cls-1{fill:#d6734e;}.cls-2{fill:#260029;}</style></defs><g id="Layer_2" data-name="Layer 2"><g id="_"><path class="cls-1" d="M3.23,6.91a1.77,1.77,0,0,0,.44-.38,1.93,1.93,0,0,0,.25-1A28,28,0,0,1,4.5,1.12.67.67,0,0,1,4.78.61a.67.67,0,0,1,.6,0A9.86,9.86,0,0,1,8.93,3a1.66,1.66,0,0,0,.68.53,1.55,1.55,0,0,0,.9-.07l3.58-1c.39,1.43-1.24,2.76-1,4.23a3.54,3.54,0,0,0,.65,1.39l2.08,3.14a2.66,2.66,0,0,1-2.57,1c-1-.11-1.87-.49-2.83-.64a1,1,0,0,0-.75.1,1.17,1.17,0,0,0-.34.55,6.45,6.45,0,0,1-1.78,2.48,1.47,1.47,0,0,1-.77.4c-.54,0-1-.45-1.21-1-.45-1.06-.35-2.35-1.06-3.26A3.45,3.45,0,0,0,3.18,10C2.34,9.62,1,9.61.39,9,1,8.19,2.34,7.52,3.23,6.91Z"/><path class="cls-2" d="M16,11.27a.17.17,0,0,0,0-.14,25.64,25.64,0,0,0-1.59-2.27A9.82,9.82,0,0,0,12.82,7a10,10,0,0,0,1-2.35A16.3,16.3,0,0,0,14.65,2c0-.25-.23-.32-.39-.21A7.28,7.28,0,0,0,12,2.49a22.8,22.8,0,0,0-2.51,1A28.58,28.58,0,0,0,6.66.77,1.09,1.09,0,0,0,6.25.44L5.8.07a.29.29,0,0,0-.43.06,2.74,2.74,0,0,0-1,1.23.18.18,0,0,0,0,.16A13.46,13.46,0,0,0,4,6c-.26.19-.52.39-.77.56A29.86,29.86,0,0,0,.82,8.35a.36.36,0,0,0-.11.21A1.35,1.35,0,0,0,0,9.23a.21.21,0,0,0,.16.31c.36.51,1.27.51,1.84.68a17.49,17.49,0,0,0,2.56.66A11.42,11.42,0,0,0,5.66,15a.2.2,0,0,0,.1.16,1.83,1.83,0,0,0,1.32.23.27.27,0,0,0,.26-.06l.45-.48a1.07,1.07,0,0,0,.29-.31A19.26,19.26,0,0,0,10,11.94a33.19,33.19,0,0,0,4.45.33.26.26,0,0,0,.15-.07,2.34,2.34,0,0,0,1.31-.68A.28.28,0,0,0,16,11.27ZM4.8,1.48a3.14,3.14,0,0,0,.31-.32c-.28,1.36,0,3-.12,4.24q-.24.1-.48.24A19.38,19.38,0,0,1,4.8,1.48ZM.71,9.25,1,9c.88.28,1.78.49,2.67.76a10.07,10.07,0,0,0,1.48.41l-.47.21C3.34,9.94,2,9.6.71,9.25ZM5,10.77l.55-.27c.22.88.38,1.76.57,2.64.06.29.13.66.24,1a.39.39,0,0,0,0,.21.76.76,0,0,0,.08.11,1.77,1.77,0,0,0,.15.31,5.15,5.15,0,0,0-.53-.07A30,30,0,0,1,5,10.77Zm2.75,3.09a1.64,1.64,0,0,1-.32.14c-.18,0-.1.07-.26-.13A.29.29,0,0,0,7,13.75a10.35,10.35,0,0,1-.3-1.25,10.07,10.07,0,0,0-.59-2.62.37.37,0,0,0-.47-.16C5,9.43,4.21,9.28,3.52,9.05s-1.15-.41-1.75-.54C2.36,8.07,3,7.62,3.55,7.19A7.37,7.37,0,0,0,5.44,5.71a.3.3,0,0,0,.19-.25A23,23,0,0,0,5.7,2.71c0-.43,0-.87.08-1.3a.42.42,0,0,0,.13-.11.59.59,0,0,0,.41.07C7.3,2.23,8.2,3.15,9.16,4a.35.35,0,0,0,.52.27c1.32-.72,2.89-1,4.22-1.76-.28.68-.53,1.38-.8,2.06a10.42,10.42,0,0,0-.82,2.33.27.27,0,0,0,0,.36A24.3,24.3,0,0,1,14,9.34c.26.37.52.75.79,1.12a.78.78,0,0,0,0,.16.47.47,0,0,0,0,.21c-1.47-.11-3-.21-4.4-.22a.25.25,0,0,0-.17,0,.29.29,0,0,0-.3.28C9.1,11.79,8.49,12.88,7.75,13.86Zm6.4-2.09a37.33,37.33,0,0,0-3.81-.44.64.64,0,0,0,.08-.14,26.63,26.63,0,0,0,4.47.25h0l-.16.08A1.72,1.72,0,0,0,14.15,11.77Z"/></g></g></svg>