<svg xmlns="http://www.w3.org/2000/svg" viewBox="0 0 128.18 35.49"><defs><style>.cls-1{fill:#183f6d;}</style></defs><g id="Layer_2" data-name="Layer 2"><g id="_"><path class="cls-1" d="M1.66,16.53c4.38-1.06,7-5.19,4.83-9.47A.28.28,0,0,0,6,7.31c.64,1.84,1,3.64.07,5.46A7,7,0,0,1,1.57,16C1.26,16.12,1.33,16.61,1.66,16.53Z"/><path class="cls-1" d="M108.84,30.47a2.26,2.26,0,1,1,1.7,2.7A2.26,2.26,0,0,1,108.84,30.47Z"/><path class="cls-1" d="M88.25,26.35a4.61,4.61,0,1,1,3.46,5.52A4.61,4.61,0,0,1,88.25,26.35Z"/><path class="cls-1" d="M122.57,17.5a2.84,2.84,0,1,1,2.14,3.41A2.84,2.84,0,0,1,122.57,17.5Z"/><path class="cls-1" d="M77.63,3a3.86,3.86,0,1,1,2.9,4.63A3.86,3.86,0,0,1,77.63,3Z"/><path class="cls-1" d="M64.86,7.25A2,2,0,1,1,66.34,9.6,2,2,0,0,1,64.86,7.25Z"/><path class="cls-1" d="M45.55,5.81a2.24,2.24,0,0,1,2.7-1.7,2.26,2.26,0,1,1-2.7,1.7Z"/><path class="cls-1" d="M32.7,21.09a3.79,3.79,0,1,1,2.85,4.54A3.8,3.8,0,0,1,32.7,21.09Z"/><path class="cls-1" d="M8.29,15.27A3.61,3.61,0,1,1,11,19.59,3.61,3.61,0,0,1,8.29,15.27Z"/><path class="cls-1" d="M17.88,21.07c-3.34-1.21-7.92,1.55-7,5.46.06.24.44.25.45,0A5.26,5.26,0,0,1,13,22.45a5.21,5.21,0,0,1,4.7-1C18,21.5,18.12,21.16,17.88,21.07Z"/><path class="cls-1" d="M11.13,25.62a4.4,4.4,0,0,0-1.24-3.88,3.51,3.51,0,0,0-4.18-.1.28.28,0,0,0,.23.51c1.25-.45,2.55-.87,3.64.15a4.39,4.39,0,0,1,1.09,3.27A.23.23,0,0,0,11.13,25.62Z"/><path class="cls-1" d="M6.2,21.6a3.69,3.69,0,0,0-.47-3.85,5.46,5.46,0,0,0-4.18-1.4c-.41,0-.49.65-.06.66a5.35,5.35,0,0,1,3.57,1,3,3,0,0,1,.57,3.39A.3.3,0,0,0,6.2,21.6Z"/><path class="cls-1" d="M6.43,7.46c2.54,3.73,8.38,3.28,9.63-1.37.08-.28-.29-.52-.47-.25-1,1.58-1.94,3.17-4,3.5S8.07,8.49,6.84,7.1C6.61,6.83,6.23,7.17,6.43,7.46Z"/><path class="cls-1" d="M15.57,5.91c-.7,1.85-.94,4.41.42,6.06s3.6,1.28,5,0a.25.25,0,0,0-.26-.41c-1.58.55-3.39,1.4-4.46-.45-.87-1.5-.6-3.45-.22-5.05A.25.25,0,0,0,15.57,5.91Z"/><path class="cls-1" d="M20.72,11.58a5,5,0,0,0-2.82,2.89A2.62,2.62,0,0,0,19,17.55a.27.27,0,0,0,.36-.39c-.65-.95-1.18-1.66-.7-2.84A5.12,5.12,0,0,1,20.93,12,.24.24,0,0,0,20.72,11.58Z"/><path class="cls-1" d="M19.56,17.19c-.92,0-2.37.07-2.69,1.16a3.09,3.09,0,0,0,1.28,2.82c.18.1.49,0,.42-.27-.21-.77-1.09-1.35-1.08-2.2s1.46-1,2.09-1C19.84,17.63,19.83,17.18,19.56,17.19Z"/><path class="cls-1" d="M124.39,18.1c-4.36,4.15-8.74,8.31-13,12.52-.18.17.07.47.25.29,4.34-4.16,9.09-8,13-12.6C124.74,18.17,124.52,18,124.39,18.1Z"/><path class="cls-1" d="M111.06,31.09c-6.25-1-12.43-1.85-18.52-3.67-.26-.08-.4.3-.15.39A88.85,88.85,0,0,0,111,31.45.18.18,0,0,0,111.06,31.09Z"/><path class="cls-1" d="M92.09,27.21c1.15-7.5,2.55-14.9,4.28-22.28,0-.24-.3-.38-.37-.14-2.1,7.31-3.12,14.88-4.16,22.4C91.81,27.35,92.06,27.37,92.09,27.21Z"/><path class="cls-1" d="M96.2,4.7A81.75,81.75,0,0,0,81.33,3.07a.18.18,0,0,0,0,.36c5,.56,9.92.87,14.87,1.59C96.37,5.05,96.4,4.74,96.2,4.7Z"/><path class="cls-1" d="M82.13,3.24c-5.38,1.18-10.61,3-15.95,4.4-.28.07-.21.49.07.43C71.64,7,76.92,5.15,82.2,3.64,82.44,3.57,82.39,3.19,82.13,3.24Z"/><path class="cls-1" d="M65.66,7.55C59.39,7.78,53.41,6.4,47.19,6a.18.18,0,0,0,0,.36c6,1.19,12.43,2.06,18.52,1.53C65.87,7.88,65.86,7.55,65.66,7.55Z"/><path class="cls-1" d="M48,6c-3.44,5.47-7.61,10.21-11.63,15.23-.19.25.2.51.39.28,4.08-4.75,8.85-9.65,11.53-15.36C48.33,6,48.06,5.84,48,6Z"/><path class="cls-1" d="M125.24,17.91c-8.81-5.11-19.07-8.84-28.53-12.58a.25.25,0,0,0-.17.46C106,9.55,116,13.37,125,18.22,125.23,18.34,125.46,18,125.24,17.91Z"/><path class="cls-1" d="M36.24,21.42c-5.74-1.52-11.52-3-17.35-4.05-.33-.06-.37.45-.05.51,5.82,1.09,11.51,2.73,17.32,3.89C36.36,21.81,36.44,21.47,36.24,21.42Z"/><path class="cls-1" d="M3,9.24l-.09-.15c-2.76-4.32-4.51,4.86-.43,2l.26-.18a1.44,1.44,0,0,0-.11-2.26l-.27-.19c-4-2.85-2.11,6.35.41,2.32l.12-.2A1.29,1.29,0,0,0,3,9.24Z"/><path class="cls-1" d="M20.35,35.49c1.31,0,1.51-2,.19-2S19,35.49,20.35,35.49Z"/><path class="cls-1" d="M25,26.1c1.23,0,1.42-1.92.18-1.92S23.78,26.1,25,26.1Z"/></g></g></svg>