<svg xmlns="http://www.w3.org/2000/svg" viewBox="0 0 35.08 37.42"><defs><style>.cls-1{fill:#48b17b;}.cls-2{fill:#327f51;}.cls-3{fill:#cfffc7;}.cls-4{fill:#260029;}</style></defs><g id="Layer_2" data-name="Layer 2"><g id="_"><path class="cls-1" d="M32.63,20.43a7.43,7.43,0,0,0,1.55-8.11,10.89,10.89,0,0,0-3.46-3.41c-.94-1.17-.47-1.41-1.42-2.58a24,24,0,0,0-3-3.23A12.33,12.33,0,0,0,16.89.28,19.7,19.7,0,0,0,7.06,4.57C3.13,7.6-.2,11.91.28,16.84c.52,5.37,4.86,9.5,9.1,12.85a40.27,40.27,0,0,0,4.51,2.72,37.2,37.2,0,0,0,11.17,4.33c3.27.61,6.73.78,8-2.84A19.34,19.34,0,0,0,32.63,20.43Z"/><path class="cls-2" d="M30.11,10.34c0-.37.09-.86.46-.91a.79.79,0,0,1,.44.12l1.42.7a1,1,0,0,1,.49.41,1,1,0,0,1,0,.58c-.19,1-.75,6.17-1.81,5.71S30.11,11.37,30.11,10.34Z"/><path class="cls-2" d="M31.89,18a4.5,4.5,0,0,0,2.26-.85,3.18,3.18,0,0,1-1.75,2.5,1.73,1.73,0,0,1-.78-1.72Z"/><path class="cls-2" d="M18.66,12.94a7.38,7.38,0,0,1,8.09,5.12c-.4.36-.3,1-.4,1.52a3.35,3.35,0,0,1-2.21,2.12,10.52,10.52,0,0,1-7.67.49c-2-.72-4.88-3.19-4.42-5.61C12.46,14.4,16.84,13.26,18.66,12.94Z"/><path class="cls-3" d="M28.84,29A12.75,12.75,0,0,0,32,31.73a.78.78,0,0,0,.56.17c.29-.06.42-.39.5-.67.26-.95.48-1.9.66-2.86.12-.64.17-1.44-.36-1.81s-1.27-.08-1.84.23l-2.38,1.29c-.23.13-.47.49-.23.6Z"/><path class="cls-4" d="M30.75,8.79c-7.9-20.93-41.13.13-27.51,15.34a.3.3,0,0,0,.45-.38C.54,19-.12,14.14,3.34,9.29a23.8,23.8,0,0,1,9.11-7.54C19.75-1.54,27.13,2,30.39,9,30.5,9.2,30.84,9,30.75,8.79Z"/><path class="cls-4" d="M32.83,34.19c-2.45,5.6-12.52,1-16.23-.77A36.5,36.5,0,0,1,3.05,22.76c-.24-.31-.65.07-.45.37C6.79,29.41,13.7,33.42,20.67,36c3.21,1.18,11.58,3.25,12.49-1.71C33.19,34.07,32.91,34,32.83,34.19Z"/><path class="cls-4" d="M27.33,19.07c-1.61-7.5-9.84-7.42-15.3-3.94-.31.2-.1.7.26.54a22.53,22.53,0,0,1,7.11-2.12c3.81-.36,6.54,2,7.6,5.58C27.06,19.32,27.37,19.28,27.33,19.07Z"/><path class="cls-4" d="M25.87,19.84c-2.47,1.77-5.05,3-8.15,2s-4.61-3.5-5.43-6.38a.25.25,0,0,0-.5.09c.51,6.72,10.15,10.18,14.35,4.5C26.27,19.91,26,19.72,25.87,19.84Z"/><path class="cls-4" d="M29.39,8.76c-.82,2.82-.72,6.46.95,9,.09.15.37,0,.32-.15-.94-3.07-1.5-5.51-.81-8.73C29.91,8.6,29.46,8.49,29.39,8.76Z"/><path class="cls-4" d="M30.09,8.83c4.6,1.9,5.72,7.11,2.53,10.87-.22.26.21.65.44.4A7.11,7.11,0,0,0,30.25,8.4.23.23,0,0,0,30.09,8.83Z"/><path class="cls-4" d="M33,19.82a14,14,0,0,0-2.59-2.63c-.17-.13-.34.1-.23.26a14.28,14.28,0,0,0,2.54,2.67C32.89,20.28,33.12,20,33,19.82Z"/><path class="cls-4" d="M32.6,20c1.56,5.4,1,9.6-.21,15,0,.21.24.42.37.19,2.48-4.45,2.13-10.7.12-15.25C32.82,19.73,32.55,19.8,32.6,20Z"/><path class="cls-4" d="M7.39,7.08a10,10,0,0,0-4.92,6.8c-.05.28.42.39.49.11A11.13,11.13,0,0,1,7.59,7.38C7.76,7.26,7.57,7,7.39,7.08Z"/><path class="cls-4" d="M2.81,15.79A28.21,28.21,0,0,0,3.5,19.2a.17.17,0,0,0,.33-.06,26.35,26.35,0,0,0-.72-3.4A.15.15,0,0,0,2.81,15.79Z"/><path class="cls-4" d="M23.15,26.91c-2.81-.86-5.71,0-8.52-1-.17-.05-.31.19-.15.28,2.6,1.46,5.77.21,8.56,1C23.23,27.25,23.34,27,23.15,26.91Z"/><path class="cls-4" d="M34.57,27.17c-1-1.47-3.53-.8-4.79,0s-3.27,2.56-3.45,4.26a.31.31,0,0,0,.5.27c1.14-.91,1.76-2.36,3-3.27a4.61,4.61,0,0,1,2.42-1c.77-.06,1.42.29,2.19.2A.27.27,0,0,0,34.57,27.17Z"/><path class="cls-4" d="M33,31.9c-2.21,1.52-4.22.41-6.23-.78a.31.31,0,0,0-.42.45c1.44,2.08,5.24,2.55,7.09.85A.34.34,0,0,0,33,31.9Z"/><path class="cls-4" d="M32.84,10.94a11.62,11.62,0,0,0-1.26,3.29,6.46,6.46,0,0,0-.32,3.13.21.21,0,0,0,.42,0c.26-1.18.28-2.35.62-3.53.26-.93.68-1.82.89-2.75A.19.19,0,0,0,32.84,10.94Z"/><path class="cls-4" d="M33.14,10.79a7.19,7.19,0,0,0-2.6-1.59.34.34,0,0,0-.44.2,10.06,10.06,0,0,0,.51,8.07c.12.22.49.12.43-.14-.61-2.7-1.34-5-.3-7.7l-.44.2a13,13,0,0,1,2.58,1.24C33.06,11.17,33.31,11,33.14,10.79Z"/><path class="cls-4" d="M31.49,9.49c-.31-.21-.52-.54-.9-.62a.74.74,0,0,0-.8.38c-.3.47-.75,1.62-.27,2.07a.22.22,0,0,0,.34,0c.26-.31.17-.84.29-1.22s.24-.63.56-.51.36.23.58.3S31.71,9.63,31.49,9.49Z"/><path class="cls-4" d="M29.55,9.67a3.45,3.45,0,0,0,0,.85.19.19,0,0,0,.37,0,3.33,3.33,0,0,0,.12-.83C30.06,9.39,29.57,9.35,29.55,9.67Z"/><path class="cls-4" d="M33,11.59a6.7,6.7,0,0,1,1,3.82c.07,1.47-1.23,1.76-2.15,2.54a.31.31,0,0,0,.4.48c1.16-1,2.35-.93,2.4-2.71,0-1.34-.16-3.63-1.36-4.49A.25.25,0,0,0,33,11.59Z"/><path class="cls-4" d="M33.38,13.18a4.76,4.76,0,0,1-.68,3.71l.5.27c.24-1,.49-2,.72-3l-.56-.06a6.07,6.07,0,0,1-.29,2.24l.56.05a16.73,16.73,0,0,1,.17-4.18l-.68-.06a13,13,0,0,1-.58,3.26l.67.06a8.09,8.09,0,0,1,.26-3l-.66-.25c-.23.83-.5,1.63-.81,2.43l.69.06a3.87,3.87,0,0,1,.63-2.43L32.66,12a14.72,14.72,0,0,1-.87,3.44l.69.15a15,15,0,0,1,1.12-3.18l-.6.11c.29.37,0,1.31,0,1.73s-.13,1.12-.2,1.68a.36.36,0,0,0,.65.24,8.18,8.18,0,0,0,.71-1l-.63-.33a5.62,5.62,0,0,1-.28.88c-.1.22-.79,1.11,0,.68l-.5-.46c-.5,1.21,0-.21.11-.47a.37.37,0,0,0-.69-.25c-.23.59-.47,1.18-.73,1.76l.69.25.3-1.08L31.7,16c-.08.58-.15,1.15-.22,1.73a.38.38,0,0,0,.53.38,1.43,1.43,0,0,0,.71-.59l-.67-.36c-.13.2-.27.4-.41.59l.65.34.17-.26-.56-.29c0,.15.05.3.08.46l.53-.45c-.15-.45-.87-.22-.75.2s.15.43.47.55a.41.41,0,0,0,.54-.44l-.09-.46a.4.4,0,0,0-.56-.29.86.86,0,0,0-.61.9.39.39,0,0,0,.64.34,1.87,1.87,0,0,0,.62-.92c.13-.4-.44-.74-.67-.35l-.41.35.53.37c.07-.58.14-1.15.22-1.73.05-.41-.61-.58-.72-.17L31.42,17a.37.37,0,0,0,.69.25c.26-.58.5-1.16.73-1.76l-.69-.25c-.15.48-.85,1.84-.06,2.18s1.13-.74,1.32-1.2a.37.37,0,0,0-.5-.46c-.48.26-1.15,1.13-.28,1.44S34,15.63,34.15,15.1c.09-.36-.4-.72-.63-.34a8.29,8.29,0,0,1-.71,1l.66.24c.1-.91.22-1.82.31-2.74a1.41,1.41,0,0,0-.24-1.2.36.36,0,0,0-.6.1,15.47,15.47,0,0,0-1.17,3.37c-.09.4.55.52.69.15a15,15,0,0,0,.92-3.62.36.36,0,0,0-.65-.24,4.73,4.73,0,0,0-.75,3c0,.38.57.37.69.07a23,23,0,0,0,.8-2.43c.12-.44-.54-.69-.66-.25a8.83,8.83,0,0,0-.29,3.39.36.36,0,0,0,.68.06,12.93,12.93,0,0,0,.6-3.44.34.34,0,0,0-.68-.06,16.59,16.59,0,0,0-.07,4.34.29.29,0,0,0,.56,0A6.81,6.81,0,0,0,33.94,14a.3.3,0,0,0-.57,0c-.24,1-.47,2-.71,3-.07.29.31.56.51.26a4.57,4.57,0,0,0,.61-4.17C33.69,12.83,33.35,13,33.38,13.18Z"/><path class="cls-4" d="M31.4,17.72a.33.33,0,0,0,.5,0l-.49-.26a.94.94,0,0,0,.13.59c.17-.14.34-.28.5-.43a.8.8,0,0,0-.47-.18.26.26,0,0,0-.25.36.74.74,0,0,0,.34.38c.26.17.68-.12.5-.42a2,2,0,0,1-.18-.4c-.14-.36-.75-.07-.54.26l0,.06,0-.25C31.37,17.42,31.31,17.62,31.4,17.72Z"/><path class="cls-4" d="M27.23,19c-1.49-1.89-3.25-3.58-5.68-4.07-2.89-.58-6.49.14-9.32.78a.3.3,0,0,0,.1.59c2.27-.17,4.51-.75,6.79-.87,3.42-.19,5.6,1.35,7.83,3.8A.18.18,0,0,0,27.23,19Z"/><path class="cls-4" d="M26.94,19.12c-2.59.78-5.12,1.74-7.86,1.19s-4.39-2.15-6.14-4.19a.29.29,0,0,0-.48.31c2.75,5.82,9.69,5.21,14.6,3.07C27.26,19.41,27.16,19.05,26.94,19.12Z"/><path class="cls-4" d="M26.17,18.21c-.39-.26-.78-.52-1.16-.79l-.35.68,1,.69.47-.67L25.68,18c-.52-.12-.83.64-.29.8l.2-.14.14.82.51,0c0-.29,0-.57,0-.86a29.06,29.06,0,0,1-3.49,0c-.57,0-.66.85-.09.89a5.45,5.45,0,0,1,1.51.21l0-.93-1.44.07c-.63-.07-.69.85-.09,1a4.26,4.26,0,0,0,1.74.12c0-.32,0-.64,0-1a13.94,13.94,0,0,1-3.41.26.49.49,0,0,0-.09,1l.56.08-.27-.86c-.32.33-2.72-.79-3.1-.95a9.75,9.75,0,0,1-2.1-1c-.65-.5-.95-.33-.28-.77.83-.54,3.21-.32,4.09-.28a7.56,7.56,0,0,1,4.87,1.73c.22-.25.44-.49.67-.73a12.91,12.91,0,0,0-3.7-1.92l-.22,1c.36,0,3.5,1.26,1.55.48-.07.33-.15.65-.22,1a2.57,2.57,0,0,0,2.65,0c-.16.29-.31.58-.46.87l1.26.9.29-.8a12.07,12.07,0,0,1-7.58-2.08l-.19.87c1.39-.45,3.35.54,4.69.95l.22-.95a7.28,7.28,0,0,1-3-1.12l-.33.89a6.86,6.86,0,0,1,3.09,1l0-.78c-.78.53-3.14-1.12-3.68-1.47l-.33.9a14.65,14.65,0,0,1,4.63,1.56l.46-.88a55,55,0,0,1-5.58-2l-.22,1a16.51,16.51,0,0,1,4.65,1.78l.07-.86c-1.43.79-5.11-.92-6.59-1.45l-.22,1c.31.06,3.73,1.36,1.92.43-.83-.43-1.73-.74-2.58-1.15l-.35,1c2.27.53,3.63,2.67,6,2.76l-.17-1c-1.62.65-3.55-.66-4.88-1.49l-.47.9a15.68,15.68,0,0,0,5.52,1.78c.55.05.79-.83.22-1a30.12,30.12,0,0,1-4.78-1.68l.15.87c1.07-1,3.86.75,4.7,1.44.11-.31.23-.61.34-.92a9.16,9.16,0,0,1-4.39-1.86c-.12.3-.23.61-.34.92l.95.24c-.53-.21-.79.57-.3.81a3.62,3.62,0,0,0,1.92.55.48.48,0,0,0,.38-.32c.43-1.61-1.62-2.08-2.86-2.29-.52-.09-.71.63-.33.92a10.28,10.28,0,0,0,4.87,2c.54.08.7-.62.34-.92-1.32-1.07-4.41-2.78-5.93-1.39a.51.51,0,0,0,.15.86,29.78,29.78,0,0,0,4.78,1.68c.07-.33.15-.65.22-1a15.16,15.16,0,0,1-5.26-1.73c-.52-.25-1,.59-.47.9,1.76,1.09,3.83,2.41,5.91,1.57a.52.52,0,0,0-.17-1c-2.18-.08-3.65-2.21-5.76-2.7a.51.51,0,0,0-.35,1c1.08.52,3.81,2.48,4.84,1.2a.51.51,0,0,0,0-.62c-.8-1.13-2.42-1.58-3.71-1.82-.57-.11-.75.78-.22,1,1.75.63,5.56,2.42,7.37,1.41a.5.5,0,0,0,.07-.86,18.06,18.06,0,0,0-5.12-1.95c-.58-.13-.72.76-.22,1a51.78,51.78,0,0,0,5.57,2c.5.14,1-.6.46-.88a16.52,16.52,0,0,0-5.11-1.73A.5.5,0,0,0,19,17c1.18.77,3.49,2.38,4.88,1.41a.49.49,0,0,0,0-.78,7.93,7.93,0,0,0-3.57-1.19c-.46,0-.76.64-.32.89a10.85,10.85,0,0,0,3.48,1.3.49.49,0,0,0,.22-.95c-1.61-.49-3.51-1.51-5.2-1a.49.49,0,0,0-.19.87,13.29,13.29,0,0,0,8.3,2.26c.39,0,.5-.54.29-.8a3.45,3.45,0,0,0-1.67-1.19.49.49,0,0,0-.45.86l.08.07a.51.51,0,0,0,.61,0l.09-.09a.49.49,0,0,0,.06-.7,5.7,5.7,0,0,0-2.83-1.05c-.57-.13-.73.76-.22,1a3.52,3.52,0,0,0,2.17.39.51.51,0,0,0,.41-.44c.13-1.62-2.5-2.24-3.69-2.36a.5.5,0,0,0-.22,1,11.91,11.91,0,0,1,3.47,1.79c.45.33,1.1-.34.67-.73a8.48,8.48,0,0,0-5.12-2.06c-1.91-.16-4.74-.2-6.47.67a.51.51,0,0,0-.27.54c.19,1.62,7.1,4.77,8.25,3.54a.49.49,0,0,0-.27-.85l-.56-.08-.09,1A15.08,15.08,0,0,0,24.44,20c.51-.1.52-1,0-.95a4.26,4.26,0,0,1-1.74-.12l-.09,1a3,3,0,0,0,1.69-.11.47.47,0,0,0,0-.93,5.51,5.51,0,0,0-1.51-.16l-.09.89a33.12,33.12,0,0,0,3.73-.09c.53,0,.41-.77,0-.86a1.17,1.17,0,0,0-1,.12.44.44,0,0,0,.15.82l.34,0a.42.42,0,0,0,.39-.18l.22-.31a.42.42,0,0,0,0-.43c-.26-.46-.29-.51-.81-.65l-.29.8.46.11a.43.43,0,0,0,.39-.75,2.54,2.54,0,0,0-1.31-.79c-.4-.15-.75.46-.36.67l1.23.67C26.15,18.92,26.51,18.44,26.17,18.21Z"/><path class="cls-4" d="M19.25,19.57a3.45,3.45,0,0,1-3.43-1c-.67-.57-1.26-1.4-2.14-1.63-.16,0-.38.12-.27.3a8.39,8.39,0,0,0,2.89,2.63,3.48,3.48,0,0,0,3.21.25C19.87,20,19.61,19.43,19.25,19.57Z"/><path class="cls-4" d="M13,16.61c.45.3.92.58,1.38.87a.35.35,0,0,0,.4-.58,3.19,3.19,0,0,1-.72-.7l-.52.57a7.08,7.08,0,0,0,2,.77c.25,0,.33-.26.23-.43a2.7,2.7,0,0,0-1.94-1,.39.39,0,0,0-.26.7,8.09,8.09,0,0,0,.84.71c.13-.19.27-.38.4-.58a14.54,14.54,0,0,0-1.5-.82C12.93,15.94,12.68,16.42,13,16.61Z"/><path class="cls-4" d="M22.18,15.85a25.3,25.3,0,0,0-3.36-.43A1.6,1.6,0,0,0,17.4,16c-.21.27.08.57.36.55a2.79,2.79,0,0,1,2,.66c.06-.26.12-.52.17-.78a2.67,2.67,0,0,1-2.31-.5c0,.23,0,.47,0,.7.23-.21,1.9.67,2.22.8s1.08.54,1.6.31a.66.66,0,0,0,0-1.22c-.24-.12-.48.19-.37.4-.14-.27-1.14-.48-1.43-.59-.48-.19-1-.43-1.47-.58s-.93-.16-1.24.29a.45.45,0,0,0,.11.62,3.56,3.56,0,0,0,3,.62.44.44,0,0,0,.18-.78,3,3,0,0,0-2.68-.65l.36.56c.41-.52,1.52-.22,2.06-.17s1.38.11,2.07.15A.27.27,0,0,0,22.18,15.85Z"/><path class="cls-4" d="M22.43,15.87c-.86,0-3.08-1.48-3.6-.15A.21.21,0,0,0,19,16c.27,0,.51-.06.77-.06a3,3,0,0,1,1.06.26,2.86,2.86,0,0,0,1.7.25A.29.29,0,0,0,22.43,15.87Z"/><path class="cls-4" d="M21,15.59a3.94,3.94,0,0,0-2.52.15.23.23,0,0,0,.07.38,2.45,2.45,0,0,0,1,0,12.93,12.93,0,0,1,1.39,0A.27.27,0,0,0,21,15.59Z"/><path class="cls-4" d="M23.93,19.37a3.79,3.79,0,0,1-2.26,0,7.12,7.12,0,0,0-2.11-.16.26.26,0,0,0,0,.49,9.11,9.11,0,0,0,2.88.58,2.35,2.35,0,0,0,1.84-.41A.28.28,0,0,0,23.93,19.37Z"/><path class="cls-4" d="M22.67,19.4c.1.48-1.31.24-1.48.22a6.27,6.27,0,0,0-1.3,0,.21.21,0,0,0-.08.37c.73.54,3.93,1,3.38-.73C23.1,18.94,22.6,19.1,22.67,19.4Z"/><path class="cls-4" d="M25.55,18.51a10.61,10.61,0,0,0-6.67-.61.26.26,0,0,0,0,.51c2.18.31,4.27,0,6.42.71A.33.33,0,0,0,25.55,18.51Z"/><path class="cls-4" d="M16.3,18.82c-.36-.29-.79-.51-1.15-.8s-.56-.68-1-.7a.26.26,0,0,0-.27.22c-.08.49.44.87.78,1.14a2.91,2.91,0,0,0,1.43.67A.29.29,0,0,0,16.3,18.82Z"/><path class="cls-4" d="M29.89,8.56h-.07a.37.37,0,0,0-.34.22.9.9,0,0,0,.08,1,.21.21,0,0,0,.37-.12c.06-.31.26-.64.13-.95A.2.2,0,0,0,29.89,8.56Z"/><path class="cls-4" d="M30.15,9.15c.16-.1.23-.24.16-.38l0,0A.28.28,0,0,0,30,8.56c-.47.1-.54.76-.32,1.11a.21.21,0,0,0,.39-.07,1.94,1.94,0,0,1,.09-.52L29.83,9l0,.05,0-.38C29.66,8.9,29.88,9.32,30.15,9.15Z"/><path class="cls-4" d="M31.9,18.4c-.25-.33-.52-.66-.75-1a7.25,7.25,0,0,0-.71-1c-.1-.11-.32,0-.28.13a4.92,4.92,0,0,0,1.43,2.16A.2.2,0,0,0,31.9,18.4Z"/><path class="cls-4" d="M33.91,15.26a1.22,1.22,0,0,0-1,1.16.32.32,0,0,0,.29.35,1.05,1.05,0,0,0,1-.62c.15-.3-.24-.55-.49-.45a.64.64,0,0,0-.33.89.38.38,0,0,0,.68,0l.18-.4a.39.39,0,0,0-.61-.43,3.18,3.18,0,0,1-.74.57,2.13,2.13,0,0,0-.6.41.27.27,0,0,0,.12.41c.67.22,1.4-.38,1.78-.88l-.67-.35c0,.14-.1.27-.15.41l.68,0,0,.08-.5-.46-.28.23.29.36a.77.77,0,0,1,.5-.7A.28.28,0,0,0,33.91,15.26Z"/><path class="cls-4" d="M33.76,16.81c-.41.26-.79.57-1.23.8s-.82.24-1,.63a.24.24,0,0,0,.09.27c.43.24.88-.1,1.25-.33a3.48,3.48,0,0,0,1.15-1C34.15,17,34,16.69,33.76,16.81Z"/><path class="cls-4" d="M26.89,18.7a4.25,4.25,0,0,0-1.13,1.07A6.48,6.48,0,0,0,24.71,21c-.08.14.05.35.22.26a5.19,5.19,0,0,0,1.24-1.1,3.61,3.61,0,0,0,.93-1.21A.16.16,0,0,0,26.89,18.7Z"/><path class="cls-4" d="M26.9,18.91c-.46.37-.77.91-1.2,1.32s-.92.76-1.35,1.18a.16.16,0,0,0,.17.26,4.34,4.34,0,0,0,1.58-1.1,3.77,3.77,0,0,0,1.07-1.47A.17.17,0,0,0,26.9,18.91Z"/><path class="cls-4" d="M33.3,30.44c-1.44,1.6-3.23-1.18-4.44-1.73-.3-.13-.68.26-.5.55.9,1.42,4.37,4,5.52,1.48C34.05,30.37,33.53,30.18,33.3,30.44Z"/><path class="cls-4" d="M33,31.57c-1.71.86-3.19-.13-4-1.7a.54.54,0,0,0-1,.46C29,32.17,31.68,34,33.37,32,33.55,31.76,33.26,31.46,33,31.57Z"/><path class="cls-4" d="M31.69,31.59c-.55-.38-1.1-.75-1.66-1.09a3.54,3.54,0,0,0-1.61-.72.39.39,0,0,0-.33.63,3.87,3.87,0,0,0,1.4.86c.59.31,1.17.63,1.74,1S32.11,31.89,31.69,31.59Z"/><path class="cls-4" d="M31.21,31.56a7.82,7.82,0,0,1-1.59-.45,3.82,3.82,0,0,0-1.37-.49c-.25,0-.57.28-.39.56a2.34,2.34,0,0,0,1.43.82,10.55,10.55,0,0,0,1.84.38C31.66,32.45,31.72,31.65,31.21,31.56Z"/><path class="cls-4" d="M31,31.87a5.71,5.71,0,0,1-2-.16c-.52-.18-.78-.64-1.26-.85a.33.33,0,0,0-.43.27c-.09.68.64,1.16,1.18,1.39A5.06,5.06,0,0,0,31,32.7C31.48,32.65,31.46,31.85,31,31.87Z"/><path class="cls-4" d="M30.39,31.62a9.9,9.9,0,0,1-1.27-.51c-.36-.17-.7-.49-1.13-.39a.35.35,0,0,0-.28.41c.09.49.58.66,1,.86a6.49,6.49,0,0,0,1.5.45A.42.42,0,0,0,30.39,31.62Z"/><path class="cls-4" d="M29.43,30.75a3.5,3.5,0,0,0-1.31-.65c-.32-.05-.44.34-.29.56a3.45,3.45,0,0,0,1.08.84C29.4,31.81,29.92,31.07,29.43,30.75Z"/><path class="cls-4" d="M27.89,30.3a1.41,1.41,0,0,0-.44,1c0,.24.29.31.48.24.39-.14.54-.52.72-.87S28.18,29.94,27.89,30.3Z"/><path class="cls-4" d="M32.74,32.31c-.21-.06-.43-.06-.64-.12a3.7,3.7,0,0,0-.55-.14.21.21,0,0,0-.21.3,1.12,1.12,0,0,0,1.42.47C33,32.72,33,32.37,32.74,32.31Z"/><path class="cls-4" d="M31.91,27.12c0,.78.19,1.55.25,2.33.08,1,0,2,0,3a.25.25,0,0,0,.49.05,10.92,10.92,0,0,0-.34-5.47C32.26,26.85,31.9,26.9,31.91,27.12Z"/><path class="cls-4" d="M26.85,31.13l-.06.13a.47.47,0,0,0,.16.52l.1.08a.34.34,0,0,0,.51-.16l.06-.13a.42.42,0,0,0-.08-.44l-.11-.1A.35.35,0,0,0,26.85,31.13Z"/></g></g></svg>