<svg xmlns="http://www.w3.org/2000/svg" viewBox="0 0 39.59 93.37"><defs><style>.cls-1{fill:#183f6d;}</style></defs><g id="Layer_2" data-name="Layer 2"><g id="_"><path class="cls-1" d="M39.37,51.43a3.09,3.09,0,0,0-4-1.72,3,3,0,0,0-.44.22c-7.06-5.42-14.75-10-22.21-14.85a3.06,3.06,0,0,0-.59-4.76C15.48,21.89,19.75,14,23.85,6A3.09,3.09,0,1,0,22,3.72C16.63,5,11.38,6.53,6,7.67c0-.06,0-.13,0-.19a3.09,3.09,0,1,0-3.17,4.2C4.71,18.1,5.59,24.89,8,31.12a3.08,3.08,0,0,0,3.63,4.68,3,3,0,0,0,.44-.22c7.39,5,15,9.56,22.24,14.81a3.08,3.08,0,0,0,2.55,5.24C36,66.37,33,76.69,31.25,87.29a3.31,3.31,0,0,0-.42.12,3.11,3.11,0,1,0,1.25-.21C34.37,76.72,37,66.12,37.66,55.43A3.09,3.09,0,0,0,39.37,51.43ZM22.15,4.32a3,3,0,0,0,.94,1.2A129.55,129.55,0,0,0,11.48,30a3,3,0,0,0-2.81.44C6.81,24.26,6,17.66,3.83,11.6a3,3,0,0,0,.4-.11A3.08,3.08,0,0,0,6.17,8.65C11.58,7.85,16.92,5.9,22.15,4.32Z"/></g></g></svg>