<svg xmlns="http://www.w3.org/2000/svg" viewBox="0 0 115.84 64.52"><defs><style>.cls-1{fill:#8caed7;}.cls-2{fill:#4c7da2;}.cls-3{fill:#c48d53;}.cls-4{fill:#260029;}</style></defs><g id="Layer_2" data-name="Layer 2"><g id="_"><path class="cls-1" d="M35.5,11.74A31.21,31.21,0,0,1,60.71.38a32,32,0,0,1,7.62,1.75c2.18.76,4.9,1.5,6.75,2.88a53.6,53.6,0,0,1,6.18,5.29,27.93,27.93,0,0,1,5.23,6.54c1.83,3.36,2.53,7.2,3.2,11a2.67,2.67,0,0,1,0,1.61,2.57,2.57,0,0,1-1.06,1c-6.84,4.37-15,6.21-22.93,7.64Q53.42,40.28,41,41.4c-3,.27-8.82,1.17-11.33-.95-2-1.69-1.76-6.37-1.72-8.81A31.66,31.66,0,0,1,35.5,11.74Z"/><path class="cls-2" d="M89.7,38.64c-1.15,5.54-4.25,10.45-7.57,15A28.82,28.82,0,0,1,76.42,60c-2.41,1.81-5.77,2.53-8.71,3.16-9.45,2-18.95-.2-27.39-4.89-2.5-1.38-7.61-7.61-5-9,5.55-1.51,12.48-.88,18.25-1.7A187.44,187.44,0,0,0,89.7,38.64Z"/><path class="cls-3" d="M7.32,35.78c-2.25,1.41-4.6,3.38-4.69,6a6.09,6.09,0,0,0,3.1,5.09c2.75,1.73,6.17,1.88,9.41,2,24.9.66,50.43.42,73.81-8.18,4.91-1.8,9.67-4,14.39-6.22,3.38-1.62,6.8-3.33,9.52-5.91,1.84-1.75,3.4-4.29,2.66-6.71-.84-2.71-4-3.83-6.79-4.41a82.29,82.29,0,0,0-22-1.57,19,19,0,0,0,1.68,4.31c2.57,1,6.3.52,7.33,3.08.72,1.8-.63,3.75-2.14,5A26.89,26.89,0,0,1,86.33,32a130.74,130.74,0,0,1-50.15,8.68c-3.81-.1-8.15.36-11.72-.93a4.16,4.16,0,0,1-2.61-4.38c.37-1.59,2.34-2.05,3.73-2.91,1.08-.66,3.72-3.77,2.37-5.14a46.58,46.58,0,0,0-6.55,1.76A76.94,76.94,0,0,0,7.32,35.78Z"/><path class="cls-4" d="M28.94,41.43C25.37,25,33.45,6.9,50.38,2c18-5.2,39.26,8.24,39.33,27.86,0,.53.83.62.84.08C90.76,10.39,69.82-3.52,51.66.78,33.81,5,24.05,24.25,28.37,41.53,28.46,41.89,29,41.8,28.94,41.43Z"/><path class="cls-4" d="M32.42,49.88C38.74,61.5,55,66.41,67.34,63.86c11.32-2.34,20-12.45,22.46-23.52.06-.27-.37-.34-.46-.1C85.28,50.71,78.93,60.54,67.19,63c-12.52,2.64-27.31-2.49-34.37-13.38C32.67,49.4,32.3,49.65,32.42,49.88Z"/><path class="cls-4" d="M27.45,31c-2.1,1-6.6,3.64-6,6.52s5.48,3.38,7.67,3.83c.31.06.41-.43.12-.53-1.77-.65-5.51-.87-6.61-2.52-.62-.41-.7-1-.24-1.7A1.71,1.71,0,0,1,23,34.92a8.58,8.58,0,0,1,1.37-1.39,25.65,25.65,0,0,1,3.16-2.32C27.7,31.12,27.61,30.9,27.45,31Z"/><path class="cls-4" d="M28.3,41.23C47,43.55,68.54,40.18,85.85,33c.23-.1.11-.5-.14-.43-9.07,2.7-18,5.34-27.42,6.72-10,1.48-19.88,1.38-29.95,1.47A.24.24,0,0,0,28.3,41.23Z"/><path class="cls-4" d="M86.78,32.68a32.28,32.28,0,0,0,5.68-3.11c1.32-.91,3.09-2,3.63-3.66,1.17-3.53-3.62-4.25-5.88-4.82a.26.26,0,0,0-.18.48c1.07.51,2.23.62,3.32,1.05l1,.48a1.53,1.53,0,0,1,.79,2.34,3.52,3.52,0,0,1-1.57,2.5,35.78,35.78,0,0,1-7,4.35A.22.22,0,0,0,86.78,32.68Z"/><path class="cls-4" d="M28.19,26.64a70.54,70.54,0,0,0-15.55,6c-3.2,1.72-8.28,4.15-9.91,7.6-4,8.51,14.84,9.31,19.31,9.35.28,0,.33-.42,0-.44A62.67,62.67,0,0,1,10.3,47.29c-1.19-.32-3.42-.57-4.41-1.41-5.47-4.66-.8-7.66,1.87-9.53C14,32,21,29.33,28.27,27.09,28.55,27,28.48,26.57,28.19,26.64Z"/><path class="cls-4" d="M24,49.88C48.66,51.2,76,46.5,98.58,36.56c.31-.14.08-.58-.23-.47-12,4.08-23.94,8-36.5,10.22s-25.07,2.85-37.79,3.13C23.78,49.45,23.73,49.87,24,49.88Z"/><path class="cls-4" d="M101,35.64c4.18-1.32,19.74-9.84,13.37-15.57-.21-.19-.46.14-.31.34,4.21,5.88-8.81,13.19-13.16,14.91C100.67,35.39,100.76,35.7,101,35.64Z"/><path class="cls-4" d="M86.31,15.77c9,.88,17.42.1,26,3.37.19.07.36-.23.17-.33-7.47-4.15-17.88-3.63-26.17-3.33C86.16,15.49,86.12,15.75,86.31,15.77Z"/><path class="cls-4" d="M53.34,35.76a64.43,64.43,0,0,0,21.38-4.82c.2-.09.06-.37-.15-.3a88.9,88.9,0,0,1-21.3,4.7C53,35.36,53.08,35.77,53.34,35.76Z"/><path class="cls-4" d="M59.09,36.56A92.32,92.32,0,0,0,72,33.21c.16-.06.07-.35-.1-.3-4.26,1.19-8.5,2.39-12.84,3.3A.18.18,0,0,0,59.09,36.56Z"/><path class="cls-4" d="M74.28,32.66a38.92,38.92,0,0,0,14.15-7c.16-.13,0-.42-.21-.31a77.19,77.19,0,0,1-14,7C74,32.39,74.09,32.71,74.28,32.66Z"/><path class="cls-4" d="M75.51,31.13a24.47,24.47,0,0,0,3.41-1.36c.16-.08.09-.36-.1-.31a27.63,27.63,0,0,0-3.5,1.27C75.06,30.84,75.25,31.23,75.51,31.13Z"/><path class="cls-4" d="M80.47,28.94a28.09,28.09,0,0,0,8.29-5.67.17.17,0,0,0-.22-.26,71,71,0,0,1-8.22,5.62A.17.17,0,0,0,80.47,28.94Z"/><path class="cls-4" d="M80.49,27.56a53.89,53.89,0,0,0,5.05-3.21.18.18,0,0,0-.19-.29,52.64,52.64,0,0,0-5,3.12C80.09,27.32,80.26,27.69,80.49,27.56Z"/><path class="cls-4" d="M75.65,29.34c.76-.37,1.51-.74,2.25-1.13a.14.14,0,0,0-.12-.25c-.76.35-1.51.72-2.26,1.09C75.33,29.14,75.47,29.43,75.65,29.34Z"/><path class="cls-4" d="M28.17,35a59.72,59.72,0,0,0,18.2.22c.2,0,.14-.31,0-.29a77.26,77.26,0,0,1-18.11-.31C28,34.53,27.93,34.91,28.17,35Z"/><path class="cls-4" d="M32.21,36.82a92.48,92.48,0,0,0,10.79,0c.16,0,.15-.28,0-.28-3.59,0-7.17,0-10.75-.06C32,36.46,32,36.81,32.21,36.82Z"/><path class="cls-4" d="M47.27,36a25.18,25.18,0,0,0,3.35-.34c.17,0,.18-.32,0-.32a24.24,24.24,0,0,0-3.41.27C46.94,35.68,47,36.06,47.27,36Z"/><path class="cls-4" d="M45.88,36.76a19.42,19.42,0,0,0,6.84-.3.15.15,0,0,0,0-.29,25.51,25.51,0,0,1-6.76.27A.16.16,0,0,0,45.88,36.76Z"/><path class="cls-4" d="M58.82,33.71a53.12,53.12,0,0,0,14.83-4.55.18.18,0,0,0-.15-.32,83.47,83.47,0,0,1-14.75,4.51A.18.18,0,0,0,58.82,33.71Z"/><path class="cls-4" d="M70.59,28.62a13.53,13.53,0,0,0,4.61-1.68.16.16,0,1,0-.14-.29,25.93,25.93,0,0,1-4.53,1.6C70.3,28.3,70.36,28.66,70.59,28.62Z"/><path class="cls-4" d="M76.7,27.24a21.7,21.7,0,0,0,9-4.69.16.16,0,0,0-.21-.25,34.71,34.71,0,0,1-8.81,4.59C76.42,27,76.48,27.3,76.7,27.24Z"/><path class="cls-4" d="M30.74,34.13a64.63,64.63,0,0,0,15.6-.5c.21,0,.15-.34-.06-.33a119.83,119.83,0,0,1-15.51.52A.16.16,0,0,0,30.74,34.13Z"/><path class="cls-4" d="M36.66,33.15a45.81,45.81,0,0,0,5.85-.35.15.15,0,0,0,0-.3,44,44,0,0,0-5.85.29A.18.18,0,0,0,36.66,33.15Z"/><path class="cls-4" d="M29,39.54a28.42,28.42,0,0,0,12.67.77.15.15,0,0,0,0-.29,32.65,32.65,0,0,1-12.49-.82C28.92,39.13,28.79,39.48,29,39.54Z"/><path class="cls-4" d="M31.14,39a37.81,37.81,0,0,0,8,.91c.17,0,.2-.26,0-.27a50.18,50.18,0,0,1-8-.94C31,38.61,31,38.91,31.14,39Z"/><path class="cls-4" d="M54.51,36.9a14.68,14.68,0,0,1,2.88-.31c.19,0,.14-.27,0-.31a6.23,6.23,0,0,0-2.93.3C54.25,36.64,54.3,37,54.51,36.9Z"/><path class="cls-4" d="M42.9,37.77c1.14,0,2.3,0,3.44-.06.16,0,.15-.27,0-.28-1.12-.07-2.27,0-3.39,0C42.73,37.46,42.7,37.77,42.9,37.77Z"/><path class="cls-4" d="M43.67,36.71c.58,0,1.16,0,1.74-.08a.15.15,0,0,0,0-.3c-.56,0-1.13,0-1.7,0C43.48,36.37,43.44,36.72,43.67,36.71Z"/><path class="cls-4" d="M47.76,34.81c2.63-.17,5.33-.33,7.93-.75.17,0,.17-.31,0-.3-2.65.07-5.34.41-8,.73C47.5,34.51,47.56,34.82,47.76,34.81Z"/><path class="cls-4" d="M53.86,33.36c.79-.14,1.58-.27,2.36-.46a.15.15,0,0,0,0-.29c-.79.09-1.58.25-2.37.4A.18.18,0,0,0,53.86,33.36Z"/><path class="cls-4" d="M69.61,36.6A61.67,61.67,0,0,0,84,32.13c.18-.08,0-.34-.13-.28-4.73,1.69-9.4,3.25-14.28,4.47C69.38,36.36,69.42,36.64,69.61,36.6Z"/><path class="cls-4" d="M77.39,33.45c1.84-.58,3.73-1.1,5.52-1.83a.16.16,0,0,0-.1-.3c-1.89.47-3.73,1.18-5.58,1.79C77,33.19,77.17,33.53,77.39,33.45Z"/><path class="cls-4" d="M42.5,47.39a143.65,143.65,0,0,0,34.56-6.46c.17-.06.08-.37-.1-.32A178.59,178.59,0,0,1,42.44,47C42.2,47.05,42.27,47.41,42.5,47.39Z"/><path class="cls-4" d="M58.84,43.48a16,16,0,0,0,6.47-1.25c.16-.07.08-.37-.1-.31a26.71,26.71,0,0,1-6.39,1.2C58.62,43.13,58.63,43.48,58.84,43.48Z"/><path class="cls-4" d="M79,41.1c8.76-2.23,17.55-4.72,25.5-9.15,2.79-1.56,10.55-5,8.86-9.21-.1-.25-.54-.12-.47.15,1.44,5-11.49,10.1-14.9,11.57a146.6,146.6,0,0,1-19.06,6.29C78.7,40.81,78.76,41.16,79,41.1Z"/><path class="cls-4" d="M4,41.53c.68,3.92,5.58,5,9,5.68,6.72,1.34,14.23,1,21.06.81.22,0,.26-.34,0-.35C28,47.34,6.14,50,4.33,41.47A.19.19,0,0,0,4,41.53Z"/><path class="cls-4" d="M35,48a7.77,7.77,0,0,0,4.12-.67c.16-.08.09-.37-.1-.32a11.45,11.45,0,0,1-4,.59A.2.2,0,0,0,35,48Z"/><path class="cls-4" d="M5.05,40.24a55.75,55.75,0,0,1,14.31-8.79c.16-.07.08-.35-.1-.3A35.77,35.77,0,0,0,4.82,40C4.65,40.12,4.87,40.39,5.05,40.24Z"/><path class="cls-4" d="M7.41,39.1C5.91,40.31,4.58,42.37,6.33,44c2.08,1.88,5.64,2.39,8.31,2.09.19,0,.18-.34,0-.34A15.71,15.71,0,0,1,9.27,45a6.62,6.62,0,0,1-2.48-1.22c-1.76-1.86-.29-3.12.86-4.36A.18.18,0,0,0,7.41,39.1Z"/><path class="cls-4" d="M20.35,46.9A170.05,170.05,0,0,0,48,45.16c.24,0,.17-.38-.07-.36-9.17.89-18.28,1.71-27.51,1.77C20.17,46.58,20.14,46.9,20.35,46.9Z"/><path class="cls-4" d="M49,45.28c2.07-.3,4.11-.69,6.15-1.16A.16.16,0,0,0,55,43.8q-3.1.41-6.15,1.09A.2.2,0,0,0,49,45.28Z"/><path class="cls-4" d="M67.43,42C79.26,40,91.37,37,102.3,31.9c.2-.09.06-.37-.14-.3-11.48,4.07-22.78,7.88-34.79,10.1A.17.17,0,0,0,67.43,42Z"/><path class="cls-4" d="M90,17.24a16.76,16.76,0,0,0,1.74-.08.17.17,0,0,0,0-.33,16.1,16.1,0,0,0-1.7,0C89.75,16.86,89.71,17.25,90,17.24Z"/><path class="cls-4" d="M93.65,17.34c3.42-.13,6.74.18,10.15.35a.17.17,0,0,0,0-.33A37.87,37.87,0,0,0,93.63,17C93.43,17,93.44,17.34,93.65,17.34Z"/><path class="cls-4" d="M92.67,18.91a2.46,2.46,0,0,0,1.88.14c.18-.06.08-.32-.09-.3a3,3,0,0,1-1.65-.22C92.57,18.42,92.43,18.8,92.67,18.91Z"/><path class="cls-4" d="M96.67,19.22c1.31.12,2.54.44,3.83.65.18,0,.24-.25.07-.31a14.92,14.92,0,0,0-3.86-.7A.18.18,0,0,0,96.67,19.22Z"/><path class="cls-4" d="M106.58,21.43A4.12,4.12,0,0,1,108.29,23c.7,1.44-.77,2.47-1.82,3.15a18.62,18.62,0,0,1-4.91,2.07.17.17,0,0,0,.06.33c2.3-.24,5.52-1.57,6.91-3.53,1.23-1.73-.31-3.11-1.82-3.86C106.56,21.09,106.43,21.34,106.58,21.43Z"/><path class="cls-4" d="M105.12,19.73c2,.14,7.42,1.48,6,4.59-.68,1.55-2.49,2.39-3.66,3.52-.14.14,0,.42.2.31,1.54-.93,4.44-2.76,4.19-4.91-.33-2.77-4.55-3.75-6.75-3.82C105,19.41,104.91,19.72,105.12,19.73Z"/><path class="cls-4" d="M9.71,37.71a22.16,22.16,0,0,0,3.57-1.89.15.15,0,0,0-.13-.27,22.13,22.13,0,0,0-3.62,1.87C9.35,37.53,9.54,37.78,9.71,37.71Z"/><path class="cls-4" d="M12.44,37.37c-2.06,1.44-7.52,4.41-3,6.38,2.92,1.26,7.26,1.16,10.39,1.42a54.44,54.44,0,0,0,11,0c.21,0,.15-.33-.05-.31A75.2,75.2,0,0,1,17,44.43a28.33,28.33,0,0,1-5.37-.73c-1.78-.57-3.3-1.93-2-3.82.53-.78,2.27-1.71,3-2.26C12.82,37.49,12.61,37.26,12.44,37.37Z"/><path class="cls-4" d="M36.45,42.65a96.87,96.87,0,0,0,17.93-1.1c.2,0,.14-.3-.05-.29-6,.41-11.86,1-17.85,1.06C36.27,42.32,36.24,42.64,36.45,42.65Z"/><path class="cls-4" d="M58,41.17a12.15,12.15,0,0,0,1.7-.33c.2-.07.07-.33-.11-.33a11.63,11.63,0,0,0-1.65.29A.19.19,0,0,0,58,41.17Z"/><path class="cls-4" d="M61.8,40.68a72.05,72.05,0,0,0,13-2.77c.16,0,.07-.32-.09-.28a107.62,107.62,0,0,1-13,2.75A.15.15,0,0,0,61.8,40.68Z"/><path class="cls-4" d="M22.67,32.89C20.9,34,18.83,35.64,19.12,38s3.57,3.13,5.6,3.39c.19,0,.26-.27.08-.32-1.89-.44-5.32-1-5.26-3.53.05-2,1.87-3.25,3.33-4.35C23,33.07,22.85,32.78,22.67,32.89Z"/><path class="cls-4" d="M17.78,38.06a1.85,1.85,0,0,0,1.72,2.46c.19,0,.16-.28,0-.31a1.62,1.62,0,0,1-1.39-2A.17.17,0,0,0,17.78,38.06Z"/><path class="cls-4" d="M24.27,31.68c1.13-.53,2.27-1,3.36-1.63a.14.14,0,0,0-.12-.25c-1.16.45-2.27,1-3.39,1.56A.18.18,0,0,0,24.27,31.68Z"/><path class="cls-4" d="M23.41,29.64A8.5,8.5,0,0,1,24.74,29c.46-.16,1-.23,1.41-.39a.16.16,0,0,0,0-.3,5.62,5.62,0,0,0-2.83,1C23.1,29.45,23.23,29.75,23.41,29.64Z"/><path class="cls-4" d="M80,36a51.28,51.28,0,0,0,14.81-6.64.18.18,0,0,0-.19-.3,76.6,76.6,0,0,1-14.68,6.63C79.75,35.75,79.8,36.06,80,36Z"/><path class="cls-4" d="M97,26.4c1.11-1.47.39-4.4-1.69-4.55a.16.16,0,0,0-.07.31c1.54.68,2.56,2.49,1.47,4A.18.18,0,0,0,97,26.4Z"/><path class="cls-4" d="M47.69,49.61a67.46,67.46,0,0,0,19.73-3.23c.17-.06.07-.35-.1-.31a99.74,99.74,0,0,1-19.65,3.14C47.45,49.22,47.46,49.61,47.69,49.61Z"/><path class="cls-4" d="M50.52,50.59a146.49,146.49,0,0,0,18.71-3.52c.2-.06.15-.38-.06-.34C62.94,48,56.75,49.29,50.46,50.26,50.25,50.29,50.31,50.61,50.52,50.59Z"/><path class="cls-4" d="M67.66,47c4-.92,8-1.72,11.91-2.91.21-.07.17-.39-.06-.35-4,.73-8,1.89-11.92,2.89C67.36,46.65,67.42,47,67.66,47Z"/><path class="cls-4" d="M64.69,48.68a64.36,64.36,0,0,0,14.7-3.93c.21-.08.06-.37-.14-.3a99.63,99.63,0,0,1-14.63,3.84A.2.2,0,0,0,64.69,48.68Z"/><path class="cls-4" d="M61.1,50.84c5.47-1.25,11-2.33,16.41-3.86a.18.18,0,0,0-.06-.35c-5.51,1-11,2.52-16.41,3.82C60.8,50.51,60.86,50.89,61.1,50.84Z"/><path class="cls-4" d="M65.19,51.41a86.91,86.91,0,0,0,20.46-6.24c.2-.09.06-.37-.14-.3A112.45,112.45,0,0,1,65.11,51,.21.21,0,0,0,65.19,51.41Z"/><path class="cls-4" d="M78,46.53a48.54,48.54,0,0,0,11-3.66.18.18,0,0,0-.15-.32c-3.62,1.29-7.17,2.59-10.87,3.62C77.67,46.23,77.72,46.58,78,46.53Z"/><path class="cls-4" d="M77.4,45.45a43.14,43.14,0,0,0,11.49-3.71.17.17,0,0,0-.14-.3,86,86,0,0,1-11.41,3.64C77.11,45.13,77.17,45.5,77.4,45.45Z"/><path class="cls-4" d="M78.59,44.31a50.79,50.79,0,0,0,8.81-3.07.19.19,0,0,0-.16-.34c-2.93,1-5.84,2.07-8.76,3.08C78.29,44,78.4,44.36,78.59,44.31Z"/><path class="cls-4" d="M36.27,50.52a38.57,38.57,0,0,0,14.92-2c.17-.06.08-.35-.09-.3a53.19,53.19,0,0,1-14.8,1.93C36.07,50.15,36,50.5,36.27,50.52Z"/><path class="cls-4" d="M39.25,51.36c4.51-.5,9.06-.9,13.54-1.61.21,0,.15-.33,0-.32-4.54.34-9.05,1-13.56,1.52C38.92,51,39,51.38,39.25,51.36Z"/><path class="cls-4" d="M39.14,52.62C44.55,52,50,51.36,55.32,50.34a.17.17,0,0,0-.06-.34c-5.4.68-10.79,1.53-16.18,2.27C38.85,52.3,38.91,52.65,39.14,52.62Z"/><path class="cls-4" d="M41.35,53.4A180.28,180.28,0,0,0,62.51,50a.16.16,0,0,0-.06-.31c-7,1.22-14.07,2.43-21.17,3.32C41,53,41.1,53.43,41.35,53.4Z"/><path class="cls-4" d="M44.55,53.88a120.9,120.9,0,0,0,18.59-3.23c.19,0,.14-.35-.06-.31-6.18,1.25-12.32,2.5-18.59,3.22C44.28,53.59,44.34,53.91,44.55,53.88Z"/><path class="cls-4" d="M45.65,55.11c1.24-.11,2.49-.21,3.73-.37.2,0,.13-.31-.05-.3-1.26.06-2.5.18-3.75.29C45.33,54.75,45.4,55.14,45.65,55.11Z"/><path class="cls-4" d="M51.08,54.58c5.12-.93,10.29-1.75,15.38-2.86a.16.16,0,0,0-.06-.32c-5.15.79-10.27,1.86-15.38,2.83A.18.18,0,0,0,51.08,54.58Z"/><path class="cls-4" d="M51.92,55.41A126.46,126.46,0,0,0,71.77,51.5c.2,0,.15-.36,0-.31a197.28,197.28,0,0,1-19.86,3.88C51.64,55.1,51.7,55.44,51.92,55.41Z"/><path class="cls-4" d="M72.62,50.44c2.27-.49,4.55-1,6.8-1.54.19,0,.15-.35,0-.31-2.29.42-4.55,1-6.82,1.48C72.32,50.13,72.38,50.49,72.62,50.44Z"/><path class="cls-4" d="M80.87,48.1a43.56,43.56,0,0,0,6.61-2.68.16.16,0,0,0-.13-.29C85.13,46,83,47,80.72,47.77,80.49,47.85,80.65,48.17,80.87,48.1Z"/><path class="cls-4" d="M32.7,50a17.2,17.2,0,0,0,6.95.66.17.17,0,0,0,0-.33,35.06,35.06,0,0,1-6.85-.69C32.57,49.61,32.49,50,32.7,50Z"/><path class="cls-4" d="M32.93,51.05a29.67,29.67,0,0,0,7.17.25c.17,0,.16-.3,0-.3-2.38,0-4.75-.19-7.12-.39A.22.22,0,0,0,32.93,51.05Z"/><path class="cls-4" d="M34.31,52.1c2,.07,4,.11,6.07,0,.2,0,.25-.31,0-.32-2-.12-4-.12-6.07-.1C34.1,51.71,34.05,52.09,34.31,52.1Z"/><path class="cls-4" d="M34.7,53.1a28.52,28.52,0,0,0,7,.19c.18,0,.17-.32,0-.32a59.46,59.46,0,0,1-6.93-.25A.19.19,0,0,0,34.7,53.1Z"/><path class="cls-4" d="M36.6,54.3a31.45,31.45,0,0,0,6.65,0c.18,0,.17-.32,0-.31-2.21.08-4.4.06-6.61,0A.18.18,0,0,0,36.6,54.3Z"/><path class="cls-4" d="M38.18,55.32a24.39,24.39,0,0,0,9-.28.17.17,0,0,0-.06-.33,54.13,54.13,0,0,1-8.91.26A.18.18,0,0,0,38.18,55.32Z"/><path class="cls-4" d="M40,56.82A34,34,0,0,0,48.57,56a.17.17,0,0,0-.06-.33,82.18,82.18,0,0,1-8.44.77C39.82,56.43,39.77,56.81,40,56.82Z"/><path class="cls-4" d="M41.67,58.32a6.63,6.63,0,0,0,1.26-.1.18.18,0,0,0,0-.36,7.45,7.45,0,0,0-1.25,0C41.41,57.89,41.42,58.32,41.67,58.32Z"/><path class="cls-4" d="M45.69,57.55a22.08,22.08,0,0,0,7.12-1.06c.17-.05.13-.32-.05-.28a39.44,39.44,0,0,1-7.08,1C45.48,57.21,45.49,57.54,45.69,57.55Z"/><path class="cls-4" d="M49.19,55.76c.7,0,1.41,0,2.11,0,.17,0,.15-.29,0-.3-.69-.05-1.38,0-2.07,0C49,55.43,49,55.76,49.19,55.76Z"/><path class="cls-4" d="M50.07,54.94c.17,0,.19-.26,0-.26S49.9,54.94,50.07,54.94Z"/><path class="cls-4" d="M54,56.45c1.57-.26,3.14-.5,4.69-.83a.15.15,0,0,0-.05-.29c-1.58.2-3.13.49-4.7.77A.18.18,0,0,0,54,56.45Z"/><path class="cls-4" d="M55,57.16a21.14,21.14,0,0,0,9.23-1.9c.18-.08,0-.34-.14-.28A33,33,0,0,1,55,56.83C54.77,56.84,54.78,57.15,55,57.16Z"/><path class="cls-4" d="M73,51.55a26.37,26.37,0,0,0,8.66-2c.2-.09.06-.36-.14-.3a40.22,40.22,0,0,1-8.59,2C72.69,51.22,72.76,51.56,73,51.55Z"/><path class="cls-4" d="M82.31,48.9c.21,0,.25-.33,0-.33S82.1,48.9,82.31,48.9Z"/><path class="cls-4" d="M59.44,63.42A28.2,28.2,0,0,0,70,61.09c.15-.07.07-.33-.09-.28a44.94,44.94,0,0,1-10.48,2.3C59.18,63.12,59.24,63.43,59.44,63.42Z"/><path class="cls-4" d="M61.75,61.92c2.07-.28,4.17-.57,6.21-1a.16.16,0,0,0,0-.32c-2.08.22-4.16.6-6.22,1A.18.18,0,0,0,61.75,61.92Z"/><path class="cls-4" d="M69.34,61.82A16.73,16.73,0,0,0,76,59.06c.15-.11,0-.35-.17-.27a28,28,0,0,1-6.57,2.68C69.06,61.52,69.11,61.87,69.34,61.82Z"/><path class="cls-4" d="M69.38,60.14a23.25,23.25,0,0,0,6.44-1.82c.15-.07.08-.34-.1-.29-2.13.64-4.21,1.33-6.4,1.76A.18.18,0,0,0,69.38,60.14Z"/><path class="cls-4" d="M75.73,57.73c1.08-.39,2.2-.74,3.24-1.23.16-.08.08-.37-.11-.32-1.12.31-2.21.79-3.3,1.2C75.33,57.47,75.5,57.81,75.73,57.73Z"/><path class="cls-4" d="M77.59,56.16c.21,0,.24-.33,0-.33S77.38,56.16,77.59,56.16Z"/><path class="cls-4" d="M53.66,63.33a15.44,15.44,0,0,0,6.2-.44c.18,0,.14-.33,0-.29a21,21,0,0,1-6.12.41A.16.16,0,0,0,53.66,63.33Z"/><path class="cls-4" d="M53.72,62.42c1.54-.1,3.08-.17,4.61-.33.16,0,.15-.3,0-.29-1.55,0-3.1.18-4.65.29C53.45,62.11,53.51,62.43,53.72,62.42Z"/><path class="cls-4" d="M59.16,62.12c.81,0,1.63,0,2.44-.11.16,0,.15-.28,0-.28-.82,0-1.63.05-2.45.08C59,61.82,59,62.13,59.16,62.12Z"/><path class="cls-4" d="M62.88,60.52a18.4,18.4,0,0,0,5.67-1.33c.17-.07,0-.32-.11-.25a19.06,19.06,0,0,1-5.6,1.32C62.68,60.28,62.72,60.53,62.88,60.52Z"/><path class="cls-4" d="M58.46,61.59a10,10,0,0,1,3-.58c.17,0,.16-.3,0-.31a7.41,7.41,0,0,0-3.08.58C58.11,61.37,58.26,61.67,58.46,61.59Z"/><path class="cls-4" d="M68.79,58.82c1.21-.33,2.43-.63,3.62-1,.18-.05.14-.34,0-.3-1.22.28-2.42.64-3.63,1C68.52,58.54,68.58,58.87,68.79,58.82Z"/><path class="cls-4" d="M61,55.14c2.67-.51,5.36-.91,8-1.35a.14.14,0,0,0,0-.28c-2.71.3-5.39.78-8.06,1.3A.17.17,0,0,0,61,55.14Z"/><path class="cls-4" d="M65.79,55.61c.82-.19,1.67-.35,2.48-.6a.15.15,0,0,0,0-.3c-.84.13-1.67.36-2.5.55A.18.18,0,0,0,65.79,55.61Z"/><path class="cls-4" d="M71.08,53.39c.83-.2,1.66-.39,2.49-.61a.15.15,0,0,0-.06-.29c-.83.17-1.66.37-2.49.56C70.81,53.1,70.87,53.44,71.08,53.39Z"/><path class="cls-4" d="M83.24,48.07c.56-.11,1.12-.21,1.67-.33a.16.16,0,0,0,0-.32c-.57.08-1.12.18-1.68.28A.19.19,0,0,0,83.24,48.07Z"/><path class="cls-4" d="M36.88,50a31.59,31.59,0,0,0,10.06-1c.19,0,.15-.34,0-.3a47.11,47.11,0,0,1-10,1C36.7,49.64,36.67,50,36.88,50Z"/><path class="cls-4" d="M35,50.19a60.27,60.27,0,0,0,11.45-1,.16.16,0,0,0-.05-.31A100.55,100.55,0,0,1,35,49.81C34.8,49.81,34.76,50.19,35,50.19Z"/><path class="cls-4" d="M37.45,51c3.18-.21,6.38-.36,9.54-.7.18,0,.18-.33,0-.33-3.2.11-6.4.42-9.6.66C37.14,50.61,37.21,51,37.45,51Z"/><path class="cls-4" d="M38.44,51.69c3.4-.29,6.82-.51,10.21-.93.2,0,.14-.32-.06-.31-3.41.17-6.81.55-10.22.85C38.12,51.33,38.19,51.71,38.44,51.69Z"/><path class="cls-4" d="M39.61,52.35c2.32-.22,4.66-.36,7-.71.21,0,.15-.31-.05-.3-2.32.1-4.65.42-7,.65C39.31,52,39.38,52.38,39.61,52.35Z"/><path class="cls-4" d="M39.76,53.42a33.76,33.76,0,0,0,6.65-.72.16.16,0,0,0,0-.31c-2.2.34-4.39.57-6.61.72A.16.16,0,0,0,39.76,53.42Z"/><path class="cls-4" d="M45,50.54a63.09,63.09,0,0,0,9.29-1.17.15.15,0,0,0-.05-.29,83,83,0,0,1-9.29,1.14C44.71,50.23,44.77,50.56,45,50.54Z"/><path class="cls-4" d="M48.56,49.32c4.27-.51,8.58-.93,12.83-1.62.21,0,.15-.34-.06-.32-4.29.36-8.57,1-12.84,1.54C48.23,49,48.3,49.35,48.56,49.32Z"/><path class="cls-4" d="M51.44,49.43a44.56,44.56,0,0,0,9.06-1,.18.18,0,0,0-.06-.35c-3,.4-6,.81-9,1C51.23,49.1,51.25,49.43,51.44,49.43Z"/><path class="cls-4" d="M50.86,50.57a63.39,63.39,0,0,0,11.77-1.85.15.15,0,0,0-.06-.29A91.46,91.46,0,0,1,50.8,50.27C50.61,50.28,50.66,50.58,50.86,50.57Z"/><path class="cls-4" d="M52.51,51.09a46.1,46.1,0,0,0,8.88-1.53c.18-.06.14-.34,0-.3a70.48,70.48,0,0,1-8.89,1.49C52.23,50.77,52.29,51.11,52.51,51.09Z"/><path class="cls-4" d="M59.81,49.39c2.34-.43,4.69-.82,7-1.3a.14.14,0,0,0,0-.28c-2.35.38-4.69.84-7,1.27A.16.16,0,0,0,59.81,49.39Z"/><path class="cls-4" d="M62.64,47.85C66,47,69.38,46.36,72.8,45.8c.2,0,.14-.32,0-.3a75,75,0,0,0-10.17,2C62.36,47.57,62.42,47.91,62.64,47.85Z"/><path class="cls-4" d="M65.51,46.57c3.28-.63,6.58-1.21,9.85-1.93a.15.15,0,0,0,0-.29c-3.3.54-6.58,1.24-9.86,1.88A.17.17,0,0,0,65.51,46.57Z"/><path class="cls-4" d="M66.85,46.32c4.63-1.09,9.29-2.11,13.91-3.29.19-.05.14-.35-.05-.31-4.66,1-9.29,2.17-13.92,3.27C66.58,46,66.63,46.37,66.85,46.32Z"/><path class="cls-4" d="M74.09,45.27c2.81-.81,5.62-1.58,8.4-2.47.16,0,.08-.33-.09-.28-2.8.74-5.58,1.6-8.36,2.42C73.83,45,73.89,45.33,74.09,45.27Z"/><path class="cls-4" d="M58.35,49a89.41,89.41,0,0,0,12.36-2.32c.18,0,.14-.33,0-.29-4.11.88-8.2,1.71-12.37,2.25C58.05,48.65,58.12,49,58.35,49Z"/><path class="cls-4" d="M59.74,50c3.63-.61,7.26-1.28,10.82-2.22.19,0,.14-.34,0-.3-3.61.73-7.21,1.52-10.84,2.15A.19.19,0,0,0,59.74,50Z"/><path class="cls-4" d="M59.67,50.55c3.58-.59,7.16-1.24,10.7-2,.19,0,.14-.34-.05-.3-3.58.56-7.15,1.23-10.7,1.95A.17.17,0,0,0,59.67,50.55Z"/><path class="cls-4" d="M67.3,47.85a72.16,72.16,0,0,0,9-2c.19,0,.15-.36,0-.31-3,.63-6,1.34-9,1.86A.2.2,0,0,0,67.3,47.85Z"/><path class="cls-4" d="M69.66,46.58c2.54-.59,5.1-1.15,7.62-1.8.19-.05.15-.34,0-.3-2.55.53-5.09,1.17-7.63,1.76C69.39,46.29,69.45,46.63,69.66,46.58Z"/><path class="cls-4" d="M56.25,51.66c3.74-.61,7.5-1.2,11.23-1.92.18,0,.13-.32-.06-.29-3.75.54-7.49,1.22-11.23,1.87A.17.17,0,1,0,56.25,51.66Z"/><path class="cls-4" d="M50.7,51.57q3.84-.28,7.67-.61c.19,0,.13-.3,0-.28-2.56.16-5.12.36-7.68.56C50.42,51.25,50.48,51.59,50.7,51.57Z"/><path class="cls-4" d="M36.16,52.68a66,66,0,0,0,11.21-1.35.14.14,0,0,0,0-.27,104.55,104.55,0,0,1-11.17,1.25C35.94,52.32,36,52.69,36.16,52.68Z"/><path class="cls-4" d="M38.07,53.42A62.56,62.56,0,0,0,48.2,52.1a.15.15,0,1,0-.05-.29c-3.38.46-6.73,1-10.14,1.26C37.79,53.09,37.85,53.43,38.07,53.42Z"/><path class="cls-4" d="M38.28,53.86A62.83,62.83,0,0,0,47.67,53a.14.14,0,0,0-.05-.28c-3.1.38-6.18.72-9.31.83C38.09,53.52,38.06,53.87,38.28,53.86Z"/><path class="cls-4" d="M39.51,54.66c2.54-.27,5.09-.49,7.62-.84a.15.15,0,0,0-.05-.29c-2.54.2-5.08.54-7.62.82C39.26,54.37,39.31,54.68,39.51,54.66Z"/><path class="cls-4" d="M39.59,55.46a35.75,35.75,0,0,0,8.5-1.09c.2-.06.15-.35-.05-.31a50.72,50.72,0,0,1-8.41,1C39.39,55.1,39.35,55.46,39.59,55.46Z"/><path class="cls-4" d="M40.91,56.07a36.83,36.83,0,0,0,9.53-1.19c.19-.06.15-.35,0-.31a77.72,77.72,0,0,1-9.49,1.12C40.68,55.7,40.7,56.08,40.91,56.07Z"/><path class="cls-4" d="M42.8,57.48c.8,0,1.6-.06,2.4-.13.16,0,.15-.28,0-.28-.82,0-1.63.06-2.45.1C42.54,57.18,42.6,57.49,42.8,57.48Z"/><path class="cls-4" d="M43.94,58.4a10.76,10.76,0,0,0,3.71.13c.17,0,.17-.32,0-.31A22.51,22.51,0,0,1,44,58C43.74,58,43.72,58.35,43.94,58.4Z"/><path class="cls-4" d="M45.86,59.38a4.77,4.77,0,0,0,1.25-.06.18.18,0,0,0,0-.36,5.9,5.9,0,0,0-1.26,0C45.58,59,45.6,59.37,45.86,59.38Z"/><path class="cls-4" d="M48.6,59.18a15.68,15.68,0,0,0,3.91-.53c.18,0,.14-.31,0-.27a22.53,22.53,0,0,1-3.84.48C48.42,58.87,48.39,59.19,48.6,59.18Z"/><path class="cls-4" d="M47.58,60.3a20.27,20.27,0,0,0,6.85-.64.15.15,0,0,0-.06-.29,50.84,50.84,0,0,1-6.76.61C47.41,60,47.37,60.29,47.58,60.3Z"/><path class="cls-4" d="M50,61.48a11.49,11.49,0,0,0,5.72-.6c.17-.06.08-.34-.1-.3a27.61,27.61,0,0,1-5.59.56A.17.17,0,0,0,50,61.48Z"/><path class="cls-4" d="M83,49.66a23.39,23.39,0,0,0-2.52,1.22.15.15,0,0,0,.13.28A24.42,24.42,0,0,0,83.14,50,.19.19,0,0,0,83,49.66Z"/><path class="cls-4" d="M81.73,51.42c-1.14.38-2.28.74-3.4,1.2-.16.06-.07.34.1.29,1.17-.33,2.31-.76,3.46-1.17C82.11,51.66,82,51.35,81.73,51.42Z"/><path class="cls-4" d="M80.79,52.84a22.5,22.5,0,0,0-2.27.78.17.17,0,0,0,.1.32A21.94,21.94,0,0,0,81,53.19C81.19,53.11,81,52.77,80.79,52.84Z"/><path class="cls-4" d="M79.28,55c.18,0,.21-.28,0-.28S79.1,55,79.28,55Z"/><path class="cls-4" d="M69.74,47c2.21-.6,4.44-1.18,6.6-2,.19-.07.09-.39-.11-.34-2.22.49-4.4,1.19-6.57,1.87C69.4,46.62,69.46,47.05,69.74,47Z"/><path class="cls-4" d="M69,48.37l5.44-1.47c.16,0,.12-.3,0-.25l-5.44,1.46C68.74,48.15,68.79,48.42,69,48.37Z"/><path class="cls-4" d="M70.19,47.54c3.14-.76,6.3-1.47,9.41-2.34.19-.05.15-.35,0-.31-3.16.69-6.29,1.53-9.42,2.32C69.92,47.26,70,47.59,70.19,47.54Z"/><path class="cls-4" d="M72,47.93c2.46-.76,5-1.45,7.4-2.3.17-.06.08-.36-.1-.31-2.48.66-4.92,1.49-7.36,2.25C71.71,47.64,71.77,48,72,47.93Z"/><path class="cls-4" d="M64,50.2l3.43-1.14c.16-.05,0-.3-.12-.24l-3.43,1.11C63.67,50,63.8,50.25,64,50.2Z"/><path class="cls-4" d="M55,53.13c4.65-1,9.34-2,13.92-3.23.21-.06.16-.38-.06-.34-4.68.87-9.31,2.07-13.93,3.23C54.69,52.85,54.74,53.18,55,53.13Z"/><path class="cls-4" d="M50.53,53.47c1.7-.18,3.39-.35,5.08-.56.19,0,.13-.3,0-.28-1.69.15-3.39.35-5.08.54C50.28,53.19,50.33,53.49,50.53,53.47Z"/><path class="cls-4" d="M57,53.91c2.13-.36,4.26-.67,6.37-1.12a.17.17,0,0,0-.06-.33c-2.14.28-4.25.71-6.37,1.09A.18.18,0,0,0,57,53.91Z"/><path class="cls-4" d="M29.31,25.42A22.3,22.3,0,0,0,39.45,26a.15.15,0,0,0-.05-.29,26.28,26.28,0,0,1-9.95-.65C29.21,25,29.06,25.35,29.31,25.42Z"/><path class="cls-4" d="M32.78,27.5a26.69,26.69,0,0,0,8.27-.36.15.15,0,0,0-.06-.3,32,32,0,0,1-8.18.33A.17.17,0,0,0,32.78,27.5Z"/><path class="cls-4" d="M42,26.53c3.57-.64,7.15-1.22,10.7-2a.15.15,0,0,0-.05-.3c-3.59.55-7.15,1.27-10.71,1.93A.17.17,0,0,0,42,26.53Z"/><path class="cls-4" d="M43.76,24.35a10.41,10.41,0,0,0,5.15-.68c.16-.07.07-.35-.1-.29a12.34,12.34,0,0,1-5,.62A.18.18,0,0,0,43.76,24.35Z"/><path class="cls-4" d="M34.78,23.41a20.33,20.33,0,0,0,5-.1c.22,0,.15-.34-.06-.33a37.33,37.33,0,0,1-5,.07A.18.18,0,0,0,34.78,23.41Z"/><path class="cls-4" d="M48.92,10.93A38.25,38.25,0,0,0,62.14,9c.17-.06.08-.34-.09-.29A61,61,0,0,1,49,10.56C48.72,10.57,48.67,10.93,48.92,10.93Z"/><path class="cls-4" d="M52.63,12.09c2.46-.37,5-.64,7.4-1.16a.15.15,0,0,0-.05-.3c-2.48.24-4.95.72-7.41,1.11A.18.18,0,0,0,52.63,12.09Z"/><path class="cls-4" d="M62.8,10a15.39,15.39,0,0,0,4.73-1.78.17.17,0,0,0-.15-.3,34.85,34.85,0,0,1-4.65,1.68C62.48,9.67,62.54,10.06,62.8,10Z"/><path class="cls-4" d="M65.54,7.74a14,14,0,0,1,2.7-1,.16.16,0,0,0,0-.32,9.1,9.1,0,0,0-2.81,1C65.18,7.52,65.33,7.85,65.54,7.74Z"/><path class="cls-4" d="M40.44,9.54a6.94,6.94,0,0,0,6.44,1.09c.17-.06.08-.32-.09-.29a8,8,0,0,1-6.15-1.09A.18.18,0,0,0,40.44,9.54Z"/><path class="cls-4" d="M40.65,11.47a15.41,15.41,0,0,0,5.23.56.17.17,0,0,0,0-.33,28,28,0,0,1-5.09-.58C40.55,11.07,40.42,11.41,40.65,11.47Z"/><path class="cls-4" d="M47.9,12.07c1.1,0,2.23,0,3.32-.13a.17.17,0,0,0,0-.33,32.45,32.45,0,0,0-3.27.08C47.7,11.7,47.65,12.08,47.9,12.07Z"/><path class="cls-4" d="M38.15,10c.68.28,1.36.59,2.06.81a.16.16,0,0,0,.11-.3c-.66-.33-1.36-.58-2-.86C38.05,9.54,37.93,9.89,38.15,10Z"/><path class="cls-4" d="M45.53,8.78a32.23,32.23,0,0,0,15.69-1c.16-.06.07-.32-.09-.28a41.42,41.42,0,0,1-15.56,1C45.32,8.37,45.29,8.74,45.53,8.78Z"/><path class="cls-4" d="M62,8.23c.78-.25,1.56-.49,2.32-.79.16-.06.08-.34-.09-.29-.79.21-1.56.47-2.34.74C61.65,8,61.76,8.29,62,8.23Z"/><path class="cls-4" d="M64.61,6.47c.81-.28,1.65-.54,2.44-.89.15-.07.07-.34-.1-.29-.84.23-1.67.56-2.5.86C64.23,6.22,64.39,6.55,64.61,6.47Z"/><path class="cls-4" d="M69.81,3a2.29,2.29,0,0,1-1.23,1,.17.17,0,0,0,.1.31,2,2,0,0,0,1.51-1.21C70.31,3,69.92,2.81,69.81,3Z"/><path class="cls-4" d="M71.35,3.15a31.63,31.63,0,0,1-4.69,2.78c-.18.09,0,.35.14.28a18.86,18.86,0,0,0,4.8-2.77C71.79,3.29,71.55,3,71.35,3.15Z"/><path class="cls-4" d="M72.64,3.73a26.82,26.82,0,0,1-4.33,2.54.15.15,0,1,0,.13.28A15.55,15.55,0,0,0,72.86,4C73,3.85,72.81,3.6,72.64,3.73Z"/><path class="cls-4" d="M73.54,4.61c-1.37.78-2.73,1.59-4.06,2.44-.17.11,0,.39.14.29,1.37-.78,2.73-1.59,4.06-2.43C73.86,4.8,73.73,4.5,73.54,4.61Z"/><path class="cls-4" d="M54,23.06a45.91,45.91,0,0,0,13.66-4,.16.16,0,0,0-.14-.29,127.63,127.63,0,0,1-13.58,3.91A.18.18,0,0,0,54,23.06Z"/><path class="cls-4" d="M57.8,23.26c1.87-.45,3.76-.88,5.6-1.46.19-.06.15-.36-.06-.32-1.89.38-3.75.9-5.61,1.4C57.49,23,57.55,23.32,57.8,23.26Z"/><path class="cls-4" d="M70,19a33,33,0,0,0,12.22-6.28c.16-.13,0-.36-.21-.24a41.89,41.89,0,0,1-12.08,6.1C69.63,18.65,69.7,19.07,70,19Z"/><path class="cls-4" d="M68.57,19.82c-1.39.26-2.78.56-4.15.95a.16.16,0,0,0,.06.32c1.4-.23,2.78-.55,4.16-.9A.19.19,0,0,0,68.57,19.82Z"/><path class="cls-4" d="M76,19.15c-4.15,1.42-8.34,2.67-12.54,3.93-.18.05-.14.34.05.29,4.26-1.11,8.46-2.48,12.63-3.93C76.34,19.37,76.2,19.08,76,19.15Z"/><path class="cls-4" d="M70.78,22.44c-1.12.21-2.23.41-3.34.66a.16.16,0,0,0,.06.31c1.12-.18,2.23-.4,3.34-.62A.18.18,0,0,0,70.78,22.44Z"/><path class="cls-4" d="M62,23.39c-4.09,1-8.19,1.8-12.3,2.67a.15.15,0,0,0,.06.3C53.85,25.7,58,24.78,62,23.75,62.26,23.69,62.2,23.33,62,23.39Z"/><path class="cls-4" d="M60.4,25.22c-.89.17-1.79.33-2.67.53a.15.15,0,0,0,.05.29c.89-.15,1.78-.34,2.67-.52C60.64,25.48,60.59,25.18,60.4,25.22Z"/><path class="cls-4" d="M55.71,23.51c-.38.13-.76.25-1.12.41a.15.15,0,0,0,.09.29c.4-.1.79-.24,1.19-.37C56.09,23.77,55.93,23.44,55.71,23.51Z"/><path class="cls-4" d="M52.47,23.19a6.85,6.85,0,0,0-1.57.15c-.19.05-.2.34,0,.35a7.05,7.05,0,0,0,1.58-.15C52.68,23.5,52.68,23.18,52.47,23.19Z"/><path class="cls-4" d="M75.82,15.22a39.39,39.39,0,0,1-6.76,2.86c-.17.06-.07.34.1.3A19.25,19.25,0,0,0,76,15.55C76.16,15.43,76,15.11,75.82,15.22Z"/><path class="cls-4" d="M72.11,15.66a113.65,113.65,0,0,1-12.88,4.15c-.18.05-.14.34.06.3a70.4,70.4,0,0,0,13-4.16C72.44,15.87,72.3,15.58,72.11,15.66Z"/><path class="cls-4" d="M66.18,16.45c-.91.36-1.82.72-2.72,1.1-.17.07-.05.32.13.26.91-.34,1.82-.7,2.73-1.06C66.52,16.67,66.38,16.37,66.18,16.45Z"/><path class="cls-4" d="M58.48,20.39a32.72,32.72,0,0,0-5,1.36c-.17.07-.08.36.1.31,1.65-.45,3.27-.94,4.94-1.29C58.78,20.72,58.72,20.34,58.48,20.39Z"/><path class="cls-4" d="M78.85,16.53c-3.31,1.39-6.75,2.38-10.09,3.69-.16.07-.07.35.1.31A59,59,0,0,0,79,16.81C79.17,16.73,79,16.45,78.85,16.53Z"/><path class="cls-4" d="M79.7,17.6c-.74.36-1.5.7-2.21,1.11a.15.15,0,0,0,.13.28c.77-.3,1.51-.67,2.25-1A.2.2,0,0,0,79.7,17.6Z"/><path class="cls-4" d="M29.16,24.29a14.09,14.09,0,0,0,7.16.66.16.16,0,0,0,0-.31,20.35,20.35,0,0,1-7-.67A.17.17,0,0,0,29.16,24.29Z"/><path class="cls-4" d="M39.2,24.62c.62-.05,1.25-.09,1.87-.16.19,0,.13-.29,0-.28-.62,0-1.25.09-1.87.13C39,24.33,39,24.63,39.2,24.62Z"/><path class="cls-4" d="M32.39,21.87a19.65,19.65,0,0,0,6.17.15c.16,0,.16-.3,0-.3a39.23,39.23,0,0,1-6.13-.21C32.18,21.48,32.15,21.83,32.39,21.87Z"/><path class="cls-4" d="M31.36,23.73a7.07,7.07,0,0,0,2.86.11c.17,0,.18-.34,0-.33a11.4,11.4,0,0,1-2.8-.16C31.16,23.3,31.13,23.68,31.36,23.73Z"/><path class="cls-4" d="M41.29,23.75c.78-.11,1.58-.17,2.35-.35a.16.16,0,1,0-.06-.31,23.67,23.67,0,0,0-2.35.32C41,23.44,41.07,23.78,41.29,23.75Z"/><path class="cls-4" d="M41.08,25.69c.22,0,.25-.34,0-.34S40.85,25.69,41.08,25.69Z"/><path class="cls-4" d="M29.15,40.39a7,7,0,0,0,3.85.4c.18,0,.18-.34,0-.33A13.1,13.1,0,0,1,29.3,40C29.05,40,28.91,40.29,29.15,40.39Z"/><path class="cls-4" d="M41.31,40.09a45.1,45.1,0,0,0,9.91-.77.14.14,0,0,0,0-.27,56,56,0,0,1-9.84.75C41.15,39.8,41.12,40.09,41.31,40.09Z"/><path class="cls-4" d="M51.49,39.85a26.73,26.73,0,0,0,7.34-1.68c.17-.07.05-.3-.11-.25a33.79,33.79,0,0,1-7.28,1.64C51.25,39.58,51.3,39.87,51.49,39.85Z"/><path class="cls-4" d="M51.18,39.1c2.2-.23,4.41-.45,6.6-.8.21,0,.15-.33-.06-.31-2.2.18-4.4.49-6.6.78C50.91,38.8,51,39.12,51.18,39.1Z"/><path class="cls-4" d="M58.2,39a37.37,37.37,0,0,0,9.62-1.53c.18-.06.14-.35-.06-.31-3.19.64-6.34,1.14-9.57,1.55C58,38.68,58,39,58.2,39Z"/><path class="cls-4" d="M59.65,38.16a61.51,61.51,0,0,1,8.18-1.58c.21,0,.15-.34-.06-.33a34.63,34.63,0,0,0-8.18,1.59C59.4,37.9,59.45,38.21,59.65,38.16Z"/><path class="cls-4" d="M66.6,37.42c1.07-.13,2.15-.25,3.21-.4.19,0,.13-.3,0-.28-1.07.1-2.14.24-3.21.37C66.35,37.13,66.4,37.44,66.6,37.42Z"/><path class="cls-4" d="M68.62,35.87a29.59,29.59,0,0,1,4.9-1.25.16.16,0,0,0,0-.31,16.47,16.47,0,0,0-5,1.22C68.22,35.62,68.39,36,68.62,35.87Z"/><path class="cls-4" d="M75.05,34.49l2.15-.57c.17-.05.13-.32,0-.28L75,34.2C74.82,34.24,74.87,34.54,75.05,34.49Z"/><path class="cls-4" d="M82.86,33.71a20.37,20.37,0,0,0,7.23-3.52c.15-.11,0-.31-.19-.21a27.43,27.43,0,0,1-7.09,3.46C82.64,33.49,82.69,33.76,82.86,33.71Z"/><path class="cls-4" d="M81.87,33A18,18,0,0,0,90.41,29a.16.16,0,0,0-.21-.24,21.51,21.51,0,0,1-8.38,4C81.62,32.77,81.67,33.08,81.87,33Z"/><path class="cls-4" d="M82.88,32.57a27.44,27.44,0,0,0,6.75-3.87c.16-.13,0-.34-.2-.23a49.07,49.07,0,0,1-6.7,3.79A.17.17,0,0,0,82.88,32.57Z"/><path class="cls-4" d="M83,31.4a25.25,25.25,0,0,0,6.84-4c.14-.12,0-.3-.17-.21a46.72,46.72,0,0,1-6.81,3.88C82.66,31.19,82.79,31.47,83,31.4Z"/><path class="cls-4" d="M83.27,30.14A22.25,22.25,0,0,0,89,26.19a.14.14,0,0,0-.19-.21,32.77,32.77,0,0,1-5.65,3.89A.15.15,0,1,0,83.27,30.14Z"/><path class="cls-4" d="M86.9,28.86c.75-.63,1.58-1.23,2.26-1.93A.15.15,0,0,0,89,26.7a29.52,29.52,0,0,0-2.26,1.93A.15.15,0,0,0,86.9,28.86Z"/><path class="cls-4" d="M28.93,38.64a12.2,12.2,0,0,0,1.59.24c.16,0,.24-.25.07-.29A12.91,12.91,0,0,0,29,38.31C28.74,38.28,28.72,38.61,28.93,38.64Z"/><path class="cls-4" d="M28.67,37.7a12.41,12.41,0,0,0,6.3.63.14.14,0,0,0,0-.28,15.71,15.71,0,0,1-6.13-.68A.18.18,0,0,0,28.67,37.7Z"/><path class="cls-4" d="M28.81,37.13c1.17.15,2.35.36,3.53.43a.16.16,0,0,0,0-.31c-1.16-.22-2.35-.31-3.53-.44A.16.16,0,0,0,28.81,37.13Z"/><path class="cls-4" d="M29.21,36.14a3.87,3.87,0,0,1,1.85.17.15.15,0,0,0,.1-.28,3.55,3.55,0,0,0-2-.21C28.94,35.85,29,36.17,29.21,36.14Z"/><path class="cls-4" d="M35.86,38.74c2.09.08,4.18.24,6.27.2.18,0,.22-.28,0-.29-2.08-.19-4.18-.18-6.27-.24C35.68,38.4,35.65,38.73,35.86,38.74Z"/><path class="cls-4" d="M43.86,39c1.51,0,3,0,4.51-.13a.14.14,0,0,0,0-.27c-1.49,0-3,.06-4.47.1C43.7,38.68,43.67,39,43.86,39Z"/><path class="cls-4" d="M55.41,24.44c.85-.09,1.7-.16,2.54-.27.18,0,.13-.29-.05-.27-.84.06-1.69.16-2.54.24C55.17,24.16,55.22,24.45,55.41,24.44Z"/><path class="cls-4" d="M45.06,22.86c1.26,0,2.53.13,3.8.08a.18.18,0,0,0,0-.35c-1.26-.12-2.53-.11-3.79-.15C44.83,22.44,44.79,22.85,45.06,22.86Z"/><path class="cls-4" d="M32.69,20.5a14.29,14.29,0,0,0,1.6.21c.17,0,.26-.27.07-.32-.53-.12-1.09-.17-1.64-.24C32.5,20.12,32.47,20.47,32.69,20.5Z"/><path class="cls-4" d="M32.61,19.27a5.77,5.77,0,0,0,2.94.58c.21,0,.17-.31,0-.34a13.91,13.91,0,0,1-2.79-.62C32.5,18.79,32.37,19.16,32.61,19.27Z"/><path class="cls-4" d="M32.68,17.91A37.23,37.23,0,0,0,37.79,19a.17.17,0,0,0,.07-.32,38.69,38.69,0,0,0-5.1-1.13A.18.18,0,0,0,32.68,17.91Z"/><path class="cls-4" d="M33.7,16.84a4.28,4.28,0,0,0,.78.21c.2,0,.25-.26.08-.34a4.64,4.64,0,0,0-.72-.23C33.6,16.43,33.46,16.76,33.7,16.84Z"/><path class="cls-4" d="M35.94,17.48a15.38,15.38,0,0,0,2.14.23c.17,0,.27-.27.07-.32A17.38,17.38,0,0,0,36,17.12.18.18,0,0,0,35.94,17.48Z"/><path class="cls-4" d="M35.1,15.73a17.32,17.32,0,0,0,2.13.3c.17,0,.26-.26.07-.31a19.56,19.56,0,0,0-2.17-.32C34.92,15.37,34.89,15.7,35.1,15.73Z"/><path class="cls-4" d="M35.92,14.55l.53.06a.15.15,0,1,0,0-.29c-.17,0-.35-.06-.53-.09S35.71,14.53,35.92,14.55Z"/><path class="cls-4" d="M75.11,6.81A10.81,10.81,0,0,0,73.37,8a.18.18,0,0,0,.19.29,10.59,10.59,0,0,0,1.76-1.14C75.49,7,75.3,6.7,75.11,6.81Z"/><path class="cls-4" d="M76.12,7.51a5,5,0,0,0-2.07,1.32c-.13.15.09.3.23.21a11.81,11.81,0,0,1,2-1.18C76.52,7.77,76.35,7.42,76.12,7.51Z"/><path class="cls-4" d="M77,8.44a6.72,6.72,0,0,0-2.54,1.49.16.16,0,0,0,.21.24,12.13,12.13,0,0,1,2.48-1.41C77.36,8.68,77.2,8.37,77,8.44Z"/><path class="cls-4" d="M78.35,8.88a1.23,1.23,0,0,0-.14.25.18.18,0,0,0,.28.19,1,1,0,0,0,.19-.21C78.82,8.89,78.49,8.67,78.35,8.88Z"/><path class="cls-4" d="M77.56,9.71c-1.75.72-3.59,1.35-5.28,2.22a.17.17,0,0,0,.15.31c1.8-.59,3.55-1.44,5.3-2.19C78,10,77.79,9.62,77.56,9.71Z"/><path class="cls-4" d="M79.33,10a30.9,30.9,0,0,1-5,2.13c-.17.06-.08.35.09.3a19.75,19.75,0,0,0,5-2.14C79.65,10.21,79.52,9.92,79.33,10Z"/><path class="cls-4" d="M79.62,10.87a12,12,0,0,0-1.55,1.3c-.11.13.07.34.22.25a11.81,11.81,0,0,0,1.59-1.25C80.08,11,79.82,10.71,79.62,10.87Z"/><path class="cls-4" d="M80.32,11.93a6.32,6.32,0,0,0-.77.69c-.15.16.11.34.26.24a6.61,6.61,0,0,0,.77-.63A.2.2,0,0,0,80.32,11.93Z"/><path class="cls-4" d="M82.3,14.18A18.56,18.56,0,0,1,80,15.82c-.14.09,0,.36.14.31a5.83,5.83,0,0,0,2.45-1.68C82.77,14.28,82.48,14,82.3,14.18Z"/><path class="cls-4" d="M83.34,15.18c-.59.48-1.2.93-1.75,1.46a.16.16,0,0,0,.2.24,22.34,22.34,0,0,0,1.8-1.41C83.78,15.32,83.53,15,83.34,15.18Z"/><path class="cls-4" d="M84.06,16.27c-.35.36-.71.71-1,1.1-.12.15.1.34.24.22.37-.32.7-.67,1-1C84.49,16.39,84.24,16.09,84.06,16.27Z"/><path class="cls-4" d="M84.24,17.26A37.63,37.63,0,0,1,79.79,20a.17.17,0,0,0,.14.3,18.73,18.73,0,0,0,4.57-2.72C84.71,17.41,84.45,17.1,84.24,17.26Z"/><path class="cls-4" d="M84.86,18.51c-1.33.79-2.7,1.46-4.09,2.14-.17.08-.09.36.1.31a12.59,12.59,0,0,0,4.22-2.11C85.27,18.72,85.07,18.39,84.86,18.51Z"/><path class="cls-4" d="M85.93,19.56a21.84,21.84,0,0,0-2,1.29c-.15.12,0,.37.19.29a23.15,23.15,0,0,0,2-1.23C86.31,19.78,86.15,19.42,85.93,19.56Z"/><path class="cls-4" d="M86.5,20.28a5.89,5.89,0,0,0-.9.9c-.1.14.07.37.23.27a5.89,5.89,0,0,0,.94-.86C87,20.41,86.7,20.1,86.5,20.28Z"/><path class="cls-4" d="M87.1,21.23l-.79.35a.17.17,0,0,0,.14.31l.82-.29C87.51,21.51,87.34,21.13,87.1,21.23Z"/><path class="cls-4" d="M29.84,32.92a2.56,2.56,0,0,0,2.2.46c.17-.05.09-.3-.06-.32a4.79,4.79,0,0,1-1.9-.47C29.85,32.46,29.62,32.77,29.84,32.92Z"/><path class="cls-4" d="M29.05,31.26a15.12,15.12,0,0,0,7.56,0,.16.16,0,0,0,0-.31,23.74,23.74,0,0,1-7.43-.06C28.93,30.87,28.85,31.21,29.05,31.26Z"/><path class="cls-4" d="M29.86,30.51a10.94,10.94,0,0,0,1.4.07.17.17,0,0,0,0-.34,12.81,12.81,0,0,0-1.39-.11A.19.19,0,0,0,29.86,30.51Z"/><path class="cls-4" d="M32.51,30.59c.84-.08,1.71-.11,2.54-.26.17,0,.17-.32,0-.31a25.21,25.21,0,0,0-2.59.25C32.24,30.29,32.3,30.61,32.51,30.59Z"/><path class="cls-4" d="M30.21,29.58a6.66,6.66,0,0,0,3,0,.16.16,0,0,0-.06-.32,9.65,9.65,0,0,1-2.89,0C30,29.19,30,29.53,30.21,29.58Z"/><path class="cls-4" d="M30.41,28.52a2.14,2.14,0,0,1,1.51.19c.17.08.29-.17.15-.27a2,2,0,0,0-1.72-.27C30.13,28.23,30.19,28.58,30.41,28.52Z"/><path class="cls-4" d="M40.73,25.41c1-.06,2.05-.12,3.06-.23.17,0,.16-.3,0-.29-1,0-2.07.12-3.11.2C40.46,25.11,40.52,25.43,40.73,25.41Z"/><path class="cls-4" d="M42.1,27.28c1.65-.12,3.3-.2,4.94-.39.17,0,.16-.31,0-.3-1.67.06-3.33.24-5,.37C41.84,27,41.89,27.3,42.1,27.28Z"/><path class="cls-4" d="M50,22.71a7.38,7.38,0,0,1,2.28-.44c.2,0,.17-.32,0-.34a4.8,4.8,0,0,0-2.45.41C49.55,22.45,49.72,22.81,50,22.71Z"/><path class="cls-4" d="M48.42,21.4c.46,0,.93.07,1.4.07a.15.15,0,0,0,0-.29c-.47-.06-.94-.07-1.4-.1A.16.16,0,0,0,48.42,21.4Z"/><path class="cls-4" d="M39.92,21.85a3.55,3.55,0,0,0,2.64.11c.18-.06.08-.35-.1-.32A5.65,5.65,0,0,1,40,21.52.18.18,0,0,0,39.92,21.85Z"/><path class="cls-4" d="M44.83,5.38c2.83-.86,5.7-1.67,8.53-2.54a.16.16,0,0,0-.06-.32A35.67,35.67,0,0,0,44.74,5.1C44.59,5.17,44.66,5.43,44.83,5.38Z"/><path class="cls-4" d="M55.13,2.37a10.85,10.85,0,0,0,1.61.17c.17,0,.27-.28.07-.33A10,10,0,0,0,55.17,2C54.91,1.94,54.88,2.33,55.13,2.37Z"/><path class="cls-4" d="M58.78,2.26a24,24,0,0,1,5.55.34c.2,0,.28-.29.08-.35a15.15,15.15,0,0,0-5.69-.35C58.48,1.92,58.55,2.28,58.78,2.26Z"/><path class="cls-4" d="M41.94,8.85a18.67,18.67,0,0,0,2.87.47c.2,0,.29-.29.08-.36A19.05,19.05,0,0,0,42,8.45C41.72,8.41,41.69,8.8,41.94,8.85Z"/><path class="cls-4" d="M43.09,7.62c.73.16,1.48.36,2.23.45.17,0,.24-.26.07-.31-.74-.22-1.52-.34-2.27-.5C42.89,7.21,42.86,7.57,43.09,7.62Z"/><path class="cls-4" d="M50.44,7.94a23.67,23.67,0,0,0,6.72-.39.16.16,0,0,0,0-.31c-2.23.15-4.4.38-6.64.37C50.25,7.6,50.22,7.93,50.44,7.94Z"/><path class="cls-4" d="M47,9.91c.94.09,1.87.15,2.81.15a.16.16,0,0,0,0-.31C48.91,9.64,48,9.58,47,9.56A.18.18,0,0,0,47,9.91Z"/><path class="cls-4" d="M45.31,12.31a3.52,3.52,0,0,0,2,.12.16.16,0,0,0-.06-.32A4.14,4.14,0,0,1,45.43,12C45.22,11.9,45.09,12.24,45.31,12.31Z"/><path class="cls-4" d="M60.1,11.31c.73-.06,1.47-.12,2.2-.22.19,0,.13-.3,0-.29-.74,0-1.47.12-2.21.19C59.83,11,59.89,11.33,60.1,11.31Z"/><path class="cls-4" d="M68.09,8.72a11.7,11.7,0,0,0,1.53-.46c.19-.07.08-.36-.11-.33A13.06,13.06,0,0,0,68,8.32C67.77,8.39,67.84,8.79,68.09,8.72Z"/><path class="cls-4" d="M30.86,40a14.86,14.86,0,0,0,6.22.43.16.16,0,0,0-.06-.32A20.84,20.84,0,0,1,31,39.71C30.77,39.66,30.66,40,30.86,40Z"/><path class="cls-4" d="M29.91,39.35a33.25,33.25,0,0,0,7.19.25c.19,0,.17-.33,0-.34-2.38-.07-4.75,0-7.13-.28A.19.19,0,0,0,29.91,39.35Z"/><path class="cls-4" d="M30.06,38.26c2.27.14,4.54.35,6.8.33a.17.17,0,1,0,0-.33c-2.25-.26-4.53-.3-6.79-.41C29.84,37.84,29.8,38.25,30.06,38.26Z"/><path class="cls-4" d="M29.81,37a23.36,23.36,0,0,0,7.45.6c.19,0,.17-.33,0-.34a49.55,49.55,0,0,1-7.39-.7C29.57,36.48,29.54,36.92,29.81,37Z"/><path class="cls-4" d="M29.36,36.39c2.14.12,4.32.37,6.47.31a.18.18,0,0,0,0-.36c-2.12-.29-4.32-.27-6.46-.38A.22.22,0,0,0,29.36,36.39Z"/><path class="cls-4" d="M29.57,35.61c1.92,0,3.87.2,5.79.1.21,0,.18-.33,0-.35-1.89-.19-3.83-.13-5.73-.17C29.34,35.19,29.3,35.6,29.57,35.61Z"/><path class="cls-4" d="M29.33,34.32a52.06,52.06,0,0,0,5.44.2c.2,0,.17-.3,0-.33a53.91,53.91,0,0,0-5.39-.29C29.1,33.89,29.06,34.31,29.33,34.32Z"/><path class="cls-4" d="M30.54,33.36a14.76,14.76,0,0,0,4.4.14.18.18,0,0,0,0-.35,34.8,34.8,0,0,1-4.33-.23C30.3,32.88,30.27,33.32,30.54,33.36Z"/><path class="cls-4" d="M30.76,32.63a18.35,18.35,0,0,0,3.85,0,.18.18,0,0,0,0-.36c-1.26,0-2.52,0-3.79,0A.23.23,0,0,0,30.76,32.63Z"/><path class="cls-4" d="M30.24,31.66c1.51.07,3.07.26,4.58.18.21,0,.18-.32,0-.35-1.49-.21-3-.17-4.53-.23A.2.2,0,0,0,30.24,31.66Z"/><path class="cls-4" d="M30.25,30.77a23,23,0,0,0,3.52,0,.19.19,0,0,0,0-.37,21,21,0,0,0-3.46-.11C30,30.32,30,30.76,30.25,30.77Z"/><path class="cls-4" d="M30.13,30.12c.23,0,.27-.36,0-.36S29.9,30.12,30.13,30.12Z"/><path class="cls-4" d="M31,37.71c.2,0,.23-.31,0-.31S30.81,37.71,31,37.71Z"/><path class="cls-4" d="M84.92,36.44c2.45-.53,4.88-1.33,7.26-2.09.16-.05.08-.32-.08-.28a75.45,75.45,0,0,0-7.29,2C84.6,36.14,84.71,36.48,84.92,36.44Z"/><path class="cls-4" d="M95.42,33.07a13.2,13.2,0,0,0,1.93-.73.16.16,0,0,0-.1-.31,14.29,14.29,0,0,0-2,.71C95,32.82,95.2,33.15,95.42,33.07Z"/><path class="cls-4" d="M92.28,39.87a45.83,45.83,0,0,0,12-4.44.15.15,0,0,0-.13-.26,59.7,59.7,0,0,1-12,4.42C92.06,39.64,92.11,39.91,92.28,39.87Z"/><path class="cls-4" d="M88.49,14.76c4.9,0,9.83,0,14.73-.11.2,0,.24-.3,0-.32a93.51,93.51,0,0,0-14.78.1C88.29,14.44,88.3,14.76,88.49,14.76Z"/><path class="cls-4" d="M94.18,12.65c.17,0,.2-.27,0-.27S94,12.65,94.18,12.65Z"/><path class="cls-4" d="M104.81,15.1a29.05,29.05,0,0,1,7.86,1.64.18.18,0,0,0,.12-.33,21.89,21.89,0,0,0-8-1.6C104.65,14.81,104.62,15.09,104.81,15.1Z"/><path class="cls-4" d="M8.83,49.46c6.75,1.42,14,2.39,20.87,1.65.19,0,.18-.34,0-.34A118.16,118.16,0,0,1,8.86,49.13C8.64,49.09,8.62,49.42,8.83,49.46Z"/><path class="cls-4" d="M18.63,52.31c1,.11,2,.27,3,.29a.15.15,0,0,0,0-.29c-1-.16-2-.18-3-.26A.13.13,0,0,0,18.63,52.31Z"/><path class="cls-4" d="M3.83,36.83C2.37,38-2,43,1.11,44.58c.16.08.31-.2.15-.3C-1.4,42.76,2.83,38.16,4,37.07A.16.16,0,0,0,3.83,36.83Z"/><path class="cls-4" d="M2.09,45.49a2.12,2.12,0,0,0,1.69,1.2.17.17,0,0,0,.08-.32,2.42,2.42,0,0,1-1.43-1C2.31,45.11,2,45.27,2.09,45.49Z"/><path class="cls-4" d="M7.22,34.68c3.41-1.55,6.91-3.08,10.18-4.91a.17.17,0,0,0-.14-.3c-3.47,1.42-6.85,3.21-10.18,4.92A.16.16,0,0,0,7.22,34.68Z"/><path class="cls-4" d="M12,30.72a9.78,9.78,0,0,0,1.18-.43.17.17,0,0,0-.1-.31,9.65,9.65,0,0,0-1.19.37C11.65,30.42,11.76,30.79,12,30.72Z"/><path class="cls-4" d="M16.25,29.23c1.87-.76,3.75-1.5,5.61-2.3.23-.1.06-.44-.17-.35-1.88.74-3.73,1.55-5.6,2.33C15.88,29,16,29.32,16.25,29.23Z"/><path class="cls-4" d="M23.45,27.15a35.35,35.35,0,0,0,4.05-1.57c.17-.09.09-.4-.11-.34a38.43,38.43,0,0,0-4.06,1.66C23.17,27,23.29,27.21,23.45,27.15Z"/><path class="cls-4" d="M13.67,49c8.39,1.36,17.24,1.13,25.69.63,9.06-.53,18.47-1.49,27.17-4.11a.23.23,0,0,0-.08-.46C58,46.28,49.65,48,41.09,48.58c-9.18.68-18.21.13-27.38.08A.19.19,0,0,0,13.67,49Z"/><path class="cls-4" d="M62.58,46.59c15.14-2.51,31.42-6.26,45-13.76a.28.28,0,0,0-.24-.5c-14.91,5.16-29.21,10.8-44.81,13.74A.26.26,0,0,0,62.58,46.59Z"/></g></g></svg>